<svg width="152" height="168" viewBox="0 0 152 168" fill="none" xmlns="http://www.w3.org/2000/svg">
<path d="M116.579 140.351C114.149 140.351 111.769 139.121 110.409 136.891C108.329 133.491 109.409 129.041 112.809 126.961C117.579 124.051 122.329 117.031 123.189 111.631C123.489 109.741 123.169 108.881 123.079 108.771C123.069 108.761 122.969 108.681 122.749 108.591C118.349 106.861 109.469 119.271 104.759 131.101C103.289 134.801 99.089 136.621 95.389 135.151C91.679 133.681 89.869 129.491 91.339 125.791C92.919 121.801 107.359 87.0305 128.029 95.1605C133.619 97.3605 137.129 102.191 137.669 108.421C138.569 118.861 130.629 133.001 120.319 139.291C119.149 140.001 117.859 140.351 116.579 140.351Z" fill="#0C6ED6"/>
<path d="M17.8591 123.68C8.40913 123.68 4.07914 117.61 2.73914 115.2C-2.99086 104.9 1.75914 88.0604 12.5191 80.5304C15.7891 78.2404 20.2891 79.0404 22.5691 82.3104C24.8591 85.5804 24.0591 90.0804 20.7891 92.3604C15.5091 96.0504 13.5491 104.92 15.3591 108.17C16.4591 110.15 21.1291 109.02 24.7891 107.45C28.4491 105.88 32.6991 107.58 34.2691 111.24C35.8391 114.9 34.1391 119.15 30.4791 120.72C25.5191 122.86 21.3391 123.68 17.8591 123.68Z" fill="#0C6ED6"/>
<path d="M20.2087 42.9304C21.2987 44.0404 22.9787 44.1404 24.9187 43.5604C31.0287 41.7004 39.7587 32.9304 41.2087 27.0404C41.6187 25.3804 41.4487 23.9404 40.4687 22.9504C34.9487 17.3604 17.3787 8.61036 11.7787 14.1304C6.18866 19.6504 14.6987 37.3404 20.2087 42.9304Z" fill="#3F8CFF"/>
<path d="M24.9298 43.5606C31.0398 41.7006 39.7698 32.9306 41.2198 27.0406C36.4198 22.4706 22.5898 15.7306 18.1298 20.1406C13.5798 24.6106 20.4198 38.9206 24.9298 43.5606Z" fill="#0C6ED6"/>
<path d="M131.28 133.351C128.55 165.171 77.4697 162.431 57.4797 154.741C56.2497 154.181 55.0597 153.571 53.9097 152.901C37.2697 143.271 28.7197 122.521 25.0797 102.991C23.8397 96.3306 23.1597 89.8206 22.9397 83.9406C22.6597 76.6806 21.2597 58.1506 21.4397 50.4306C22.0497 23.9506 39.7997 13.6906 56.2697 17.4906C68.3797 20.2906 79.7798 30.6706 83.2098 47.8006C83.5998 49.7706 84.0497 51.7106 84.6097 53.6306C84.9097 54.6406 85.1497 55.6506 85.3597 56.6406C86.1997 60.4506 86.5997 64.0206 88.0597 66.1406C88.3297 66.5406 88.6097 66.9106 88.8997 67.2806C95.1997 75.4406 104.69 77.7706 113.15 82.3006C124.65 88.4706 134.25 98.7306 131.28 133.351Z" fill="#3F8CFF"/>
<path d="M113.148 82.3003C108.628 86.9603 98.4784 90.5903 93.2984 87.7103C86.8584 84.1303 86.0284 74.9103 88.8984 67.2803C95.1984 75.4403 104.688 77.7603 113.148 82.3003Z" fill="#0C6ED6"/>
<path d="M85.3699 56.6405C75.1299 59.4205 46.6499 66.3405 42.8299 56.0905C38.4999 44.4905 43.8899 30.0105 56.2699 17.5005C68.3799 20.3005 79.7799 30.6805 83.2099 47.8105C83.5999 49.7805 84.0499 51.7205 84.6099 53.6405C84.9099 54.6305 85.1599 55.6405 85.3699 56.6405Z" fill="#0C6ED6"/>
<path d="M53.2489 58.9602C58.8389 58.9602 63.3689 54.4302 63.3689 48.8402C63.3689 43.2502 58.8389 38.7202 53.2489 38.7202C47.6589 38.7202 43.1289 43.2502 43.1289 48.8402C43.1289 54.4302 47.6589 58.9602 53.2489 58.9602Z" fill="#3F8CFF"/>
<path d="M53.4583 56.7706C57.8583 56.7706 61.4283 53.2006 61.4283 48.8006C61.4283 44.4006 57.8583 40.8306 53.4583 40.8306C49.0583 40.8306 45.4883 44.4006 45.4883 48.8006C45.4883 53.2006 49.0583 56.7706 53.4583 56.7706Z" fill="#B0E881"/>
<path d="M55.619 48.6905C56.679 48.3005 57.059 46.6605 56.459 45.0305C55.859 43.4005 54.509 42.3905 53.449 42.7805C52.389 43.1705 52.009 44.8105 52.609 46.4405C53.209 48.0805 54.559 49.0805 55.619 48.6905Z" fill="#183B59"/>
<path d="M50.6492 35.3902C54.4292 34.6802 57.2792 32.9602 57.0192 31.5302C56.7492 30.1102 53.4692 29.5302 49.6892 30.2402C45.9092 30.9502 43.0592 32.6702 43.3192 34.1002C43.5792 35.5202 46.8692 36.1002 50.6492 35.3902Z" fill="#86BCFC"/>
<path d="M26.2894 64.1102C31.7294 64.1102 36.1395 59.7002 36.1395 54.2602C36.1395 48.8202 31.7294 44.4102 26.2894 44.4102C20.8494 44.4102 16.4395 48.8202 16.4395 54.2602C16.4395 59.7002 20.8494 64.1102 26.2894 64.1102Z" fill="#0C6ED6"/>
<path d="M26.0899 62.0503C30.3699 62.0503 33.8399 58.5803 33.8399 54.3003C33.8399 50.0203 30.3699 46.5503 26.0899 46.5503C21.8099 46.5503 18.3399 50.0203 18.3399 54.3003C18.3299 58.5803 21.8099 62.0503 26.0899 62.0503Z" fill="#B0E881"/>
<path d="M23.8191 44.6304C27.5991 43.9204 30.4491 42.2004 30.1891 40.7704C29.9191 39.3504 26.6391 38.7705 22.8591 39.4805C19.0791 40.1905 16.2291 41.9104 16.4891 43.3404C16.7491 44.7604 20.0391 45.3404 23.8191 44.6304Z" fill="#86BCFC"/>
<path d="M29.119 53.5206C30.179 53.1306 30.559 51.4906 29.959 49.8606C29.359 48.2306 28.009 47.2206 26.949 47.6106C25.889 48.0006 25.509 49.6406 26.109 51.2706C26.709 52.9106 28.059 53.9106 29.119 53.5206Z" fill="#183B59"/>
<path d="M41.4199 66.6605C43.5199 66.2705 44.8899 64.1805 44.4899 62.0105C44.0799 59.8305 42.0499 58.3905 39.9499 58.7805C37.8499 59.1705 36.4799 61.2605 36.8799 63.4305C37.2799 65.6105 39.3199 67.0505 41.4199 66.6605Z" fill="#183B59"/>
<path d="M52.4684 66.9207C52.3084 67.4107 51.8984 67.8207 51.4084 68.0507C50.9184 68.2807 50.3884 68.3807 49.8584 68.4207C48.7984 68.4907 47.7584 68.3507 46.7384 68.1407C45.7184 67.9407 44.7383 67.6207 43.7583 67.2907C42.7883 66.9407 41.8383 66.5507 40.8983 66.1207L41.7484 65.6707C41.6084 66.4307 41.3984 67.1107 41.0784 67.7907C40.7484 68.4607 40.3484 69.1207 39.7484 69.6207C39.1684 70.1407 38.3784 70.4707 37.6084 70.4507C36.8384 70.4407 36.1484 70.1507 35.5684 69.7707C36.2484 69.9207 36.9383 70.0107 37.5583 69.8707C38.1783 69.7607 38.6884 69.4107 39.0984 68.9507C39.4984 68.4907 39.8083 67.9307 40.0383 67.3307C40.2683 66.7407 40.4683 66.0907 40.5583 65.4807L40.6884 64.6807L41.4184 65.0307C42.3084 65.4507 43.2384 65.8507 44.1584 66.2207C45.0784 66.6007 46.0284 66.9207 46.9684 67.2307C47.9184 67.5107 48.8784 67.7607 49.8484 67.8307C50.3284 67.8707 50.8184 67.8607 51.2784 67.7407C51.7484 67.6207 52.1784 67.3507 52.4684 66.9207Z" fill="#183B59"/>
<path d="M50.1585 62.6505C50.0485 62.6505 49.9385 62.5905 49.8885 62.4705C49.8185 62.3205 49.8785 62.1405 50.0285 62.0705C55.0885 59.7005 60.7285 59.5405 60.7885 59.5405C60.9485 59.5505 61.0885 59.6705 61.0985 59.8405C61.1085 60.0005 60.9685 60.1405 60.7985 60.1505C60.7385 60.1505 55.2185 60.3105 50.2785 62.6205C50.2485 62.6505 50.1985 62.6505 50.1585 62.6505Z" fill="#86BCFC"/>
<path d="M62.1284 66.9103C62.0984 66.9103 62.0584 66.9003 62.0284 66.8903C61.9784 66.8703 56.7684 65.0203 51.3284 65.4103C51.1684 65.4203 51.0184 65.3003 51.0084 65.1303C50.9984 64.9703 51.1184 64.8203 51.2884 64.8103C56.8584 64.4203 62.1784 66.3103 62.2384 66.3203C62.3984 66.3803 62.4784 66.5503 62.4184 66.7003C62.3684 66.8303 62.2584 66.9103 62.1284 66.9103Z" fill="#86BCFC"/>
<path d="M50.6495 64.1905C50.5195 64.1905 50.3995 64.1105 50.3595 63.9805C50.3095 63.8205 50.3995 63.6505 50.5595 63.6105C50.8695 63.5205 58.1395 61.4005 62.7795 63.1005C62.9395 63.1605 63.0195 63.3305 62.9595 63.4805C62.8995 63.6405 62.7295 63.7105 62.5795 63.6605C58.1295 62.0305 50.8095 64.1605 50.7395 64.1805C50.7095 64.1905 50.6795 64.1905 50.6495 64.1905Z" fill="#86BCFC"/>
<path d="M22.8886 67.2506C22.7586 67.2506 22.6486 67.1706 22.6086 67.0506C22.5486 66.8906 22.6386 66.7206 22.7886 66.6706C22.8386 66.6506 28.1586 64.7506 33.7286 65.1406C33.8886 65.1506 34.0186 65.3006 34.0086 65.4606C33.9986 65.6206 33.8586 65.7606 33.6886 65.7406C28.2386 65.3606 23.0386 67.2206 22.9886 67.2406C22.9586 67.2406 22.9286 67.2506 22.8886 67.2506Z" fill="#86BCFC"/>
<path d="M24.0796 74.0205C23.9996 74.0205 23.9096 73.9805 23.8496 73.9205C23.7396 73.7905 23.7596 73.6105 23.8796 73.5005C23.9196 73.4605 28.1996 69.7705 33.5396 68.1305C33.6996 68.0805 33.8696 68.1705 33.9196 68.3305C33.9696 68.4905 33.8796 68.6605 33.7196 68.7105C28.5096 70.3205 24.3196 73.9205 24.2796 73.9605C24.2296 74.0005 24.1496 74.0205 24.0796 74.0205Z" fill="#86BCFC"/>
<path d="M22.4091 71.2106C22.3291 71.2106 22.2491 71.1706 22.1791 71.1106C22.0691 70.9806 22.0791 70.8006 22.2091 70.6906C25.9191 67.4306 33.4691 66.7806 33.7891 66.7506C33.9591 66.7306 34.0991 66.8606 34.1191 67.0306C34.1391 67.2006 34.0091 67.3406 33.8391 67.3606C33.7591 67.3706 26.1691 68.0206 22.6091 71.1506C22.5491 71.1906 22.4791 71.2106 22.4091 71.2106Z" fill="#86BCFC"/>
<path d="M41.1998 25.7505C41.0298 25.7505 40.8898 25.6205 40.8598 25.4505C40.0598 19.1605 42.0198 9.93046 42.0398 9.84046C42.0798 9.66046 42.2598 9.54046 42.4498 9.58046C42.6298 9.62046 42.7498 9.80046 42.7098 9.99046C42.6898 10.0805 40.7498 19.1905 41.5398 25.3805C41.5698 25.5705 41.4298 25.7405 41.2398 25.7605C41.2298 25.7505 41.2098 25.7505 41.1998 25.7505Z" fill="#86BCFC"/>
<path d="M43.0388 25.7507C42.8588 25.7507 42.7088 25.6207 42.6988 25.4407C42.6788 25.2507 42.2888 20.6507 44.7088 16.1807C44.7988 16.0207 45.0088 15.9507 45.1688 16.0407C45.3288 16.1307 45.3988 16.3407 45.3088 16.5007C42.9888 20.7807 43.3788 25.3307 43.3788 25.3707C43.3988 25.5607 43.2588 25.7207 43.0688 25.7407C43.0588 25.7507 43.0488 25.7507 43.0388 25.7507Z" fill="#86BCFC"/>
<path d="M28.7792 30.2606C28.6392 30.2606 28.5192 30.1806 28.4592 30.0506C26.1592 24.2606 20.0592 17.2206 19.9992 17.1506C19.8692 17.0106 19.8892 16.7906 20.0292 16.6706C20.1692 16.5406 20.3892 16.5606 20.5092 16.7006C20.5692 16.7706 26.7492 23.9006 29.0892 29.8006C29.1592 29.9806 29.0692 30.1806 28.8992 30.2506C28.8592 30.2406 28.8192 30.2606 28.7792 30.2606Z" fill="#86BCFC"/>
<path d="M27.1696 31.1506C27.0396 31.1506 26.9096 31.0706 26.8596 30.9406C26.8396 30.9006 24.9896 26.7406 20.8796 24.1006C20.7196 24.0006 20.6696 23.7906 20.7796 23.6306C20.8796 23.4706 21.0896 23.4206 21.2496 23.5306C25.5296 26.2806 27.4096 30.4806 27.4896 30.6706C27.5696 30.8506 27.4796 31.0506 27.3096 31.1206C27.2696 31.1406 27.2196 31.1506 27.1696 31.1506Z" fill="#86BCFC"/>
<path d="M87.1995 162.72C87.4095 165.74 81.3995 167.61 75.5395 167.9C75.1995 167.92 74.8695 167.93 74.5395 167.93C73.5595 167.94 72.6095 167.92 71.6895 167.84L70.6995 167.73C69.7295 167.6 68.8196 167.42 68.0196 167.17C67.5796 167.04 67.1795 166.88 66.8095 166.7C65.6195 166.12 64.8595 165.34 64.7895 164.32C64.7695 164.05 64.7595 163.8 64.7695 163.53C64.7695 163.53 64.7695 163.53 64.7695 163.52C64.8195 158.09 69.3495 153.47 75.2495 153.05C81.1495 152.63 86.2895 156.55 87.1095 161.93C87.1095 161.94 87.1095 161.94 87.1095 161.94C87.1495 162.2 87.1795 162.45 87.1995 162.72Z" fill="#86BCFC"/>
<path d="M87.1086 161.56C87.5186 167.33 65.1186 168.93 64.7086 163.16C64.2986 157.39 68.9786 152.35 75.1686 151.91C81.3486 151.47 86.7086 155.79 87.1086 161.56Z" fill="#0C6ED6"/>
<path d="M79.5998 165.401C77.1898 165.401 74.8398 164.191 73.4698 162.001C71.1998 158.361 51.8298 126.071 70.6598 114.291C75.7498 111.101 81.7298 111.151 87.0598 114.421C95.9898 119.901 102.63 134.691 101.56 146.731C101.21 150.701 97.6998 153.631 93.7298 153.281C89.7598 152.931 86.8298 149.421 87.1798 145.451C87.6798 139.891 84.8598 131.891 81.0198 127.991C79.6798 126.621 78.7998 126.371 78.6498 126.381C78.6298 126.381 78.5098 126.421 78.3098 126.541C74.2998 129.051 78.9898 143.571 85.7098 154.381C87.8098 157.771 86.7698 162.211 83.3898 164.321C82.2198 165.051 80.8998 165.401 79.5998 165.401Z" fill="#0C6ED6"/>
<path d="M67.9882 163.001C68.0182 163.711 68.0382 164.411 68.0282 165.101C68.0282 165.411 68.0382 165.731 68.0282 166.041C68.0282 166.421 68.0282 166.791 68.0082 167.171C67.5682 167.041 67.1682 166.881 66.7982 166.701C66.7182 166.311 66.6782 165.911 66.6682 165.521C66.6582 165.381 66.6582 165.241 66.6582 165.111C66.6582 164.361 66.7382 163.621 66.9182 162.901C67.0982 162.181 67.3482 161.471 67.7582 160.811C67.9082 161.571 67.9482 162.281 67.9882 163.001Z" fill="#183B59"/>
<path d="M70.6994 167.73C70.6694 167.66 70.6594 167.6 70.6394 167.53C70.5494 167.2 70.4894 166.88 70.4494 166.55C70.3894 166.14 70.3594 165.72 70.3594 165.31C70.3594 164.56 70.4394 163.82 70.6194 163.09C70.7994 162.37 71.0494 161.66 71.4594 161C71.6194 161.77 71.6494 162.48 71.6894 163.2C71.7194 163.91 71.7394 164.6 71.7294 165.3C71.7394 165.76 71.7394 166.22 71.7194 166.69C71.7194 167.07 71.7094 167.46 71.6894 167.85L70.6994 167.73Z" fill="#183B59"/>
<path d="M75.5195 163.381C75.5495 164.091 75.5694 164.791 75.5594 165.481C75.5594 165.891 75.5694 166.311 75.5594 166.721C75.5494 167.111 75.5494 167.501 75.5294 167.891C75.1894 167.911 74.8594 167.921 74.5294 167.921C74.4994 167.841 74.4895 167.771 74.4695 167.701C74.3895 167.391 74.3294 167.081 74.2794 166.761C74.2194 166.341 74.1895 165.911 74.1895 165.481C74.1895 164.731 74.2694 163.991 74.4494 163.271C74.6294 162.551 74.8794 161.841 75.2894 161.181C75.4494 161.951 75.4795 162.671 75.5195 163.381Z" fill="#183B59"/>
<path d="M72.7891 30.2404C72.1091 31.5704 70.6091 32.1404 68.6691 32.1604C62.5491 32.2104 52.0491 26.7104 49.0391 21.7404C48.1891 20.3404 47.9291 18.9804 48.5391 17.7904C51.9791 11.0904 65.5291 -1.93959 72.2191 1.49041C78.9091 4.94041 76.2291 23.5504 72.7891 30.2404Z" fill="#3F8CFF"/>
<path d="M68.6691 32.1706C62.5491 32.2206 52.0491 26.7206 49.0391 21.7506C52.1091 16.2006 62.8191 6.06062 68.1591 8.81062C73.5891 11.6006 71.4391 26.6406 68.6691 32.1706Z" fill="#86BCFC"/>
<path d="M123.388 146.971C121.548 146.971 119.648 146.741 117.708 146.291C113.828 145.371 111.418 141.491 112.338 137.611C113.258 133.731 117.138 131.331 121.018 132.241C124.538 133.071 126.328 132.031 127.608 130.901C137.928 121.801 138.828 82.6105 136.168 57.7105C135.748 53.7505 138.618 50.1905 142.578 49.7605C146.538 49.3405 150.098 52.2105 150.528 56.1705C150.598 56.8405 152.278 72.7905 151.748 90.9605C150.988 117.141 146.218 133.741 137.168 141.731C133.218 145.191 128.528 146.971 123.388 146.971Z" fill="#0C6ED6"/>
<path d="M13.82 92.4002C17.29 97.1802 35.83 83.7002 32.36 78.9202C28.89 74.1502 21.92 73.2802 16.8 77.0002C11.69 80.7302 10.35 87.6202 13.82 92.4002Z" fill="#86BCFC"/>
<path d="M13.1293 91.4404C16.5993 96.2204 35.1393 82.7404 31.6693 77.9604C28.1993 73.1804 21.2293 72.3204 16.1093 76.0404C10.9893 79.7604 9.6593 86.6604 13.1293 91.4404Z" fill="#0C6ED6"/>
<path d="M32.0592 82.7103C31.8092 82.4203 31.5592 82.1302 31.3092 81.8402C31.1992 81.7202 31.0992 81.6003 30.9992 81.4703C30.5492 80.9403 30.1092 80.3903 29.6792 79.8303C29.2592 79.2603 28.8192 78.6903 28.4492 78.0103C29.1892 78.2503 29.8292 78.6303 30.4392 79.0703C30.9992 79.4703 31.4992 79.9403 31.9392 80.4603C31.9892 80.5003 32.0192 80.5502 32.0592 80.5902C32.2692 80.8502 32.4692 81.1103 32.6392 81.3703L32.0592 82.7103Z" fill="#183B59"/>
<path d="M29.7683 85.7003C29.5083 85.4003 29.2483 85.1103 28.9883 84.8203C28.7483 84.5403 28.5183 84.2703 28.2883 83.9803C27.8383 83.4603 27.3983 82.9103 26.9683 82.3503C26.5383 81.7803 26.1083 81.2103 25.7383 80.5303C26.4783 80.7703 27.1183 81.1503 27.7283 81.5903C28.3383 82.0303 28.8683 82.5403 29.3483 83.1203C29.5383 83.3503 29.7283 83.5803 29.8883 83.8403C30.1183 84.1703 30.3283 84.5203 30.5083 84.9003L29.7683 85.7003Z" fill="#183B59"/>
<path d="M26.9299 88.3104C26.6599 88.0104 26.4099 87.7104 26.1499 87.4104C25.9199 87.1404 25.6999 86.8804 25.4799 86.6104C25.0299 86.0804 24.5899 85.5404 24.1599 84.9804C23.7299 84.4104 23.2999 83.8404 22.9199 83.1504C23.6599 83.3904 24.3099 83.7704 24.9099 84.2104C25.5099 84.6604 26.0499 85.1804 26.5299 85.7404C26.7499 86.0004 26.9599 86.2904 27.1499 86.5804C27.3699 86.9104 27.5599 87.2604 27.7399 87.6204C27.7499 87.6304 27.7499 87.6304 27.7499 87.6304L26.9299 88.3104Z" fill="#183B59"/>
<path d="M53.9101 152.9C37.2701 143.27 28.7201 122.52 25.0801 102.99C26.9201 88.3002 35.8901 79.9302 40.7401 83.3102C48.2801 88.5402 40.9501 100.06 46.8101 129.8C47.9401 135.51 51.3401 148.77 53.9101 152.9Z" fill="#86BCFC"/>
<path d="M44.3595 160.361C44.3595 163.391 38.3094 164.871 32.4294 164.781C32.0394 164.781 31.6394 164.771 31.2594 164.751C30.3594 164.701 29.4495 164.621 28.5995 164.501L27.4395 164.311C26.5495 164.141 25.7095 163.931 24.9595 163.661C24.4995 163.501 24.0794 163.321 23.6994 163.131C22.3094 162.431 21.4395 161.521 21.4395 160.371C21.4395 160.101 21.4495 159.841 21.4695 159.571C21.9095 154.041 26.8494 149.681 32.8994 149.681C38.9394 149.681 43.8795 154.051 44.3195 159.571C44.3495 159.831 44.3595 160.091 44.3595 160.361Z" fill="#86BCFC"/>
<path d="M21.4395 159.17C21.4395 165.08 44.3595 165.08 44.3595 159.17C44.3595 153.26 39.2294 148.47 32.8994 148.47C26.5694 148.47 21.4395 153.27 21.4395 159.17Z" fill="#0C6ED6"/>
<path d="M41.8098 160.71L31.7099 150.39C31.7099 150.39 31.6698 150.43 31.5898 150.52C31.6798 150.42 41.1498 139.83 38.9798 109.8C38.6898 105.82 41.6799 102.37 45.6599 102.08C49.6399 101.8 53.0899 104.78 53.3799 108.76C56.0499 145.66 43.2798 159.28 41.8098 160.71Z" fill="#0C6ED6"/>
<path d="M25.1892 159.991C25.1692 160.701 25.1392 161.391 25.0892 162.091C25.0792 162.231 25.0692 162.371 25.0592 162.511C25.0292 162.891 24.9992 163.281 24.9692 163.671C24.5092 163.511 24.0893 163.331 23.7093 163.141C23.6893 162.771 23.6892 162.391 23.7192 162.021C23.7192 162.011 23.7192 161.991 23.7292 161.971C23.7892 161.241 23.9192 160.531 24.1392 159.831C24.3692 159.121 24.6693 158.441 25.1293 157.811C25.2093 158.561 25.1992 159.281 25.1892 159.991Z" fill="#183B59"/>
<path d="M27.4394 164.31C27.3794 163.91 27.3594 163.51 27.3594 163.12C27.3594 162.91 27.3694 162.69 27.3794 162.47C27.4394 161.73 27.5694 160.99 27.7894 160.28C28.0194 159.57 28.3194 158.89 28.7794 158.26C28.8794 159.03 28.8594 159.75 28.8594 160.47C28.8394 161.18 28.8094 161.87 28.7594 162.57C28.7494 162.83 28.7294 163.09 28.6994 163.36C28.6694 163.74 28.6394 164.14 28.6094 164.53L27.4394 164.31Z" fill="#183B59"/>
<path d="M32.6792 160.9C32.6492 161.61 32.6192 162.31 32.5792 163C32.5692 163.2 32.5492 163.39 32.5392 163.59C32.5092 163.98 32.4792 164.38 32.4492 164.77C32.0592 164.77 31.6592 164.76 31.2792 164.74C31.2192 164.35 31.1992 163.95 31.1992 163.55C31.1992 163.33 31.2092 163.12 31.2192 162.9C31.2792 162.16 31.4092 161.42 31.6292 160.71C31.8592 160 32.1592 159.32 32.6192 158.69C32.6992 159.48 32.6792 160.19 32.6792 160.9Z" fill="#183B59"/>
</svg>
