<svg width="133" height="165" viewBox="0 0 133 165" fill="none" xmlns="http://www.w3.org/2000/svg">
<path d="M14.6202 28.4401C14.8602 29.9801 16.1602 31.0401 18.0802 31.7001C24.1202 33.7501 36.3402 31.7401 40.9502 27.8001C42.2602 26.6901 42.9502 25.4301 42.7402 24.0501C41.5202 16.2901 32.3702 -1.07994 24.6002 0.130057C16.8402 1.34006 13.4102 20.6701 14.6202 28.4401Z" fill="#3F8CFF"/>
<path d="M18.08 31.7001C24.12 33.7501 36.34 31.7401 40.95 27.8001C39.72 21.2901 32.43 7.74008 26.24 8.71008C19.94 9.68008 17.14 25.3001 18.08 31.7001Z" fill="#0C6ED6"/>
<path d="M71.7492 48.14C70.5192 48.99 68.9192 48.78 67.2092 47.88C61.7992 45.03 55.1692 35.2 54.8692 29.4C54.7792 27.76 55.1992 26.44 56.2992 25.69C62.4992 21.42 80.6092 16.37 84.8792 22.56C89.1392 28.77 77.9492 43.88 71.7492 48.14Z" fill="#3F8CFF"/>
<path d="M67.2092 47.89C61.7992 45.04 55.1691 35.21 54.8691 29.41C60.2091 25.97 74.4291 22.13 77.8391 27.08C81.2991 32.1 72.2792 44.33 67.2092 47.89Z" fill="#86BCFC"/>
<path d="M103.36 149.14C102.96 149.14 102.55 149.13 102.14 149.12C98.1601 149 95.02 145.68 95.14 141.69C95.26 137.71 98.5901 134.55 102.57 134.69C109.69 134.9 115.39 132.33 117.45 127.99C120.45 121.66 116.24 110.98 106.19 99.4401C92.26 83.4301 101.37 66.7701 108.13 60.1901C110.99 57.4101 115.56 57.4801 118.34 60.3401C121.12 63.2001 121.05 67.7701 118.19 70.5501C116.62 72.1301 108.99 80.6601 117.08 89.9601C136.44 112.21 133.79 127.21 130.49 134.17C126.09 143.46 115.76 149.14 103.36 149.14Z" fill="#0C6ED6"/>
<path d="M105.9 133.9C105.18 149.08 92.2999 156.54 76.8199 159.15C61.2999 161.79 43.1699 159.53 32.0999 155.29C23.7099 152.07 17.3199 144.97 12.5399 136.2C6.3499 124.87 2.3799 110.81 1.1699 98.65C0.669901 93.69 0.519896 88.84 0.649896 84.16C0.889896 74.45 2.28991 65.46 4.15991 57.69C7.53991 43.59 12.4499 33.49 14.7499 30.37C24.7199 16.91 36.2999 15.85 48.5399 18.85C55.3799 20.53 60.2599 23.12 63.6899 26.26C64.0899 26.62 64.4699 27 64.8299 27.38C68.4899 31.24 70.1599 35.79 70.6699 40.45C71.5999 49.08 68.4899 58.05 66.4199 63.52C65.8499 65.02 65.5499 66.52 65.5499 67.96C65.5599 70.82 66.8099 73.38 69.6099 74.97C69.6399 74.98 69.6699 75 69.6999 75.02C75.4999 78.31 84.0899 80.53 91.4499 86.73C100.16 94.09 107.18 107.01 105.9 133.9Z" fill="#3F8CFF"/>
<path d="M76.8201 159.16C61.3001 161.79 43.1701 159.54 32.1001 155.3C23.7101 152.08 17.3201 144.98 12.5401 136.21C4.83006 100.66 15.3901 78.1801 31.3401 80.1201C47.6901 82.1101 65.7201 109 72.1401 127.49C76.2401 139.3 77.2801 151.68 76.8201 159.16Z" fill="#86BCFC"/>
<path d="M91.4297 86.75C83.9997 95.95 72.9197 87.78 69.6797 75.04C75.4897 78.34 84.0697 80.55 91.4297 86.75Z" fill="#0C6ED6"/>
<path d="M66.4002 63.54C65.8302 65.04 65.5302 66.54 65.5302 67.98C55.8402 67.06 41.6002 60.59 41.3402 53.19C41.0402 44.83 49.0102 35.16 63.6702 26.28C64.0702 26.64 64.4502 27.02 64.8102 27.4C68.4702 31.26 70.1402 35.81 70.6502 40.47C71.5802 49.1 68.4702 58.07 66.4002 63.54Z" fill="#0C6ED6"/>
<path d="M54.5997 159.75C54.5997 162.78 48.5497 164.26 42.6697 164.17C42.2797 164.17 41.8797 164.16 41.4997 164.14C40.5997 164.09 39.6897 164.01 38.8397 163.89L37.6797 163.7C36.7897 163.53 35.9497 163.32 35.1997 163.05C34.7397 162.89 34.3197 162.71 33.9397 162.52C32.5497 161.82 31.6797 160.91 31.6797 159.76C31.6797 159.49 31.6897 159.23 31.7097 158.96C32.1497 153.43 37.0897 149.07 43.1397 149.07C49.1797 149.07 54.1197 153.44 54.5597 158.96C54.5897 159.21 54.5997 159.48 54.5997 159.75Z" fill="#86BCFC"/>
<path d="M31.6895 158.56C31.6895 164.47 54.6095 164.47 54.6095 158.56C54.6095 152.65 49.4794 147.86 43.1494 147.86C36.8194 147.86 31.6895 152.65 31.6895 158.56Z" fill="#0C6ED6"/>
<path d="M49.81 159.78L42.59 147.28L42.5 147.34C43.13 146.95 57.78 137.46 52.33 108.43C51.59 104.51 54.18 100.74 58.09 100C62.01 99.26 65.78 101.85 66.51 105.76C73.94 145.32 50.8 159.21 49.81 159.78Z" fill="#0C6ED6"/>
<path d="M37.1092 159.09C37.0892 159.8 37.0592 160.49 37.0092 161.19C36.9992 161.33 36.9892 161.47 36.9792 161.61C36.9492 161.99 36.9192 162.38 36.8892 162.77C36.4292 162.61 36.0092 162.43 35.6292 162.24C35.6092 161.87 35.6092 161.49 35.6392 161.12C35.6392 161.11 35.6392 161.09 35.6492 161.07C35.7092 160.34 35.8392 159.63 36.0592 158.93C36.2892 158.22 36.5892 157.54 37.0492 156.91C37.1292 157.66 37.1092 158.38 37.1092 159.09Z" fill="#183B59"/>
<path d="M39.3593 163.41C39.2993 163.01 39.2793 162.61 39.2793 162.22C39.2793 162.01 39.2893 161.79 39.2993 161.57C39.3593 160.83 39.4893 160.09 39.7093 159.38C39.9393 158.67 40.2393 157.99 40.6993 157.36C40.7993 158.13 40.7793 158.85 40.7793 159.57C40.7593 160.28 40.7293 160.97 40.6793 161.67C40.6693 161.93 40.6493 162.19 40.6193 162.46C40.5893 162.84 40.5593 163.24 40.5293 163.63L39.3593 163.41Z" fill="#183B59"/>
<path d="M44.5992 160.01C44.5692 160.72 44.5391 161.42 44.4991 162.11C44.4891 162.31 44.4692 162.5 44.4592 162.7C44.4292 163.09 44.3991 163.49 44.3691 163.88C43.9791 163.88 43.5791 163.87 43.1991 163.85C43.1391 163.46 43.1191 163.06 43.1191 162.66C43.1191 162.44 43.1291 162.23 43.1391 162.01C43.1991 161.27 43.3291 160.53 43.5491 159.82C43.7791 159.11 44.0791 158.43 44.5391 157.8C44.6191 158.58 44.5992 159.29 44.5992 160.01Z" fill="#183B59"/>
<path d="M79.7991 158.99C76.8191 158.99 74.0291 157.13 72.9891 154.17C71.4691 149.83 64.3091 127.6 72.9691 115.9C75.4091 112.61 80.0791 108.75 88.4791 109.1C94.9091 109.37 100.139 112.58 103.199 118.15C108.209 127.28 106.219 141.38 101.379 149.74C99.3791 153.19 94.9691 154.37 91.5191 152.37C88.0691 150.37 86.8891 145.96 88.8891 142.51C91.7991 137.48 92.6191 128.86 90.5491 125.1C90.0191 124.13 89.4291 123.59 87.8791 123.53C85.3691 123.42 84.8091 124.17 84.5791 124.49C81.6291 128.46 83.8691 141.5 86.6191 149.39C87.9291 153.15 85.9491 157.27 82.1891 158.59C81.3891 158.86 80.5891 158.99 79.7991 158.99Z" fill="#0C6ED6"/>
<path d="M87.5394 156.27C88.1594 159.23 82.4494 161.9 76.6794 162.97C76.3494 163.03 76.0194 163.08 75.6894 163.13C74.7194 163.27 73.7694 163.37 72.8494 163.42L71.8494 163.45C70.8694 163.46 69.9394 163.4 69.1194 163.26C68.6694 163.18 68.2494 163.08 67.8594 162.95C66.5994 162.54 65.7494 161.86 65.5394 160.86C65.4794 160.6 65.4494 160.34 65.4094 160.09C65.4094 160.09 65.4094 160.09 65.4094 160.08C64.7294 154.69 68.5994 149.51 74.3894 148.3C80.1794 147.09 85.7994 150.29 87.3394 155.5C87.3394 155.51 87.3394 155.51 87.3394 155.51C87.4194 155.76 87.4794 156.01 87.5394 156.27Z" fill="#86BCFC"/>
<path d="M87.2996 155.14C88.4796 160.81 66.4996 165.4 65.3096 159.73C64.1296 154.06 68.0896 148.44 74.1596 147.17C80.2296 145.9 86.1096 149.47 87.2996 155.14Z" fill="#0C6ED6"/>
<path d="M68.539 159.13C68.669 159.83 68.779 160.52 68.869 161.2C68.909 161.51 68.9591 161.82 68.9991 162.13C69.0491 162.51 69.0991 162.88 69.1391 163.25C68.6891 163.17 68.2691 163.07 67.8791 162.94C67.7491 162.56 67.659 162.18 67.589 161.78C67.559 161.65 67.5391 161.51 67.5191 161.38C67.4191 160.64 67.399 159.9 67.479 159.16C67.559 158.42 67.7091 157.68 68.0291 156.98C68.2691 157.72 68.399 158.43 68.539 159.13Z" fill="#183B59"/>
<path d="M71.8592 163.45C71.8292 163.39 71.7992 163.32 71.7692 163.26C71.6392 162.95 71.5292 162.64 71.4392 162.32C71.3292 161.92 71.2492 161.51 71.1792 161.1C71.0792 160.36 71.0592 159.62 71.1392 158.87C71.2192 158.13 71.3692 157.39 71.6892 156.69C71.9492 157.43 72.0692 158.13 72.2192 158.83C72.3492 159.53 72.4592 160.21 72.5492 160.9C72.6192 161.36 72.6792 161.82 72.7292 162.28C72.7792 162.66 72.8192 163.04 72.8592 163.42L71.8592 163.45Z" fill="#183B59"/>
<path d="M76.0494 158.5C76.1794 159.2 76.2894 159.89 76.3794 160.58C76.4394 160.99 76.4894 161.4 76.5394 161.81C76.5794 162.19 76.6294 162.58 76.6694 162.98C76.3394 163.04 76.0094 163.09 75.6794 163.14C75.6394 163.07 75.6194 163 75.5894 162.93C75.4694 162.63 75.3594 162.33 75.2794 162.02C75.1694 161.61 75.0794 161.19 75.0194 160.77C74.9194 160.03 74.8894 159.29 74.9794 158.55C75.0594 157.81 75.2094 157.07 75.5294 156.37C75.7894 157.09 75.9094 157.8 76.0494 158.5Z" fill="#183B59"/>
<path d="M4.96063 80.4301C3.74063 82.0201 2.25063 83.2401 0.640625 84.1701C0.880625 74.4601 2.28062 65.4701 4.15062 57.7001C8.98062 65.6001 9.90063 74.0001 4.96063 80.4301Z" fill="#0C6ED6"/>
<path d="M10.8803 153.46C8.1703 153.46 5.5703 151.93 4.3403 149.31C2.6403 145.7 4.1903 141.4 7.8003 139.7C7.9103 139.65 21.3303 132.93 20.5403 123.55C20.0203 117.39 14.9403 110.49 7.6103 105.98C4.2103 103.89 3.1603 99.45 5.2403 96.05C7.3303 92.65 11.7703 91.6 15.1703 93.68C26.4503 100.62 34.0203 111.6 34.9303 122.33C36.5803 141.87 14.8803 152.32 13.9503 152.75C12.9603 153.24 11.9103 153.46 10.8803 153.46Z" fill="#0C6ED6"/>
<path d="M4.13016 143.51C-0.439839 147.25 14.0502 165 18.6202 161.26C23.1902 157.52 23.6602 150.52 19.6602 145.62C15.6602 140.72 8.71016 139.78 4.13016 143.51Z" fill="#86BCFC"/>
<path d="M5.04032 142.77C0.470316 146.51 14.9603 164.26 19.5303 160.52C24.1003 156.78 24.5703 149.78 20.5703 144.88C16.5803 139.97 9.62032 139.03 5.04032 142.77Z" fill="#0C6ED6"/>
<path d="M14.8203 161.17C15.1003 160.9 15.3703 160.64 15.6603 160.37C15.7703 160.26 15.8903 160.14 16.0103 160.04C16.5103 159.56 17.0403 159.09 17.5703 158.63C18.1203 158.18 18.6603 157.71 19.3203 157.3C19.1303 158.05 18.7803 158.71 18.3803 159.34C18.0103 159.92 17.5603 160.44 17.0703 160.91C17.0303 160.96 16.9903 160.99 16.9403 161.04C16.7003 161.27 16.4503 161.47 16.1903 161.67L14.8203 161.17Z" fill="#183B59"/>
<path d="M11.6992 159.06C11.9792 158.78 12.2592 158.51 12.5392 158.24C12.7992 157.99 13.0592 157.74 13.3292 157.49C13.8292 157.01 14.3492 156.55 14.8892 156.08C15.4392 155.62 15.9792 155.16 16.6392 154.75C16.4492 155.5 16.0992 156.16 15.6992 156.79C15.2992 157.41 14.8092 157.98 14.2692 158.49C14.0492 158.7 13.8192 158.89 13.5792 159.07C13.2592 159.32 12.9192 159.55 12.5592 159.75L11.6992 159.06Z" fill="#183B59"/>
<path d="M8.94922 156.37C9.22922 156.09 9.51922 155.82 9.79922 155.54C10.0492 155.29 10.2992 155.06 10.5492 154.82C11.0492 154.34 11.5692 153.88 12.1092 153.41C12.6592 152.95 13.1992 152.49 13.8692 152.07C13.6792 152.82 13.3392 153.49 12.9292 154.12C12.5192 154.75 12.0292 155.31 11.4892 155.83C11.2392 156.06 10.9592 156.28 10.6892 156.5C10.3692 156.74 10.0392 156.95 9.67921 157.15C9.66921 157.16 9.66922 157.16 9.66922 157.16L8.94922 156.37Z" fill="#183B59"/>
<path d="M54.0302 61.3501C59.6202 61.3501 64.1501 56.8201 64.1501 51.2301C64.1501 45.6401 59.6202 41.1101 54.0302 41.1101C48.4402 41.1101 43.9102 45.6401 43.9102 51.2301C43.9102 56.8201 48.4402 61.3501 54.0302 61.3501Z" fill="#3F8CFF"/>
<path d="M67.3794 40.6801C67.8794 39.3201 65.3494 37.1501 61.7394 35.8301C58.1294 34.5101 54.7894 34.5401 54.2994 35.9001C53.7994 37.2601 56.3294 39.4301 59.9394 40.7501C63.5494 42.0701 66.8894 42.0401 67.3794 40.6801Z" fill="#86BCFC"/>
<path d="M27.9501 51.8201C33.5401 51.8201 38.0701 47.2901 38.0701 41.7001C38.0701 36.1101 33.5401 31.5801 27.9501 31.5801C22.3601 31.5801 17.8301 36.1101 17.8301 41.7001C17.8301 47.2901 22.3601 51.8201 27.9501 51.8201Z" fill="#0C6ED6"/>
<path d="M27.7493 49.59C32.1493 49.59 35.7193 46.02 35.7193 41.62C35.7193 37.22 32.1493 33.65 27.7493 33.65C23.3493 33.65 19.7793 37.22 19.7793 41.62C19.7793 46.02 23.3493 49.59 27.7493 49.59Z" fill="#3F8CFF"/>
<path d="M37.6606 29.8101C38.1606 28.4501 35.6306 26.2801 32.0206 24.9601C28.4106 23.6401 25.0706 23.6701 24.5806 25.0301C24.0806 26.3901 26.6106 28.5601 30.2206 29.8801C33.8306 31.2001 37.1606 31.1701 37.6606 29.8101Z" fill="#86BCFC"/>
<path d="M40.8491 58.7401C41.6091 56.6601 40.5991 54.3801 38.5891 53.6501C36.5791 52.9201 34.3391 54.0101 33.5791 56.0801C32.8191 58.1601 33.8291 60.4401 35.8391 61.1701C37.8491 61.9101 40.0891 60.8201 40.8491 58.7401Z" fill="#183B59"/>
<path d="M44.1399 66.3801C43.8099 66.6801 43.3499 66.8801 42.8799 66.9001C42.3999 66.9301 41.9299 66.8101 41.4899 66.6501C40.6199 66.3001 39.8599 65.7601 39.1699 65.1601C38.4699 64.5701 37.8699 63.8901 37.2899 63.2101C36.7199 62.5101 36.1899 61.8001 35.6899 61.0201L36.4099 61.2701C35.5699 61.5601 34.7499 61.7801 33.8999 61.9401C33.0499 62.0801 32.1899 62.1901 31.3199 62.1501C30.4499 62.1301 29.5699 62.0101 28.7499 61.7001C27.9299 61.4001 27.1699 60.9001 26.6699 60.2101C27.3499 60.7101 28.1099 61.0101 28.9099 61.1401C29.6999 61.2801 30.4999 61.2801 31.2999 61.2201C32.0999 61.1401 32.8999 61.0201 33.6799 60.8201C34.4599 60.6401 35.2599 60.4201 35.9899 60.1401L36.4499 59.9601L36.7099 60.3701C37.1599 61.0801 37.6599 61.8001 38.1899 62.4801C38.6999 63.1801 39.2599 63.8301 39.8399 64.4601C40.4299 65.0801 41.0499 65.6701 41.7599 66.0901C42.4399 66.5401 43.3099 66.7801 44.1399 66.3801Z" fill="#183B59"/>
<path d="M54.9095 64.8601C54.8595 64.8601 54.8095 64.8501 54.7695 64.8201C54.7195 64.7901 49.8895 62.1101 44.4595 61.5801C44.2995 61.5601 44.1695 61.4201 44.1895 61.2501C44.2095 61.0901 44.3495 60.9701 44.5195 60.9801C50.0795 61.5201 55.0095 64.2701 55.0595 64.3001C55.1995 64.3801 55.2495 64.5601 55.1695 64.7101C55.1095 64.8001 55.0095 64.8601 54.9095 64.8601Z" fill="#86BCFC"/>
<path d="M52.6092 71.34C52.5192 71.34 52.4392 71.3 52.3792 71.23C52.3392 71.19 48.8092 66.94 43.9292 64.5C43.7792 64.42 43.7192 64.24 43.7992 64.1C43.8792 63.95 44.0592 63.89 44.1992 63.97C49.1892 66.48 52.8092 70.82 52.8392 70.86C52.9492 70.99 52.9292 71.17 52.7992 71.28C52.7392 71.33 52.6792 71.34 52.6092 71.34Z" fill="#86BCFC"/>
<path d="M54.7291 68.8501C54.6391 68.8501 54.5491 68.8101 54.4991 68.7401C51.5091 65.0601 44.1191 63.1701 44.0491 63.1501C43.8891 63.1101 43.7891 62.9501 43.8291 62.7901C43.8691 62.6301 44.0291 62.5301 44.1891 62.5701C44.4991 62.6501 51.8391 64.5401 54.9591 68.3601C55.0691 68.4901 55.0491 68.6801 54.9191 68.7801C54.8591 68.8201 54.7891 68.8501 54.7291 68.8501Z" fill="#86BCFC"/>
<path d="M28.7697 55.8301C28.7097 55.8301 28.6497 55.8101 28.5997 55.7801C24.1097 52.6801 18.6897 51.6101 18.6297 51.6101C18.4697 51.5801 18.3597 51.4201 18.3897 51.2601C18.4197 51.1001 18.5797 50.9901 18.7397 51.0201C18.7997 51.0301 24.3397 52.1101 28.9397 55.2901C29.0797 55.3801 29.1097 55.5701 29.0197 55.7101C28.9597 55.7901 28.8697 55.8301 28.7697 55.8301Z" fill="#86BCFC"/>
<path d="M27.18 58.36C27.15 58.36 27.14 58.36 27.11 58.35C21.81 57.07 16.36 58.04 16.31 58.05C16.15 58.08 15.99 57.97 15.96 57.8C15.93 57.64 16.04 57.48 16.2 57.45C16.26 57.44 21.82 56.46 27.25 57.76C27.41 57.8 27.51 57.96 27.47 58.12C27.44 58.26 27.31 58.36 27.18 58.36Z" fill="#86BCFC"/>
<path d="M28.03 57.27C27.99 57.27 27.94 57.26 27.9 57.24C27.83 57.21 20.96 53.89 16.31 54.77C16.15 54.8 15.99 54.69 15.96 54.53C15.93 54.37 16.04 54.21 16.2 54.18C21.06 53.26 27.88 56.56 28.17 56.7C28.32 56.78 28.38 56.95 28.31 57.1C28.25 57.21 28.14 57.27 28.03 57.27Z" fill="#86BCFC"/>
<path d="M53.7791 29.3501C53.7191 29.3501 53.6491 29.3301 53.5991 29.3001C53.4391 29.2001 53.3891 28.9901 53.4891 28.8301C56.8091 23.4201 64.1291 17.4701 64.1991 17.4101C64.3391 17.2901 64.5591 17.3201 64.6791 17.4601C64.7991 17.6001 64.7691 17.8201 64.6291 17.9401C64.5491 18.0001 57.3291 23.8801 54.0691 29.1901C54.0091 29.3001 53.8891 29.3501 53.7791 29.3501Z" fill="#86BCFC"/>
<path d="M55.2093 30.51C55.1493 30.51 55.0793 30.49 55.0193 30.45C54.8593 30.34 54.8193 30.14 54.9293 29.98C55.0393 29.82 57.6093 25.99 62.3093 24.03C62.4893 23.95 62.6893 24.04 62.7593 24.21C62.8393 24.39 62.7493 24.59 62.5793 24.66C58.0793 26.54 55.5393 30.32 55.5093 30.36C55.4293 30.46 55.3193 30.51 55.2093 30.51Z" fill="#86BCFC"/>
<path d="M41.2901 25.07C41.2601 25.07 41.2201 25.06 41.1901 25.06C41.0101 25 40.9101 24.81 40.9601 24.63C42.8101 18.68 42.4701 9.37004 42.4601 9.28004C42.4501 9.09004 42.6001 8.93004 42.7901 8.93004C42.9801 8.91004 43.1401 9.07004 43.1501 9.26004C43.1601 9.35004 43.5001 18.78 41.6201 24.84C41.5601 24.97 41.4301 25.07 41.2901 25.07Z" fill="#86BCFC"/>
<path d="M39.4695 24.75C39.4395 24.75 39.4095 24.74 39.3795 24.74C39.1995 24.69 39.0895 24.5 39.1395 24.32C39.1495 24.28 40.3095 19.87 38.7695 15.25C38.7095 15.07 38.8095 14.88 38.9795 14.82C39.1595 14.76 39.3495 14.86 39.4095 15.03C41.0195 19.85 39.8395 24.31 39.7895 24.5C39.7595 24.65 39.6195 24.75 39.4695 24.75Z" fill="#86BCFC"/>
<path d="M32.5493 46.57C32.2893 45.07 32.0293 43.69 31.5193 42.44C30.9693 41.21 30.1993 40.14 29.1993 39.36C28.2093 38.57 26.9793 38.08 25.6893 37.98C24.3993 37.89 23.0393 38.17 21.7793 39.01C22.4793 37.65 24.0393 36.74 25.6593 36.59C27.2893 36.4 28.9993 36.92 30.2993 37.95C31.6093 38.97 32.4993 40.47 32.8393 42.01C33.1793 43.58 33.0193 45.15 32.5493 46.57Z" fill="#183B59"/>
<path d="M47.25 51.07C48 49.78 49.07 48.61 50.46 47.83C51.85 47.06 53.56 46.73 55.19 47.03C56.82 47.31 58.35 48.24 59.29 49.59C60.26 50.9 60.61 52.67 60.06 54.1C59.85 52.6 59.16 51.4 58.23 50.49C57.29 49.59 56.12 49 54.87 48.78C53.62 48.55 52.32 48.69 51.03 49.09C49.75 49.54 48.54 50.27 47.25 51.07Z" fill="#183B59"/>
</svg>
