<svg width="256" height="253" viewBox="0 0 256 253" fill="none" xmlns="http://www.w3.org/2000/svg">
<path d="M196.431 206.77C195.601 206.77 194.771 206.76 193.941 206.74C189.681 206.61 186.331 203.06 186.461 198.8C186.591 194.54 190.141 191.2 194.401 191.32C213.431 191.88 228.381 184.34 235.401 170.61C246.251 149.39 237.391 116.78 211.721 83.3897C202.641 71.5797 199.111 59.7197 201.231 48.1597C204.491 30.4197 220.151 20.5897 220.811 20.1797C224.441 17.9497 229.191 19.0797 231.421 22.6997C233.651 26.3297 232.521 31.0797 228.901 33.3097C228.831 33.3597 218.331 40.0897 216.381 51.0497C215.121 58.1097 217.671 65.8297 223.941 73.9797C239.181 93.8097 249.031 113.16 253.181 131.5C257.111 148.82 255.701 164.76 249.131 177.63C239.621 196.24 220.501 206.77 196.431 206.77Z" fill="#0C6ED6"/>
<path d="M98.8598 230.4C98.2198 230.4 97.5598 230.3 96.9198 230.09C93.6798 229.02 91.9298 225.53 92.9998 222.29C93.2398 221.55 117.39 147.99 117.89 95.6C117.92 92.21 120.68 89.49 124.06 89.49C124.08 89.49 124.1 89.49 124.12 89.49C127.53 89.52 130.27 92.31 130.23 95.72C129.71 150.06 105.74 223.09 104.72 226.17C103.86 228.76 101.44 230.4 98.8598 230.4Z" fill="#0C6ED6"/>
<path d="M160.091 23.6799C159.631 24.8099 158.451 25.3899 156.871 25.5399C151.891 26.0199 142.941 22.2999 140.121 18.4599C139.321 17.3799 139.021 16.2799 139.421 15.2799C141.741 9.57994 151.841 -2.02006 157.541 0.289943C163.261 2.61994 162.411 17.9799 160.091 23.6799Z" fill="#3F8CFF"/>
<path d="M156.869 25.5501C151.889 26.0301 142.939 22.3101 140.119 18.4701C142.219 13.7201 150.219 4.69013 154.769 6.54013C159.399 8.43013 158.739 20.8401 156.869 25.5501Z" fill="#86BCFC"/>
<path d="M104.75 28.7099C105.53 29.5799 106.79 29.7099 108.26 29.3299C112.9 28.1199 119.72 21.8199 120.99 17.4499C121.35 16.2099 121.27 15.1299 120.57 14.3599C116.6 9.99987 103.7 2.88987 99.3305 6.83987C94.9605 10.7999 100.78 24.3399 104.75 28.7099Z" fill="#3F8CFF"/>
<path d="M108.26 29.3201C112.9 28.1101 119.72 21.8101 120.99 17.4401C117.53 13.8601 107.37 8.38007 103.89 11.5401C100.34 14.7501 105.03 25.7001 108.26 29.3201Z" fill="#0C6ED6"/>
<path d="M204.28 206.74C196.61 216.97 190.87 223.29 171.3 224.63C162.27 225.25 150.3 224.8 133.83 223.2C125.93 222.43 121.11 219.59 118.29 214.76C106 193.79 131.22 135.42 105.02 46.8C104.92 46.44 104.81 46.07 104.72 45.71C101.54 33.47 106.3 23.26 114.82 17.25C123.05 11.44 134.78 9.54001 146.25 13.53C152.96 15.85 159.58 20.19 165.36 26.91C167.23 29.08 169.27 31.81 171.41 35.01C171.64 35.34 171.86 35.68 172.09 36.03C177.44 44.15 183.42 55.08 189.19 67.62C189.91 69.18 190.63 70.78 191.34 72.39C193.71 77.75 196.02 83.36 198.21 89.13C201.68 98.26 204.86 107.8 207.5 117.41C216.89 151.54 219.47 186.49 204.28 206.74Z" fill="#3F8CFF"/>
<path d="M131.909 52.0999C133.949 52.0999 135.609 50.3899 135.609 48.2699C135.609 46.1599 133.949 44.4399 131.909 44.4399C129.869 44.4399 128.209 46.1499 128.209 48.2699C128.209 50.3899 129.869 52.0999 131.909 52.0999Z" fill="#183B59"/>
<path d="M122.75 54.0501C123.36 54.6801 124.22 54.7501 124.98 54.5901C125.76 54.4401 126.52 54.1101 127.24 53.7501C127.96 53.3701 128.68 52.9701 129.37 52.5101C130.06 52.0701 130.76 51.5901 131.39 51.1001L131.77 50.8101L132.12 51.1201C132.68 51.6001 133.33 52.0701 133.97 52.4801C134.61 52.9101 135.29 53.2801 135.98 53.6101C136.68 53.9301 137.39 54.2001 138.15 54.3301C138.9 54.4701 139.69 54.4501 140.46 54.2301C139.79 54.6801 138.94 54.8901 138.1 54.8801C137.26 54.8801 136.43 54.7001 135.65 54.4401C134.86 54.1801 134.12 53.8101 133.4 53.4001C132.68 52.9801 132.03 52.5201 131.37 51.9801L132.1 52.0001C131.4 52.5301 130.69 52.9901 129.94 53.4401C129.19 53.8601 128.42 54.2701 127.6 54.5701C126.79 54.8801 125.93 55.1201 125.03 55.1501C124.59 55.1601 124.12 55.1001 123.7 54.9201C123.29 54.7501 122.95 54.4301 122.75 54.0501Z" fill="#183B59"/>
<path d="M124.119 49.6499C124.099 49.6499 124.069 49.6499 124.039 49.6399C118.989 48.3299 113.779 49.1599 113.729 49.1699C113.569 49.1899 113.419 49.0899 113.399 48.9299C113.379 48.7699 113.479 48.6199 113.639 48.5999C113.689 48.5899 119.029 47.7499 124.189 49.0799C124.349 49.1199 124.439 49.2799 124.399 49.4299C124.359 49.5599 124.239 49.6499 124.119 49.6499Z" fill="#86BCFC"/>
<path d="M113.611 55.7398C113.511 55.7398 113.411 55.6898 113.361 55.5998C113.281 55.4598 113.331 55.2898 113.461 55.2098C113.511 55.1798 118.181 52.4698 123.481 51.8598C123.641 51.8398 123.781 51.9498 123.801 52.1098C123.821 52.2698 123.711 52.4098 123.551 52.4298C118.371 53.0198 113.801 55.6698 113.751 55.6998C113.711 55.7298 113.661 55.7398 113.611 55.7398Z" fill="#86BCFC"/>
<path d="M112.531 52.7998C112.431 52.7998 112.341 52.7498 112.281 52.6598C112.201 52.5198 112.251 52.3498 112.381 52.2698C116.441 49.8598 123.651 50.5698 123.951 50.5998C124.111 50.6198 124.221 50.7598 124.201 50.9198C124.181 51.0798 124.041 51.1898 123.881 51.1698C123.801 51.1598 116.561 50.4398 112.661 52.7598C112.631 52.7898 112.581 52.7998 112.531 52.7998Z" fill="#86BCFC"/>
<path d="M123.741 19.6898C123.611 19.6898 123.491 19.5998 123.461 19.4698C122.201 14.3998 117.911 7.84985 117.871 7.78985C117.781 7.65985 117.821 7.47985 117.951 7.38985C118.081 7.29985 118.261 7.33985 118.351 7.46985C118.401 7.52985 122.741 14.1598 124.021 19.3298C124.061 19.4898 123.961 19.6398 123.811 19.6798C123.791 19.6798 123.761 19.6898 123.741 19.6898Z" fill="#86BCFC"/>
<path d="M122.299 20.2498C122.169 20.2498 122.059 20.1698 122.019 20.0398C122.009 20.0098 120.929 16.3298 117.809 13.6798C117.689 13.5798 117.679 13.3998 117.779 13.2798C117.879 13.1598 118.059 13.1498 118.179 13.2498C121.439 16.0098 122.529 19.7298 122.569 19.8898C122.619 20.0398 122.519 20.1998 122.369 20.2398C122.359 20.2498 122.329 20.2498 122.299 20.2498Z" fill="#86BCFC"/>
<path d="M134.81 18.8601C134.81 18.8601 134.8 18.8601 134.81 18.8601C134.65 18.8601 134.52 18.7301 134.52 18.5701C134.55 13.2401 137.23 5.78006 137.25 5.71006C137.3 5.56006 137.47 5.48006 137.62 5.54006C137.77 5.59006 137.85 5.76006 137.79 5.91006C137.76 5.99006 135.13 13.3501 135.09 18.5801C135.09 18.7401 134.96 18.8601 134.81 18.8601Z" fill="#86BCFC"/>
<path d="M136.341 19.0802C136.331 19.0802 136.331 19.0802 136.331 19.0802C136.171 19.0702 136.051 18.9402 136.051 18.7802C136.061 18.6202 136.241 14.7502 138.761 11.3002C138.851 11.1702 139.031 11.1402 139.161 11.2402C139.291 11.3302 139.321 11.5102 139.221 11.6402C136.811 14.9502 136.621 18.7702 136.621 18.8002C136.611 18.9602 136.491 19.0802 136.341 19.0802Z" fill="#86BCFC"/>
<path d="M140.11 49.6499C139.98 49.6499 139.87 49.5599 139.83 49.4399C139.79 49.2799 139.88 49.1299 140.04 49.0899C145.21 47.7499 150.54 48.5999 150.59 48.6099C150.75 48.6299 150.85 48.7799 150.83 48.9399C150.81 49.0999 150.65 49.2099 150.5 49.1799C150.45 49.1699 145.23 48.3399 140.19 49.6499C140.16 49.6399 140.13 49.6499 140.11 49.6499Z" fill="#86BCFC"/>
<path d="M150.61 55.7398C150.56 55.7398 150.51 55.7298 150.47 55.6998C150.42 55.6698 145.85 53.0198 140.67 52.4298C140.51 52.4098 140.4 52.2698 140.42 52.1098C140.44 51.9498 140.58 51.8398 140.74 51.8598C146.04 52.4698 150.71 55.1798 150.76 55.2098C150.9 55.2898 150.94 55.4598 150.86 55.5998C150.81 55.6898 150.71 55.7398 150.61 55.7398Z" fill="#86BCFC"/>
<path d="M151.69 52.8C151.64 52.8 151.59 52.79 151.55 52.76C147.66 50.45 140.4 51.16 140.33 51.17C140.17 51.18 140.03 51.07 140.01 50.92C139.99 50.76 140.11 50.62 140.26 50.6C140.57 50.57 147.78 49.85 151.83 52.27C151.97 52.35 152.01 52.53 151.93 52.66C151.89 52.75 151.79 52.8 151.69 52.8Z" fill="#86BCFC"/>
<path d="M189.36 232.02C186.1 232.02 183.2 229.72 182.55 226.41C182.39 225.6 178.62 206.24 176.36 184.6C172.05 143.35 177.11 131.66 181.29 126.46C184.03 123.05 187.65 121.21 191.77 121.11C195.52 121.02 198.78 122.35 201.2 124.96C207.38 131.63 206.11 144.53 204.18 164.05C202.85 177.54 201.34 192.84 202.12 208.26C202.32 212.09 199.37 215.35 195.54 215.54C195.26 215.56 194.97 215.55 194.7 215.53C195.56 220.55 196.16 223.65 196.18 223.73C196.92 227.49 194.47 231.14 190.7 231.88C190.25 231.98 189.8 232.02 189.36 232.02ZM191.51 136.14C190.03 139 187.35 147.93 189.33 173.78C189.67 169.9 190.03 166.18 190.38 162.69C191.15 154.91 191.81 148.2 191.89 142.85C191.94 139.5 191.74 137.42 191.51 136.14Z" fill="#0C6ED6"/>
<path d="M172.09 36.02C159.44 48.38 137.05 45.81 135.54 41.81C133.3 35.87 138.88 23.04 146.25 13.52C152.96 15.84 159.58 20.18 165.36 26.9C167.23 29.07 169.27 31.8 171.41 35C171.64 35.34 171.87 35.68 172.09 36.02Z" fill="#0C6ED6"/>
<path d="M146.2 44.7498C151.96 44.7498 156.63 42.3498 156.63 39.3898C156.63 36.4298 151.96 34.0298 146.2 34.0298C140.44 34.0298 135.77 36.4298 135.77 39.3898C135.77 42.3498 140.44 44.7498 146.2 44.7498Z" fill="#3F8CFF"/>
<path d="M145.599 43.9302C150.429 43.9302 154.339 41.9202 154.339 39.4302C154.339 36.9502 150.419 34.9302 145.599 34.9302C140.769 34.9302 136.859 36.9402 136.859 39.4302C136.859 41.9202 140.769 43.9302 145.599 43.9302Z" fill="#B0E881"/>
<path d="M142.15 43.0097C143.76 43.0097 145.06 41.3197 145.06 39.2397C145.06 37.1597 143.75 35.4697 142.15 35.4697C140.54 35.4697 139.24 37.1597 139.24 39.2397C139.24 41.3297 140.54 43.0097 142.15 43.0097Z" fill="#183B59"/>
<path d="M117.17 44.3097C122.46 44.3097 126.74 42.1097 126.74 39.3897C126.74 36.6697 122.46 34.4697 117.17 34.4697C111.88 34.4697 107.6 36.6697 107.6 39.3897C107.6 42.1097 111.88 44.3097 117.17 44.3097Z" fill="#0C6ED6"/>
<path d="M117.719 43.5598C122.149 43.5598 125.739 41.7098 125.739 39.4298C125.739 37.1498 122.149 35.2998 117.719 35.2998C113.289 35.2998 109.699 37.1498 109.699 39.4298C109.699 41.7098 113.289 43.5598 117.719 43.5598Z" fill="#B0E881"/>
<path d="M114.731 42.7198C116.211 42.7198 117.401 41.1698 117.401 39.2598C117.401 37.3498 116.201 35.7998 114.731 35.7998C113.261 35.7998 112.061 37.3498 112.061 39.2598C112.061 41.1698 113.261 42.7198 114.731 42.7198Z" fill="#183B59"/>
<path d="M144.97 32.1697C148.41 32.1697 151.2 31.1197 151.2 29.8297C151.2 28.5397 148.41 27.4897 144.97 27.4897C141.53 27.4897 138.74 28.5397 138.74 29.8297C138.74 31.1197 141.53 32.1697 144.97 32.1697Z" fill="#86BCFC"/>
<path d="M118 32.5101C121.44 32.5101 124.23 31.4601 124.23 30.1701C124.23 28.8801 121.44 27.8301 118 27.8301C114.56 27.8301 111.77 28.8801 111.77 30.1701C111.77 31.4601 114.56 32.5101 118 32.5101Z" fill="#86BCFC"/>
<path d="M118.29 214.76C121.11 219.59 125.93 222.43 133.83 223.2C150.3 224.8 162.27 225.25 171.3 224.63C176.25 211.44 174.62 189.92 174.62 163.71C174.62 120.25 150.35 72.1699 132.45 72.1699C114.56 72.1699 123.54 120.86 118.39 177.43C116.91 193.8 117.02 205.87 118.29 214.76Z" fill="#86BCFC"/>
<path d="M184.3 234.7C190.92 234.31 196.1 231.01 195.89 227.32C195.67 223.64 190.13 220.96 183.52 221.36C176.9 221.75 171.72 225.05 171.93 228.74C172.14 232.42 177.68 235.09 184.3 234.7Z" fill="#86BCFC"/>
<path d="M184.55 233.08C191.17 232.69 196.35 229.39 196.14 225.7C195.92 222.02 190.38 219.34 183.77 219.74C177.15 220.13 171.97 223.43 172.18 227.12C172.39 230.8 177.93 233.47 184.55 233.08Z" fill="#0C6ED6"/>
<path d="M179.439 234.4C179.529 234.16 179.629 233.93 179.719 233.7C179.849 233.42 179.979 233.13 180.119 232.86C180.289 232.53 180.449 232.21 180.649 231.89C180.809 231.59 181.009 231.33 181.189 231.04C181.399 230.78 181.579 230.49 181.809 230.24C182.229 229.7 182.739 229.22 183.249 228.66C182.519 228.81 181.799 229.12 181.199 229.6C180.579 230.06 180.059 230.66 179.679 231.32C179.429 231.75 179.219 232.2 179.069 232.68C178.989 232.94 178.929 233.21 178.879 233.48C178.829 233.75 178.799 234.02 178.789 234.29L179.439 234.4Z" fill="#183B59"/>
<path d="M175.269 233.02C175.349 232.81 175.429 232.61 175.519 232.41C175.639 232.13 175.769 231.87 175.909 231.6C176.079 231.26 176.259 230.92 176.449 230.6C176.609 230.3 176.809 230.04 176.989 229.75C177.199 229.49 177.379 229.2 177.609 228.95C178.029 228.41 178.539 227.93 179.049 227.37C178.319 227.52 177.599 227.83 176.999 228.31C176.379 228.77 175.859 229.37 175.479 230.03C175.279 230.36 175.109 230.72 174.979 231.09C174.849 231.44 174.749 231.81 174.689 232.18C174.659 232.34 174.639 232.49 174.629 232.65L175.269 233.02Z" fill="#183B59"/>
<path d="M172.29 230.2C172.29 230.19 172.3 230.19 172.3 230.19C172.47 229.81 172.64 229.45 172.83 229.09C172.95 228.85 173.08 228.61 173.22 228.37C173.38 228.07 173.58 227.81 173.76 227.52C173.97 227.25 174.15 226.97 174.38 226.72C174.8 226.18 175.31 225.7 175.82 225.14C175.09 225.28 174.37 225.59 173.77 226.08C173.15 226.52 172.64 227.12 172.26 227.78C172.25 227.79 172.25 227.8 172.25 227.8C172.12 228.01 172.01 228.23 171.91 228.46L172.29 230.2Z" fill="#183B59"/>
<path d="M119.831 247.76C123.391 249.38 130.731 252.7 134.661 252.54C134.791 252.54 134.931 252.53 135.051 252.52C135.081 252.51 135.111 252.51 135.141 252.5C137.371 251.91 154.471 244.83 155.631 242.89C156.181 241.81 156.101 240.62 155.981 239.35C155.411 233.37 150.111 230.66 144.571 229.57C135.811 228.33 122.791 237.82 119.491 243.68C118.431 245.59 118.371 247.11 119.831 247.76Z" fill="#878787"/>
<path d="M119.831 247.76C123.391 249.38 130.731 252.7 134.661 252.54C134.791 252.54 134.931 252.53 135.051 252.52C135.081 252.51 135.111 252.51 135.141 252.5L135.531 249.31C129.821 248.15 122.161 244.87 119.491 243.68C118.431 245.59 118.371 247.11 119.831 247.76Z" fill="#7D7D7D"/>
<path d="M134.66 252.54C134.79 252.54 134.93 252.53 135.05 252.52C136.83 252.13 154.45 244.86 155.63 242.89C156.18 241.81 156.26 240.59 155.98 239.35C151.52 237.79 135.85 247.85 135.17 249.31C134.79 250.14 134.67 251.48 134.66 252.54Z" fill="#6E6E6E"/>
<path d="M135.41 247.2C134.81 247.62 134.04 247.7 133.34 247.49C130.17 246.51 121.28 243.71 121.43 242.83C121.61 241.76 127.4 234.98 133.03 234.62C138.2 234.29 147.65 240.06 143.11 242.29C138.37 244.61 137.57 245.68 135.41 247.2Z" fill="#707070"/>
<path d="M133.2 247.97C120.7 244.14 120.84 243.3 120.93 242.75C121.17 241.29 127.34 234.48 132.99 234.12C137.17 233.84 143.98 237.38 144.72 240.2C144.88 240.81 144.92 241.95 143.32 242.74C139.83 244.45 138.54 245.45 137.17 246.5C136.71 246.86 136.25 247.22 135.7 247.6C135.23 247.93 134.68 248.1 134.1 248.1C133.81 248.1 133.5 248.06 133.2 247.97ZM135.12 246.78C135.66 246.4 136.11 246.05 136.56 245.71C137.9 244.67 139.3 243.6 142.88 241.84C143.86 241.36 143.85 240.82 143.75 240.47C143.17 238.28 136.99 234.88 133.05 235.13C127.88 235.46 122.57 241.54 121.97 242.78C122.67 243.35 126.39 244.83 133.48 247.01C134.07 247.18 134.67 247.1 135.12 246.78Z" fill="#666666"/>
<path d="M127.509 245.67C129.759 243.32 136.169 237.1 138.749 236.54L138.539 235.55C135.129 236.29 127.119 244.61 126.779 244.97L127.509 245.67Z" fill="#666666"/>
<path d="M132.889 241.48C134.779 239.94 135.969 238.26 135.529 237.73C135.099 237.2 133.209 238.01 131.319 239.54C129.429 241.08 128.239 242.76 128.679 243.29C129.109 243.83 130.989 243.02 132.889 241.48Z" fill="#666666"/>
<path d="M129.62 241.99C130.08 242.51 131.14 241.79 132.44 240.67C133.73 239.54 134.75 238.43 134.3 237.91C133.85 237.39 132.43 237.88 131.14 239.01C129.84 240.13 129.16 241.47 129.62 241.99Z" fill="#404040"/>
<path d="M130.529 231.22L107.899 242.12L57.459 222.51L79.049 217.64L130.529 231.22Z" fill="#878787"/>
<path d="M130.529 231.22V232.78L107.869 244.97V242.12L130.529 231.22Z" fill="#6E6E6E"/>
<path d="M107.87 242.11V244.96L57.5 224.59V222.52L107.87 242.11Z" fill="#595959"/>
<path d="M112.67 225.54V227.65L94.0703 234.37V231.86L112.67 225.54Z" fill="#5C5C5C"/>
<path d="M61.5508 220.5L67.5808 222.61H67.5908L68.5608 222.95H68.5708L74.5708 225.05H74.5808L75.5208 225.38H75.5308L81.5008 227.47L82.4108 227.79H82.4208L89.1608 230.15L90.0708 230.47L94.0908 231.88L97.0408 230.88L97.9408 230.58L101.461 229.39L102.361 229.08H102.371L105.821 227.9L106.751 227.58H106.761L109.751 226.57L110.711 226.24H110.721L112.701 225.57L108.771 224.58L107.711 224.31L99.7908 222.31L98.7308 222.04L92.5908 220.49L91.4808 220.21L85.3008 218.65H85.2908L84.1308 218.36H84.1208L80.3008 217.4L78.9808 217.62H78.9708L77.6308 217.85H77.6208L75.8708 218.14H75.8608L74.5908 218.35H74.5808L71.7108 218.83L70.5008 219.03L66.1208 219.76L64.9308 219.96L61.5508 220.5Z" fill="#737373"/>
<path d="M94.0695 231.86V234.37L61.5195 222.64V220.46L94.0695 231.86Z" fill="#545454"/>
<path d="M77.6191 217.81L109.719 226.55L110.679 226.22L78.9592 217.58H78.9491L77.6191 217.81Z" fill="#5C5C5C"/>
<path d="M74.5703 218.32L105.79 227.88L106.72 227.56L75.8403 218.11H75.8303L74.5703 218.32Z" fill="#5C5C5C"/>
<path d="M70.4902 219L101.44 229.36L102.34 229.05L71.7002 218.8L70.4902 219Z" fill="#5C5C5C"/>
<path d="M64.9102 219.93L97.0101 230.86L97.9102 230.56L66.1002 219.74L64.9102 219.93Z" fill="#5C5C5C"/>
<path d="M89.1289 230.14L107.679 224.29L108.739 224.56L90.0389 230.46L89.1289 230.14Z" fill="#545454"/>
<path d="M74.5605 225.04L91.4505 220.18L92.5605 220.46L75.5105 225.37H75.5005L74.5605 225.04Z" fill="#545454"/>
<path d="M81.4805 227.46L98.7005 222.01L99.7605 222.28L82.3905 227.78H82.3805L81.4805 227.46Z" fill="#545454"/>
<path d="M67.5801 222.61L68.5501 222.95H68.5601L85.2701 218.62L84.1101 218.33H84.1001L67.5801 222.61Z" fill="#545454"/>
<path d="M97.0605 232.64L99.6006 233.59L100.391 233.88L103.551 235.07L104.331 235.36L107.731 236.64L110.461 235.42L111.231 235.07L114.361 233.67L115.141 233.32H115.151L118.601 231.78L119.401 231.42L122.551 230.02L123.381 229.65L125.381 228.76L121.791 227.88L120.851 227.65L117.381 226.8L116.441 226.57H116.431L114.781 226.17L113.001 226.82H112.991L112.051 227.16L109.061 228.25H109.051L108.151 228.57L104.721 229.82L103.851 230.14L100.431 231.38L99.5605 231.7L97.0605 232.64Z" fill="#737373"/>
<path d="M125.369 230.53V228.76L107.779 236.37V238.95L125.369 230.53Z" fill="#5C5C5C"/>
<path d="M107.781 236.38V238.96L97.0508 235.16V232.61L107.781 236.38Z" fill="#545454"/>
<path d="M112.051 227.19L122.531 230.04L123.361 229.67L113.001 226.85H112.991L112.051 227.19Z" fill="#5C5C5C"/>
<path d="M108.16 228.6L118.6 231.8L119.4 231.44L109.07 228.28H109.06L108.16 228.6Z" fill="#5C5C5C"/>
<path d="M103.85 230.17L114.36 233.69L115.14 233.34L104.73 229.85L103.85 230.17Z" fill="#5C5C5C"/>
<path d="M99.5703 231.73L110.45 235.43L111.22 235.08L100.43 231.41L99.5703 231.73Z" fill="#5C5C5C"/>
<path d="M103.539 235.08L104.319 235.37L121.779 227.9L120.839 227.67L103.539 235.08Z" fill="#545454"/>
<path d="M99.5996 233.59L100.39 233.88L117.38 226.81L116.44 226.58H116.43L99.5996 233.59Z" fill="#545454"/>
<path d="M94.95 230.81C101.54 230.08 106.55 226.52 106.15 222.85C105.75 219.18 100.08 216.8 93.49 217.52C86.9 218.24 81.89 221.81 82.29 225.47C82.7 229.14 88.36 231.53 94.95 230.81Z" fill="#86BCFC"/>
<path d="M95.1101 229.18C101.7 228.45 106.71 224.89 106.31 221.22C105.91 217.55 100.24 215.17 93.6501 215.89C87.0601 216.61 82.0501 220.18 82.4501 223.84C82.8601 227.52 88.5301 229.9 95.1101 229.18Z" fill="#0C6ED6"/>
<path d="M89.44 230.66C89.43 230.39 89.4501 230.11 89.4901 229.84C89.5201 229.57 89.57 229.3 89.64 229.04C89.76 228.56 89.95 228.09 90.18 227.65C90.53 226.97 91.02 226.34 91.62 225.85C92.19 225.34 92.9 225 93.62 224.81C93.14 225.4 92.66 225.9 92.26 226.47C92.05 226.74 91.88 227.04 91.68 227.31C91.52 227.61 91.33 227.88 91.19 228.19C91.02 228.51 90.87 228.85 90.72 229.18C90.6 229.46 90.48 229.75 90.36 230.04C90.28 230.28 90.19 230.51 90.11 230.76L89.44 230.66Z" fill="#183B59"/>
<path d="M85.1895 229.23C85.1995 229.07 85.2095 228.92 85.2195 228.76C85.2595 228.39 85.3495 228.02 85.4595 227.66C85.5795 227.28 85.7295 226.92 85.9095 226.57C86.2595 225.89 86.7495 225.26 87.3495 224.77C87.9195 224.26 88.6295 223.92 89.3495 223.73C88.8695 224.32 88.3895 224.82 87.9895 225.39C87.7795 225.66 87.6095 225.96 87.4095 226.23C87.2495 226.53 87.0594 226.8 86.9194 227.11C86.7494 227.44 86.5795 227.79 86.4395 228.14C86.3195 228.41 86.1995 228.69 86.0995 228.97C86.0195 229.18 85.9595 229.39 85.8895 229.59L85.1895 229.23Z" fill="#183B59"/>
<path d="M82.2695 225.21C82.3595 224.98 82.4595 224.75 82.5795 224.53C82.5895 224.52 82.5895 224.51 82.5895 224.51C82.9395 223.83 83.4195 223.21 84.0195 222.74C84.5895 222.23 85.2995 221.89 86.0195 221.7C85.5395 222.29 85.0595 222.79 84.6595 223.36C84.4495 223.63 84.2795 223.92 84.0795 224.2C83.9195 224.49 83.7295 224.77 83.5795 225.07C83.4495 225.31 83.3295 225.55 83.2295 225.8C83.0595 226.16 82.8995 226.54 82.7595 226.93C82.7595 226.94 82.7495 226.94 82.7495 226.94L82.2695 225.21Z" fill="#183B59"/>
<path d="M75.5696 146.66L98.3196 227.31L27.4996 201.98L0.0996094 126.5L75.5696 146.66Z" fill="#333333"/>
<path d="M0.0898438 126.5L8.87984 126.33L81.7798 145.11L75.5699 146.66L0.0898438 126.5Z" fill="#636363"/>
<path d="M81.7703 145.12L102.97 225.08L98.3203 227.32L75.5703 146.67L81.7703 145.12Z" fill="#787878"/>
<path d="M70.2299 246.27C71.0899 246.1 82.9799 242.48 82.9799 242.48L46.6199 226.62L43.1699 227.83L70.2299 246.27Z" fill="#858585"/>
<path d="M35.0703 176.65L49.2003 180.96L70.2303 246.27L41.4503 229.73L35.0703 176.65Z" fill="#474747"/>
<path d="M49.1992 180.96L71.7392 243.1L83.2392 242.48L70.2292 246.27L49.1992 180.96Z" fill="#B3B3B3"/>
<path d="M142.24 230.61C141.45 230.61 140.65 230.46 139.88 230.14C136.73 228.84 135.24 225.22 136.54 222.08C147.32 196.08 159.03 149.06 159.54 95.09C159.57 91.7 162.33 88.98 165.71 88.98C165.73 88.98 165.75 88.98 165.77 88.98C169.18 89.01 171.92 91.8 171.88 95.21C171.35 150.95 159.16 199.74 147.94 226.81C146.96 229.17 144.66 230.61 142.24 230.61Z" fill="#0C6ED6"/>
<path d="M138.619 239.3C144.459 236.17 147.789 231 146.049 227.74C144.309 224.48 138.159 224.38 132.319 227.5C126.479 230.63 123.149 235.8 124.889 239.06C126.619 242.31 132.769 242.42 138.619 239.3Z" fill="#86BCFC"/>
<path d="M138.16 237.73C144 234.6 147.33 229.43 145.59 226.17C143.85 222.91 137.7 222.81 131.86 225.93C126.02 229.06 122.69 234.23 124.43 237.49C126.17 240.74 132.32 240.85 138.16 237.73Z" fill="#0C6ED6"/>
<path d="M134.129 241.04C134.119 240.79 134.109 240.53 134.099 240.28C134.089 239.97 134.099 239.66 134.109 239.35C134.119 238.98 134.139 238.62 134.179 238.25C134.199 237.92 134.269 237.59 134.309 237.25C134.389 236.93 134.439 236.59 134.539 236.26C134.699 235.59 134.959 234.95 135.179 234.22C134.579 234.66 134.049 235.25 133.709 235.93C133.329 236.61 133.119 237.37 133.049 238.13C132.999 238.63 132.999 239.12 133.069 239.61C133.099 239.88 133.159 240.15 133.229 240.41C133.299 240.67 133.389 240.94 133.499 241.18L134.129 241.04Z" fill="#183B59"/>
<path d="M129.77 241.53C129.76 241.31 129.75 241.09 129.74 240.87C129.73 240.57 129.74 240.27 129.75 239.97C129.76 239.59 129.78 239.21 129.82 238.84C129.84 238.51 129.91 238.18 129.95 237.84C130.03 237.52 130.08 237.18 130.18 236.85C130.34 236.18 130.6 235.54 130.82 234.81C130.22 235.25 129.69 235.84 129.35 236.52C128.97 237.2 128.76 237.96 128.69 238.72C128.65 239.11 128.64 239.51 128.68 239.89C128.71 240.27 128.77 240.64 128.87 241C128.91 241.16 128.96 241.31 129.01 241.45L129.77 241.53Z" fill="#183B59"/>
<path d="M125.89 240.22C125.89 240.21 125.89 240.21 125.89 240.21C125.88 239.8 125.89 239.39 125.91 238.99C125.92 238.72 125.94 238.45 125.97 238.18C125.99 237.85 126.06 237.52 126.1 237.19C126.18 236.86 126.23 236.53 126.33 236.2C126.49 235.53 126.75 234.88 126.97 234.16C126.36 234.6 125.84 235.18 125.5 235.87C125.12 236.53 124.91 237.29 124.84 238.05C124.84 238.06 124.84 238.07 124.83 238.07C124.81 238.32 124.79 238.56 124.8 238.81L125.89 240.22Z" fill="#183B59"/>
<path d="M207.51 117.4C184.94 113.27 174.18 90.1899 189.2 67.6099C189.92 69.1699 190.64 70.7699 191.35 72.3799C193.72 77.7399 196.03 83.3499 198.22 89.1199C201.69 98.2499 204.87 107.8 207.51 117.4Z" fill="#0C6ED6"/>
</svg>
