<svg width="164" height="185" viewBox="0 0 164 185" fill="none" xmlns="http://www.w3.org/2000/svg">
<path d="M27.7703 183.75C18.9603 183.75 11.4002 180.71 6.28025 175.06C1.64025 169.95 -0.609749 162.97 0.390251 156.86C1.71025 148.81 6.40025 142.22 13.9703 137.78C23.6303 132.11 37.2603 130.64 47.1003 134.21C50.8503 135.57 52.7902 139.71 51.4302 143.46C50.0802 147.21 45.9302 149.15 42.1802 147.79C37.2002 145.99 27.7903 146.41 21.2703 150.24C17.4803 152.46 15.2403 155.48 14.6303 159.2C14.4303 160.42 14.8903 163.07 16.9703 165.36C19.6003 168.26 23.8903 169.61 29.3803 169.25C33.3603 169 36.7903 172.01 37.0503 175.99C37.3103 179.97 34.2902 183.4 30.3102 183.66C29.4602 183.72 28.6103 183.75 27.7703 183.75Z" fill="#0C6ED6"/>
<path d="M25.8398 180.27C25.8398 183.3 31.9798 184.74 37.8398 184.61C38.1798 184.6 38.5098 184.59 38.8398 184.57C39.8098 184.51 40.7698 184.42 41.6798 184.27L42.6698 184.09C43.6298 183.9 44.5299 183.65 45.2999 183.34C45.7299 183.18 46.1198 182.99 46.4698 182.78C47.6198 182.12 48.3098 181.28 48.3098 180.26C48.3098 179.99 48.2998 179.74 48.2798 179.47C48.2798 179.47 48.2798 179.47 48.2798 179.46C47.8498 174.04 42.9998 169.77 37.0898 169.77C31.1798 169.77 26.3198 174.05 25.8898 179.46C25.8898 179.47 25.8898 179.47 25.8898 179.47C25.8498 179.74 25.8398 180 25.8398 180.27Z" fill="#86BCFC"/>
<path d="M25.8398 179.11C25.8398 184.9 48.2999 184.9 48.2999 179.11C48.2999 173.32 43.2699 168.62 37.0699 168.62C30.8699 168.62 25.8398 173.32 25.8398 179.11Z" fill="#0C6ED6"/>
<path d="M45.0203 179.19C45.0403 179.9 45.0703 180.6 45.1203 181.29C45.1403 181.6 45.1603 181.92 45.1903 182.23C45.2203 182.61 45.2503 182.98 45.2803 183.35C45.7103 183.19 46.1003 183 46.4503 182.79C46.5003 182.4 46.5103 182 46.5003 181.6C46.5003 181.46 46.4903 181.32 46.4903 181.19C46.4303 180.45 46.3003 179.71 46.0803 179C45.8503 178.29 45.5503 177.61 45.0903 176.98C44.9903 177.75 45.0103 178.47 45.0203 179.19Z" fill="#183B59"/>
<path d="M42.661 184.09C42.681 184.02 42.691 183.95 42.711 183.88C42.771 183.55 42.811 183.22 42.841 182.89C42.871 182.48 42.871 182.06 42.841 181.65C42.781 180.91 42.651 180.17 42.431 179.46C42.201 178.75 41.901 178.07 41.441 177.44C41.341 178.22 41.361 178.93 41.361 179.65C41.381 180.36 41.411 181.05 41.461 181.75C41.491 182.21 41.521 182.67 41.561 183.13C41.591 183.51 41.621 183.89 41.671 184.28L42.661 184.09Z" fill="#183B59"/>
<path d="M37.5297 180.1C37.5497 180.81 37.5797 181.51 37.6297 182.2C37.6597 182.61 37.6897 183.02 37.7197 183.44C37.7497 183.82 37.7897 184.22 37.8297 184.61C38.1697 184.6 38.4997 184.59 38.8297 184.57C38.8497 184.49 38.8597 184.42 38.8797 184.34C38.9397 184.03 38.9697 183.71 39.0097 183.39C39.0397 182.96 39.0397 182.54 39.0097 182.11C38.9497 181.37 38.8297 180.63 38.5997 179.92C38.3697 179.21 38.0697 178.53 37.6097 177.9C37.4997 178.67 37.5197 179.39 37.5297 180.1Z" fill="#183B59"/>
<path d="M40.7601 159.67L29.9501 150.1L29.9102 150.15C30.0202 150.02 40.9401 136.93 44.4501 106.16C44.9001 102.2 48.4802 99.3601 52.4402 99.8101C56.4002 100.26 59.2401 103.84 58.7901 107.8C54.7201 143.57 41.3401 159.03 40.7601 159.67Z" fill="#0C6ED6"/>
<path d="M43.65 160.11C43.83 163.14 37.88 164.97 32 165.22C31.61 165.25 31.21 165.25 30.83 165.26C29.92 165.27 29.01 165.23 28.16 165.17L27 165.04C26.1 164.92 25.25 164.76 24.49 164.54C24.02 164.41 23.59 164.26 23.2 164.08C21.77 163.47 20.86 162.6 20.79 161.45C20.77 161.18 20.77 160.92 20.78 160.65C20.89 155.1 25.57 150.46 31.6 150.1C37.62 149.75 42.82 153.81 43.58 159.31C43.61 159.58 43.64 159.85 43.65 160.11Z" fill="#86BCFC"/>
<path d="M20.7112 160.28C21.0612 166.18 43.9412 164.83 43.5912 158.94C43.2412 153.04 37.8412 148.56 31.5212 148.93C25.2012 149.29 20.3612 154.38 20.7112 160.28Z" fill="#0C6ED6"/>
<path d="M24.4906 160.87C24.5106 161.58 24.5206 162.27 24.5106 162.97C24.5106 163.11 24.5006 163.25 24.5106 163.39C24.5006 163.77 24.4906 164.16 24.4906 164.55C24.0206 164.42 23.5906 164.27 23.2006 164.09C23.1606 163.72 23.1406 163.34 23.1406 162.97C23.1406 162.96 23.1406 162.94 23.1506 162.92C23.1706 162.19 23.2506 161.47 23.4306 160.76C23.6106 160.04 23.8806 159.33 24.3006 158.69C24.4206 159.44 24.4606 160.16 24.4906 160.87Z" fill="#183B59"/>
<path d="M26.9903 165.04C26.9103 164.64 26.8603 164.25 26.8403 163.85C26.8303 163.64 26.8203 163.42 26.8203 163.2C26.8303 162.45 26.9203 161.71 27.1003 160.99C27.2803 160.27 27.5503 159.56 27.9603 158.92C28.1103 159.68 28.1303 160.4 28.1703 161.12C28.1903 161.83 28.2003 162.52 28.1903 163.22C28.1903 163.48 28.1803 163.74 28.1803 164.01C28.1703 164.39 28.1603 164.79 28.1503 165.18L26.9903 165.04Z" fill="#183B59"/>
<path d="M32.0202 161.34C32.0302 162.05 32.0501 162.75 32.0401 163.44C32.0401 163.64 32.0302 163.84 32.0302 164.03C32.0202 164.43 32.0102 164.82 32.0002 165.22C31.6102 165.25 31.2102 165.25 30.8302 165.26C30.7502 164.87 30.7001 164.47 30.6801 164.08C30.6701 163.86 30.6602 163.65 30.6602 163.43C30.6802 162.68 30.7602 161.94 30.9402 161.22C31.1202 160.5 31.3902 159.79 31.8102 159.15C31.9602 159.91 31.9802 160.63 32.0202 161.34Z" fill="#183B59"/>
<path d="M35.4205 51.12C36.6105 52.13 38.2905 52.07 40.1605 51.31C46.0705 48.89 53.9505 39.34 54.8405 33.34C55.1005 31.64 54.7905 30.23 53.7305 29.34C47.7105 24.29 29.4005 17.22 24.3405 23.23C19.2905 29.24 29.4105 46.07 35.4205 51.12Z" fill="#3F8CFF"/>
<path d="M40.1703 51.2999C46.0803 48.8799 53.9603 39.3299 54.8503 33.3299C49.6503 29.2299 35.2503 23.8099 31.2103 28.6099C27.1103 33.4899 35.2603 47.1099 40.1703 51.2999Z" fill="#0C6ED6"/>
<path d="M91.44 28.44C91.07 29.88 89.74 30.78 87.85 31.23C81.89 32.64 70.44 29.59 66.4 25.41C65.26 24.23 64.7 22.96 65.04 21.67C66.91 14.38 77.23 -1.34003 84.53 0.529968C91.81 2.39997 93.3 21.14 91.44 28.44Z" fill="#3F8CFF"/>
<path d="M87.8406 31.23C81.8806 32.64 70.4306 29.59 66.3906 25.41C68.1606 19.32 76.3506 7.06996 82.1706 8.54996C88.0906 10.07 89.3306 25.21 87.8406 31.23Z" fill="#86BCFC"/>
<path d="M136.1 154.07C135.75 154.07 135.4 154.06 135.04 154.05C131.06 153.93 127.92 150.61 128.04 146.62C128.16 142.64 131.49 139.48 135.47 139.62C138.87 139.72 144.97 139.1 147.69 133.78C150.39 128.49 149.48 117.9 138.81 104.03C127.68 89.56 138.62 74.64 145.96 68.77C149.08 66.28 153.62 66.78 156.11 69.9C158.6 73.02 158.1 77.56 154.98 80.05C153.97 80.87 145.06 88.47 150.26 95.22C162.99 111.78 166.75 128.23 160.55 140.35C156.14 148.99 147.05 154.07 136.1 154.07Z" fill="#0C6ED6"/>
<path d="M135.75 145.4C134.18 153.74 127.99 162.15 117.6 167C113.22 169.04 108.09 170.45 102.25 170.95C70.1998 173.68 52.2698 170.98 43.5598 155.66C41.8298 152.62 40.4698 149.08 39.4298 144.99C36.3298 132.78 46.8298 98.0799 45.5698 88.0299C44.3098 77.9799 38.6198 64.5499 37.7498 57.8799C33.8698 28.2299 55.6398 19.4599 71.5498 21.0699C74.5198 21.3699 77.2698 22.0299 79.6298 22.9799C88.9498 26.7499 98.7898 38.0599 107.64 53.0499C111.26 59.1599 114.71 65.8899 117.89 72.9599C118.27 73.8099 118.67 74.6899 119.08 75.6199C121.94 82.0699 125.5 90.3999 128.65 99.4199C134.04 114.82 138.24 132.19 135.75 145.4Z" fill="#3F8CFF"/>
<path d="M107.631 53.0401C98.8806 57.9801 77.4506 68.4101 68.4506 57.8701C65.1306 53.9801 63.7406 38.2101 71.5406 21.0601C74.5106 21.3601 77.2606 22.0201 79.6206 22.9701C88.9506 26.7301 98.7906 38.0501 107.631 53.0401Z" fill="#0C6ED6"/>
<path d="M117.601 167C113.221 169.04 108.091 170.45 102.251 170.95C70.201 173.68 52.271 170.98 43.561 155.66C42.531 122.97 54.301 86.53 67.701 85.51C89.691 83.83 107.651 110.38 112.721 129.28C118.521 150.91 118.801 161.17 117.601 167Z" fill="#86BCFC"/>
<path d="M128.65 99.4099C123.11 96.7199 113.23 87.7899 119.08 75.6099C121.94 82.0599 125.49 90.3899 128.65 99.4099Z" fill="#0C6ED6"/>
<path d="M77.9696 59.3899C83.5596 59.3899 88.0896 54.8599 88.0896 49.2699C88.0896 43.6799 83.5596 39.1499 77.9696 39.1499C72.3796 39.1499 67.8496 43.6799 67.8496 49.2699C67.8496 54.8599 72.3796 59.3899 77.9696 59.3899Z" fill="#3F8CFF"/>
<path d="M78.1809 57.17C82.5809 57.17 86.1509 53.6 86.1509 49.2C86.1509 44.8 82.5809 41.23 78.1809 41.23C73.7809 41.23 70.2109 44.8 70.2109 49.2C70.2209 53.61 73.7809 57.17 78.1809 57.17Z" fill="#B0E881"/>
<path d="M76.9596 55.97C79.0196 55.35 79.9196 52.29 78.9596 49.14C78.0096 45.99 75.5696 43.94 73.5096 44.56C71.4496 45.18 70.5496 48.24 71.5096 51.39C72.4596 54.54 74.8996 56.59 76.9596 55.97Z" fill="#183B59"/>
<path d="M76.3898 37.34C80.0698 36.23 82.7198 34.2 82.2998 32.82C81.8798 31.44 78.5598 31.22 74.8698 32.33C71.1898 33.44 68.5398 35.47 68.9598 36.85C69.3798 38.24 72.7098 38.46 76.3898 37.34Z" fill="#86BCFC"/>
<path d="M51.3895 67.4199C56.9795 67.4199 61.5095 62.8899 61.5095 57.2999C61.5095 51.7099 56.9795 47.1799 51.3895 47.1799C45.7995 47.1799 41.2695 51.7099 41.2695 57.2999C41.2695 62.8899 45.7995 67.4199 51.3895 67.4199Z" fill="#0C6ED6"/>
<path d="M51.1907 65.3299C55.5907 65.3299 59.1607 61.7599 59.1607 57.3599C59.1607 52.9599 55.5907 49.3899 51.1907 49.3899C46.7907 49.3899 43.2207 52.9599 43.2207 57.3599C43.2207 61.7699 46.7907 65.3299 51.1907 65.3299Z" fill="#B0E881"/>
<path d="M50.3893 63.5499C52.4493 62.9299 53.3493 59.8699 52.3893 56.7199C51.4393 53.5699 48.9993 51.5199 46.9393 52.1399C44.8793 52.7599 43.9793 55.8199 44.9393 58.9699C45.8893 62.1199 48.3293 64.1699 50.3893 63.5499Z" fill="#183B59"/>
<path d="M46.1007 46.4999C49.7807 45.3899 52.4307 43.3599 52.0107 41.9799C51.5907 40.5999 48.2707 40.3699 44.5807 41.4899C40.9007 42.5999 38.2507 44.6299 38.6707 46.0099C39.0907 47.3999 42.4207 47.6199 46.1007 46.4999Z" fill="#86BCFC"/>
<path d="M67.4509 68.4799C69.5009 67.8599 70.6409 65.6399 69.9909 63.5199C69.3509 61.3999 67.1709 60.1799 65.1309 60.7999C63.0809 61.4199 61.9409 63.6399 62.5909 65.7599C63.2309 67.8799 65.4109 69.0899 67.4509 68.4799Z" fill="#183B59"/>
<path d="M77.2109 67.6501C77.1309 68.0901 76.8808 68.5201 76.5108 68.8201C76.1508 69.1301 75.7009 69.3201 75.2509 69.4501C74.3409 69.7001 73.4109 69.7101 72.5009 69.6501C71.5909 69.5901 70.7009 69.4201 69.8209 69.2201C68.9409 69.0001 68.0909 68.7501 67.2309 68.4301L67.9809 68.1501C67.5709 68.8701 67.1308 69.5101 66.6208 70.1201C66.1008 70.7201 65.5409 71.2901 64.8809 71.7601C64.2409 72.2401 63.5009 72.6201 62.7309 72.8301C61.9509 73.0301 61.1209 73.0401 60.3809 72.8001C61.1509 72.7801 61.8809 72.6101 62.5309 72.2801C63.1809 71.9701 63.7609 71.5301 64.3009 71.0401C64.8209 70.5401 65.3109 70.0001 65.7409 69.4101C66.1709 68.8301 66.6008 68.2001 66.9308 67.5901L67.1808 67.1201L67.6808 67.3101C68.4708 67.6101 69.3109 67.8801 70.1309 68.1101C70.9509 68.3601 71.7909 68.5401 72.6409 68.7101C73.4809 68.8501 74.3309 68.9501 75.1609 68.8601C75.9609 68.8001 76.8009 68.4701 77.2109 67.6501Z" fill="#183B59"/>
<path d="M74.4302 63.6699C74.3302 63.6699 74.2302 63.6199 74.1702 63.5299C74.0802 63.3899 74.1302 63.1999 74.2702 63.1199C79.0402 60.2099 84.6402 59.4399 84.6902 59.4399C84.8502 59.4099 85.0002 59.5299 85.0302 59.6999C85.0502 59.8599 84.9402 60.0099 84.7702 60.0399C84.7102 60.0499 79.2402 60.7999 74.5802 63.6399C74.5402 63.6499 74.4802 63.6699 74.4302 63.6699Z" fill="#86BCFC"/>
<path d="M86.8011 66.59C86.7711 66.59 86.7611 66.59 86.7311 66.58C86.6711 66.57 81.3011 65.3 75.9311 66.27C75.7711 66.3 75.6111 66.19 75.5811 66.02C75.5511 65.85 75.6611 65.7 75.8311 65.67C81.3311 64.68 86.8211 65.98 86.8811 65.99C87.0411 66.03 87.1411 66.19 87.1011 66.35C87.0611 66.5 86.9311 66.59 86.8011 66.59Z" fill="#86BCFC"/>
<path d="M75.0807 65.1399C74.9607 65.1399 74.8507 65.0699 74.8007 64.9599C74.7407 64.8099 74.8107 64.6299 74.9607 64.5599C75.2607 64.4299 82.2607 61.5399 87.0507 62.7299C87.2107 62.7699 87.3107 62.9299 87.2707 63.0899C87.2307 63.2499 87.0707 63.3499 86.9107 63.3099C82.3107 62.1699 75.2707 65.0899 75.2007 65.1099C75.1707 65.1299 75.1207 65.1399 75.0807 65.1399Z" fill="#86BCFC"/>
<path d="M47.8211 71.1899C47.7111 71.1899 47.601 71.1299 47.551 71.0199C47.471 70.8699 47.541 70.6899 47.691 70.6199C47.741 70.5899 52.821 68.1299 58.411 67.9099C58.571 67.9199 58.721 68.0399 58.721 68.1999C58.731 68.3599 58.591 68.5099 58.431 68.5099C52.981 68.7299 48.0111 71.1399 47.9611 71.1599C47.9111 71.1799 47.8711 71.1899 47.8211 71.1899Z" fill="#86BCFC"/>
<path d="M49.74 77.7998C49.66 77.7998 49.6 77.7698 49.54 77.7198C49.42 77.6098 49.41 77.4198 49.52 77.2898C49.56 77.2498 53.41 73.1198 58.54 70.8998C58.69 70.8398 58.87 70.9098 58.94 71.0598C59 71.2098 58.93 71.3898 58.78 71.4598C53.77 73.6298 50 77.6598 49.96 77.6998C49.91 77.7598 49.82 77.7998 49.74 77.7998Z" fill="#86BCFC"/>
<path d="M47.7806 75.1801C47.7106 75.1801 47.6406 75.1501 47.5806 75.1001C47.4506 74.9901 47.4506 74.8001 47.5606 74.6701C50.8906 71.0301 58.3306 69.5601 58.6406 69.5001C58.8006 69.4701 58.9606 69.5801 58.9906 69.7401C59.0206 69.9001 58.9106 70.0601 58.7506 70.0901C58.6706 70.1001 51.1906 71.5801 48.0006 75.0801C47.9406 75.1501 47.8606 75.1801 47.7806 75.1801Z" fill="#86BCFC"/>
<path d="M64.43 31.99C64.25 31.99 64.1 31.86 64.09 31.68C63.5 25.36 65.77 16.21 65.8 16.11C65.84 15.93 66.03 15.81 66.21 15.86C66.39 15.9 66.51 16.09 66.46 16.27C66.43 16.36 64.19 25.4 64.77 31.6C64.79 31.79 64.65 31.95 64.46 31.97C64.45 31.99 64.44 31.99 64.43 31.99Z" fill="#86BCFC"/>
<path d="M66.2603 32.06C66.0803 32.06 65.9303 31.92 65.9203 31.74C65.9103 31.55 65.6703 26.95 68.2403 22.56C68.3303 22.4 68.5503 22.34 68.7103 22.44C68.8703 22.53 68.9303 22.75 68.8303 22.91C66.3703 27.11 66.6003 31.67 66.6003 31.71C66.6103 31.9 66.4703 32.06 66.2803 32.07C66.2803 32.06 66.2703 32.06 66.2603 32.06Z" fill="#86BCFC"/>
<path d="M51.8601 36.07C51.7201 36.07 51.5901 35.98 51.5401 35.84C49.4401 29.97 43.5801 22.74 43.5201 22.66C43.4001 22.52 43.4301 22.3 43.5701 22.18C43.7101 22.06 43.9301 22.09 44.0501 22.23C44.1101 22.31 50.0401 29.64 52.1801 35.61C52.2401 35.79 52.1501 35.99 51.9701 36.05C51.9401 36.06 51.9001 36.07 51.8601 36.07Z" fill="#86BCFC"/>
<path d="M50.2311 36.9099C50.0911 36.9099 49.9711 36.8299 49.9111 36.6999C49.8911 36.6599 48.1811 32.4299 44.1711 29.6699C44.0111 29.5599 43.9811 29.3499 44.0811 29.1899C44.1911 29.0299 44.4011 28.9999 44.5611 29.0999C48.7511 31.9899 50.4811 36.2599 50.5511 36.4399C50.6211 36.6199 50.5311 36.8199 50.3611 36.8899C50.3111 36.9099 50.2711 36.9099 50.2311 36.9099Z" fill="#86BCFC"/>
<path d="M69.3698 51.5198C76.9098 53.7598 86.1198 48.4498 86.1198 45.6598C86.1198 42.8698 80.6798 38.9698 76.2098 40.3598C68.1098 42.8598 69.3698 51.5198 69.3698 51.5198Z" fill="#3F8CFF"/>
<path d="M59.8899 54.2399C54.9199 60.3299 44.3199 61.1399 42.7499 58.8399C41.1799 56.5299 43.4699 50.2499 47.9499 48.8699C56.0499 46.3899 59.8899 54.2399 59.8899 54.2399Z" fill="#0C6ED6"/>
<path d="M94.8999 176.7C91.4299 176.7 88.3699 174.19 87.7899 170.66C87.1099 166.51 81.7899 129.99 104.66 123.46C111.19 121.59 117.58 122.74 122.68 126.68C129.14 131.67 132.55 140.49 132.29 151.51C132.2 155.5 128.88 158.66 124.9 158.55C120.92 158.46 117.76 155.15 117.86 151.16C118 145.03 116.51 140.15 113.86 138.09C112.45 137 110.69 136.74 108.63 137.33C100.33 139.7 100.63 159.6 102.05 168.31C102.68 172.24 100.02 175.95 96.0899 176.6C95.6799 176.67 95.2899 176.7 94.8999 176.7Z" fill="#0C6ED6"/>
<path d="M101.98 174.34C101.98 177.37 95.8398 178.81 89.9798 178.68C89.6398 178.67 89.3098 178.66 88.9798 178.64C88.0098 178.58 87.0498 178.49 86.1398 178.34L85.1498 178.16C84.1898 177.97 83.2898 177.72 82.5198 177.41C82.0898 177.25 81.6998 177.06 81.3498 176.85C80.1998 176.19 79.5098 175.35 79.5098 174.33C79.5098 174.06 79.5198 173.81 79.5398 173.54C79.5398 173.54 79.5398 173.54 79.5398 173.53C79.9698 168.11 84.8198 163.84 90.7298 163.84C96.6398 163.84 101.5 168.12 101.93 173.53C101.93 173.54 101.93 173.54 101.93 173.54C101.96 173.81 101.98 174.07 101.98 174.34Z" fill="#86BCFC"/>
<path d="M101.97 173.17C101.97 178.96 79.5098 178.96 79.5098 173.17C79.5098 167.38 84.5398 162.68 90.7398 162.68C96.9498 162.69 101.97 167.39 101.97 173.17Z" fill="#0C6ED6"/>
<path d="M82.7901 173.25C82.7701 173.96 82.7401 174.66 82.6901 175.35C82.6701 175.66 82.6501 175.98 82.6201 176.29C82.5901 176.67 82.5601 177.04 82.5301 177.41C82.1001 177.25 81.7101 177.06 81.3601 176.85C81.3101 176.46 81.3001 176.06 81.3101 175.66C81.3101 175.52 81.3201 175.38 81.3201 175.25C81.3801 174.51 81.5101 173.77 81.7301 173.06C81.9601 172.35 82.2601 171.67 82.7201 171.04C82.8201 171.82 82.8001 172.53 82.7901 173.25Z" fill="#183B59"/>
<path d="M85.1595 178.16C85.1395 178.09 85.1295 178.02 85.1095 177.95C85.0495 177.62 85.0095 177.29 84.9795 176.96C84.9495 176.55 84.9495 176.13 84.9795 175.72C85.0395 174.98 85.1695 174.24 85.3895 173.53C85.6195 172.82 85.9195 172.14 86.3795 171.51C86.4795 172.29 86.4595 173 86.4595 173.72C86.4395 174.43 86.4095 175.12 86.3595 175.82C86.3295 176.28 86.2995 176.74 86.2595 177.2C86.2295 177.58 86.1995 177.96 86.1495 178.35L85.1595 178.16Z" fill="#183B59"/>
<path d="M90.2798 174.17C90.2598 174.88 90.2298 175.58 90.1798 176.27C90.1498 176.68 90.1198 177.09 90.0898 177.51C90.0598 177.89 90.0198 178.29 89.9798 178.68C89.6398 178.67 89.3098 178.66 88.9798 178.64C88.9598 178.56 88.9498 178.49 88.9298 178.41C88.8698 178.1 88.8398 177.78 88.7998 177.46C88.7698 177.03 88.7698 176.61 88.7998 176.18C88.8598 175.44 88.9798 174.7 89.2098 173.99C89.4398 173.28 89.7398 172.6 90.1998 171.97C90.3098 172.73 90.2898 173.46 90.2798 174.17Z" fill="#183B59"/>
<path d="M65.841 97.8699C68.501 99.3099 72.691 94.6999 75.411 89.4799C75.601 89.1299 75.771 88.7799 75.941 88.4299C76.331 87.6099 76.691 86.7799 76.991 85.9699L77.371 84.8599C77.651 83.9899 77.851 83.1499 77.981 82.3799C78.061 81.8999 78.111 81.4399 78.111 81.0099C78.161 79.4599 77.761 78.2599 76.751 77.7099C76.511 77.5799 76.271 77.4599 76.031 77.3599C70.961 75.1199 64.771 77.3899 61.891 82.6999C59.021 88.0099 60.501 94.4399 65.161 97.4499C65.381 97.5999 65.611 97.7399 65.841 97.8699Z" fill="#86BCFC"/>
<path d="M75.7107 77.15C80.9107 79.96 70.0007 100.12 64.8007 97.3C59.6007 94.49 57.8307 87.69 60.8507 82.13C63.8607 76.57 70.5207 74.34 75.7107 77.15Z" fill="#0C6ED6"/>
<path d="M74.64 80.83C75.27 81.15 75.9 81.46 76.53 81.73C76.66 81.79 76.79 81.84 76.91 81.91C77.26 82.07 77.61 82.2199 77.97 82.3799C78.05 81.8999 78.1 81.44 78.1 81.01C77.79 80.82 77.45 80.63 77.11 80.48C77.1 80.47 77.08 80.4599 77.07 80.4599C76.4 80.1599 75.71 79.94 75 79.8C74.27 79.66 73.52 79.6099 72.75 79.7099C73.38 80.1599 74.01 80.49 74.64 80.83Z" fill="#183B59"/>
<path d="M77.3699 84.8599C77.0399 84.6199 76.7099 84.4099 76.3599 84.2199C76.1699 84.1199 75.9799 84.0199 75.7799 83.9199C75.0999 83.6099 74.3899 83.3799 73.6599 83.2399C72.9299 83.0999 72.1799 83.0399 71.4199 83.1499C72.0499 83.6099 72.6999 83.9399 73.3199 84.2699C73.9499 84.5899 74.5799 84.8999 75.2099 85.1699C75.4499 85.2799 75.6899 85.3899 75.9299 85.4999C76.2799 85.6599 76.6399 85.8099 76.9999 85.9699L77.3699 84.8599Z" fill="#183B59"/>
<path d="M71.8902 87.85C72.5202 88.16 73.1502 88.47 73.7902 88.76C73.9702 88.84 74.1502 88.92 74.3302 89.01C74.6902 89.17 75.0502 89.33 75.4202 89.49C75.6102 89.14 75.7802 88.79 75.9502 88.44C75.6302 88.21 75.3002 87.99 74.9402 87.8C74.7502 87.69 74.5602 87.6 74.3602 87.51C73.6802 87.21 72.9702 86.97 72.2402 86.83C71.5102 86.69 70.7602 86.64 69.9902 86.74C70.6202 87.19 71.2502 87.52 71.8902 87.85Z" fill="#183B59"/>
<path d="M89.241 128.81C88.441 128.81 87.631 128.77 86.811 128.69C74.171 127.46 60.811 115.96 59.441 93.06C59.201 89.08 62.241 85.66 66.211 85.42C70.191 85.19 73.611 88.22 73.851 92.19C74.711 106.59 81.681 113.68 88.221 114.32C93.561 114.84 97.941 111.08 99.661 104.49C100.671 100.63 104.601 98.31 108.471 99.32C112.331 100.33 114.651 104.26 113.641 108.13C110.341 120.77 100.711 128.81 89.241 128.81Z" fill="#0C6ED6"/>
</svg>
