<svg width="208" height="247" viewBox="0 0 208 247" fill="none" xmlns="http://www.w3.org/2000/svg">
<path d="M82.9296 245.81C76.8596 245.81 64.5197 244.05 37.6697 238.16C12.2597 232.58 -0.320351 224.46 0.309649 214.01C0.939649 203.42 15.5797 198.51 20.3897 196.89C32.3097 192.89 49.8896 189.73 72.6496 187.51C76.0396 187.18 79.0596 189.66 79.3896 193.05C79.7197 196.44 77.2397 199.46 73.8497 199.79C21.8997 204.87 13.7696 213.25 12.7296 214.72C13.7296 216.36 20.1397 221.68 40.3197 226.1C73.5197 233.38 81.8397 233.57 83.4597 233.51C85.5497 232.91 87.8896 233.43 89.5396 235.07C91.9496 237.48 91.9496 241.38 89.5396 243.8C88.5396 244.8 87.5296 245.81 82.9296 245.81ZM80.8096 235.07C80.7996 235.07 80.8096 235.07 80.8096 235.07V235.07ZM80.8096 235.06C80.8096 235.07 80.8096 235.07 80.8096 235.06V235.06ZM80.8197 235.05C80.8197 235.06 80.8197 235.06 80.8197 235.05C80.8197 235.06 80.8197 235.06 80.8197 235.05Z" fill="#0C6ED6"/>
<path d="M148.98 206.77C148.15 206.77 147.319 206.76 146.489 206.74C142.229 206.61 138.88 203.06 139.01 198.8C139.14 194.54 142.69 191.2 146.95 191.32C165.99 191.89 180.93 184.34 187.95 170.61C198.8 149.39 189.939 116.78 164.269 83.3899C155.189 71.5799 151.66 59.7199 153.78 48.1599C157.04 30.4199 172.699 20.5899 173.359 20.1799C176.989 17.9499 181.74 19.0799 183.97 22.6999C186.2 26.3299 185.07 31.0799 181.45 33.3099C181.38 33.3599 170.88 40.0899 168.93 51.0499C167.67 58.1099 170.219 65.8299 176.489 73.9799C191.729 93.81 201.58 113.16 205.73 131.5C209.66 148.82 208.25 164.76 201.68 177.63C192.17 196.24 173.05 206.77 148.98 206.77Z" fill="#0C6ED6"/>
<path d="M48.7094 220.2C48.0694 220.2 47.4094 220.1 46.7694 219.89C43.5294 218.82 41.7794 215.33 42.8494 212.09C43.0894 211.35 67.2394 137.79 67.7394 85.4C67.7694 82.01 70.5294 79.29 73.9094 79.29C73.9294 79.29 73.9494 79.29 73.9694 79.29C77.3794 79.32 80.1194 82.11 80.0794 85.52C79.5594 139.86 55.5894 212.89 54.5694 215.97C53.7094 218.56 51.2994 220.2 48.7094 220.2Z" fill="#0C6ED6"/>
<path d="M112.639 23.6799C112.179 24.8099 110.999 25.3899 109.419 25.5399C104.439 26.0199 95.4894 22.2999 92.6694 18.4599C91.8694 17.3799 91.5694 16.2799 91.9694 15.2799C94.2894 9.57994 104.389 -2.02006 110.089 0.289943C115.799 2.61994 114.959 17.9799 112.639 23.6799Z" fill="#3F8CFF"/>
<path d="M109.41 25.5499C104.43 26.0299 95.4802 22.3099 92.6602 18.4699C94.7602 13.7199 102.76 4.68989 107.31 6.53989C111.95 8.41989 111.28 20.8399 109.41 25.5499Z" fill="#86BCFC"/>
<path d="M57.2901 28.6999C58.0801 29.5699 59.3301 29.6999 60.8001 29.3199C65.4401 28.1099 72.2601 21.8099 73.5301 17.4399C73.8901 16.1999 73.8101 15.1199 73.1101 14.3499C69.1401 9.98986 56.2401 2.87986 51.8701 6.82986C47.5001 10.7999 53.3301 24.3399 57.2901 28.6999Z" fill="#3F8CFF"/>
<path d="M60.7994 29.3198C65.4394 28.1098 72.2594 21.8098 73.5294 17.4398C70.0694 13.8598 59.9094 8.37982 56.4294 11.5398C52.8794 14.7498 57.5694 25.6998 60.7994 29.3198Z" fill="#0C6ED6"/>
<path d="M156.829 206.74C149.159 216.97 143.419 223.29 123.849 224.63C114.819 225.25 102.849 224.8 86.3789 223.2C78.4789 222.43 73.6588 219.59 70.8388 214.76C58.5488 193.8 83.7789 135.42 57.5789 46.8C57.4789 46.44 57.3689 46.07 57.2789 45.71C54.0989 33.47 58.8589 23.26 67.3789 17.25C75.6089 11.44 87.3388 9.54001 98.8088 13.53C105.519 15.85 112.139 20.19 117.919 26.91C119.789 29.08 121.829 31.81 123.969 35.01C124.199 35.34 124.419 35.68 124.649 36.03C129.999 44.15 135.979 55.08 141.749 67.62C142.469 69.18 143.189 70.78 143.899 72.39C146.269 77.75 148.579 83.36 150.769 89.13C154.239 98.26 157.419 107.8 160.059 117.41C169.429 151.54 172.019 186.49 156.829 206.74Z" fill="#3F8CFF"/>
<path d="M84.4598 52.0899C86.4998 52.0899 88.1598 50.3799 88.1598 48.2599C88.1598 46.1499 86.4998 44.4299 84.4598 44.4299C82.4198 44.4299 80.7598 46.1399 80.7598 48.2599C80.7598 50.3799 82.4098 52.0899 84.4598 52.0899Z" fill="#183B59"/>
<path d="M75.2988 54.0501C75.9088 54.6801 76.7688 54.7501 77.5288 54.5901C78.3088 54.4401 79.0688 54.1101 79.7888 53.7501C80.5088 53.3701 81.2288 52.9701 81.9188 52.5101C82.6088 52.0701 83.3088 51.5901 83.9388 51.1001L84.3188 50.8101L84.6688 51.1201C85.2288 51.6001 85.8788 52.0701 86.5188 52.4801C87.1588 52.9101 87.8388 53.2801 88.5288 53.6101C89.2288 53.9301 89.9388 54.2001 90.6988 54.3301C91.4488 54.4701 92.2388 54.4501 93.0088 54.2301C92.3388 54.6801 91.4888 54.8901 90.6488 54.8801C89.8088 54.8801 88.9788 54.7001 88.1988 54.4401C87.4088 54.1801 86.6688 53.8101 85.9488 53.4001C85.2288 52.9801 84.5788 52.5201 83.9188 51.9801L84.6488 52.0001C83.9488 52.5301 83.2388 52.9901 82.4888 53.4401C81.7388 53.8601 80.9688 54.2701 80.1488 54.5701C79.3388 54.8801 78.4788 55.1201 77.5788 55.1501C77.1388 55.1601 76.6688 55.1001 76.2488 54.9201C75.8388 54.7401 75.4988 54.4301 75.2988 54.0501Z" fill="#183B59"/>
<path d="M76.66 49.6399C76.64 49.6399 76.61 49.6399 76.58 49.6299C71.53 48.3199 66.32 49.1499 66.27 49.1599C66.11 49.1799 65.96 49.0799 65.94 48.9199C65.92 48.7599 66.02 48.6099 66.18 48.5899C66.23 48.5799 71.57 47.7399 76.73 49.0699C76.89 49.1099 76.98 49.2699 76.94 49.4199C76.91 49.5499 76.79 49.6399 76.66 49.6399Z" fill="#86BCFC"/>
<path d="M66.1596 55.74C66.0596 55.74 65.9596 55.69 65.9096 55.6C65.8296 55.46 65.8796 55.29 66.0096 55.21C66.0596 55.18 70.7296 52.47 76.0296 51.86C76.1896 51.84 76.3296 51.95 76.3496 52.11C76.3696 52.27 76.2596 52.41 76.0996 52.43C70.9196 53.02 66.3496 55.67 66.2996 55.7C66.2596 55.73 66.2096 55.74 66.1596 55.74Z" fill="#86BCFC"/>
<path d="M65.0795 52.8C64.9795 52.8 64.8895 52.75 64.8295 52.66C64.7495 52.52 64.7995 52.35 64.9295 52.27C68.9895 49.86 76.1895 50.57 76.4995 50.6C76.6595 50.62 76.7695 50.76 76.7495 50.92C76.7295 51.08 76.5895 51.19 76.4295 51.17C76.3495 51.16 69.1095 50.44 65.2095 52.76C65.1795 52.79 65.1295 52.8 65.0795 52.8Z" fill="#86BCFC"/>
<path d="M76.2896 19.68C76.1596 19.68 76.0396 19.59 76.0096 19.46C74.7496 14.39 70.4596 7.84996 70.4196 7.77996C70.3296 7.64996 70.3696 7.46996 70.4996 7.37996C70.6296 7.28996 70.8096 7.32996 70.8996 7.45996C70.9496 7.51996 75.2896 14.15 76.5696 19.32C76.6096 19.48 76.5096 19.63 76.3596 19.67C76.3296 19.68 76.3096 19.68 76.2896 19.68Z" fill="#86BCFC"/>
<path d="M74.8499 20.2498C74.7199 20.2498 74.6099 20.1698 74.5699 20.0398C74.5599 20.0098 73.4799 16.3298 70.3599 13.6798C70.2399 13.5798 70.2299 13.3998 70.3299 13.2798C70.4299 13.1598 70.6099 13.1498 70.7299 13.2498C73.9899 16.0098 75.0799 19.7298 75.1199 19.8898C75.1699 20.0398 75.0699 20.1998 74.9199 20.2398C74.8999 20.2398 74.8699 20.2498 74.8499 20.2498Z" fill="#86BCFC"/>
<path d="M87.3506 18.8601C87.1906 18.8601 87.0605 18.7301 87.0605 18.5701C87.0905 13.2401 89.7705 5.78006 89.7905 5.71006C89.8405 5.56006 90.0106 5.48006 90.1606 5.54006C90.3106 5.59006 90.3906 5.76006 90.3306 5.91006C90.3006 5.99006 87.6706 13.3501 87.6306 18.5801C87.6406 18.7401 87.5106 18.8601 87.3506 18.8601Z" fill="#86BCFC"/>
<path d="M88.8799 19.0699C88.8699 19.0699 88.8698 19.0699 88.8698 19.0699C88.7098 19.0599 88.5898 18.9299 88.5898 18.7699C88.5998 18.6099 88.7799 14.7399 91.2999 11.2899C91.3899 11.1599 91.5698 11.1299 91.6998 11.2299C91.8298 11.3199 91.8598 11.4999 91.7598 11.6299C89.3498 14.9399 89.1599 18.7599 89.1599 18.7899C89.1599 18.9499 89.0299 19.0699 88.8799 19.0699Z" fill="#86BCFC"/>
<path d="M92.6488 49.6399C92.5188 49.6399 92.4088 49.5499 92.3688 49.4299C92.3288 49.2699 92.4188 49.1199 92.5788 49.0799C97.7488 47.7399 103.079 48.5899 103.129 48.5999C103.289 48.6199 103.389 48.7699 103.369 48.9299C103.349 49.0899 103.189 49.1999 103.039 49.1699C102.989 49.1599 97.7688 48.3299 92.7288 49.6399C92.6988 49.6399 92.6788 49.6399 92.6488 49.6399Z" fill="#86BCFC"/>
<path d="M103.159 55.7398C103.109 55.7398 103.059 55.7298 103.019 55.6998C102.969 55.6698 98.3991 53.0198 93.2191 52.4298C93.0591 52.4098 92.9491 52.2698 92.9691 52.1098C92.9891 51.9498 93.1291 51.8298 93.2891 51.8598C98.5891 52.4698 103.259 55.1798 103.309 55.2098C103.449 55.2898 103.489 55.4598 103.409 55.5998C103.349 55.6898 103.259 55.7398 103.159 55.7398Z" fill="#86BCFC"/>
<path d="M104.239 52.8C104.189 52.8 104.139 52.79 104.099 52.76C100.209 50.45 92.9488 51.16 92.8788 51.17C92.7188 51.18 92.5788 51.07 92.5588 50.92C92.5388 50.76 92.6588 50.62 92.8088 50.6C93.1188 50.57 100.329 49.85 104.379 52.27C104.519 52.35 104.559 52.53 104.479 52.66C104.429 52.75 104.329 52.8 104.239 52.8Z" fill="#86BCFC"/>
<path d="M124.64 36.02C111.99 48.38 89.6004 45.81 88.0904 41.81C85.8504 35.87 91.4304 23.04 98.8004 13.52C105.51 15.84 112.13 20.18 117.91 26.9C119.78 29.07 121.82 31.8 123.96 35C124.19 35.34 124.42 35.68 124.64 36.02Z" fill="#0C6ED6"/>
<path d="M98.7503 44.75C104.51 44.75 109.18 42.35 109.18 39.39C109.18 36.43 104.51 34.03 98.7503 34.03C92.9903 34.03 88.3203 36.43 88.3203 39.39C88.3203 42.35 92.9903 44.75 98.7503 44.75Z" fill="#3F8CFF"/>
<path d="M98.1502 43.9299C102.98 43.9299 106.89 41.9199 106.89 39.4299C106.89 36.9499 102.97 34.9299 98.1502 34.9299C93.3202 34.9299 89.4102 36.9399 89.4102 39.4299C89.4002 41.9099 93.3202 43.9299 98.1502 43.9299Z" fill="#B0E881"/>
<path d="M94.6991 43.01C96.3091 43.01 97.6091 41.32 97.6091 39.24C97.6091 37.16 96.2991 35.47 94.6991 35.47C93.0991 35.47 91.7891 37.16 91.7891 39.24C91.7891 41.32 93.0891 43.01 94.6991 43.01Z" fill="#183B59"/>
<path d="M69.7106 44.31C75.0006 44.31 79.2806 42.11 79.2806 39.39C79.2806 36.67 75.0006 34.47 69.7106 34.47C64.4206 34.47 60.1406 36.67 60.1406 39.39C60.1406 42.11 64.4306 44.31 69.7106 44.31Z" fill="#0C6ED6"/>
<path d="M70.27 43.5601C74.7 43.5601 78.29 41.71 78.29 39.43C78.29 37.15 74.7 35.3 70.27 35.3C65.84 35.3 62.25 37.15 62.25 39.43C62.25 41.71 65.84 43.5601 70.27 43.5601Z" fill="#B0E881"/>
<path d="M67.2794 42.71C68.7594 42.71 69.9494 41.16 69.9494 39.25C69.9494 37.34 68.7494 35.79 67.2794 35.79C65.8094 35.79 64.6094 37.34 64.6094 39.25C64.6094 41.16 65.7994 42.71 67.2794 42.71Z" fill="#183B59"/>
<path d="M96.4898 25.6199C99.9298 25.6199 102.72 24.5699 102.72 23.2799C102.72 21.9899 99.9298 20.9399 96.4898 20.9399C93.0498 20.9399 90.2598 21.9899 90.2598 23.2799C90.2598 24.5699 93.0498 25.6199 96.4898 25.6199Z" fill="#86BCFC"/>
<path d="M70.5405 32.5098C73.9805 32.5098 76.7706 31.4598 76.7706 30.1698C76.7706 28.8798 73.9805 27.8298 70.5405 27.8298C67.1005 27.8298 64.3105 28.8798 64.3105 30.1698C64.3205 31.4598 67.1105 32.5098 70.5405 32.5098Z" fill="#86BCFC"/>
<path d="M70.8405 214.75C73.6605 219.58 78.4805 222.42 86.3805 223.19C102.85 224.79 114.82 225.24 123.85 224.62C128.8 211.43 127.17 189.91 127.17 163.7C127.17 120.24 102.9 72.1599 85.0005 72.1599C67.1105 72.1599 76.0905 120.85 70.9405 177.42C69.4605 193.79 69.5605 205.86 70.8405 214.75Z" fill="#86BCFC"/>
<path d="M99.2788 225.37C99.5288 221.69 94.3688 218.34 87.7588 217.9C81.1488 217.45 75.5888 220.08 75.3388 223.76C75.0888 227.44 80.2488 230.79 86.8588 231.23C93.4788 231.68 99.0388 229.05 99.2788 225.37Z" fill="#86BCFC"/>
<path d="M99.7397 223.8C99.9897 220.12 94.8297 216.77 88.2197 216.33C81.6097 215.88 76.0497 218.51 75.7997 222.19C75.5497 225.87 80.7097 229.22 87.3197 229.67C93.9297 230.1 99.4897 227.48 99.7397 223.8Z" fill="#0C6ED6"/>
<path d="M82.099 230.32C82.219 230.09 82.349 229.88 82.469 229.66C82.629 229.39 82.799 229.13 82.969 228.87C83.179 228.56 83.389 228.26 83.609 227.98C83.809 227.7 84.039 227.47 84.249 227.2C84.489 226.97 84.709 226.7 84.969 226.48C85.449 225.99 86.019 225.59 86.589 225.09C85.849 225.15 85.089 225.36 84.439 225.76C83.759 226.13 83.179 226.67 82.709 227.27C82.399 227.66 82.139 228.09 81.939 228.54C81.819 228.79 81.729 229.04 81.649 229.3C81.569 229.56 81.509 229.83 81.459 230.1L82.099 230.32Z" fill="#183B59"/>
<path d="M78.1493 228.42C78.2493 228.22 78.3593 228.03 78.4693 227.84C78.6293 227.58 78.7893 227.33 78.9493 227.08C79.1593 226.76 79.3793 226.46 79.6093 226.16C79.8093 225.88 80.0393 225.65 80.2493 225.38C80.4893 225.15 80.7093 224.88 80.9693 224.66C81.4493 224.17 82.0193 223.77 82.5893 223.27C81.8493 223.33 81.0893 223.54 80.4393 223.94C79.7593 224.31 79.1793 224.85 78.7093 225.45C78.4693 225.76 78.2493 226.09 78.0793 226.44C77.9093 226.77 77.7593 227.13 77.6493 227.48C77.5993 227.63 77.5593 227.79 77.5293 227.94L78.1493 228.42Z" fill="#183B59"/>
<path d="M75.5389 225.25C75.5389 225.24 75.5489 225.24 75.5489 225.24C75.7589 224.89 75.9789 224.54 76.2189 224.21C76.3689 223.98 76.5289 223.77 76.6989 223.55C76.8989 223.27 77.1289 223.04 77.3389 222.78C77.5789 222.54 77.7989 222.28 78.0589 222.06C78.5389 221.57 79.1089 221.17 79.6789 220.67C78.9389 220.72 78.1789 220.94 77.5289 221.34C76.8589 221.7 76.2789 222.23 75.8189 222.83C75.8089 222.84 75.8089 222.85 75.7989 222.85C75.6489 223.05 75.5089 223.25 75.3789 223.46L75.5389 225.25Z" fill="#183B59"/>
<path d="M93.5889 246.95C100.199 246.5 105.359 243.16 105.109 239.47C104.859 235.79 99.2989 233.16 92.6889 233.61C86.0789 234.06 80.9189 237.4 81.1689 241.09C81.4189 244.77 86.9789 247.4 93.5889 246.95Z" fill="#86BCFC"/>
<path d="M93.1396 245.37C99.7496 244.92 104.91 241.58 104.66 237.89C104.41 234.21 98.8497 231.58 92.2397 232.03C85.6297 232.48 80.4697 235.82 80.7197 239.51C80.9697 243.2 86.5296 245.82 93.1396 245.37Z" fill="#0C6ED6"/>
<path d="M98.3494 246.1C98.2294 245.87 98.0994 245.66 97.9794 245.44C97.8194 245.17 97.6494 244.91 97.4794 244.65C97.2694 244.34 97.0594 244.04 96.8394 243.76C96.6394 243.48 96.4094 243.25 96.1994 242.98C95.9594 242.75 95.7394 242.48 95.4794 242.26C94.9994 241.77 94.4294 241.37 93.8594 240.87C94.5994 240.93 95.3594 241.14 96.0094 241.54C96.6894 241.91 97.2694 242.45 97.7394 243.05C98.0494 243.44 98.3094 243.87 98.5094 244.32C98.6294 244.57 98.7194 244.82 98.7994 245.08C98.8794 245.34 98.9394 245.61 98.9894 245.88L98.3494 246.1Z" fill="#183B59"/>
<path d="M102.309 244.2C102.209 244 102.099 243.81 101.989 243.62C101.829 243.36 101.669 243.11 101.509 242.86C101.299 242.54 101.079 242.24 100.849 241.94C100.649 241.66 100.419 241.43 100.209 241.16C99.9692 240.93 99.7492 240.66 99.4892 240.44C99.0092 239.95 98.4391 239.55 97.8691 239.05C98.6091 239.11 99.3691 239.32 100.019 239.72C100.699 240.09 101.279 240.63 101.749 241.23C101.989 241.54 102.209 241.87 102.379 242.22C102.549 242.55 102.699 242.91 102.809 243.26C102.859 243.41 102.899 243.57 102.929 243.72L102.309 244.2Z" fill="#183B59"/>
<path d="M104.91 241.03C104.91 241.02 104.9 241.02 104.9 241.02C104.69 240.67 104.47 240.32 104.23 239.99C104.08 239.76 103.92 239.55 103.75 239.33C103.55 239.05 103.32 238.82 103.11 238.56C102.87 238.32 102.65 238.06 102.39 237.84C101.91 237.35 101.34 236.95 100.77 236.45C101.51 236.5 102.27 236.72 102.92 237.12C103.59 237.48 104.17 238.01 104.63 238.61C104.64 238.62 104.64 238.63 104.65 238.63C104.8 238.83 104.94 239.03 105.07 239.24L104.91 241.03Z" fill="#183B59"/>
<path d="M44.7996 222.14C51.3896 221.41 56.3996 217.85 55.9996 214.18C55.5996 210.51 49.9296 208.12 43.3396 208.85C36.7496 209.58 31.7396 213.14 32.1396 216.81C32.5496 220.48 38.2196 222.87 44.7996 222.14Z" fill="#86BCFC"/>
<path d="M44.9695 220.51C51.5595 219.78 56.5695 216.22 56.1695 212.55C55.7695 208.88 50.0995 206.49 43.5095 207.22C36.9195 207.95 31.9095 211.51 32.3095 215.18C32.7195 218.85 38.3795 221.24 44.9695 220.51Z" fill="#0C6ED6"/>
<path d="M39.2897 222C39.2797 221.73 39.2997 221.45 39.3397 221.18C39.3697 220.91 39.4197 220.64 39.4897 220.38C39.6097 219.9 39.7997 219.43 40.0297 218.99C40.3797 218.31 40.8697 217.68 41.4697 217.19C42.0397 216.68 42.7497 216.34 43.4697 216.15C42.9897 216.74 42.5097 217.24 42.1097 217.81C41.8997 218.08 41.7297 218.38 41.5297 218.65C41.3697 218.95 41.1797 219.22 41.0397 219.53C40.8697 219.85 40.7197 220.19 40.5697 220.52C40.4497 220.8 40.3297 221.09 40.2097 221.38C40.1297 221.62 40.0397 221.85 39.9597 222.1L39.2897 222Z" fill="#183B59"/>
<path d="M35.0391 220.57C35.0491 220.41 35.0591 220.26 35.0691 220.1C35.1091 219.73 35.1991 219.36 35.3091 219C35.4291 218.62 35.5791 218.26 35.7591 217.91C36.1091 217.23 36.5991 216.6 37.1991 216.11C37.7691 215.6 38.4791 215.26 39.1991 215.07C38.7191 215.66 38.2391 216.16 37.8391 216.73C37.6291 217 37.4591 217.3 37.2591 217.57C37.0991 217.87 36.9091 218.14 36.7691 218.45C36.5991 218.78 36.4291 219.13 36.2891 219.48C36.1691 219.75 36.0491 220.03 35.9491 220.31C35.8691 220.52 35.8091 220.73 35.7391 220.93L35.0391 220.57Z" fill="#183B59"/>
<path d="M32.1289 216.54C32.2189 216.31 32.3189 216.08 32.4389 215.86C32.4489 215.85 32.4489 215.84 32.4489 215.84C32.7989 215.16 33.2789 214.54 33.8789 214.07C34.4489 213.56 35.1589 213.22 35.8789 213.03C35.3989 213.62 34.9189 214.12 34.5189 214.69C34.3089 214.96 34.1389 215.25 33.9389 215.53C33.7789 215.82 33.5889 216.1 33.4389 216.4C33.3089 216.64 33.1889 216.88 33.0889 217.13C32.9189 217.49 32.7589 217.87 32.6189 218.26C32.6189 218.27 32.6089 218.27 32.6089 218.27L32.1289 216.54Z" fill="#183B59"/>
<path d="M89.2893 72.8C95.0893 69.59 98.3293 64.36 96.5393 61.14C94.7493 57.91 88.5993 57.9 82.7993 61.11C76.9993 64.32 73.7593 69.55 75.5493 72.77C77.3393 76 83.4893 76.01 89.2893 72.8Z" fill="#86BCFC"/>
<path d="M88.2092 71.56C94.0092 68.35 97.2492 63.12 95.4592 59.9C93.6692 56.67 87.5192 56.66 81.7192 59.87C75.9192 63.08 72.6792 68.31 74.4692 71.53C76.2592 74.76 82.4092 74.78 88.2092 71.56Z" fill="#0C6ED6"/>
<path d="M93.2097 69.9899C92.9997 69.8399 92.7997 69.6999 92.5897 69.5499C92.3297 69.3799 92.0597 69.2099 91.8097 69.0499C91.4897 68.8599 91.1797 68.6799 90.8497 68.5099C90.5597 68.3399 90.2397 68.2299 89.9397 68.0799C89.6297 67.9699 89.3197 67.8299 88.9897 67.7299C88.3397 67.4899 87.6597 67.3699 86.9297 67.1599C87.6297 66.8899 88.4097 66.7699 89.1597 66.8499C89.9297 66.8999 90.6897 67.1299 91.3697 67.4799C91.8097 67.7099 92.2297 67.9799 92.6097 68.2999C92.8197 68.4799 93.0097 68.6599 93.1997 68.8699C93.3797 69.0699 93.5497 69.2899 93.7097 69.5099L93.2097 69.9899Z" fill="#183B59"/>
<path d="M95.9795 66.59C95.7995 66.46 95.6195 66.33 95.4395 66.2C95.1895 66.03 94.9395 65.87 94.6795 65.72C94.3595 65.52 94.0295 65.33 93.6895 65.17C93.3995 65 93.0795 64.89 92.7795 64.74C92.4695 64.63 92.1595 64.49 91.8295 64.39C91.1795 64.15 90.4995 64.03 89.7695 63.82C90.4695 63.55 91.2495 63.43 91.9995 63.51C92.7695 63.56 93.5295 63.79 94.2095 64.14C94.5595 64.32 94.8895 64.53 95.1995 64.76C95.4995 64.99 95.7795 65.24 96.0295 65.52C96.1295 65.64 96.2395 65.76 96.3295 65.88L95.9795 66.59Z" fill="#183B59"/>
<path d="M96.9906 62.6199C96.9906 62.6099 96.9805 62.6199 96.9805 62.6099C96.6305 62.3799 96.2906 62.1699 95.9406 61.9599C95.7106 61.8199 95.4705 61.6899 95.2305 61.5699C94.9405 61.3999 94.6206 61.2899 94.3206 61.1399C94.0006 61.0199 93.7005 60.8899 93.3705 60.7899C92.7205 60.5499 92.0405 60.4299 91.3105 60.2199C92.0105 59.9499 92.7805 59.8199 93.5405 59.9099C94.3005 59.9599 95.0505 60.1799 95.7305 60.5299C95.7405 60.5299 95.7505 60.5399 95.7505 60.5399C95.9705 60.6599 96.1905 60.7799 96.3905 60.9199L96.9906 62.6199Z" fill="#183B59"/>
<path d="M160.049 117.4C137.479 113.27 126.719 90.1899 141.739 67.6099C142.459 69.1699 143.179 70.7699 143.889 72.3799C146.259 77.7399 148.569 83.3499 150.759 89.1199C154.229 98.2499 157.419 107.8 160.049 117.4Z" fill="#0C6ED6"/>
<path d="M112.151 141.08C111.231 141.08 110.331 141 109.441 140.84C105.061 140.03 86.6405 133.58 76.4705 116.82C68.7605 104.11 67.5405 88.87 72.8505 71.53C73.8505 68.27 77.3005 66.44 80.5605 67.44C83.8205 68.44 85.6505 71.89 84.6505 75.15C80.4105 88.99 81.2105 100.85 87.0205 110.43C94.7705 123.2 109.171 128.25 111.681 128.72C113.611 129.08 118.791 127.05 121.421 122.05C124.761 115.71 122.081 107.71 113.891 99.51C111.481 97.1 111.481 93.2 113.891 90.78C116.301 88.37 120.211 88.37 122.621 90.78C139.891 108.05 135.171 122.42 132.351 127.79C128.201 135.67 119.751 141.08 112.151 141.08Z" fill="#0C6ED6"/>
<path d="M108.51 37.8701C108.51 38.9701 104.29 39.8601 99.0798 39.8601C93.8698 39.8601 89.0098 39.4201 89.0098 38.3201C89.0098 37.2201 93.5398 34.0301 98.7398 34.0301C103.95 34.0201 108.51 36.7601 108.51 37.8701Z" fill="#3F8CFF"/>
<path d="M78.8791 38.5099C78.8791 39.6099 74.9091 40.5 70.0091 40.5C65.1091 40.5 60.5391 40.0599 60.5391 38.9599C60.5391 37.86 64.7891 34.6699 69.6891 34.6699C74.5891 34.6599 78.8791 37.3999 78.8791 38.5099Z" fill="#0C6ED6"/>
<path d="M97.4297 227.13C96.0197 227.13 94.6097 226.7 93.3797 225.82C90.2697 223.58 89.5597 219.24 91.7997 216.13C99.6097 205.29 99.6797 185.49 99.7297 169.57C99.7897 152.99 99.8297 141 107.22 135.62C109.55 133.92 113.56 132.28 119.38 134.13C129.04 137.19 138.77 148.46 144.78 163.53C151.71 180.9 152.57 200.74 147.2 219.39C146.14 223.07 142.29 225.2 138.61 224.14C134.93 223.08 132.8 219.23 133.86 215.55C138.39 199.84 137.69 183.2 131.89 168.68C126.54 155.27 118.99 148.6 115.2 147.38C113.68 150.94 113.64 162.07 113.61 169.63C113.55 187.53 113.47 209.8 103.06 224.26C101.71 226.13 99.5797 227.13 97.4297 227.13Z" fill="#0C6ED6"/>
</svg>
