<svg width="204" height="204" viewBox="0 0 204 204" fill="none" xmlns="http://www.w3.org/2000/svg">
<g clip-path="url(#clip0_3409_126528)">
<g clip-path="url(#clip1_3409_126528)">
<g clip-path="url(#clip2_3409_126528)">
<path d="M94.6891 231.878C166.64 231.878 224.968 173.55 224.968 101.599C224.968 29.6482 166.64 -28.6797 94.6891 -28.6797C22.738 -28.6797 -35.5898 29.6482 -35.5898 101.599C-35.5898 173.55 22.738 231.878 94.6891 231.878Z" fill="#B0E881"/>
<g opacity="0.2">
<path d="M83.3056 71.541H-16.5156V193.905H83.3056V71.541Z" fill="#161A0E"/>
</g>
<path d="M81.838 69.6738H-15.2266V191.638H81.838V69.6738Z" fill="#156C84"/>
<path d="M78.8183 82.4355H-13.7109V183.457H78.8183V82.4355Z" fill="#F2F2F2"/>
<g opacity="0.8">
<path d="M78.0607 83.9922H-12.7344V181.724H78.0607V83.9922Z" fill="#A9DDF3"/>
<path d="M50.8926 104.757C55.2883 104.757 58.8516 100.457 58.8516 95.153C58.8516 89.8488 55.2883 85.5488 50.8926 85.5488C46.497 85.5488 42.9336 89.8488 42.9336 95.153C42.9336 100.457 46.497 104.757 50.8926 104.757Z" fill="#8EDF73"/>
<path d="M5.8081 159.315C9.72092 153.312 16.2571 150.111 16.2571 150.111C16.2571 150.111 21.1481 149.577 25.9947 154.157C30.8412 158.737 32.3975 159.448 33.9092 164.072C35.421 168.697 37.6442 171.72 36.5326 174.788C35.421 177.856 34.5762 175.5 33.3312 177.278C32.0862 179.057 34.3094 181.591 34.3094 181.591L-13.5781 181.725C-13.5781 181.725 -12.3331 171.72 -8.55371 172.654C-4.77429 173.588 2.16207 165.984 2.16207 165.984L5.8081 159.315Z" fill="#DACEDF"/>
<path d="M30.3056 82.6133C30.3056 82.6133 29.194 100.31 33.9072 99.3317C38.6203 98.3535 39.7764 94.0405 39.065 90.1277C38.3535 86.2148 43.2446 94.4407 45.0676 91.1059C46.8906 87.7711 50.092 86.5261 54.405 87.5043C58.718 88.4825 68.3222 83.5915 68.3222 83.5915L30.3056 82.6133Z" fill="#C5B797"/>
<path d="M43.8231 168.517C43.5563 173.675 40.8885 174.653 46.7577 174.386C52.6269 174.12 56.7621 171.185 55.5171 173.808C54.2721 176.432 53.1605 175.365 50.2259 177.855C47.2913 180.345 44.5345 180.789 49.3811 180.923C54.2276 181.056 52.3157 181.767 52.3157 181.767L76.8152 181.501C76.8152 181.501 78.6382 178.166 76.8152 178.299C74.9922 178.433 74.3253 176.921 71.7908 178.299C69.2564 179.678 65.7882 177.454 65.7882 177.454C65.7882 177.454 59.6522 177.454 58.4072 177.054C57.1622 176.654 55.2058 173.586 58.007 173.853C60.8083 174.12 63.0314 172.741 63.565 171.763C64.0986 170.785 63.565 167.85 66.4996 169.406C69.4342 170.963 70.2791 168.562 72.191 167.05C74.1029 165.538 73.7028 168.028 75.3924 167.183C77.082 166.338 77.082 164.115 77.082 164.115L76.8152 150.465L59.4299 150.998L51.9155 160.202L43.8231 168.517Z" fill="#B69DBE"/>
<path d="M55.5177 97.776C53.0277 92.885 51.4715 92.885 53.5613 91.2398C55.6511 89.5947 50.3599 86.6601 54.4061 86.7935C58.4523 86.9268 60.2308 86.9269 61.7871 85.9486C63.3433 84.9704 65.3887 82.4805 65.3887 82.4805L74.5927 84.3035L71.2579 92.218L65.6999 96.9312L59.4305 98.3096L55.5177 97.776Z" fill="#FCEE21"/>
<path d="M76.6811 98.354C69.8781 98.0872 64.0089 98.7542 60.6741 108.936C57.3393 119.119 54.5381 126.455 59.6959 127.433C64.8537 128.412 71.3899 123.965 73.3463 123.654C74.5023 123.476 75.7029 123.521 76.8145 123.787L78.0595 99.2877L76.6811 98.354Z" fill="#585AA8"/>
<path d="M-12.7355 108.092C-9.53409 106.002 -10.9125 104.49 -10.9125 104.49C-10.9125 104.49 -12.6021 99.7773 -10.201 101.289C-8.91159 102.089 -7.71107 103.023 -6.59947 104.046C-6.59947 104.046 -5.0877 100.133 -4.64307 99.7328C-4.19843 99.3327 -5.04324 97.3763 -4.24289 95.0197C-3.44254 92.6631 -6.1993 91.5515 -5.0877 90.8401C-3.97611 90.1287 -1.88631 87.3719 -1.88631 87.3719L-0.641323 84.0371L3.67167 84.5707L5.49468 87.194L9.4075 87.5942L10.2523 84.3928L25.0143 84.5262L27.8155 90.0842L27.9489 96.487L24.7475 107.781L8.29591 115.028L-7.1775 119.208L-11.6239 120.053L-13.9805 117.83L-12.7355 108.092Z" fill="#998675"/>
<path d="M55.5178 97.7761C57.7409 96.3977 54.8063 94.8415 58.7191 94.8415C62.632 94.8415 64.1437 95.6863 64.8552 92.7517C65.5666 89.8171 67.7898 89.6837 67.7898 89.6837C67.7898 89.6837 65.5666 86.3489 69.1681 85.2373C72.7697 84.1257 76.9493 84.6593 76.9493 84.6593C76.9493 84.6593 79.3059 101.644 77.0827 101.778C74.8595 101.911 73.6145 97.9984 74.1481 103.156C74.6817 108.314 76.5047 108.314 72.9031 109.292C69.3015 110.27 73.4811 111.649 67.0783 111.916C60.6756 112.182 55.5178 108.447 55.5178 108.447L53.8281 102.445L55.5178 97.7761Z" fill="#CE838C"/>
<path d="M-13.2669 116.585C-10.6435 116.718 -10.7769 118.097 -8.8205 116.585C-6.86409 115.073 -7.13087 113.117 -5.21893 114.895C-3.26252 116.718 -3.12913 113.205 -0.772545 113.917C1.58404 114.628 4.65204 120.008 4.65204 120.008C4.65204 120.008 11.4995 115.695 4.78543 130.324C-1.9286 144.953 -5.35232 146.642 -5.35232 146.642L-13.5781 148.599L-13.2669 116.585Z" fill="#8CC63F"/>
<path d="M-1.57744 123.832C-0.599238 130.101 1.09039 135.393 -0.332455 137.349C-1.7553 139.305 -2.15547 138.905 -4.51205 143.04C-6.86864 147.176 -6.86864 146.242 -3.26707 149.31C0.334502 152.378 -2.15547 153.356 1.17931 153.89C4.5141 154.423 5.75909 151.533 5.6257 154.423C5.49231 157.313 2.82448 157.224 5.75909 159.314C8.6937 161.404 5.75909 161.404 10.0721 158.469C14.3851 155.535 11.8951 153.578 16.4749 154.69C21.0546 155.802 20.3877 159.136 23.9893 156.513C27.5908 153.89 30.392 147.887 27.4574 143.707C24.5228 139.528 20.5655 134.681 16.7861 132.325C13.0067 129.968 4.95874 123.832 4.95874 123.832H-1.57744Z" fill="#C69C6D"/>
<path d="M31.5489 83.459C32.0825 87.2384 36.1287 87.9054 34.4835 90.5732C32.8384 93.241 27.3693 96.5758 27.3693 96.5758L23.7677 89.595L22.0781 84.8818L23.5899 83.7702L31.5489 83.459Z" fill="#FBB03B"/>
<path d="M-4.77727 94.0395C-4.77727 96.8407 -4.77727 99.7309 -1.97605 101.154C0.825169 102.577 3.44853 107.69 1.8923 109.335C0.336067 110.98 0.380531 109.602 -0.597673 112.67C-1.57588 115.738 -1.13124 117.961 -3.08765 120.318C-5.04405 122.674 -9.35705 119.606 -5.44423 123.786C-1.53141 127.965 -3.48782 124.764 0.95856 129.344C5.40494 133.924 2.91497 137.836 6.11636 139.215C9.31776 140.593 9.89579 140.326 10.6961 144.373C11.4965 148.419 12.7859 149.264 16.8321 148.686C20.8784 148.107 23.3683 147.307 24.3465 148.686C25.3247 150.064 20.4337 149.397 23.9464 153.577C27.459 157.756 22.2567 153.843 25.3247 158.29C28.3927 162.736 31.0161 163.448 30.6159 166.916C30.2158 170.384 31.9943 168.605 34.7955 172.073C37.5967 175.542 34.3954 172.34 39.9533 170.695C45.5113 169.05 41.643 170.829 46.9341 169.85C52.2253 168.872 55.4267 166.649 57.2498 164.292C59.0728 161.936 60.3178 167.36 61.4294 163.047C62.5409 158.734 60.051 160.246 61.296 156.645C62.541 153.043 60.4511 156.778 64.7641 155.8C69.0771 154.822 65.8757 155.4 70.9001 154.822C75.9246 154.244 78.2811 156.511 75.0798 150.242C71.8784 143.972 70.9001 143.706 73.1233 142.594C75.3465 141.482 76.1913 148.019 75.6133 139.926C75.0353 131.834 77.8365 130.722 74.7685 129.922C71.7005 129.121 74.3683 126.987 72.4119 125.475C70.4555 123.964 64.0527 124.631 65.7423 122.274C67.432 119.917 71.1669 122.674 70.4555 118.495C69.7441 114.315 68.4991 115.293 68.0989 111.958C67.6988 108.624 72.2785 105.689 67.6988 106.667C63.119 107.645 60.7179 109.335 58.9394 104.711C57.1608 100.087 63.9638 100.665 56.7162 97.1964C49.4686 93.7282 50.18 97.063 48.0902 94.1284C46.0004 91.1938 46.9786 89.4153 43.3326 88.8372C39.6865 88.2592 38.7528 85.7692 37.908 88.9706C37.0632 92.172 41.3762 92.0386 38.6194 94.7954C35.8627 97.5521 35.1512 99.9532 34.7066 96.0404C34.262 92.1275 35.6848 88.526 31.772 91.016C27.8592 93.5059 27.5924 94.2174 26.3474 96.8407C25.1024 99.4641 19.2332 101.865 17.4546 98.7971C15.6761 95.7291 17.1879 93.2391 12.1634 93.2391C7.13903 93.2391 3.80424 91.7274 0.469458 91.8608C-2.86533 91.9942 -4.77727 91.6829 -4.77727 94.0395Z" fill="#86BCFC"/>
<path d="M36.0423 174.386C35.6421 174.386 35.4198 174.075 34.8418 173.364C34.6639 173.141 34.486 172.875 34.2193 172.563C33.1077 171.185 32.2184 170.74 31.507 170.34C30.3509 169.718 29.6395 169.229 29.9063 166.916C30.1286 164.96 29.2838 164.071 27.772 162.426C26.9272 161.492 25.8601 160.38 24.7485 158.735C23.7258 157.268 23.459 156.512 23.6813 155.934C23.8147 155.578 24.0815 155.4 24.3483 155.356C24.2149 155.134 23.9037 154.733 23.4146 154.111C22.303 152.777 21.8583 151.754 22.0362 150.865C22.214 149.976 22.9699 149.531 23.459 149.22C23.5479 149.175 23.6369 149.131 23.7258 149.086C23.1033 148.464 21.5026 148.731 19.235 149.086C18.5235 149.22 17.7677 149.353 16.9228 149.442C12.5209 150.065 10.9647 148.998 10.0754 144.596C9.40846 141.394 9.14167 141.261 6.91848 140.372C6.60723 140.238 6.25152 140.105 5.85135 139.927C4.02833 139.127 3.71709 137.57 3.40584 135.97C3.09459 134.28 2.69442 132.19 0.471226 129.923C-1.7075 127.655 -2.28553 127.388 -2.8191 127.121C-3.39713 126.81 -3.97516 126.499 -5.97603 124.365C-7.57672 122.675 -7.93244 122.052 -7.66565 121.43C-7.39887 120.852 -6.73191 120.808 -6.10942 120.808C-5.30907 120.808 -4.2864 120.763 -3.66391 120.007C-2.50785 118.584 -2.28553 117.295 -1.97428 115.605C-1.79643 114.716 -1.61857 113.693 -1.26286 112.582C-0.595905 110.536 -0.329122 110.225 0.382299 109.825C0.649082 109.692 0.915864 109.514 1.40497 108.98C1.67175 108.669 1.76068 108.135 1.62729 107.379C1.22711 105.29 -0.595905 102.666 -2.28553 101.821C-5.44246 100.221 -5.44246 96.9749 -5.44246 94.1292C-5.44246 91.5058 -3.44159 91.4614 -1.12947 91.4169C-0.684833 91.4169 -0.195731 91.4169 0.337835 91.3724C1.983 91.2835 3.67262 91.6392 5.40671 91.9505C7.31865 92.3062 9.45292 92.7508 12.0318 92.7508C15.7668 92.7508 16.3893 94.0847 16.9673 96.219C17.1452 96.9304 17.4119 97.7752 17.901 98.6201C18.4791 99.5983 19.5462 99.7761 20.3466 99.7316C22.3919 99.6427 24.8819 98.2199 25.5933 96.7081L25.6822 96.5747C26.8827 94.0403 27.2829 93.151 31.2847 90.6166C32.7075 89.6828 33.5968 89.4605 34.2637 89.8607C35.153 90.3498 35.153 91.5948 35.153 93.3289C35.153 94.1737 35.1085 95.1519 35.2419 96.1301C35.3309 96.7526 35.3753 97.1527 35.4198 97.3751C35.6421 97.1527 35.9534 96.797 36.1757 96.4858C36.6648 95.9078 37.2428 95.1963 37.9987 94.4849C39.0658 93.4178 38.8435 93.1955 38.1765 92.4396C37.5541 91.7726 36.6648 90.75 37.1094 88.9269C37.4207 87.7709 37.7319 87.1929 38.3099 86.9705C38.9769 86.6593 39.6883 86.9705 40.4887 87.3707C41.2001 87.7264 42.0894 88.1266 43.3343 88.3044C46.0911 88.7491 46.5802 89.9051 47.2472 91.4169C47.5584 92.1283 47.8697 92.9287 48.5366 93.8624C49.2925 94.9296 49.4259 94.9296 50.1818 94.9296C51.2044 94.8851 52.9385 94.7962 56.8958 96.7081C59.3858 97.9086 60.4085 98.709 60.6308 99.5983C60.8086 100.354 60.364 100.932 59.9638 101.466C59.3858 102.222 58.8078 102.978 59.4302 104.578C60.7197 107.824 62.0091 107.513 65.2105 106.668C65.8775 106.49 66.6334 106.312 67.4337 106.134C68.7676 105.868 69.6569 105.779 70.1016 106.401C70.5462 107.024 70.146 107.735 69.6569 108.624C69.1234 109.603 68.5009 110.803 68.6343 112.004C68.8121 113.471 69.1234 113.96 69.568 114.583C70.0571 115.338 70.6351 116.183 70.9908 118.495C71.1687 119.696 71.0798 120.496 70.6351 121.03C70.1016 121.741 69.2123 121.786 68.3675 121.875C67.4782 121.964 66.6334 122.008 66.1443 122.764C66.0109 122.986 65.9664 123.075 65.9664 123.075C66.1443 123.386 67.745 123.653 68.6787 123.831C70.1905 124.098 71.7467 124.365 72.6805 125.076C73.8365 125.965 73.7476 127.077 73.7031 127.877C73.6587 128.767 73.6142 129.122 74.8147 129.433C77.0824 130.056 76.9045 131.212 76.5488 132.991C76.282 134.413 75.8819 136.548 76.1486 140.06C76.4154 144.062 76.4154 144.596 75.7485 144.818C75.1704 145.04 74.8147 144.551 74.5479 144.151C73.9255 143.351 73.6142 143.128 73.303 143.306C73.1251 143.395 72.5471 143.706 72.4581 143.884C72.3692 144.195 72.9472 145.307 73.7031 146.685C74.1922 147.575 74.8147 148.686 75.5262 150.109C77.0379 153.044 77.3492 154.155 76.8601 154.956C76.371 155.712 75.3928 155.667 74.0588 155.623C73.1696 155.578 72.1024 155.534 70.8575 155.667C69.2568 155.845 68.5009 155.889 68.0562 155.934C67.5227 155.978 67.5227 155.978 66.9002 156.112C66.5 156.201 65.922 156.334 64.8104 156.601C63.432 156.912 62.5427 156.779 61.9647 156.512C61.9202 156.645 61.8758 156.823 61.7868 157.001C61.2533 158.513 61.4756 158.869 61.7424 159.358C62.187 160.202 62.5427 161.092 61.9647 163.359C61.609 164.693 61.2088 165.316 60.6308 165.538C59.9638 165.76 59.3858 165.316 58.9411 164.96C58.6744 164.738 58.3187 164.471 58.1408 164.515C58.0074 164.515 57.874 164.649 57.6962 164.871C56.1399 166.916 52.983 169.584 46.9804 170.696C44.5349 171.141 43.9124 171.052 43.3343 170.829C43.0676 170.74 42.8452 170.651 40.0885 171.496C37.5096 172.252 37.0649 173.364 36.8871 173.808C36.7982 174.031 36.6203 174.431 36.1757 174.475C36.1312 174.386 36.0867 174.386 36.0423 174.386ZM25.0153 156.512C25.1042 156.734 25.3265 157.179 25.8601 157.979C26.9272 159.491 27.9054 160.558 28.7502 161.492C30.3954 163.226 31.5514 164.515 31.2402 167.05C31.0623 168.606 31.2402 168.695 32.1295 169.14C32.8854 169.54 33.9969 170.118 35.2864 171.719C35.5532 172.03 35.7755 172.297 35.9089 172.519C35.9089 172.519 35.9089 172.563 35.9534 172.563C36.398 171.852 37.3317 170.829 39.7328 170.118C42.7563 169.229 43.201 169.273 43.779 169.451C44.0458 169.54 44.4459 169.673 46.7581 169.229C52.3605 168.206 55.2507 165.76 56.629 163.893C57.0292 163.359 57.4738 163.093 57.9629 163.004C58.7188 162.915 59.2969 163.359 59.7415 163.76C59.8749 163.893 60.0972 164.026 60.1861 164.071C60.2751 163.982 60.4529 163.671 60.6752 162.87C61.1643 160.914 60.8976 160.425 60.5863 159.847C60.1417 159.046 59.8749 158.29 60.5418 156.423C60.8086 155.667 60.8976 155.267 60.9865 155.045C61.0309 154.867 61.1643 154.378 61.6534 154.378C61.7868 154.378 62.187 154.422 62.3649 154.867C62.5872 155.489 63.8322 155.311 64.5436 155.178C65.6107 154.956 66.2332 154.778 66.6334 154.689C67.3448 154.511 67.3448 154.511 67.9673 154.467C68.4119 154.422 69.1678 154.378 70.7685 154.2C72.1024 154.066 73.2585 154.111 74.1478 154.111C74.8147 154.155 75.6151 154.155 75.7929 154.022C75.8374 153.844 75.6595 153.044 74.3701 150.554C73.6587 149.131 73.0362 148.064 72.5471 147.175C71.391 145.085 70.9019 144.195 71.1687 143.351C71.391 142.684 72.0135 142.328 72.6805 141.972C73.6587 141.483 74.4146 141.928 74.9481 142.461C74.9037 141.617 74.8592 140.549 74.8147 139.971C74.5479 136.281 74.9926 134.058 75.2594 132.546C75.5706 130.812 75.5706 130.812 74.459 130.545C72.2358 129.923 72.3248 128.544 72.3692 127.655C72.4137 126.899 72.4137 126.454 71.8357 126.01C71.1687 125.521 69.7459 125.254 68.4564 125.032C66.5889 124.72 65.1661 124.454 64.7214 123.475C64.5436 122.986 64.6325 122.453 65.0327 121.875C65.922 120.63 67.2559 120.541 68.2785 120.452C68.8566 120.407 69.3901 120.363 69.568 120.141C69.6569 120.007 69.8348 119.651 69.6569 118.629C69.3012 116.583 68.8566 115.916 68.4119 115.205C67.9673 114.538 67.4782 113.827 67.3003 112.048C67.078 110.403 67.8784 108.936 68.4564 107.869C68.5898 107.646 68.7232 107.335 68.8121 107.157C68.5898 107.157 68.2341 107.202 67.6561 107.335C66.8557 107.513 66.1887 107.691 65.4773 107.869C62.3204 108.713 59.8304 109.336 58.0963 104.978C57.2071 102.666 58.1853 101.421 58.8078 100.576C59.0301 100.265 59.2524 99.9984 59.2079 99.8206C59.1635 99.5983 58.6744 99.0202 56.1844 97.8197C52.4939 96.0411 50.9821 96.1301 50.0928 96.1301C48.9368 96.1745 48.4032 96.0412 47.2916 94.5294C46.5357 93.4622 46.18 92.573 45.8688 91.8171C45.2908 90.4387 45.024 89.8162 43.0231 89.505C41.6003 89.2826 40.5776 88.7935 39.8217 88.4378C39.466 88.26 38.9324 87.9932 38.799 88.0377C38.799 88.0377 38.5767 88.1711 38.3544 89.1493C38.0432 90.2609 38.5323 90.7944 39.1103 91.4169C39.9996 92.4396 40.6665 93.4622 38.888 95.2853C38.1765 95.9967 37.5985 96.6636 37.1539 97.2417C36.2201 98.3533 35.6866 98.9758 34.9307 98.7534C34.2193 98.5311 33.9969 97.6863 33.8636 96.1301C33.7302 95.0629 33.7746 94.0847 33.7746 93.1955C33.7746 92.3507 33.8191 91.1057 33.5968 90.8833C33.5968 90.8833 33.2411 90.7944 31.9961 91.5948C28.35 93.9513 28.0388 94.5294 26.8827 97.0194L26.7938 97.1527C25.8601 99.1092 22.9255 100.799 20.391 100.932C18.7459 100.977 17.4119 100.354 16.745 99.1536C16.167 98.1309 15.9002 97.1972 15.6779 96.3969C15.2332 94.6628 15.0109 93.9069 12.0318 93.9069C9.31953 93.9069 7.09634 93.4622 5.13993 93.1065C3.40584 92.7508 1.8496 92.484 0.382299 92.5285C-0.151267 92.573 -0.684833 92.573 -1.12947 92.573C-3.84176 92.6174 -4.15301 92.7508 -4.15301 93.9514C-4.15301 96.6636 -4.15301 99.2425 -1.75196 100.488C0.515691 101.644 2.4721 104.756 2.87227 106.979C3.09459 108.135 2.91674 109.114 2.33871 109.736C1.71621 110.403 1.31604 110.625 1.00479 110.803C0.693546 110.981 0.515691 111.07 -0.0178753 112.804C-0.329122 113.827 -0.506977 114.76 -0.684833 115.65C-0.996079 117.384 -1.26286 118.984 -2.64124 120.674C-3.66391 121.919 -5.17568 121.964 -6.10942 121.964C-6.15388 121.964 -6.15388 121.964 -6.19835 121.964C-6.02049 122.23 -5.66478 122.631 -5.04229 123.253C-3.21927 125.209 -2.73017 125.476 -2.24107 125.743C-1.61857 126.054 -0.951616 126.41 1.3605 128.811C3.85048 131.345 4.29512 133.791 4.65083 135.569C4.96207 137.259 5.18439 138.059 6.29599 138.549C6.69616 138.726 7.00741 138.86 7.31866 138.993C9.80863 140.016 10.4756 140.461 11.2759 144.195C12.0318 147.886 12.9211 148.508 16.6561 147.975C17.4564 147.841 18.2123 147.753 18.9237 147.619C21.8583 147.13 23.8147 146.819 24.8374 148.242C25.0597 148.553 25.1486 148.864 25.0597 149.175C24.9263 149.709 24.4817 149.976 24.0815 150.198C23.6369 150.465 23.3256 150.643 23.2812 150.91C23.2367 151.176 23.3256 151.754 24.3928 153.044C25.6377 154.511 25.949 155.178 25.7711 155.756C25.6377 156.334 25.2376 156.467 25.0153 156.512Z" fill="white"/>
<path d="M-13.1328 146.953C-8.55304 146.819 -6.73002 144.596 -4.50683 145.974C-2.28364 147.353 7.45394 150.287 7.32054 153.089C7.18715 155.89 4.65271 153.8 7.72072 160.203C10.7887 166.606 12.7451 164.649 14.2569 169.94C15.7687 175.232 22.3493 176.21 15.7687 177.588C9.18802 178.966 10.0773 177.455 6.43127 177.188C2.78523 176.921 3.09648 174.698 -0.238305 177.188C-3.57309 179.678 -6.5077 178.878 -7.75269 179.411C-8.99768 179.945 -13.0439 181.501 -13.0439 181.501L-13.1328 146.953Z" fill="#00A99D"/>
<path d="M34.9281 135.481C38.366 135.481 41.153 132.694 41.153 129.256C41.153 125.818 38.366 123.031 34.9281 123.031C31.4901 123.031 28.7031 125.818 28.7031 129.256C28.7031 132.694 31.4901 135.481 34.9281 135.481Z" fill="white"/>
<path d="M61.6551 178.834C63.4969 178.834 64.9899 177.341 64.9899 175.499C64.9899 173.657 63.4969 172.164 61.6551 172.164C59.8133 172.164 58.3203 173.657 58.3203 175.499C58.3203 177.341 59.8133 178.834 61.6551 178.834Z" fill="white"/>
<path d="M-0.41912 163.494C1.42263 163.494 2.91567 162.001 2.91567 160.159C2.91567 158.317 1.42263 156.824 -0.41912 156.824C-2.26087 156.824 -3.75391 158.317 -3.75391 160.159C-3.75391 162.001 -2.26087 163.494 -0.41912 163.494Z" fill="white"/>
<path d="M67.5211 100.978C69.2155 100.978 70.5891 99.6042 70.5891 97.9098C70.5891 96.2154 69.2155 94.8418 67.5211 94.8418C65.8267 94.8418 64.4531 96.2154 64.4531 97.9098C64.4531 99.6042 65.8267 100.978 67.5211 100.978Z" fill="white"/>
<path d="M46.6686 147.576C47.7801 149.355 48.8028 151.133 49.7366 153.001C50.6703 154.868 51.4706 156.78 52.1376 158.737C52.8046 160.649 53.3826 162.649 53.7828 164.65C54.2274 166.651 54.4497 168.652 54.4942 170.653C54.0495 168.696 53.4715 166.829 52.6712 164.962C51.9153 163.139 51.026 161.404 50.0033 159.715C48.9807 158.025 47.9135 156.424 46.713 154.913C45.5125 153.401 44.2675 151.934 42.9336 150.511L46.6686 147.576Z" fill="#F7931E"/>
<path d="M40.9766 143.219L41.3323 156.38L45.2006 149.844L52.5816 149.488L40.9766 143.219Z" fill="#F7931E"/>
<path d="M45.3359 114.361C46.6254 112.938 47.9593 111.604 49.3821 110.315C50.805 109.07 52.2723 107.869 53.8285 106.802C55.3848 105.735 56.9855 104.757 58.6751 103.912C60.3202 103.067 62.0543 102.356 63.8329 101.822C62.2322 102.667 60.676 103.69 59.2531 104.846C57.8303 105.957 56.4964 107.202 55.2514 108.492C54.0064 109.781 52.8503 111.16 51.7832 112.583C50.7161 114.005 49.7379 115.473 48.8486 116.984L45.3359 114.361Z" fill="#F7931E"/>
<path d="M42.8906 120.453L54.4512 116.896L47.6927 115.117L45.6029 108.67L42.8906 120.453Z" fill="#F7931E"/>
<path d="M5.62891 148.42C7.2296 147.042 8.87477 145.752 10.5644 144.507C12.254 143.307 14.0326 142.195 15.8556 141.217C17.6786 140.239 19.5461 139.394 21.5025 138.683C23.4144 137.971 25.3708 137.393 27.3717 137.082C25.5042 137.793 23.7257 138.727 21.9916 139.794C20.302 140.861 18.7013 142.018 17.145 143.263C15.6333 144.507 14.2104 145.841 12.832 147.264C11.4981 148.687 10.2531 150.154 9.05262 151.711L5.62891 148.42Z" fill="#ED1C24"/>
<path d="M2.16016 154.735L15.1881 152.378L8.07384 149.533L6.60654 142.285L2.16016 154.735Z" fill="#ED1C24"/>
</g>
<path d="M78.8183 72.7422H-13.7109V79.9009H78.8183V72.7422Z" fill="#F2F2F2"/>
<path d="M77.9727 173.453C77.9727 173.453 78.3284 176.032 78.8175 176.387C79.3066 176.743 81.841 175.809 81.9299 175.32C82.0189 174.831 81.7076 171.763 81.7076 171.763L79.2176 171.319L78.106 172.119L77.9727 173.453Z" fill="#EDBBAB"/>
<path d="M67.2109 165.539L70.6791 166.295L70.768 166.339L76.7707 170.208L86.2415 176.299C86.6416 176.566 86.775 177.055 86.5082 177.455L86.2415 177.9C86.0191 178.3 85.4856 178.434 85.0409 178.211L76.1482 172.475L69.6564 168.296L69.5231 168.207L67.2109 165.539Z" fill="#ED1E79"/>
<path d="M67.2109 165.539L68.4559 165.806L70.6791 166.295L70.768 166.339C70.2789 166.917 69.8788 167.584 69.6564 168.296L69.5231 168.207L68.0558 166.517L67.2109 165.539Z" fill="#C69C6D"/>
<path d="M67.2109 165.539L68.4559 165.806C68.3225 166.028 68.1891 166.295 68.0558 166.517L67.2109 165.539Z" fill="#4D4D4D"/>
<path d="M83.2613 179.633C82.0607 179.144 79.882 178.076 78.5926 176.698C77.6143 175.675 76.9474 174.341 76.7695 172.919C76.814 171.54 79.1261 174.786 81.1715 174.875C84.195 174.964 84.0171 176.342 83.9727 177.587C84.0171 178.343 83.7504 179.055 83.2613 179.633Z" fill="#FFD9CC"/>
<path d="M86.9536 177.409C86.9536 177.409 84.9083 171.851 83.9745 171.362C83.0408 170.873 76.2823 168.339 76.1044 168.694C75.7487 169.361 76.7269 170.651 78.2387 171.273C79.128 171.673 80.1951 171.718 80.5508 172.607C80.951 173.719 80.284 175.186 80.8176 176.564C81.9736 179.499 86.0643 181.1 86.0643 181.1L86.9536 177.409Z" fill="#FFD9CC"/>
<path d="M114.208 168.961C114.163 169.45 112.83 180.7 105.093 186.08C103.047 187.502 100.646 188.258 98.1565 188.258C93.8879 188.258 89.7083 186.213 86.6848 183.99C85.9289 183.456 85.2175 182.834 84.5061 182.211C83.0388 180.833 82.9498 178.521 84.3282 177.053C85.7066 175.586 88.0187 175.497 89.486 176.876C90.4642 177.72 91.5758 178.521 92.6874 179.188C95.0884 180.611 98.4232 181.856 100.913 180.121C105.938 176.609 106.96 168.25 106.96 168.161C107.272 166.16 109.095 164.781 111.095 165.093C113.007 165.359 114.341 167.049 114.208 168.961Z" fill="#1379BF"/>
<path d="M92.7304 179.189C89.8847 180.034 87.617 182.791 86.7278 183.991C85.9719 183.458 85.2604 182.835 84.549 182.213C83.0817 180.834 82.9928 178.522 84.3712 177.055C85.7496 175.588 88.0617 175.499 89.529 176.877C90.5072 177.766 91.5743 178.522 92.7304 179.189Z" fill="#0E5B8F"/>
<path d="M89.6629 174.387C88.0622 173.098 84.5496 176.255 82.86 178.522C81.9707 179.723 81.1259 181.057 83.1712 181.857C84.2828 182.302 85.0387 183.769 85.7946 183.947C86.4171 184.08 86.9506 182.213 88.4624 180.701C89.7963 179.323 92.5086 178.834 92.5086 178.256C92.5086 176.788 91.397 176.833 90.8634 176.255C90.0186 175.321 90.73 175.232 89.6629 174.387Z" fill="#1379BF"/>
<path d="M116.832 156.379H122.434V162.114C122.434 163.582 121.234 164.782 119.767 164.782H119.544C118.077 164.782 116.876 163.582 116.876 162.114L116.832 156.379Z" fill="#EDBBAB"/>
<path d="M142.219 214.76L137.239 215.16H137.061L118.698 216.983L117.542 211.381L116.163 216.672L100.734 214.938L109.805 165.939C109.894 165.361 110.294 164.871 110.828 164.605L110.961 164.56L115.985 162.737L117.142 162.648L119.898 162.47L123.455 162.248L129.903 163.76L130.258 163.849C131.459 164.116 132.348 165.094 132.526 166.294L142.219 214.76Z" fill="#004472"/>
<path d="M142.223 214.76L137.243 215.16H137.065C135.687 202.711 132.619 180.078 129.906 163.805L130.262 163.894C131.462 164.16 132.352 165.139 132.53 166.339L142.223 214.76Z" fill="#003356"/>
<path d="M115.406 162.96C114.917 164.872 117.452 177.766 117.452 177.766L123.899 162.293L115.406 162.96Z" fill="#1379BF"/>
<path d="M115.364 161.226C114.964 162.382 115.142 163.627 115.809 164.649C116.564 165.583 117.721 166.161 118.966 166.161C121.011 166.161 122.878 164.916 123.679 163.004C124.079 161.759 123.945 161.137 123.19 160.826C121.856 160.247 119.544 161.226 118.654 161.048C117.632 160.781 115.542 160.603 115.364 161.226Z" fill="#0E5B8F"/>
<path d="M115.141 160.381C114.741 161.582 114.963 162.916 115.719 163.983C116.297 164.917 117.32 165.539 118.432 165.584C120.966 165.85 123.501 163.672 123.945 162.293C124.39 160.915 124.212 160.248 123.456 159.892C122.078 159.27 119.454 160.559 118.565 160.337C117.409 160.07 115.319 159.67 115.141 160.381Z" fill="#1379BF"/>
<path d="M117.498 180.523C118.235 180.523 118.832 179.926 118.832 179.189C118.832 178.453 118.235 177.855 117.498 177.855C116.761 177.855 116.164 178.453 116.164 179.189C116.164 179.926 116.761 180.523 117.498 180.523Z" fill="black"/>
<path d="M116.834 195.596C117.571 195.596 118.168 194.998 118.168 194.262C118.168 193.525 117.571 192.928 116.834 192.928C116.097 192.928 115.5 193.525 115.5 194.262C115.5 194.998 116.097 195.596 116.834 195.596Z" fill="black"/>
<path d="M125.235 198.664L125.102 200.265L133.327 199.331L132.749 197.908L125.235 198.664Z" fill="#003356"/>
<path d="M77.0389 93.3736C80.0625 124.987 97.8035 158.558 125.015 155.979C128.572 155.623 132.13 150.554 134.442 151.621C136.131 152.377 134.531 159.891 134.531 159.891C134.531 159.891 148.003 155.401 157.385 145.352C168.457 133.48 181.662 111.248 175.926 87.1931C168.59 56.2907 141.334 38.9054 114.122 41.4843C86.9099 44.0632 74.0598 61.7598 77.0389 93.3736Z" fill="#603813"/>
<path d="M101.092 64.3377C72.0572 81.5897 87.664 104.577 77.0816 118.85C69.3893 129.21 76.8593 147.841 97.7128 156.111C102.871 158.156 106.517 158.823 111.763 159.179C131.061 160.38 149.424 150.553 156.583 135.124C165.965 114.938 155.471 66.1163 125.058 59.4911C110.696 56.3342 101.092 64.3377 101.092 64.3377Z" fill="#FFD9CC"/>
<path d="M133.773 99.732C133.506 99.732 133.195 99.6875 132.928 99.5541C132.84 99.5096 125.236 95.7302 117.944 98.487C117.01 98.8427 115.988 98.3536 115.632 97.4198C115.276 96.4861 115.765 95.4634 116.699 95.1077C125.503 91.8174 134.173 96.1304 134.574 96.3527C135.463 96.7529 135.863 97.82 135.418 98.7093C135.107 99.3318 134.485 99.732 133.773 99.732Z" fill="#42210B"/>
<path d="M135.599 113.604C135.91 119.785 131.197 124.276 125.016 124.587C118.836 124.898 111.321 122.319 111.01 116.139C110.699 109.958 117.68 103.289 123.86 102.977C130.041 102.666 135.287 107.424 135.599 113.604Z" fill="white"/>
<path d="M122.078 124.01C126.891 124.01 130.793 120.108 130.793 115.295C130.793 110.482 126.891 106.58 122.078 106.58C117.265 106.58 113.363 110.482 113.363 115.295C113.363 120.108 117.265 124.01 122.078 124.01Z" fill="#58B9E2"/>
<path d="M120.656 122.941C124.119 122.941 126.926 120.134 126.926 116.672C126.926 113.209 124.119 110.402 120.656 110.402C117.194 110.402 114.387 113.209 114.387 116.672C114.387 120.134 117.194 122.941 120.656 122.941Z" fill="#2D1508"/>
<path d="M135.063 116.717C135.152 115.606 135.107 114.45 134.974 113.338C134.841 112.271 134.529 111.248 134.085 110.27C133.64 109.336 133.062 108.447 132.351 107.736C131.995 107.38 131.595 107.024 131.195 106.713C130.794 106.402 130.35 106.135 129.861 105.868C127.993 104.846 125.903 104.223 123.725 104.134C122.613 104.09 121.546 104.179 120.479 104.401C119.367 104.623 118.3 104.979 117.277 105.468C117.678 105.068 118.167 104.712 118.656 104.401C119.145 104.09 119.678 103.823 120.212 103.556C121.324 103.067 122.48 102.8 123.68 102.711C125.503 102.578 127.326 102.845 129.06 103.467C129.327 103.556 129.638 103.689 129.905 103.823C130.172 103.956 130.439 104.09 130.75 104.223C131.861 104.801 132.884 105.557 133.684 106.491C134.529 107.424 135.152 108.536 135.508 109.737C136.263 112.004 136.086 114.539 135.063 116.717Z" fill="#42210B"/>
<g opacity="0.5">
<path d="M126.172 114.895C128.161 114.895 129.773 113.282 129.773 111.293C129.773 109.304 128.161 107.691 126.172 107.691C124.183 107.691 122.57 109.304 122.57 111.293C122.57 113.282 124.183 114.895 126.172 114.895Z" fill="white"/>
</g>
<path d="M81.928 102.978C81.3056 103.022 80.6831 102.711 80.3718 102.133C79.7938 101.199 79.8827 99.9986 80.6386 99.2428C85.9743 94.3962 93.3108 95.908 93.622 95.9969C94.5558 96.2192 95.2227 97.2864 95.0893 98.398C94.9559 99.5095 94.0667 100.265 93.1329 100.088C93.0885 100.088 86.9525 98.8426 82.8173 102.622C82.5505 102.8 82.2393 102.933 81.928 102.978Z" fill="#42210B"/>
<path d="M78.0609 115.161C78.3277 120.763 82.285 124.409 86.9982 124.187C91.7113 123.965 97.2249 121.03 96.9581 115.472C96.6913 109.914 90.8665 104.401 86.1089 104.668C81.3513 104.934 77.7942 109.559 78.0609 115.161Z" fill="white"/>
<path d="M86.953 123.076C91.2505 123.076 94.7342 119.592 94.7342 115.295C94.7342 110.997 91.2505 107.514 86.953 107.514C82.6556 107.514 79.1719 110.997 79.1719 115.295C79.1719 119.592 82.6556 123.076 86.953 123.076Z" fill="#58B9E2"/>
<path d="M85.4414 121.963C88.5846 121.963 91.1327 119.415 91.1327 116.271C91.1327 113.128 88.5846 110.58 85.4414 110.58C82.2981 110.58 79.75 113.128 79.75 116.271C79.75 119.415 82.2981 121.963 85.4414 121.963Z" fill="#2D1508"/>
<path d="M77.9708 116.139C77.5706 114.494 77.5261 112.76 77.8818 111.114C78.0597 110.27 78.3709 109.425 78.7711 108.669C79.2157 107.869 79.7493 107.202 80.4163 106.579C81.0832 106.001 81.7946 105.512 82.595 105.156C83.3953 104.801 84.2401 104.534 85.1294 104.445C85.9742 104.356 86.8635 104.4 87.7083 104.578C88.5531 104.756 89.309 105.067 90.0204 105.512C88.4642 105.112 86.8635 105.067 85.3073 105.423C83.7955 105.779 82.4171 106.535 81.3055 107.557C80.1939 108.624 79.3936 109.914 78.949 111.381C78.4154 112.982 78.1041 114.538 77.9708 116.139Z" fill="#42210B"/>
<g opacity="0.5">
<path d="M89.7978 115.25C91.7378 115.25 93.3104 113.677 93.3104 111.737C93.3104 109.797 91.7378 108.225 89.7978 108.225C87.8578 108.225 86.2852 109.797 86.2852 111.737C86.2852 113.677 87.8578 115.25 89.7978 115.25Z" fill="white"/>
</g>
<path d="M101.625 116.006C100.469 122.409 93.2656 125.388 93.2656 125.388C93.4435 128.723 96.7783 131.257 98.8236 131.835" fill="#FFD9CC"/>
<path d="M101.628 116.006C101.628 117.117 101.362 118.229 100.917 119.252C100.472 120.319 99.8497 121.253 99.0939 122.142C98.338 122.987 97.4932 123.787 96.6039 124.454C96.1592 124.765 95.6701 125.121 95.181 125.388C94.9143 125.521 94.6919 125.655 94.4252 125.788C94.1584 125.921 93.9361 126.055 93.6248 126.144L94.1584 125.343C94.1584 125.655 94.2028 125.966 94.2918 126.277C94.3807 126.588 94.4696 126.9 94.603 127.211C94.8698 127.833 95.2255 128.411 95.6257 128.945C96.0703 129.523 96.5594 130.012 97.093 130.501C97.6266 130.99 98.249 131.435 98.916 131.791C98.1157 131.746 97.3598 131.524 96.6484 131.124C95.9369 130.768 95.27 130.323 94.6919 129.79C94.0694 129.212 93.5803 128.589 93.1802 127.833C92.78 127.077 92.5577 126.233 92.4688 125.388C92.4688 125.032 92.6466 124.721 92.9579 124.587C93.1357 124.498 93.4025 124.365 93.6248 124.276C93.8471 124.187 94.0695 124.054 94.2918 123.92C94.7364 123.654 95.181 123.387 95.6257 123.12C96.515 122.542 97.3153 121.92 98.0712 121.208C98.4714 120.852 98.8271 120.497 99.1383 120.097C99.494 119.696 99.8053 119.296 100.117 118.852C100.428 118.407 100.695 117.962 100.917 117.473L101.095 117.117L101.273 116.762C101.45 116.539 101.539 116.273 101.628 116.006Z" fill="#E0A08B"/>
<path d="M151.204 130.635C129.728 113.961 170.59 94.1303 172.725 108.003C174.859 121.876 157.473 135.526 151.204 130.635Z" fill="#FFD9CC"/>
<path d="M152.134 120.274C151.956 119.073 152.4 117.872 152.934 116.805C153.512 115.738 154.179 114.76 154.979 113.871C156.535 112.048 158.403 110.491 160.493 109.335C161.604 108.668 162.805 108.224 164.05 108.001C164.406 107.957 164.806 107.957 165.161 107.957C165.606 108.001 166.051 108.179 166.451 108.446C166.673 108.58 166.851 108.802 166.94 108.98C167.029 109.158 167.118 109.335 167.162 109.513C167.296 109.869 167.385 110.225 167.429 110.58C167.474 111.914 167.073 113.204 166.273 114.271C165.606 115.249 164.717 116.094 163.739 116.761C164.361 115.827 164.895 114.804 165.339 113.782C165.784 112.893 165.917 111.87 165.784 110.847C165.74 110.625 165.651 110.447 165.517 110.269C165.473 110.18 165.428 110.091 165.384 110.047C165.339 110.047 165.339 110.002 165.295 110.002C164.984 109.913 164.672 109.913 164.361 110.002C163.338 110.269 162.405 110.669 161.515 111.247C159.604 112.359 157.825 113.648 156.135 115.116C155.291 115.827 154.535 116.627 153.823 117.472C153.067 118.228 152.489 119.206 152.134 120.274Z" fill="#EDBBAB"/>
<path d="M159.117 54.7339C154.271 5.91259 71.1678 40.7278 71.1678 40.7278C71.1678 40.7278 89.7981 49.6205 81.7057 51.2657C64.1425 54.8673 55.6055 74.7426 55.6055 74.7426C55.6055 74.7426 87.7528 63.182 81.0388 68.2064C63.9647 80.9675 64.1425 93.2395 64.1425 93.2395C64.1425 93.2395 99.0911 71.5412 90.7763 79.3224C80.194 89.1489 81.3056 100.754 81.3056 100.754C81.3056 100.754 105.939 90.3049 113.497 87.2369C132.261 79.6336 136.53 78.8777 136.53 78.8777L131.327 93.1951L145.111 82.5238L142.043 109.691L150.714 99.5089L153.026 112.981C153.026 112.981 177.214 99.9536 176.547 76.9213C175.88 53.8891 159.117 54.7339 159.117 54.7339Z" fill="#754C24"/>
<path d="M128.35 38.3269C127.06 37.8378 125.815 37.2598 124.57 36.6373C123.325 36.0593 122.125 35.4813 120.924 34.8588C120.302 34.592 119.724 34.2807 119.146 33.9695C118.568 33.6582 117.99 33.347 117.367 33.0802C116.745 32.8134 116.167 32.5022 115.589 32.2354L115.144 32.0131C115.011 31.9242 114.833 31.8797 114.699 31.8352L113.81 31.4351C112.61 30.857 111.409 30.3679 110.208 29.8344C109.586 29.612 109.008 29.3453 108.385 29.1229C108.074 28.9895 107.763 28.9006 107.452 28.7672L106.473 28.456C105.851 28.2337 105.229 28.0558 104.606 27.8335C104.295 27.7446 103.984 27.6556 103.672 27.5667C103.361 27.4778 103.05 27.3444 102.739 27.2999C101.449 26.8997 100.115 26.633 98.7812 26.4551C99.4482 26.1883 100.115 26.0105 100.827 25.8771C101.182 25.8326 101.538 25.7881 101.894 25.7437C102.249 25.6992 102.605 25.6992 102.961 25.6992C103.317 25.6992 103.672 25.6992 104.028 25.6992C104.384 25.6992 104.739 25.6992 105.095 25.7437C105.451 25.7881 105.807 25.8326 106.162 25.8326C106.518 25.8326 106.874 25.9215 107.229 25.966C107.896 26.0994 108.608 26.1883 109.275 26.3662C109.942 26.544 110.609 26.7219 111.32 26.9442C112.654 27.3888 113.943 27.8779 115.233 28.456C116.522 29.034 117.723 29.6565 118.923 30.3679C119.546 30.7236 120.079 31.0793 120.657 31.4795C121.235 31.8797 121.814 32.2799 122.347 32.6356C123.459 33.4804 124.526 34.3697 125.548 35.2589C126.482 36.2816 127.416 37.2598 128.35 38.3269Z" fill="#A67C52"/>
<path d="M160.943 33.748C161.61 34.415 162.143 35.2154 162.454 36.1046C162.632 36.5493 162.766 36.9939 162.899 37.4385C163.033 37.8832 163.121 38.3723 163.21 38.8614C163.477 40.7289 163.522 42.6408 163.299 44.5083C163.121 46.3758 162.766 48.1988 162.321 50.0218C162.099 50.9111 161.832 51.8004 161.565 52.6896C161.432 53.1343 161.298 53.5789 161.121 54.0235C160.943 54.4682 160.809 54.9128 160.631 55.3575L158.364 53.3121C160.276 52.2895 162.321 51.5336 164.455 51.0445C164.722 51 164.989 50.9111 165.256 50.8666C165.522 50.8222 165.789 50.7777 166.056 50.7332C166.59 50.6443 167.123 50.5554 167.657 50.5109C168.724 50.3775 169.791 50.3331 170.858 50.2886C172.992 50.2886 175.082 50.4664 177.172 50.8222C178.195 51 179.217 51.2223 180.24 51.4891C181.263 51.7559 182.241 52.1116 183.175 52.5118C181.129 52.3784 179.084 52.3339 177.039 52.4229C175.038 52.4673 173.037 52.6007 171.036 52.8675C169.08 53.1343 167.168 53.49 165.256 54.068C164.322 54.3348 163.433 54.646 162.543 55.0018C161.654 55.3575 160.809 55.7576 159.965 56.2467L156.141 58.2921L157.652 54.2014L158.097 53.0009C158.23 52.6007 158.408 52.1561 158.542 51.7559C158.808 50.9111 159.12 50.0663 159.386 49.2659C159.92 47.5763 160.409 45.8867 160.809 44.197C161.21 42.5074 161.521 40.7733 161.654 39.0392C161.743 37.1718 161.565 35.3932 160.943 33.748Z" fill="#A67C52"/>
<path d="M101.891 46.7751C99.3124 47.3976 96.778 47.8422 94.288 48.2868C91.798 48.7315 89.308 49.1761 86.7736 49.6208C84.2392 50.0654 81.7492 50.4211 79.2148 50.7324C76.6359 51.0881 74.057 51.2659 71.4336 51.3549C72.0116 50.9991 72.5897 50.6879 73.1677 50.4211C73.7457 50.1543 74.3682 49.8431 74.9462 49.6208C76.1468 49.0872 77.3918 48.6426 78.6367 48.2424C81.1267 47.442 83.6611 46.8195 86.24 46.4194C88.8189 46.0192 91.4423 45.7969 94.0657 45.7969C95.3996 45.7969 96.689 45.8858 98.023 46.0637C99.3124 46.1526 100.602 46.4194 101.891 46.7751Z" fill="#A67C52"/>
<path d="M131.104 66.4277C129.859 67.0947 128.659 67.7617 127.547 68.5175C126.435 69.2734 125.279 70.0293 124.212 70.7852C123.145 71.5411 122.033 72.3859 120.966 73.1862L117.765 75.6318C115.631 77.2769 113.452 78.9221 111.273 80.5672C109.094 82.2124 106.827 83.8131 104.426 85.2804C105.137 84.0799 105.938 82.9238 106.827 81.8122C107.716 80.7006 108.605 79.6335 109.584 78.6553C111.496 76.6099 113.585 74.7425 115.809 73.0528C116.92 72.208 118.076 71.4077 119.277 70.6518C120.477 69.8959 121.722 69.229 123.012 68.6065C124.301 67.984 125.635 67.4949 127.013 67.0947C128.303 66.6501 129.681 66.4277 131.104 66.4277Z" fill="#A67C52"/>
<path d="M94.4688 138.637C101.627 142.016 108.164 138.104 108.164 138.104Z" fill="#FFD9CC"/>
<path d="M94.4688 138.637C95.7137 138.77 96.8253 139.037 97.9814 139.082C98.5594 139.171 99.093 139.126 99.671 139.171H100.516C100.783 139.171 101.094 139.171 101.361 139.126C102.472 139.082 103.628 138.948 104.74 138.77C105.896 138.593 107.008 138.37 108.208 138.104C107.986 138.326 107.763 138.548 107.541 138.726C107.319 138.904 107.052 139.082 106.785 139.26C106.518 139.437 106.252 139.571 105.985 139.704C105.718 139.838 105.407 139.971 105.14 140.06C103.984 140.505 102.739 140.771 101.494 140.816C100.872 140.86 100.249 140.816 99.6266 140.771C99.0041 140.682 98.3816 140.549 97.8035 140.371C96.5141 140.015 95.4025 139.437 94.4688 138.637Z" fill="#E0A08B"/>
<path d="M149.247 211.559C148.847 211.692 148.402 211.781 147.958 211.781C146.313 211.781 144.845 210.759 144.312 209.202C144.312 209.202 144.045 208.447 143.556 207.068C142.533 204.222 140.532 198.62 137.865 191.372C135.197 184.125 128.26 168.963 128.171 168.829C127.238 166.917 128.038 164.605 129.95 163.671C131.862 162.738 134.174 163.538 135.108 165.45C135.152 165.494 135.152 165.539 135.197 165.628C135.464 166.25 142.355 181.235 145.112 188.749C147.958 196.53 150.092 202.399 151.026 205.112C151.382 206.134 151.604 206.712 151.604 206.712C152.315 208.669 151.248 210.848 149.247 211.559Z" fill="#1379BF"/>
<g clip-path="url(#clip3_3409_126528)">
<rect x="-7" width="204" height="204" rx="100" fill="white"/>
<path d="M214.969 0H-7V203.623H214.969V0Z" fill="#B3D782"/>
<path d="M83.2764 160.489C82.1027 162.879 80.9011 165.282 79.4619 167.671C78.7239 168.9 77.9217 170.09 77.0586 171.234C76.1896 172.381 75.2566 173.477 74.2641 174.518L73.5096 175.272L73.1323 175.636L72.6852 176.041L72.2241 176.446L71.763 176.809C71.4696 177.047 71.1622 177.298 70.8687 177.508C69.6671 178.388 68.4794 179.157 67.2778 179.869C66.0761 180.582 64.8885 181.267 63.6868 181.909L61.8704 182.846C61.2556 183.167 60.6687 183.46 59.9981 183.768C58.9493 184.283 57.7389 184.36 56.6331 183.983C55.5273 183.606 54.6167 182.804 54.1016 181.756C53.5865 180.707 53.5091 179.497 53.8865 178.391C54.2638 177.285 55.0649 176.374 56.1137 175.859L56.449 175.72L58.1257 175.021L59.8444 174.294C60.9901 173.791 62.1079 173.274 63.1978 172.729C64.2876 172.185 65.3496 171.612 66.2997 171.025C66.5512 170.885 66.7608 170.731 66.9844 170.578L67.3197 170.368L67.5991 170.145C67.708 170.079 67.8109 170.004 67.9065 169.921L68.2559 169.628L68.9405 169.041C69.8168 168.285 70.6473 167.478 71.4276 166.623C72.215 165.734 72.952 164.801 73.6353 163.829C75.0326 161.859 76.4298 159.637 77.6734 157.485C78.0718 156.742 78.749 156.188 79.5561 155.944C80.3631 155.701 81.234 155.787 81.977 156.186C82.72 156.584 83.2743 157.261 83.518 158.069C83.7617 158.876 83.6748 159.746 83.2764 160.489Z" fill="#1779BF"/>
<path d="M75.6866 271.935L80.074 272.941L85.2998 274.142C85.2998 274.142 88.6532 226.3 88.1921 212.355C88.2786 210.17 87.9661 207.987 87.2699 205.914C84.4754 201.08 75.002 204.517 75.002 204.517C77.9222 224.777 75.6866 271.977 75.6866 271.977" fill="#191919"/>
<path d="M78.1774 200.297C78.345 201.136 75.7322 204.838 75.8579 207.465C76.0815 211.992 77.7722 216.212 82.2993 216.212H98.5494C100.448 216.214 102.292 215.579 103.786 214.408C105.281 213.238 106.34 211.6 106.793 209.757L106.206 200.297H78.1774Z" fill="#191919"/>
<path d="M93.5728 273.081L98.0021 273.947L103.256 274.967C103.256 274.967 105.072 227.055 104.164 213.124C104.184 210.936 103.805 208.763 103.046 206.711C100.084 201.974 90.7363 205.663 90.7363 205.663C94.2993 225.825 93.5308 273.081 93.5308 273.081" fill="#191919"/>
<path d="M94.1185 154.411C92.4837 156.032 88.278 161.104 86.3917 160.699C85.1761 160.448 86.0005 155.11 85.5254 154.383C86.8154 153.583 88.3036 153.158 89.822 153.158C91.3404 153.158 92.8285 153.583 94.1185 154.383" fill="#FDE1D9"/>
<path d="M89.5335 155.515C89.1984 155.517 88.8662 155.452 88.5561 155.325C88.2459 155.198 87.9639 155.011 87.7263 154.775C87.4887 154.539 87.3001 154.258 87.1715 153.948C87.0428 153.639 86.9766 153.307 86.9766 152.972V147.83H92.0905V152.972C92.0905 153.307 92.0243 153.639 91.8956 153.948C91.767 154.258 91.5784 154.539 91.3408 154.775C91.1031 155.011 90.8212 155.198 90.511 155.325C90.2009 155.452 89.8687 155.517 89.5335 155.515Z" fill="#ECBAAB"/>
<path d="M71.9023 210.4L83.5275 211.699L85.5256 211.923H86.0007L86.7412 206.976L88.0407 211.629V211.825L90.1925 211.657L105.059 210.497L109.726 210.134L101.343 156.926C101.254 156.385 101.008 155.882 100.635 155.479C100.263 155.077 99.7797 154.793 99.2467 154.663L98.9254 154.593L93.0429 153.196L89.8012 153.391L87.2582 153.559H86.2103L81.6273 155.236H81.5155C81.2726 155.347 81.0605 155.516 80.8974 155.728C80.7343 155.94 80.6252 156.188 80.5793 156.451L74.0681 196.748L73.7467 198.816L73.2856 201.611L71.9023 210.4Z" fill="#104572"/>
<path d="M98.9297 154.649C102.912 178.165 106 206.222 105.12 210.539L109.786 210.176L101.403 156.968C101.314 156.427 101.068 155.924 100.696 155.521C100.323 155.119 99.8399 154.835 99.307 154.705L98.9297 154.649Z" fill="#0E3456"/>
<path d="M85.1654 172.883C84.2152 175.23 81.6163 175.468 81.9657 176.097C82.315 176.726 83.1533 177.494 85.9199 176.278C88.6865 175.063 88.1974 172.52 87.2333 172.436C86.5191 172.427 85.812 172.58 85.1654 172.883" fill="#ECBAAB"/>
<path d="M95.1269 176.251C94.3828 175.044 93.36 174.033 92.1443 173.304C90.9286 172.574 89.5556 172.147 88.1406 172.059C85.3461 171.877 78.6113 172.45 79.0864 173.875C79.785 175.999 85.0248 173.4 85.3601 175.496C85.6954 177.592 90.4461 179.297 92.5979 179.422C94.7497 179.548 96.0212 177.634 95.1689 176.292" fill="#FDD9CC"/>
<path d="M84.1992 176.614L88.6425 173.498" stroke="#FDD9CC" stroke-width="7.65" stroke-miterlimit="10" stroke-linecap="round"/>
<path d="M85.5137 177.564L90.2783 174.211" stroke="#FDD9CC" stroke-width="7.65" stroke-miterlimit="10" stroke-linecap="round"/>
<path d="M87.2598 178.123L92.6392 175.482" stroke="#FDD9CC" stroke-width="7.65" stroke-miterlimit="10" stroke-linecap="round"/>
<path d="M49.0574 157.304L72.2659 152.288C72.5192 152.23 72.7847 152.267 73.0132 152.39C73.2418 152.513 73.418 152.715 73.5095 152.958L88.8793 192.78C88.9434 192.947 88.9656 193.126 88.9441 193.303C88.9225 193.48 88.8579 193.649 88.7558 193.795C88.6538 193.942 88.5174 194.061 88.3586 194.142C88.1999 194.223 88.0237 194.264 87.8454 194.261L66.2577 193.646C66.0625 193.646 65.8714 193.59 65.706 193.486C65.5406 193.383 65.4074 193.235 65.3215 193.06L48.3448 158.841C48.2735 158.693 48.2364 158.531 48.2363 158.367C48.2362 158.203 48.2732 158.041 48.3443 157.894C48.4155 157.746 48.5191 157.616 48.6474 157.514C48.7757 157.412 48.9254 157.34 49.0854 157.304" fill="#666766"/>
<path d="M87.1188 194.764L78.9029 194.54L75.7032 194.443L65.5311 194.163C65.3348 194.159 65.1434 194.101 64.9781 193.995C64.8128 193.889 64.6802 193.739 64.595 193.562L47.6183 159.357C47.5469 159.21 47.5098 159.048 47.5098 158.884C47.5097 158.72 47.5466 158.558 47.6178 158.41C47.689 158.263 47.7926 158.133 47.9209 158.031C48.0492 157.928 48.1989 157.857 48.3588 157.82L71.5673 152.804C71.8188 152.749 72.0816 152.785 72.3092 152.905C72.5368 153.025 72.7145 153.222 72.8109 153.461L78.9029 169.292L80.0207 172.17L88.1528 193.297C88.2175 193.462 88.2402 193.641 88.2188 193.818C88.1974 193.995 88.1326 194.163 88.0302 194.308C87.9277 194.454 87.7909 194.571 87.6318 194.651C87.4728 194.73 87.2965 194.769 87.1188 194.764" fill="#808080"/>
<path d="M56.5202 160.685C56.2513 160.129 55.8239 159.664 55.2916 159.351C54.7594 159.037 54.1462 158.888 53.5293 158.922C52.9123 158.956 52.3193 159.172 51.8249 159.542C51.3306 159.913 50.9569 160.422 50.7511 161.004C50.5452 161.587 50.5164 162.217 50.6683 162.816C50.8201 163.415 51.1458 163.956 51.6043 164.37C52.0629 164.784 52.6337 165.053 53.2449 165.143C53.8562 165.233 54.4804 165.141 55.0391 164.877C55.7836 164.509 56.355 163.865 56.6317 163.082C56.9083 162.299 56.8683 161.439 56.5202 160.685" fill="black"/>
<path d="M55.3285 161.244C55.1584 160.908 54.8932 160.63 54.5661 160.445C54.2391 160.259 53.8645 160.174 53.4893 160.2C53.1141 160.226 52.7549 160.362 52.4564 160.591C52.158 160.819 51.9336 161.131 51.8112 161.487C51.6888 161.842 51.6739 162.226 51.7684 162.59C51.8628 162.954 52.0624 163.282 52.3422 163.534C52.622 163.785 52.9696 163.948 53.3417 164.003C53.7138 164.058 54.0938 164.002 54.4343 163.843C54.6637 163.731 54.8689 163.575 55.0381 163.384C55.2072 163.193 55.3371 162.97 55.4201 162.729C55.5032 162.487 55.5378 162.232 55.5221 161.977C55.5064 161.722 55.4406 161.473 55.3285 161.244Z" fill="#4D4D4E"/>
<path d="M54.2959 161.719C54.2445 161.602 54.1702 161.496 54.0775 161.408C53.9847 161.32 53.8753 161.251 53.7557 161.205C53.636 161.16 53.5085 161.138 53.3805 161.143C53.2525 161.147 53.1267 161.177 53.0104 161.23C52.833 161.309 52.683 161.438 52.5793 161.602C52.4756 161.766 52.423 161.957 52.4281 162.15C52.4332 162.344 52.4958 162.532 52.608 162.69C52.7201 162.849 52.8768 162.97 53.058 163.039C53.2393 163.108 53.4369 163.121 53.6259 163.078C53.8148 163.034 53.9865 162.935 54.1192 162.794C54.2519 162.652 54.3395 162.475 54.3709 162.283C54.4024 162.092 54.3763 161.896 54.2959 161.719" fill="black"/>
<path d="M56.252 160.811H56.1263H56.252C56.5782 161.508 56.6232 162.303 56.3778 163.032C56.2628 163.381 56.0802 163.704 55.8404 163.982C55.6007 164.26 55.3085 164.488 54.9805 164.653C54.6414 164.813 54.2736 164.902 53.8992 164.917C53.5247 164.931 53.1512 164.87 52.8008 164.737C52.2665 164.54 51.8015 164.19 51.4633 163.732C51.125 163.274 50.9281 162.726 50.897 162.158C50.8658 161.589 51.0016 161.023 51.2877 160.531C51.5739 160.038 51.9978 159.64 52.5074 159.386H52.689C53.3713 159.128 54.1258 159.14 54.8001 159.417C55.4745 159.695 56.0183 160.218 56.3219 160.881M54.9246 164.486C55.2328 164.341 55.5083 164.135 55.7341 163.881C55.9599 163.626 56.1314 163.328 56.238 163.005C56.3945 162.603 56.4485 162.169 56.3953 161.741C56.3422 161.313 56.1834 160.905 55.9333 160.554C55.6833 160.203 55.3498 159.919 54.963 159.729C54.5761 159.539 54.1481 159.448 53.7173 159.464C53.2865 159.481 52.8666 159.604 52.4954 159.823C52.1241 160.042 51.8132 160.35 51.5906 160.72C51.368 161.089 51.2408 161.507 51.2203 161.938C51.1999 162.369 51.2868 162.798 51.4734 163.186C51.7643 163.828 52.2963 164.33 52.9545 164.583C53.5344 164.807 54.177 164.807 54.7569 164.583H54.9246" fill="#CCCCCB"/>
<path d="M80.007 172.171L78.9032 194.527L75.6895 194.443L78.9032 169.292L80.007 172.171Z" fill="#999999"/>
<path d="M55.4038 177.256C55.0301 177.248 54.6722 177.104 54.397 176.851C54.1219 176.598 53.9484 176.253 53.909 175.882C53.8696 175.51 53.967 175.137 54.183 174.832C54.399 174.527 54.7187 174.311 55.0824 174.224C57.2901 173.749 61.2024 173.037 62.6835 173.54C63.0708 173.669 63.3906 173.948 63.5727 174.313C63.7549 174.679 63.7843 175.102 63.6546 175.489C63.5249 175.876 63.2467 176.196 62.8811 176.378C62.5156 176.56 62.0927 176.59 61.7054 176.46C59.6895 176.491 57.6835 176.749 55.7252 177.228H55.4038" fill="#FDD9CC"/>
<path d="M63.265 177.704C63.0939 177.703 62.924 177.675 62.762 177.62C61.3809 177.359 59.9736 177.265 58.5702 177.34V177.34C58.1626 177.34 57.7716 177.178 57.4834 176.89C57.1951 176.602 57.0332 176.211 57.0332 175.803C57.0332 175.396 57.1951 175.005 57.4834 174.716C57.7716 174.428 58.1626 174.266 58.5702 174.266C60.3335 174.184 62.0999 174.334 63.8239 174.713C64.2087 174.844 64.5261 175.122 64.7068 175.486C64.8875 175.849 64.9167 176.27 64.788 176.656C64.6873 176.95 64.5001 177.208 64.2509 177.395C64.0017 177.582 63.7019 177.689 63.3907 177.704" fill="#FDD9CC"/>
<path d="M63.4935 179.003C63.3224 179.002 63.1525 178.974 62.9905 178.919C61.6084 178.667 60.202 178.573 58.7987 178.64C58.392 178.647 57.9987 178.495 57.7034 178.215C57.408 177.935 57.2344 177.551 57.2198 177.144C57.2123 176.942 57.2453 176.74 57.3167 176.551C57.3882 176.362 57.4967 176.188 57.6359 176.041C57.7751 175.894 57.9422 175.776 58.1275 175.695C58.3127 175.613 58.5124 175.569 58.7149 175.566C60.4781 175.483 62.2446 175.634 63.9686 176.013C64.1602 176.076 64.3374 176.176 64.4898 176.308C64.6423 176.44 64.767 176.602 64.8567 176.782C64.9464 176.963 64.9993 177.16 65.0123 177.361C65.0254 177.562 64.9983 177.764 64.9327 177.955C64.8319 178.25 64.6448 178.507 64.3956 178.694C64.1463 178.881 63.8466 178.989 63.5354 179.003" fill="#FDD9CC"/>
<path d="M58.0144 180.777C57.6685 180.775 57.3334 180.656 57.0625 180.441C56.7916 180.226 56.6004 179.926 56.5194 179.59C56.4718 179.393 56.4638 179.189 56.4958 178.99C56.5278 178.79 56.5992 178.599 56.7059 178.428C56.8125 178.256 56.9522 178.107 57.1169 177.99C57.2816 177.873 57.468 177.79 57.6651 177.745C59.3774 177.312 61.1385 177.1 62.9048 177.117C63.3106 177.168 63.6792 177.379 63.9294 177.703C64.1797 178.027 64.2911 178.436 64.2392 178.842C64.1874 179.248 63.9764 179.617 63.6528 179.867C63.3292 180.117 62.9194 180.228 62.5136 180.177C61.0994 180.199 59.6926 180.387 58.3218 180.736H57.9725" fill="#FDD9CC"/>
<path d="M57.0661 174.462C60.4334 174.224 64.9187 177.144 64.2899 177.689C63.6611 178.234 59.1759 180.484 58.9104 181.057C58.645 181.63 59.3855 183.055 58.4633 182.845C55.6688 182.217 54.2715 176.837 54.8304 175.859C55.7247 174.378 56.074 174.462 57.0661 174.462Z" fill="#FDD9CC"/>
<path d="M56.7285 86.8536C56.7285 115.875 69.9606 147.914 94.9576 147.914C98.2132 147.914 101.944 143.61 103.9 144.756C105.297 145.58 103.257 152.287 103.257 152.287C103.257 152.287 115.833 149.367 125.292 141.109C136.47 131.328 150.331 112.186 147.201 89.8158C143.191 61.0602 119.941 42.8818 94.9576 42.8818C69.9745 42.8818 56.7285 57.8325 56.7285 86.8536Z" fill="#5F3917"/>
<path d="M81.1423 62.5273C53.1971 75.6895 65.4511 97.9618 54.5943 110.034C46.6998 118.781 51.8837 136.386 70.1179 145.72C74.0175 147.778 78.2519 149.126 82.6234 149.702C100.047 152.455 117.611 145.119 125.449 131.706C135.733 114.142 130.452 68.8289 103.345 60.1659C99.6914 58.9421 95.8174 58.5196 91.9862 58.9271C88.155 59.3345 84.4565 60.5625 81.1423 62.5273" fill="#FDD9CC"/>
<path d="M107.771 97.5288C107.509 97.5099 107.255 97.4284 107.031 97.2913C107.031 97.2913 100.366 93.0995 93.4913 95.0138C93.0725 95.1268 92.626 95.0689 92.25 94.8527C91.874 94.6365 91.5992 94.2798 91.4862 93.861C91.3732 93.4423 91.4311 92.9958 91.6473 92.6198C91.8635 92.2437 92.2202 91.969 92.6389 91.856C100.939 89.6204 108.47 94.3152 108.777 94.5247C109.083 94.7217 109.313 95.0146 109.434 95.3574C109.554 95.7001 109.557 96.0732 109.441 96.4176C109.326 96.762 109.099 97.0582 108.797 97.2594C108.494 97.4607 108.134 97.5555 107.771 97.5288" fill="#412311"/>
<path d="M108.236 110.314C107.985 115.903 103.304 119.647 97.6589 119.382C92.014 119.116 85.377 116.126 85.6425 110.481C85.908 104.836 92.8384 99.3032 98.4973 99.6106C99.8433 99.668 101.165 99.9908 102.386 100.56C103.607 101.13 104.703 101.935 105.612 102.93C106.521 103.924 107.224 105.088 107.682 106.356C108.139 107.623 108.342 108.968 108.278 110.314" fill="white"/>
<path d="M104.613 110.803C104.447 112.369 103.82 113.851 102.812 115.061C101.803 116.271 100.459 117.155 98.9484 117.601C97.4379 118.047 95.829 118.035 94.3252 117.567C92.8214 117.099 91.4902 116.195 90.4999 114.97C89.5096 113.745 88.9046 112.255 88.7615 110.686C88.6184 109.118 88.9435 107.542 89.6958 106.158C90.4481 104.775 91.5938 103.645 92.988 102.912C94.3823 102.18 95.9624 101.877 97.5287 102.042C98.5692 102.152 99.5779 102.466 100.497 102.965C101.416 103.465 102.228 104.141 102.886 104.955C103.544 105.768 104.035 106.703 104.331 107.707C104.628 108.71 104.723 109.762 104.613 110.803" fill="#5AB9E2"/>
<path d="M100.673 111.501C100.551 112.63 100.097 113.696 99.3692 114.567C98.6413 115.438 97.6717 116.073 96.583 116.393C95.4942 116.713 94.335 116.704 93.2517 116.365C92.1684 116.027 91.2097 115.375 90.4965 114.493C89.7833 113.61 89.3476 112.536 89.2445 111.406C89.1413 110.275 89.3754 109.14 89.917 108.143C90.4586 107.145 91.2836 106.331 92.2877 105.802C93.2919 105.274 94.4302 105.054 95.5589 105.172C96.3109 105.25 97.0399 105.476 97.7043 105.837C98.3687 106.198 98.9553 106.686 99.4304 107.275C99.9055 107.863 100.26 108.539 100.473 109.264C100.686 109.989 100.754 110.75 100.673 111.501" fill="#2C170E"/>
<path d="M107.461 113.122C107.633 112.102 107.703 111.068 107.67 110.034C107.634 109.053 107.451 108.082 107.126 107.156C106.801 106.259 106.329 105.423 105.728 104.682C105.121 103.955 104.416 103.315 103.632 102.782C102.008 101.675 100.155 100.949 98.211 100.658C97.2226 100.539 96.2234 100.539 95.2349 100.658C94.2029 100.751 93.1879 100.981 92.2168 101.343C92.6438 100.996 93.1134 100.705 93.6141 100.477C94.0985 100.229 94.6034 100.023 95.1231 99.8619C96.1722 99.5353 97.266 99.375 98.3647 99.3868C98.9217 99.3919 99.4775 99.4386 100.027 99.5266C100.576 99.627 101.117 99.7623 101.648 99.9318C102.181 100.095 102.699 100.301 103.199 100.547L103.94 100.924L104.652 101.357C105.617 101.977 106.459 102.768 107.14 103.69C107.818 104.62 108.294 105.682 108.537 106.806C109.008 108.982 108.633 111.255 107.489 113.164" fill="#412311"/>
<g opacity="0.5">
<path d="M104.238 107.002C104.207 107.656 103.983 108.286 103.594 108.813C103.205 109.339 102.669 109.739 102.053 109.961C101.437 110.183 100.769 110.217 100.134 110.059C99.4984 109.902 98.924 109.56 98.483 109.076C98.0421 108.592 97.7544 107.988 97.6564 107.341C97.5585 106.694 97.6545 106.032 97.9325 105.439C98.2105 104.846 98.6579 104.349 99.2182 104.011C99.7785 103.672 100.427 103.507 101.081 103.537C101.516 103.557 101.943 103.662 102.337 103.847C102.731 104.032 103.085 104.293 103.378 104.615C103.672 104.937 103.899 105.313 104.046 105.723C104.194 106.133 104.259 106.567 104.238 107.002Z" fill="white"/>
</g>
<path d="M60.3363 95.992C60.043 95.9888 59.7565 95.9033 59.5095 95.7452C59.2624 95.5871 59.0648 95.3627 58.9391 95.0977C58.7247 94.6605 58.666 94.1632 58.7727 93.688C58.8794 93.2129 59.1451 92.7884 59.5259 92.4848C64.7796 88.5585 71.3048 90.6265 71.5703 90.6265C72.0083 90.8099 72.3647 91.1463 72.573 91.5731C72.7812 91.9999 72.8271 92.4878 72.7021 92.9459C72.6819 93.1707 72.6138 93.3885 72.5023 93.5847C72.3909 93.7809 72.2387 93.951 72.0559 94.0834C71.8732 94.2158 71.6642 94.3075 71.4431 94.3523C71.2219 94.3971 70.9937 94.394 70.7739 94.3432C70.7739 94.3432 65.2686 92.6805 61.1607 95.7405C60.9227 95.919 60.6339 96.0169 60.3363 96.0199" fill="#412311"/>
<path d="M55.7623 106.737C55.5248 111.837 58.7944 115.512 63.1119 115.721C67.4294 115.931 72.6831 113.751 72.8927 108.637C73.1023 103.523 68.2957 98.06 63.9782 97.8644C59.6607 97.6687 55.9719 101.637 55.7344 106.737" fill="white"/>
<path d="M70.9407 108.413C70.7918 109.815 70.2305 111.141 69.3279 112.224C68.4253 113.306 67.2219 114.097 65.8698 114.496C64.5178 114.894 63.078 114.883 61.7324 114.463C60.3868 114.043 59.1959 113.234 58.3104 112.137C57.4248 111.041 56.8844 109.706 56.7575 108.302C56.6305 106.898 56.9228 105.488 57.5972 104.251C58.2717 103.013 59.2981 102.003 60.5466 101.349C61.795 100.694 63.2095 100.425 64.6111 100.575C65.542 100.672 66.4445 100.953 67.2669 101.4C68.0892 101.847 68.8152 102.452 69.4032 103.18C69.9913 103.908 70.4298 104.745 70.6936 105.643C70.9575 106.541 71.0414 107.483 70.9407 108.413Z" fill="#5AB9E2"/>
<path d="M67.5483 108.972C67.4298 109.991 67.0127 110.952 66.3495 111.734C65.6863 112.516 64.8066 113.084 63.8212 113.367C62.8358 113.65 61.7886 113.636 60.8114 113.325C59.8342 113.015 58.9706 112.422 58.3294 111.622C57.6881 110.822 57.2979 109.85 57.2077 108.829C57.1174 107.808 57.3313 106.782 57.8224 105.882C58.3135 104.982 59.0598 104.247 59.9674 103.77C60.8751 103.293 61.9035 103.096 62.9234 103.202C64.2957 103.35 65.5534 104.036 66.4205 105.11C67.2875 106.184 67.6931 107.558 67.5483 108.931" fill="#2C170E"/>
<path d="M55.5999 107.659C55.3698 106.125 55.4844 104.56 55.9352 103.076C56.1737 102.312 56.522 101.587 56.9692 100.924C57.4279 100.253 57.9945 99.6632 58.6459 99.1775C59.2947 98.7101 60.0046 98.3339 60.7558 98.0597C61.5141 97.7861 62.3113 97.6352 63.1171 97.6126C63.9042 97.6011 64.6878 97.7191 65.4366 97.9619C66.1735 98.1937 66.864 98.5531 67.4766 99.0238C66.1029 98.5146 64.6271 98.3421 63.173 98.5208C61.7859 98.7333 60.4743 99.2906 59.3585 100.142C58.2654 101.008 57.4098 102.138 56.8714 103.425C56.3037 104.775 55.8776 106.179 55.5999 107.617" fill="#412311"/>
<g opacity="0.5">
<path d="M69.932 104.808C69.9037 105.444 69.6875 106.056 69.3108 106.569C68.9342 107.081 68.414 107.47 67.8161 107.687C67.2182 107.903 66.5695 107.938 65.952 107.785C65.3346 107.633 64.7762 107.301 64.3476 106.831C63.919 106.362 63.6393 105.775 63.5441 105.146C63.4488 104.518 63.5422 103.875 63.8125 103.299C64.0828 102.724 64.5178 102.241 65.0624 101.913C65.607 101.585 66.2368 101.425 66.872 101.455C67.7222 101.495 68.5218 101.87 69.0954 102.499C69.6691 103.128 69.97 103.958 69.932 104.808Z" fill="white"/>
</g>
<path d="M77.1463 109.573C75.5535 115.302 68.7628 117.37 68.7628 117.37C68.6231 120.444 71.4595 122.959 73.2759 123.713" fill="#FDD9CC"/>
<path d="M77.1449 109.573C77.0274 110.594 76.7093 111.582 76.2087 112.479C75.7016 113.389 75.061 114.218 74.3085 114.938C73.5545 115.657 72.7199 116.285 71.8213 116.811C71.3742 117.062 70.9131 117.314 70.4241 117.523L69.7115 117.831L68.943 118.11L69.4879 117.412C69.4604 117.7 69.4604 117.99 69.4879 118.278C69.5347 118.571 69.6 118.86 69.6835 119.144C69.8721 119.734 70.135 120.298 70.466 120.821C70.8172 121.374 71.2195 121.894 71.6676 122.372C72.1191 122.895 72.6303 123.364 73.1906 123.769C72.4846 123.64 71.8106 123.374 71.2065 122.987C70.583 122.605 70.0182 122.134 69.5298 121.589C69.0243 121.029 68.618 120.386 68.3282 119.689C68.0271 118.959 67.8842 118.173 67.909 117.384C67.9184 117.229 67.9741 117.082 68.0688 116.959C68.1635 116.837 68.2929 116.747 68.44 116.699C68.6356 116.699 68.8731 116.545 69.0827 116.461L69.7394 116.196C70.1726 116 70.6057 115.805 71.0249 115.581C71.8919 115.12 72.7192 114.587 73.498 113.988C73.8772 113.7 74.241 113.392 74.5879 113.066C74.9351 112.742 75.2618 112.397 75.566 112.032C75.8824 111.667 76.1719 111.279 76.4323 110.872L76.6279 110.565L76.8095 110.23C76.9353 110.02 77.0331 109.797 77.1589 109.573" fill="#ECBAAB"/>
<path d="M121.003 127.179C102.839 110.188 141.753 95.6425 142.479 108.455C143.206 121.268 126.243 132.167 121.003 127.179Z" fill="#FDD9CC"/>
<path d="M122.721 117.817C122.77 116.705 123.144 115.631 123.797 114.729C124.398 113.819 125.101 112.98 125.892 112.228C127.471 110.703 129.3 109.46 131.3 108.553C132.352 108.06 133.482 107.753 134.639 107.645C134.973 107.605 135.311 107.605 135.645 107.645C136.063 107.724 136.45 107.918 136.763 108.204C136.937 108.357 137.079 108.542 137.182 108.749C137.253 108.911 137.309 109.08 137.35 109.252C137.45 109.568 137.502 109.898 137.504 110.23C137.433 111.441 136.938 112.588 136.106 113.472C135.398 114.326 134.541 115.045 133.577 115.595C134.236 114.784 134.812 113.909 135.296 112.983C135.763 112.189 135.982 111.274 135.925 110.356C135.89 110.168 135.834 109.985 135.757 109.811C135.757 109.811 135.673 109.615 135.645 109.587C135.617 109.559 135.645 109.587 135.645 109.587C135.371 109.475 135.07 109.446 134.779 109.503C133.851 109.667 132.949 109.954 132.096 110.356C130.262 111.194 128.516 112.215 126.885 113.402C126.057 113.992 125.277 114.646 124.551 115.358C123.79 116.049 123.19 116.898 122.791 117.845" fill="#ECBAAB"/>
<path d="M134.728 58.8107C134.574 13.9727 55.9501 38.4527 55.9501 38.4527C55.9501 38.4527 72.1025 48.1357 64.6271 48.9461C48.349 50.7066 38.8477 68.0327 38.8477 68.0327C38.8477 68.0327 69.0983 60.2918 62.6011 64.288C45.9038 74.4321 45.0096 85.6102 45.0096 85.6102C45.0096 85.6102 78.6835 68.9129 70.4257 75.2565C59.9463 83.2907 59.9603 93.9379 59.9603 93.9379C59.9603 93.9379 83.2805 86.5464 90.4066 84.4085C108.152 79.1269 112.092 78.8195 112.092 78.8195L106.112 91.3948L119.609 82.8855L114.439 107.393L123.214 98.8842L124.136 111.32C124.136 111.32 147.275 101.539 148.644 80.5801C150.014 59.6212 134.672 58.9085 134.672 58.9085" fill="#754D25"/>
<path d="M108.148 41.2329C107.002 40.66 105.926 40.0173 104.879 39.3606C103.831 38.7039 102.755 38.0891 101.735 37.4324L100.17 36.4822C99.6388 36.1748 99.1498 35.8116 98.6188 35.5321L97.0679 34.5959L96.6766 34.3584L96.2854 34.1348L95.5029 33.6877C94.469 33.0729 93.407 32.528 92.3591 31.9411L90.7662 31.1168L89.9558 30.7255L89.1454 30.3343C88.6144 30.0688 88.0555 29.8592 87.5106 29.5937L86.6723 29.2584C86.3928 29.1466 86.1134 29.0209 85.8339 28.9231C84.6855 28.4654 83.5036 28.0963 82.2988 27.8192C82.9164 27.631 83.5544 27.5184 84.1991 27.4839H85.1632H86.1273C86.4627 27.4839 86.7701 27.4839 87.0914 27.5817L88.0555 27.7074L89.0057 27.9031C89.3131 27.9729 89.6344 28.0288 89.9418 28.1266C90.5566 28.3083 91.1854 28.462 91.7862 28.6855L93.5747 29.3702C94.7474 29.8831 95.8903 30.4616 96.998 31.1028C98.0971 31.7331 99.1606 32.4235 100.184 33.1707C100.715 33.534 101.19 33.9392 101.693 34.3444C102.196 34.7496 102.657 35.1409 103.09 35.5601C103.998 36.4264 104.906 37.3066 105.759 38.2428C106.591 39.1958 107.37 40.194 108.092 41.2329" fill="#A67C52"/>
<path d="M138.202 39.8779C138.749 40.5482 139.153 41.3232 139.39 42.1555C139.517 42.572 139.615 42.9968 139.683 43.427C139.683 43.8601 139.795 44.2933 139.837 44.7264C139.913 46.4505 139.776 48.1774 139.431 49.8683C139.096 51.542 138.629 53.1866 138.034 54.7867C137.741 55.5831 137.447 56.3796 137.112 57.162C136.944 57.5533 136.763 57.9445 136.595 58.3218C136.427 58.699 136.232 59.0903 136.022 59.4955L134.136 57.4415C135.977 56.6715 137.913 56.1545 139.893 55.9045C140.133 55.8628 140.376 55.8348 140.619 55.8207L141.36 55.7508C141.849 55.7508 142.338 55.6809 142.827 55.6809C143.796 55.66 144.766 55.688 145.733 55.7648C147.65 55.9296 149.549 56.2663 151.406 56.7708C152.338 57.0223 153.246 57.3157 154.131 57.6511C155.023 57.9769 155.891 58.3644 156.73 58.8108C154.857 58.5174 153.013 58.3078 151.141 58.1681C149.313 58.038 147.48 58.0053 145.649 58.0703C143.857 58.1229 142.072 58.3191 140.312 58.6571C139.444 58.8222 138.586 59.032 137.741 59.2859C136.906 59.54 136.085 59.8385 135.282 60.1801L131.635 61.6892L133.381 58.1122L133.898 57.0642L134.401 55.9604C134.723 55.2338 135.058 54.4933 135.365 53.7527C135.994 52.2716 136.581 50.7766 137.084 49.2675C137.613 47.7659 138.02 46.2238 138.3 44.6566C138.628 43.0754 138.585 41.4396 138.174 39.8779" fill="#A67C52"/>
<path d="M83.3464 46.6266C80.9291 46.962 78.6236 47.1436 76.36 47.3532C74.0965 47.5628 71.7351 47.7444 69.3737 47.8981C67.0124 48.0518 64.7348 48.1916 62.3874 48.2614C60.04 48.3313 57.6927 48.3453 55.2754 48.1636C55.8203 47.8842 56.3792 47.6606 56.9381 47.437C57.497 47.2135 58.0699 47.0318 58.6428 46.8502C59.7885 46.4869 60.9343 46.1935 62.094 45.928C64.424 45.4258 66.7866 45.0896 69.1642 44.922C71.552 44.7613 73.9487 44.7893 76.3321 45.0058C77.5291 45.1332 78.7185 45.3244 79.8951 45.5787C81.0776 45.83 82.2367 46.1806 83.3603 46.6266" fill="#A67C52"/>
<path d="M108.246 67.0267C107.044 67.5158 105.926 68.0467 104.823 68.6196C103.719 69.1925 102.643 69.7793 101.581 70.4081C100.519 71.0368 99.4712 71.6516 98.4092 72.2944L95.2654 74.2505C93.1881 75.5733 91.0783 76.8867 88.9358 78.1908C86.784 79.4484 84.6742 80.7618 82.2988 81.9075C83.0585 80.8678 83.8846 79.8784 84.772 78.9453C85.6662 78.0232 86.5884 77.1429 87.5665 76.2906C89.4935 74.6095 91.5491 73.0818 93.7144 71.7215C94.8043 71.0508 95.9221 70.4081 97.0679 69.8352C98.2104 69.246 99.386 68.7235 100.589 68.2703C101.811 67.8189 103.068 67.4684 104.348 67.2223C105.629 66.9578 106.943 66.8872 108.246 67.0127" fill="#A67C52"/>
<path d="M68.6602 129.526C70.5441 130.601 72.6524 131.222 74.8181 131.341C76.9838 131.46 79.1474 131.073 81.1377 130.211" fill="#FDD9CC"/>
<path d="M68.6602 129.526C69.764 129.763 70.77 130.071 71.804 130.225C72.307 130.336 72.824 130.378 73.327 130.462H74.0815C74.333 130.462 74.5985 130.462 74.85 130.462C75.8784 130.525 76.9096 130.525 77.938 130.462C78.9859 130.462 80.0339 130.28 81.1377 130.141C80.9332 130.332 80.7083 130.501 80.467 130.644C80.2312 130.802 79.9836 130.942 79.7265 131.063C79.4749 131.189 79.2095 131.286 78.958 131.398L78.1476 131.664C77.0528 131.97 75.9156 132.098 74.7802 132.041C74.2116 132.02 73.6459 131.95 73.0895 131.831C72.528 131.716 71.9802 131.543 71.4547 131.314C70.4009 130.902 69.448 130.268 68.6602 129.456" fill="#ECBAAB"/>
<path d="M113.568 173.666C113.379 175.08 112.777 176.407 111.838 177.48C110.898 178.554 109.663 179.327 108.287 179.702C106.1 180.252 103.848 180.506 101.594 180.456C99.3334 180.443 97.0756 180.304 94.831 180.037C93.4337 179.884 92.3858 179.716 92.0365 179.674C90.1082 179.367 89.8707 177.718 90.1781 175.804C90.4855 173.889 91.24 172.408 93.1543 172.716C93.8808 172.827 94.7471 172.953 95.6973 173.051C99.2463 173.442 103.885 173.638 106.289 172.939C106.512 172.939 106.526 172.855 106.568 172.618C106.75 171.36 105.394 166.861 96.9269 161.342C96.145 160.83 95.5982 160.029 95.4069 159.115C95.2156 158.2 95.3955 157.247 95.9069 156.465C96.4183 155.684 97.2193 155.137 98.1338 154.945C99.0484 154.754 100.001 154.934 100.783 155.445C109.6 161.202 114.365 168.021 113.526 173.61" fill="#1779BF"/>
<path d="M95.7404 173.065C95.0696 174.257 94.5976 175.55 94.3431 176.893C94.3666 177.959 94.5119 179.019 94.7763 180.051C93.379 179.897 92.3311 179.73 91.9818 179.688C90.0536 179.366 89.816 177.732 90.1234 175.817C90.4308 173.903 91.1714 172.422 93.0996 172.729C93.8262 172.841 94.6925 172.967 95.6426 173.065" fill="#0B5B8F"/>
<path d="M85.6655 153.852C85.2324 155.585 87.5379 167.364 87.5379 167.364L93.4203 153.237L85.6655 153.852Z" fill="#1779BF"/>
<path d="M85.6127 152.259C85.4322 152.774 85.3748 153.324 85.4452 153.865C85.5156 154.407 85.7117 154.924 86.0179 155.375C86.355 155.796 86.7794 156.139 87.2619 156.38C87.7443 156.622 88.2733 156.755 88.8124 156.772C89.7365 156.767 90.6386 156.49 91.4063 155.976C92.1741 155.462 92.7735 154.733 93.13 153.88C93.4933 152.748 93.3675 152.189 92.6968 151.882C91.4952 151.337 89.3434 152.259 88.505 152.092C87.6667 151.924 85.7105 151.7 85.487 152.273" fill="#0B5B8F"/>
<path d="M85.4033 151.477C85.2298 152.027 85.1862 152.61 85.2759 153.179C85.3656 153.749 85.5861 154.29 85.9203 154.76C86.1811 155.197 86.5433 155.565 86.9762 155.833C87.4091 156.1 87.8999 156.26 88.4074 156.297C89.4441 156.334 90.4693 156.069 91.3592 155.536C92.2492 155.003 92.9661 154.224 93.4236 153.293C93.8148 152.064 93.689 151.449 92.9625 151.114C91.691 150.527 89.3156 151.7 88.4912 151.519C87.6668 151.337 85.5989 150.918 85.4033 151.519" fill="#1779BF"/>
<path d="M88.6042 168.034C88.7363 168.243 88.8035 168.485 88.7973 168.732C88.7911 168.978 88.7118 169.217 88.5694 169.419C88.4271 169.62 88.2281 169.774 87.9978 169.862C87.7675 169.95 87.5162 169.968 87.2759 169.913C87.0356 169.857 86.8172 169.732 86.6483 169.553C86.4794 169.373 86.3676 169.147 86.3273 168.904C86.287 168.661 86.3198 168.411 86.4217 168.187C86.5236 167.962 86.6899 167.773 86.8996 167.643C87.178 167.471 87.5131 167.415 87.8323 167.489C88.1514 167.562 88.4288 167.758 88.6042 168.034" fill="black"/>
<path d="M88.0144 181.797C88.1464 182.006 88.2136 182.248 88.2074 182.495C88.2012 182.741 88.1219 182.98 87.9796 183.181C87.8372 183.383 87.6383 183.537 87.4079 183.625C87.1776 183.713 86.9264 183.731 86.6861 183.676C86.4458 183.62 86.2273 183.495 86.0584 183.315C85.8895 183.136 85.7778 182.91 85.7375 182.667C85.6971 182.424 85.73 182.174 85.8319 181.949C85.9338 181.725 86.1001 181.536 86.3097 181.406C86.447 181.319 86.6003 181.26 86.7607 181.232C86.921 181.205 87.0852 181.209 87.2437 181.246C87.4023 181.282 87.552 181.35 87.6843 181.444C87.8166 181.539 87.9288 181.659 88.0144 181.797" fill="black"/>
<path d="M94.6511 186.492L94.5254 187.932L102.029 187.079L101.512 185.78L94.6511 186.492Z" fill="#0E3456"/>
<path d="M91.0482 171.667C89.1619 171.765 88.7147 176.069 88.9243 178.653C89.0361 180.051 89.2876 181.448 91.1739 180.749C92.2079 180.372 93.6051 180.917 94.2339 180.568C94.8627 180.218 93.9545 178.681 94.0523 176.739C94.1501 174.797 95.6731 173.009 95.3098 172.547C94.4295 171.555 93.703 172.254 92.9624 172.17C91.8446 172.058 92.2777 171.555 91.0482 171.625" fill="#1779BF"/>
</g>
</g>
</g>
</g>
<defs>
<clipPath id="clip0_3409_126528">
<rect width="204" height="204" rx="102" fill="white"/>
</clipPath>
<clipPath id="clip1_3409_126528">
<rect x="-7" width="204" height="204" rx="102" fill="white"/>
</clipPath>
<clipPath id="clip2_3409_126528">
<rect x="-7" width="204" height="204" rx="102" fill="white"/>
</clipPath>
<clipPath id="clip3_3409_126528">
<rect x="-7" width="204" height="204" rx="100" fill="white"/>
</clipPath>
</defs>
</svg>
