<svg width="194" height="174" viewBox="0 0 194 174" fill="none" xmlns="http://www.w3.org/2000/svg">
<path d="M22.9502 73.97C20.4202 73.11 17.9702 72.01 15.6402 70.7C13.2302 69.33 11.0002 67.66 9.00016 65.74C6.96017 63.76 5.24016 61.48 3.90016 58.97C2.57016 56.47 1.65016 53.78 1.17016 50.99C0.260163 45.57 0.930166 40 3.11017 34.96C4.18017 32.44 5.62016 30.11 7.39016 28.03C9.25016 25.85 11.5702 24.1 14.1802 22.91C15.0502 22.52 16.0302 22.49 16.9202 22.8C17.8102 23.11 18.5502 23.76 18.9902 24.6C19.4302 25.44 19.5202 26.42 19.2602 27.33C19.0002 28.24 18.4002 29.02 17.5902 29.5L17.3802 29.62C15.9002 30.5 14.6302 31.69 13.6402 33.09C12.5702 34.61 11.7502 36.28 11.1802 38.05C10.0102 41.57 9.88016 45.36 10.8102 48.96C11.7202 52.35 13.6902 55.37 16.4402 57.56C17.8602 58.67 19.4102 59.61 21.0502 60.36C22.7902 61.13 24.5902 61.74 26.4302 62.2L26.6202 62.25C27.4002 62.46 28.1302 62.82 28.7702 63.31C29.4102 63.8 29.9502 64.42 30.3502 65.12C30.7502 65.82 31.0202 66.59 31.1202 67.39C31.2202 68.19 31.1702 69 30.9602 69.78C30.7502 70.56 30.3902 71.29 29.9002 71.93C29.4102 72.57 28.7902 73.11 28.0902 73.51C27.3902 73.91 26.6202 74.18 25.8202 74.28C25.0202 74.38 24.2102 74.33 23.4202 74.12C23.2802 74.12 23.1002 74.03 22.9502 73.97Z" fill="#8BD74B"/>
<path d="M13.6002 23.3598L13.1802 21.4598C13.0702 20.7898 12.9902 20.1198 12.9002 19.4598C12.7702 18.0598 12.8102 16.6498 13.0302 15.2698C13.2602 13.7298 13.8002 12.2498 14.6202 10.9298C15.0702 10.2098 15.6102 9.5498 16.2202 8.9698C16.5402 8.6598 16.8902 8.36981 17.2602 8.10981C17.4502 7.97981 17.6302 7.8498 17.8602 7.7198C17.9802 7.6498 18.0702 7.58981 18.2102 7.52981C18.3702 7.44981 18.5402 7.3698 18.7202 7.3098C19.5402 7.0698 20.4102 7.1498 21.1702 7.5498C21.9202 7.9498 22.4902 8.61981 22.7502 9.43981C23.0102 10.2498 22.9402 11.1298 22.5502 11.8898C22.1702 12.6498 21.5002 13.2298 20.6902 13.4998C20.8402 13.4398 20.7702 13.4598 20.7802 13.4498C20.7902 13.4398 20.7302 13.4498 20.7102 13.4498C20.6502 13.4598 20.5902 13.4698 20.5302 13.4998C20.3802 13.5498 20.2302 13.6098 20.0902 13.6898C19.7702 13.8798 19.4702 14.0998 19.2102 14.3598C18.5902 14.9798 18.1102 15.7298 17.8002 16.5498C17.4202 17.4998 17.1702 18.4998 17.0502 19.5198C17.0102 20.0598 16.9502 20.5998 16.9202 21.1598V22.9998C16.9702 23.4398 16.8402 23.8898 16.5602 24.2398C16.2802 24.5898 15.8802 24.8098 15.4302 24.8598C14.9802 24.9098 14.5402 24.7798 14.1902 24.4998C13.8402 24.2198 13.6202 23.8198 13.5702 23.3698L13.6002 23.3598Z" fill="#8BD74B"/>
<path d="M13.9904 23.64L14.8204 21.88C15.1304 21.3 15.4904 20.73 15.8104 20.15C16.5704 18.97 17.4604 17.9 18.4804 16.94C19.6004 15.88 20.9204 15.05 22.3604 14.5C23.1404 14.21 23.9604 14.02 24.7904 13.93C25.2304 13.88 25.6804 13.86 26.1304 13.88C26.3604 13.88 26.5804 13.88 26.8304 13.93C26.9604 13.93 27.0604 13.93 27.2104 13.99C27.3904 14.02 27.5604 14.06 27.7304 14.12C28.1104 14.25 28.4604 14.46 28.7604 14.73C29.0604 15 29.3004 15.32 29.4704 15.69C29.6404 16.05 29.7404 16.45 29.7604 16.85C29.7804 17.25 29.7204 17.65 29.5904 18.03C29.4604 18.41 29.2504 18.76 28.9804 19.06C28.7104 19.36 28.3904 19.6 28.0204 19.77C27.6504 19.94 27.2604 20.04 26.8604 20.06C26.4604 20.08 26.0604 20.02 25.6804 19.89C25.8204 19.93 25.7504 19.89 25.7604 19.89C25.7704 19.89 25.7204 19.89 25.7004 19.85C25.6404 19.82 25.5704 19.8 25.5104 19.78C25.3504 19.73 25.1904 19.7 25.0204 19.68C24.6504 19.63 24.2704 19.63 23.8904 19.68C23.0104 19.82 22.1704 20.15 21.4304 20.63C20.5604 21.18 19.7604 21.84 19.0504 22.58C18.7004 22.99 18.3304 23.39 17.9704 23.82L16.9704 25.16L16.8804 25.28C16.6404 25.62 16.2704 25.86 15.8604 25.94C15.4504 26.03 15.0204 25.95 14.6604 25.74C14.3004 25.53 14.0304 25.18 13.9104 24.78C13.7904 24.38 13.8304 23.95 14.0104 23.57L13.9904 23.64Z" fill="#8BD74B"/>
<path d="M15.0902 25.7898C16.0302 24.8798 17.1203 24.1498 18.3203 23.6198C19.5803 23.0598 20.9503 22.7698 22.3303 22.7498C23.6903 22.7198 25.0402 22.8998 26.3402 23.2798C26.9802 23.4598 27.6103 23.6898 28.2203 23.9498C28.5203 24.0798 28.8303 24.2298 29.1303 24.3798C29.4703 24.5498 29.8002 24.7498 30.1202 24.9598L32.0002 26.2398C32.5203 26.5898 32.9303 27.0598 33.2203 27.6198C33.5103 28.1698 33.6502 28.7898 33.6402 29.4098C33.6302 30.0298 33.4602 30.6398 33.1502 31.1798C32.8402 31.7198 32.4003 32.1798 31.8803 32.5098C31.3503 32.8398 30.7503 33.0298 30.1303 33.0698C29.5103 33.1098 28.8903 32.9898 28.3203 32.7298C27.7603 32.4698 27.2702 32.0698 26.9002 31.5698C26.5302 31.0698 26.2902 30.4798 26.2002 29.8698C26.1002 29.7498 25.9803 29.6298 25.8603 29.5298C25.7103 29.3998 25.5503 29.2698 25.3803 29.1398C25.0403 28.8998 24.6903 28.6698 24.3303 28.4698C23.6203 28.0598 22.8503 27.7598 22.0503 27.5798C21.2703 27.3998 20.4503 27.3798 19.6603 27.5298C18.8003 27.6898 17.9803 27.9898 17.2403 28.4398L17.0302 28.5498C16.6702 28.7398 16.2503 28.7898 15.8603 28.6898C15.4703 28.5898 15.1202 28.3498 14.8902 28.0198C14.6602 27.6898 14.5603 27.2798 14.6103 26.8798C14.6603 26.4798 14.8502 26.0998 15.1502 25.8298L15.0902 25.7898Z" fill="#8BD74B"/>
<path d="M156.689 98.4598C156.729 103.13 156.179 107.79 155.069 112.33C147.869 140.91 117.509 150.7 81.1094 150.7C44.6994 150.7 14.3194 140.89 7.14941 112.33C6.02941 107.79 5.48941 103.13 5.52941 98.4598C5.52941 82.6898 10.9694 65.0598 20.1794 49.6298C22.0494 46.4798 24.0694 43.4398 26.2494 40.4998C40.0194 21.9098 59.5094 8.2998 81.1094 8.2998C122.859 8.2998 156.689 59.1198 156.689 98.4598Z" fill="#8BD74B"/>
<path d="M110.629 51.04C113.959 51.04 116.649 48.34 116.649 45.02C116.649 41.69 113.949 39 110.629 39C107.299 39 104.609 41.7 104.609 45.02C104.609 48.34 107.309 51.04 110.629 51.04Z" fill="#B0E881"/>
<path d="M105.4 35.3299C114.91 35.3299 122.62 27.6199 122.62 18.1099C122.62 8.5999 114.91 0.899902 105.4 0.899902C95.8897 0.899902 88.1797 8.6099 88.1797 18.1199C88.1797 27.6299 95.8897 35.3299 105.4 35.3299Z" fill="#8BD74B"/>
<path d="M104.331 29.9601C111.761 29.9601 117.781 23.9401 117.781 16.5101C117.781 9.08006 111.761 3.06006 104.331 3.06006C96.9008 3.06006 90.8809 9.08006 90.8809 16.5101C90.8809 23.9401 96.9008 29.9601 104.331 29.9601Z" fill="white"/>
<path d="M101.231 20.1098C105.101 20.1098 108.241 16.9698 108.241 13.0998C108.241 9.22984 105.101 6.08984 101.231 6.08984C97.3607 6.08984 94.2207 9.22984 94.2207 13.0998C94.2207 16.9698 97.3607 20.1098 101.231 20.1098Z" fill="#183B59"/>
<path d="M43.2402 35.5599C52.2602 35.5599 59.5702 28.2499 59.5702 19.2299C59.5702 10.2099 52.2602 2.8999 43.2402 2.8999C34.2202 2.8999 26.9102 10.2099 26.9102 19.2299C26.9102 28.2499 34.2202 35.5599 43.2402 35.5599Z" fill="#8BD74B"/>
<path d="M42.2209 30.4599C49.2709 30.4599 54.9809 24.7499 54.9809 17.6999C54.9809 10.6499 49.2709 4.93994 42.2209 4.93994C35.1709 4.93994 29.4609 10.6499 29.4609 17.6999C29.4609 24.7499 35.1709 30.4599 42.2209 30.4599Z" fill="white"/>
<path d="M39.4195 21.2299C43.0895 21.2299 46.0695 18.2499 46.0695 14.5799C46.0695 10.9099 43.0895 7.92993 39.4195 7.92993C35.7495 7.92993 32.7695 10.9099 32.7695 14.5799C32.7695 18.2599 35.7495 21.2299 39.4195 21.2299Z" fill="#183B59"/>
<path d="M128.42 102.77C128.42 133.57 101.04 151.86 61.6295 151.19C28.4395 150.63 1.51953 126.22 1.51953 95.4199C1.51953 64.6199 28.4395 39.6499 61.6295 39.6499C94.8195 39.6499 128.42 71.9599 128.42 102.77Z" fill="#B0E881"/>
<path d="M97.6795 128.38C103.84 128.38 108.84 123.38 108.84 117.22C108.84 111.06 103.84 106.06 97.6795 106.06C91.5195 106.06 86.5195 111.06 86.5195 117.22C86.5195 123.38 91.5195 128.38 97.6795 128.38Z" fill="#DFF6CD"/>
<path d="M97.6796 128.52C95.4396 128.52 93.2596 127.86 91.3996 126.62C89.5396 125.38 88.0896 123.61 87.2396 121.55C86.3796 119.49 86.1597 117.21 86.5997 115.02C87.0397 112.83 88.1097 110.81 89.6897 109.23C91.2697 107.65 93.2797 106.57 95.4797 106.14C97.6697 105.7 99.9397 105.93 102.01 106.78C104.08 107.64 105.84 109.08 107.08 110.94C108.32 112.8 108.98 114.98 108.98 117.22C108.98 120.22 107.78 123.09 105.67 125.21C103.55 127.32 100.68 128.52 97.6796 128.52ZM97.6796 106.2C95.4996 106.2 93.3696 106.85 91.5596 108.06C89.7496 109.27 88.3397 110.99 87.4997 113.01C86.6697 115.02 86.4496 117.24 86.8696 119.38C87.2996 121.52 88.3397 123.48 89.8897 125.02C91.4297 126.56 93.3896 127.61 95.5296 128.04C97.6697 128.47 99.8796 128.25 101.9 127.41C103.91 126.58 105.63 125.16 106.85 123.35C108.06 121.54 108.71 119.41 108.71 117.23C108.71 114.31 107.55 111.5 105.49 109.43C103.42 107.36 100.62 106.19 97.6897 106.19V106.2H97.6796Z" fill="#F2F2F2"/>
<path d="M72.2404 112.75C76.4304 112.75 79.8304 109.35 79.8304 105.16C79.8304 100.97 76.4304 97.5698 72.2404 97.5698C68.0504 97.5698 64.6504 100.97 64.6504 105.16C64.6504 109.35 68.0404 112.75 72.2404 112.75Z" fill="#DFF6CD"/>
<path d="M72.2404 112.9C70.7104 112.9 69.2104 112.45 67.9404 111.6C66.6704 110.75 65.6704 109.54 65.0904 108.13C64.5004 106.72 64.3504 105.16 64.6504 103.66C64.9504 102.16 65.6804 100.78 66.7704 99.6998C67.8504 98.6198 69.2304 97.8798 70.7304 97.5798C72.2304 97.2798 73.7904 97.4298 75.2004 98.0198C76.6104 98.6098 77.8204 99.5998 78.6704 100.87C79.5204 102.14 79.9704 103.64 79.9704 105.17C79.9704 107.22 79.1504 109.18 77.7104 110.63C76.2604 112.08 74.2904 112.89 72.2404 112.9ZM72.2404 97.7198C70.7704 97.7198 69.3204 98.1598 68.1004 98.9698C66.8704 99.7898 65.9204 100.95 65.3504 102.31C64.7904 103.67 64.6404 105.17 64.9204 106.62C65.2104 108.07 65.9204 109.4 66.9604 110.44C68.0004 111.48 69.3304 112.19 70.7804 112.48C72.2304 112.77 73.7304 112.62 75.0904 112.05C76.4504 111.48 77.6204 110.53 78.4304 109.3C79.2504 108.07 79.6904 106.63 79.6804 105.16C79.6704 103.19 78.8904 101.3 77.4904 99.8998C76.1104 98.5098 74.2204 97.7198 72.2404 97.7198Z" fill="#F2F2F2"/>
<path d="M88.9795 98.4699C91.0795 98.4699 92.7694 96.7699 92.7694 94.6799C92.7694 92.5799 91.0695 90.8899 88.9795 90.8899C86.8795 90.8899 85.1895 92.5899 85.1895 94.6799C85.1895 96.7699 86.8795 98.4699 88.9795 98.4699Z" fill="#DFF6CD"/>
<path d="M88.9798 98.6099C88.1998 98.6099 87.4398 98.3799 86.7898 97.9499C86.1398 97.5199 85.6398 96.8999 85.3398 96.1799C85.0398 95.4599 84.9598 94.6699 85.1198 93.9099C85.2698 93.1499 85.6498 92.4499 86.1998 91.8999C86.7498 91.3499 87.4498 90.9699 88.2098 90.8199C88.9698 90.6699 89.7598 90.7499 90.4798 91.0399C91.1998 91.3399 91.8098 91.8399 92.2498 92.4899C92.6798 93.1399 92.9098 93.8999 92.9098 94.6799C92.9098 95.7199 92.4998 96.7199 91.7598 97.4599C91.0198 98.1999 90.0198 98.6099 88.9798 98.6099ZM88.9798 91.0199C88.2598 91.0199 87.5498 91.2299 86.9498 91.6399C86.3498 92.0399 85.8798 92.6099 85.5998 93.2799C85.3198 93.9499 85.2498 94.6799 85.3898 95.3899C85.5298 96.0999 85.8798 96.7499 86.3898 97.2599C86.8998 97.7699 87.5498 98.1199 88.2598 98.2599C88.9698 98.3999 89.6998 98.3299 90.3698 98.0499C91.0398 97.7699 91.6098 97.3099 92.0098 96.6999C92.4098 96.0999 92.6298 95.3899 92.6298 94.6699C92.6298 93.6999 92.2498 92.7699 91.5598 92.0899C90.8798 91.4099 89.9498 91.0199 88.9798 91.0199Z" fill="#F2F2F2"/>
<path d="M27.1494 43.67C27.1494 44.46 26.9895 45.24 26.6895 45.97C26.3895 46.7 25.9495 47.36 25.3895 47.92C24.8295 48.48 24.1695 48.92 23.4395 49.22C22.7095 49.52 21.9295 49.68 21.1395 49.68C20.8195 49.68 20.5095 49.65 20.1895 49.61C22.0595 46.46 24.0794 43.42 26.2594 40.48C26.8494 41.44 27.1594 42.55 27.1494 43.67Z" fill="#B0E881"/>
<path d="M89.7695 17.8398C101.49 13.0598 119.74 13.5998 119.74 18.5898C119.74 23.5798 113.82 34.2598 103.4 32.2998C92.9795 30.3398 89.7695 17.8398 89.7695 17.8398Z" fill="#8BD74B"/>
<path d="M28.7598 19.5799C38.8698 15.4899 54.9798 14.8999 54.9798 19.2099C54.9798 23.5199 49.8698 32.6199 40.8798 30.9499C31.8898 29.2599 28.7598 19.5799 28.7598 19.5799Z" fill="#8BD74B"/>
<path d="M50.1309 30.8999C51.8009 29.1799 53.7809 27.7899 55.9709 26.7899C58.1709 25.7699 60.4909 25.0399 62.8809 24.6099C68.9309 23.4999 75.1709 24.1499 80.8609 26.4999C82.0009 26.9799 83.1009 27.5399 84.1709 28.1599C86.2009 29.4199 88.1308 30.8499 89.9308 32.4299C91.6208 33.8999 93.4008 35.2599 95.2708 36.4999C96.2108 37.0999 97.1908 37.6199 98.2108 38.0699C99.2708 38.5199 100.371 38.8699 101.501 39.1099C99.1109 39.4099 96.6909 39.1299 94.4409 38.2999C92.2109 37.4699 90.0708 36.3999 88.0508 35.1199C86.1908 33.9099 84.2609 32.8199 82.2709 31.8399C80.3109 30.9799 78.2909 30.2899 76.2109 29.7699C72.0009 28.7299 67.6709 28.2799 63.3309 28.4299C58.8209 28.5399 54.3609 29.3699 50.1309 30.8999Z" fill="#46B755"/>
<path d="M133.541 114.75C133.211 116.75 132.931 118.72 132.541 120.69L131.871 123.64L131.541 125.1L131.141 126.56L130.341 129.46C130.051 130.42 129.711 131.37 129.401 132.32C128.811 134.24 128.001 136.09 127.281 137.95C125.711 141.65 123.851 145.22 121.741 148.64L120.931 149.92C120.661 150.34 120.361 150.75 120.081 151.17C119.531 152 118.921 152.81 118.301 153.62C117.691 154.43 117.041 155.22 116.371 156C116.031 156.39 115.701 156.77 115.331 157.16L114.781 157.75L114.111 158.38C113.441 159.06 112.551 159.45 111.601 159.48C110.651 159.51 109.731 159.18 109.021 158.55C108.311 157.92 107.871 157.04 107.791 156.1C107.711 155.16 107.991 154.22 108.581 153.47L108.841 153.14L109.151 152.75C109.271 152.6 109.401 152.42 109.521 152.26C109.771 151.93 110.011 151.59 110.251 151.22C110.731 150.52 111.211 149.79 111.651 149.04C112.101 148.29 112.551 147.54 112.951 146.76C113.161 146.37 113.381 145.99 113.571 145.6L114.151 144.41C115.671 141.23 116.951 137.94 117.981 134.56C118.431 132.84 118.961 131.17 119.321 129.43C119.501 128.57 119.711 127.71 119.871 126.85L120.301 124.24L120.511 122.9L120.661 121.56L120.951 118.93C121.101 117.17 121.161 115.4 121.271 113.65V113.27C121.371 112.47 121.621 111.69 122.021 110.98C122.421 110.27 122.951 109.65 123.591 109.15C124.231 108.65 124.961 108.28 125.741 108.06C126.521 107.84 127.331 107.78 128.141 107.87C128.941 107.97 129.721 108.22 130.431 108.62C131.141 109.02 131.761 109.55 132.261 110.19C132.761 110.83 133.131 111.56 133.351 112.34C133.581 113.13 133.641 113.94 133.541 114.75Z" fill="#8BD74B"/>
<path d="M108.471 155.86L106.791 155.67C106.241 155.67 105.691 155.67 105.151 155.62C104.121 155.64 103.111 155.78 102.121 156.05C101.271 156.27 100.481 156.67 99.7908 157.21C99.5108 157.45 99.2607 157.72 99.0507 158.02C98.9607 158.15 98.8808 158.28 98.8108 158.43C98.7808 158.49 98.7607 158.55 98.7407 158.61C98.7407 158.61 98.7407 158.67 98.7407 158.68C98.7407 158.69 98.7407 158.74 98.8007 158.6C98.6307 159.02 98.3608 159.4 98.0308 159.72C97.7008 160.03 97.3007 160.28 96.8707 160.43C96.4407 160.58 95.9807 160.64 95.5207 160.6C95.0607 160.56 94.6208 160.43 94.2208 160.21C93.8208 159.99 93.4708 159.69 93.1908 159.32C92.9108 158.96 92.7207 158.54 92.6207 158.09C92.5207 157.64 92.5108 157.18 92.6008 156.73C92.6908 156.28 92.8708 155.86 93.1408 155.48C93.2108 155.37 93.2807 155.26 93.3707 155.16C93.5107 154.96 93.6608 154.78 93.8208 154.6C94.1208 154.26 94.4408 153.95 94.7808 153.66C95.4308 153.12 96.1508 152.65 96.9108 152.28C98.3208 151.61 99.8407 151.24 101.401 151.17C102.801 151.1 104.211 151.21 105.581 151.5C106.251 151.66 106.921 151.81 107.511 151.99L109.351 152.62C109.731 152.76 110.051 153.03 110.251 153.39C110.451 153.75 110.511 154.17 110.421 154.56C110.331 154.96 110.101 155.31 109.771 155.55C109.441 155.79 109.031 155.9 108.631 155.86H108.471Z" fill="#8BD74B"/>
<path d="M110.869 156.17L109.409 157.02C108.939 157.32 108.499 157.65 108.069 157.95C107.249 158.57 106.509 159.3 105.869 160.11C105.309 160.8 104.899 161.6 104.659 162.45C104.569 162.82 104.519 163.19 104.529 163.57C104.529 163.74 104.539 163.9 104.579 164.06C104.589 164.13 104.599 164.19 104.629 164.25V164.32C104.629 164.31 104.629 164.39 104.629 164.24C104.719 164.63 104.739 165.04 104.669 165.43C104.609 165.83 104.459 166.21 104.249 166.55C104.039 166.89 103.759 167.19 103.439 167.42C103.109 167.66 102.749 167.82 102.349 167.92C101.959 168.01 101.549 168.03 101.159 167.96C100.759 167.9 100.379 167.75 100.039 167.54C99.6993 167.33 99.3993 167.05 99.1693 166.73C98.9293 166.4 98.7693 166.03 98.6693 165.64C98.6293 165.46 98.6093 165.28 98.5993 165.11C98.5993 164.96 98.5993 164.86 98.5993 164.73C98.5893 164.5 98.5893 164.26 98.5993 164.03C98.6293 163.58 98.6893 163.13 98.7893 162.69C98.9693 161.87 99.2493 161.08 99.6193 160.34C100.319 158.97 101.279 157.75 102.459 156.75C103.519 155.84 104.689 155.07 105.949 154.45C106.559 154.18 107.169 153.9 107.769 153.66L109.609 153.03C109.999 152.9 110.429 152.92 110.809 153.09C111.189 153.26 111.489 153.55 111.659 153.93C111.829 154.31 111.859 154.73 111.729 155.12C111.609 155.51 111.339 155.85 110.989 156.06L110.869 156.17Z" fill="#8BD74B"/>
<path d="M114 156.74C113.48 157.43 113.08 158.21 112.83 159.04C112.6 159.81 112.53 160.62 112.63 161.42C112.73 162.24 112.96 163.03 113.3 163.78C113.47 164.16 113.66 164.54 113.87 164.9C113.98 165.08 114.09 165.25 114.2 165.41C114.28 165.55 114.39 165.67 114.51 165.78C115.11 165.93 115.66 166.24 116.12 166.66C116.57 167.08 116.92 167.61 117.12 168.2C117.32 168.79 117.37 169.42 117.26 170.03C117.16 170.64 116.9 171.22 116.52 171.71C116.14 172.2 115.64 172.58 115.07 172.83C114.5 173.08 113.88 173.18 113.26 173.13C112.64 173.08 112.05 172.87 111.53 172.53C111.01 172.19 110.58 171.72 110.29 171.18L109.21 169.18C109.03 168.84 108.87 168.49 108.74 168.13C108.62 167.82 108.51 167.5 108.41 167.17C108.21 166.53 108.06 165.89 107.94 165.23C107.7 163.91 107.67 162.55 107.85 161.22C108.03 159.86 108.48 158.54 109.19 157.36C109.85 156.23 110.69 155.23 111.69 154.39C111.99 154.12 112.38 153.96 112.79 153.96C113.2 153.96 113.59 154.1 113.9 154.37C114.21 154.64 114.41 155.01 114.46 155.41C114.51 155.81 114.42 156.22 114.19 156.56L114 156.74Z" fill="#8BD74B"/>
<path d="M146.191 131.01C149.401 132.07 152.551 133.3 155.621 134.71C158.691 136.1 161.701 137.6 164.661 139.29C167.701 140.98 170.601 142.91 173.341 145.06C174.851 146.25 176.241 147.6 177.491 149.07C178.231 149.96 178.871 150.94 179.391 151.98C180.101 153.38 180.461 154.94 180.431 156.52C180.401 157.15 180.251 157.77 179.981 158.34C179.711 158.91 179.331 159.42 178.861 159.85C178.391 160.27 177.841 160.6 177.241 160.8C176.641 161.01 176.011 161.09 175.381 161.06C174.751 161.02 174.131 160.86 173.571 160.58C173.001 160.3 172.501 159.91 172.081 159.43C171.671 158.95 171.351 158.4 171.151 157.8C170.951 157.2 170.881 156.57 170.931 155.93C170.971 156.18 171.041 156.04 170.931 155.72C170.781 155.27 170.571 154.83 170.321 154.43C169.571 153.3 168.711 152.26 167.751 151.3C165.581 149.13 163.231 147.14 160.741 145.34C158.211 143.46 155.551 141.7 152.831 140.04C150.121 138.38 147.331 136.87 144.461 135.52C143.911 135.26 143.481 134.8 143.261 134.24C143.041 133.68 143.031 133.05 143.261 132.48C143.491 131.91 143.911 131.45 144.461 131.19C145.011 130.93 145.631 130.88 146.211 131.06L146.191 131.01Z" fill="#8BD74B"/>
<path d="M143.9 132.17C146.39 133.39 148.71 134.92 150.82 136.72C152.89 138.44 154.83 140.31 156.63 142.31C158.48 144.33 160.17 146.5 161.68 148.79C162.49 150.03 163.2 151.33 163.82 152.67C164.17 153.44 164.46 154.23 164.69 155.04C164.99 156.08 165.13 157.15 165.13 158.23C165.1 158.86 164.94 159.48 164.67 160.05C164.4 160.62 164.02 161.13 163.55 161.55C163.08 161.97 162.53 162.29 161.93 162.5C161.33 162.71 160.7 162.79 160.07 162.75C159.44 162.71 158.82 162.55 158.26 162.27C157.69 161.99 157.19 161.6 156.78 161.12C156.37 160.64 156.05 160.09 155.85 159.49C155.65 158.89 155.58 158.26 155.63 157.63C155.68 157.67 155.71 157.39 155.68 157.06C155.64 156.64 155.56 156.22 155.45 155.8C155.17 154.78 154.81 153.78 154.37 152.82C153.41 150.7 152.28 148.66 150.99 146.72C149.69 144.73 148.25 142.83 146.68 141.04C145.19 139.28 143.48 137.71 141.6 136.36L141.52 136.31C141.02 135.97 140.66 135.46 140.52 134.87C140.38 134.28 140.47 133.66 140.77 133.13C141.07 132.6 141.56 132.21 142.14 132.03C142.72 131.85 143.34 131.9 143.89 132.16V132.17H143.9Z" fill="#8BD74B"/>
<path d="M146.691 129.69C149.381 129.02 152.151 128.7 154.921 128.73C157.601 128.73 160.281 128.91 162.931 129.28C165.641 129.64 168.321 130.22 170.941 131.01C172.361 131.44 173.741 131.97 175.071 132.61C175.831 132.97 176.561 133.39 177.251 133.87C178.151 134.47 178.951 135.19 179.631 136.03C180.021 136.53 180.311 137.11 180.471 137.72C180.631 138.33 180.681 138.98 180.591 139.61C180.501 140.24 180.291 140.85 179.961 141.39C179.631 141.94 179.201 142.41 178.691 142.79C178.181 143.17 177.591 143.44 176.981 143.59C176.361 143.74 175.721 143.76 175.091 143.66C174.461 143.56 173.861 143.33 173.321 142.99C172.781 142.65 172.321 142.2 171.951 141.68C172.011 141.68 171.861 141.45 171.621 141.21C171.321 140.91 170.991 140.64 170.641 140.4C169.771 139.8 168.861 139.27 167.901 138.81C165.801 137.8 163.621 136.96 161.391 136.3C159.111 135.61 156.791 135.08 154.441 134.71C152.171 134.32 149.861 134.22 147.561 134.4H147.541C146.961 134.43 146.391 134.24 145.931 133.88C145.481 133.52 145.171 133.01 145.061 132.43C144.961 131.86 145.061 131.27 145.361 130.77C145.661 130.27 146.131 129.9 146.681 129.72L146.691 129.69Z" fill="#8BD74B"/>
<path d="M138.28 117.63C142.09 115.12 145.71 112.32 149.09 109.25C152.61 106.1 156.03 102.69 159.39 99.1301C162.75 95.5701 166.07 91.8601 169.41 88.0401C171.11 86.1201 172.79 84.1901 174.75 82.1001C175.26 81.5701 175.79 81.0301 176.42 80.4401C176.74 80.1401 177.09 79.8301 177.5 79.4701C178.04 79.0101 178.609 78.5801 179.209 78.1901C179.789 77.8201 180.4 77.5001 181.03 77.2401C181.29 77.1301 181.55 77.0401 181.82 76.9601L182.329 76.8101C182.519 76.7601 182.639 76.7401 182.899 76.6901C183.159 76.6401 183.37 76.6201 183.57 76.5901L183.94 76.5601H184.39C184.7 76.5601 185 76.5601 185.31 76.5901C185.68 76.6301 186.059 76.6901 186.429 76.7701C186.619 76.8101 186.789 76.8501 186.989 76.9101C187.189 76.9701 187.389 77.0401 187.59 77.1201C187.99 77.2701 188.38 77.4501 188.75 77.6501C189.13 77.8501 189.489 78.0701 189.829 78.3201C190.669 78.9801 191.389 79.7701 191.959 80.6801C192.049 80.8301 192.11 80.9301 192.17 81.0301L192.34 81.3501C192.45 81.5601 192.55 81.7901 192.64 82.0201C193.02 82.9701 193.25 83.9701 193.31 84.9901C193.34 85.3501 193.31 85.5601 193.34 85.8401C193.369 86.1301 193.34 86.3101 193.34 86.5101C193.34 86.9001 193.28 87.2401 193.25 87.5301C193.17 88.1301 193.079 88.6201 192.989 89.0701C192.659 90.5601 192.24 92.0301 191.73 93.4701L191.079 95.4701L190.28 97.4701C189.17 100.15 187.86 102.75 186.38 105.25C183.43 110.24 179.719 114.75 175.399 118.61C171.16 122.38 166.4 125.52 161.26 127.93C156.27 130.26 151.009 131.98 145.609 133.05C144.429 133.28 143.21 133.04 142.2 132.4C141.19 131.76 140.449 130.76 140.149 129.6C139.849 128.44 140 127.21 140.57 126.15C141.14 125.1 142.09 124.3 143.23 123.92C152.25 120.99 160.37 116.05 166.22 109.39C169.12 106.1 171.499 102.38 173.269 98.3601C174.149 96.3601 174.89 94.3101 175.48 92.2101L175.899 90.6201L176.26 89.0101C176.47 87.9701 176.72 86.7301 176.82 86.0201C176.83 85.9001 176.83 85.7901 176.82 85.6701C176.82 85.6701 176.82 85.6701 176.82 85.7401C176.82 85.8101 176.82 85.8601 176.82 85.9201C176.82 85.9801 176.82 86.1001 176.82 86.3001C176.87 87.0001 177.04 87.6901 177.31 88.3401C177.38 88.5101 177.47 88.7101 177.56 88.8801L177.709 89.1501L177.88 89.4501C178.19 89.9601 178.56 90.4201 178.98 90.8501C179.23 91.0901 179.5 91.3101 179.78 91.5201C180.09 91.7701 180.41 91.9901 180.76 92.1901C181.1 92.3801 181.45 92.5401 181.82 92.6801C182 92.7501 182.18 92.8101 182.369 92.8601L182.869 92.9901C183.2 93.0601 183.529 93.1201 183.869 93.1401C184.139 93.1701 184.4 93.1801 184.67 93.1701H185.07H185.38C185.57 93.1701 185.77 93.1201 185.97 93.0901L186.42 92.9901L186.82 92.8801C187.04 92.8101 187.2 92.7501 187.39 92.6801C187.74 92.5501 188.07 92.3801 188.38 92.1801C188.66 92.0101 188.639 92.0201 188.59 92.0801L188.28 92.4101C188.01 92.7001 187.669 93.0801 187.329 93.5001C185.919 95.1801 184.369 97.1701 182.829 99.1601C179.729 103.17 176.53 107.26 173.17 111.3C169.81 115.34 166.28 119.31 162.48 123.22C158.58 127.23 154.369 130.94 149.899 134.29L149.85 134.34C148.78 135.14 147.55 135.71 146.26 136.04C144.96 136.36 143.62 136.43 142.29 136.23C139.62 135.83 137.219 134.39 135.609 132.22C133.999 130.05 133.32 127.33 133.72 124.66C134.12 121.99 135.56 119.59 137.73 117.98L138.28 117.63Z" fill="#8BD74B"/>
</svg>
