<svg width="229" height="177" viewBox="0 0 229 177" fill="none" xmlns="http://www.w3.org/2000/svg">
<path d="M58.8894 139.95C56.8494 142.38 54.9394 144.92 53.1694 147.56C51.3894 150.23 49.7094 152.9 48.1894 155.68C46.6794 158.36 45.3794 161.15 44.3194 164.03C43.8494 165.3 43.5094 166.61 43.2994 167.95C43.2394 168.42 43.2394 168.9 43.2994 169.38C43.3494 169.71 43.4794 169.81 43.4094 169.57C43.7294 170.12 43.9294 170.73 44.0094 171.36C44.0894 171.99 44.0394 172.63 43.8594 173.24C43.6894 173.85 43.3894 174.42 42.9894 174.92C42.5894 175.42 42.0994 175.83 41.5394 176.13C40.9794 176.43 40.3694 176.62 39.7294 176.68C39.0994 176.74 38.4594 176.67 37.8494 176.48C37.2394 176.29 36.6794 175.98 36.1994 175.57C35.7194 175.16 35.3194 174.65 35.0294 174.09C34.3394 172.67 34.0194 171.1 34.0794 169.53C34.1094 168.37 34.2794 167.22 34.5894 166.1C35.1094 164.25 35.8094 162.46 36.6894 160.76C38.2794 157.66 40.1194 154.69 42.1794 151.88C44.1794 149.12 46.2694 146.49 48.4694 143.95C50.6694 141.39 52.9994 138.94 55.4694 136.64C55.9094 136.18 56.5194 135.92 57.1594 135.91C57.7994 135.9 58.4094 136.14 58.8694 136.59C59.3294 137.03 59.5894 137.64 59.5994 138.28C59.6094 138.92 59.3694 139.53 58.9294 139.99H58.8894V139.95Z" fill="#8BD74B"/>
<path d="M61.8784 139.58C60.7284 141.58 59.8285 143.71 59.2085 145.93C58.5285 148.21 58.0184 150.54 57.6684 152.9C57.3084 155.2 57.1384 157.53 57.1484 159.86C57.1484 160.92 57.2384 161.97 57.4184 163.01C57.4884 163.43 57.5884 163.85 57.7284 164.25C57.8484 164.56 57.9984 164.8 58.0184 164.74C58.3384 165.29 58.5384 165.9 58.6184 166.53C58.6984 167.16 58.6484 167.8 58.4684 168.41C58.2984 169.02 57.9984 169.59 57.5984 170.09C57.1984 170.59 56.7084 171 56.1484 171.3C55.5884 171.6 54.9784 171.79 54.3384 171.85C53.7084 171.91 53.0685 171.84 52.4585 171.65C51.8485 171.46 51.2884 171.15 50.8084 170.74C50.3284 170.33 49.9284 169.82 49.6384 169.26C49.1784 168.28 48.8684 167.25 48.6984 166.18C48.5784 165.35 48.5084 164.5 48.5084 163.66C48.4984 162.18 48.6084 160.71 48.8284 159.25C49.2384 156.53 49.8685 153.85 50.7085 151.24C51.5185 148.67 52.4984 146.16 53.6584 143.73C54.8184 141.21 56.2884 138.85 58.0384 136.7C58.4284 136.25 58.9785 135.96 59.5685 135.89C60.1585 135.82 60.7584 135.97 61.2484 136.32C61.7384 136.67 62.0784 137.18 62.1984 137.77C62.3284 138.36 62.2284 138.97 61.9284 139.48L61.8784 139.58Z" fill="#8BD74B"/>
<path d="M55.5598 140.29C53.3998 141.09 51.3398 142.14 49.4398 143.44C47.4598 144.76 45.5698 146.21 43.7898 147.79C42.0398 149.32 40.4098 151 38.9198 152.79C38.2398 153.6 37.6398 154.47 37.0998 155.38C36.8798 155.75 36.6998 156.13 36.5498 156.53C36.4398 156.84 36.3998 157.12 36.4598 157.1C36.1998 158.34 35.4698 159.43 34.4098 160.12C33.3498 160.82 32.0598 161.06 30.8198 160.81C29.5798 160.56 28.4898 159.82 27.7998 158.76C27.0998 157.7 26.8598 156.41 27.1098 155.17C27.3898 154.13 27.8098 153.13 28.3698 152.21C28.8098 151.49 29.2998 150.81 29.8398 150.16C30.7798 149.02 31.8098 147.95 32.9198 146.97C34.9798 145.16 37.1798 143.51 39.4898 142.04C41.7598 140.59 44.1198 139.3 46.5698 138.18C49.0798 136.99 51.7198 136.13 54.4398 135.61C55.0398 135.49 55.6598 135.61 56.1798 135.94C56.6998 136.27 57.0698 136.78 57.2198 137.37C57.3698 137.96 57.2898 138.59 56.9998 139.12C56.7098 139.65 56.2198 140.06 55.6398 140.25L55.5598 140.29Z" fill="#8BD74B"/>
<path d="M40.8293 129.99C35.8193 121.07 29.9493 112.66 23.2993 104.88C21.6393 102.93 19.9593 101.02 18.1993 99.2C16.4393 97.38 14.6893 95.65 12.9393 94.12C12.0693 93.37 11.1993 92.66 10.4293 92.12C10.0493 91.85 9.68932 91.61 9.41932 91.45C9.14932 91.3 8.94933 91.2 9.18933 91.26C9.51933 91.33 9.85932 91.36 10.2093 91.37C11.3293 91.38 12.4293 91.11 13.4193 90.57C14.1493 90.18 14.7993 89.66 15.3393 89.03C15.7793 88.54 16.1393 87.98 16.4093 87.37C16.6693 86.81 16.8293 86.21 16.8593 85.6C16.8593 85.06 16.8093 85.23 16.8593 85.48C16.8793 85.65 16.8993 85.81 16.9293 85.97L17.0493 86.64C17.5193 88.65 18.2393 90.59 19.1893 92.42C20.2693 94.51 21.5093 96.52 22.8893 98.43C25.8793 102.53 29.1993 106.38 32.8093 109.94C36.4793 113.61 40.3993 117.14 44.4793 120.52C46.5193 122.21 48.5893 123.86 50.6993 125.48C51.7593 126.28 52.8193 127.08 53.8893 127.86C54.9593 128.64 56.0493 129.43 57.0693 130.14L57.1493 130.19C58.1193 130.89 58.7993 131.93 59.0293 133.1C59.2693 134.27 59.0493 135.5 58.4193 136.51C57.7893 137.53 56.7993 138.27 55.6393 138.58C54.4793 138.89 53.2493 138.76 52.1893 138.2C50.8493 137.49 49.7093 136.82 48.4893 136.1C47.2693 135.39 46.0893 134.68 44.8993 133.96C42.5193 132.51 40.1693 131.01 37.8393 129.46C33.1593 126.36 28.6293 123.07 24.2093 119.49C19.6593 115.86 15.4193 111.87 11.5193 107.55C9.45932 105.25 7.56932 102.79 5.87932 100.2C4.00932 97.38 2.50932 94.33 1.39932 91.14L0.989321 89.8C0.859321 89.33 0.739322 88.84 0.639322 88.3C0.359322 86.93 0.249319 85.52 0.339319 84.13C0.419319 82.84 0.729325 81.57 1.25932 80.39C1.66932 79.48 2.21932 78.63 2.87932 77.87C3.64932 77 4.56932 76.26 5.59932 75.71C7.18932 74.87 8.97932 74.45 10.7793 74.51C11.7993 74.54 12.8093 74.69 13.7993 74.96C15.0193 75.3 16.1993 75.76 17.3193 76.34C18.2593 76.81 19.0593 77.28 19.8093 77.74C21.3093 78.68 22.6093 79.62 23.8593 80.57C26.3393 82.47 28.5393 84.41 30.7093 86.4C32.8893 88.39 34.8993 90.41 36.8893 92.48C40.8693 96.63 44.6393 100.94 48.1993 105.41C51.8193 109.93 55.1993 114.65 58.3193 119.53C59.7693 121.81 60.2493 124.57 59.6593 127.2C59.0693 129.83 57.4593 132.13 55.1793 133.57C52.8993 135.01 50.1393 135.5 47.5093 134.91C44.8793 134.32 42.5793 132.71 41.1393 130.43C41.0393 130.35 40.9193 130.15 40.8293 129.99Z" fill="#8BD74B"/>
<path d="M173.389 136.61C175.859 138.93 178.209 141.38 180.409 143.96C182.609 146.5 184.719 149.13 186.699 151.89C188.759 154.7 190.599 157.67 192.189 160.77C193.059 162.48 193.759 164.27 194.289 166.11C194.589 167.23 194.759 168.38 194.799 169.54C194.859 171.11 194.539 172.68 193.859 174.1C193.559 174.65 193.159 175.14 192.679 175.53C192.199 175.93 191.639 176.22 191.039 176.4C190.439 176.58 189.809 176.64 189.189 176.58C188.569 176.52 187.959 176.33 187.409 176.04C186.859 175.75 186.369 175.34 185.979 174.86C185.579 174.38 185.289 173.82 185.109 173.22C184.929 172.62 184.869 171.99 184.929 171.37C184.989 170.75 185.179 170.14 185.479 169.59C185.409 169.84 185.539 169.73 185.589 169.4C185.649 168.93 185.649 168.44 185.589 167.97C185.379 166.63 185.039 165.32 184.569 164.05C183.499 161.17 182.209 158.38 180.699 155.7C179.179 152.94 177.509 150.23 175.719 147.58C173.949 144.94 172.039 142.4 169.999 139.97C169.559 139.51 169.309 138.9 169.319 138.26C169.329 137.62 169.589 137.02 170.049 136.57C170.509 136.13 171.119 135.88 171.759 135.89C172.399 135.9 172.999 136.16 173.449 136.62L173.389 136.61Z" fill="#8BD74B"/>
<path d="M170.819 136.71C172.569 138.86 174.039 141.22 175.199 143.74C176.359 146.17 177.339 148.68 178.149 151.25C178.989 153.87 179.619 156.55 180.029 159.26C180.249 160.72 180.359 162.2 180.349 163.67C180.339 164.51 180.279 165.35 180.159 166.19C179.999 167.26 179.679 168.29 179.219 169.27C178.929 169.84 178.539 170.34 178.049 170.75C177.559 171.16 176.999 171.47 176.399 171.66C175.789 171.85 175.149 171.92 174.519 171.86C173.889 171.8 173.269 171.61 172.709 171.31C172.149 171.01 171.659 170.6 171.259 170.1C170.859 169.6 170.569 169.03 170.389 168.42C170.219 167.81 170.169 167.17 170.239 166.54C170.319 165.91 170.519 165.3 170.839 164.75C170.839 164.8 171.009 164.56 171.129 164.26C171.269 163.86 171.369 163.44 171.439 163.02C171.619 161.98 171.709 160.92 171.709 159.87C171.719 157.54 171.549 155.21 171.199 152.91C170.849 150.55 170.329 148.23 169.659 145.94C169.029 143.72 168.139 141.59 166.989 139.59L166.939 139.51C166.629 138.99 166.519 138.38 166.639 137.78C166.759 137.19 167.099 136.66 167.589 136.31C168.079 135.96 168.689 135.8 169.289 135.88C169.889 135.96 170.439 136.26 170.829 136.72L170.819 136.71Z" fill="#8BD74B"/>
<path d="M174.389 135.63C177.109 136.15 179.759 137.02 182.259 138.2C184.709 139.32 187.069 140.61 189.339 142.06C191.659 143.53 193.849 145.18 195.909 146.99C197.019 147.97 198.049 149.04 198.999 150.18C199.539 150.83 200.019 151.51 200.459 152.23C201.019 153.15 201.449 154.15 201.719 155.19C201.979 156.43 201.729 157.72 201.029 158.78C200.329 159.84 199.249 160.57 198.009 160.83C196.769 161.09 195.479 160.84 194.419 160.14C193.359 159.44 192.629 158.36 192.369 157.12C192.429 157.12 192.369 156.87 192.279 156.55C192.129 156.15 191.939 155.77 191.729 155.4C191.189 154.49 190.579 153.62 189.909 152.81C188.419 151.01 186.799 149.34 185.039 147.81C183.259 146.23 181.369 144.77 179.389 143.46C177.489 142.16 175.429 141.1 173.269 140.31H173.179C172.599 140.12 172.109 139.72 171.819 139.18C171.529 138.64 171.449 138.02 171.599 137.43C171.749 136.84 172.129 136.33 172.639 136C173.159 135.67 173.779 135.56 174.379 135.67L174.389 135.63Z" fill="#8BD74B"/>
<path d="M170.529 119.59C173.649 114.71 177.029 109.99 180.649 105.47C184.229 100.99 187.999 96.6902 191.959 92.5402C193.959 90.4702 195.999 88.4402 198.139 86.4602C200.279 84.4802 202.509 82.5302 204.989 80.6302C206.239 79.6802 207.529 78.7402 209.039 77.8002C209.789 77.3302 210.599 76.8602 211.529 76.4002C212.649 75.8202 213.829 75.3602 215.049 75.0202C216.039 74.7502 217.049 74.6002 218.069 74.5702C219.869 74.5102 221.659 74.9202 223.249 75.7702C224.279 76.3202 225.199 77.0502 225.969 77.9302C226.629 78.6802 227.179 79.5302 227.589 80.4502C228.119 81.6302 228.429 82.9002 228.509 84.1902C228.599 85.5902 228.499 86.9902 228.209 88.3602C228.099 88.9002 227.979 89.3802 227.859 89.8602L227.449 91.2002C226.339 94.4002 224.839 97.4402 222.969 100.26C221.269 102.85 219.389 105.3 217.329 107.61C213.429 111.93 209.189 115.92 204.639 119.55C200.219 123.14 195.659 126.42 191.009 129.52C188.689 131.07 186.329 132.57 183.949 134.02C182.759 134.75 181.559 135.46 180.359 136.16C179.139 136.87 177.969 137.54 176.659 138.26C175.599 138.85 174.349 139.01 173.179 138.71C171.999 138.41 170.989 137.66 170.349 136.63C169.709 135.6 169.489 134.36 169.739 133.17C169.989 131.98 170.689 130.93 171.689 130.25L171.789 130.18C172.809 129.47 173.909 128.68 174.969 127.9C176.029 127.12 177.099 126.32 178.159 125.52C180.269 123.9 182.349 122.25 184.379 120.56C188.449 117.18 192.389 113.65 196.039 109.98C199.649 106.42 202.969 102.56 205.969 98.4702C207.349 96.5602 208.579 94.5502 209.669 92.4602C210.619 90.6302 211.339 88.6902 211.809 86.6802L211.929 86.0102C211.959 85.8202 211.999 85.6402 212.009 85.5202C212.039 85.2702 212.009 85.1002 212.009 85.6402C212.049 86.2502 212.199 86.8502 212.459 87.4102C212.729 88.0102 213.089 88.5702 213.529 89.0702C214.079 89.6702 214.729 90.1802 215.449 90.5502C216.429 91.0902 217.539 91.3602 218.659 91.3502C218.999 91.3402 219.339 91.3102 219.679 91.2402C219.909 91.1902 219.679 91.2402 219.449 91.4302C219.219 91.6202 218.819 91.8302 218.439 92.1002C217.669 92.6602 216.799 93.3602 215.929 94.1002C214.179 95.6202 212.399 97.3702 210.669 99.1802C208.939 100.99 207.229 102.91 205.569 104.86C198.929 112.64 193.059 121.05 188.039 129.97C186.729 132.33 184.539 134.08 181.949 134.82C179.359 135.57 176.569 135.25 174.209 133.94C171.849 132.63 170.099 130.44 169.359 127.85C168.609 125.26 168.929 122.47 170.239 120.11C170.329 119.94 170.429 119.78 170.529 119.62V119.59Z" fill="#8BD74B"/>
<path d="M199.019 95.67C199.059 100.36 198.449 105.03 197.209 109.55C189.149 138.11 155.129 147.92 114.389 147.92C73.649 147.92 39.669 138.11 31.599 109.55C30.359 105.03 29.749 100.36 29.789 95.67C29.789 56.34 67.659 5.5 114.389 5.5C161.119 5.5 199.019 56.35 199.019 95.67Z" fill="#8BD74B"/>
<path d="M197.219 109.55C189.159 138.11 155.139 147.92 114.399 147.92C73.6594 147.92 39.6794 138.11 31.6094 109.55C39.6694 73.6002 73.6894 34.9802 114.429 34.9802C155.169 34.9802 189.159 73.6002 197.219 109.55Z" fill="#B0E881"/>
<path d="M153.379 125.6C159.539 125.6 164.539 120.6 164.539 114.44C164.539 108.28 159.539 103.28 153.379 103.28C147.219 103.28 142.219 108.28 142.219 114.44C142.219 120.6 147.219 125.6 153.379 125.6Z" fill="#DFF6CD" stroke="#F2F2F2" stroke-width="0.42" stroke-miterlimit="10"/>
<path d="M127.93 109.98C132.12 109.98 135.52 106.58 135.52 102.39C135.52 98.2 132.12 94.8 127.93 94.8C123.74 94.8 120.34 98.2 120.34 102.39C120.34 106.58 123.74 109.98 127.93 109.98Z" fill="#DFF6CD" stroke="#F2F2F2" stroke-width="0.42" stroke-miterlimit="10"/>
<path d="M144.669 95.6901C146.769 95.6901 148.459 93.9901 148.459 91.9001C148.459 89.8001 146.759 88.1101 144.669 88.1101C142.579 88.1101 140.879 89.8101 140.879 91.9001C140.879 93.9901 142.569 95.6901 144.669 95.6901Z" fill="#DFF6CD" stroke="#F2F2F2" stroke-width="0.42" stroke-miterlimit="10"/>
<path d="M166.319 48.2502C169.649 48.2502 172.339 45.5502 172.339 42.2302C172.339 38.9002 169.639 36.2102 166.319 36.2102C162.989 36.2102 160.299 38.9102 160.299 42.2302C160.299 45.5602 162.999 48.2502 166.319 48.2502Z" fill="#B0E881"/>
<path d="M62.5298 48.2502C65.8598 48.2502 68.5498 45.5502 68.5498 42.2302C68.5498 38.9002 65.8498 36.2102 62.5298 36.2102C59.2098 36.2102 56.5098 38.9102 56.5098 42.2302C56.5098 45.5602 59.1998 48.2502 62.5298 48.2502Z" fill="#B0E881"/>
<path d="M155.079 34.5601C164.589 34.5601 172.299 26.8501 172.299 17.3401C172.299 7.83012 164.589 0.120117 155.079 0.120117C145.569 0.120117 137.859 7.83012 137.859 17.3401C137.859 26.8501 145.569 34.5601 155.079 34.5601Z" fill="#8BD74B"/>
<path d="M154.009 29.18C161.439 29.18 167.459 23.16 167.459 15.73C167.459 8.30003 161.439 2.28003 154.009 2.28003C146.579 2.28003 140.559 8.30003 140.559 15.73C140.559 23.16 146.579 29.18 154.009 29.18Z" fill="white"/>
<path d="M154.249 24.58C159.779 24.58 164.269 20.09 164.269 14.56C164.269 9.03004 159.779 4.54004 154.249 4.54004C148.719 4.54004 144.229 9.03004 144.229 14.56C144.229 20.09 148.709 24.58 154.249 24.58Z" fill="#183B59"/>
<path d="M73.7688 34.5601C83.2788 34.5601 90.9888 26.8501 90.9888 17.3401C90.9888 7.83012 83.2788 0.120117 73.7688 0.120117C64.2588 0.120117 56.5488 7.83012 56.5488 17.3401C56.5488 26.8501 64.2588 34.5601 73.7688 34.5601Z" fill="#8BD74B"/>
<path d="M72.6902 29.18C80.1202 29.18 86.1402 23.16 86.1402 15.73C86.1402 8.30003 80.1202 2.28003 72.6902 2.28003C65.2602 2.28003 59.2402 8.30003 59.2402 15.73C59.2402 23.16 65.2602 29.18 72.6902 29.18Z" fill="white"/>
<path d="M72.9301 24.58C78.4601 24.58 82.9501 20.09 82.9501 14.56C82.9501 9.03004 78.4601 4.54004 72.9301 4.54004C67.4001 4.54004 62.9102 9.03004 62.9102 14.56C62.9102 20.09 67.4001 24.58 72.9301 24.58Z" fill="#183B59"/>
<path d="M46.1303 84.8301C48.6703 87.8301 51.5403 90.5301 54.6903 92.9001C57.7003 95.0401 60.8503 96.3801 63.5103 96.2401C64.9203 96.1501 66.2803 95.6901 67.4503 94.9001C68.8703 93.9501 70.1103 92.7701 71.1403 91.4101C72.3103 89.8901 73.3103 88.2501 74.1403 86.5101C74.5903 85.6301 74.9703 84.7001 75.3503 83.7801C75.5403 83.3101 75.7103 82.8401 75.8703 82.3801L76.1003 81.7101L76.3003 81.0801L76.3903 80.8001C76.6603 79.8801 77.2903 79.1001 78.1303 78.6301C78.9703 78.1601 79.9603 78.0301 80.8903 78.2801C81.8203 78.5301 82.6203 79.1201 83.1203 79.9501C83.6203 80.7701 83.7803 81.7601 83.5603 82.7001L83.3503 83.6701L83.1403 84.5601C82.9903 85.1501 82.8303 85.7201 82.6703 86.3001C82.3203 87.4501 81.9603 88.5901 81.5203 89.7201C80.6603 92.0501 79.5603 94.2901 78.2303 96.4001C76.8003 98.6901 74.9903 100.72 72.8903 102.41C70.5403 104.29 67.7503 105.54 64.7803 106.04C61.8803 106.48 58.9203 106.28 56.1003 105.46C53.5403 104.72 51.0903 103.66 48.7903 102.31C44.6303 99.7801 40.7703 96.7801 37.2803 93.3801C36.0903 92.2601 35.4003 90.7201 35.3603 89.0901C35.3103 87.4601 35.9203 85.8801 37.0403 84.6901C38.1603 83.5101 39.7003 82.8101 41.3303 82.7701C42.9603 82.7201 44.5403 83.3301 45.7303 84.4501C45.8603 84.5801 46.0003 84.7201 46.1203 84.8601L46.1303 84.8301Z" fill="#8BD74B"/>
<path d="M77.8991 81.6302L75.9991 81.2402C75.3691 81.0702 74.7291 80.8702 74.0891 80.6802C72.7591 80.2202 71.4991 79.6002 70.3191 78.8202C69.0191 77.9702 67.8991 76.8702 67.0291 75.5802C66.5591 74.8702 66.1791 74.1102 65.8991 73.3102C65.7491 72.8902 65.6291 72.4502 65.5491 72.0102C65.5091 71.7802 65.4591 71.5602 65.4391 71.3002C65.4391 71.1702 65.4391 71.0702 65.4391 70.9102C65.4291 70.7202 65.4291 70.5402 65.4391 70.3602C65.4891 69.9402 65.6191 69.5302 65.8291 69.1602C66.0391 68.7902 66.3191 68.4602 66.6491 68.2002C66.9791 67.9402 67.3691 67.7402 67.7791 67.6302C68.1891 67.5102 68.6191 67.4802 69.0391 67.5302C69.4591 67.5802 69.8691 67.7102 70.2391 67.9202C70.6091 68.1302 70.9391 68.4102 71.1991 68.7402C71.4591 69.0702 71.6591 69.4602 71.7691 69.8702C71.8891 70.2802 71.9191 70.7102 71.8691 71.1302C71.8691 70.9702 71.8691 71.0402 71.8691 71.0302C71.8691 71.0202 71.8691 71.0702 71.8691 71.0902C71.8591 71.1502 71.8591 71.2102 71.8691 71.2802C71.8491 71.4402 71.8491 71.6002 71.8691 71.7502C71.8991 72.1202 71.9691 72.4802 72.0991 72.8302C72.4091 73.6502 72.8891 74.4002 73.5091 75.0202C74.2191 75.7502 75.0191 76.4002 75.8891 76.9402C76.3691 77.1902 76.8391 77.4702 77.3291 77.7302L78.8691 78.4002L79.0091 78.4702C79.3891 78.6402 79.6991 78.9402 79.8691 79.3202C80.0391 79.7002 80.0591 80.1302 79.9291 80.5202C79.7991 80.9102 79.5291 81.2502 79.1691 81.4502C78.8091 81.6502 78.3791 81.7202 77.9791 81.6302H77.8991Z" fill="#8BD74B"/>
<path d="M78.3589 81.3901L77.0989 79.9101C76.7089 79.3901 76.3289 78.8401 75.9389 78.3001C75.1789 77.1301 74.5689 75.8701 74.1189 74.5501C73.6089 73.0901 73.3989 71.5501 73.5089 70.0101C73.5689 69.1801 73.7289 68.3501 73.9889 67.5601C74.1289 67.1401 74.2989 66.7301 74.4889 66.3401C74.5989 66.1401 74.6989 65.9401 74.8389 65.7301C74.9089 65.6201 74.9589 65.5301 75.0489 65.4101C75.1489 65.2601 75.2589 65.1201 75.3789 64.9901C75.6489 64.6801 75.9889 64.4301 76.3589 64.2601C76.7289 64.0801 77.1389 63.9901 77.5489 63.9701C77.9589 63.9501 78.3689 64.0201 78.7589 64.1701C79.1489 64.3201 79.4989 64.5401 79.7989 64.8301C80.0989 65.1201 80.3289 65.4601 80.4889 65.8401C80.6489 66.2201 80.7289 66.6301 80.7289 67.0401C80.7289 67.4501 80.6389 67.8601 80.4789 68.2401C80.3189 68.6201 80.0789 68.9601 79.7789 69.2501C79.8689 69.1401 79.8189 69.1801 79.8189 69.1801C79.8189 69.1801 79.7789 69.1801 79.7689 69.2201C79.7189 69.2701 79.6689 69.3101 79.6189 69.3701C79.5089 69.5001 79.4089 69.6301 79.3289 69.7801C79.1289 70.1001 78.9789 70.4501 78.8689 70.8101C78.6289 71.6801 78.5789 72.5901 78.7189 73.4801C78.8589 74.5001 79.1189 75.5001 79.5089 76.4501C79.7389 76.9401 79.9589 77.4501 80.1789 77.9401L80.9989 79.4201L81.0689 79.5501C81.2789 79.9101 81.3489 80.3401 81.2589 80.7501C81.1689 81.1601 80.9289 81.5201 80.5789 81.7601C80.2389 82.0001 79.8089 82.1001 79.3989 82.0401C78.9789 81.9801 78.5989 81.7701 78.3389 81.4401L78.3589 81.3901Z" fill="#8BD74B"/>
<path d="M80.7598 81.2901C80.3198 80.0601 80.0898 78.7601 80.0898 77.4601C80.0998 76.0801 80.3898 74.7201 80.9398 73.4501C81.4698 72.2101 82.1998 71.0501 83.0798 70.0201C83.5098 69.5201 83.9798 69.0401 84.4798 68.6001C84.7198 68.3701 84.9798 68.1601 85.2498 67.9301C85.5498 67.6901 85.8598 67.4701 86.1898 67.2601L88.1299 66.0801C88.5499 65.8101 89.0198 65.6201 89.5098 65.5401C89.9998 65.4501 90.5099 65.4701 90.9899 65.5801C91.4799 65.6901 91.9398 65.9001 92.3398 66.1901C92.7498 66.4801 93.0899 66.8501 93.3499 67.2801C93.6099 67.7101 93.7799 68.1801 93.8499 68.6801C93.9199 69.1701 93.8999 69.6801 93.7699 70.1601C93.6399 70.6401 93.4198 71.1001 93.1198 71.5001C92.8198 71.9001 92.4398 72.2301 91.9998 72.4801C91.5598 72.7501 91.0599 72.9201 90.5499 72.9901C90.0399 73.0601 89.5099 73.0201 89.0199 72.8801C88.8599 72.9201 88.7099 72.9701 88.5699 73.0501C88.3799 73.1301 88.1999 73.2201 88.0199 73.3201C87.6499 73.5201 87.2898 73.7401 86.9498 73.9901C86.2798 74.4701 85.6898 75.0401 85.1898 75.6901C84.6998 76.3301 84.3398 77.0601 84.1498 77.8501C83.9398 78.6901 83.8798 79.5701 83.9798 80.4301V80.6601C83.9998 81.0701 83.8698 81.4601 83.6198 81.7801C83.3698 82.1001 83.0098 82.3101 82.6098 82.3901C82.2098 82.4601 81.7998 82.3901 81.4498 82.1801C81.0998 81.9701 80.8398 81.6401 80.7198 81.2501L80.7598 81.2901Z" fill="#8BD74B"/>
<path d="M191.58 93.3201C188.1 96.7201 184.24 99.7201 180.08 102.25C177.78 103.6 175.33 104.65 172.77 105.4C169.95 106.22 166.99 106.42 164.09 105.98C161.13 105.48 158.34 104.23 155.99 102.35C153.89 100.66 152.08 98.6301 150.65 96.3401C149.33 94.2301 148.22 92.0001 147.36 89.6601C146.92 88.5301 146.56 87.3901 146.21 86.2401C146.04 85.6601 145.88 85.0801 145.74 84.5001L145.53 83.6101L145.32 82.6401C145.13 81.7101 145.31 80.7501 145.81 79.9501C146.31 79.1501 147.1 78.5701 148.01 78.3201C148.92 78.0801 149.9 78.1901 150.73 78.6401C151.56 79.0901 152.19 79.8401 152.49 80.7401L152.58 81.0301L152.77 81.6601L153 82.3301C153.17 82.8001 153.34 83.2701 153.53 83.7301C153.9 84.6501 154.29 85.5801 154.74 86.4601C155.56 88.1901 156.57 89.8301 157.74 91.3601C158.77 92.7201 160.01 93.9001 161.43 94.8501C162.6 95.6301 163.96 96.0901 165.37 96.1901C168.04 96.3601 171.17 95.0201 174.19 92.8501C177.31 90.5001 180.17 87.8101 182.71 84.8301C183.79 83.6101 185.3 82.8601 186.93 82.7501C188.56 82.6401 190.16 83.1901 191.38 84.2601C192.6 85.3301 193.35 86.8501 193.46 88.4801C193.57 90.1101 193.02 91.7101 191.95 92.9301C191.86 93.0401 191.72 93.2001 191.58 93.3201Z" fill="#8BD74B"/>
<path d="M150.058 78.4002L151.598 77.7302C152.088 77.4802 152.558 77.2002 153.038 76.9402C153.908 76.4002 154.708 75.7602 155.418 75.0202C156.038 74.4002 156.518 73.6502 156.828 72.8302C156.948 72.4802 157.028 72.1202 157.058 71.7502C157.078 71.5902 157.078 71.4302 157.058 71.2802C157.068 71.2202 157.068 71.1602 157.058 71.0902C157.058 71.0902 157.058 71.0202 157.058 71.0302C157.058 71.0402 157.058 70.9702 157.058 71.1302C156.998 70.7002 157.018 70.2702 157.128 69.8502C157.238 69.4302 157.428 69.0402 157.698 68.7002C157.958 68.3602 158.288 68.0702 158.668 67.8602C159.048 67.6502 159.458 67.5102 159.888 67.4602C160.318 67.4102 160.758 67.4402 161.168 67.5602C161.588 67.6802 161.968 67.8802 162.308 68.1502C162.648 68.4202 162.928 68.7602 163.128 69.1402C163.328 69.5202 163.458 69.9402 163.498 70.3702C163.518 70.5502 163.518 70.7402 163.498 70.9202C163.508 71.0502 163.508 71.1802 163.498 71.3102C163.498 71.5702 163.428 71.7902 163.388 72.0202C163.308 72.4602 163.188 72.8902 163.038 73.3202C162.758 74.1202 162.378 74.8801 161.908 75.5901C161.038 76.8801 159.918 77.9802 158.608 78.8302C157.438 79.6002 156.178 80.2302 154.848 80.6902C154.178 80.8802 153.568 81.0802 152.938 81.2502L151.038 81.6402C150.628 81.7302 150.208 81.6702 149.848 81.4602C149.488 81.2502 149.218 80.9202 149.088 80.5302C148.958 80.1402 148.978 79.7102 149.148 79.3302C149.318 78.9502 149.618 78.6502 150.008 78.4802L150.058 78.4002Z" fill="#8BD74B"/>
<path d="M147.83 79.3601L148.66 77.8801C148.91 77.3901 149.12 76.8801 149.33 76.3901C149.71 75.4401 149.98 74.4401 150.12 73.4201C150.26 72.5301 150.2 71.6201 149.97 70.7501C149.86 70.3901 149.71 70.0401 149.51 69.7201C149.43 69.5701 149.33 69.4401 149.22 69.3101C149.17 69.2601 149.13 69.2101 149.07 69.1601C149.07 69.1601 149.02 69.1101 149.02 69.1201C149.01 69.1301 148.97 69.0801 149.06 69.1901C148.76 68.9001 148.52 68.5601 148.36 68.1801C148.2 67.8001 148.11 67.3901 148.11 66.9801C148.11 66.5701 148.19 66.1601 148.35 65.7801C148.51 65.4001 148.75 65.0601 149.04 64.7701C149.33 64.4801 149.69 64.2601 150.08 64.1101C150.47 63.9601 150.88 63.8901 151.29 63.9101C151.7 63.9301 152.11 64.0201 152.48 64.2001C152.85 64.3801 153.19 64.6301 153.46 64.9301C153.66 65.1601 153.69 65.2201 153.79 65.3501C153.89 65.4801 153.93 65.5601 154 65.6701C154.14 65.8801 154.23 66.0801 154.34 66.2801C154.54 66.6701 154.71 67.0801 154.85 67.5001C155.11 68.2901 155.27 69.1201 155.33 69.9501C155.43 71.4901 155.22 73.0301 154.72 74.4901C154.27 75.8101 153.65 77.0701 152.9 78.2401C152.51 78.7801 152.13 79.3301 151.73 79.8501L150.47 81.3301C150.2 81.6601 149.82 81.8701 149.41 81.9301C148.99 81.9901 148.57 81.8901 148.23 81.6501C147.88 81.4101 147.64 81.0501 147.55 80.6401C147.46 80.2301 147.53 79.8001 147.74 79.4401L147.83 79.3601Z" fill="#8BD74B"/>
<path d="M144.85 80.4702C144.94 79.6102 144.88 78.7302 144.68 77.8902C144.48 77.1102 144.13 76.3702 143.64 75.7302C143.14 75.0802 142.55 74.5102 141.88 74.0302C141.54 73.7802 141.18 73.5602 140.81 73.3602C140.63 73.2602 140.45 73.1702 140.26 73.0902C140.12 73.0202 139.97 72.9602 139.81 72.9202C139.21 73.0902 138.58 73.1202 137.97 72.9902C137.36 72.8602 136.8 72.5802 136.32 72.1802C135.85 71.7802 135.48 71.2602 135.26 70.6802C135.04 70.1002 134.96 69.4702 135.04 68.8602C135.12 68.2402 135.35 67.6602 135.72 67.1502C136.09 66.6402 136.57 66.2402 137.13 65.9702C137.69 65.7002 138.31 65.5702 138.93 65.6002C139.55 65.6302 140.15 65.8102 140.69 66.1302L142.64 67.3102C142.97 67.5102 143.28 67.7402 143.58 67.9802C143.85 68.1902 144.11 68.4102 144.35 68.6502C144.85 69.0902 145.31 69.5702 145.75 70.0702C146.63 71.1002 147.35 72.2502 147.89 73.5002C148.45 74.7602 148.73 76.1302 148.74 77.5102C148.75 78.8202 148.54 80.1102 148.11 81.3402C147.99 81.7302 147.73 82.0602 147.38 82.2702C147.03 82.4802 146.62 82.5602 146.22 82.4802C145.82 82.4102 145.46 82.1902 145.21 81.8802C144.96 81.5602 144.83 81.1602 144.85 80.7602V80.4702Z" fill="#8BD74B"/>
<path d="M91.32 28.26C93.35 28.95 95.48 29.33 97.63 29.38C99.51 29.45 101.28 29.38 103.05 29.29C106.6 29.1 110.14 28.88 113.79 28.77C117.44 28.66 121.14 28.61 125.02 28.77C126.95 28.84 128.91 28.96 130.94 29.08C131.94 29.14 132.98 29.2 134.03 29.22C135.16 29.29 136.3 29.19 137.41 28.93C137.4 29.26 137.37 29.59 137.3 29.91C137.21 30.23 137.11 30.55 136.99 30.86C136.73 31.46 136.41 32.04 136.04 32.58C135.33 33.63 134.5 34.6 133.56 35.46C131.78 37.07 129.79 38.42 127.63 39.47C123.46 41.51 118.91 42.63 114.27 42.76C111.92 42.84 109.57 42.65 107.26 42.21C104.86 41.77 102.53 41 100.33 39.92C98.01 38.8 95.94 37.23 94.23 35.3C92.54 33.35 91.2 30.85 91.32 28.26Z" fill="#46B755"/>
</svg>
