<svg width="222" height="175" viewBox="0 0 222 175" fill="none" xmlns="http://www.w3.org/2000/svg">
<path d="M172.19 141.97C175.34 143.2 178.41 144.61 181.41 146.18C184.4 147.73 187.32 149.4 190.18 151.24C193.13 153.09 195.93 155.18 198.55 157.48C199.99 158.75 201.31 160.16 202.47 161.69C203.17 162.62 203.75 163.63 204.21 164.7C204.84 166.14 205.11 167.71 205 169.28C204.85 170.54 204.21 171.69 203.21 172.47C202.22 173.25 200.95 173.61 199.69 173.46C198.43 173.31 197.29 172.67 196.5 171.67C195.72 170.68 195.36 169.41 195.51 168.15C195.51 168.4 195.61 168.26 195.51 167.94C195.39 167.47 195.21 167.02 194.97 166.6C194.28 165.43 193.48 164.34 192.57 163.33C190.51 161.05 188.28 158.93 185.89 157C183.47 155 180.9 153.09 178.27 151.28C175.66 149.48 172.95 147.82 170.16 146.31C169.58 146.04 169.13 145.56 168.91 144.96C168.69 144.36 168.71 143.7 168.98 143.12C169.25 142.54 169.73 142.09 170.33 141.87C170.93 141.65 171.59 141.67 172.17 141.94L172.19 141.97Z" fill="#8BD74B"/>
<path d="M169.829 143C172.249 144.36 174.499 146.01 176.509 147.92C178.479 149.75 180.319 151.73 182.009 153.82C183.739 155.94 185.309 158.2 186.689 160.57C187.429 161.85 188.079 163.19 188.609 164.58C188.919 165.36 189.159 166.17 189.349 166.99C189.589 168.04 189.679 169.12 189.619 170.19C189.449 171.42 188.799 172.54 187.819 173.3C186.829 174.06 185.589 174.41 184.349 174.26C183.109 174.12 181.979 173.49 181.199 172.52C180.419 171.55 180.049 170.31 180.169 169.07C180.219 169.11 180.259 168.84 180.259 168.5C180.239 168.07 180.189 167.65 180.099 167.23C179.869 166.2 179.569 165.18 179.179 164.2C178.329 162.03 177.319 159.93 176.129 157.92C174.939 155.86 173.599 153.88 172.119 152.01C170.719 150.18 169.109 148.52 167.299 147.09L167.229 147.03C166.759 146.66 166.449 146.13 166.359 145.54C166.259 144.95 166.389 144.35 166.709 143.85C167.029 143.35 167.529 142.99 168.109 142.83C168.689 142.68 169.299 142.74 169.829 143.02V143Z" fill="#8BD74B"/>
<path d="M172.759 140.68C175.479 140.16 178.259 139.99 181.029 140.17C183.719 140.31 186.399 140.64 189.039 141.16C191.739 141.67 194.389 142.39 196.969 143.32C198.349 143.82 199.689 144.43 200.979 145.14C201.719 145.54 202.429 146 203.099 146.51C203.959 147.16 204.719 147.93 205.359 148.79C206.049 149.85 206.299 151.14 206.039 152.37C205.779 153.61 205.039 154.69 203.989 155.38C202.939 156.07 201.639 156.32 200.409 156.06C199.169 155.8 198.089 155.06 197.399 154.01C197.469 154.01 197.329 153.77 197.109 153.52C196.819 153.2 196.509 152.91 196.169 152.65C195.329 152 194.429 151.42 193.499 150.91C191.459 149.79 189.329 148.84 187.129 148.05C184.899 147.24 182.629 146.59 180.309 146.1C178.069 145.6 175.779 145.38 173.489 145.43H173.399C172.799 145.46 172.209 145.25 171.749 144.86C171.289 144.47 170.989 143.92 170.919 143.33C170.849 142.74 170.999 142.13 171.349 141.64C171.699 141.15 172.219 140.81 172.809 140.69L172.759 140.68Z" fill="#8BD74B"/>
<path d="M76.8203 146.34C74.0303 147.85 71.3203 149.51 68.7003 151.31C66.0703 153.11 63.5103 155.02 61.0903 157.03C58.7003 158.96 56.4703 161.08 54.4103 163.36C53.5103 164.37 52.7103 165.47 52.0203 166.63C51.7803 167.05 51.5903 167.5 51.4703 167.97C51.4003 168.3 51.4703 168.44 51.4703 168.18C51.5603 168.81 51.5203 169.45 51.3503 170.06C51.1903 170.67 50.9003 171.25 50.5203 171.75C50.1303 172.25 49.6503 172.67 49.1003 172.98C48.5503 173.29 47.9403 173.49 47.3103 173.56C46.6803 173.63 46.0403 173.58 45.4303 173.41C44.8203 173.23 44.2503 172.94 43.7603 172.54C43.2703 172.14 42.8603 171.65 42.5603 171.09C42.2603 170.53 42.0703 169.92 42.0103 169.29C41.9003 167.72 42.1703 166.15 42.8003 164.71C43.2603 163.64 43.8403 162.63 44.5403 161.7C45.7103 160.17 47.0203 158.76 48.4603 157.49C51.0803 155.19 53.8803 153.11 56.8303 151.25C59.7003 149.41 62.6203 147.74 65.6003 146.19C68.5903 144.62 71.6703 143.21 74.8203 141.98C75.3903 141.76 76.0203 141.76 76.5903 141.99C77.1603 142.22 77.6103 142.66 77.8703 143.21C78.1303 143.77 78.1603 144.4 77.9603 144.98C77.7703 145.57 77.3603 146.05 76.8203 146.34Z" fill="#8BD74B"/>
<path d="M79.7391 147.08C77.9391 148.52 76.3191 150.17 74.9191 152C73.4491 153.88 72.1091 155.85 70.9091 157.91C69.7291 159.92 68.7091 162.02 67.8591 164.19C67.4791 165.18 67.1691 166.19 66.9491 167.22C66.8591 167.64 66.7991 168.06 66.7791 168.49C66.7791 168.82 66.8291 169.1 66.8691 169.06C66.9391 169.68 66.8891 170.31 66.7191 170.91C66.5491 171.51 66.2591 172.07 65.8691 172.57C65.4791 173.06 64.9991 173.47 64.4491 173.78C63.8991 174.08 63.2991 174.28 62.6791 174.35C62.0591 174.42 61.4291 174.37 60.8291 174.2C60.2291 174.03 59.6691 173.74 59.1691 173.35C58.6791 172.96 58.2691 172.48 57.9591 171.94C57.6491 171.39 57.4591 170.79 57.3891 170.17C57.3291 169.1 57.4191 168.02 57.6591 166.97C57.8491 166.15 58.0991 165.34 58.3991 164.56C58.9391 163.18 59.5791 161.84 60.3291 160.55C61.7091 158.18 63.2691 155.93 65.0091 153.8C66.6991 151.71 68.5391 149.74 70.5091 147.9C72.5191 145.99 74.7691 144.33 77.1891 142.98C77.7191 142.71 78.3291 142.64 78.9091 142.79C79.4891 142.94 79.9791 143.3 80.3091 143.81C80.6291 144.31 80.7591 144.91 80.6591 145.5C80.5591 146.09 80.2491 146.62 79.7891 146.99L79.7391 147.08Z" fill="#8BD74B"/>
<path d="M73.609 145.45C71.309 145.39 69.009 145.62 66.759 146.12C64.439 146.61 62.169 147.26 59.939 148.07C57.749 148.85 55.619 149.81 53.569 150.93C52.639 151.44 51.739 152.02 50.899 152.67C50.559 152.93 50.249 153.23 49.959 153.54C49.749 153.79 49.609 154.03 49.669 154.03C48.979 155.09 47.889 155.83 46.649 156.09C45.409 156.35 44.119 156.1 43.059 155.41C41.999 154.72 41.259 153.63 40.999 152.39C40.739 151.15 40.989 149.86 41.679 148.8C42.319 147.94 43.089 147.17 43.939 146.52C44.609 146.01 45.319 145.55 46.059 145.15C47.349 144.44 48.689 143.83 50.069 143.33C52.649 142.4 55.299 141.68 57.989 141.17C60.639 140.65 63.309 140.32 65.999 140.18C68.769 140 71.549 140.17 74.269 140.69C74.859 140.81 75.379 141.15 75.729 141.64C76.079 142.13 76.229 142.73 76.159 143.33C76.089 143.93 75.789 144.47 75.329 144.86C74.869 145.25 74.279 145.45 73.679 145.42L73.609 145.45Z" fill="#8BD74B"/>
<path d="M162.19 131.01C165.18 126.59 168.39 122.32 171.81 118.23C175.18 114.17 178.71 110.26 182.41 106.51C186.14 102.68 190.09 99.0701 194.23 95.6801C196.47 93.8401 198.83 92.1501 201.3 90.6201C201.97 90.2101 202.7 89.8001 203.5 89.3901C204.4 88.9301 205.33 88.5201 206.28 88.1801C206.91 87.9501 207.56 87.7601 208.22 87.6201C209.17 87.4101 210.13 87.3101 211.1 87.3101C212.75 87.3201 214.38 87.7301 215.84 88.4901C216.79 88.9901 217.65 89.6501 218.38 90.4301C219.05 91.1401 219.6 91.9401 220.03 92.8101C220.36 93.4801 220.62 94.1901 220.8 94.9101C220.87 95.2001 220.94 95.5101 220.99 95.7801C221.04 96.0501 221.07 96.3301 221.09 96.5601C221.16 97.3601 221.16 98.1701 221.09 98.9801C220.99 100.07 220.79 101.15 220.5 102.21L220.31 102.88L220.12 103.44C219.99 103.81 219.87 104.19 219.72 104.55C219.45 105.28 219.15 106 218.84 106.7C217.61 109.41 216.14 112 214.45 114.44C211.26 118.97 207.56 123.12 203.44 126.83C199.52 130.38 195.37 133.66 191.01 136.65C188.86 138.13 186.68 139.55 184.46 140.91C183.35 141.58 182.24 142.25 181.12 142.91L179.41 143.87L177.61 144.77C176.55 145.43 175.27 145.64 174.05 145.36C172.83 145.07 171.78 144.32 171.12 143.25C170.46 142.19 170.25 140.91 170.53 139.69C170.82 138.47 171.57 137.42 172.64 136.76L172.85 136.61L174.25 135.61L175.69 134.54C176.65 133.82 177.6 133.08 178.54 132.33C180.42 130.82 182.26 129.26 184.05 127.65C187.59 124.51 190.92 121.13 194 117.54C196.94 114.16 199.5 110.45 201.61 106.49C202.56 104.68 203.33 102.79 203.93 100.84C204.06 100.38 204.19 99.9201 204.29 99.4601C204.35 99.2301 204.4 99.0101 204.44 98.7901L204.56 98.2001C204.61 97.8901 204.62 97.6501 204.59 97.7301C204.57 97.9101 204.57 98.1001 204.59 98.2801C204.59 98.3501 204.59 98.4901 204.62 98.5901C204.64 98.7301 204.67 98.8701 204.71 99.0101C204.81 99.4301 204.96 99.8501 205.16 100.24C205.46 100.83 205.83 101.37 206.28 101.86C206.8 102.41 207.41 102.87 208.08 103.24C208.98 103.72 209.99 103.99 211.01 104.02C211.35 104.03 211.7 104 212.04 103.95C212.19 103.95 212.21 103.95 212.18 103.95C212.15 103.95 211.86 104.13 211.57 104.31C211.28 104.49 210.9 104.73 210.54 104.98C208.83 106.21 207.2 107.55 205.66 108.99C202.25 112.15 199.02 115.49 195.98 119.01C189.78 126.09 184.23 133.71 179.4 141.79C178.01 144.08 175.78 145.74 173.18 146.39C170.58 147.04 167.83 146.65 165.52 145.29C163.21 143.93 161.53 141.71 160.85 139.12C160.16 136.53 160.53 133.77 161.86 131.45C161.96 131.28 162.06 131.12 162.17 130.96L162.19 131.01Z" fill="#8BD74B"/>
<path d="M79.8197 106.82C77.0197 110.62 73.8197 114.12 70.2797 117.25C68.3897 118.87 66.3597 120.31 64.2197 121.56C63.1097 122.2 61.9597 122.78 60.7897 123.3C59.5697 123.8 58.3197 124.22 57.0397 124.55C51.8397 125.92 46.3297 125.45 41.4397 123.21C39.1497 122.18 36.9997 120.86 35.0597 119.26C34.1197 118.49 33.2297 117.66 32.3897 116.79C31.9397 116.34 31.5297 115.9 31.1497 115.45C30.9397 115.22 30.7397 114.98 30.5497 114.74C30.3597 114.5 30.1697 114.27 29.8797 113.91C29.3197 113.15 29.0697 112.22 29.1797 111.28C29.2897 110.35 29.7397 109.49 30.4597 108.88C31.1697 108.27 32.0897 107.96 33.0297 108C33.9697 108.04 34.8497 108.44 35.5097 109.11L35.7597 109.37L36.1497 109.77L36.6397 110.24C36.9697 110.55 37.3097 110.87 37.6697 111.16C38.3797 111.76 39.1197 112.31 39.8897 112.82C41.3697 113.82 42.9697 114.62 44.6597 115.18C47.7697 116.26 51.1597 116.22 54.2397 115.07C55.0097 114.78 55.7697 114.44 56.4997 114.06C57.2497 113.63 57.9797 113.17 58.6797 112.66C60.1397 111.6 61.5097 110.41 62.7597 109.11C65.3897 106.28 67.7197 103.18 69.6997 99.8701C70.5497 98.4801 71.9197 97.4901 73.5097 97.1101C75.0897 96.7301 76.7597 97.0001 78.1497 97.8501C79.5397 98.7001 80.5297 100.07 80.9097 101.66C81.2897 103.24 81.0197 104.91 80.1697 106.3C80.0497 106.49 79.9397 106.66 79.8197 106.82Z" fill="#8BD74B"/>
<path d="M196.01 98.0702C196.05 102.74 195.5 107.4 194.39 111.94C187.18 140.5 156.81 150.31 120.42 150.31C84.03 150.31 53.67 140.5 46.46 111.94C45.34 107.4 44.8 102.74 44.84 98.0702C44.84 82.3002 50.28 64.6702 59.49 49.2402C61.36 46.0902 63.39 43.0502 65.57 40.1102C79.34 21.5202 98.83 7.91016 120.43 7.91016C162.17 7.90016 196.01 58.7302 196.01 98.0702Z" fill="#8BD74B"/>
<path d="M149.95 50.6401C153.28 50.6401 155.97 47.9401 155.97 44.6201C155.97 41.2901 153.27 38.6001 149.95 38.6001C146.62 38.6001 143.93 41.3001 143.93 44.6201C143.92 47.9501 146.62 50.6401 149.95 50.6401Z" fill="#B0E881"/>
<path d="M144.72 34.95C154.23 34.95 161.94 27.24 161.94 17.73C161.94 8.22001 154.23 0.51001 144.72 0.51001C135.21 0.51001 127.5 8.22001 127.5 17.73C127.5 27.24 135.21 34.95 144.72 34.95Z" fill="#8BD74B"/>
<path d="M143.639 29.5699C151.069 29.5699 157.089 23.5499 157.089 16.1199C157.089 8.68992 151.069 2.66992 143.639 2.66992C136.209 2.66992 130.189 8.68992 130.189 16.1199C130.189 23.5399 136.209 29.5699 143.639 29.5699Z" fill="white"/>
<path d="M139.209 25.9599C143.079 25.9599 146.219 22.8199 146.219 18.9499C146.219 15.0799 143.079 11.9399 139.209 11.9399C135.339 11.9399 132.199 15.0799 132.199 18.9499C132.199 22.8199 135.339 25.9599 139.209 25.9599Z" fill="#183B59"/>
<path d="M82.5605 35.18C91.5805 35.18 98.8905 27.87 98.8905 18.85C98.8905 9.83002 91.5805 2.52002 82.5605 2.52002C73.5405 2.52002 66.2305 9.83002 66.2305 18.85C66.2305 27.86 73.5405 35.18 82.5605 35.18Z" fill="#8BD74B"/>
<path d="M81.5295 30.07C88.5795 30.07 94.2895 24.3601 94.2895 17.3101C94.2895 10.2601 88.5795 4.55005 81.5295 4.55005C74.4795 4.55005 68.7695 10.2601 68.7695 17.3101C68.7695 24.3601 74.4895 30.07 81.5295 30.07Z" fill="white"/>
<path d="M77.9899 27.52C81.6599 27.52 84.6398 24.54 84.6398 20.87C84.6398 17.2 81.6599 14.22 77.9899 14.22C74.3199 14.22 71.3398 17.2 71.3398 20.87C71.3498 24.55 74.3199 27.52 77.9899 27.52Z" fill="#183B59"/>
<path d="M167.74 102.38C167.74 133.18 140.36 151.46 100.95 150.8C67.7498 150.24 40.8398 125.83 40.8398 95.03C40.8398 64.23 67.7498 39.26 100.95 39.26C134.15 39.26 167.74 71.58 167.74 102.38Z" fill="#B0E881"/>
<path d="M137 128C143.16 128 148.16 123 148.16 116.84C148.16 110.68 143.16 105.68 137 105.68C130.84 105.68 125.84 110.68 125.84 116.84C125.84 123 130.83 128 137 128Z" fill="#DFF6CD"/>
<path d="M137 128.14C134.77 128.14 132.58 127.48 130.72 126.24C128.86 125 127.41 123.23 126.56 121.17C125.7 119.1 125.48 116.83 125.92 114.64C126.36 112.45 127.43 110.43 129.01 108.85C130.59 107.27 132.6 106.19 134.8 105.76C136.99 105.32 139.26 105.55 141.33 106.4C143.4 107.25 145.16 108.7 146.4 110.56C147.64 112.42 148.3 114.6 148.3 116.84C148.3 119.84 147.1 122.71 144.99 124.83C142.87 126.94 140 128.13 137 128.14ZM137 105.81C134.82 105.81 132.69 106.46 130.88 107.67C129.07 108.88 127.66 110.6 126.82 112.62C125.99 114.63 125.77 116.85 126.19 118.99C126.62 121.13 127.66 123.09 129.21 124.63C130.75 126.17 132.71 127.22 134.85 127.65C136.99 128.07 139.2 127.86 141.22 127.02C143.23 126.19 144.95 124.77 146.17 122.96C147.38 121.15 148.03 119.02 148.03 116.84C148.03 113.92 146.86 111.12 144.8 109.05C142.73 106.98 139.92 105.82 137 105.81Z" fill="#F2F2F2"/>
<path d="M111.559 112.37C115.749 112.37 119.149 108.97 119.149 104.78C119.149 100.59 115.749 97.1899 111.559 97.1899C107.369 97.1899 103.969 100.59 103.969 104.78C103.969 108.97 107.369 112.37 111.559 112.37Z" fill="#DFF6CD"/>
<path d="M111.56 112.51C110.03 112.51 108.54 112.06 107.27 111.21C106 110.36 105.01 109.15 104.42 107.74C103.83 106.33 103.68 104.77 103.98 103.28C104.28 101.78 105.01 100.4 106.1 99.3199C107.18 98.2399 108.56 97.4999 110.06 97.2099C111.56 96.9099 113.11 97.0699 114.52 97.6499C115.93 98.2399 117.14 99.2299 117.99 100.5C118.84 101.77 119.29 103.26 119.29 104.79C119.29 106.84 118.47 108.8 117.02 110.25C115.57 111.69 113.6 112.5 111.56 112.51ZM111.56 97.3299C110.09 97.3299 108.65 97.7699 107.42 98.5899C106.2 99.4099 105.24 100.57 104.68 101.93C104.12 103.29 103.97 104.79 104.26 106.23C104.55 107.67 105.26 109 106.3 110.04C107.34 111.08 108.67 111.79 110.11 112.08C111.55 112.37 113.05 112.22 114.41 111.66C115.77 111.1 116.93 110.14 117.75 108.92C118.57 107.7 119 106.26 119 104.78C118.99 102.81 118.2 100.93 116.81 99.5399C115.42 98.1499 113.53 97.3699 111.56 97.3599V97.3299Z" fill="#F2F2F2"/>
<path d="M128.29 98.08C130.39 98.08 132.08 96.38 132.08 94.29C132.08 92.19 130.38 90.5 128.29 90.5C126.19 90.5 124.5 92.2 124.5 94.29C124.5 96.38 126.2 98.08 128.29 98.08Z" fill="#DFF6CD"/>
<path d="M128.289 98.2301C127.509 98.2301 126.749 98.0001 126.099 97.5701C125.449 97.1401 124.949 96.5201 124.649 95.8001C124.349 95.0801 124.269 94.2901 124.419 93.5201C124.569 92.7501 124.949 92.0501 125.499 91.5001C126.049 90.9501 126.749 90.5701 127.519 90.4201C128.279 90.2701 129.079 90.3401 129.799 90.6401C130.519 90.9401 131.139 91.4401 131.569 92.0901C131.999 92.7401 132.229 93.5001 132.229 94.2801C132.229 95.3201 131.819 96.3301 131.079 97.0601C130.339 97.8101 129.339 98.2301 128.289 98.2301ZM128.289 90.6301C127.569 90.6301 126.859 90.8401 126.259 91.2501C125.659 91.6501 125.189 92.2201 124.909 92.8901C124.629 93.5601 124.559 94.2901 124.699 95.0001C124.839 95.7101 125.189 96.3601 125.699 96.8701C126.209 97.3801 126.859 97.7301 127.569 97.8701C128.279 98.0101 129.009 97.9401 129.679 97.6601C130.349 97.3801 130.919 96.9201 131.319 96.3101C131.719 95.7101 131.939 95.0001 131.939 94.2801C131.939 93.3101 131.549 92.3801 130.869 91.7001C130.189 91.0201 129.259 90.6301 128.289 90.6301Z" fill="#F2F2F2"/>
<path d="M66.4698 43.2601C66.4698 44.8501 65.8398 46.3801 64.7098 47.5101C63.5798 48.6401 62.0498 49.2701 60.4598 49.2701C60.1398 49.2701 59.8298 49.2401 59.5098 49.2001C61.3798 46.0501 63.4098 43.0101 65.5898 40.0701C66.1698 41.0301 66.4698 42.1301 66.4698 43.2601Z" fill="#B0E881"/>
<path d="M3.35003 46.2299L53.72 21.0799C54.86 20.5099 56.2 21.0799 56.91 22.3599L113.01 126.6C114.03 128.48 110.71 132.81 106.33 132.92L61.73 139.85C61.24 139.91 60.75 139.82 60.31 139.6C59.87 139.38 59.51 139.04 59.26 138.61L2.48004 50.8899C1.42004 49.2699 1.83003 46.9799 3.35003 46.2299Z" fill="#1D1D1B"/>
<path d="M106.02 134.5L88.1897 137.39L81.2397 138.51L59.1497 142.1C58.6797 142.14 58.1997 142.04 57.7797 141.82C57.3597 141.59 57.0197 141.25 56.7997 140.83L55.1797 138.26L43.9397 120.44L1.22969 52.6101C0.199688 50.9801 0.559686 48.7201 1.96969 48.0001L49.1797 24.0401C50.2397 23.5001 51.5297 24.0401 52.2197 25.3801L70.2197 59.4401L74.1597 66.9101L74.7697 68.0801L78.1097 74.4901L107.39 129.93C108.44 131.85 107.7 134.23 106.02 134.5Z" fill="#808080"/>
<path d="M6.79008 50.8699L20.7401 43.3799C21.0401 43.1799 21.3801 43.0499 21.7401 42.9799C22.1001 42.9099 22.4601 42.9199 22.8201 42.9999C23.1701 43.0799 23.5101 43.2199 23.8101 43.4299C24.1101 43.6399 24.3601 43.8999 24.5601 44.1999L40.7901 73.4399C40.9901 73.7799 41.1101 74.1599 41.1401 74.5599C41.1701 74.9499 41.1201 75.3499 40.9801 75.7199C40.8401 76.0899 40.6201 76.4299 40.3401 76.6999C40.0601 76.9799 39.7201 77.1899 39.3401 77.3199L26.3001 82.5399C25.6501 82.7899 24.9401 82.8099 24.2801 82.5999C23.6201 82.3899 23.0501 81.9599 22.6801 81.3799L5.83008 54.6199C5.64008 54.3099 5.51008 53.9699 5.46008 53.6099C5.40008 53.2499 5.42008 52.8899 5.51008 52.5399C5.60008 52.1899 5.76008 51.8599 5.98008 51.5699C6.20008 51.2799 6.48008 51.0399 6.79008 50.8699Z" fill="#1D1D1B"/>
<path d="M16.0791 60.68C19.0991 60.68 21.5391 58.23 21.5391 55.22C21.5391 52.21 19.0891 49.76 16.0791 49.76C13.0691 49.76 10.6191 52.21 10.6191 55.22C10.6191 58.23 13.0591 60.68 16.0791 60.68Z" fill="#333333"/>
<path d="M19.9295 53.03C20.4495 53.9 20.5995 54.95 20.3495 55.93C20.0995 56.91 19.4695 57.76 18.5995 58.28C18.3095 58.45 17.9995 58.58 17.6695 58.66C18.4495 58.17 19.0295 57.41 19.2895 56.52C19.5495 55.63 19.4895 54.68 19.0995 53.84C18.7095 53 18.0395 52.33 17.1995 51.95C16.3595 51.57 15.4095 51.51 14.5195 51.77C14.5595 51.73 14.6095 51.7 14.6595 51.67C15.0995 51.41 15.5795 51.24 16.0795 51.17C16.5795 51.1 17.0895 51.13 17.5795 51.25C18.0695 51.38 18.5295 51.6 18.9295 51.9C19.3295 52.21 19.6695 52.59 19.9295 53.03Z" fill="#4D4D4D"/>
<path d="M26.3799 78.92C29.3999 78.92 31.8399 76.47 31.8399 73.46C31.8399 70.44 29.3899 68 26.3799 68C23.3599 68 20.9199 70.45 20.9199 73.46C20.9199 76.47 23.3699 78.92 26.3799 78.92Z" fill="#333333"/>
<path d="M20.5091 67.7601C21.8691 67.7601 22.9791 66.6501 22.9791 65.2901C22.9791 63.9301 21.8691 62.8201 20.5091 62.8201C19.1491 62.8201 18.0391 63.9301 18.0391 65.2901C18.0391 66.6501 19.1391 67.7601 20.5091 67.7601Z" fill="#333333"/>
<path d="M27.8705 76.9801C27.8205 77.0201 27.7806 77.0501 27.7206 77.0801C27.2906 77.3401 26.8106 77.5001 26.3106 77.5701C25.8106 77.6401 25.3006 77.6101 24.8206 77.4901C24.3306 77.3601 23.8706 77.1401 23.4706 76.8401C23.0706 76.5401 22.7306 76.1601 22.4706 75.7201C22.2106 75.2901 22.0505 74.8101 21.9805 74.3101C21.9105 73.8101 21.9406 73.3001 22.0606 72.8201C22.1906 72.3301 22.4106 71.8701 22.7106 71.4701C23.0106 71.0701 23.3906 70.7301 23.8306 70.4701C24.1206 70.3001 24.4305 70.1701 24.7605 70.0801C24.0005 70.5801 23.4405 71.3401 23.1805 72.2101C22.9205 73.0901 22.9905 74.0301 23.3705 74.8601C23.7505 75.6901 24.4105 76.3601 25.2305 76.7501C26.0605 77.1401 26.9905 77.2201 27.8705 76.9801Z" fill="#4D4D4D"/>
<path d="M70.2292 59.46L43.9492 120.42L55.1892 138.23L74.7892 68.09L70.2292 59.46Z" fill="#999999"/>
<path d="M31.7801 110.48C30.9501 110.48 30.1601 110.16 29.5601 109.6C28.9601 109.03 28.6001 108.26 28.5501 107.43C28.4201 105.23 28.3401 105.13 27.5901 104.2C25.8701 102.1 24.4501 99.77 23.3801 97.28C23.0201 96.5 22.9801 95.61 23.2701 94.8C23.5601 93.99 24.1701 93.33 24.9501 92.97C25.7301 92.61 26.6201 92.57 27.4301 92.86C28.2401 93.15 28.9001 93.76 29.2601 94.54C30.1101 96.54 31.2301 98.42 32.6001 100.1C34.1001 101.94 34.7701 103.15 35.0001 107.03C35.0501 107.89 34.7601 108.73 34.1901 109.38C33.6201 110.02 32.8201 110.41 31.9601 110.47L31.7801 110.48Z" fill="#8BD74B"/>
<path d="M32.0499 111.81C31.5299 111.8 31.0099 111.66 30.5599 111.4C30.1099 111.14 29.7299 110.76 29.4599 110.31C29.1899 109.86 29.0399 109.35 29.0299 108.83C29.0199 108.31 29.1399 107.79 29.3799 107.32C34.3199 97.9099 39.2199 96.6299 41.7099 96.6899C42.9399 96.7199 44.1399 97.0899 45.1599 97.7799C46.1799 98.4599 46.9899 99.4299 47.4799 100.55C47.7799 101.28 47.7899 102.1 47.4999 102.84C47.2099 103.58 46.6399 104.17 45.9199 104.5C45.1999 104.83 44.3799 104.87 43.6299 104.61C42.8799 104.35 42.2599 103.81 41.9099 103.1C41.7799 102.82 41.6699 102.81 41.5599 102.81C40.5799 102.81 37.8999 104.29 34.8099 110.16C34.5499 110.66 34.1599 111.08 33.6699 111.37C33.1799 111.66 32.6199 111.81 32.0499 111.81Z" fill="#8BD74B"/>
<path d="M32.8097 114.8C32.1597 114.81 31.5197 114.61 30.9897 114.24C30.4597 113.87 30.0497 113.34 29.8297 112.73C29.6097 112.12 29.5897 111.45 29.7597 110.82C29.9297 110.19 30.2997 109.64 30.8097 109.23C35.2897 105.58 40.0997 104.01 44.0197 104.93C45.0997 105.14 46.1097 105.6 46.9797 106.28C47.8497 106.95 48.5497 107.82 49.0197 108.81C49.3697 109.57 49.3997 110.43 49.1097 111.21C48.8197 111.99 48.2297 112.63 47.4697 112.97C46.7097 113.32 45.8497 113.35 45.0697 113.06C44.2897 112.77 43.6597 112.18 43.3097 111.42C43.1197 111.21 42.8697 111.08 42.5997 111.05C41.1397 110.72 38.2097 111.31 34.7897 114.1C34.2197 114.55 33.5297 114.8 32.8097 114.8Z" fill="#8BD74B"/>
<path d="M172.24 96.0201C168.47 99.4301 164.15 102.16 159.46 104.1C157.06 105.03 154.58 105.72 152.05 106.16C149.53 106.55 146.99 106.69 144.44 106.57C139.52 106.29 134.69 105.14 130.17 103.17C127.98 102.24 125.86 101.15 123.82 99.9201C122.8 99.3001 121.82 98.6601 120.84 97.9801C120.35 97.6401 119.87 97.2901 119.4 96.9201L118.68 96.3601L117.91 95.6901C117.18 95.0801 116.71 94.2201 116.6 93.2801C116.49 92.3401 116.74 91.3901 117.31 90.6301C117.88 89.8701 118.71 89.3501 119.65 89.1901C120.59 89.0301 121.55 89.2301 122.34 89.7501L122.62 89.9401L123.15 90.2901L123.76 90.6801C124.17 90.9401 124.6 91.1901 125.04 91.4401C125.9 91.9401 126.8 92.4001 127.71 92.8401C129.5 93.7101 131.35 94.4501 133.25 95.0601C136.9 96.2701 140.73 96.8201 144.56 96.6901C148.2 96.5501 151.77 95.6201 155.02 93.9501C158.27 92.2101 161.21 89.9301 163.7 87.2101C164.81 86.0201 166.35 85.3201 167.98 85.2601C168.79 85.2301 169.59 85.3601 170.35 85.6501C171.1 85.9301 171.8 86.3601 172.39 86.9101C172.98 87.4601 173.45 88.1201 173.79 88.8601C174.12 89.5901 174.31 90.3901 174.34 91.1901C174.37 92.0001 174.24 92.8001 173.95 93.5501C173.67 94.3101 173.24 95.0001 172.69 95.5901C172.57 95.7301 172.43 95.8601 172.3 95.9801L172.24 96.0201Z" fill="#8BD74B"/>
<path d="M116.91 90.85C116.51 90.36 116.12 89.86 115.71 89.39C115.3 88.92 114.88 88.45 114.41 88.05C113.54 87.2 112.6 86.42 111.6 85.73C110.63 85.08 109.6 84.53 108.53 84.08C108.02 83.86 107.5 83.69 106.96 83.55C106.71 83.48 106.46 83.42 106.21 83.38C106.09 83.38 105.97 83.33 105.86 83.33C105.81 83.33 105.76 83.33 105.71 83.33C105.71 83.33 105.59 83.33 105.67 83.33C104.84 83.17 104.11 82.7 103.62 82.01C103.13 81.32 102.93 80.47 103.06 79.64C103.19 78.81 103.64 78.06 104.31 77.55C104.98 77.04 105.83 76.81 106.66 76.92C106.81 76.95 106.97 76.99 107.11 77.03C107.22 77.06 107.33 77.09 107.44 77.14C107.67 77.21 107.86 77.29 108.06 77.37C108.45 77.53 108.83 77.7 109.2 77.88C109.91 78.23 110.6 78.63 111.26 79.08C112.53 79.93 113.71 80.9 114.78 81.99C115.81 83.05 116.75 84.19 117.59 85.4C118.02 85.99 118.36 86.62 118.75 87.22C119.14 87.82 119.42 88.48 119.77 89.1C119.96 89.47 120.02 89.89 119.92 90.29C119.82 90.69 119.57 91.04 119.23 91.27C118.89 91.5 118.47 91.6 118.06 91.54C117.65 91.48 117.28 91.27 117.01 90.96L116.91 90.85Z" fill="#8BD74B"/>
<path d="M118.83 92.4599C117.78 92.1899 116.7 92.0499 115.61 92.0299C114.81 91.9799 114.02 92.1899 113.35 92.6199C113.17 92.7799 113.03 92.9799 112.95 93.1999C112.84 93.4799 112.77 93.7799 112.75 94.0799C112.71 94.4799 112.71 94.8799 112.75 95.2799C112.75 95.4899 112.8 95.7099 112.84 95.9499L112.91 96.2599L112.95 96.3999C112.95 96.4299 112.98 96.5099 112.98 96.4699C113.08 97.2399 112.88 98.0299 112.42 98.6599C111.96 99.2899 111.28 99.7299 110.51 99.8699C109.74 100.02 108.95 99.8599 108.29 99.4499C107.63 99.0299 107.16 98.3799 106.96 97.6199C106.96 97.4299 106.96 97.3499 106.92 97.2399V96.9299C106.92 96.7299 106.92 96.5299 106.92 96.3299C106.92 95.9399 106.92 95.5399 106.99 95.1499C107.07 94.3199 107.24 93.5099 107.5 92.7199C107.8 91.8299 108.25 91.0099 108.84 90.2799C109.46 89.4999 110.26 88.8799 111.16 88.4599C111.98 88.0999 112.86 87.8899 113.76 87.8599C114.52 87.8199 115.28 87.8799 116.02 88.0099C117.37 88.2899 118.67 88.7199 119.92 89.2899C120.3 89.4599 120.59 89.7699 120.76 90.1499C120.92 90.5299 120.94 90.9599 120.81 91.3499C120.68 91.7399 120.41 92.0699 120.05 92.2799C119.69 92.4799 119.27 92.5499 118.86 92.4599H118.83Z" fill="#8BD74B"/>
<path d="M121.119 94.4899C120.239 94.4799 119.349 94.5899 118.499 94.8099C118.209 94.8899 117.929 95.0299 117.689 95.2099C117.539 95.3599 117.579 95.4399 117.649 95.4399C117.719 95.4399 117.749 95.4899 117.809 95.6799C117.899 95.9399 118.009 96.1999 118.129 96.4399C118.299 96.7699 118.489 97.0899 118.699 97.3999C118.809 97.5599 118.929 97.7299 119.049 97.8799C119.149 98.0199 119.269 98.1499 119.389 98.2699C119.799 98.5499 120.139 98.9199 120.379 99.3499C120.629 99.7799 120.769 100.26 120.809 100.75C120.839 101.24 120.769 101.74 120.579 102.2C120.399 102.66 120.109 103.07 119.749 103.41C119.389 103.75 118.949 103.99 118.469 104.14C117.999 104.28 117.499 104.32 117.009 104.24C116.519 104.16 116.049 103.98 115.649 103.7C115.239 103.42 114.899 103.05 114.659 102.62L114.189 101.79C114.019 101.49 113.859 101.17 113.729 100.85C113.599 100.56 113.479 100.26 113.359 99.9499C113.129 99.3199 112.939 98.6699 112.809 98.0099C112.649 97.2599 112.589 96.4899 112.619 95.7199C112.659 94.7399 112.969 93.7999 113.499 92.9799C114.059 92.1699 114.849 91.5399 115.759 91.1899C116.459 90.9299 117.189 90.7899 117.929 90.7599C119.129 90.7399 120.329 90.8799 121.499 91.1599C121.939 91.1999 122.349 91.4199 122.629 91.7699C122.909 92.1099 123.049 92.5599 122.999 92.9999C122.959 93.4399 122.739 93.8499 122.389 94.1299C122.049 94.4099 121.599 94.5499 121.159 94.4999L121.119 94.4899Z" fill="#8BD74B"/>
<path d="M96 28.97C96.28 29.15 96.6 29.27 96.94 29.31C97.26 29.37 97.57 29.42 97.9 29.45C98.57 29.5 99.19 29.55 99.84 29.57L103.71 29.73C106.29 29.85 108.85 30.02 111.42 30.28C113.98 30.54 116.54 30.88 119.12 31.34C121.79 31.77 124.43 32.41 127.01 33.24C124.49 34.46 121.78 35.23 119 35.52C116.3 35.84 113.57 35.86 110.86 35.58C108.13 35.31 105.44 34.72 102.85 33.82C101.52 33.35 100.24 32.76 99.02 32.05C98.39 31.68 97.8 31.25 97.24 30.78C96.96 30.53 96.7 30.26 96.46 29.97C96.22 29.68 96.07 29.33 96 28.97Z" fill="#46B755"/>
</svg>
