<svg width="256" height="242" viewBox="0 0 256 242" fill="none" xmlns="http://www.w3.org/2000/svg">
<path d="M87.0502 191.81C82.6202 194.03 78.4502 196.54 74.3602 199.2C70.2702 201.87 66.2902 204.69 62.4302 207.75C58.5702 210.81 54.8102 214.07 51.3002 217.88C49.5502 219.8 47.8602 221.86 46.3302 224.36C45.6002 225.67 44.8502 226.99 44.3302 228.71C43.8202 230.4 43.4002 232.44 43.8202 234.89C44.4602 237.96 47.4702 239.93 50.5302 239.29C53.6002 238.65 55.5702 235.65 54.9302 232.58C54.8802 232.67 54.8002 232.29 54.9202 231.69C54.9902 231.1 55.3302 230.27 55.6802 229.46C56.4702 227.78 57.6302 226 58.9302 224.25C61.5502 220.75 64.7102 217.39 68.0302 214.18C71.3502 210.96 74.8902 207.9 78.5202 204.97C82.1702 202.05 85.9402 199.26 89.8202 196.79L89.8502 196.77C91.1902 195.93 91.5802 194.16 90.7402 192.82C89.9602 191.58 88.3502 191.16 87.0502 191.81Z" fill="#46B755"/>
<path d="M90.6896 192.95C87.2696 195.25 84.4696 198.02 81.8796 200.93C79.3096 203.85 76.9696 206.94 74.8496 210.19C72.7296 213.45 70.7795 216.83 69.1195 220.52C68.2995 222.37 67.5396 224.29 66.9596 226.43C66.6696 227.49 66.4196 228.63 66.2496 229.87C66.1096 231.14 66.0195 232.5 66.2895 234.2L66.6396 236.4C67.1696 239.67 70.2396 241.9 73.5196 241.37C76.7896 240.84 79.0196 237.77 78.4896 234.49C78.3396 233.52 77.9395 232.62 77.3995 231.88C77.3195 231.77 77.2296 231.27 77.2096 230.71C77.1996 230.12 77.2396 229.43 77.3496 228.69C77.5496 227.22 77.9296 225.63 78.4096 224.03C79.3796 220.82 80.7096 217.58 82.2396 214.43C83.7696 211.28 85.5295 208.21 87.4795 205.31C89.4395 202.43 91.6295 199.68 94.0895 197.52L94.1596 197.46C95.3496 196.42 95.4595 194.62 94.4195 193.43C93.4695 192.34 91.8596 192.16 90.6896 192.95Z" fill="#46B755"/>
<path d="M85.7189 190.08C81.6189 189.65 77.6989 189.98 73.8389 190.55C69.9889 191.14 66.2189 192.01 62.4989 193.13C58.7789 194.26 55.1189 195.61 51.4789 197.37C49.6589 198.26 47.8589 199.25 46.0289 200.51C45.1189 201.14 44.1989 201.85 43.2789 202.69C42.3589 203.58 41.4089 204.56 40.5289 206.04L39.3889 207.95C37.6889 210.79 38.6189 214.48 41.4689 216.18C44.3089 217.88 47.9989 216.95 49.6989 214.1C50.1989 213.26 50.4689 212.31 50.5289 211.4C50.5389 211.26 50.7889 210.83 51.1389 210.38C51.5189 209.92 51.9889 209.42 52.5489 208.92C53.6389 207.93 54.9589 206.94 56.3589 206.02C59.1589 204.18 62.2689 202.56 65.4589 201.12C68.6589 199.68 71.9789 198.46 75.3289 197.49C78.6789 196.54 82.1289 195.83 85.3989 195.76H85.4889C87.0689 195.72 88.3089 194.41 88.2789 192.84C88.2389 191.4 87.1289 190.23 85.7189 190.08Z" fill="#46B755"/>
<path d="M75.5998 178.09C70.2698 175.39 65.6998 172.27 61.4998 169.02C57.3098 165.77 53.4998 162.36 49.8898 158.89C42.6998 151.94 36.3198 144.71 30.2598 137.47C27.2298 133.85 24.2898 130.23 21.4098 126.67C18.5398 123.13 15.6898 119.58 12.9998 116.47C12.3298 115.7 11.6798 114.97 11.0798 114.31C10.4898 113.68 9.90983 113.08 9.60983 112.8C9.47983 112.67 9.37982 112.59 9.67982 112.77C9.81983 112.84 10.1098 113.01 10.6098 113.22C11.1798 113.44 12.0298 113.83 13.8898 114.03C14.1398 114.05 14.2998 114.06 14.6298 114.08C14.9198 114.09 15.2198 114.09 15.5198 114.07L15.9598 114.04L16.4898 113.99C16.8498 113.95 17.2098 113.88 17.5598 113.81C17.8898 113.74 18.3398 113.63 18.7198 113.5C19.1198 113.37 19.4998 113.23 19.8898 113.06C20.6798 112.73 21.4698 112.27 22.1298 111.8C22.4598 111.57 22.7898 111.31 23.0998 111.04C23.4298 110.75 23.6498 110.55 23.8998 110.28C24.1498 110.02 24.3798 109.75 24.5998 109.47C24.7898 109.24 24.9498 109.02 25.1198 108.78C25.2798 108.55 25.4398 108.29 25.5698 108.07C25.6798 107.88 25.7898 107.69 25.8898 107.5C25.9898 107.31 26.0798 107.11 26.1698 106.91C26.2398 106.76 26.2998 106.62 26.3598 106.47C26.8198 105.26 26.8898 104.61 26.9498 104.24C26.9998 103.81 26.9898 103.67 26.9798 103.53C26.9598 103.34 26.9398 103.5 26.9498 103.72C26.9598 103.96 26.9698 104.27 27.0098 104.65C27.0498 105.03 27.0998 105.42 27.1598 105.89L27.3598 107.32C27.4898 108.27 27.6798 109.22 27.8398 110.18C28.0498 111.12 28.2098 112.08 28.4498 113.02C30.2098 120.6 33.3198 128.03 37.4198 135.12C41.5298 142.21 46.6598 148.92 52.4498 155.18C58.2498 161.44 64.7098 167.26 71.6098 172.6C75.0598 175.27 78.6198 177.82 82.2698 180.24C84.0898 181.45 85.9398 182.62 87.7998 183.75C88.7298 184.31 89.6598 184.86 90.5998 185.4L91.9998 186.19L93.2998 186.9L93.6698 187.1C97.3498 189.11 98.6998 193.72 96.6898 197.4C94.8098 200.84 90.5998 202.23 87.0598 200.74L85.2598 199.97L83.5798 199.22C82.4698 198.72 81.3798 198.21 80.2998 197.68C78.1398 196.63 75.9998 195.54 73.8798 194.42C69.6498 192.16 65.5198 189.76 61.4598 187.19C53.3398 182.06 45.5398 176.3 38.2298 169.77C30.9298 163.24 24.0998 155.94 18.1998 147.69C12.3098 139.45 7.30982 130.25 3.92982 120.24C3.47982 119 3.12983 117.72 2.72983 116.46C2.37983 115.18 1.99982 113.91 1.69982 112.62L1.22983 110.68C1.07983 110.02 0.939822 109.28 0.809822 108.53C0.679822 107.78 0.559824 106.96 0.459824 106.06C0.369824 105.15 0.279826 104.16 0.289826 102.82C0.299826 102.12 0.329824 101.4 0.459824 100.4C0.589824 99.4599 0.789822 98.2499 1.44982 96.5099L1.71983 95.8699C1.82983 95.6199 1.96982 95.3499 2.08982 95.0999C2.21982 94.8399 2.35982 94.5899 2.49982 94.3399C2.66982 94.0599 2.86982 93.7399 3.06982 93.4499C3.27982 93.1599 3.47982 92.8699 3.70982 92.5799C3.97982 92.2499 4.25982 91.9299 4.55982 91.6199C4.86982 91.2999 5.12983 91.0399 5.50983 90.7099C5.87983 90.3999 6.25983 90.0999 6.64983 89.8199C7.41983 89.2699 8.34983 88.7499 9.25983 88.3499C9.70983 88.1599 10.1598 87.9899 10.6298 87.8399C11.0798 87.6899 11.5998 87.5499 11.9998 87.4799C12.4298 87.3899 12.8498 87.3199 13.2898 87.2699C13.4998 87.2399 13.7298 87.2199 13.9198 87.1999L14.4698 87.1699C14.8398 87.1599 15.1998 87.1599 15.5698 87.1599C15.9698 87.1699 16.1998 87.1899 16.5198 87.2199C18.9598 87.4799 20.3498 88.0499 21.4498 88.4999C22.4798 88.9499 23.2698 89.3899 23.8898 89.7599C25.1698 90.5299 25.9698 91.1599 26.7398 91.7399C28.2198 92.9099 29.2898 93.8999 30.3298 94.8699C31.3398 95.8299 32.2798 96.7499 33.1698 97.6599C36.6998 101.26 39.7998 104.68 42.9198 108.06C46.0198 111.43 49.0598 114.74 52.1298 117.95C58.2398 124.39 64.4198 130.51 70.7598 135.91C73.9198 138.6 77.1298 141.1 80.3198 143.25C83.4998 145.41 86.6898 147.22 89.6298 148.46C97.9698 151.97 101.89 161.58 98.3798 169.92C94.8698 178.26 85.2598 182.18 76.9198 178.67C76.5698 178.52 76.2298 178.37 75.8998 178.2L75.5998 178.09Z" fill="#46B755"/>
<path d="M168.611 191.81C173.041 194.03 177.211 196.54 181.301 199.2C185.391 201.87 189.371 204.69 193.231 207.75C197.091 210.81 200.851 214.07 204.361 217.88C206.111 219.8 207.801 221.86 209.331 224.36C210.061 225.67 210.811 226.99 211.331 228.71C211.841 230.4 212.261 232.44 211.841 234.89C211.201 237.96 208.191 239.93 205.131 239.29C202.061 238.65 200.091 235.65 200.731 232.58C200.781 232.67 200.861 232.29 200.741 231.69C200.671 231.1 200.331 230.27 199.981 229.46C199.191 227.78 198.031 226 196.731 224.25C194.111 220.75 190.951 217.39 187.631 214.18C184.311 210.96 180.771 207.9 177.141 204.97C173.491 202.05 169.721 199.26 165.841 196.79L165.811 196.77C164.471 195.93 164.081 194.16 164.921 192.82C165.701 191.58 167.311 191.16 168.611 191.81Z" fill="#46B755"/>
<path d="M164.969 192.95C168.389 195.25 171.189 198.02 173.779 200.93C176.349 203.85 178.689 206.94 180.819 210.19C182.939 213.45 184.889 216.83 186.549 220.52C187.369 222.37 188.129 224.29 188.709 226.43C188.999 227.49 189.249 228.63 189.419 229.87C189.559 231.14 189.649 232.5 189.379 234.2L189.029 236.4C188.499 239.67 185.429 241.9 182.149 241.37C178.879 240.84 176.649 237.77 177.179 234.49C177.329 233.52 177.729 232.62 178.269 231.88C178.349 231.77 178.439 231.27 178.459 230.71C178.469 230.12 178.429 229.43 178.319 228.69C178.119 227.22 177.739 225.63 177.259 224.03C176.289 220.82 174.959 217.58 173.429 214.43C171.899 211.28 170.139 208.21 168.189 205.31C166.229 202.43 164.039 199.68 161.579 197.52L161.509 197.46C160.319 196.42 160.209 194.62 161.249 193.43C162.189 192.34 163.799 192.16 164.969 192.95Z" fill="#46B755"/>
<path d="M169.939 190.08C174.039 189.65 177.959 189.98 181.819 190.55C185.669 191.14 189.439 192.01 193.159 193.13C196.879 194.26 200.539 195.61 204.179 197.37C205.999 198.26 207.799 199.25 209.629 200.51C210.539 201.14 211.459 201.85 212.379 202.69C213.299 203.58 214.249 204.56 215.129 206.04L216.269 207.95C217.969 210.79 217.039 214.48 214.189 216.18C211.349 217.88 207.659 216.95 205.959 214.1C205.459 213.26 205.189 212.31 205.129 211.4C205.119 211.26 204.869 210.83 204.519 210.38C204.139 209.92 203.669 209.42 203.109 208.92C202.019 207.93 200.699 206.94 199.299 206.02C196.499 204.18 193.389 202.56 190.199 201.12C186.999 199.68 183.679 198.46 180.329 197.49C176.979 196.54 173.529 195.83 170.259 195.76H170.169C168.589 195.72 167.349 194.41 167.379 192.84C167.419 191.4 168.529 190.23 169.939 190.08Z" fill="#46B755"/>
<path d="M166.011 148.52C168.951 147.28 172.141 145.46 175.321 143.31C178.511 141.15 181.721 138.66 184.881 135.97C191.221 130.58 197.401 124.44 203.511 118.01C206.571 114.79 209.621 111.49 212.721 108.12C215.841 104.74 218.941 101.32 222.471 97.7199C223.361 96.8199 224.291 95.8899 225.311 94.9299C226.351 93.9599 227.421 92.9699 228.901 91.7999C229.671 91.2099 230.481 90.5799 231.751 89.8199C232.371 89.4499 233.171 89.0099 234.191 88.5599C235.291 88.1099 236.681 87.5399 239.121 87.2799C239.441 87.2499 239.671 87.2299 240.071 87.2199C240.441 87.2099 240.801 87.2099 241.171 87.2299L241.721 87.2599C241.911 87.2699 242.151 87.2999 242.351 87.3299C242.781 87.3799 243.211 87.4599 243.641 87.5399C244.041 87.6199 244.551 87.7599 245.011 87.8999C245.481 88.0499 245.931 88.2099 246.381 88.4099C247.291 88.8099 248.221 89.3199 248.991 89.8799C249.381 90.1599 249.761 90.4599 250.131 90.7699C250.521 91.0999 250.781 91.3599 251.081 91.6799C251.371 91.9899 251.661 92.3099 251.931 92.6399C252.161 92.9299 252.361 93.2099 252.571 93.5099C252.771 93.7999 252.981 94.1199 253.141 94.3999C253.291 94.6499 253.431 94.9099 253.551 95.1599C253.681 95.4099 253.811 95.6799 253.921 95.9299L254.191 96.5699C254.861 98.3099 255.051 99.5199 255.181 100.46C255.311 101.46 255.341 102.17 255.351 102.88C255.361 104.22 255.281 105.2 255.181 106.12C255.081 107.02 254.961 107.84 254.831 108.59C254.701 109.34 254.561 110.08 254.411 110.74L253.941 112.68C253.631 113.98 253.251 115.24 252.911 116.52C252.511 117.78 252.151 119.06 251.711 120.3C248.341 130.31 243.331 139.51 237.441 147.75C231.531 156 224.711 163.3 217.411 169.83C210.101 176.35 202.301 182.12 194.181 187.25C190.121 189.81 185.981 192.22 181.761 194.48C179.651 195.61 177.511 196.7 175.341 197.74C174.261 198.26 173.161 198.77 172.061 199.28L170.401 200L168.601 200.77C164.751 202.41 160.291 200.62 158.651 196.76C157.111 193.15 158.591 189 161.951 187.15L162.351 186.93L163.651 186.22L165.051 185.43C165.981 184.9 166.921 184.34 167.851 183.78C169.711 182.65 171.561 181.48 173.381 180.27C177.031 177.85 180.591 175.3 184.041 172.63C190.941 167.3 197.401 161.47 203.201 155.21C208.991 148.95 214.131 142.24 218.231 135.15C222.331 128.07 225.441 120.63 227.201 113.05C227.451 112.11 227.611 111.15 227.811 110.21C227.961 109.26 228.161 108.31 228.291 107.35L228.491 105.92C228.561 105.46 228.601 105.06 228.641 104.68C228.681 104.3 228.691 103.99 228.701 103.75C228.711 103.52 228.691 103.37 228.671 103.56C228.661 103.69 228.661 103.83 228.701 104.27C228.761 104.65 228.831 105.29 229.291 106.5C229.351 106.65 229.411 106.79 229.481 106.94C229.561 107.13 229.661 107.33 229.761 107.53C229.861 107.72 229.971 107.92 230.081 108.1C230.211 108.32 230.371 108.58 230.531 108.81C230.701 109.05 230.861 109.27 231.051 109.5C231.271 109.78 231.501 110.05 231.751 110.31C232.011 110.58 232.231 110.78 232.551 111.07C232.861 111.34 233.181 111.6 233.521 111.83C234.181 112.29 234.971 112.76 235.761 113.09C236.151 113.26 236.531 113.4 236.931 113.53C237.311 113.66 237.761 113.76 238.091 113.84C238.441 113.92 238.801 113.98 239.161 114.02L239.691 114.07L240.131 114.1C240.421 114.11 240.721 114.11 241.021 114.11C241.351 114.1 241.511 114.09 241.761 114.06C243.631 113.86 244.471 113.47 245.041 113.25C245.551 113.04 245.831 112.87 245.971 112.8C246.271 112.63 246.171 112.71 246.041 112.83C245.751 113.11 245.161 113.7 244.571 114.34C243.961 114.99 243.311 115.72 242.651 116.5C239.961 119.61 237.111 123.16 234.241 126.7C231.361 130.26 228.421 133.88 225.391 137.5C219.331 144.74 212.951 151.97 205.761 158.92C202.161 162.39 198.341 165.8 194.151 169.05C189.951 172.29 185.381 175.41 180.051 178.12L179.781 178.26C171.711 182.35 161.851 179.13 157.761 171.06C153.671 162.99 156.891 153.13 164.961 149.04C165.291 148.83 165.671 148.66 166.011 148.52Z" fill="#46B755"/>
<path d="M222.629 126.65C222.629 168.28 180.189 202.03 127.829 202.03C75.4693 202.03 33.0293 168.28 33.0293 126.65C33.0293 109.69 40.0693 90.19 51.9593 73.02C54.7093 69.05 57.7093 65.2 60.9593 61.54C78.0993 42.17 101.739 28.01 127.829 28.01C153.919 28.01 177.549 42.17 194.699 61.54C197.939 65.2 200.959 69.05 203.709 73.02C215.589 90.19 222.629 109.7 222.629 126.65Z" fill="#8BD74B"/>
<path d="M127.83 201.14C168.51 201.14 201.48 168.16 201.48 127.49C201.48 86.8101 168.5 53.8401 127.83 53.8401C87.1497 53.8401 54.1797 86.8201 54.1797 127.49C54.1797 168.16 87.1497 201.14 127.83 201.14Z" fill="#B0E881"/>
<path d="M114.32 180.91C118.6 180.91 122.07 177.44 122.07 173.16C122.07 168.88 118.6 165.41 114.32 165.41C110.04 165.41 106.57 168.88 106.57 173.16C106.57 177.44 110.04 180.91 114.32 180.91Z" fill="#DFF6CD"/>
<path d="M114.32 181.12C113.78 181.12 113.23 181.07 112.68 180.95C110.6 180.51 108.81 179.29 107.65 177.51C106.49 175.73 106.09 173.6 106.52 171.52C106.95 169.44 108.18 167.65 109.96 166.49C111.74 165.33 113.87 164.93 115.95 165.37C120.25 166.27 123.01 170.5 122.11 174.81C121.33 178.54 118.01 181.12 114.32 181.12ZM112.77 180.53C116.84 181.38 120.84 178.77 121.7 174.7C122.55 170.63 119.94 166.63 115.87 165.77C113.9 165.36 111.88 165.74 110.2 166.83C108.51 167.93 107.36 169.62 106.94 171.59C106.53 173.56 106.91 175.58 108 177.26C109.1 178.96 110.8 180.12 112.77 180.53Z" fill="#F2F2F2"/>
<path d="M143.63 190.8C146.64 190.8 149.08 188.36 149.08 185.35C149.08 182.34 146.64 179.9 143.63 179.9C140.62 179.9 138.18 182.34 138.18 185.35C138.18 188.36 140.62 190.8 143.63 190.8Z" fill="#DFF6CD"/>
<path d="M143.64 191.02C143.25 191.02 142.85 190.98 142.46 190.9C140.98 190.59 139.7 189.72 138.88 188.45C138.05 187.18 137.77 185.67 138.08 184.18C138.72 181.12 141.74 179.15 144.8 179.79C147.86 180.43 149.83 183.45 149.19 186.51C148.88 187.99 148.01 189.27 146.74 190.09C145.8 190.7 144.73 191.02 143.64 191.02ZM143.63 180.11C141.21 180.11 139.02 181.81 138.5 184.28C138.21 185.65 138.47 187.05 139.24 188.23C140.01 189.4 141.18 190.21 142.55 190.49C143.92 190.78 145.32 190.52 146.5 189.75C147.67 188.98 148.48 187.81 148.76 186.44C149.35 183.61 147.54 180.83 144.71 180.23C144.35 180.14 143.99 180.11 143.63 180.11Z" fill="#F2F2F2"/>
<path d="M135.59 157.2C138.13 157.2 140.18 155.14 140.18 152.61C140.18 150.07 138.12 148.02 135.59 148.02C133.05 148.02 131 150.08 131 152.61C131 155.15 133.06 157.2 135.59 157.2Z" fill="#DFF6CD"/>
<path d="M135.59 157.42C135.26 157.42 134.93 157.39 134.6 157.31C132 156.76 130.33 154.21 130.88 151.62C131.15 150.36 131.88 149.28 132.96 148.58C134.03 147.88 135.32 147.63 136.58 147.9C137.84 148.17 138.92 148.9 139.62 149.98C140.32 151.05 140.56 152.34 140.3 153.6C139.83 155.86 137.82 157.42 135.59 157.42ZM134.69 156.9C137.05 157.39 139.38 155.88 139.88 153.52C140.12 152.38 139.9 151.2 139.26 150.23C138.62 149.25 137.64 148.58 136.5 148.34C135.35 148.1 134.18 148.32 133.21 148.96C132.23 149.6 131.56 150.58 131.32 151.72C130.81 154.07 132.33 156.4 134.69 156.9Z" fill="#F2F2F2"/>
<path d="M161.65 50.47C175.59 50.47 186.88 39.17 186.88 25.24C186.88 11.31 175.59 0 161.65 0C147.71 0 136.42 11.3 136.42 25.23C136.42 39.16 147.71 50.47 161.65 50.47Z" fill="#8BD74B"/>
<path d="M160.069 42.5799C170.959 42.5799 179.779 33.7499 179.779 22.8699C179.779 11.9799 170.949 3.15991 160.069 3.15991C149.189 3.15991 140.359 11.9899 140.359 22.8699C140.359 33.7499 149.189 42.5799 160.069 42.5799Z" fill="white"/>
<path d="M159.53 27.5199C162.04 27.5199 164.08 25.4799 164.08 22.9699C164.08 20.4599 162.04 18.4199 159.53 18.4199C157.02 18.4199 154.98 20.4599 154.98 22.9699C154.99 25.4799 157.02 27.5199 159.53 27.5199Z" fill="#183B59"/>
<path d="M93.9995 50.47C107.94 50.47 119.23 39.17 119.23 25.24C119.23 11.31 107.94 0 93.9995 0C80.0595 0 68.7695 11.3 68.7695 25.23C68.7695 39.16 80.0695 50.47 93.9995 50.47Z" fill="#8BD74B"/>
<path d="M95.5791 42.5799C106.469 42.5799 115.289 33.7499 115.289 22.8699C115.289 11.9799 106.459 3.15991 95.5791 3.15991C84.6991 3.15991 75.8691 11.9899 75.8691 22.8699C75.8691 33.7499 84.6891 42.5799 95.5791 42.5799Z" fill="white"/>
<path d="M93.9699 27.5199C96.4799 27.5199 98.5199 25.4799 98.5199 22.9699C98.5199 20.4599 96.4799 18.4199 93.9699 18.4199C91.4599 18.4199 89.4199 20.4599 89.4199 22.9699C89.4199 25.4799 91.4599 27.5199 93.9699 27.5199Z" fill="#183B59"/>
<path d="M203.7 73.02C202.94 73.27 202.12 73.41 201.27 73.41C196.98 73.41 193.51 69.94 193.51 65.65C193.51 64.14 193.94 62.73 194.69 61.54C197.94 65.2 200.95 69.05 203.7 73.02Z" fill="#46B755"/>
<path d="M202.85 94.94C205.86 94.94 208.3 92.5 208.3 89.49C208.3 86.48 205.86 84.04 202.85 84.04C199.84 84.04 197.4 86.48 197.4 89.49C197.39 92.5 199.83 94.94 202.85 94.94Z" fill="#46B755"/>
<path d="M184.75 66.22C187.29 66.22 189.34 64.16 189.34 61.63C189.34 59.09 187.28 57.04 184.75 57.04C182.21 57.04 180.16 59.1 180.16 61.63C180.16 64.17 182.22 66.22 184.75 66.22Z" fill="#46B755"/>
<path d="M62.139 65.65C62.139 69.94 58.669 73.41 54.379 73.41C53.529 73.41 52.719 73.28 51.959 73.02C54.709 69.05 57.709 65.2 60.959 61.54C61.709 62.73 62.139 64.14 62.139 65.65Z" fill="#46B755"/>
<path d="M52.8094 94.94C55.8194 94.94 58.2594 92.5 58.2594 89.49C58.2594 86.48 55.8194 84.04 52.8094 84.04C49.7994 84.04 47.3594 86.48 47.3594 89.49C47.3494 92.5 49.7894 94.94 52.8094 94.94Z" fill="#46B755"/>
<path d="M70.9005 66.22C73.4405 66.22 75.4906 64.16 75.4906 61.63C75.4906 59.09 73.4305 57.04 70.9005 57.04C68.3605 57.04 66.3105 59.1 66.3105 61.63C66.3105 64.17 68.3605 66.22 70.9005 66.22Z" fill="#46B755"/>
<path d="M96.0291 36.24C103.889 36.24 110.269 29.86 110.269 22C110.269 14.14 103.899 7.76001 96.0291 7.76001C88.1691 7.76001 81.7891 14.14 81.7891 22C81.7891 29.86 88.1691 36.24 96.0291 36.24Z" fill="#183B59"/>
<path d="M159.631 37.1001C167.491 37.1001 173.871 30.7201 173.871 22.8601C173.871 15.0001 167.491 8.62012 159.631 8.62012C151.771 8.62012 145.391 15.0001 145.391 22.8601C145.391 30.7201 151.761 37.1001 159.631 37.1001Z" fill="#183B59"/>
<path d="M207.269 118.79C206.039 120.29 204.869 121.79 203.599 123.25L201.619 125.41L200.629 126.48L199.559 127.51L197.399 129.55C196.629 130.2 195.839 130.84 195.059 131.47C194.669 131.78 194.289 132.11 193.889 132.42L192.619 133.3L191.349 134.17C190.929 134.46 190.509 134.75 190.039 135L187.299 136.54C186.329 136.99 185.349 137.41 184.379 137.84C182.369 138.61 180.289 139.27 178.119 139.65C173.789 140.45 169.209 140.24 165.049 139.05C160.859 137.89 157.149 135.8 153.929 133.35C150.719 130.88 147.979 128 145.639 124.89C143.309 121.77 141.329 118.45 139.829 114.86C138.349 111.26 137.129 107.51 137.169 103.02C137.189 101.09 138.769 99.54 140.689 99.56C142.509 99.58 143.989 100.99 144.129 102.77L144.149 103.02C144.249 104.29 144.619 105.74 145.119 107.17C145.389 107.89 145.649 108.61 145.989 109.31C146.289 110.02 146.679 110.73 147.039 111.43C148.539 114.23 150.459 116.84 152.589 119.17C156.849 123.83 162.219 127.4 167.619 128.33C172.999 129.28 178.199 127.62 182.849 124.11C183.149 123.92 183.429 123.68 183.709 123.44L184.559 122.73L185.409 122.02C185.679 121.77 185.949 121.49 186.219 121.22L187.829 119.62L189.349 117.86L190.109 116.99L190.819 116.04L192.249 114.15C193.169 112.85 194.039 111.48 194.929 110.16L195.199 109.77C197.549 106.32 202.239 105.43 205.689 107.77C209.129 110.12 210.029 114.81 207.689 118.26C207.549 118.43 207.409 118.62 207.269 118.79Z" fill="#46B755"/>
<path d="M143.499 104.16C142.279 104.16 141.199 103.3 140.959 102.06C140.689 100.66 141.609 99.2999 143.019 99.0399C152.219 97.2799 152.399 92.4999 152.409 92.2999L154.989 92.2699L157.569 92.1799C157.579 92.5599 157.739 101.49 143.989 104.12C143.829 104.14 143.659 104.16 143.499 104.16Z" fill="#46B755"/>
<path d="M142 104.42C141.39 104.42 140.76 104.2 140.27 103.76C139.21 102.81 139.12 101.17 140.08 100.11C146.34 93.1501 143.6 89.2301 143.48 89.0701L145.52 87.4801L147.52 85.8401C147.76 86.1301 153.29 93.1501 143.93 103.56C143.41 104.14 142.7 104.42 142 104.42Z" fill="#46B755"/>
<path d="M139 104.74C138.72 104.74 138.44 104.69 138.17 104.6C136.82 104.14 136.1 102.67 136.56 101.32C138.48 95.6899 133.09 92.2199 132.85 92.0799C131.65 91.3299 131.27 89.7299 132.02 88.5199C132.77 87.3099 134.35 86.9299 135.56 87.6699C138.74 89.6199 144.06 95.3199 141.44 102.98C141.08 104.06 140.07 104.74 139 104.74Z" fill="#46B755"/>
<path d="M62.2702 110.14C63.1702 111.46 64.0302 112.84 64.9502 114.13L66.3802 116.02L67.0902 116.97L67.8502 117.84L69.3702 119.6L70.9802 121.2C71.2502 121.47 71.5102 121.74 71.7902 122L72.6402 122.71L73.4902 123.42C73.7702 123.67 74.0502 123.91 74.3502 124.09C79.0002 127.6 84.1902 129.26 89.5802 128.31C94.9802 127.38 100.35 123.81 104.61 119.15C106.74 116.81 108.67 114.2 110.16 111.41C110.52 110.71 110.91 110.01 111.21 109.29C111.56 108.58 111.82 107.86 112.08 107.15C112.57 105.73 112.95 104.27 113.05 103L113.07 102.77C113.22 100.85 114.89 99.4099 116.82 99.5499C118.64 99.6899 120.02 101.21 120.04 102.99C120.09 107.48 118.85 111.23 117.38 114.83C115.87 118.42 113.9 121.74 111.57 124.86C109.23 127.96 106.5 130.84 103.28 133.32C100.07 135.78 96.3602 137.86 92.1602 139.02C87.9902 140.21 83.4102 140.42 79.0902 139.62C76.9102 139.24 74.8302 138.59 72.8302 137.81C71.8602 137.38 70.8702 136.96 69.9102 136.51L67.1702 134.97C66.7002 134.72 66.2802 134.43 65.8602 134.14L64.5902 133.27L63.3202 132.39C62.9202 132.08 62.5302 131.76 62.1502 131.44C61.3702 130.81 60.5802 130.17 59.8102 129.52L57.6502 127.48L56.5802 126.45L55.5902 125.38L53.6102 123.22C52.3302 121.76 51.1702 120.25 49.9402 118.76C47.2902 115.54 47.7602 110.78 50.9802 108.13C54.2002 105.49 58.9602 105.95 61.6102 109.17C61.7502 109.34 61.8802 109.52 62.0102 109.7L62.2702 110.14Z" fill="#46B755"/>
<path d="M113.69 104.16C113.53 104.16 113.36 104.15 113.2 104.11C99.4502 101.48 99.6102 92.5499 99.6202 92.1699L104.79 92.3599C104.8 92.4999 104.98 97.2799 114.18 99.0399C115.58 99.3099 116.5 100.66 116.24 102.06C115.99 103.29 114.91 104.16 113.69 104.16Z" fill="#46B755"/>
<path d="M115.189 104.42C114.479 104.42 113.769 104.13 113.269 103.57C103.909 93.1601 109.439 86.1401 109.679 85.8501L113.679 89.1201C113.599 89.2301 110.859 93.1501 117.109 100.12C118.059 101.18 117.979 102.82 116.919 103.77C116.429 104.2 115.809 104.42 115.189 104.42Z" fill="#46B755"/>
<path d="M118.19 104.74C117.12 104.74 116.11 104.07 115.75 102.99C113.13 95.3299 118.45 89.6199 121.63 87.6799C122.85 86.9299 124.44 87.3199 125.18 88.5299C125.93 89.7399 125.54 91.3399 124.33 92.0799C124.11 92.2199 118.72 95.6799 120.64 101.31C121.1 102.66 120.38 104.13 119.03 104.59C118.75 104.69 118.47 104.74 118.19 104.74Z" fill="#46B755"/>
<path d="M104.8 49.5901C107.24 50.4201 109.21 50.6401 111.11 50.7101C112.99 50.7801 114.76 50.7001 116.54 50.6201C120.08 50.4301 123.62 50.2101 127.27 50.1001C130.91 49.9601 134.64 49.9501 138.49 50.0901C140.42 50.1601 142.38 50.2801 144.4 50.4001C145.39 50.4501 146.44 50.5201 147.48 50.5401C148.53 50.5401 149.62 50.5901 150.86 50.2501C150.85 50.5601 150.82 50.9001 150.75 51.2301C150.67 51.5401 150.56 51.8501 150.44 52.1801C150.18 52.7701 149.86 53.3901 149.49 53.9001C148.77 55.0101 147.91 55.9001 147.01 56.7801C145.19 58.4601 143.18 59.7701 141.08 60.8201C136.88 62.9001 132.35 63.9401 127.72 64.1101C125.4 64.1801 123.05 64.0101 120.71 63.5601C118.37 63.1101 116.03 62.4001 113.79 61.2701C111.56 60.1601 109.4 58.6401 107.69 56.6501C106.01 54.6901 104.72 52.1901 104.8 49.5901Z" fill="#46B755"/>
</svg>
