<svg width="247" height="190" viewBox="0 0 247 190" fill="none" xmlns="http://www.w3.org/2000/svg">
<path d="M184.72 153.89C189.65 154.08 194.2 155.3 198.61 156.79C203.01 158.31 207.25 160.17 211.36 162.36C215.47 164.54 219.45 167.02 223.23 170.1C225.11 171.66 226.96 173.36 228.65 175.53C229.48 176.65 230.32 177.84 230.97 179.44C231.6 180.99 232.14 183 231.73 185.39C231.18 188.05 228.59 189.76 225.92 189.22C223.26 188.67 221.55 186.08 222.09 183.41C222.12 183.59 222.2 183.33 222.05 182.81C221.94 182.31 221.56 181.59 221.14 180.88C220.23 179.44 218.92 177.94 217.49 176.52C214.59 173.68 211.19 171.07 207.62 168.74C204.04 166.4 200.26 164.3 196.36 162.54C192.47 160.8 188.4 159.34 184.42 158.83L184.33 158.82C182.97 158.65 182.02 157.4 182.19 156.05C182.34 154.77 183.46 153.85 184.72 153.89Z" fill="#8BD74B"/>
<path d="M182.25 155.7C185.59 157.05 188.76 158.61 191.88 160.3C194.99 162 198.04 163.8 201.01 165.79C203.99 167.78 206.9 169.91 209.69 172.45C211.09 173.73 212.45 175.11 213.75 176.8C214.39 177.69 215.03 178.58 215.59 179.76C216.13 180.93 216.66 182.3 216.73 184.15C216.73 186.87 214.53 189.06 211.82 189.06C209.1 189.06 206.91 186.86 206.91 184.15C206.96 184.26 206.98 183.96 206.85 183.55C206.74 183.14 206.45 182.57 206.15 182.01C205.49 180.87 204.57 179.65 203.55 178.48C201.51 176.11 199.09 173.84 196.57 171.68C194.05 169.52 191.38 167.47 188.64 165.52C185.9 163.58 183.07 161.75 180.18 160.16L180.15 160.15C178.95 159.49 178.51 157.99 179.17 156.79C179.76 155.69 181.1 155.23 182.25 155.7Z" fill="#8BD74B"/>
<path d="M186.26 152.21C189.99 151.06 193.69 150.86 197.32 150.91C200.94 151.01 204.51 151.44 208.04 152.1C211.57 152.77 215.06 153.66 218.54 154.88C219.41 155.21 220.28 155.53 221.15 155.89C222.02 156.3 222.89 156.64 223.78 157.11C224.67 157.6 225.54 158.01 226.46 158.69L227.14 159.16C227.37 159.31 227.59 159.47 227.84 159.71C228.33 160.14 228.81 160.58 229.27 161.05C231.21 162.95 231.25 166.05 229.35 167.99C227.45 169.93 224.35 169.96 222.41 168.07C222.38 168.04 222.359 168.02 222.329 167.99L221.73 167.37C221.59 167.23 221.46 167.08 221.34 166.9C221.3 166.82 221.19 166.72 221.07 166.62L220.73 166.32C220.33 165.91 219.7 165.51 219.13 165.1C218.56 164.69 217.87 164.33 217.23 163.93C216.56 163.56 215.86 163.21 215.17 162.84C212.35 161.44 209.31 160.27 206.22 159.3C203.13 158.33 199.96 157.56 196.78 157.08C193.62 156.64 190.4 156.48 187.49 157L187.38 157.02C186.04 157.26 184.75 156.37 184.51 155.02C184.32 153.76 185.08 152.57 186.26 152.21Z" fill="#8BD74B"/>
<path d="M176.951 164.84C174.471 164.84 172.121 163.37 171.121 160.93C169.801 157.71 171.331 154.03 174.551 152.71C174.641 152.67 180.321 150.33 188.181 146.76C186.301 146.92 184.371 146.22 183.011 144.72C180.671 142.14 180.861 138.16 183.441 135.82C192.871 127.25 224.881 99.9 240.651 107.77C242.791 108.84 247.691 112.22 246.911 120.52C246.381 126.21 241.721 134.14 211.191 149.69C195.371 157.75 179.981 164.1 179.331 164.36C178.561 164.68 177.751 164.84 176.951 164.84ZM234.061 118.92C229.611 118.92 214.941 124.27 192.121 144.95C195.891 143.2 199.981 141.24 204.101 139.16C230.451 125.88 234.001 119.95 234.381 119.13C234.391 119.06 234.391 118.99 234.391 118.92C234.291 118.92 234.181 118.92 234.061 118.92Z" fill="#8BD74B"/>
<path d="M132.951 73.2399C144.721 73.2399 154.261 63.6999 154.261 51.9299C154.261 40.1599 144.721 30.6199 132.951 30.6199C121.181 30.6199 111.641 40.1599 111.641 51.9299C111.641 63.6999 121.181 73.2399 132.951 73.2399Z" fill="#8BD74B"/>
<path d="M131.621 66.59C140.821 66.59 148.271 59.14 148.271 49.94C148.271 40.74 140.821 33.29 131.621 33.29C122.421 33.29 114.971 40.74 114.971 49.94C114.971 59.14 122.421 66.59 131.621 66.59Z" fill="white"/>
<path d="M126.75 60.2502C131.54 60.2502 135.42 56.3702 135.42 51.5802C135.42 46.7902 131.54 42.9102 126.75 42.9102C121.96 42.9102 118.08 46.7902 118.08 51.5802C118.08 56.3702 121.96 60.2502 126.75 60.2502Z" fill="#183B59"/>
<path d="M193.471 123.25C194.361 154.39 179.761 169.9 160.861 170.43C141.961 170.97 125.921 156.33 125.031 125.19C124.141 94.05 138.751 58.21 157.651 57.68C176.551 57.15 192.591 92.12 193.471 123.25Z" fill="#8BD74B"/>
<path d="M179.24 129.1C180.03 156.75 167.27 171.29 150.75 171.77C134.23 172.25 120.19 158.47 119.4 130.81C118.61 103.16 131.37 72.1001 147.89 71.6301C164.42 71.1501 178.45 101.45 179.24 129.1Z" fill="#B0E881"/>
<path d="M139.981 148.04C143.711 148.04 146.741 145.02 146.741 141.28C146.741 137.55 143.721 134.52 139.981 134.52C136.241 134.52 133.221 137.54 133.221 141.28C133.231 145.02 136.251 148.04 139.981 148.04Z" fill="#DFF6CD"/>
<path d="M139.991 148.23C139.511 148.23 139.031 148.18 138.551 148.08C136.731 147.7 135.181 146.63 134.161 145.08C133.151 143.52 132.801 141.68 133.181 139.86C133.561 138.04 134.631 136.49 136.181 135.47C137.741 134.46 139.581 134.11 141.401 134.49C143.221 134.87 144.771 135.94 145.791 137.49C146.801 139.05 147.151 140.89 146.771 142.71C146.391 144.53 145.321 146.08 143.771 147.1C142.631 147.85 141.321 148.23 139.991 148.23ZM139.971 134.71C138.711 134.71 137.471 135.08 136.391 135.78C134.921 136.74 133.911 138.21 133.551 139.93C133.191 141.65 133.521 143.4 134.481 144.87C135.441 146.34 136.911 147.35 138.631 147.71C140.351 148.07 142.101 147.74 143.571 146.78C145.041 145.82 146.051 144.35 146.411 142.63C146.771 140.91 146.441 139.16 145.481 137.69C144.521 136.22 143.051 135.21 141.331 134.85C140.881 134.76 140.421 134.71 139.971 134.71Z" fill="#F2F2F2"/>
<path d="M163.131 157.45C165.761 157.45 167.881 155.32 167.881 152.7C167.881 150.08 165.751 147.95 163.131 147.95C160.511 147.95 158.381 150.08 158.381 152.7C158.381 155.32 160.511 157.45 163.131 157.45Z" fill="#DFF6CD"/>
<path d="M163.131 157.64C162.801 157.64 162.461 157.61 162.121 157.53C159.461 156.97 157.741 154.35 158.301 151.68C158.861 149.02 161.491 147.3 164.151 147.86C166.811 148.42 168.531 151.04 167.971 153.71C167.491 156.04 165.421 157.64 163.131 157.64ZM162.201 157.17C164.671 157.68 167.091 156.1 167.611 153.64C168.121 151.18 166.541 148.75 164.081 148.23C161.611 147.72 159.191 149.3 158.671 151.76C158.151 154.22 159.741 156.65 162.201 157.17Z" fill="#F2F2F2"/>
<path d="M162.83 133.57C165.04 133.57 166.84 131.78 166.84 129.56C166.84 127.35 165.05 125.55 162.83 125.55C160.62 125.55 158.82 127.34 158.82 129.56C158.83 131.77 160.62 133.57 162.83 133.57Z" fill="#DFF6CD"/>
<path d="M162.831 133.75C162.541 133.75 162.261 133.72 161.971 133.66C159.711 133.19 158.261 130.96 158.731 128.7C159.201 126.44 161.441 124.98 163.691 125.46C165.951 125.93 167.401 128.16 166.931 130.42C166.521 132.39 164.781 133.75 162.831 133.75ZM162.051 133.29C164.121 133.72 166.141 132.4 166.571 130.34C166.781 129.35 166.591 128.32 166.031 127.47C165.481 126.62 164.611 126.03 163.621 125.82C162.621 125.61 161.601 125.8 160.751 126.36C159.901 126.91 159.311 127.78 159.101 128.77C158.671 130.83 159.991 132.86 162.051 133.29Z" fill="#F2F2F2"/>
<path d="M184.951 74.92C197.641 74.92 207.931 64.63 207.931 51.94C207.931 39.25 197.641 28.96 184.951 28.96C172.261 28.96 161.971 39.25 161.971 51.94C161.971 64.63 172.261 74.92 184.951 74.92Z" fill="#8BD74B"/>
<path d="M183.511 67.7301C193.421 67.7301 201.461 59.6901 201.461 49.7801C201.461 39.8701 193.421 31.8301 183.511 31.8301C173.601 31.8301 165.561 39.8701 165.561 49.7801C165.561 59.6901 173.601 67.7301 183.511 67.7301Z" fill="white"/>
<path d="M176.61 60.67C181.78 60.67 185.96 56.48 185.96 51.32C185.96 46.15 181.77 41.97 176.61 41.97C171.44 41.97 167.26 46.16 167.26 51.32C167.25 56.48 171.44 60.67 176.61 60.67Z" fill="#183B59"/>
<path d="M142.09 68.05C143.7 69.17 145.08 69.75 146.49 69.96C147.88 70.2 149.32 70.15 150.84 70.05C152.36 69.93 153.95 69.74 155.61 69.54C157.28 69.36 158.99 69.17 160.93 69.19C159.76 70.75 158.23 71.84 156.58 72.69C154.92 73.52 153.1 74.08 151.15 74.22C149.22 74.35 147.1 74.09 145.26 73C144.36 72.46 143.54 71.74 142.99 70.87C142.44 69.99 142.12 69.02 142.09 68.05Z" fill="#46B755"/>
<path d="M172.53 139.13C170.69 139.13 168.85 138.71 167.09 137.85C161.42 135.09 152 125.41 152.78 91.5299C152.84 88.8199 155.1 86.6499 157.81 86.7299C160.52 86.7899 162.68 89.0499 162.61 91.7599C161.88 123.48 170.41 128.54 171.38 129.02C172.09 129.37 173.08 129.62 174.39 128.53C176.7 126.62 178.44 121.77 176.8 115.63C176.1 113.01 177.65 110.32 180.28 109.62C182.9 108.92 185.59 110.47 186.29 113.1C188.73 122.24 186.52 131.27 180.64 136.12C178.23 138.11 175.4 139.13 172.53 139.13Z" fill="#8BD74B"/>
<path d="M155.901 89.49L154.501 88.25L153.061 87.09C152.091 86.36 151.101 85.67 150.091 85.1C149.091 84.51 148.051 84.05 147.071 83.74C146.581 83.58 146.101 83.48 145.651 83.41C145.431 83.38 145.231 83.37 145.051 83.38C144.961 83.38 144.891 83.39 144.831 83.4C144.831 83.41 144.621 83.44 144.951 83.44C143.051 83.61 141.371 82.2 141.201 80.3C141.031 78.4 142.441 76.72 144.341 76.55C144.991 76.53 145.111 76.58 145.431 76.62C145.691 76.67 145.941 76.71 146.171 76.77C146.631 76.88 147.051 77.02 147.451 77.18C148.241 77.49 148.971 77.85 149.641 78.24C150.981 79.03 152.161 79.93 153.211 80.9C154.281 81.85 155.221 82.89 156.121 83.93L157.401 85.53L158.591 87.17C159.171 87.97 159.001 89.09 158.201 89.67C157.511 90.18 156.581 90.11 155.961 89.56L155.901 89.49Z" fill="#8BD74B"/>
<path d="M157.831 91.21L155.981 91.05L154.161 90.98C153.001 91.02 151.801 91.05 150.861 91.33C150.401 91.46 150.001 91.62 149.751 91.79C149.541 91.97 149.481 92.1 149.621 92.06C149.731 92.02 149.781 91.91 149.841 92.03C149.931 92.16 150.061 92.4 150.261 92.66C151.351 94.12 151.061 96.19 149.601 97.28C148.141 98.37 146.071 98.08 144.981 96.62C144.821 96.41 144.691 96.19 144.591 95.95L144.481 95.7C144.101 94.81 143.791 93.82 143.711 92.68C143.641 91.52 143.931 90.08 144.741 88.95C144.951 88.68 145.151 88.39 145.391 88.18C145.621 87.97 145.871 87.77 146.121 87.59C146.601 87.27 147.111 87.02 147.581 86.84C148.521 86.51 149.391 86.39 150.201 86.34C151.831 86.23 153.221 86.49 154.611 86.71L156.631 87.18L158.581 87.74C159.531 88.01 160.081 89 159.811 89.95C159.571 90.78 158.771 91.31 157.931 91.24L157.831 91.21Z" fill="#8BD74B"/>
<path d="M159.48 93.5601C158.35 93.4101 157.24 93.4501 156.25 93.6701C155.27 93.9001 154.41 94.3201 153.77 94.9101C153.13 95.4701 152.68 96.2201 152.56 96.8301C152.49 97.1201 152.57 97.3801 152.62 97.2401C152.65 97.1601 152.65 96.9101 152.44 96.5501C152.24 96.1901 151.78 95.8601 151.46 95.7601C153.25 96.2401 154.31 98.0801 153.83 99.8601C153.35 101.65 151.51 102.71 149.73 102.23C148.78 101.96 147.75 101.25 147.17 100.35C146.58 99.4701 146.39 98.5701 146.34 97.8501C146.29 96.4101 146.67 95.3601 147.13 94.4701C148.06 92.6901 149.45 91.4501 150.99 90.6001C152.53 89.7501 154.23 89.3801 155.83 89.3501C157.44 89.3401 158.95 89.6401 160.34 90.1101C161.27 90.4301 161.78 91.4501 161.46 92.3801C161.18 93.2001 160.37 93.6901 159.54 93.5801L159.48 93.5601Z" fill="#8BD74B"/>
<path d="M58.9609 142.45C80.9809 147.84 110.341 135.18 110.341 121" stroke="#8BD74B" stroke-width="14.7257" stroke-miterlimit="10" stroke-linecap="round"/>
<path d="M5.02999 39.2L82.88 0.339981C84.63 -0.530019 86.71 0.309981 87.8 2.31998L174.49 163.4C176.06 166.32 170.95 173 164.22 173.17L95.3 183.88C93.88 184.13 92.42 183.39 91.49 181.97L3.66999 46.41C2.04999 43.9 2.71999 40.36 5.02999 39.2Z" fill="#1D1D1B"/>
<path d="M163.7 175.62L136.14 180.09L125.41 181.82L91.2804 187.35C89.9404 187.57 88.5404 186.81 87.6404 185.37L85.1504 181.4L67.7804 153.87L1.77043 49.08C0.180425 46.56 0.760427 43.07 2.92043 41.96L75.8804 4.92001C77.5304 4.09001 79.5204 4.97001 80.5804 6.98001L108.4 59.66L114.49 71.2L115.44 73.01L120.65 82.91L165.89 168.6C167.45 171.52 166.3 175.2 163.7 175.62Z" fill="#808080"/>
<path d="M10.3608 46.3701L31.9208 34.8001C34.0208 33.5601 36.6508 34.1201 37.8108 36.0801L62.9008 81.2601C64.2208 83.4801 63.1908 86.2301 60.6708 87.2401L40.5208 95.3001C38.4808 96.1101 36.0808 95.3301 34.9308 93.5001L8.8708 52.1201C7.6508 50.2001 8.3308 47.5701 10.3608 46.3701Z" fill="#1D1D1B"/>
<path d="M24.7095 61.5299C29.3695 61.5299 33.1495 57.7499 33.1495 53.0899C33.1495 48.4299 29.3695 44.6499 24.7095 44.6499C20.0495 44.6499 16.2695 48.4299 16.2695 53.0899C16.2695 57.7499 20.0495 61.5299 24.7095 61.5299Z" fill="#333333"/>
<path d="M30.6508 49.7101C32.3108 52.5301 31.3608 56.1601 28.5508 57.8201C28.1008 58.0901 27.6108 58.2901 27.1108 58.4101C29.7608 56.7001 30.6008 53.1801 28.9808 50.4401C27.5908 48.0801 24.8208 47.0601 22.3008 47.7601C22.3708 47.7001 22.4508 47.6501 22.5308 47.6101C25.3408 45.9501 28.9908 46.8901 30.6508 49.7101Z" fill="#4D4D4D"/>
<path d="M40.6412 89.7198C45.3012 89.7198 49.0812 85.9398 49.0812 81.2798C49.0812 76.6198 45.3012 72.8398 40.6412 72.8398C35.9812 72.8398 32.2012 76.6198 32.2012 81.2798C32.2012 85.9398 35.9712 89.7198 40.6412 89.7198Z" fill="#333333"/>
<path d="M31.5602 72.4801C33.6702 72.4801 35.3802 70.7701 35.3802 68.6601C35.3802 66.5501 33.6702 64.8401 31.5602 64.8401C29.4502 64.8401 27.7402 66.5501 27.7402 68.6601C27.7402 70.7701 29.4502 72.4801 31.5602 72.4801Z" fill="#333333"/>
<path d="M42.9295 86.7301C42.8595 86.7901 42.7795 86.8401 42.6995 86.8801C39.8795 88.5401 36.2395 87.6101 34.5795 84.7801C32.9195 81.9601 33.8695 78.3301 36.6795 76.6701C37.1295 76.4001 37.6195 76.2001 38.1195 76.0801C35.4695 77.7901 34.6295 81.3101 36.2495 84.0501C37.6295 86.4001 40.3995 87.4401 42.9295 86.7301Z" fill="#4D4D4D"/>
<path d="M108.39 59.6499L67.7695 153.87L85.1395 181.4L115.43 72.9999L108.39 59.6499Z" fill="#999999"/>
<path d="M54.3713 142.61C53.4413 141.99 52.4813 141.39 51.5613 140.67C50.6313 139.97 49.7413 139.17 48.8713 138.23C48.0313 137.25 47.1713 136.17 46.6313 134.54C46.3813 133.72 46.2013 132.76 46.3213 131.68C46.3913 131.13 46.5313 130.57 46.7713 130.02C46.8913 129.74 47.0413 129.47 47.2113 129.19C47.4413 128.88 47.4913 128.72 48.0413 128.2C49.5213 126.99 51.7013 127.21 52.9113 128.69C54.1213 130.17 53.9013 132.35 52.4213 133.56C52.4713 133.51 52.5213 133.47 52.5713 133.42L52.6213 133.37L52.6913 133.28C52.7213 133.25 52.7313 133.21 52.7413 133.17C52.7713 133.11 52.7713 133.06 52.7713 133.02C52.7713 132.94 52.7513 132.89 52.7213 132.87C52.6513 132.83 52.5813 132.96 52.5513 133.18C52.5013 133.63 52.7613 134.42 53.1313 135.18C53.5313 135.95 54.0413 136.76 54.6513 137.54C55.2313 138.33 55.9313 139.08 56.6113 139.85L56.6913 139.94C57.3413 140.68 57.2813 141.82 56.5413 142.47C55.9313 143 55.0313 143.04 54.3713 142.61Z" fill="#8BD74B"/>
<path d="M54.9206 142.56C54.5906 141.61 54.2206 140.68 53.9506 139.68C53.8006 139.19 53.6506 138.69 53.5406 138.16C53.4206 137.64 53.3006 137.12 53.2306 136.54C53.0706 135.43 52.9607 134.22 53.3807 132.61C53.4507 132.24 53.7006 131.74 53.9306 131.31C54.2406 130.84 54.5807 130.37 55.1407 129.95C55.6507 129.54 56.3307 129.22 57.0007 129.08C57.3407 129 57.6706 128.97 58.0106 128.96C58.1806 128.96 58.3507 128.97 58.5207 128.98L58.8106 129.02L58.9707 129.05L59.2306 129.12C60.9506 129.65 61.9207 131.48 61.3907 133.21C60.8607 134.94 59.0307 135.9 57.3007 135.37L57.4707 135.41L57.5406 135.42L57.6506 135.43C57.7106 135.43 57.7606 135.43 57.8106 135.42C57.9206 135.41 58.0007 135.38 58.1107 135.35C58.3107 135.29 58.5307 135.15 58.6607 135.03C58.8107 134.87 58.8606 134.79 58.8706 134.69C58.8806 134.68 58.8406 134.58 58.7906 134.68C58.5806 134.88 58.3407 135.61 58.2807 136.41C58.2107 136.8 58.2107 137.22 58.1907 137.66C58.1607 138.09 58.1806 138.53 58.2006 138.98C58.2006 139.87 58.3207 140.8 58.3907 141.72L58.4006 141.85C58.4706 142.84 57.7307 143.69 56.7407 143.77C55.9107 143.82 55.1806 143.31 54.9206 142.56Z" fill="#8BD74B"/>
<path d="M57.3106 143.49L57.4006 142.1C57.4506 141.63 57.5506 141.14 57.6306 140.65C57.8906 139.66 58.2106 138.61 59.0106 137.57C59.7506 136.54 61.0306 135.57 62.4806 135.21C63.2006 135 63.9206 134.96 64.6306 134.98C64.9806 135 65.3206 135.03 65.6706 135.09C65.8406 135.12 66.0206 135.16 66.2006 135.2C66.2906 135.22 66.3806 135.25 66.4806 135.28C66.5706 135.31 66.6706 135.33 66.8506 135.42C68.5106 136.23 69.1906 138.24 68.3806 139.9C67.5706 141.56 65.5606 142.24 63.9006 141.43C63.9906 141.47 63.9906 141.46 63.9906 141.45C64.0006 141.44 64.0006 141.44 63.9806 141.42C63.9706 141.4 63.9506 141.37 63.9206 141.35C63.8706 141.3 63.8206 141.26 63.7606 141.22C63.6606 141.15 63.5506 141.07 63.4706 141.03C63.3106 140.93 63.1206 140.86 62.7706 141.03C62.4206 141.17 62.0506 141.63 61.7006 142.15C61.5506 142.44 61.3706 142.72 61.2306 143.04L60.8206 144.05L60.7306 144.26C60.3606 145.17 59.3106 145.61 58.4006 145.24C57.6906 144.96 57.2606 144.23 57.3106 143.49Z" fill="#8BD74B"/>
</svg>
