<svg width="448" height="223" viewBox="0 0 448 223" fill="none" xmlns="http://www.w3.org/2000/svg">
<path d="M448.001 64.75C440.571 59.52 431.681 56.47 422.141 56.47C418.871 56.47 415.671 56.84 412.591 57.52C413.051 54.73 413.311 51.86 413.311 48.93C413.311 21.92 392.921 0.0299988 367.761 0.0299988C346.071 0.0299988 327.931 16.31 323.341 38.11C317.941 35.51 311.961 34.05 305.651 34.05C281.761 34.05 262.401 54.84 262.401 80.48C262.401 81.28 262.421 82.08 262.461 82.88C260.811 81.46 259.041 80.13 257.111 78.95C239.031 67.83 215.991 72.51 205.631 89.39C196.701 103.95 200.131 122.82 212.841 134.87C208.881 137.42 205.441 140.84 202.841 145.07C196.231 155.84 196.771 169.11 203.031 179.85H448.001V64.75Z" fill="#389444"/>
<path d="M311.7 110.15C247.69 110.15 190.4 134.48 152.07 172.8C137.29 166.56 120.63 163.04 103 163.04C56.08 163.04 16 187.92 0 223.01H116.76H205.99H448V152.93C411.41 126.27 363.79 110.15 311.7 110.15Z" fill="#46B755"/>
</svg>
