<svg width="448" height="264" viewBox="0 0 448 264" fill="none" xmlns="http://www.w3.org/2000/svg">
<path d="M448.001 71.13C440.791 65.39 432.181 62.03 422.911 62.03C419.741 62.03 416.641 62.43 413.651 63.18C414.101 60.11 414.351 56.96 414.351 53.73C414.351 24.06 394.571 0 370.171 0C349.131 0 331.541 17.9 327.091 41.85C321.851 38.99 316.051 37.39 309.941 37.39C286.771 37.39 267.991 60.23 267.991 88.41C267.991 89.29 268.011 90.17 268.051 91.04C266.451 89.47 264.731 88.02 262.861 86.72C245.331 74.5 222.981 79.64 212.931 98.2C204.271 114.2 207.601 134.94 219.921 148.19C216.071 151 212.741 154.75 210.221 159.4C203.811 171.24 204.331 185.81 210.401 197.62H448.001V71.13Z" fill="#FF9432"/>
<path d="M311.7 150.84C247.69 150.84 190.4 175.24 152.07 213.65C137.29 207.39 120.63 203.87 103 203.87C56.08 203.87 16 228.82 0 264H116.76H206H448V193.73C411.41 167.01 363.79 150.84 311.7 150.84Z" fill="#46B755"/>
</svg>
