<svg width="448" height="264" viewBox="0 0 448 264" fill="none" xmlns="http://www.w3.org/2000/svg">
<path d="M448 120.34C435.81 118.97 423.36 118.26 410.71 118.26C326.36 118.26 250.88 149.68 200.37 199.16C180.89 191.1 158.94 186.56 135.71 186.56C73.89 186.56 21.07 218.69 0 264H448V120.34Z" fill="#46B755"/>
<path d="M78.53 217.09C79.03 216.21 79.52 215.34 80.02 214.48C82.69 209.81 85.19 205.35 87 201.57C90.58 194.01 92.58 186.45 93.78 180.6C94.39 177.69 94.76 175.21 95.02 173.47C95.26 171.73 95.33 170.7 95.33 170.7C95.33 170.7 94.43 171.15 92.91 172.08C91.38 172.99 89.27 174.42 86.88 176.37C83.55 179.09 79.69 182.95 76.33 187.81C75.98 185.7 75.6 183.64 75.19 181.63C75.56 180.08 75.91 178.58 76.21 177.17C78.46 166.44 79.12 156.35 79.26 148.78C79.34 145.01 79.25 141.87 79.18 139.69C79.09 137.5 78.96 136.26 78.96 136.26C78.96 136.26 78.13 137.18 76.77 138.91C75.39 140.63 73.53 143.19 71.49 146.46C69.88 149.05 68.18 152.12 66.55 155.57C62.42 147.09 57.55 140.04 53.32 134.83C51.71 132.9 50.22 131.2 48.9 129.72C47.54 128.26 46.29 127.07 45.29 126.09C43.26 124.14 42.08 123.13 42.08 123.13C42.08 123.13 42.41 124.68 43.11 127.38C43.47 128.72 43.92 130.34 44.43 132.23C44.91 134.13 45.48 136.26 46.14 138.57C48.17 146.02 50.83 155.45 53.98 165.8C53.86 165.67 53.75 165.53 53.63 165.41C51.34 162.9 49.3 161 47.8 159.75C46.32 158.49 45.43 157.84 45.43 157.84C45.43 157.84 45.42 158.96 45.54 160.88C45.67 162.8 45.88 165.55 46.29 168.82C46.41 169.79 46.55 170.82 46.7 171.88C46.18 171.16 45.63 170.46 45.11 169.77C44.12 168.5 43.15 167.24 42.12 166.07C41.06 164.92 40.01 163.8 38.96 162.73C37.91 161.66 36.88 160.61 35.77 159.69C31.49 155.86 27.19 152.92 23.44 150.73C21.54 149.66 19.8 148.75 18.26 147.98C16.7 147.24 15.29 146.7 14.16 146.24C11.89 145.35 10.6 144.94 10.6 144.94C10.6 144.94 11.27 146.15 12.54 148.19C13.18 149.19 13.96 150.42 14.87 151.83C15.73 153.27 16.73 154.88 17.85 156.59C22.23 163.6 27.99 172.82 34.45 182.71C37.75 187.62 41.74 193.63 45.66 200.12C47.13 202.53 48.55 205.04 49.9 207.57C48.79 205.73 47.75 204 46.81 202.44C42.85 196.27 38.41 190.98 34.81 186.84C33.94 185.8 33.1 184.86 32.32 184.03C31.57 183.18 30.92 182.45 30.38 181.84C29.27 180.62 28.56 179.94 28.56 179.94C28.56 179.94 28.28 180.84 27.93 182.49C27.81 183.06 27.68 183.74 27.56 184.49C22.05 180.57 16.44 177.95 11.85 176.34C10.07 175.74 8.45 175.25 7.02 174.85C5.57 174.48 4.29 174.24 3.26 174.04C1.17 173.64 0 173.51 0 173.51C0 173.51 0.67 174.52 1.92 176.18C2.55 177 3.32 177.99 4.21 179.13C5.08 180.29 6.07 181.58 7.18 182.95C11.1 187.92 16.17 194.17 22.09 200.62C19.01 200.26 16.14 200.23 13.69 200.39C12.12 200.51 10.71 200.67 9.47 200.85C8.23 201.05 7.16 201.3 6.29 201.5C4.55 201.92 3.6 202.24 3.6 202.24C3.6 202.24 4.38 202.92 5.78 203.98C6.48 204.5 7.33 205.12 8.3 205.84C9.27 206.58 10.36 207.38 11.56 208.21C16.37 211.64 22.61 215.86 29.79 219.53C30.97 220.12 32.24 220.73 33.58 221.37C32.64 221.37 31.71 221.43 30.81 221.55C28.28 221.9 26 222.64 24.15 223.55C22.3 224.45 20.88 225.43 19.94 226.22C19 227 18.52 227.52 18.52 227.52C18.52 227.52 19.06 228.02 19.98 228.76C20.89 229.49 22.16 230.53 23.61 231.64C26.55 233.85 30.06 236.46 34.46 237.67C36.67 238.28 39.54 238.65 42.68 238.96C45.68 239.25 48.93 239.47 51.96 239.61C51.98 239.59 78.52 219.1 78.53 217.09Z" fill="#46B755"/>
<path d="M92.8996 172.07C91.3696 172.98 89.2596 174.41 86.8696 176.36C82.1196 180.25 76.2496 186.4 72.3696 194.6C71.6096 196.18 70.8796 197.96 70.1896 199.85C69.3196 195.31 68.2396 191.06 66.9796 187.52C65.5996 183.56 63.8396 179.93 61.9196 176.68C63.7496 170.97 65.9096 165.97 67.9296 162.01C71.3796 155.21 74.2896 151.32 74.2896 151.32C74.2896 151.32 74.6096 156.16 74.4696 163.64C74.3196 171.13 73.7996 181.22 72.0096 192.08C71.6996 193.82 71.3596 195.68 71.0096 197.63C73.0096 190.2 74.9396 183.02 76.2096 177.15C78.4596 166.42 79.1196 156.33 79.2596 148.76C79.3396 144.99 79.2496 141.85 79.1796 139.67C79.0896 137.48 78.9596 136.24 78.9596 136.24C78.9596 136.24 78.1296 137.16 76.7696 138.89C75.3896 140.61 73.5296 143.17 71.4896 146.44C69.8796 149.03 68.1696 152.1 66.5396 155.56C62.4096 147.08 57.5496 140.02 53.3196 134.82C51.7096 132.89 50.2196 131.19 48.8996 129.71C47.5396 128.25 46.2896 127.06 45.2896 126.08C43.2596 124.13 42.0796 123.12 42.0796 123.12C42.0796 123.12 42.3996 124.67 43.1096 127.37C43.4696 128.71 43.9196 130.33 44.4296 132.22C44.9096 134.12 45.4796 136.25 46.1396 138.56C48.1696 146.01 50.8296 155.44 53.9796 165.79C53.8596 165.66 53.7496 165.52 53.6296 165.4C51.3396 162.89 49.2996 160.99 47.7996 159.74C46.3196 158.48 45.4296 157.83 45.4296 157.83C45.4296 157.83 45.4196 158.95 45.5396 160.87C45.6696 162.79 45.8796 165.54 46.2896 168.81C46.4096 169.78 46.5496 170.81 46.6996 171.87C46.1796 171.15 45.6296 170.45 45.1096 169.75C44.1196 168.48 43.1496 167.22 42.1196 166.05C41.0596 164.9 40.0096 163.78 38.9596 162.71C37.9096 161.64 36.8796 160.59 35.7696 159.67C31.4896 155.84 27.1896 152.9 23.4396 150.71C21.5396 149.64 19.7996 148.73 18.2596 147.96C16.6996 147.22 15.2896 146.68 14.1596 146.22C11.8896 145.33 10.5996 144.92 10.5996 144.92C10.5996 144.92 11.2696 146.13 12.5396 148.17C13.1796 149.17 13.9596 150.4 14.8696 151.8C15.7296 153.24 16.7296 154.85 17.8496 156.56C22.2296 163.57 27.9896 172.79 34.4496 182.68C38.0796 188.04 42.5096 194.73 46.7196 201.94C46.2496 200.97 45.7996 200.02 45.3496 199.1C44.8796 198.19 44.4196 197.31 43.9796 196.46C38.6396 185.79 33.8096 175.94 29.9796 168.67C28.0696 165.01 26.5096 162.01 25.4196 159.93C24.2896 157.87 23.6896 156.66 23.6896 156.66C23.6896 156.66 24.8696 157.27 26.9496 158.49C28.0096 159.09 29.1696 159.94 30.5796 160.91C31.9496 161.91 33.5996 162.99 35.1996 164.4C39.0296 167.49 43.3996 171.76 47.5396 177.06C48.4496 181.94 49.7696 187.35 51.6896 192.87C53.4196 197.73 55.9096 203.61 58.4896 209.73C57.9796 208.1 57.4996 206.55 57.0496 205.09C54.3896 196 53.0396 187.38 52.2396 180.9C51.4496 174.43 51.3196 170.14 51.3196 170.14C51.3196 170.14 54.5096 173.02 58.4896 178.39C62.4696 183.74 67.1696 191.7 69.9796 201.31C70.0996 201.71 70.2096 202.13 70.3196 202.54C70.3296 202.59 70.3396 202.63 70.3396 202.68C70.3396 202.67 70.3496 202.67 70.3496 202.66C70.6696 203.81 70.9696 205 71.2396 206.26C71.0496 204.89 70.8296 203.53 70.5996 202.19C73.8096 195.98 77.8096 190.96 81.2396 187.48C85.4796 183.16 88.7596 181.02 88.7596 181.02C88.7596 181.02 88.3596 184.91 87.1796 190.66C85.9896 196.42 84.1396 204 80.9596 211.8C80.4296 213.04 79.8496 214.37 79.2596 215.77C82.1896 210.62 84.9896 205.67 86.9796 201.54C90.5596 193.98 92.5596 186.42 93.7596 180.57C94.3696 177.66 94.7396 175.18 94.9996 173.44C95.2396 171.7 95.3096 170.67 95.3096 170.67C95.3096 170.67 94.4196 171.15 92.8996 172.07ZM55.2496 156.68C54.8096 154.3 54.2496 152.2 53.8696 150.3C53.4496 148.41 53.1796 146.74 52.8596 145.41C52.2596 142.73 51.9796 141.21 51.9796 141.21C51.9796 141.21 53.0096 142.36 54.7596 144.52C55.6596 145.59 56.6096 146.98 57.7596 148.58C58.8696 150.2 60.2296 152.01 61.4796 154.14C62.5396 155.82 63.6296 157.67 64.7196 159.67C62.9596 163.95 61.3996 168.7 60.3296 173.81C60.3096 173.89 60.2996 173.98 60.2796 174.06C59.6396 173.08 58.9896 172.14 58.3396 171.25C57.2196 165.85 56.1796 160.93 55.2496 156.68Z" fill="#389444"/>
<path d="M34.8 186.82C33.93 185.78 33.09 184.84 32.32 184.01C31.57 183.16 30.92 182.43 30.38 181.82C29.27 180.6 28.56 179.92 28.56 179.92C28.56 179.92 28.28 180.82 27.93 182.47C27.81 183.05 27.68 183.73 27.55 184.49C22.04 180.57 16.43 177.93 11.85 176.32C10.07 175.72 8.45 175.23 7.02 174.83C5.57 174.46 4.29 174.22 3.26 174.02C1.17 173.64 0 173.51 0 173.51C0 173.51 0.67 174.52 1.92 176.18C2.55 177 3.32 177.99 4.21 179.13C5.08 180.29 6.07 181.58 7.18 182.95C11.1 187.93 16.17 194.17 22.1 200.62C19.02 200.26 16.15 200.22 13.69 200.38C12.12 200.5 10.71 200.66 9.47 200.84C8.23 201.04 7.16 201.29 6.29 201.5C4.55 201.92 3.6 202.24 3.6 202.24C3.6 202.24 4.38 202.92 5.78 203.98C6.48 204.5 7.33 205.12 8.3 205.84C9.27 206.58 10.36 207.38 11.56 208.21C16.37 211.64 22.61 215.86 29.79 219.53C30.97 220.11 32.26 220.73 33.6 221.36C32.65 221.36 31.72 221.42 30.81 221.54C28.28 221.89 26 222.63 24.15 223.54C22.3 224.44 20.88 225.42 19.94 226.21C19 226.99 18.52 227.51 18.52 227.51C18.52 227.51 19.06 228.01 19.98 228.75C20.89 229.48 22.16 230.52 23.61 231.63C26.55 233.84 30.06 236.45 34.46 237.66C36.88 238.31 40.08 238.71 43.57 239.04C42.72 238.81 41.92 238.59 41.19 238.33C36.65 236.76 33.07 234.06 30.28 231.83C28.9 230.7 27.74 229.68 26.91 228.94C26.09 228.21 25.61 227.73 25.61 227.73C25.61 227.73 26.16 227.37 27.17 226.85C28.18 226.34 29.68 225.7 31.55 225.21C35.27 224.18 40.56 223.85 45.56 225.58C46.35 225.86 47.2 226.19 48.06 226.59C44.96 224.53 41.66 222.82 38.74 222.03C38.08 221.85 37.41 221.71 36.75 221.6C31.42 217.92 26.74 214.23 23.01 211.3C20.74 209.5 18.86 207.97 17.56 206.86C16.24 205.8 15.51 205.13 15.51 205.13C15.51 205.13 16.47 204.98 18.21 204.86C19.93 204.78 22.44 204.74 25.49 205.03C26.97 205.16 28.58 205.39 30.29 205.73C31.05 207.53 31.98 209.33 33.1 211.08C35.64 215.17 39.72 219.62 44.38 223.5C43.83 222.94 43.3 222.39 42.78 221.86C42.29 221.31 41.83 220.75 41.39 220.21C35.84 213.47 33.22 205.75 32.34 200.09C32.06 198.69 31.99 197.36 31.89 196.23C31.82 195.08 31.74 194.11 31.78 193.29C31.82 191.65 31.92 190.74 31.92 190.74C31.92 190.74 32.61 191.36 33.73 192.48C34.27 193.05 35.02 193.7 35.79 194.48C36.59 195.25 37.39 196.16 38.38 197.09C42.15 200.95 47.07 205.89 51.81 211.65C52.18 212.12 52.57 212.61 52.96 213.11C53.37 213.6 53.79 214.11 54.21 214.63C51.39 210.16 48.9 205.82 46.78 202.4C42.83 196.25 38.4 190.96 34.8 186.82ZM26 201.24C23.42 197.63 21.08 194.27 19.06 191.42C18.09 189.94 17.12 188.69 16.33 187.5C15.52 186.34 14.86 185.26 14.26 184.44C13.09 182.78 12.48 181.79 12.48 181.79C12.48 181.79 13.59 182.1 15.56 182.78C16.55 183.11 17.69 183.62 19.04 184.2C20.37 184.81 21.93 185.45 23.52 186.36C24.68 186.97 25.92 187.69 27.19 188.47C27.17 188.8 27.16 189.13 27.15 189.47C27.08 192.97 27.53 197.36 28.92 201.92C27.93 201.65 26.96 201.44 26 201.24Z" fill="#389444"/>
<path d="M447.999 55.25C447.919 54.95 447.849 54.63 447.759 54.33C443.159 36.98 434.659 22.95 427.589 13.8C425.789 11.51 424.099 9.5 422.579 7.76C421.039 6.04 419.609 4.62 418.459 3.47C416.139 1.18 414.759 0 414.759 0C414.759 0 414.869 1.93 415.229 5.27C415.409 6.94 415.679 8.94 415.969 11.26C416.239 13.59 416.579 16.2 417.009 19.03C418.069 26.42 419.519 35.31 421.549 44.96C418.689 42.58 415.889 40.58 413.319 38.96C411.109 37.62 409.079 36.48 407.289 35.53C405.459 34.61 403.809 33.95 402.479 33.39C399.809 32.31 398.279 31.84 398.279 31.84C398.279 31.84 398.859 33.5 400.009 36.26C400.589 37.62 401.299 39.27 402.119 41.16C402.899 43.09 403.799 45.23 404.829 47.51C408.849 56.8 414.169 68.72 420.769 81.06C422.669 84.51 424.829 88.36 427.109 92.49C421.559 88.35 414.829 87.6 409.989 88.31C407.299 88.69 405.129 89.4 403.609 90.08C402.099 90.72 401.279 91.22 401.279 91.22C401.279 91.22 401.659 92.21 402.329 93.74C403.019 95.24 403.939 97.37 405.039 99.64C407.269 104.27 409.849 109.44 413.819 113.03C415.859 114.82 418.639 116.62 421.729 118.61C424.089 120.12 426.549 121.82 428.909 123.59H447.999V55.25Z" fill="#46B755"/>
<path d="M429.599 94.63C424.899 82.7 421.029 71.54 417.889 62.93C417.119 60.52 416.239 58.44 415.589 56.5C414.899 54.59 414.389 52.85 413.869 51.5C412.869 48.77 412.369 47.16 412.369 47.16C412.369 47.16 413.769 47.9 416.189 49.42C417.419 50.16 418.779 51.22 420.399 52.43C421.459 53.26 422.659 54.16 423.889 55.19C424.379 57.22 424.899 59.26 425.449 61.32C427.929 70 431.009 80.74 434.179 91.81C433.609 88.87 433.069 86.07 432.529 83.46C429.439 67.16 427.619 51.99 426.319 40.63C425.689 34.96 425.229 30.27 424.969 26.98C424.649 23.71 424.559 21.84 424.559 21.84C424.559 21.84 425.749 23.18 427.759 25.73C429.709 28.3 432.439 32.1 435.409 37.07C439.719 44.22 444.459 53.95 448.019 65.43V55.23C447.939 54.93 447.869 54.62 447.779 54.33C443.179 36.98 434.679 22.96 427.609 13.8C425.809 11.51 424.119 9.5 422.609 7.76C421.069 6.04 419.639 4.62 418.489 3.47C416.169 1.18 414.789 0 414.789 0C414.789 0 414.899 1.93 415.259 5.27C415.439 6.94 415.709 8.94 415.999 11.26C416.269 13.59 416.609 16.2 417.039 19.03C418.099 26.42 419.549 35.31 421.579 44.97C418.719 42.59 415.919 40.58 413.349 38.96C411.139 37.62 409.109 36.48 407.319 35.53C405.489 34.61 403.839 33.95 402.509 33.39C399.839 32.31 398.309 31.84 398.309 31.84C398.309 31.84 398.889 33.5 400.039 36.26C400.619 37.62 401.329 39.27 402.149 41.16C402.929 43.09 403.829 45.23 404.859 47.51C408.879 56.8 414.199 68.72 420.799 81.06C422.709 84.51 424.889 88.37 427.169 92.51C421.619 88.36 414.869 87.6 410.029 88.31C407.339 88.69 405.169 89.4 403.649 90.08C402.139 90.72 401.319 91.22 401.319 91.22C401.319 91.22 401.699 92.21 402.369 93.74C403.059 95.24 403.979 97.37 405.079 99.64C407.309 104.27 409.889 109.44 413.859 113.03C416.089 114.97 419.219 116.95 422.629 119.19C421.919 118.45 421.269 117.73 420.649 117.06C416.989 112.8 414.649 107.5 412.689 103.03C411.739 100.8 410.939 98.81 410.379 97.35C409.809 95.93 409.499 95.02 409.499 95.02C409.499 95.02 412.889 93.86 417.969 94.31C423.009 94.7 429.829 97.08 434.809 102.89C435.619 103.79 436.399 104.85 437.139 106.02C435.089 101.52 432.419 97.42 429.599 94.63Z" fill="#389444"/>
<path d="M354.31 125.85C357.83 129.57 361.34 133.7 364.45 137.65C366.45 140.14 368.17 142.58 369.64 144.76H398C400.52 143.13 403.14 141.56 405.66 140.18C408.78 138.46 411.58 136.9 413.63 135.36C417.63 132.27 420.2 127.84 422.43 123.88C423.52 121.94 424.45 120.11 425.13 118.83C425.8 117.52 426.18 116.67 426.18 116.67C426.18 116.67 425.34 116.25 423.81 115.72C422.27 115.16 420.06 114.57 417.34 114.26C412.45 113.69 405.64 114.38 400.05 117.95C402.33 114.42 404.5 111.12 406.39 108.17C412.99 97.6098 418.29 87.4098 422.3 79.4698C423.33 77.5198 424.23 75.6898 425 74.0398C425.81 72.4198 426.52 71.0098 427.1 69.8498C428.24 67.4898 428.82 66.0798 428.82 66.0798C428.82 66.0798 427.28 66.4898 424.58 67.4298C423.24 67.9098 421.57 68.4898 419.73 69.2898C417.92 70.1098 415.87 71.0998 413.65 72.2598C411.06 73.6598 408.24 75.3798 405.36 77.4298C407.35 69.1898 408.77 61.6098 409.79 55.3098C410.21 52.8998 410.54 50.6698 410.8 48.6798C411.09 46.7098 411.35 44.9998 411.52 43.5798C411.87 40.7398 411.96 39.0898 411.96 39.0898C411.96 39.0898 410.57 40.1098 408.24 42.0798C407.08 43.0698 405.65 44.2898 404.1 45.7598C402.58 47.2498 400.89 48.9798 399.07 50.9398C391.97 58.7898 383.47 70.7998 378.92 85.6198C378.42 87.1798 377.97 88.8498 377.54 90.5698C376.48 88.3898 375.39 86.3198 374.25 84.4298C366.42 71.0798 354.9 61.6198 345.9 56.0598C343.6 54.6798 341.49 53.4998 339.62 52.4998C337.71 51.5298 335.98 50.7898 334.59 50.1898C331.79 48.9898 330.18 48.4398 330.18 48.4398C330.18 48.4398 330.77 49.9598 331.94 52.5098C332.54 53.7698 333.27 55.2998 334.11 57.0598C334.91 58.8498 335.85 60.8398 336.92 62.9598C341.02 71.4798 346.49 82.4698 353.22 94.0098C349.52 91.8998 345.76 90.4698 342.5 89.6098C340.81 89.1798 339.25 88.8498 337.87 88.6098C336.47 88.3898 335.22 88.2798 334.21 88.1998C332.18 88.0498 331.02 88.0798 331.02 88.0798C331.02 88.0798 331.33 89.1398 331.98 90.8498C332.31 91.6898 332.72 92.6998 333.17 93.8498C333.61 95.0198 334.13 96.2898 334.73 97.6298C337.09 103.1 340.22 109.68 345.02 115.68C347.5 118.67 350.8 122.12 354.31 125.85Z" fill="#46B755"/>
<path d="M422.309 79.4799C423.339 77.5299 424.239 75.6999 425.009 74.0499C425.819 72.4299 426.529 71.0199 427.109 69.8599C428.249 67.4999 428.829 66.0899 428.829 66.0899C428.829 66.0899 427.289 66.4999 424.589 67.4399C423.249 67.9199 421.579 68.4999 419.739 69.2999C417.929 70.1199 415.879 71.1099 413.659 72.2699C411.069 73.6699 408.249 75.3999 405.369 77.4499C407.359 69.2099 408.779 61.6199 409.799 55.3199C410.219 52.9099 410.549 50.6799 410.809 48.6899C411.099 46.7199 411.359 45.0099 411.529 43.5899C411.879 40.7499 411.969 39.0999 411.969 39.0999C411.969 39.0999 410.579 40.1199 408.249 42.0899C407.089 43.0799 405.659 44.2999 404.109 45.7699C402.589 47.2599 400.899 48.9899 399.089 50.9499C391.989 58.7999 383.489 70.8099 378.939 85.6299C378.439 87.1799 377.989 88.8399 377.559 90.5499C376.499 88.3699 375.399 86.3199 374.259 84.4399C366.429 71.0899 354.909 61.6299 345.909 56.0699C343.609 54.6899 341.499 53.5099 339.629 52.5099C337.719 51.5399 335.989 50.7999 334.599 50.1999C331.799 48.9999 330.189 48.4499 330.189 48.4499C330.189 48.4499 330.779 49.9699 331.949 52.5199C332.549 53.7799 333.279 55.3099 334.119 57.0699C334.919 58.8599 335.849 60.8499 336.929 62.9699C341.029 71.4899 346.499 82.4799 353.229 94.0199C349.529 91.9099 345.769 90.4799 342.509 89.6199C340.819 89.1899 339.259 88.8599 337.879 88.6199C336.479 88.3999 335.229 88.2899 334.219 88.2099C332.189 88.0599 331.029 88.0899 331.029 88.0899C331.029 88.0899 331.339 89.1499 331.989 90.8599C332.319 91.6999 332.729 92.7099 333.179 93.8599C333.619 95.0299 334.139 96.2999 334.739 97.6399C337.099 103.11 340.229 109.69 345.029 115.69C347.729 118.95 351.429 122.77 355.259 126.92C354.479 125.74 353.739 124.62 353.049 123.57C348.909 117 346.219 110.21 344.139 104.83C343.129 102.15 342.319 99.8399 341.789 98.1699C341.219 96.5399 340.949 95.5499 340.949 95.5499C340.949 95.5499 342.039 95.7199 343.919 96.1799C345.769 96.6799 348.399 97.4999 351.419 98.8799C357.439 101.58 365.019 106.79 370.019 114.71C370.849 115.96 371.599 117.36 372.309 118.86C370.249 112.76 367.299 107.01 363.959 102.98C362.299 100.92 360.439 99.1199 358.459 97.5499C355.419 90.1899 352.769 83.4499 350.509 77.8899C349.709 75.6499 348.789 73.7199 348.119 71.9199C347.399 70.1499 346.879 68.5399 346.339 67.2899C345.309 64.7599 344.799 63.2799 344.799 63.2799C344.799 63.2799 346.259 64.0599 348.779 65.6099C350.059 66.3699 351.469 67.4299 353.149 68.6399C354.789 69.8799 356.759 71.2499 358.659 72.9699C364.449 77.8399 371.169 84.9499 376.759 93.8799C375.389 100.23 374.429 107.33 373.969 114.58C374.329 111.86 374.769 109.28 375.339 106.89C378.599 91.9099 385.369 79.2699 391.329 70.8099C394.299 66.5599 397.039 63.2999 398.999 61.0999C401.009 58.9199 402.209 57.7599 402.209 57.7599C402.209 57.7599 402.129 59.3599 401.829 62.1399C401.579 64.9399 401.149 68.9499 400.549 73.7799C399.299 83.4699 397.559 96.3999 394.529 110.32C393.999 112.55 393.469 114.94 392.909 117.45C396.049 107.99 399.089 98.8199 401.549 91.4099C402.089 89.6499 402.599 87.8999 403.089 86.1699C404.329 85.2899 405.539 84.5099 406.609 83.7899C408.249 82.7499 409.609 81.8299 410.849 81.1899C413.289 79.8799 414.699 79.2399 414.699 79.2399C414.699 79.2399 414.209 80.6199 413.209 82.9499C412.689 84.0999 412.189 85.5899 411.499 87.2199C410.849 88.8799 409.979 90.6499 409.209 92.7199C406.089 100.08 402.239 109.61 397.559 119.81C394.719 122.21 392.049 125.72 390.019 129.57C390.759 128.57 391.539 127.66 392.349 126.89C397.359 121.9 404.239 119.82 409.339 119.46C414.489 119.04 417.919 120 417.919 120C417.919 120 417.619 120.77 417.049 121.99C416.499 123.24 415.699 124.94 414.749 126.85C412.789 130.67 410.459 135.2 406.789 138.86C406.169 139.44 405.509 140.05 404.799 140.69C408.239 138.76 411.389 137.05 413.639 135.38C417.639 132.29 420.209 127.86 422.439 123.9C423.529 121.96 424.459 120.13 425.139 118.85C425.809 117.54 426.189 116.69 426.189 116.69C426.189 116.69 425.349 116.27 423.819 115.74C422.279 115.18 420.069 114.59 417.349 114.28C412.449 113.71 405.629 114.4 400.039 117.98C402.309 114.44 404.489 111.13 406.399 108.18C412.999 97.6199 418.299 87.4299 422.309 79.4799Z" fill="#389444"/>
</svg>
