<svg width="448" height="264" viewBox="0 0 448 264" fill="none" xmlns="http://www.w3.org/2000/svg">
<path d="M427.59 13.8C425.79 11.51 424.1 9.5 422.58 7.76C421.04 6.04 419.61 4.62 418.46 3.47C416.14 1.18 414.76 0 414.76 0C414.76 0 414.87 1.93 415.23 5.27C415.41 6.94 415.68 8.94 415.97 11.26C416.24 13.59 416.58 16.2 417.01 19.03C418.07 26.42 419.52 35.31 421.55 44.96C418.69 42.58 415.89 40.58 413.32 38.96C411.11 37.62 409.08 36.48 407.29 35.53C405.46 34.61 403.81 33.95 402.48 33.39C399.81 32.31 398.28 31.84 398.28 31.84C398.28 31.84 398.86 33.5 400.01 36.26C400.59 37.62 401.3 39.27 402.12 41.16C402.7 42.6 403.35 44.15 404.07 45.79C402.56 47.27 400.87 48.99 399.08 50.94C391.98 58.79 383.48 70.8 378.93 85.62C378.43 87.18 377.98 88.85 377.55 90.57C376.49 88.39 375.4 86.32 374.26 84.43C366.43 71.08 354.91 61.62 345.91 56.06C343.61 54.68 341.5 53.5 339.63 52.5C337.72 51.53 335.99 50.79 334.6 50.19C331.8 48.99 330.19 48.44 330.19 48.44C330.19 48.44 330.78 49.96 331.95 52.51C332.55 53.77 333.28 55.3 334.12 57.06C334.92 58.85 335.86 60.84 336.93 62.96C341.03 71.48 346.5 82.47 353.23 94.01C349.53 91.9 345.77 90.47 342.51 89.61C340.82 89.18 339.26 88.85 337.88 88.61C336.48 88.39 335.23 88.28 334.22 88.2C332.19 88.05 331.03 88.08 331.03 88.08C331.03 88.08 331.34 89.14 331.99 90.85C332.32 91.69 332.73 92.7 333.18 93.85C333.62 95.02 334.14 96.29 334.74 97.63C337.1 103.1 340.23 109.68 345.03 115.68C346.96 118.02 349.4 120.64 352.06 123.47C291.76 134.31 238.82 161.49 200.37 199.16C180.89 191.1 158.94 186.56 135.71 186.56C119.96 186.56 104.81 188.65 90.6 192.51C92.05 188.17 93.06 184.08 93.77 180.59C94.38 177.68 94.75 175.2 95.01 173.46C95.25 171.72 95.32 170.69 95.32 170.69C95.32 170.69 94.42 171.14 92.9 172.07C91.37 172.98 89.26 174.41 86.87 176.36C83.54 179.08 79.68 182.94 76.32 187.8C75.97 185.69 75.59 183.63 75.18 181.62C75.55 180.07 75.9 178.57 76.2 177.16C78.45 166.43 79.11 156.34 79.25 148.77C79.33 145 79.24 141.86 79.17 139.68C79.08 137.49 78.95 136.25 78.95 136.25C78.95 136.25 78.12 137.17 76.76 138.9C75.38 140.62 73.52 143.18 71.48 146.45C69.87 149.04 68.17 152.11 66.54 155.56C62.41 147.08 57.54 140.03 53.31 134.82C51.7 132.89 50.21 131.19 48.89 129.71C47.53 128.25 46.28 127.06 45.28 126.08C43.25 124.13 42.07 123.12 42.07 123.12C42.07 123.12 42.39 124.67 43.1 127.37C43.46 128.71 43.91 130.33 44.42 132.22C44.9 134.12 45.47 136.25 46.13 138.56C48.16 146.01 50.82 155.44 53.97 165.79C53.85 165.66 53.74 165.52 53.62 165.4C51.33 162.89 49.29 160.99 47.79 159.74C46.31 158.48 45.42 157.83 45.42 157.83C45.42 157.83 45.41 158.95 45.53 160.87C45.66 162.79 45.87 165.54 46.28 168.81C46.4 169.78 46.54 170.81 46.69 171.87C46.17 171.15 45.62 170.45 45.1 169.76C44.11 168.49 43.14 167.23 42.11 166.06C41.05 164.91 40 163.79 38.95 162.72C37.9 161.65 36.87 160.6 35.76 159.68C31.48 155.85 27.18 152.91 23.43 150.72C21.53 149.65 19.79 148.74 18.25 147.97C16.69 147.23 15.28 146.69 14.15 146.23C11.88 145.34 10.59 144.93 10.59 144.93C10.59 144.93 11.26 146.14 12.53 148.18C13.17 149.18 13.95 150.41 14.86 151.82C15.72 153.26 16.72 154.87 17.84 156.58C22.22 163.59 27.98 172.81 34.44 182.7C37.74 187.61 41.73 193.62 45.65 200.11C47.12 202.52 48.54 205.03 49.89 207.56C48.78 205.72 47.74 203.99 46.8 202.43C42.84 196.26 38.4 190.97 34.8 186.83C33.93 185.79 33.09 184.85 32.31 184.02C31.56 183.17 30.91 182.44 30.37 181.83C29.26 180.61 28.55 179.93 28.55 179.93C28.55 179.93 28.27 180.83 27.92 182.48C27.8 183.05 27.67 183.73 27.55 184.48C22.04 180.56 16.43 177.94 11.84 176.33C10.06 175.73 8.44 175.24 7.01 174.84C5.56 174.47 4.28 174.23 3.25 174.03C1.17 173.64 0 173.51 0 173.51C0 173.51 0.67 174.52 1.92 176.18C2.55 177 3.32 177.99 4.21 179.13C5.08 180.29 6.07 181.58 7.18 182.95C11.1 187.92 16.17 194.17 22.09 200.62C19.01 200.26 16.14 200.23 13.69 200.39C12.12 200.51 10.71 200.67 9.47 200.85C8.23 201.05 7.16 201.3 6.29 201.5C4.55 201.92 3.6 202.24 3.6 202.24C3.6 202.24 4.38 202.92 5.78 203.98C6.48 204.5 7.33 205.12 8.3 205.84C9.27 206.58 10.36 207.38 11.56 208.21C16.37 211.64 22.61 215.86 29.79 219.53C30.97 220.12 32.24 220.73 33.58 221.37C32.64 221.37 31.71 221.43 30.81 221.55C28.28 221.9 26 222.64 24.15 223.55C22.3 224.45 20.88 225.43 19.94 226.22C19 227 18.52 227.52 18.52 227.52C18.52 227.52 19.06 228.02 19.98 228.76C20.76 229.38 21.81 230.24 23 231.17C13.4 240.94 5.58 252 0 264H448V123.6V120.34V55.25C447.92 54.95 447.85 54.63 447.77 54.33C443.16 36.98 434.67 22.96 427.59 13.8ZM417.67 88.47C418.92 86.11 420.08 83.87 421.16 81.75C422.97 85.02 424.99 88.63 427.12 92.49C424.15 90.27 420.85 89.04 417.67 88.47ZM415.72 71.21C415.05 71.55 414.36 71.89 413.65 72.26C411.06 73.66 408.24 75.38 405.36 77.43C407.1 70.25 408.39 63.56 409.38 57.79C411.3 62.02 413.41 66.54 415.72 71.21ZM406.4 108.18C406.97 107.27 407.51 106.37 408.06 105.47C409.65 108.25 411.49 110.91 413.83 113.03C414.24 113.39 414.69 113.76 415.16 114.12C410.55 113.96 404.85 114.9 400.05 117.97C402.33 114.44 404.5 111.13 406.4 108.18Z" fill="#46B755"/>
</svg>
