<svg width="448" height="264" viewBox="0 0 448 264" fill="none" xmlns="http://www.w3.org/2000/svg">
<path d="M447.999 118.61C447.879 118.76 447.759 118.92 447.649 119.07C447.769 118.89 447.879 118.71 447.999 118.53V71.62C442.849 74.85 436.859 80.56 430.699 87.88C433.009 80.95 434.729 74.05 435.769 67.63C436.729 61.25 437.089 55.28 436.899 50.11C436.349 39.84 433.569 32.78 429.019 31.72C426.209 31.07 423.109 32.7 419.939 36.06C416.789 39.4 413.499 44.51 410.279 50.79C410.099 49.74 409.919 48.68 409.739 47.61C409.099 43.98 408.169 40.54 407.249 37.18C406.289 33.84 405.289 30.6 404.139 27.58C401.769 21.59 399.209 16.23 396.479 11.93C390.899 3.40002 385.209 -1.20998 380.709 0.29002C377.649 1.28002 375.669 4.86002 374.549 10.23C373.389 15.63 373.159 22.76 373.709 30.84C371.739 28.12 369.659 25.59 367.599 23.18C365.519 20.8 363.509 18.5 361.359 16.5C357.099 12.47 352.989 9.09002 349.089 6.64002C341.199 1.80002 334.659 0.30002 331.069 3.02002C327.859 6.20002 328.169 12.95 331.179 21.25C332.649 25.43 334.669 30.11 337.349 34.93C338.709 37.32 340.049 39.89 341.619 42.41C343.159 44.96 344.879 47.49 346.669 50.08C339.409 47.31 332.829 45.88 327.669 45.78C322.459 45.71 318.589 46.99 316.779 49.55C314.179 53.27 316.129 59.19 321.569 65.71C324.229 69.02 327.659 72.58 331.879 76.14C333.959 77.94 336.139 79.81 338.529 81.63C340.889 83.48 343.519 85.26 346.129 87.13C346.909 87.67 347.689 88.2 348.459 88.74C341.739 89.13 335.999 90.23 331.689 91.86C327.399 93.47 324.589 95.57 323.749 97.98C322.339 101.97 326.329 106.13 334.109 109.98C337.919 111.96 342.699 113.86 348.239 115.65C353.709 117.47 359.859 119.23 366.619 120.77C348.969 123.04 336.519 128.43 335.389 133.94C335.009 135.76 335.949 137.42 337.829 139C339.709 140.58 342.639 142.03 346.439 143.33C348.339 143.98 350.459 144.59 352.769 145.17C355.059 145.76 357.509 146.33 360.139 146.84C365.409 147.88 371.359 148.76 377.789 149.45C363.809 148.63 345.689 156.77 344.339 161.45C343.749 163.67 344.709 165.98 346.969 168.24C349.219 170.51 352.849 172.7 357.299 174.82C361.719 176.94 367.099 178.93 373.079 180.66C379.029 182.39 385.449 183.91 392.179 184.93C373.769 184.59 355.589 187.89 353.559 193.34C352.129 197.21 357.989 201.34 367.609 205.55C377.409 209.69 390.929 214.01 405.579 217.45C418.759 220.61 431.499 222.64 441.739 223.06C443.749 221.97 445.839 220.73 447.969 219.36V118.61H447.999Z" fill="#389444"/>
<path d="M97.3796 176.83C90.9596 176.55 85.3796 176.84 81.3996 177.92C77.4196 179 74.9996 180.9 74.8696 183.66C74.6596 187.26 78.3996 191.66 84.7196 195.37C86.2996 196.3 88.0396 197.18 89.8896 198.02C91.7596 198.84 93.7896 199.59 95.8896 200.27C96.7096 200.54 97.5596 200.78 98.4196 201.02H170.07C170.07 201.02 176.12 180.66 177.15 173.94C178.14 167.22 177.65 162.6 174.69 161.58C173.11 161.06 169.35 162.53 165.34 165.12C161.33 167.72 157.08 171.49 154.58 175.71C156.72 171.69 158.5 167.99 160.12 164.57C160.92 162.87 161.61 161.27 162.23 159.76C162.88 158.24 163.42 156.83 163.86 155.53C165.64 150.33 165.86 146.85 163.63 145.7C161.9 144.84 158.97 145.45 155.32 147.33C151.67 149.21 147.35 152.35 142.94 156.7C146.97 147.85 150.16 140.16 151.8 134.4C153.43 128.64 153.37 124.75 150.72 123.51C149.12 122.76 146.73 123.12 143.85 124.46C140.96 125.81 137.65 128.15 134.24 131.44C134.34 130.77 134.45 130.1 134.55 129.42C135.89 120.21 136.7 112.14 136.38 106.08C136.32 104.56 136.17 103.17 135.92 101.93C135.71 100.68 135.42 99.57 135.02 98.63C134.2 96.74 133.1 95.48 131.55 95.06C129.45 94.48 126.83 95.55 124.12 98.07C122.78 99.33 121.41 100.96 120.05 102.93C118.75 104.89 117.45 107.2 116.26 109.8C115.01 100.39 113.48 91.91 111.5 85.52C111.02 83.93 110.5 82.46 109.92 81.16C109.36 79.86 108.8 78.71 108.17 77.75C106.93 75.83 105.51 74.63 103.96 74.4C102.4 74.4 100.86 75.4 99.3996 77.26C98.6796 78.19 97.9496 79.34 97.2996 80.69C96.6596 82.04 96.0596 83.58 95.5096 85.3C93.3596 92.16 92.2796 101.89 93.4596 112.52C86.2896 102.34 79.9296 95.46 75.7796 97.41C74.2896 98.12 73.2396 99.95 72.7796 102.67C72.5396 104.03 72.4196 105.6 72.4396 107.36C72.4896 109.12 72.6696 111.05 72.9796 113.14C74.2696 121.46 78.0096 132.07 84.3096 142.06C84.7796 142.79 85.2496 143.51 85.7096 144.23C80.9396 142.38 76.7396 141.19 73.5296 140.96C70.2996 140.74 67.9996 141.51 67.0296 143.51C65.4696 146.76 67.8796 152.73 73.3196 159.11C78.7396 165.48 87.2996 172.12 97.3796 176.83Z" fill="#389444"/>
<path d="M299.09 183.85C268.89 173.43 243.91 167.15 207.74 167.15C113.1 167.14 32.26 207.33 0 264H448V187.09C424.26 180.37 398.23 176.65 370.92 176.65C349.04 176.65 318.81 179.45 299.09 183.85Z" fill="#46B755"/>
</svg>
