<svg width="448" height="264" viewBox="0 0 448 264" fill="none" xmlns="http://www.w3.org/2000/svg">
<path d="M41.8209 160.41C41.3909 159.92 40.9009 159.41 40.3809 158.9C39.3209 157.9 38.1109 156.84 36.6709 155.99C35.2109 155.18 33.7309 154.57 32.3409 154.12C31.9909 154.01 31.6509 153.91 31.3209 153.81C30.9809 153.74 30.6409 153.67 30.3109 153.61C29.6509 153.5 29.0409 153.41 28.4709 153.35C26.1909 153.11 24.7109 153.25 24.7109 153.25C24.7109 153.25 25.6009 154.52 27.1509 156.1C27.5409 156.5 27.9709 156.91 28.4409 157.33C28.6809 157.54 28.9209 157.75 29.1809 157.96C29.4309 158.19 29.6809 158.42 29.9409 158.65C31.0009 159.57 32.2109 160.46 33.5809 161.22C34.9309 162.01 36.2609 162.7 37.5809 163.18C38.2309 163.43 38.8709 163.64 39.4909 163.82C40.0909 164.02 40.6509 164.21 41.1909 164.36C43.3209 164.97 44.8409 165.14 44.8409 165.14C44.8409 165.14 44.2509 163.76 42.9509 161.87C42.6009 161.44 42.2409 160.93 41.8209 160.41Z" fill="#FF9432"/>
<path d="M46.2398 169.21C44.7598 168.83 43.1498 168.55 41.3898 168.61C39.6498 168.64 38.0098 168.89 36.5398 169.26C35.0698 169.62 33.7098 170.19 32.6198 170.69C30.4098 171.72 29.0898 172.69 29.0898 172.69C29.0898 172.69 30.3098 173.28 32.3798 173.76C33.3998 174.03 34.5898 174.35 35.9798 174.54C36.6698 174.64 37.4098 174.72 38.1898 174.76C38.9698 174.8 39.7398 174.88 40.5798 174.87C42.2398 174.88 43.8898 174.73 45.4398 174.49C46.9898 174.25 48.3698 174.02 49.5898 173.73C52.0098 173.18 53.6198 172.58 53.6198 172.58C53.6198 172.58 52.3198 171.6 50.1698 170.54C49.0698 170.05 47.7098 169.59 46.2398 169.21Z" fill="#FF9432"/>
<path d="M64.0298 184.53C63.4498 184.01 62.6298 183.26 61.4798 182.55C60.3498 181.82 58.9898 181.03 57.4598 180.35C55.8998 179.69 54.0898 179.19 52.2198 178.89C50.3598 178.58 48.4798 178.63 46.7798 178.82C45.0898 179.01 43.5598 179.35 42.2898 179.71C41.0298 180.06 39.9498 180.52 39.2198 180.83C38.4898 181.15 38.0898 181.37 38.0898 181.37C38.0898 181.37 39.3798 182.13 41.4698 183.09C42.5198 183.57 43.8598 184 45.3098 184.47C46.7598 184.94 48.4198 185.35 50.2698 185.6C52.0998 185.87 53.8698 186.03 55.5998 186.05C57.2998 186.09 58.9698 185.98 60.3098 185.91C63.0398 185.75 64.8998 185.4 64.8998 185.4C64.8998 185.4 65.7898 183.74 66.5798 180.99C66.9898 179.6 67.2798 178.01 67.4498 176.18C67.5998 174.37 67.6298 172.32 67.2998 170.22C66.9398 168.14 66.3298 166.16 65.6198 164.35C64.9098 162.54 63.9698 161.03 63.1598 159.71C62.3198 158.42 61.5898 157.34 60.9798 156.67C60.3898 155.99 60.0198 155.62 60.0198 155.62C60.0198 155.62 59.9298 156.1 59.8198 156.94C59.7098 157.79 59.6198 158.96 59.5098 160.44C59.4098 161.91 59.3698 163.63 59.4398 165.47C59.5098 167.31 59.7198 169.25 60.0198 171.31C60.3398 173.35 60.8598 175.19 61.3798 176.88C61.8698 178.59 62.4398 180.09 62.9798 181.34C63.5398 182.56 63.9798 183.61 64.3298 184.31C64.6798 185.01 64.8998 185.4 64.8998 185.4C64.9098 185.39 64.6098 185.06 64.0298 184.53Z" fill="#FF9432"/>
<path d="M71.6805 197.8C70.5905 196.78 69.2505 195.65 67.7105 194.61C66.0905 193.61 64.2405 192.7 62.2505 192.03C60.2505 191.37 58.1505 191.11 56.2905 190.99C54.4105 190.89 52.7105 190.98 51.2005 191.21C48.2205 191.63 46.3105 192.31 46.3105 192.31C46.3105 192.31 46.6105 192.59 47.1905 193.02C47.4805 193.24 47.8405 193.49 48.2605 193.78C48.7005 194.05 49.1705 194.38 49.6905 194.73C50.7405 195.43 52.0505 196.18 53.6105 196.9C55.1005 197.66 56.8105 198.41 58.7805 199.02C59.7805 199.31 60.7205 199.61 61.6805 199.86C62.6405 200.11 63.5905 200.31 64.5305 200.49C66.4005 200.85 68.2205 201.06 69.7105 201.26C72.7405 201.62 74.8605 201.61 74.8605 201.61C74.8605 201.61 76.1705 199.98 77.5805 197.12C78.3105 195.67 78.9605 193.97 79.4905 191.99C79.7505 191 79.9805 189.95 80.1505 188.84C80.3205 187.73 80.4505 186.55 80.4405 185.38C80.4405 183.01 80.1505 180.67 79.6705 178.54C79.1305 176.45 78.4505 174.54 77.7705 172.93C77.4405 172.12 77.1005 171.39 76.7505 170.78C76.4105 170.16 76.1005 169.62 75.8405 169.18C75.3105 168.3 74.9705 167.82 74.9705 167.82C74.9705 167.82 74.2405 169.89 73.5805 173.07C73.2705 174.64 72.8905 176.55 72.6305 178.61C72.3505 180.68 72.2505 182.85 72.2205 185.16C72.1905 187.48 72.3805 189.63 72.6705 191.56C72.8805 193.54 73.2105 195.3 73.5605 196.77C73.9405 198.22 74.1805 199.47 74.4405 200.31C74.6805 201.15 74.8605 201.62 74.8605 201.62C74.8605 201.62 74.5905 201.2 74.0605 200.51C73.5205 199.8 72.8005 198.81 71.6805 197.8Z" fill="#FF9432"/>
<path d="M81.6807 220.45C81.2307 219.56 80.5607 218.32 79.6407 216.91C78.7807 215.48 77.4207 213.97 75.9307 212.47C74.4707 210.96 72.5407 209.58 70.4507 208.43C68.4007 207.27 66.1307 206.55 64.0707 206.07C61.9907 205.6 60.1007 205.37 58.3707 205.34C54.9707 205.25 52.7207 205.67 52.7207 205.67C52.7207 205.67 52.9907 206.03 53.5407 206.6C54.0707 207.19 54.9507 207.96 55.9407 208.92C56.4507 209.39 57.0307 209.9 57.6807 210.42C58.3207 210.94 59.0807 211.46 59.7907 212.03C60.5307 212.59 61.3407 213.16 62.2207 213.71C63.0907 214.27 64.1007 214.81 65.0507 215.37C67.0007 216.48 69.1007 217.4 71.1207 218.2C73.0607 219.02 74.9507 219.7 76.6107 220.25C78.2707 220.8 79.7107 221.2 80.7107 221.47C81.6907 221.75 82.2707 221.87 82.2707 221.87C82.2707 221.87 82.2207 221.74 82.1307 221.49C82.0607 221.25 81.9107 220.89 81.6807 220.45Z" fill="#FF9432"/>
<path d="M54.5601 164.03C54.4301 162.41 54.1301 160.64 53.5701 158.8C53.2801 157.89 52.9701 156.98 52.5701 156.17C52.1701 155.35 51.7401 154.58 51.2901 153.84C50.3901 152.38 49.4501 151.05 48.5401 150.02C46.6901 147.99 45.2101 146.84 45.2101 146.84C45.2101 146.84 45.1301 148.6 45.3701 151.21C45.4801 152.52 45.7101 153.99 45.9901 155.65C46.2801 157.3 46.6801 159.05 47.2701 160.78C47.8801 162.49 48.5301 164.13 49.2301 165.56C49.9201 167 50.6801 168.21 51.3101 169.25C52.5601 171.37 53.6001 172.59 53.6001 172.59C53.6001 172.59 54.1401 170.99 54.4301 168.45C54.5801 167.2 54.6901 165.65 54.5601 164.03Z" fill="#FF9432"/>
<path d="M86.3493 217.55C87.4493 216.13 88.6393 214.35 89.7293 212.23C90.7393 210.14 91.6193 207.72 92.2193 205C92.5393 203.63 92.6393 202.31 92.7393 200.98C92.8193 199.65 92.8293 198.35 92.7793 197.08C92.7593 195.8 92.5693 194.62 92.3993 193.48C92.2193 192.34 92.0093 191.27 91.7793 190.28C91.3693 188.28 90.7493 186.72 90.3293 185.61C89.8993 184.5 89.6093 183.88 89.6093 183.88C89.6093 183.88 88.3993 186.08 87.0493 189.54C86.3993 191.25 85.5793 193.35 84.8893 195.6C84.1793 197.86 83.6093 200.29 83.0593 202.9C82.5493 205.49 82.3693 207.91 82.1493 210.18C81.9493 212.44 82.0393 214.44 81.9793 216.19C81.9693 217.93 82.0593 219.34 82.1493 220.32C82.1993 220.81 82.2393 221.2 82.2493 221.47C82.2693 221.74 82.2793 221.88 82.2793 221.88C82.2793 221.88 82.7493 221.5 83.5093 220.77C84.2593 220.05 85.2493 218.98 86.3493 217.55Z" fill="#FF9432"/>
<path d="M323.831 98.03C324.061 99.47 324.451 101.01 325.061 102.53C325.691 104.05 326.541 105.39 327.391 106.55C327.821 107.13 328.261 107.67 328.691 108.16C329.141 108.64 329.591 109.08 330.011 109.46C331.701 111.01 333.021 111.79 333.021 111.79C333.021 111.79 333.211 110.22 333.061 107.96C333.021 107.39 332.961 106.79 332.881 106.15C332.811 105.5 332.721 104.82 332.581 104.13C332.321 102.73 331.881 101.28 331.281 99.82C330.691 98.35 329.941 97.04 329.131 95.88C328.931 95.59 328.721 95.31 328.521 95.04C328.321 94.77 328.131 94.5 327.931 94.25C327.541 93.75 327.141 93.28 326.771 92.87C325.261 91.2 324.021 90.25 324.021 90.25C324.021 90.25 323.661 91.76 323.601 94.07C323.581 94.65 323.591 95.28 323.611 95.94C323.621 96.27 323.651 96.61 323.681 96.96C323.721 97.32 323.771 97.67 323.831 98.03Z" fill="#FF9432"/>
<path d="M318.33 110.75C315.62 110.29 313.74 110.25 313.74 110.25C313.74 110.25 314.62 111.78 316.35 113.76C317.22 114.74 318.35 115.81 319.66 116.85C320.32 117.37 321.02 117.88 321.78 118.36C322.53 118.85 323.37 119.28 324.24 119.68C325.98 120.48 327.74 121.02 329.4 121.38C331.05 121.74 332.66 121.88 334.01 121.95C336.72 122.07 338.54 121.81 338.54 121.81C338.54 121.81 337.59 120.53 335.77 118.9C334.87 118.08 333.79 117.14 332.48 116.23C331.83 115.77 331.12 115.32 330.36 114.88C329.6 114.45 328.83 114.01 327.98 113.61C326.29 112.81 324.55 112.21 322.89 111.75C321.23 111.31 319.69 110.97 318.33 110.75Z" fill="#FF9432"/>
<path d="M355.36 148.03C354.09 147.24 352.53 146.38 350.71 145.59C348.93 144.77 346.91 144 344.64 143.44C343.5 143.16 342.4 142.91 341.29 142.72C340.19 142.53 339.09 142.39 338.03 142.29C335.91 142.09 333.9 142.05 332.21 142.05C328.81 142.07 326.49 142.41 326.49 142.41C326.49 142.41 326.84 142.84 327.52 143.53C327.86 143.87 328.27 144.29 328.76 144.74C329.01 144.97 329.27 145.21 329.55 145.45C329.84 145.69 330.15 145.94 330.48 146.19C331.79 147.2 333.38 148.3 335.21 149.3C337.08 150.27 339.19 151.14 341.48 151.74C342.62 152.05 343.78 152.24 344.91 152.37C346.04 152.5 347.14 152.57 348.2 152.59C350.32 152.62 352.25 152.46 353.92 152.19C357.25 151.67 359.4 150.89 359.4 150.89C359.4 150.89 359.03 150.56 358.34 150.04C357.67 149.51 356.62 148.83 355.36 148.03Z" fill="#FF9432"/>
<path d="M342.89 113.76C343.54 112.2 344.13 110.51 344.54 108.77C344.75 107.9 344.88 107.06 345.01 106.24C345.14 105.42 345.22 104.63 345.26 103.88C345.36 102.38 345.29 101.06 345.21 99.9298C345.07 97.6698 344.66 96.2798 344.66 96.2798C344.66 96.2798 343.37 97.5798 341.83 99.7698C341.07 100.87 340.22 102.2 339.5 103.69C338.78 105.18 338.13 106.85 337.69 108.64C337.48 109.53 337.3 110.42 337.22 111.27C337.13 112.12 337.1 112.94 337.1 113.73C337.11 115.3 337.24 116.75 337.46 117.95C337.92 120.34 338.55 121.83 338.55 121.83C338.55 121.83 339.65 120.3 340.93 117.91C341.57 116.71 342.24 115.31 342.89 113.76Z" fill="#FF9432"/>
<path d="M353.011 111.26C352.821 110.03 352.551 109.07 352.381 108.38C352.201 107.69 352.071 107.32 352.071 107.32C352.071 107.32 351.741 107.71 351.221 108.42C350.701 109.13 349.971 110.17 349.241 111.44C348.501 112.72 347.721 114.25 347.041 115.98C346.361 117.7 345.761 119.63 345.481 121.63C345.191 123.63 345.141 125.57 345.291 127.32C345.461 129.05 345.781 130.62 346.131 131.93C346.471 133.25 346.891 134.28 347.191 135C347.501 135.72 347.711 136.11 347.711 136.11C347.711 136.11 347.411 135.78 346.841 135.26C346.271 134.73 345.411 134.02 344.361 133.18C343.291 132.35 341.981 131.45 340.431 130.58C338.901 129.7 337.181 128.82 335.211 128.12C333.231 127.42 331.281 126.9 329.411 126.54C327.541 126.18 325.771 125.97 324.241 125.85C322.701 125.74 321.441 125.68 320.541 125.68C319.641 125.68 319.121 125.71 319.121 125.71C319.121 125.71 319.401 126.12 319.931 126.79C320.451 127.47 321.301 128.36 322.371 129.37C323.451 130.37 324.731 131.5 326.311 132.52C327.891 133.54 329.691 134.5 331.671 135.23C333.671 135.95 335.711 136.36 337.581 136.58C339.471 136.8 341.191 136.84 342.711 136.76C345.731 136.6 347.721 136.12 347.721 136.12C347.721 136.12 348.771 134.32 349.941 131.55C350.511 130.17 351.181 128.51 351.731 126.74C352.301 124.96 352.751 123.06 353.061 121.09C353.381 119.11 353.461 117.28 353.411 115.64C353.331 113.97 353.221 112.48 353.011 111.26Z" fill="#FF9432"/>
<path d="M362.81 140.02C363.02 139 363.21 137.95 363.36 136.89C363.51 135.82 363.61 134.74 363.69 133.63C363.84 131.41 363.73 129.39 363.52 127.59C363.34 125.76 363.02 124.17 362.68 122.85C362.59 122.52 362.51 122.21 362.42 121.91C362.34 121.61 362.26 121.33 362.18 121.07C362.02 120.54 361.87 120.1 361.74 119.73C361.47 119 361.28 118.6 361.28 118.6C361.28 118.6 359.96 120.45 358.53 123.45C357.8 124.96 357.1 126.73 356.52 128.7C356.23 129.69 355.98 130.73 355.77 131.8C355.57 132.87 355.4 134 355.36 135.12C355.24 137.37 355.42 139.51 355.75 141.43C356.13 143.33 356.65 145.02 357.18 146.44C357.7 147.87 358.29 148.95 358.71 149.72C359.13 150.48 359.41 150.89 359.41 150.89C359.41 150.89 360.37 148.76 361.36 145.55C361.84 143.95 362.38 142.05 362.81 140.02Z" fill="#FF9432"/>
<path d="M381.341 11.44C381.451 12.03 381.571 12.64 381.711 13.26C382.251 15.72 383.011 18.32 384.101 20.94C385.131 23.58 386.191 26.06 387.431 28.24C388.041 29.34 388.661 30.37 389.281 31.33C389.851 32.31 390.391 33.22 390.921 34.04C393.031 37.35 394.791 39.35 394.791 39.35C394.791 39.35 395.321 36.78 395.441 32.69C395.471 31.67 395.481 30.55 395.431 29.36C395.321 28.19 395.171 26.95 394.971 25.65C394.531 23.06 393.971 20.22 392.881 17.42C391.731 14.65 390.361 12.12 388.961 9.91C388.611 9.36 388.261 8.83 387.911 8.32C387.521 7.83 387.141 7.35 386.761 6.9C386.001 6 385.261 5.18 384.571 4.44C381.771 1.52 379.701 0 379.701 0C379.701 0 379.731 2.71 380.351 6.61C380.511 7.59 380.701 8.64 380.941 9.74C381.071 10.3 381.201 10.86 381.341 11.44Z" fill="#FF9432"/>
<path d="M367.93 31.2798C367.93 31.2798 368.97 33.5198 371.18 36.6198C372.24 38.1898 373.44 40.0298 375.02 41.9298C375.8 42.8798 376.66 43.8498 377.6 44.8198C378.55 45.7898 379.43 46.7998 380.47 47.7798C382.52 49.7398 384.72 51.4498 386.86 52.9198C389.01 54.3998 390.9 55.6798 392.67 56.6898C396.16 58.7298 398.7 59.7598 398.7 59.7598C398.7 59.7598 398.03 56.8998 396.4 52.9498C395.54 50.9798 394.27 48.7798 392.8 46.5398C392.06 45.4198 391.24 44.2998 390.36 43.1998C389.49 42.0998 388.38 41.0698 387.3 40.0698C385.08 38.0798 382.78 36.5198 380.59 35.2998C378.41 34.0798 376.13 33.2798 374.28 32.6798C370.51 31.4998 367.93 31.2798 367.93 31.2798Z" fill="#FF9432"/>
<path d="M398.641 82.7101C398.011 80.3901 397.141 77.7401 395.981 75.0101C394.741 72.2901 393.021 69.5101 391.041 66.9201C389.101 64.3301 386.731 62.2201 384.471 60.5101C382.211 58.8001 380.021 57.4901 378.111 56.5101C376.231 55.5201 374.451 54.8901 373.271 54.4701C372.061 54.0601 371.361 53.8901 371.361 53.8901C371.361 53.8901 371.571 54.5401 372.031 55.6601C372.531 56.7701 373.031 58.3801 373.921 60.2701C374.351 61.2201 374.851 62.2401 375.431 63.3201C376.001 64.4001 376.701 65.5201 377.311 66.7101C378.611 69.0701 380.231 71.5701 382.241 74.0701C384.181 76.5701 386.141 78.8501 388.201 80.8601C390.201 82.8801 392.321 84.6301 393.971 86.0801C397.371 88.9801 399.921 90.6101 399.921 90.6101C399.921 90.6101 399.881 89.8001 399.721 88.4001C399.561 87.0001 399.331 85.0301 398.641 82.7101Z" fill="#FF9432"/>
<path d="M395.341 115.73C395.121 113.06 394.711 109.97 393.991 106.75C393.101 103.51 391.841 100.13 390.171 96.9102C389.381 95.3102 388.321 93.8002 387.301 92.4202C386.271 91.0402 385.211 89.7702 384.151 88.6202C382.031 86.3202 379.931 84.4802 377.881 83.0502C373.891 80.1902 370.951 78.9302 370.951 78.9302C370.951 78.9302 371.041 79.6802 371.311 80.9702C371.451 81.6202 371.631 82.4002 371.861 83.3002C371.981 83.7502 372.111 84.2302 372.251 84.7302C372.371 85.2302 372.491 85.7602 372.631 86.3202C373.191 88.5302 373.991 91.1202 375.131 93.9302C376.121 96.7302 377.361 99.7502 379.071 102.87C379.961 104.43 380.741 105.92 381.601 107.35C382.461 108.78 383.361 110.16 384.271 111.47C386.081 114.09 387.991 116.45 389.501 118.38C392.631 122.28 395.091 124.63 395.091 124.63C395.091 124.63 395.221 123.73 395.331 122.17C395.401 120.62 395.631 118.42 395.341 115.73Z" fill="#FF9432"/>
<path d="M365.201 107.76C365.211 109.21 365.461 111.33 365.571 113.83C365.661 115.09 365.801 116.46 366.001 117.94C366.181 119.41 366.541 121.01 366.741 122.62C366.991 124.25 367.311 125.96 367.731 127.74C368.121 129.51 368.741 131.41 369.201 133.25C370.231 136.98 371.611 140.61 373.061 143.95C374.361 147.23 375.771 150.25 377.061 152.82C378.351 155.39 379.551 157.52 380.401 158.99C381.211 160.43 381.731 161.24 381.731 161.24C381.731 161.24 381.821 161 382.001 160.56C382.181 160.12 382.411 159.46 382.631 158.59C383.101 156.87 383.701 154.39 384.201 151.42C384.331 150.68 384.451 149.91 384.561 149.11C384.661 148.31 384.691 147.45 384.741 146.58C384.821 144.84 384.841 143.01 384.791 141.13C384.771 137.41 383.991 133.32 382.821 129.38C381.721 125.46 379.821 121.9 377.941 118.9C376.021 115.89 374.111 113.44 372.111 111.43C368.241 107.45 365.211 105.47 365.211 105.47C365.211 105.47 365.161 106.3 365.201 107.76Z" fill="#FF9432"/>
<path d="M403.65 54.9901C405.01 53.4101 406.63 51.4001 407.98 49.0301C409.34 46.6601 410.63 43.8801 411.64 40.7201C412.13 39.1501 412.61 37.5401 412.85 35.9701C413.11 34.4001 413.28 32.8501 413.4 31.3301C413.62 28.3001 413.67 25.4201 413.47 22.9901C412.98 18.1301 412.14 14.8901 412.14 14.8901C412.14 14.8901 410.42 17.1701 408.34 20.9701C407.27 22.8801 406.24 25.1201 405.06 27.7001C403.89 30.2801 402.78 33.1301 401.92 36.1701C401.47 37.7001 401.19 39.1901 400.81 40.6701C400.45 42.1501 400.15 43.6001 399.92 44.9801C399.43 47.7601 399.25 50.2901 399.05 52.4801C398.57 56.8601 398.7 59.7501 398.7 59.7501C398.7 59.7501 400.88 58.1701 403.65 54.9901Z" fill="#FF9432"/>
<path d="M422.64 43.76C422.64 43.76 422.08 44.31 421.16 45.34C420.22 46.37 419.03 47.87 417.48 49.79C415.97 51.7 414.28 54.01 412.62 56.62C410.96 59.24 409.38 62.15 407.75 65.36C406.17 68.56 405.05 71.71 404.04 74.67C402.96 77.62 402.18 80.37 401.61 82.73C401.1 85.09 400.58 87.05 400.3 88.44C400.01 89.82 399.9 90.62 399.9 90.62C399.9 90.62 402.59 89.3 406.26 86.36C408.14 84.89 410 83 412 80.64C413.94 78.29 415.99 75.47 417.62 72.19C419.19 68.91 420.35 65.47 421.22 62.16C421.69 60.5 421.92 58.89 422.15 57.35C422.36 55.81 422.52 54.34 422.63 52.97C422.83 50.24 422.96 47.91 422.83 46.31C422.75 44.68 422.64 43.76 422.64 43.76Z" fill="#FF9432"/>
<path d="M410.41 116.3C411.73 115.21 413.07 113.99 414.4 112.63C415.73 111.27 417.1 109.78 418.25 108.12C420.63 104.81 422.64 101.23 424.22 97.7298C425.65 94.2198 426.73 90.7898 427.52 87.7998C427.71 87.0498 427.89 86.3298 428.07 85.6398C428.21 84.9498 428.32 84.2898 428.42 83.6698C428.62 82.4298 428.78 81.3398 428.89 80.4298C429.11 78.6198 429.18 77.5698 429.18 77.5698C429.18 77.5698 426.28 79.5998 422.4 83.2598C420.51 85.0898 418.16 87.3098 415.81 89.8798C414.64 91.1598 413.45 92.5298 412.3 93.9798C411.13 95.4298 410.05 96.9598 408.83 98.5698C406.46 101.78 404.53 105.01 402.92 108.06C401.14 111.08 399.72 113.93 398.62 116.39C397.59 118.87 396.54 120.89 395.98 122.36C395.38 123.81 395.1 124.67 395.1 124.67C395.1 124.67 398.31 123.83 402.93 121.38C405.28 120.15 407.77 118.48 410.41 116.3Z" fill="#FF9432"/>
<path d="M391.16 159.64C393.98 158.85 397.29 157.68 400.86 155.93C404.27 154.12 407.9 151.72 411.5 148.59C413.36 147.04 414.85 145.31 416.37 143.56C417.86 141.8 419.25 139.99 420.54 138.18C421.88 136.38 422.86 134.53 423.86 132.75C424.83 130.97 425.7 129.24 426.47 127.62C428.08 124.39 428.93 121.53 429.59 119.52C430.22 117.51 430.52 116.32 430.52 116.32C430.52 116.32 426.86 118.02 421.75 121.34C419.26 123.01 416.11 125.01 412.97 127.39C409.79 129.77 406.62 132.53 403.22 135.57C399.88 138.63 397.14 141.84 394.41 144.76C393.09 146.24 391.89 147.69 390.79 149.08C390.23 149.77 389.74 150.46 389.21 151.11C388.68 151.76 388.17 152.38 387.68 152.98C385.76 155.39 384.3 157.46 383.32 158.93C382.84 159.67 382.45 160.25 382.16 160.64C381.89 161.03 381.74 161.24 381.74 161.24C381.74 161.24 382.7 161.22 384.38 161.04C386.01 160.84 388.33 160.42 391.16 159.64Z" fill="#FF9432"/>
<path d="M331.37 108.36C331.37 108.36 331.1 108.2 330.65 107.88C330.19 107.56 329.59 107.07 328.89 106.43C327.51 105.13 325.7 103.23 324.42 100.7C324.6 101.31 324.81 101.93 325.06 102.55C325.69 104.07 326.54 105.41 327.39 106.57C327.82 107.15 328.26 107.69 328.69 108.18C329.14 108.66 329.59 109.1 330.01 109.48C331.7 111.03 333.02 111.81 333.02 111.81C333.02 111.81 333.21 110.24 333.06 107.98C333.02 107.41 332.96 106.81 332.88 106.17C332.81 105.52 332.72 104.84 332.58 104.15C332.32 102.75 331.88 101.3 331.28 99.8399C331.04 99.2499 330.78 98.6799 330.49 98.1399C331.21 100.79 331.49 103.3 331.49 105.21C331.5 106.16 331.45 106.97 331.43 107.51C331.41 108.04 331.37 108.36 331.37 108.36Z" fill="#FF790B"/>
<path d="M330.611 115.04C332.271 116.32 333.521 117.58 334.371 118.52C334.781 118.99 335.121 119.37 335.351 119.64C335.571 119.91 335.691 120.06 335.691 120.06C335.691 120.06 335.231 120.12 334.431 120.15C333.631 120.19 332.481 120.2 331.141 120.1C329.791 120 328.231 119.8 326.551 119.42C324.891 119.03 323.081 118.48 321.391 117.61C320.441 117.14 319.551 116.61 318.721 116.05C320.251 117.36 322.051 118.7 324.261 119.68C326.001 120.48 327.761 121.02 329.421 121.38C331.071 121.74 332.681 121.88 334.031 121.95C336.741 122.07 338.561 121.81 338.561 121.81C338.561 121.81 337.851 120.86 336.491 119.55C336.151 119.22 335.761 118.88 335.351 118.51C334.941 118.14 334.501 117.75 334.011 117.36C333.031 116.6 331.901 115.8 330.611 115.04Z" fill="#FF790B"/>
<path d="M337.401 129C338.401 129.65 339.251 130.32 340.041 130.92C340.821 131.52 341.491 132.09 342.021 132.57C343.091 133.54 343.651 134.21 343.651 134.21C343.651 134.21 341.651 134.64 338.631 134.7C337.121 134.73 335.351 134.67 333.451 134.4C331.581 134.12 329.581 133.63 327.571 132.86C326.791 132.55 326.021 132.22 325.311 131.85C327.101 133.12 329.241 134.33 331.641 135.22C333.641 135.94 335.681 136.35 337.551 136.57C339.441 136.79 341.161 136.83 342.681 136.75C345.701 136.59 347.691 136.11 347.691 136.11C347.691 136.11 347.451 135.84 346.981 135.4C346.521 134.96 345.801 134.36 344.931 133.65C344.061 132.94 342.981 132.14 341.711 131.34C341.081 130.94 340.381 130.55 339.671 130.16C338.961 129.75 338.201 129.36 337.401 129Z" fill="#FF790B"/>
<path d="M347.44 144.27C348.66 144.88 349.71 145.54 350.68 146.13C351.64 146.72 352.47 147.28 353.13 147.77C354.46 148.75 355.19 149.44 355.19 149.44C355.19 149.44 353.03 150.15 349.69 150.57C348.02 150.78 346.04 150.91 343.91 150.83C341.8 150.73 339.52 150.41 337.2 149.77C336.7 149.63 336.21 149.48 335.72 149.32C335.24 149.15 334.78 148.97 334.33 148.78C335.34 149.39 336.48 149.94 337.69 150.44C338.89 150.94 340.17 151.38 341.51 151.73C342.65 152.04 343.81 152.23 344.94 152.36C346.07 152.49 347.17 152.56 348.23 152.58C350.35 152.61 352.28 152.45 353.96 152.18C357.29 151.66 359.44 150.88 359.44 150.88C359.44 150.88 359.15 150.62 358.59 150.19C358.04 149.76 357.21 149.19 356.17 148.52C354.11 147.16 351.07 145.57 347.44 144.27Z" fill="#FF790B"/>
<path d="M337.201 111.54C337.281 113.57 337.601 115.31 337.891 116.53C338.031 117.14 338.191 117.61 338.301 117.94C338.411 118.26 338.491 118.44 338.491 118.44C338.491 118.44 338.771 118.07 339.211 117.4C339.651 116.73 340.251 115.77 340.931 114.58C341.601 113.39 342.331 112 343.001 110.47C343.681 108.94 344.251 107.3 344.731 105.55C344.991 104.59 345.181 103.66 345.311 102.77C345.291 104.53 345.031 106.59 344.541 108.77C344.131 110.51 343.541 112.2 342.891 113.76C342.241 115.32 341.571 116.71 340.921 117.91C339.641 120.3 338.541 121.83 338.541 121.83C338.541 121.83 338.081 120.72 337.651 118.89C337.551 118.43 337.441 117.93 337.351 117.38C337.271 116.83 337.211 116.24 337.161 115.62C337.081 114.37 337.071 112.99 337.201 111.54Z" fill="#FF790B"/>
<path d="M345.242 123.94C345.362 125.09 345.522 126.17 345.752 127.09C345.982 128.02 346.232 128.83 346.462 129.51C346.922 130.85 347.302 131.62 347.302 131.62C347.302 131.62 348.412 129.84 349.662 127.1C350.292 125.73 350.952 124.13 351.542 122.38C352.162 120.62 352.702 118.72 353.042 116.79C353.182 116.03 353.262 115.3 353.342 114.58C353.462 116.47 353.432 118.65 353.042 121.06C352.742 123.03 352.282 124.93 351.722 126.71C351.172 128.48 350.502 130.14 349.932 131.52C348.762 134.29 347.712 136.09 347.712 136.09C347.712 136.09 347.542 135.77 347.272 135.18C347.022 134.59 346.642 133.74 346.322 132.65C346.002 131.56 345.682 130.25 345.462 128.78C345.352 128.04 345.252 127.28 345.222 126.46C345.192 125.66 345.192 124.81 345.242 123.94Z" fill="#FF790B"/>
<path d="M355.361 137.96C355.621 139.25 355.911 140.46 356.271 141.49C356.631 142.52 357.001 143.42 357.341 144.16C358.011 145.64 358.541 146.48 358.541 146.48C358.541 146.48 359.561 144.37 360.651 141.19C361.191 139.6 361.751 137.75 362.221 135.75C362.711 133.73 363.111 131.58 363.291 129.4C363.331 128.93 363.351 128.47 363.371 128.02C363.391 127.56 363.411 127.11 363.411 126.67C363.531 127.7 363.661 128.78 363.721 129.93C363.781 131.09 363.781 132.32 363.691 133.61C363.611 134.73 363.511 135.81 363.361 136.87C363.211 137.94 363.021 138.99 362.811 140C362.381 142.03 361.841 143.93 361.361 145.53C360.371 148.74 359.411 150.87 359.411 150.87C359.411 150.87 359.191 150.54 358.841 149.93C358.491 149.32 358.011 148.43 357.521 147.3C356.601 145 355.521 141.8 355.361 137.96Z" fill="#FF790B"/>
<path d="M332.09 111C343.04 133.69 358.7 154.04 377.82 170.19L379.08 168.62C359.97 152.91 344.17 132.95 333 110.54L332.09 111Z" fill="#FF790B"/>
<path d="M392.989 32.6699C392.989 32.6699 392.639 32.2799 392.059 31.5399C391.509 30.7999 390.589 29.7699 389.599 28.4499C388.599 27.1399 387.479 25.5499 386.369 23.7499C385.319 21.9199 384.059 19.9499 382.939 17.7899C383.279 18.8299 383.659 19.8799 384.099 20.9399C385.129 23.5799 386.189 26.0599 387.429 28.2399C388.039 29.3399 388.659 30.3699 389.279 31.3299C389.849 32.3099 390.389 33.2199 390.919 34.0399C393.029 37.3499 394.789 39.3499 394.789 39.3499C394.789 39.3499 395.319 36.7799 395.439 32.6899C395.459 31.6699 395.479 30.5499 395.429 29.3599C395.319 28.1899 395.169 26.9499 394.969 25.6499C394.529 23.0599 393.969 20.2199 392.879 17.4199C392.419 16.2999 391.909 15.2199 391.389 14.1899C392.209 16.6399 392.799 19.0099 393.009 21.2599C393.269 23.4799 393.379 25.4899 393.399 27.1799C393.409 28.8699 393.389 30.2199 393.229 31.1799C393.089 32.1399 392.989 32.6699 392.989 32.6699Z" fill="#FF790B"/>
<path d="M390.66 43.56C392.49 46.52 393.81 49.33 394.66 51.39C395.11 52.42 395.34 53.27 395.51 53.86C395.67 54.45 395.76 54.78 395.76 54.78C395.76 54.78 395.13 54.55 394.07 54.07C393.01 53.59 391.52 52.88 389.68 51.94C387.87 51 385.8 49.83 383.68 48.44C381.52 47.05 379.48 45.39 377.23 43.58C376.02 42.56 374.91 41.52 373.9 40.48C375.64 42.81 378.01 45.28 380.49 47.76C382.54 49.72 384.74 51.43 386.88 52.9C389.03 54.38 390.92 55.66 392.69 56.67C396.18 58.71 398.72 59.74 398.72 59.74C398.72 59.74 398.23 57.62 397.04 54.5C396.74 53.72 396.42 52.88 396.01 52C395.57 51.13 395.08 50.21 394.53 49.27C393.44 47.42 392.15 45.46 390.66 43.56Z" fill="#FF790B"/>
<path d="M393.23 70.03C394.04 71.83 394.82 73.57 395.27 75.18C395.74 76.79 396.09 78.25 396.36 79.49C396.89 81.96 397.06 83.5 397.06 83.5C397.06 83.5 394.41 82 390.84 79.29C389.04 77.94 387.06 76.29 385 74.4C382.85 72.51 380.66 70.37 378.68 68C377.89 67.07 377.21 66.13 376.5 65.21C377.95 67.98 379.79 71.02 382.24 74.06C384.18 76.56 386.14 78.84 388.2 80.85C390.2 82.87 392.32 84.62 393.97 86.07C397.37 88.97 399.92 90.6 399.92 90.6C399.92 90.6 399.89 89.94 399.77 88.79C399.62 87.64 399.49 85.99 398.99 84.03C398.5 82.07 397.83 79.79 396.93 77.39C396.47 76.19 396.01 74.96 395.37 73.72C394.72 72.48 394.01 71.25 393.23 70.03Z" fill="#FF790B"/>
<path d="M392.1 101.15C392.65 103.33 393.16 105.45 393.37 107.36C393.57 109.27 393.67 110.99 393.71 112.44C393.8 115.34 393.66 117.12 393.66 117.12C393.66 117.12 391.07 114.89 387.71 111.17C386.02 109.31 384.18 107.09 382.31 104.6C380.33 102.09 378.37 99.3198 376.67 96.3498C375.96 95.0498 375.27 93.7798 374.59 92.5298C375.24 94.1298 375.79 95.7998 376.51 97.5298C377.23 99.2598 378.08 101.05 379.07 102.87C379.96 104.43 380.74 105.92 381.6 107.35C382.46 108.78 383.36 110.16 384.27 111.47C386.08 114.09 387.99 116.45 389.5 118.38C392.63 122.28 395.09 124.63 395.09 124.63C395.09 124.63 395.19 123.92 395.29 122.65C395.38 121.38 395.52 119.58 395.46 117.38C395.33 115.17 395.07 112.58 394.59 109.81C394.33 108.42 394.12 107.01 393.64 105.54C393.2 104.1 392.69 102.62 392.1 101.15Z" fill="#FF790B"/>
<path d="M384.18 135.04C384.22 135.7 384.26 136.35 384.31 136.99C384.33 137.63 384.3 138.24 384.28 138.85C384.24 140.07 384.17 141.24 384.07 142.36C383.89 144.6 383.63 146.61 383.35 148.28C382.61 151.55 381.93 153.53 381.93 153.53C381.93 153.53 379.68 150.39 376.99 145.48C375.53 142.98 373.93 140.04 372.42 136.84C371.66 135.24 370.96 133.59 370.24 131.86C369.47 130.11 368.74 128.32 368.1 126.49C367.49 124.75 366.99 123.07 366.57 121.44C366.8 123.22 367.13 125.11 367.58 127.09C367.8 128.08 368.05 129.1 368.34 130.13C368.49 130.65 368.64 131.17 368.79 131.7C368.93 132.22 369.06 132.74 369.2 133.26C370.23 136.99 371.61 140.62 373.06 143.96C374.36 147.24 375.77 150.26 377.06 152.83C378.35 155.4 379.55 157.53 380.4 159C381.21 160.44 381.73 161.25 381.73 161.25C381.73 161.25 381.8 161.07 381.94 160.72C382.07 160.37 382.29 159.87 382.46 159.18C382.84 157.82 383.35 155.86 383.82 153.46C384.06 152.26 384.29 150.95 384.49 149.56C384.7 148.17 384.72 146.63 384.78 145.06C384.82 143.49 384.81 141.85 384.74 140.18C384.7 139.34 384.65 138.5 384.57 137.65C384.5 136.8 384.33 135.91 384.18 135.04Z" fill="#FF790B"/>
<path d="M400.71 41.1599C400.23 44.8799 400.14 48.0799 400.16 50.3699C400.2 51.5099 400.161 52.4399 400.171 53.0699C400.181 53.7099 400.19 54.0499 400.19 54.0499C400.19 54.0499 400.73 53.6199 401.61 52.7899C402.5 51.9499 403.73 50.7099 405 49.0699C406.29 47.4299 407.71 45.3799 409.05 42.9199C410.36 40.4699 411.75 37.5799 412.5 34.3999C412.96 32.6199 413.3 30.8299 413.55 29.0499C413.37 32.7299 413.02 36.7299 411.65 40.7099C410.64 43.8699 409.35 46.6399 407.99 49.0199C406.64 51.3899 405.01 53.3999 403.66 54.9799C400.89 58.1499 398.72 59.7499 398.72 59.7499C398.72 59.7499 398.62 57.5999 398.9 54.2099C398.98 53.3599 399.081 52.4299 399.171 51.4399C399.241 50.4599 399.33 49.4099 399.46 48.3099C399.72 46.1199 400.11 43.6999 400.71 41.1599Z" fill="#FF790B"/>
<path d="M406.09 69.0799C405.52 71.1299 405.19 73.0399 404.76 74.7799C404.34 76.5199 404.03 78.0699 403.81 79.3599C403.36 81.9499 403.24 83.5399 403.24 83.5399C403.24 83.5399 405.85 82.0899 409.33 78.9499C411.06 77.3799 413.05 75.3699 414.96 72.8999C416.78 70.4399 418.58 67.4999 420.12 64.0899C420.72 62.7599 421.29 61.3999 421.73 60.0399C420.87 63.9599 419.53 68.1899 417.63 72.1699C416 75.4599 413.95 78.2699 412.01 80.6199C410.01 82.9699 408.15 84.8599 406.27 86.3399C402.6 89.2799 399.91 90.5999 399.91 90.5999C399.91 90.5999 400 89.9499 400.23 88.7999C400.43 87.6599 400.89 86.0199 401.31 84.0399C401.74 82.0599 402.34 79.7299 403.17 77.1899C403.57 75.9199 404.08 74.5999 404.54 73.2399C405 71.8899 405.51 70.4999 406.09 69.0799Z" fill="#FF790B"/>
<path d="M405.99 102.72C404.92 104.9 404.12 106.98 403.29 108.84C402.45 110.7 401.77 112.38 401.24 113.79C400.18 116.61 399.71 118.38 399.71 118.38C399.71 118.38 402.86 117.37 407.31 114.67C409.53 113.32 412.11 111.53 414.72 109.21C417.22 106.88 419.79 104.01 422.17 100.56C422.69 99.81 423.18 99.06 423.66 98.29C424.11 97.52 424.51 96.74 424.92 95.96C424.2 97.99 423.16 100.06 422.04 102.11C420.91 104.16 419.66 106.19 418.26 108.12C417.11 109.78 415.74 111.27 414.41 112.63C413.07 113.99 411.73 115.21 410.42 116.3C407.78 118.48 405.29 120.15 402.93 121.36C398.31 123.8 395.1 124.65 395.1 124.65C395.1 124.65 395.33 123.97 395.8 122.79C396.26 121.61 397.02 119.94 397.95 117.92C398.81 115.88 399.91 113.5 401.3 110.92C401.97 109.63 402.81 108.31 403.53 106.92C404.27 105.55 405.09 104.14 405.99 102.72Z" fill="#FF790B"/>
<path d="M398.79 139.98C398.38 140.54 397.97 141.1 397.57 141.64C397.15 142.18 396.74 142.71 396.33 143.23C395.53 144.27 394.78 145.28 394.09 146.24C392.71 148.17 391.56 149.92 390.64 151.41C388.59 154.3 387.54 156.16 387.54 156.16C387.54 156.16 391.33 155.91 397.06 154.09C399.81 153.13 403.03 151.76 406.48 149.79C408.19 148.8 410.01 147.68 411.76 146.37C413.46 145.04 415.19 143.54 416.89 141.86C418.51 140.27 420.03 138.58 421.47 136.85C420.08 138.88 418.56 140.92 416.92 142.91C416.1 143.9 415.24 144.88 414.35 145.83C413.9 146.3 413.45 146.77 413 147.24C412.51 147.69 412.01 148.14 411.51 148.58C407.9 151.7 404.28 154.11 400.87 155.92C397.3 157.67 393.99 158.84 391.17 159.63C388.35 160.42 386.03 160.83 384.38 161.04C382.7 161.23 381.74 161.24 381.74 161.24C381.74 161.24 381.85 161.08 382.06 160.77C382.27 160.46 382.62 160.03 382.98 159.43C383.74 158.26 384.88 156.6 386.38 154.63C387.13 153.65 387.97 152.58 388.9 151.47C389.84 150.35 390.71 149.11 391.75 147.87C392.77 146.62 393.88 145.32 395.07 144.01C395.67 143.35 396.29 142.69 396.93 142.03C397.54 141.36 398.16 140.67 398.79 139.98Z" fill="#FF790B"/>
<path d="M393.581 37.5402C399.281 59.5002 400.501 82.5902 397.631 105.08C396.071 116.3 393.651 127.42 390.051 138.15C386.371 148.84 381.721 159.17 376.121 168.95L378.491 170.39C384.091 160.38 388.721 149.84 392.351 138.95C395.901 128.03 398.231 116.74 399.701 105.36C402.391 82.5802 400.911 59.2702 394.951 37.1802L393.581 37.5402Z" fill="#FF790B"/>
<path d="M41.7205 162.92C41.7205 162.92 41.4205 162.89 40.8905 162.8C40.3805 162.7 39.5905 162.61 38.6805 162.42C36.8305 162.08 34.4905 161.31 31.9805 160.28C32.4805 160.62 33.0105 160.95 33.5605 161.26C34.9105 162.05 36.2405 162.74 37.5605 163.22C38.2105 163.47 38.8505 163.68 39.4705 163.86C40.0705 164.06 40.6305 164.25 41.1705 164.4C43.3005 165.01 44.8205 165.18 44.8205 165.18C44.8205 165.18 44.2305 163.8 42.9405 161.91C42.6105 161.44 42.2505 160.93 41.8305 160.41C41.4005 159.92 40.9105 159.41 40.3905 158.9C39.3305 157.9 38.1205 156.84 36.6805 155.99C36.0905 155.66 35.5005 155.37 34.9105 155.1C37.3305 156.65 38.9905 158.74 40.1205 160.24C40.6805 161.01 41.1005 161.64 41.3505 162.14C41.6005 162.63 41.7205 162.92 41.7205 162.92Z" fill="#FF790B"/>
<path d="M44.1807 168.78C46.0707 169.33 47.6607 170.03 48.7707 170.6C49.3307 170.87 49.7407 171.15 50.0307 171.34C50.3107 171.54 50.4607 171.64 50.4607 171.64C50.4607 171.64 50.0707 171.8 49.3807 172.03C48.6907 172.26 47.7107 172.56 46.5007 172.91C45.2907 173.25 43.8807 173.59 42.3807 173.85C40.8607 174.13 39.2907 174.26 37.6107 174.38C36.6907 174.43 35.8107 174.42 34.9707 174.38C36.5807 174.7 38.5407 174.83 40.5907 174.89C42.2507 174.9 43.9007 174.75 45.4507 174.51C47.0007 174.27 48.3807 174.04 49.6007 173.75C52.0207 173.2 53.6307 172.6 53.6307 172.6C53.6307 172.6 52.6707 171.88 51.0207 171C50.6107 170.78 50.1607 170.55 49.6607 170.33C49.1507 170.13 48.6007 169.92 48.0207 169.73C46.8407 169.34 45.5507 169 44.1807 168.78Z" fill="#FF790B"/>
<path d="M54.3902 179.33C55.4102 179.77 56.3902 180.21 57.1802 180.71C57.9702 181.21 58.6602 181.69 59.2202 182.11C60.3502 182.95 60.9702 183.54 60.9702 183.54C60.9702 183.54 59.1202 183.98 56.3902 184.29C55.0202 184.45 53.4602 184.56 51.7702 184.61C50.0502 184.68 48.2302 184.66 46.4402 184.47C45.7302 184.4 45.0702 184.28 44.4102 184.17C46.0702 184.76 48.0202 185.3 50.2702 185.6C52.1002 185.87 53.8702 186.03 55.6002 186.05C57.3002 186.09 58.9702 185.98 60.3102 185.91C63.0402 185.75 64.9002 185.4 64.9002 185.4C64.9002 185.4 64.6502 185.13 64.1802 184.69C63.7002 184.26 63.0402 183.62 62.1102 182.98C61.1802 182.34 60.0502 181.64 58.7602 180.98C58.1102 180.66 57.4502 180.32 56.7102 180.05C55.9702 179.77 55.1902 179.53 54.3902 179.33Z" fill="#FF790B"/>
<path d="M64.7396 193.02C65.8096 193.71 66.8196 194.4 67.6196 195.11C68.4196 195.82 69.0996 196.5 69.6496 197.09C70.7496 198.26 71.3396 199.06 71.3396 199.06C71.3396 199.06 69.2096 199.17 66.1596 198.98C64.6296 198.89 62.8896 198.71 61.0396 198.44C59.1396 198.19 57.1596 197.83 55.2496 197.29C54.8396 197.17 54.4296 197.05 54.0396 196.92C53.6396 196.79 53.2396 196.67 52.8496 196.55C53.7296 196.96 54.6096 197.43 55.5896 197.85C56.5696 198.28 57.6396 198.68 58.7896 199.04C59.7896 199.33 60.7296 199.63 61.6896 199.88C62.6496 200.13 63.5996 200.33 64.5396 200.51C66.4096 200.87 68.2296 201.08 69.7196 201.28C72.7496 201.64 74.8696 201.63 74.8696 201.63C74.8696 201.63 74.0196 200.28 72.3596 198.48C70.5696 196.73 68.1196 194.49 64.7396 193.02Z" fill="#FF790B"/>
<path d="M73.2895 210.21C74.4295 211.2 75.2595 212.27 76.0495 213.25C76.8195 214.24 77.4695 215.16 77.9795 215.96C78.8995 217.58 79.3395 218.65 79.3395 218.65C79.3395 218.65 76.9795 218.24 73.6995 217.3C71.9995 216.85 70.0595 216.28 68.0695 215.57C67.0695 215.22 66.0795 214.83 65.0595 214.41C64.0095 214 62.9695 213.56 61.9495 213.07C60.9895 212.61 60.0995 212.12 59.2695 211.63C60.0595 212.26 60.9395 212.89 61.9095 213.52C62.3995 213.83 62.9095 214.15 63.4395 214.45C63.9795 214.75 64.5295 215.06 65.0595 215.38C67.0095 216.49 69.1095 217.41 71.1295 218.21C73.0695 219.03 74.9595 219.71 76.6195 220.26C78.2795 220.81 79.7195 221.21 80.7195 221.48C81.6995 221.76 82.2795 221.88 82.2795 221.88C82.2795 221.88 82.2395 221.78 82.1695 221.58C82.0895 221.39 81.9995 221.1 81.8195 220.75C81.4695 220.04 80.9495 219.05 80.2395 217.88C79.8895 217.3 79.4895 216.67 79.0395 216.03C78.5995 215.38 78.0195 214.74 77.4395 214.07C76.8495 213.41 76.2095 212.74 75.5295 212.09C74.8595 211.44 74.1295 210.8 73.2895 210.21Z" fill="#FF790B"/>
<path d="M48.3301 163.54C49.3401 165.39 50.3701 166.86 51.1501 167.87C51.5501 168.36 51.8501 168.79 52.0701 169.06C52.2901 169.33 52.4101 169.48 52.4101 169.48C52.4101 169.48 52.5301 169.07 52.6901 168.34C52.8501 167.6 53.0301 166.55 53.1101 165.29C53.2001 164.02 53.2101 162.52 53.0401 160.87C52.8601 159.23 52.5601 157.38 51.8801 155.61C51.5101 154.62 51.0801 153.66 50.6101 152.75C51.7501 154.49 52.9101 156.46 53.5801 158.8C54.1401 160.63 54.4401 162.4 54.5701 164.03C54.7001 165.65 54.5801 167.2 54.4501 168.46C54.1601 171 53.6201 172.6 53.6201 172.6C53.6201 172.6 52.8401 171.7 51.8301 170.09C51.5801 169.68 51.3201 169.24 51.0301 168.76C50.7301 168.3 50.4301 167.79 50.1201 167.25C49.5001 166.16 48.8901 164.92 48.3301 163.54Z" fill="#FF790B"/>
<path d="M60.4805 173.61C60.9005 174.73 61.3905 175.71 61.7805 176.63C62.1805 177.55 62.5605 178.34 62.9005 178.99C63.5805 180.29 64.0705 181.02 64.0705 181.02C64.0705 181.02 64.8705 179.33 65.5105 176.55C65.8305 175.16 66.1205 173.48 66.2105 171.63C66.2705 169.81 66.1505 167.78 65.7305 165.66C65.5605 164.83 65.3805 164 65.1305 163.22C66.0605 165.3 66.8605 167.69 67.2905 170.21C67.6205 172.31 67.5905 174.36 67.4405 176.17C67.2705 178 66.9905 179.59 66.5705 180.98C65.7805 183.73 64.8905 185.39 64.8905 185.39C64.8905 185.39 64.7005 185.08 64.4105 184.5C64.1105 183.93 63.7505 183.06 63.2705 182.03C62.8005 181 62.2805 179.76 61.8105 178.33C61.5705 177.62 61.3605 176.84 61.1205 176.06C60.9005 175.28 60.6805 174.47 60.4805 173.61Z" fill="#FF790B"/>
<path d="M72.3008 188.05C72.5508 189.4 72.8908 190.61 73.1508 191.72C73.4108 192.84 73.6808 193.81 73.9408 194.62C74.4408 196.23 74.8508 197.15 74.8508 197.15C74.8508 197.15 76.0708 195.46 77.3208 192.54C77.9408 191.08 78.5808 189.29 79.0508 187.26C79.4608 185.26 79.7208 183 79.6608 180.56C79.6508 180.03 79.6208 179.51 79.5808 178.99C79.5308 178.48 79.4608 177.98 79.3808 177.48C79.7408 178.65 79.9708 179.95 80.1508 181.28C80.3308 182.61 80.4308 183.98 80.4308 185.37C80.4508 186.54 80.3108 187.72 80.1408 188.83C79.9708 189.94 79.7408 190.99 79.4808 191.98C78.9508 193.96 78.3008 195.66 77.5708 197.11C76.1608 199.97 74.8508 201.6 74.8508 201.6C74.8508 201.6 74.3108 200.11 73.7808 197.67C73.1308 195.29 72.6208 191.86 72.3008 188.05Z" fill="#FF790B"/>
<path d="M82.5309 206.47C82.5709 208.05 82.5109 209.58 82.5809 210.91C82.6309 212.25 82.7409 213.42 82.8509 214.39C82.9709 216.37 83.1709 217.55 83.1709 217.55C83.1709 217.55 84.9609 215.97 87.1109 212.98C88.1209 211.5 89.2009 209.67 90.1709 207.49C90.6509 206.41 91.1209 205.23 91.4909 203.98C91.8409 202.75 92.1309 201.44 92.3509 200.07C92.5509 198.76 92.6809 197.45 92.7409 196.16C92.8209 197.56 92.8309 199.02 92.7609 200.5C92.7209 201.24 92.6709 201.99 92.5909 202.74C92.5209 203.48 92.4009 204.24 92.2209 205.01C91.6309 207.73 90.7409 210.15 89.7309 212.24C88.6409 214.36 87.4509 216.13 86.3509 217.56C85.2509 218.98 84.2509 220.05 83.5109 220.78C82.7509 221.51 82.2809 221.89 82.2809 221.89C82.2809 221.89 82.2409 221.45 82.1809 220.67C82.1009 219.89 82.0109 218.77 81.9909 217.38C81.9809 216.68 81.9809 215.92 82.0009 215.1C82.0309 214.28 81.9909 213.42 82.0309 212.5C82.0609 211.58 82.1109 210.62 82.2009 209.61C82.3109 208.59 82.4209 207.55 82.5309 206.47Z" fill="#FF790B"/>
<path d="M43.6211 164.86C63.6811 179.93 78.0811 202.52 82.5911 227.18L84.3511 226.85C79.4711 201.77 64.5911 179.09 44.1711 164.12L43.6211 164.86Z" fill="#FF790B"/>
<path d="M322.37 198.59C293.61 182.15 258.53 172.49 220.66 172.49C165.06 172.49 115.47 193.32 83.08 225.86C78.93 225.29 74.66 224.98 70.31 224.98C38.28 224.97 10.92 241.16 0 264H140.61H385.5H448V153.97C447.16 153.96 446.33 153.95 445.49 153.95C398.09 153.95 354.91 170.85 322.37 198.59Z" fill="#46B755"/>
</svg>
