<svg width="112" height="112" viewBox="0 0 112 112" fill="none" xmlns="http://www.w3.org/2000/svg">
<path d="M112 56C112 86.9276 86.9276 112 56 112C25.0724 112 0 86.9276 0 56C0 25.0724 25.0724 0 56 0C86.9276 0 112 25.0724 112 56Z" fill="#FFCC4D"/>
<path d="M55.9991 93.3338C62.872 93.3338 68.4436 86.3693 68.4436 77.7782C68.4436 69.1871 62.872 62.2227 55.9991 62.2227C49.1263 62.2227 43.5547 69.1871 43.5547 77.7782C43.5547 86.3693 49.1263 93.3338 55.9991 93.3338Z" fill="#664500"/>
<path d="M37.3325 52.8891C41.628 52.8891 45.1102 48.014 45.1102 42.0002C45.1102 35.9864 41.628 31.1113 37.3325 31.1113C33.0369 31.1113 29.5547 35.9864 29.5547 42.0002C29.5547 48.014 33.0369 52.8891 37.3325 52.8891Z" fill="#664500"/>
<path d="M74.6645 52.8891C78.96 52.8891 82.4423 48.014 82.4423 42.0002C82.4423 35.9864 78.96 31.1113 74.6645 31.1113C70.3689 31.1113 66.8867 35.9864 66.8867 42.0002C66.8867 48.014 70.3689 52.8891 74.6645 52.8891Z" fill="#664500"/>
</svg>
