<svg width="448" height="264" viewBox="0 0 448 264" fill="none" xmlns="http://www.w3.org/2000/svg">
<path d="M149.05 123.02C166.08 118.72 176.76 113.25 174.61 108.31C172.63 103.83 160.47 100.83 144.26 100.78C167.13 92.86 182.36 83.29 178.18 77.03C175.68 73.26 166.43 71.57 154.32 72.57C154.9 72.04 155.48 71.51 156.07 70.97C160 67.3 163.51 63.66 166.32 60.12C169.23 56.62 171.48 53.23 173.04 50.12C176.27 43.97 176.59 38.82 173.38 36.16C171.17 34.34 167.49 33.87 162.97 34.7C158.47 35.53 153.06 37.62 147.39 40.87C149.32 36.19 150.81 31.6 151.87 27.27C152.98 22.97 153.59 18.89 153.78 15.28C154.21 8.09001 152.7 2.59001 149.08 0.520009C145.26 -1.11999 140.02 1.08001 134.51 6.14001C131.79 8.68001 129.06 11.96 126.41 15.78C123.81 19.63 121.36 24.06 119.19 28.91C117.71 22.36 115.76 16.7 113.41 12.55C111.08 8.41001 108.45 5.83001 105.55 5.45001C101.3 4.87001 97.52 9.25001 94.78 16.71C93.47 20.46 92.46 24.98 91.82 30.02C91.28 35.09 91.04 40.66 91.41 46.52C91.48 47.38 91.54 48.24 91.61 49.09C83.26 39.83 75.58 34.42 70.94 36.04C67.21 37.37 66.27 43.16 67.98 51.29C68.87 55.36 70.4 60.01 72.54 64.95C74.74 69.91 77.56 75.17 80.94 80.46C67.97 70.56 57.83 66.82 53.31 70.07C50.3 72.21 49.7 76.13 53.29 83.2C48.65 84.82 42.5 88.58 38.84 93.05C48.58 79.94 49.52 72.37 45.23 69.91C41.93 68.02 37.85 67.75 29.74 75.6C33.55 67.68 35.92 60.15 36.65 54.39C37.31 48.6 36.13 44.29 33.4 43.45C30.01 42.37 25.2 46.8 20.18 53.9C20.15 53.27 20.12 52.64 20.1 52.01C19.63 43.38 17.36 35.17 14.11 29.32C13.3 27.86 12.48 26.56 11.59 25.43C10.71 24.31 9.86 23.37 8.96 22.64C7.2 21.18 5.54 20.58 4.08 20.99C2.09 21.55 0.89 23.88 0.1 27.3C0.07 27.48 0.04 27.68 0 27.86V129.25L149.05 123.02Z" fill="#46B755"/>
<path d="M415.59 181.07C416.31 179.84 415.47 178.56 413.78 177.37C412.94 176.77 411.88 176.2 410.71 175.65C410.12 175.38 409.51 175.11 408.87 174.85C408.23 174.59 407.57 174.33 406.9 174.09C411.35 174.87 416.54 174.4 420.76 172.96C424.98 171.55 428.27 169.3 429.02 167.2C429.43 166.08 428.57 164.66 427 163.54C425.44 162.42 423.2 161.59 420.9 161.59C421.99 161.53 423.08 161.41 424.14 161.26C424.67 161.18 425.2 161.1 425.72 160.99C426.23 160.88 426.74 160.77 427.23 160.64C428.22 160.39 429.19 160.11 430.1 159.78C431 159.45 431.85 159.09 432.64 158.7C433.04 158.51 433.42 158.31 433.78 158.11C434.14 157.9 434.48 157.69 434.8 157.48C435.45 157.05 436.02 156.61 436.51 156.16C437.49 155.27 438.09 154.33 438.29 153.48C438.59 152.16 437.82 151.15 436.3 150.5C434.79 149.84 432.49 149.5 429.77 149.43C434.62 147.48 438.98 144.57 441.94 141.65C442.7 140.93 443.33 140.2 443.91 139.5C444.48 138.8 444.97 138.13 445.32 137.48C446.05 136.19 446.41 135.08 446.26 134.23C446.08 133.2 445.24 132.71 443.91 132.69C443.24 132.68 442.47 132.78 441.57 132.97C440.67 133.16 439.68 133.45 438.61 133.81C438.88 133.47 439.15 133.13 439.43 132.79C443.12 128.06 445.66 122.9 446.95 118.76C447.26 117.72 447.51 116.75 447.69 115.86C447.85 114.97 447.94 114.16 447.96 113.46C448.02 112.06 447.75 111.06 447.22 110.62C446.48 110.01 445.34 110.49 443.92 111.73C443.2 112.35 442.41 113.16 441.58 114.13C440.72 115.09 439.82 116.2 438.86 117.43C440.36 112.03 440.73 106.94 440.4 103.24C440.31 102.31 440.18 101.47 440.03 100.73C439.87 99.99 439.66 99.34 439.44 98.81C438.99 97.74 438.46 97.12 437.84 97.01C437.21 97.03 436.57 97.56 435.95 98.49C435.63 98.96 435.34 99.52 435.02 100.18C434.7 100.83 434.38 101.57 434.07 102.38C432.79 105.63 431.48 110.04 430.04 114.91C429.82 113.49 429.53 112.21 429.2 111.11C428.84 110 428.45 109.06 428.04 108.32C427.19 106.83 426.24 106.11 425.37 106.3C424.72 106.44 424.18 107.06 423.67 108.04C423.42 108.53 423.2 109.11 423 109.78C422.78 110.44 422.58 111.18 422.4 111.99C421.65 115.23 421.09 119.59 420.5 124.44C420.46 124.8 420.42 125.15 420.38 125.51C419.89 124.59 419.38 123.8 418.87 123.13C418.36 122.46 417.83 121.92 417.33 121.51C416.33 120.7 415.39 120.42 414.65 120.77C414.05 121.06 413.57 121.72 413.29 122.71C413.15 123.21 413.02 123.77 412.94 124.41C412.85 125.04 412.82 125.77 412.78 126.53C412.68 129.61 412.91 133.67 413.34 138.22C412.1 135.93 410.73 134.23 409.46 133.18C408.82 132.66 408.22 132.3 407.66 132.13C407.1 131.96 406.59 131.96 406.16 132.17C405.58 132.44 405.21 133.05 404.94 133.9C404.8 134.32 404.71 134.82 404.64 135.37C404.61 135.65 404.59 135.94 404.57 136.25C404.55 136.55 404.53 136.87 404.52 137.2C404.5 137.86 404.52 138.58 404.56 139.36C404.59 140.13 404.64 140.93 404.72 141.79C404.76 142.22 404.8 142.66 404.85 143.11C404.9 143.56 404.95 144.01 405 144.47C405.11 145.39 405.24 146.36 405.39 147.35C404.95 145.25 403.68 143.33 402.33 141.97C400.97 140.62 399.55 139.83 398.75 140.07C397.26 140.54 396.22 142.84 395.52 146.09C394.83 149.35 394.34 153.51 394.38 157.68C394.26 157.02 394.13 156.37 393.97 155.74C393.81 155.1 393.63 154.48 393.44 153.89C393.05 152.71 392.61 151.64 392.13 150.75C391.18 148.97 390.11 147.88 389.13 148.01C388.79 148.06 388.47 148.24 388.17 148.53C387.86 148.81 387.57 149.21 387.3 149.7C386.77 150.71 386.26 152.06 385.81 153.74C384.89 157.04 383.99 161.45 383.26 165.99C382.6 170.12 382.19 173.92 382.31 176.88C384.44 178.88 387.76 180.98 392.07 182.47C393.25 182.89 394.46 183.21 395.69 183.51C396.31 183.65 396.93 183.79 397.56 183.9C398.18 184.01 398.8 184.1 399.42 184.18C401.92 184.52 404.36 184.56 406.6 184.41C408.81 184.21 410.84 183.84 412.39 183.24C413.17 182.95 413.85 182.62 414.39 182.25C414.93 181.91 415.34 181.5 415.59 181.07Z" fill="#46B755"/>
<path d="M-9.76585e-06 264H447.93C445.18 175.39 304.68 103.98 131.74 103.98C84.72 103.98 40.1 109.27 -0.0100098 118.74V264H-9.76585e-06Z" fill="#389444"/>
</svg>
