<svg width="448" height="264" viewBox="0 0 448 264" fill="none" xmlns="http://www.w3.org/2000/svg">
<path d="M363.63 114.09C364.06 113.75 364.48 113.42 364.9 113.09C365.33 112.77 365.78 112.48 366.21 112.17C367.05 111.54 367.97 111.04 368.81 110.48C370.56 109.46 372.23 108.53 373.8 107.75C380.01 104.57 386.14 101.72 390.63 99.3701C392.88 98.2201 394.71 97.2101 395.97 96.4801C397.23 95.7501 397.92 95.3101 397.92 95.3101C397.92 95.3101 397.11 95.2201 395.65 95.1301C394.19 95.0501 392.1 94.9801 389.51 95.0701C386.93 95.1701 383.86 95.4401 380.47 96.1301C377.09 96.8201 373.39 97.9601 369.72 99.8401C367.88 100.76 365.94 102.01 363.98 103.47C363.03 104.26 362.02 105 361.1 105.92C360.63 106.37 360.16 106.8 359.7 107.27C359.26 107.75 358.82 108.24 358.37 108.73C357.91 109.25 357.47 109.79 357.04 110.34C361.25 95.6401 367.88 81.7601 376.66 69.7701L375.23 68.3701C365.93 80.0701 358.64 93.8401 353.75 108.69C354.21 88.7201 356.27 68.7501 359.95 49.0401L357.65 48.5601C351.64 74.8801 348.48 101.91 348.25 129.03L349.49 129.06L351.75 129.12L353.06 129.16L353.86 129.18C353.83 128.17 353.81 127.17 353.78 126.16C354.16 125.44 354.56 124.71 355 123.99C357.21 120.33 360.24 116.78 363.63 114.09Z" fill="#46B755"/>
<path d="M114.07 122.85C117.87 120.88 121.48 118.61 123.94 116.37C127.94 112.78 130.29 108.23 131.56 104.67C132.2 102.88 132.58 101.34 132.79 100.23C133.01 99.1301 133.08 98.48 133.08 98.48C133.08 98.48 132.43 98.6 131.36 98.9C130.29 99.2001 128.78 99.65 127.06 100.31C125.81 100.79 124.45 101.37 123.04 102.07C126.58 97.54 129.55 92.8101 131.42 88.62C131.95 87.5601 132.34 86.4501 132.74 85.37C133.13 84.2801 133.52 83.22 133.84 82.15C134.4 79.98 134.96 77.9 135.25 75.86C135.9 71.8 136 68.07 135.84 64.96C135.73 63.4 135.59 61.9901 135.45 60.7701C135.27 59.5401 135.04 58.48 134.87 57.6301C134.5 55.9201 134.23 54.98 134.23 54.98C134.23 54.98 133.72 55.84 132.93 57.37C132.55 58.13 132.08 59.0601 131.54 60.1301C130.97 61.1901 130.35 62.39 129.71 63.7001C127.02 68.9601 123.54 75.84 120.03 83.43C118.66 86.5 117.05 90.1 115.24 93.89C116.24 86.65 115.35 79.95 114.14 75.14C113.79 73.79 113.43 72.59 113.09 71.53C112.73 70.48 112.37 69.58 112.07 68.85C111.47 67.39 111.07 66.6 111.07 66.6C111.07 66.6 110.69 67.4201 110.11 68.87C109.82 69.59 109.5 70.48 109.12 71.49C108.73 72.5 108.3 73.65 107.88 74.9C107.04 77.29 106.12 80.05 105.24 83.07C107.91 57.53 106.13 31.59 99.82 6.81005L97.23 7.43005C104.3 38.6301 104.08 71.3 97.03 102.31C96.87 101.3 96.64 100.33 96.35 99.43C96.3 96.26 96.24 93.29 96.09 90.73C95.64 83.76 94.29 77.41 93.05 72.6C92.75 71.4 92.45 70.31 92.16 69.34C91.88 68.37 91.64 67.5301 91.42 66.8301C90.98 65.4401 90.68 64.6501 90.68 64.6501C90.68 64.6501 90.21 65.34 89.48 66.6101C89.12 67.25 88.67 68.04 88.22 68.96C87.78 69.89 87.3 70.96 86.81 72.15C84.91 76.91 83.1 83.84 83.6 91.49C83.79 94.87 84.5 98.86 85.55 102.96C85.2 103.9 84.89 104.87 84.66 105.87C84.27 107.7 84.01 109.99 83.74 112.47C83.6 113.82 83.41 115.2 83.2 116.58C82.06 88.8 83.66 60.8601 88.02 33.2901L85.4 32.82C80.77 56.03 78.08 79.66 77.36 103.4C76.52 101.8 75.67 100.33 74.87 99.02C74.71 98.75 74.55 98.5 74.39 98.24C75.05 96.7 75.59 95.2 75.99 93.78C76.53 91.96 76.84 90.12 77.09 88.35C77.24 86.56 77.39 84.84 77.3 83.18C77.2 79.87 76.65 76.9 75.97 74.48C75.61 73.26 75.24 72.18 74.89 71.25C74.52 70.31 74.13 69.52 73.82 68.88C73.19 67.6 72.77 66.92 72.77 66.92C72.77 66.92 72.4 67.66 71.86 68.95C71.6 69.59 71.29 70.37 70.92 71.26C70.53 72.15 70.12 73.15 69.7 74.23C67.94 78.59 65.75 84.16 63.93 90.31C63.06 93.41 62.07 97.21 60.88 101.2C60.14 103.71 59.24 106.25 58.27 108.72C61.39 73.3501 68.06 38.23 78.2 4.10005L75.66 3.30005C68.86 24.11 63.34 45.37 59.14 66.89C58.88 61.17 58.23 56.01 57.53 51.85C57.01 48.7 56.45 46.1301 56.03 44.34C55.61 42.55 55.31 41.5601 55.31 41.5601C55.31 41.5601 54.83 42.48 54.08 44.16C53.32 45.84 52.32 48.2901 51.28 51.34C49.21 57.44 47.04 66.02 46.67 75.63C46.54 78.74 46.6 82.28 46.79 86.04C45.57 89.58 44.18 93.98 43.18 98.83C41.51 70.37 41.41 41.8 42.89 13.28L40.23 13.1C37.89 41.55 37.14 70.16 37.95 98.75C37.86 98.34 37.77 97.92 37.68 97.53C36.12 90.93 34.38 84.84 32.89 79.86C32.83 77.13 32.63 74.62 32.35 72.43C31.98 69.55 31.52 67.21 31.12 65.59C30.74 63.97 30.46 63.0801 30.46 63.0801C30.46 63.0801 29.96 63.88 29.18 65.34C28.41 66.8 27.33 68.91 26.15 71.51C23.79 76.72 21.02 83.87 19.28 91.99C18.27 96.85 17.37 103.08 16.51 109.42C14.28 80.58 17.03 51.2701 24.8 23.25L22.24 22.5C14.48 47.5301 10.69 73.83 10.93 100.16C9.52 95.54 8.21 91.18 6.97 87.44C5.22 82.1001 3.3 77.1001 1.44 72.55C0.95 71.37 0.47 70.24 0 69.14V122.35C0.17 122.51 0.33 122.68 0.49 122.85H114.07ZM97.3 121.68C97.29 121.55 97.28 121.4 97.27 121.27H97.4C97.4 121.29 97.39 121.31 97.39 121.33C97.36 121.44 97.33 121.56 97.3 121.68Z" fill="#46B755"/>
<path d="M351.251 57.4C350.961 59.06 350.841 60.68 350.881 62.17C350.931 63.66 351.151 65.03 351.491 66.2C352.171 68.54 353.421 70.09 355.001 70.32C356.581 70.55 358.191 69.43 359.571 67.47C360.261 66.49 360.871 65.29 361.391 63.94C361.921 62.59 362.351 61.08 362.631 59.47C363.791 53.04 362.391 47.31 359.261 46.63C356.161 45.92 352.461 50.73 351.251 57.4Z" fill="#6A5C3E"/>
<path d="M367.351 72.8002C366.541 74.0702 365.881 75.3602 365.371 76.6102C364.901 77.8802 364.601 79.1102 364.451 80.2102C364.151 82.4102 364.611 84.1602 365.691 84.9202C366.791 85.6802 368.301 85.3202 369.941 84.2702C370.761 83.7402 371.581 83.0102 372.391 82.1302C373.231 81.2702 374.041 80.2502 374.781 79.0902C375.521 77.9302 376.191 76.8002 376.681 75.6402C377.161 74.4802 377.551 73.3902 377.781 72.3602C378.231 70.3002 378.061 68.5102 377.101 67.5402C376.151 66.5702 374.581 66.6202 372.781 67.5502C371.881 68.0102 370.921 68.6802 370.011 69.5902C369.111 70.4802 368.161 71.5402 367.351 72.8002Z" fill="#6A5C3E"/>
<path d="M362.68 114.87C363.1 114.43 363.57 114.03 364 113.64C364.44 113.25 364.84 112.84 365.28 112.5C370.5 108.02 376.18 104.59 380.46 102.06C382.62 100.8 384.39 99.7601 385.62 99.0501C386.86 98.3401 387.54 97.9001 387.54 97.9001C387.54 97.9001 386.74 97.8901 385.29 97.9401C383.85 98.0101 381.77 98.1601 379.21 98.5801C376.66 99.0001 373.62 99.7201 370.36 101C367.11 102.28 363.62 104.17 360.45 106.89C359.93 107.3 359.44 107.8 358.93 108.3C358.42 108.8 357.89 109.3 357.4 109.88C361.05 105.32 365.71 101.86 369.71 99.8401C373.37 97.9601 377.08 96.8201 380.46 96.1301C383.84 95.4401 386.92 95.1701 389.5 95.0701C392.08 94.9801 394.18 95.0501 395.64 95.1301C397.1 95.2201 397.91 95.3101 397.91 95.3101C397.91 95.3101 397.22 95.7601 395.96 96.4801C394.7 97.2101 392.87 98.2201 390.62 99.3701C386.13 101.72 380 104.56 373.79 107.75C370.38 109.47 366.32 111.75 362.68 114.87Z" fill="#389444"/>
<path d="M65.9603 17.69C65.2203 20.41 64.6903 23.06 64.3703 25.5C64.0803 27.95 64.0203 30.2 64.1403 32.13C64.3703 35.99 65.4803 38.58 67.2303 39C69.0003 39.42 71.0703 37.6 73.1303 34.38C74.1503 32.77 75.1303 30.8 76.0503 28.57C77.0003 26.35 77.8603 23.87 78.5803 21.21C81.5403 10.63 81.5003 1.24002 78.0403 0.110016C74.6303 -1.00998 69.0103 6.80002 65.9603 17.69Z" fill="#6A5C3E"/>
<path d="M34.1598 27.8C33.6698 38.04 36.4398 46.41 40.0498 46.48C43.6698 46.55 46.7598 38.46 47.2498 28.42C47.7298 18.38 45.4198 10.03 41.7898 9.76C38.1998 9.49 34.6598 17.56 34.1598 27.8Z" fill="#6A5C3E"/>
<path d="M95.3101 24.41C95.6901 27.11 96.2401 29.66 96.9001 31.97C97.4801 34.29 98.1501 36.37 98.9201 38.12C100.5 41.6 102.17 43.77 103.99 43.66C105.78 43.55 107.37 41.15 108.14 37.29C108.54 35.36 108.82 33.06 108.88 30.53C108.86 28.01 108.65 25.24 108.24 22.36C107.82 19.49 107.05 16.81 106.28 14.4C105.87 13.2 105.49 12.06 105 11.03C104.51 10 104.02 9.05 103.51 8.19C101.49 4.78 99.3701 2.95 97.6201 3.41C95.8701 3.87 94.8001 6.49 94.4801 10.26C94.4001 11.2 94.3601 12.22 94.3801 13.3C94.3901 14.38 94.3701 15.53 94.4301 16.73C94.5301 19.14 94.9201 21.71 95.3101 24.41Z" fill="#6A5C3E"/>
<path d="M78.3794 43.03C78.0994 44.92 78.0194 46.76 78.1094 48.44C78.2194 50.13 78.4994 51.67 78.9294 52.98C79.7694 55.61 81.2394 57.33 83.0294 57.54C84.8294 57.75 86.6094 56.43 88.1194 54.16C88.8694 53.02 89.5294 51.65 90.0694 50.1C90.6294 48.55 91.0694 46.83 91.3394 45C92.4594 37.68 90.6894 31.24 87.1294 30.55C83.5794 29.88 79.5394 35.45 78.3794 43.03Z" fill="#6A5C3E"/>
<path d="M46.7996 86.0201C46.6096 82.2801 46.5396 78.7301 46.6696 75.6401C47.0396 66.0401 49.2096 57.4601 51.2796 51.3501C52.3196 48.2901 53.3196 45.8501 54.0796 44.1701C54.8296 42.4901 55.3096 41.5701 55.3096 41.5701C55.3096 41.5701 55.6096 42.5701 56.0296 44.3501C56.4396 46.1301 56.9996 48.7101 57.5296 51.8601C58.5896 58.1701 59.5596 66.7501 59.1996 76.1301C58.9896 81.2601 58.3596 87.6001 57.6196 94.1201C57.6896 92.4301 57.7396 90.8101 57.7796 89.3001C57.9296 79.8901 57.0096 71.3301 56.0796 65.0601C55.1496 58.8001 54.1596 54.8501 54.1596 54.8501C54.1596 54.8501 52.5496 58.5801 50.8796 64.7501C49.5296 69.7301 48.1696 76.3401 47.6096 83.7501C47.6896 83.5301 47.7796 83.2901 47.8596 83.0801C48.1696 82.2301 48.4496 81.4901 48.6696 80.8701C49.1396 79.6401 49.4696 78.9301 49.4696 78.9301C49.4696 78.9301 49.9196 79.5401 50.6196 80.6801C50.9596 81.2501 51.3896 81.9601 51.8196 82.8001C52.2296 83.6401 52.6696 84.6101 53.1096 85.7001C54.8096 90.0301 56.2496 96.5001 55.0696 103.41C54.4796 107.18 52.9496 111.7 50.8596 116.05C51.3096 114.89 51.6796 113.77 51.9496 112.7C53.7896 106.02 53.3696 99.5801 52.3696 95.1301C51.8796 92.8901 51.2796 91.1101 50.8196 89.9101C50.3296 88.7201 49.9996 88.0601 49.9996 88.0601C49.9996 88.0601 49.6796 88.7201 49.1896 89.9001C48.6696 91.0701 47.9696 92.7501 47.1696 94.7601C45.5796 98.8101 43.5096 104.09 41.8996 109.96C41.6596 110.91 41.3896 111.92 41.0996 112.99C41.7296 108.74 42.1896 104.67 42.6996 101.41C43.6996 95.5301 45.3696 90.1801 46.7996 86.0201Z" fill="#389444"/>
<path d="M75.8506 106.98C73.7206 103.64 72.0706 101.48 72.0706 101.48C72.0706 101.48 71.1406 104.04 70.7906 108.2C70.4506 112.09 70.7706 117.45 72.8006 122.85H72.1906C71.5606 121.71 70.9906 120.57 70.5006 119.46C70.4306 120.15 70.3506 120.84 70.2306 121.54C70.1606 121.96 70.0806 122.4 69.9906 122.84H68.3406C68.5006 119.2 68.1206 115.87 67.5406 113.25C67.0506 111.01 66.4506 109.23 65.9906 108.03C65.5006 106.82 65.1706 106.17 65.1706 106.17C65.1706 106.17 64.8506 106.83 64.3606 108.01C63.8406 109.18 63.1406 110.86 62.3406 112.87C61.2406 115.67 59.9106 119.08 58.6606 122.85H57.3906C57.5506 121.67 57.7106 120.55 57.8706 119.52C58.8806 113.6 60.5606 108.22 62.0106 104.04C62.3506 103 62.7006 102.05 63.0306 101.2C63.3406 100.35 63.6206 99.6099 63.8406 98.9899C64.3106 97.7599 64.6406 97.0499 64.6406 97.0499C64.6406 97.0499 65.0906 97.6599 65.7906 98.7999C66.1306 99.3699 66.5606 100.08 66.9906 100.92C67.3306 101.63 67.7006 102.45 68.0706 103.34C68.2206 102.11 68.4206 100.97 68.6606 99.9399C68.9106 98.8899 69.1806 97.9599 69.4406 97.1399C69.7106 96.3199 70.0006 95.6199 70.2306 95.0499C70.7106 93.9099 71.0406 93.2899 71.0406 93.2899C71.0406 93.2899 71.4906 93.8599 72.1806 94.8599C72.5306 95.3599 72.9206 95.9699 73.3706 96.6699C73.4206 96.7399 73.4706 96.8199 73.5206 96.8899C74.5806 92.2699 74.6906 87.9399 74.3506 84.5999C74.2806 83.3799 74.0406 82.2599 73.8806 81.2999C73.6906 80.3299 73.5506 79.5099 73.3406 78.8399C72.9606 77.4999 72.6906 76.7699 72.6906 76.7699C72.6906 76.7699 72.3106 77.4599 71.7206 78.6799C71.4406 79.2899 71.0206 80.0199 70.6106 80.8699C70.1706 81.7099 69.7706 82.6799 69.2206 83.6999C67.1906 87.8799 64.4406 93.2699 61.8506 99.2399C61.6506 99.7299 61.4406 100.23 61.2306 100.74C61.0006 101.25 60.7706 101.78 60.5306 102.32C61.9106 97.9399 63.0006 93.7099 63.9406 90.3099C65.7606 84.1599 67.9506 78.5899 69.7106 74.2299C70.1206 73.1499 70.5406 72.1499 70.9306 71.2599C71.2906 70.3699 71.6106 69.5899 71.8706 68.9499C72.4106 67.6599 72.7806 66.9199 72.7806 66.9199C72.7806 66.9199 73.2006 67.5999 73.8306 68.8799C74.1406 69.5199 74.5306 70.3099 74.9006 71.2499C75.2506 72.1899 75.6106 73.2699 75.9806 74.4799C76.6606 76.8999 77.2106 79.8699 77.3106 83.1799C77.3906 84.8399 77.2506 86.5599 77.1006 88.3499C76.8406 90.1199 76.5406 91.9599 76.0006 93.7799C75.6106 95.1999 75.0606 96.6999 74.4006 98.2399C74.5606 98.4999 74.7106 98.7399 74.8706 99.0199C76.9806 102.49 79.4606 107.03 81.1406 112.23C82.0306 115.1 82.9106 118.72 83.8906 122.52C83.5206 121.59 83.1706 120.7 82.8406 119.88C80.6606 114.77 77.9806 110.34 75.8506 106.98Z" fill="#389444"/>
<path d="M83.6201 113.17C83.8201 112.51 84.0201 111.88 84.2001 111.29C85.4301 107.68 87.3801 104.55 89.0001 102.06C90.6201 99.6002 91.9501 97.9002 91.9501 97.9002C91.9501 97.9002 93.2301 99.6502 94.1601 102.72C95.1101 105.76 95.5701 110.22 94.0601 114.65C93.8301 115.36 93.5201 116.1 93.1601 116.86C94.9501 114.1 96.3201 111.12 96.8601 108.59C97.6101 105.28 97.1801 102.07 96.3401 99.4302C96.2801 96.2602 96.2201 93.2901 96.0801 90.7402C95.6301 83.7702 94.2801 77.4202 93.0401 72.6102C92.7401 71.4102 92.4401 70.3202 92.1501 69.3502C91.8701 68.3802 91.6301 67.5401 91.4101 66.8401C90.9701 65.4501 90.6701 64.6602 90.6701 64.6602C90.6701 64.6602 90.2001 65.3402 89.4701 66.6202C89.1101 67.2602 88.6601 68.0502 88.2101 68.9702C87.7701 69.9002 87.2901 70.9702 86.8001 72.1602C84.9001 76.9202 83.0901 83.8502 83.5901 91.5002C83.7801 94.8802 84.4901 98.8702 85.5401 102.96C85.1801 103.9 84.8701 104.88 84.6401 105.89C84.2001 107.88 83.9401 110.43 83.6201 113.17ZM88.8701 96.4002C87.7901 98.1602 86.6301 100.2 85.7301 102.44C85.7101 102.3 85.6801 102.16 85.6701 102.03C84.6501 94.4902 85.6501 87.5202 86.9601 82.6502C88.2601 77.7602 89.7701 74.8801 89.7701 74.8801C89.7701 74.8801 90.8701 77.9302 92.1701 82.6402C93.2401 86.5602 94.5201 91.5802 95.4601 97.1602C95.3501 96.9302 95.2501 96.6902 95.1401 96.4802C94.3701 94.9902 93.5601 93.8601 92.9201 93.0901C92.2901 92.3301 91.8801 91.9302 91.8801 91.9302C91.8801 91.9302 91.5101 92.3902 90.9601 93.1902C90.4201 93.9902 89.6601 95.1002 88.8701 96.4002Z" fill="#389444"/>
<path d="M107.871 74.9C108.301 73.65 108.721 72.5 109.111 71.49C109.491 70.48 109.811 69.6 110.101 68.87C110.681 67.42 111.061 66.6 111.061 66.6C111.061 66.6 111.461 67.39 112.061 68.85C112.361 69.58 112.721 70.48 113.081 71.53C113.421 72.58 113.781 73.79 114.131 75.14C115.341 79.94 116.231 86.65 115.231 93.89C117.061 90.11 118.661 86.5 120.021 83.43C123.531 75.84 127.011 68.96 129.701 63.7C130.341 62.39 130.961 61.19 131.531 60.13C132.071 59.06 132.531 58.13 132.921 57.37C133.711 55.84 134.221 54.98 134.221 54.98C134.221 54.98 134.491 55.91 134.861 57.63C135.041 58.49 135.271 59.54 135.441 60.77C135.591 61.99 135.721 63.4 135.831 64.96C135.991 68.07 135.901 71.8 135.241 75.86C134.951 77.9 134.391 79.98 133.831 82.15C133.511 83.22 133.131 84.29 132.731 85.37C132.321 86.45 131.941 87.56 131.411 88.62C129.551 92.82 126.571 97.57 123.001 102.09C124.411 101.39 125.781 100.8 127.041 100.32C128.761 99.66 130.271 99.21 131.341 98.91C132.411 98.62 133.061 98.49 133.061 98.49C133.061 98.49 132.991 99.14 132.771 100.24C132.561 101.35 132.171 102.89 131.541 104.68C130.271 108.24 127.921 112.8 123.921 116.38C121.751 118.35 118.691 120.35 115.391 122.15C116.181 121.6 116.911 121.05 117.561 120.49C121.661 117.07 124.361 112.84 125.931 109.52C127.521 106.19 128.051 103.77 128.051 103.77C128.051 103.77 125.651 104.37 122.331 105.75C119.011 107.14 114.761 109.25 110.891 112.48C110.271 113 109.621 113.58 108.951 114.19C111.241 111.46 113.511 108.9 115.541 107.05C117.831 104.99 120.351 103.42 122.751 102.2C122.851 102.06 122.951 101.92 123.051 101.78C123.491 101.11 123.891 100.44 124.281 99.8C129.191 91.77 131.321 83.34 131.961 77.25C132.181 75.74 132.191 74.33 132.251 73.12C132.281 71.9 132.331 70.86 132.281 69.99C132.191 68.26 132.091 67.31 132.091 67.31C132.091 67.31 131.561 68.12 130.711 69.57C130.301 70.3 129.701 71.16 129.101 72.18C128.461 73.18 127.851 74.35 127.031 75.58C124.001 80.47 119.901 87.09 115.391 94.37C115.281 94.55 115.171 94.74 115.061 94.93C114.981 95.41 114.901 95.9 114.801 96.39C113.961 100.86 112.151 106.22 109.801 111.47C110.321 110.08 110.761 108.73 111.101 107.45C113.341 99.49 113.351 91.85 112.681 86.45C112.361 83.74 111.891 81.56 111.521 80.06C111.121 78.56 110.851 77.74 110.851 77.74C110.851 77.74 110.471 78.53 109.901 79.93C109.291 81.33 108.471 83.35 107.511 85.8C105.611 90.72 103.141 97.29 101.071 104.61C100.761 105.79 100.411 107.06 100.051 108.38C100.981 103.12 101.761 98.05 102.511 93.99C103.991 86.6 106.101 79.93 107.871 74.9Z" fill="#389444"/>
<path d="M0 69.1401C0.47 70.2401 0.95 71.3801 1.44 72.5501C3.3 77.1001 5.22 82.1001 6.99 87.4201C8.91 93.2501 11.05 100.54 13.38 108.03C12.66 106.14 11.98 104.33 11.34 102.64C7.42 92.5301 3.26 83.5201 0 76.7901V69.1401Z" fill="#389444"/>
<path d="M0.000234375 101.9C0.340234 102.9 0.690234 103.91 1.06023 104.92C2.55023 107.61 4.14023 110.65 5.77023 113.78C5.07023 112.71 4.39023 111.7 3.77023 110.74C3.46023 110.29 3.15023 109.86 2.84023 109.42C3.18023 110.23 3.52023 111.05 3.90023 111.89C3.34023 110.8 2.80023 109.71 2.28023 108.63C1.52023 107.58 0.760234 106.58 -0.00976562 105.61L0.000234375 101.9Z" fill="#389444"/>
<path d="M39.8098 108.5C37.1298 101.01 34.4198 94.2001 32.4698 89.0201C32.4698 89.0201 32.4698 89.0201 32.4698 89.0101C32.2598 90.8301 31.9698 92.6901 31.5698 94.5801C31.1898 96.4001 30.6798 98.3801 30.0698 100.44C30.9698 99.3701 31.7998 98.4801 32.4198 97.8301C33.1998 97.0301 33.6998 96.6001 33.6998 96.6001C33.6998 96.6001 33.9698 97.1901 34.3298 98.2501C34.6998 99.3101 35.1498 100.84 35.4998 102.71C36.1998 106.43 36.4598 111.55 34.8198 116.66C34.2198 118.55 33.2698 120.67 32.1198 122.84H31.5798C33.2098 118.02 33.3898 113.25 33.0898 109.72C32.7798 106.04 32.0198 103.69 32.0198 103.69C32.0198 103.69 30.2498 105.42 28.0798 108.29C27.6398 108.87 27.1798 109.51 26.7198 110.18C26.6998 110.23 26.6798 110.28 26.6598 110.33C26.6698 110.29 26.6798 110.25 26.6998 110.21C24.8798 112.84 22.9598 116.11 21.5998 119.87C21.3298 120.63 21.0598 121.46 20.7898 122.33C21.3898 118.81 22.0598 115.46 22.8798 112.84C24.2598 108.57 26.5398 104.94 28.6698 102.16C29.9498 95.3101 30.1298 88.9601 29.8898 84.1501C29.6098 78.4201 28.8298 74.8301 28.8298 74.8301C28.8298 74.8301 27.0298 78.0301 24.7698 83.2101C22.5098 88.4001 19.7198 95.5201 17.7198 103.6C17.4198 104.9 17.0998 106.3 16.7598 107.76C17.5598 101.99 18.3798 96.4301 19.3098 91.9801C21.0398 83.8601 23.8098 76.7201 26.1798 71.5101C27.3498 68.9101 28.4398 66.8001 29.2098 65.3401C29.9898 63.8801 30.4898 63.0801 30.4898 63.0801C30.4898 63.0801 30.7698 63.9801 31.1498 65.5901C31.5398 67.2101 32.0098 69.5501 32.3798 72.4301C32.6598 74.6201 32.8598 77.1301 32.9198 79.8601C34.4098 84.8401 36.1498 90.9301 37.7098 97.5301C38.6298 101.74 39.7498 106.97 41.1898 112.36C40.9398 111.69 40.6998 111.03 40.4598 110.39C40.2298 109.73 40.0098 109.11 39.8098 108.5Z" fill="#389444"/>
<path d="M13.4311 35.5501C12.8911 38.0401 12.5511 40.4601 12.4111 42.6801C12.3211 44.9101 12.4511 46.9501 12.7311 48.6901C13.2711 52.1601 14.6411 54.4301 16.4211 54.7001C18.2211 54.9801 20.0811 53.2401 21.8511 50.3101C22.7311 48.8401 23.5211 47.0601 24.2411 45.0601C25.0111 43.0701 25.6811 40.8601 26.2011 38.4901C26.7211 36.1301 27.1611 33.8601 27.3411 31.7401C27.5111 29.6101 27.5811 27.6701 27.4611 25.9701C27.2111 22.5801 26.2011 20.1701 24.4711 19.6301C22.7411 19.0901 20.6111 20.5601 18.5511 23.4201C17.5111 24.8501 16.4911 26.6301 15.6511 28.6901C14.8111 30.7601 13.9811 33.0601 13.4311 35.5501Z" fill="#6A5C3E"/>
<path d="M0.000234375 120.9C148.5 120.9 383.47 120.9 383.76 120.9C396.34 120.9 405.96 132.61 400.09 144.56C392.37 160.29 375.42 168.87 373.18 187.92C371.25 204.41 383.57 211.35 397.4 215.14C411.64 219.04 452.35 226.5 447.61 249.67C447.53 250.04 447.45 250.41 447.35 250.78C445.23 258.7 437.81 264.01 429.66 264.01C429.66 264.01 113.69 264.01 -0.00976562 264.01L0.000234375 120.9Z" fill="#B6D7FD"/>
<path d="M235.43 115.03C153.92 117.46 127.66 160.89 127.66 181.71C127.66 203.25 153.02 220.72 184.31 220.72C207.88 220.72 228.09 210.8 236.62 196.7C246.44 208.28 264.67 216.07 285.56 216.07C316.84 216.07 342.21 198.61 342.21 177.06C342.2 155.88 316.93 112.6 235.43 115.03Z" fill="#389444"/>
</svg>
