<svg width="448" height="264" viewBox="0 0 448 264" fill="none" xmlns="http://www.w3.org/2000/svg">
<path d="M360.771 86.25C361.001 86.8 361.281 87.3901 361.581 88.0401C362.191 89.2901 362.881 90.59 363.651 91.8301C363.671 91.8601 363.691 91.9001 363.721 91.93H388.641C389.721 90.3801 390.671 88.95 391.481 87.92C392.141 87.02 392.661 86.42 393.151 86.07C393.391 85.9 393.601 85.79 393.751 85.71C393.901 85.64 393.981 85.6 393.981 85.6C393.981 85.6 393.911 85.54 393.761 85.46C393.611 85.38 393.371 85.2601 393.041 85.1501C392.381 84.9201 391.321 84.8001 390.151 84.9001C389.641 84.9401 389.091 85 388.531 85.1101C388.741 84.8901 388.951 84.7001 389.151 84.5C389.351 84.3 389.551 84.1101 389.751 83.93C390.711 83.0401 391.491 82.38 392.141 81.99C392.801 81.6 393.371 81.43 393.831 81.39C394.061 81.37 394.241 81.37 394.371 81.38C394.501 81.38 394.571 81.39 394.571 81.39C394.571 81.39 394.501 81.3401 394.371 81.2601C394.241 81.1701 394.031 81.05 393.751 80.89C393.191 80.57 392.321 80.12 391.221 79.78C390.251 79.47 389.171 79.3201 388.021 79.3301C388.551 78.8601 389.001 78.4601 389.431 78.18C389.571 78.07 389.701 77.9801 389.841 77.9001C389.971 77.8201 390.101 77.73 390.201 77.68C390.301 77.65 390.401 77.62 390.481 77.59C390.521 77.58 390.561 77.5601 390.591 77.5501C390.631 77.5401 390.671 77.53 390.711 77.52C390.861 77.48 390.961 77.44 391.041 77.42C391.121 77.4 391.161 77.39 391.161 77.39C391.161 77.39 390.921 77.1701 390.451 76.8301C389.981 76.4901 389.321 76.0401 388.441 75.68C387.941 75.4701 387.401 75.31 386.791 75.21C386.641 75.19 386.481 75.1701 386.321 75.1501C386.161 75.1401 385.991 75.1501 385.821 75.1601C385.481 75.1801 385.121 75.21 384.771 75.28C384.861 75.22 384.961 75.18 385.051 75.13C385.241 75.02 385.431 74.9 385.611 74.78C385.791 74.67 385.961 74.5801 386.121 74.4801L386.361 74.3301L386.611 74.1901C386.781 74.1001 386.921 73.9901 387.081 73.9001C387.721 73.5201 388.331 73.1701 388.901 72.9001C389.181 72.7801 389.451 72.66 389.691 72.56C389.941 72.47 390.161 72.38 390.341 72.32C390.721 72.21 390.941 72.1201 390.941 72.1201C390.941 72.1201 390.851 71.87 390.631 71.45C390.421 71.03 390.081 70.4801 389.541 69.9001C389.261 69.6201 388.931 69.3401 388.541 69.0801C388.151 68.8301 387.691 68.6401 387.161 68.4701C386.661 68.3301 386.121 68.28 385.501 68.28C384.911 68.32 384.251 68.4101 383.601 68.6601L384.061 68.25L384.551 67.8701C384.711 67.7401 384.871 67.6101 385.031 67.4801C385.201 67.3601 385.361 67.2401 385.521 67.1201C386.991 66.0201 388.511 65.1201 389.741 64.4101C390.971 63.7001 392.081 63.0201 393.061 62.3801C393.551 62.0601 394.001 61.78 394.421 61.46C394.831 61.18 395.211 60.9 395.531 60.62C395.861 60.33 396.141 60.11 396.381 59.87C396.621 59.64 396.821 59.4301 396.971 59.2401C397.281 58.8801 397.421 58.64 397.421 58.64C397.421 58.64 396.911 58.4601 396.061 58.2001C395.631 58.0801 395.111 58 394.521 57.89C394.231 57.83 393.911 57.8201 393.581 57.7901C393.251 57.7701 392.911 57.73 392.561 57.73C391.141 57.72 389.561 57.92 388.021 58.39C386.491 58.88 385.011 59.6601 383.791 60.6501C383.541 60.8601 383.301 61.0901 383.051 61.3301C382.931 61.4501 382.801 61.5701 382.681 61.7001C382.561 61.8301 382.441 61.97 382.321 62.1C382.081 62.38 381.851 62.6601 381.621 62.9501C381.401 63.2501 381.181 63.5701 380.971 63.8801C380.141 65.1601 379.441 66.57 378.951 68C379.061 67.42 379.151 66.85 379.261 66.35C379.361 65.84 379.431 65.3501 379.501 64.9401C379.611 64.2401 379.651 63.59 379.661 63.01C379.671 62.43 379.631 61.91 379.551 61.43C379.391 60.47 379.061 59.6901 378.761 59.0201C378.441 58.36 378.121 57.82 377.881 57.42C377.641 57.03 377.481 56.8 377.481 56.8C377.481 56.8 377.331 56.9 377.071 57.12C376.821 57.34 376.451 57.66 376.011 58.07C375.561 58.48 375.081 59.0301 374.561 59.6501C374.291 59.9501 374.041 60.3 373.791 60.67C373.541 61.03 373.271 61.4101 373.031 61.8101C372.831 62.1401 372.641 62.4801 372.461 62.8301C372.281 63.1801 372.101 63.5301 371.941 63.9001C371.631 64.6401 371.321 65.41 371.161 66.1C370.801 66.07 370.461 66.1 370.181 66.14C369.871 66.2 369.621 66.26 369.441 66.32C369.271 66.37 369.181 66.4101 369.181 66.4101C369.181 66.4101 369.041 67.01 368.891 67.93C368.731 68.87 368.581 70.13 368.501 71.52C368.461 72.16 368.461 72.8201 368.451 73.4801C368.471 74.1401 368.481 74.81 368.541 75.46C367.751 74.32 366.941 73.4801 366.161 72.9801C365.361 72.4301 364.611 72.21 364.071 72.13C363.521 72.05 363.191 72.09 363.191 72.09C363.191 72.09 363.171 72.2601 363.141 72.5801C363.121 72.8901 363.071 73.3601 363.051 73.9001C363.011 75.0001 363.011 76.51 363.181 78.1101C363.251 78.9001 363.371 79.6901 363.511 80.5101C363.661 81.3101 363.831 82.1201 364.051 82.9101C363.731 82.8201 363.421 82.7601 363.121 82.7201C362.101 82.5901 361.241 82.7901 360.641 82.9801C360.041 83.2001 359.711 83.4001 359.711 83.4001C359.711 83.4001 359.891 83.9501 360.211 84.7901C360.341 85.2201 360.541 85.7001 360.771 86.25Z" fill="#46B755"/>
<path d="M380.201 65.1901C380.361 64.9701 380.521 64.7501 380.671 64.5401C380.831 64.3301 381.001 64.1501 381.161 63.9601C381.421 63.6801 381.681 63.3801 381.971 63.1301C382.261 62.8701 382.561 62.6201 382.861 62.3701C383.161 62.1301 383.491 61.9201 383.811 61.7001C383.971 61.6001 384.131 61.4901 384.291 61.3901C384.461 61.3001 384.621 61.2101 384.791 61.1201C386.111 60.3801 387.491 59.9401 388.731 59.6501C389.351 59.5301 389.931 59.4101 390.461 59.3801C390.991 59.3401 391.451 59.3001 391.851 59.3201C392.241 59.3301 392.551 59.3401 392.761 59.3501C392.871 59.3501 392.951 59.3601 393.001 59.3701C393.061 59.3801 393.081 59.3801 393.081 59.3801C393.081 59.3801 392.941 59.6001 392.621 59.9901C392.461 60.1801 392.271 60.4101 392.031 60.6701C391.791 60.9301 391.511 61.2201 391.211 61.5401C390.901 61.8601 390.551 62.1901 390.181 62.5701C389.991 62.7601 389.791 62.9501 389.591 63.1401C389.391 63.3401 389.181 63.5401 388.961 63.7601C388.111 64.5701 387.171 65.4701 386.131 66.4601C385.801 66.7501 385.461 67.1101 385.081 67.4401C386.681 66.2201 388.381 65.2101 389.711 64.4301C390.941 63.7201 392.051 63.0401 393.031 62.4001C393.521 62.0801 393.971 61.8001 394.391 61.4801C394.801 61.2001 395.181 60.9201 395.501 60.6401C395.831 60.3501 396.111 60.1301 396.351 59.8901C396.591 59.6601 396.791 59.4501 396.941 59.2601C397.251 58.9001 397.391 58.6601 397.391 58.6601C397.391 58.6601 396.881 58.4801 396.031 58.2201C395.601 58.1001 395.081 58.0201 394.491 57.9101C394.201 57.8501 393.881 57.8401 393.551 57.8101C393.221 57.7901 392.881 57.7501 392.531 57.7501C391.111 57.7401 389.531 57.9401 387.991 58.4101C386.461 58.9001 384.981 59.6801 383.761 60.6701C382.451 61.7801 381.161 63.3901 380.201 65.1901Z" fill="#389444"/>
<path d="M360.771 86.2501C361.001 86.8001 361.281 87.3901 361.581 88.0401C362.191 89.2901 362.881 90.5901 363.651 91.8301C363.671 91.8601 363.691 91.9001 363.721 91.9301H365.561C365.321 91.4501 365.091 90.9601 364.871 90.5101C364.591 89.9001 364.341 89.3501 364.121 88.8201C363.901 88.3001 363.711 87.8401 363.571 87.4501C363.261 86.6501 363.101 86.1701 363.101 86.1701C363.101 86.1701 363.421 86.1201 363.981 86.1701C364.541 86.2201 365.341 86.3801 366.301 86.8101C367.261 87.2301 368.361 87.9501 369.501 89.0101C370.351 89.8001 371.221 90.7801 372.031 91.9401H372.461C371.701 90.3901 370.891 88.9901 370.131 87.8801C368.981 86.2201 367.741 84.9601 366.511 84.1201C366.271 83.9601 366.041 83.8301 365.821 83.7001C365.691 83.0901 365.561 82.5001 365.471 81.9101C365.411 81.5501 365.361 81.2001 365.311 80.8701C365.271 80.5301 365.231 80.2001 365.201 79.8901C365.121 79.2701 365.101 78.7001 365.071 78.2201C365.041 77.7501 365.031 77.3601 365.031 77.0901C365.031 76.8201 365.031 76.6801 365.031 76.6801C365.031 76.6801 365.321 76.7501 365.801 76.9801C366.281 77.2201 366.931 77.6401 367.671 78.3201C369.151 79.6701 370.971 82.1601 372.481 85.5901C372.721 86.1401 372.971 86.7401 373.211 87.3801C372.441 84.7101 371.631 82.1001 370.881 80.1301C370.671 79.5401 370.411 79.0001 370.181 78.4801C370.131 77.8101 370.091 77.1401 370.091 76.4701C370.071 75.8101 370.091 75.1501 370.111 74.5201C370.121 73.8701 370.191 73.2501 370.231 72.6901C370.281 72.1301 370.351 71.6201 370.401 71.2001C370.451 70.7701 370.521 70.4201 370.561 70.1901C370.601 69.9501 370.631 69.8301 370.631 69.8301C370.631 69.8301 370.921 69.8401 371.361 70.0001C371.801 70.1601 372.401 70.5001 372.991 71.1601C373.291 71.4901 373.581 71.8901 373.861 72.3801C374.151 72.8701 374.421 73.4401 374.671 74.0901C375.181 75.3901 375.601 77.0001 375.891 78.8201C375.991 79.4001 376.061 80.0401 376.141 80.7001C376.061 78.0101 375.961 75.3001 375.711 73.2801C375.621 72.3601 375.441 71.5001 375.261 70.7401C375.061 69.9701 374.811 69.2901 374.531 68.7201C374.041 67.7201 373.401 67.0501 372.731 66.6501C372.771 66.5001 372.811 66.3501 372.881 66.1901C373.011 65.8301 373.151 65.4801 373.301 65.1401C373.441 64.8001 373.591 64.4801 373.741 64.1901C374.051 63.6101 374.331 63.0701 374.611 62.6601C375.151 61.8301 375.531 61.3401 375.531 61.3401C375.531 61.3401 375.731 61.5001 376.031 61.8201C376.331 62.1401 376.711 62.6201 377.101 63.2501C377.471 63.8801 377.861 64.6901 378.101 65.7101C378.221 66.2101 378.331 66.8001 378.391 67.4301C378.421 67.7501 378.441 68.0701 378.461 68.4201C378.481 68.7701 378.491 69.1401 378.491 69.5201C378.481 70.0101 378.491 70.5401 378.471 71.1101C378.511 70.8101 378.551 70.5201 378.581 70.2301C378.621 69.9401 378.681 69.6501 378.721 69.3701C378.771 69.0901 378.811 68.8001 378.861 68.5301C378.911 68.2601 378.961 67.9901 379.011 67.7301C379.061 67.4701 379.101 67.2101 379.151 66.9601C379.201 66.7201 379.251 66.4801 379.291 66.2501C379.381 65.8001 379.441 65.3501 379.501 64.9801C379.611 64.2801 379.651 63.6301 379.661 63.0501C379.671 62.4701 379.631 61.9501 379.551 61.4701C379.391 60.5101 379.061 59.7301 378.761 59.0601C378.441 58.4001 378.121 57.8601 377.881 57.4601C377.641 57.0701 377.481 56.8401 377.481 56.8401C377.481 56.8401 377.331 56.9401 377.071 57.1601C376.821 57.3801 376.451 57.7001 376.011 58.1101C375.561 58.5201 375.081 59.0701 374.561 59.6901C374.291 59.9901 374.041 60.3401 373.791 60.7101C373.541 61.0701 373.271 61.4501 373.031 61.8501C372.831 62.1801 372.641 62.5201 372.461 62.8701C372.281 63.2201 372.101 63.5701 371.951 63.9401C371.641 64.6801 371.331 65.4501 371.181 66.1401C370.821 66.1101 370.471 66.1301 370.191 66.1701C369.881 66.2301 369.631 66.2901 369.451 66.3501C369.281 66.4001 369.191 66.4401 369.191 66.4401C369.191 66.4401 369.051 67.0401 368.901 67.9601C368.741 68.9001 368.591 70.1601 368.511 71.5501C368.471 72.1901 368.471 72.8501 368.461 73.5101C368.481 74.1701 368.491 74.8401 368.551 75.4901C367.761 74.3501 366.951 73.5101 366.171 73.0101C365.371 72.4601 364.621 72.2401 364.081 72.1601C363.531 72.0801 363.201 72.1201 363.201 72.1201C363.201 72.1201 363.181 72.2901 363.151 72.6101C363.131 72.9201 363.081 73.3901 363.061 73.9301C363.021 75.0301 363.021 76.5401 363.191 78.1401C363.261 78.9301 363.391 79.7201 363.521 80.5401C363.681 81.3401 363.841 82.1601 364.071 82.9401C363.751 82.8501 363.431 82.7901 363.131 82.7501C362.111 82.6201 361.251 82.8201 360.651 83.0101C360.051 83.2301 359.721 83.4301 359.721 83.4301C359.721 83.4301 359.901 83.9801 360.221 84.8201C360.341 85.2201 360.541 85.7001 360.771 86.2501Z" fill="#389444"/>
<path d="M387.831 71.66C387.461 71.91 386.941 72.22 386.391 72.68C386.271 72.78 386.141 72.87 386.021 72.97C385.891 73.07 385.781 73.19 385.651 73.29C385.531 73.4 385.391 73.51 385.271 73.63C385.151 73.75 385.021 73.87 384.891 73.99C384.831 74.05 384.761 74.11 384.691 74.18L384.491 74.39C384.351 74.53 384.211 74.68 384.071 74.82C383.941 74.97 383.801 75.12 383.651 75.28L383.431 75.51L383.221 75.75C382.541 76.04 381.871 76.45 381.221 76.98C380.871 77.27 380.511 77.61 380.161 77.99C379.801 78.37 379.461 78.79 379.111 79.26C378.431 80.19 377.761 81.3 377.141 82.55C377.501 81.96 377.851 81.43 378.211 80.98C379.281 79.6 380.501 78.58 381.671 77.91C382.271 77.59 382.831 77.32 383.401 77.15C383.681 77.06 383.941 76.99 384.201 76.93C384.461 76.87 384.721 76.84 384.961 76.81C385.911 76.68 386.701 76.77 387.231 76.85C387.761 76.93 388.061 77.04 388.061 77.04C388.061 77.04 388.011 77.08 387.921 77.17C387.831 77.26 387.701 77.39 387.521 77.56C387.191 77.92 386.691 78.42 386.131 79.16C385.991 79.32 385.861 79.51 385.711 79.71C385.301 79.83 384.891 79.98 384.491 80.18C384.081 80.37 383.671 80.6 383.281 80.89C382.501 81.42 381.691 82.19 380.891 83.16C380.101 84.13 379.341 85.3 378.671 86.6C379.061 85.99 379.451 85.42 379.841 84.95C381.071 83.45 382.421 82.45 383.721 81.82C385.021 81.19 386.251 80.92 387.281 80.82C388.311 80.71 389.171 80.78 389.761 80.84C390.351 80.91 390.681 80.98 390.681 80.98C390.681 80.98 390.631 81.02 390.521 81.11C390.421 81.2 390.261 81.31 390.071 81.49C389.691 81.84 389.111 82.37 388.431 83.14C387.821 83.83 387.121 84.69 386.381 85.7C386.351 85.71 386.331 85.72 386.301 85.73C384.921 86.27 383.441 87.13 382.091 88.51C381.251 89.36 380.371 90.54 379.541 91.93H380.101C380.941 90.95 381.801 90.14 382.661 89.51C383.941 88.58 385.191 88.01 386.241 87.65C387.311 87.29 388.201 87.13 388.821 87.04C389.441 86.95 389.801 86.95 389.801 86.95C389.801 86.95 389.581 87.29 389.211 87.87C389.031 88.17 388.791 88.53 388.531 88.96C388.401 89.18 388.261 89.41 388.111 89.65C387.961 89.9 387.801 90.17 387.641 90.45C387.381 90.91 387.091 91.41 386.791 91.93H388.631C389.711 90.38 390.661 88.95 391.471 87.92C392.131 87.02 392.651 86.42 393.141 86.07C393.381 85.9 393.591 85.79 393.741 85.71C393.891 85.64 393.971 85.6 393.971 85.6C393.971 85.6 393.901 85.54 393.751 85.46C393.601 85.38 393.361 85.26 393.031 85.15C392.371 84.92 391.311 84.8 390.141 84.9C389.631 84.94 389.081 85 388.511 85.11C388.721 84.89 388.941 84.7 389.141 84.5C389.341 84.3 389.551 84.11 389.741 83.93C390.701 83.04 391.481 82.38 392.131 81.99C392.791 81.6 393.361 81.43 393.821 81.39C394.051 81.37 394.231 81.37 394.361 81.38C394.491 81.38 394.561 81.39 394.561 81.39C394.561 81.39 394.491 81.34 394.361 81.26C394.231 81.17 394.021 81.05 393.741 80.89C393.181 80.57 392.311 80.12 391.211 79.78C390.231 79.47 389.161 79.32 388.001 79.33C388.531 78.86 388.981 78.46 389.411 78.18C389.551 78.07 389.681 77.98 389.821 77.9C389.951 77.82 390.081 77.73 390.181 77.68C390.281 77.65 390.381 77.62 390.461 77.59C390.501 77.58 390.541 77.56 390.571 77.55C390.611 77.54 390.651 77.53 390.691 77.52C390.841 77.48 390.941 77.44 391.021 77.42C391.101 77.4 391.141 77.39 391.141 77.39C391.141 77.39 390.901 77.17 390.431 76.83C389.961 76.49 389.301 76.04 388.421 75.68C387.921 75.47 387.381 75.31 386.771 75.21C386.621 75.19 386.461 75.17 386.301 75.15C386.141 75.14 385.971 75.15 385.801 75.16C385.461 75.18 385.111 75.21 384.751 75.28C384.831 75.22 384.931 75.18 385.021 75.13C385.211 75.02 385.401 74.9 385.581 74.78C385.761 74.67 385.931 74.58 386.091 74.48L386.331 74.33L386.581 74.19C386.751 74.1 386.891 73.99 387.051 73.9C387.691 73.52 388.301 73.17 388.871 72.9C389.151 72.78 389.421 72.66 389.661 72.56C389.911 72.47 390.131 72.38 390.311 72.32C390.691 72.21 390.911 72.12 390.911 72.12C390.911 72.12 390.821 71.87 390.601 71.45C390.391 71.03 390.051 70.48 389.511 69.9C389.231 69.62 388.901 69.34 388.511 69.08C388.121 68.83 387.661 68.64 387.131 68.47C386.861 68.39 386.591 68.35 386.301 68.32C386.011 68.29 385.691 68.27 385.381 68.29C385.071 68.31 384.731 68.35 384.391 68.42C384.051 68.49 383.711 68.61 383.361 68.74C382.591 69.03 381.761 69.54 380.931 70.23C380.131 70.94 379.341 71.81 378.711 72.81C378.901 72.59 379.091 72.37 379.271 72.16C379.461 71.96 379.651 71.78 379.841 71.61C379.991 71.48 380.131 71.35 380.281 71.23C380.441 71.11 380.591 71 380.741 70.9C381.051 70.69 381.341 70.51 381.661 70.37C381.971 70.23 382.271 70.1 382.561 70C382.871 69.91 383.161 69.84 383.441 69.79C384.581 69.59 385.561 69.72 386.291 69.98C387.031 70.22 387.561 70.58 387.901 70.85C388.241 71.12 388.411 71.31 388.411 71.31C388.411 71.31 388.351 71.34 388.251 71.4C388.171 71.46 388.011 71.53 387.831 71.66Z" fill="#389444"/>
<path d="M73.49 75.02C73.15 74.7 72.63 74.24 71.9 73.67C70.45 72.54 68.11 70.98 65.1 69.73C62.47 68.63 59.39 67.78 56.26 67.36C57.01 66.81 57.8 66.32 58.51 65.83C58.86 65.59 59.21 65.35 59.55 65.11C59.9 64.89 60.24 64.67 60.57 64.46C61.47 63.86 62.29 63.32 63.06 62.87C63.82 62.42 64.44 61.99 65.01 61.67C66.13 61.05 66.74 60.63 66.74 60.63C66.74 60.63 66 60.07 64.62 59.21C63.24 58.39 61.2 57.28 58.57 56.41C57.1 55.9 55.48 55.51 53.72 55.27C51.96 55.03 50.01 54.93 48.06 55.09C48.31 54.98 48.58 54.86 48.82 54.75C53.07 52.67 56.57 49.8 59.73 47.58C60.49 47.02 61.23 46.52 61.91 46.06C62.59 45.61 63.15 45.16 63.68 44.86C64.71 44.21 65.31 43.77 65.31 43.77C65.31 43.77 64.87 43.14 63.97 42.15C63.08 41.14 61.72 39.88 59.83 38.63C58.88 38.04 57.81 37.49 56.59 36.98C55.37 36.49 54.07 36.19 52.62 35.94C49.89 35.58 46.75 35.82 43.6 37.08C44.24 36.36 44.92 35.66 45.59 34.96C46.26 34.26 46.88 33.52 47.54 32.82C50.41 29.61 53.19 26.54 55.06 23.72C56.04 22.36 56.86 20.94 57.57 19.51C58.3 18.12 58.91 16.71 59.41 15.31C60.46 12.6 61.07 9.87 61.43 7.64C61.78 5.37 61.86 3.45 61.81 2.1C61.77 0.77 61.65 0 61.65 0C61.65 0 60.61 0.32 58.92 0.96C57.23 1.57 54.94 2.62 52.4 3.94C47.33 6.66 41.59 10.92 38.05 16.53C35.15 21.17 32.85 28.1 31.42 34.72C31.48 33.33 31.49 32.01 31.46 30.76C31.45 29.53 31.41 28.39 31.31 27.35C30.95 23.87 30.12 21.05 29.02 18.67C27.91 16.29 26.54 14.36 25.28 12.69C24 11.04 22.8 9.68 21.93 8.7C21.06 7.72 20.49 7.15 20.49 7.15C20.49 7.15 19.57 8.16 18.22 10.01C17.53 10.92 16.78 12.09 16 13.43C15.22 14.77 14.39 16.27 13.68 17.96C13.09 19.31 12.52 20.72 12.06 22.2C11.6 23.69 11.21 25.22 10.89 26.74C9.95 26.49 9.08 26.37 8.37 26.31C6.8 26.25 5.85 26.4 5.85 26.4C5.85 26.4 5.59 27.69 5.3 29.69C5.13 30.71 5 31.94 4.83 33.29C4.68 34.64 4.47 36.09 4.35 37.68C4.24 39.12 4.12 40.63 4 42.18C3.92 43.73 3.89 45.31 3.87 46.87C2.65 44.84 1.33 43.09 0 41.66V92.27H56.15C56.22 92.23 56.28 92.18 56.35 92.14C59.1 90.28 61.67 88.75 63.75 87.55C65.78 86.39 67.3 85.68 68.72 85.38C69.4 85.22 69.99 85.16 70.41 85.12C70.84 85.09 71.07 85.08 71.07 85.08C71.07 85.08 70.87 84.95 70.48 84.7C70.08 84.47 69.46 84.1 68.57 83.7C66.81 82.88 63.91 81.97 60.66 81.47C59.25 81.24 57.71 81.04 56.14 80.93C57.37 80.38 58.58 79.83 59.77 79.3C62.64 78.1 64.87 77.1 66.81 76.47C68.71 75.8 70.46 75.52 71.78 75.46C72.43 75.42 73.02 75.45 73.4 75.48C73.79 75.49 74 75.5 74 75.5C74 75.5 73.82 75.33 73.49 75.02Z" fill="#46B755"/>
<path d="M33.1699 27.99C33.4299 27.46 33.6799 26.94 33.9199 26.43C34.1899 25.94 34.4599 25.47 34.7099 25.01C38.0099 19.3 43.1499 14.87 47.5399 11.94C48.6499 11.22 49.6899 10.57 50.6299 10.01C51.5899 9.47 52.4599 9.03 53.1799 8.67C53.9099 8.32 54.4799 8.03 54.8799 7.84C55.2799 7.66 55.5099 7.57 55.5099 7.57C55.5099 7.57 55.5499 8.29 55.4799 9.61C55.4099 10.92 55.2199 12.78 54.7599 14.97C53.9099 19.43 52.0299 25.26 48.5699 30.91C48.0399 31.83 47.3599 32.74 46.6899 33.73C49.8899 30.23 52.9699 26.8 55.0299 23.74C56.0099 22.38 56.8299 20.96 57.5399 19.53C58.2699 18.14 58.8799 16.73 59.3799 15.33C60.4299 12.62 61.0399 9.89 61.3999 7.66C61.7499 5.39 61.8299 3.47 61.7799 2.12C61.7699 0.77 61.6499 0 61.6499 0C61.6499 0 60.6099 0.32 58.9199 0.96C57.2299 1.57 54.9399 2.62 52.3999 3.94C47.3299 6.66 41.5899 10.92 38.0499 16.53C37.1099 18.08 36.1999 19.86 35.3699 21.79C34.5999 23.77 33.7899 25.8 33.1699 27.99Z" fill="#389444"/>
<path d="M0 72V78.93C0.66 79.59 1.32 80.29 1.99 81.04C3.44 82.64 4.86 84.44 6.26 86.43C7.58 88.23 8.77 90.18 10 92.26H10.7C8.5 87.06 6.28 82.14 4.13 78.32C2.8 75.99 1.44 73.88 0 72Z" fill="#389444"/>
<path d="M31.46 30.4299C31.45 29.3299 31.4 28.2999 31.32 27.3599C30.96 23.8799 30.13 21.0599 29.03 18.6799C27.92 16.2999 26.55 14.3699 25.29 12.6999C24.01 11.0499 22.81 9.68991 21.94 8.70991C21.07 7.72991 20.5 7.15991 20.5 7.15991C20.5 7.15991 19.58 8.17991 18.23 10.0199C17.54 10.9299 16.79 12.0999 16.01 13.4399C15.23 14.7799 14.4 16.2799 13.69 17.9699C13.1 19.3199 12.53 20.7299 12.08 22.2199C11.63 23.7099 11.24 25.2399 10.93 26.7699C9.98 26.5199 9.1 26.3899 8.38 26.3399C6.81 26.2799 5.86 26.4299 5.86 26.4299C5.86 26.4299 5.6 27.7199 5.31 29.7199C5.14 30.7399 5.01 31.9699 4.84 33.3199C4.69 34.6699 4.48 36.1199 4.36 37.7099C4.25 39.1499 4.13 40.6599 4.01 42.2099C3.93 43.7599 3.9 45.3399 3.88 46.8999C2.65 44.8399 1.33 43.0899 0 41.6599V52.3499C0.24 52.5999 0.48 52.8699 0.72 53.1399C4.42 57.2999 8.44 64.4099 11.44 73.5899C11.94 75.0599 12.38 76.6399 12.86 78.3299C11.58 71.4299 10.4 64.5799 9 59.3899C8.6 57.8399 8.06 56.3799 7.59 54.9899C7.67 53.3599 7.76 51.7199 7.89 50.1399C8.05 48.5599 8.21 47.0199 8.36 45.5599C8.53 44.0499 8.77 42.6599 8.94 41.3799C9.13 40.0999 9.3 38.9499 9.48 38.0199C9.85 36.0999 10.07 34.9699 10.07 34.9699C10.07 34.9699 10.83 35.1599 12.02 35.7799C13.21 36.4099 14.81 37.5199 16.4 39.3999C18.02 41.2699 19.55 43.8699 20.78 47.2599C21.99 50.6299 22.86 54.7199 23.14 59.2299C23.24 60.6699 23.22 62.2099 23.25 63.8499C23.92 57.4199 24.21 50.8799 23.65 45.9499C23.16 41.4099 21.95 37.5199 20.22 34.4899C18.76 31.8899 16.96 30.0299 15.1 28.7599C15.18 28.4399 15.27 28.0999 15.35 27.7899C16.11 24.7699 17.17 22.2599 17.97 20.4599C18.37 19.5599 18.74 18.8599 19 18.3899C19.27 17.9199 19.41 17.6599 19.41 17.6599C19.41 17.6599 21.75 19.4099 24.36 22.6199C25.65 24.2399 27.02 26.2399 28.19 28.8199C28.77 30.0999 29.29 31.5199 29.71 33.0699C29.92 33.8399 30.1 34.6499 30.26 35.4999C30.43 36.3599 30.58 37.2499 30.69 38.1799C30.83 39.3699 30.89 40.6499 30.93 42.0499C31.23 39.2399 31.35 36.4699 31.45 34.0099C31.49 32.7399 31.49 31.5499 31.46 30.4299Z" fill="#389444"/>
<path d="M31.5195 63.9301C32.3895 63.3901 33.2495 62.9001 34.0995 62.4601C35.8695 61.6101 37.5895 60.9401 39.2495 60.4401C40.9595 59.9601 42.5795 59.6401 44.1095 59.4401C45.6595 59.2601 47.1295 59.2101 48.4595 59.2501C51.0895 59.3001 53.2895 59.7401 54.7595 60.1101C56.2395 60.4801 57.0595 60.8101 57.0595 60.8101C57.0595 60.8101 56.4895 61.3301 55.4195 62.2101C54.4095 63.1201 52.9095 64.3801 51.1695 65.9701C50.7395 66.3301 50.3095 66.7201 49.8795 67.1301C48.7495 67.2101 47.5895 67.3501 46.4095 67.5701C45.2295 67.7901 44.0895 68.1201 42.9095 68.5401C38.3795 70.1101 32.9995 73.6101 28.4495 78.9401C29.0895 78.3401 29.7195 77.7701 30.3395 77.2301C30.9695 76.7001 31.6095 76.2201 32.2295 75.7901C39.9995 70.3101 48.2595 70.09 53.8895 70.7701C56.7695 71.1301 59.0695 71.7201 60.6795 72.1901C62.2895 72.6701 63.1695 73.0401 63.1695 73.0401C63.1695 73.0401 62.5095 73.4001 61.3495 74.0201C60.7395 74.3301 60.0595 74.7301 59.2295 75.1901C58.8095 75.4201 58.3595 75.6701 57.8895 75.9301C57.4295 76.2101 56.9395 76.5001 56.4395 76.8001C55.9695 77.0801 55.4895 77.3701 54.9895 77.6601C54.4995 77.9801 53.9895 78.3101 53.4695 78.6401C52.3795 79.3101 51.2995 80.07 50.1395 80.8801C50.0595 80.8801 49.9895 80.8901 49.9195 80.8901C47.9095 81.0501 45.8595 81.3901 43.7695 81.9801C42.7295 82.2801 41.6495 82.6301 40.5995 83.0601C39.5595 83.5 38.5195 84.0101 37.4795 84.6001C34.5695 86.2401 31.4295 88.8201 28.5695 92.2401H29.8195C29.9495 92.1201 30.0795 92.0001 30.2195 91.8901C31.1695 91.1201 32.1195 90.43 33.0695 89.8101C34.9395 88.57 36.9495 87.6301 38.8195 86.8901C40.6895 86.1601 42.5895 85.6501 44.3395 85.3001C46.0995 84.9501 47.7595 84.7501 49.2595 84.6401C52.3295 84.4401 54.8595 84.5801 56.6095 84.7201C58.3595 84.8701 59.3495 85.0501 59.3495 85.0501C59.3495 85.0501 58.6695 85.5401 57.4995 86.3901C56.9095 86.8401 56.1895 87.3901 55.3695 88.0101C54.5295 88.6501 53.6495 89.4101 52.5995 90.2501C51.8695 90.8501 51.1095 91.5301 50.3195 92.2401H56.1595C56.2295 92.2001 56.2895 92.1501 56.3595 92.1101C59.1095 90.2501 61.6795 88.7201 63.7595 87.5201C65.7895 86.3601 67.3095 85.6501 68.7295 85.3501C69.4095 85.1901 69.9995 85.1301 70.4195 85.09C70.8495 85.0601 71.0795 85.0501 71.0795 85.0501C71.0795 85.0501 70.8795 84.9201 70.4895 84.6701C70.0895 84.4401 69.4695 84.0701 68.5795 83.6701C66.8195 82.8501 63.9195 81.9401 60.6695 81.4401C59.2495 81.2101 57.6995 81.0101 56.1195 80.9001C57.3895 80.3201 58.6695 79.8 59.7795 79.2701C62.6495 78.07 64.8795 77.0701 66.8195 76.4401C68.7195 75.7701 70.4695 75.4901 71.7895 75.4301C72.4395 75.3901 73.0295 75.4201 73.4095 75.4501C73.7895 75.4901 73.9995 75.5001 73.9995 75.5001C73.9995 75.5001 73.8195 75.3301 73.4895 75.0201C73.1495 74.7001 72.6295 74.2401 71.8995 73.6701C70.4495 72.5401 68.1095 70.9801 65.0995 69.7301C62.4595 68.6301 59.3795 67.7801 56.2395 67.3601C56.9895 66.8101 57.7795 66.3201 58.4995 65.8301C58.8495 65.5901 59.1995 65.3501 59.5395 65.1101C59.8895 64.8901 60.2295 64.6701 60.5695 64.4601C61.4695 63.8601 62.2895 63.3201 63.0595 62.8701C63.8195 62.4201 64.4395 61.9901 65.0095 61.6701C66.1295 61.0501 66.7395 60.6301 66.7395 60.6301C66.7395 60.6301 65.9995 60.0701 64.6195 59.2101C63.2395 58.3901 61.1995 57.2801 58.5695 56.4101C57.1095 55.9101 55.4895 55.5101 53.7295 55.2801C51.9695 55.0401 50.0295 54.9301 48.0795 55.1001C48.3295 54.9901 48.5695 54.8701 48.8095 54.7601C53.0595 52.6801 56.5595 49.8101 59.7195 47.5901C60.4795 47.0301 61.2195 46.5301 61.8995 46.0701C62.5795 45.6201 63.1395 45.1701 63.6695 44.8701C64.6995 44.2201 65.2995 43.7801 65.2995 43.7801C65.2995 43.7801 64.8595 43.1501 63.9595 42.1601C63.0695 41.1501 61.7095 39.8901 59.8195 38.6401C58.8795 38.0501 57.7995 37.5001 56.5795 36.9901C55.3595 36.5001 54.0595 36.2001 52.6095 35.9501C51.1795 35.7701 49.5995 35.7101 48.0095 35.9301C46.4095 36.1301 44.7095 36.5301 43.0695 37.2801C39.4095 38.7701 35.1895 42.0201 31.7595 46.3001C32.7695 45.3801 33.7095 44.5001 34.6695 43.8201C37.6995 41.6501 40.8495 40.4801 43.7395 40.0101C45.1995 39.7901 46.5695 39.7201 47.8395 39.7701C49.1095 39.8301 50.2995 40.0301 51.3395 40.2901C53.4395 40.8001 55.0195 41.5301 56.0995 42.1401C57.1795 42.7501 57.7495 43.2201 57.7495 43.2201C57.7495 43.2201 57.6095 43.3401 57.3495 43.5501C57.0995 43.7701 56.7295 44.1001 56.2795 44.5101C55.8195 44.9401 55.2495 45.4101 54.6295 45.9501C54.0195 46.5101 53.3395 47.1301 52.5995 47.8101C50.0695 50.1301 47.1695 53.0001 43.8195 55.7601C41.9695 56.2401 40.0195 56.9101 38.1995 57.9001C34.1395 60.0301 29.7295 63.6001 25.5195 68.7801C26.6495 67.5701 27.8695 66.5701 28.9495 65.7101C29.7795 65.0601 30.6495 64.4601 31.5195 63.9301Z" fill="#389444"/>
<path d="M97.8205 81.8101C96.7905 82.1901 96.2305 82.4402 96.2305 82.4402C96.2305 82.4402 96.6805 82.7601 97.4605 83.2701C98.2305 83.7701 99.3205 84.5002 100.58 85.4102C103.12 87.1802 106.13 89.5401 109.58 91.8101C109.64 91.8501 109.71 91.8901 109.77 91.9301H144.37C145.01 91.3401 145.63 90.7602 146.19 90.1902C150.29 86.0802 153.42 80.9701 155.45 76.7602C156.37 74.7402 157.07 73.1702 157.78 72.1202C158.12 71.5902 158.45 71.2102 158.68 70.9402C158.92 70.6802 159.05 70.5502 159.05 70.5502C159.05 70.5502 158.89 70.4702 158.57 70.3302C158.25 70.2202 157.76 70.0501 157.11 70.0002C155.81 69.8502 153.85 70.2702 151.83 71.1602C150.94 71.5402 150.01 71.9702 149.04 72.4702C149.61 71.4402 150.12 70.4002 150.58 69.3602C151.75 66.8202 152.48 64.4202 153.12 62.4702C153.77 60.5002 154.34 58.8701 154.89 57.7301C155.16 57.1601 155.4 56.7002 155.57 56.4002C155.74 56.0902 155.84 55.9201 155.84 55.9201C155.84 55.9201 155.67 55.8901 155.36 55.8201C155.04 55.7601 154.58 55.7102 153.97 55.7402C152.76 55.7702 150.97 56.2201 149.03 57.3201C147.32 58.2801 145.57 59.6302 143.86 61.1302C144.11 59.4802 144.31 57.9001 144.41 56.4601C144.54 54.4701 144.64 52.7401 144.65 51.5001C144.67 50.2801 144.64 49.5301 144.64 49.5301C144.64 49.5301 144.07 49.7702 143.11 50.3102C142.17 50.8602 140.84 51.7402 139.4 53.0202C137.8 54.4102 136.01 56.3502 134.41 58.6102C134.47 58.4202 134.53 58.2202 134.59 58.0402C135.02 56.4002 135.2 54.7001 135.19 53.0701C135.19 51.4301 135.08 49.8202 134.91 48.3602C134.76 46.9202 134.57 45.6002 134.43 44.6802C134.27 43.7502 134.15 43.1701 134.15 43.1701C134.15 43.1701 133.67 43.3101 132.86 43.6601C132.04 44.0101 130.96 44.6201 129.75 45.5501C129.16 46.0201 128.56 46.5702 127.94 47.2002C127.34 47.8302 126.75 48.5602 126.17 49.3402C125.13 50.8502 124.23 52.6201 123.69 54.5701C123.48 53.5201 123.17 52.4901 122.84 51.5001C122.1 49.2601 121.03 47.2602 119.92 45.8802C118.76 44.5102 117.35 43.5601 115.91 42.9401C114.45 42.3301 112.96 42.0502 111.67 41.9702C110.37 41.8902 109.25 41.9802 108.45 42.1102C107.65 42.2302 107.18 42.3602 107.18 42.3602C107.18 42.3602 107.21 42.8401 107.32 43.6001C107.43 44.3601 107.61 45.4102 107.89 46.5602C108.14 47.7302 108.48 49.0001 108.99 50.2301C109.47 51.4801 110.11 52.6902 111.02 53.7702C111.76 54.6602 112.78 55.6102 113.95 56.6102C115.12 57.6202 116.37 58.7101 117.61 59.7801C116.34 59.0901 115.12 58.5902 114.05 58.3001C110.43 57.3602 107.09 58.1902 104.5 58.8802C103.2 59.2402 102.07 59.6101 101.26 59.8701C100.45 60.1502 99.9505 60.3102 99.9505 60.3102C99.9505 60.3102 100.09 60.7201 100.45 61.3701C100.81 62.0201 101.36 62.9202 102.23 63.8602C102.92 64.6202 103.78 65.4001 104.77 66.1301C104.22 66.4101 103.76 66.6901 103.38 66.9201C102.59 67.4401 102.18 67.7701 102.18 67.7701C102.18 67.7701 102.57 68.0602 103.23 68.5002C103.88 68.9701 104.75 69.6101 105.73 70.3801C106.18 70.7401 106.66 71.1102 107.14 71.5002C107.62 71.8902 108.11 72.3001 108.6 72.7101C106.54 72.4301 104.58 72.4802 102.94 72.6902C101.23 72.9002 99.8105 73.2601 98.8405 73.5601C97.8705 73.8601 97.3205 74.0701 97.3205 74.0701C97.3205 74.0701 97.6405 74.4401 98.2305 75.0301C98.8105 75.6201 99.6805 76.4402 100.66 77.4102C101.62 78.3402 102.75 79.3901 103.98 80.4701C103.37 80.5302 102.79 80.6002 102.24 80.6902C100.36 80.9902 98.8405 81.4601 97.8205 81.8101Z" fill="#46B755"/>
<path d="M115.11 57.5901C114.8 57.1601 114.5 56.7602 114.22 56.3802C113.39 55.1802 112.83 53.8801 112.36 52.6102C111.88 51.3502 111.58 50.0802 111.31 48.9502C111.04 47.8302 110.87 46.8302 110.77 46.1102C110.67 45.3902 110.62 44.9502 110.62 44.9502C110.62 44.9502 111.07 44.9102 111.8 44.9502C112.54 44.9902 113.57 45.1001 114.76 45.4101C117.14 46.0101 120.13 47.5502 122.14 50.5402C122.46 51.0102 122.76 51.5502 123.05 52.1302C122.29 49.6402 121.15 47.3802 119.92 45.8802C118.76 44.5102 117.35 43.5601 115.91 42.9401C114.45 42.3301 112.96 42.0502 111.67 41.9702C110.37 41.8902 109.25 41.9802 108.45 42.1102C107.65 42.2302 107.18 42.3602 107.18 42.3602C107.18 42.3602 107.21 42.8401 107.32 43.6001C107.43 44.3601 107.61 45.4102 107.89 46.5602C108.14 47.7302 108.48 49.0001 108.99 50.2301C109.47 51.4801 110.11 52.6902 111.02 53.7702C112 54.9402 113.5 56.2001 115.11 57.5901Z" fill="#389444"/>
<path d="M97.8205 81.8101C96.7905 82.1901 96.2305 82.4401 96.2305 82.4401C96.2305 82.4401 96.6805 82.7601 97.4605 83.2701C98.2305 83.7701 99.3205 84.5001 100.58 85.4101C103.12 87.1801 106.13 89.5401 109.58 91.8101C109.64 91.8501 109.71 91.8901 109.77 91.9301H111.95C111.5 91.4601 111.04 90.9901 110.6 90.5401C109.25 89.1901 108.03 87.9501 106.92 86.9001C105.77 85.8301 104.83 84.9701 104.16 84.3801C103.49 83.7601 103.09 83.4201 103.09 83.4201C103.09 83.4201 103.67 83.2901 104.7 83.1501C105.74 83.0201 107.24 82.9001 109.08 83.0301C110.9 83.1501 113.05 83.5101 115.28 84.3601C116.39 84.7801 117.53 85.3301 118.64 86.0101C119.73 86.7001 120.79 87.5201 121.78 88.5001C122.42 89.1201 123.06 89.8401 123.65 90.6301C122.65 88.9601 121.42 87.4301 120.18 86.1401C118.91 84.8401 117.56 83.7801 116.27 83.0001C113.92 81.5501 111.27 80.8101 108.85 80.5101C108.38 80.4501 107.93 80.4301 107.47 80.4001C107.06 79.9401 106.66 79.4801 106.29 79.0601C105.36 78.0201 104.6 77.1301 104.08 76.5001C103.55 75.8701 103.24 75.5001 103.24 75.5001C103.24 75.5001 103.78 75.3801 104.74 75.2801C105.69 75.1801 107.07 75.1001 108.72 75.2201C110.35 75.3401 112.27 75.6701 114.25 76.3901C115.24 76.7501 116.25 77.2001 117.24 77.7601C118.21 78.3301 119.17 79.0101 120.07 79.8101C120.65 80.3201 121.25 80.9101 121.82 81.5801C120.86 80.1601 119.77 78.8601 118.67 77.7501C117.55 76.6401 116.38 75.7101 115.26 75.0201C114.59 74.6101 113.92 74.2701 113.21 73.9701C112.3 72.9201 111.45 71.9201 110.65 71.0401C109.82 70.1301 109.06 69.3701 108.53 68.8301C107.99 68.2801 107.68 67.9701 107.68 67.9701C107.68 67.9701 108.14 67.7601 108.98 67.4901C109.82 67.2301 111.06 66.9201 112.59 66.8201C114.12 66.7201 115.95 66.8401 117.86 67.4501C119.77 68.0501 121.73 69.1601 123.33 70.8701C123.85 71.4101 124.36 72.0501 124.82 72.7501C124.09 71.2501 123.11 69.8801 122.1 68.7301C121.07 67.5701 119.92 66.6401 118.81 65.9901C116.81 64.7701 114.51 64.2901 112.44 64.2601C110.64 64.2401 109 64.5601 107.58 64.9901C107.48 64.9001 107.37 64.8101 107.28 64.7301C106.38 63.9101 105.67 63.1601 105.21 62.6001C104.75 62.0501 104.52 61.6901 104.52 61.6901C104.52 61.6901 106.32 61.0001 108.92 60.4201C111.5 59.8801 115.11 59.3701 118.86 60.9301C119.45 61.1801 120.07 61.5001 120.71 61.9001C118.47 60.0001 116 58.8201 114.05 58.2901C110.43 57.3501 107.09 58.1801 104.5 58.8701C103.2 59.2301 102.07 59.6001 101.26 59.8601C100.45 60.1401 99.9505 60.3001 99.9505 60.3001C99.9505 60.3001 100.09 60.7101 100.45 61.3601C100.81 62.0101 101.36 62.9101 102.23 63.8501C102.92 64.6101 103.79 65.3801 104.79 66.1101C104.24 66.3901 103.76 66.6701 103.39 66.9101C102.6 67.4301 102.19 67.7601 102.19 67.7601C102.19 67.7601 102.58 68.0501 103.24 68.4901C103.89 68.9601 104.76 69.6001 105.74 70.3701C106.19 70.7301 106.67 71.1001 107.15 71.4901C107.63 71.8801 108.12 72.2901 108.61 72.7001C106.55 72.4201 104.59 72.4701 102.95 72.6801C101.24 72.8901 99.8205 73.2501 98.8505 73.5501C97.8805 73.8501 97.3305 74.0601 97.3305 74.0601C97.3305 74.0601 97.6505 74.4301 98.2405 75.0201C98.8205 75.6101 99.6905 76.4301 100.67 77.4001C101.63 78.3301 102.77 79.3801 104 80.4601C103.39 80.5201 102.8 80.5901 102.24 80.6801C100.36 80.9901 98.8405 81.4601 97.8205 81.8101Z" fill="#389444"/>
<path d="M123.24 60.8001C123.64 58.7701 124.36 56.9101 125.24 55.2801C126.13 53.6501 127.18 52.2501 128.15 51.2101C130.11 49.0701 131.83 48.1701 131.83 48.1701C131.83 48.1701 131.94 48.6801 132.09 49.5201C132.29 50.3801 132.43 51.5501 132.62 52.9401C132.92 55.3101 133.13 58.1601 132.8 61.0701C132.11 62.2101 131.48 63.4001 130.94 64.6501C130.36 66.0101 129.76 67.5301 129.21 69.1401C128.67 70.7601 128.1 72.5001 127.55 74.3301C127.92 73.4301 128.3 72.5901 128.68 71.8201C129.82 69.4901 131.13 67.3301 132.5 65.4001C133.84 63.4801 135.24 61.8001 136.52 60.4401C137.81 59.0701 138.93 58.0601 139.76 57.3901C140.58 56.7201 141.09 56.3901 141.09 56.3901C141.09 56.3901 141.11 57.0601 141.09 58.2201C141.05 59.3801 140.96 61.0201 140.78 62.9301C140.74 63.3801 140.68 63.8501 140.61 64.3301C139.5 65.5501 138.42 66.8701 137.43 68.3301C135.5 71.1501 133.48 74.9301 131.69 78.8701C132.25 77.9201 132.77 76.9901 133.33 76.1801C135.05 73.5901 136.9 71.3701 138.8 69.4701C140.67 67.5801 142.52 66.0501 144.14 64.8601C145.77 63.6701 147.17 62.8101 148.18 62.2501C149.19 61.6901 149.79 61.4601 149.79 61.4601C149.79 61.4601 149.62 62.1901 149.32 63.4601C149 64.7201 148.55 66.5001 147.83 68.5601C147.19 70.4001 146.43 72.4301 145.44 74.5401C145.4 74.5701 145.35 74.5901 145.31 74.6201C142.99 76.1701 140.64 78.1101 138.4 80.5301C135.98 83.1701 133.33 86.8201 130.99 90.7201C131.68 89.7801 132.38 88.9001 133.04 88.1101C137.25 83.1401 142.11 79.8401 145.83 77.9401C147.68 76.9901 149.25 76.3501 150.36 75.9601C151.47 75.5601 152.11 75.4101 152.11 75.4101C152.11 75.4101 151.85 76.1401 151.32 77.3601C150.78 78.5901 149.98 80.3001 148.94 82.2501C147.87 84.2201 146.59 86.4001 145.09 88.6301C144.34 89.7201 143.56 90.8101 142.74 91.9001H144.37C145.01 91.3101 145.62 90.7301 146.19 90.1601C150.29 86.0501 153.42 80.9401 155.45 76.7301C156.37 74.7101 157.07 73.1401 157.78 72.0901C158.12 71.5601 158.45 71.1801 158.68 70.9101C158.92 70.6501 159.05 70.5201 159.05 70.5201C159.05 70.5201 158.89 70.4401 158.57 70.3001C158.25 70.1901 157.76 70.0201 157.11 69.9701C155.81 69.8201 153.85 70.2401 151.83 71.1301C150.93 71.5101 150 71.9501 149.02 72.4501C149.59 71.4201 150.12 70.3801 150.58 69.3301C151.75 66.7901 152.48 64.3901 153.12 62.4401C153.77 60.4701 154.34 58.8401 154.89 57.7001C155.16 57.1301 155.4 56.6701 155.57 56.3701C155.74 56.0601 155.84 55.8901 155.84 55.8901C155.84 55.8901 155.67 55.8601 155.36 55.7901C155.04 55.7301 154.58 55.6801 153.97 55.7101C152.76 55.7401 150.97 56.1901 149.03 57.2901C147.32 58.2501 145.56 59.6001 143.85 61.1101C144.1 59.4601 144.31 57.8701 144.41 56.4301C144.54 54.4401 144.64 52.7101 144.65 51.4701C144.67 50.2501 144.64 49.5001 144.64 49.5001C144.64 49.5001 144.07 49.7401 143.11 50.2801C142.17 50.8301 140.84 51.7101 139.4 52.9901C137.81 54.3801 136.02 56.3201 134.42 58.5701C134.48 58.3801 134.53 58.2001 134.58 58.0201C135.01 56.3801 135.19 54.6801 135.18 53.0501C135.18 51.4101 135.07 49.8001 134.9 48.3401C134.75 46.9001 134.56 45.5801 134.42 44.6601C134.26 43.7301 134.14 43.1501 134.14 43.1501C134.14 43.1501 133.66 43.2901 132.85 43.6401C132.03 43.9901 130.95 44.6001 129.74 45.5301C129.15 46.0001 128.55 46.5501 127.93 47.1801C127.33 47.8101 126.74 48.5401 126.16 49.3201C125.06 50.9101 124.11 52.7801 123.58 54.8601C123.27 55.9901 123.07 57.2801 122.98 58.6301C122.87 59.9901 122.85 61.4201 122.96 62.8501C123.05 62.1501 123.11 61.4501 123.24 60.8001Z" fill="#389444"/>
<path d="M448 153.6C448 153.6 339.66 171.86 288.28 167.57C281.93 167.04 275.39 166.33 269.82 163.32C248.01 151.53 256.04 116.37 238.39 99.1899C233.89 94.8099 228.12 92.0599 222.08 89.9299H0V264H366.5C375 264 374.96 254.29 378.18 248.71C384.51 237.76 386.98 226.57 398.33 219.02C408.08 212.53 419.7 211.86 428.85 203.71C436.77 196.66 442.1 187.03 445.48 177.4C448 170.22 448 153.6 448 153.6Z" fill="#B6D7FD"/>
<path d="M420.72 120.67C419.99 114.47 424.9 109.2 428.3 103.92C432.19 97.8199 427.55 89.9299 420.19 89.9299H143.14C133.37 89.9299 125.19 97.6699 125.47 107.19C126.14 129.69 161.82 116.99 166.4 136.15C172.98 164.05 103.55 154.28 97.6699 185.54C99.7499 212.68 152.7 207.48 171.35 201.23C190.12 195.02 217.96 176.72 231.28 200.56C246.57 229.52 308.95 228.95 337.87 224.27C374.29 220.77 359.74 191.01 388.28 185.54C409.22 185.7 460.01 171.75 445.4 143.21C439.18 133.62 422.04 131.94 420.72 120.67Z" fill="#46B755"/>
</svg>
