<svg width="448" height="264" viewBox="0 0 448 264" fill="none" xmlns="http://www.w3.org/2000/svg">
<path d="M389.07 86.25C389.3 86.8 389.58 87.3901 389.88 88.0401C390.49 89.2901 391.18 90.59 391.95 91.8301C391.97 91.8601 391.99 91.9001 392.02 91.93H416.94C418.02 90.3801 418.97 88.95 419.78 87.92C420.44 87.02 420.96 86.42 421.45 86.07C421.69 85.9 421.9 85.79 422.05 85.71C422.2 85.64 422.28 85.6 422.28 85.6C422.28 85.6 422.21 85.54 422.06 85.46C421.91 85.38 421.67 85.2601 421.34 85.1501C420.68 84.9201 419.62 84.8001 418.45 84.9001C417.94 84.9401 417.39 85 416.83 85.1101C417.04 84.8901 417.25 84.7001 417.45 84.5C417.65 84.3 417.85 84.1101 418.05 83.93C419.01 83.0401 419.79 82.38 420.44 81.99C421.1 81.6 421.67 81.43 422.13 81.39C422.36 81.37 422.54 81.37 422.67 81.38C422.8 81.38 422.87 81.39 422.87 81.39C422.87 81.39 422.8 81.3401 422.67 81.2601C422.54 81.1701 422.33 81.05 422.05 80.89C421.49 80.57 420.62 80.12 419.52 79.78C418.55 79.47 417.47 79.3201 416.32 79.3301C416.85 78.8601 417.3 78.4601 417.73 78.18C417.87 78.07 418 77.9801 418.14 77.9001C418.27 77.8201 418.4 77.73 418.5 77.68C418.6 77.65 418.7 77.62 418.78 77.59C418.82 77.58 418.86 77.5601 418.89 77.5501C418.93 77.5401 418.97 77.53 419.01 77.52C419.16 77.48 419.26 77.44 419.34 77.42C419.42 77.4 419.46 77.39 419.46 77.39C419.46 77.39 419.22 77.1701 418.75 76.8301C418.28 76.4901 417.62 76.0401 416.74 75.68C416.24 75.4701 415.7 75.31 415.09 75.21C414.94 75.19 414.78 75.1701 414.62 75.1501C414.46 75.1401 414.29 75.1501 414.12 75.1601C413.78 75.1801 413.42 75.21 413.07 75.28C413.16 75.22 413.26 75.18 413.35 75.13C413.54 75.02 413.73 74.9 413.91 74.78C414.09 74.67 414.26 74.5801 414.42 74.4801L414.66 74.3301L414.91 74.1901C415.08 74.1001 415.22 73.9901 415.38 73.9001C416.02 73.5201 416.63 73.1701 417.2 72.9001C417.48 72.7801 417.75 72.66 417.99 72.56C418.24 72.47 418.46 72.38 418.64 72.32C419.02 72.21 419.24 72.1201 419.24 72.1201C419.24 72.1201 419.15 71.87 418.93 71.45C418.72 71.03 418.38 70.4801 417.84 69.9001C417.56 69.6201 417.23 69.3401 416.84 69.0801C416.45 68.8301 415.99 68.6401 415.46 68.4701C414.96 68.3301 414.42 68.28 413.8 68.28C413.21 68.32 412.55 68.4101 411.9 68.6601L412.36 68.25L412.85 67.8701C413.01 67.7401 413.17 67.6101 413.33 67.4801C413.5 67.3601 413.66 67.2401 413.82 67.1201C415.29 66.0201 416.81 65.1201 418.04 64.4101C419.27 63.7001 420.38 63.0201 421.36 62.3801C421.85 62.0601 422.3 61.78 422.72 61.46C423.13 61.18 423.51 60.9 423.83 60.62C424.16 60.33 424.44 60.11 424.68 59.87C424.92 59.64 425.12 59.4301 425.27 59.2401C425.58 58.8801 425.72 58.64 425.72 58.64C425.72 58.64 425.21 58.4601 424.36 58.2001C423.93 58.0801 423.41 58 422.82 57.89C422.53 57.83 422.21 57.8201 421.88 57.7901C421.55 57.7701 421.21 57.73 420.86 57.73C419.44 57.72 417.86 57.92 416.32 58.39C414.79 58.88 413.31 59.6601 412.09 60.6501C411.84 60.8601 411.6 61.0901 411.35 61.3301C411.23 61.4501 411.1 61.5701 410.98 61.7001C410.86 61.8301 410.74 61.97 410.62 62.1C410.38 62.38 410.15 62.6601 409.92 62.9501C409.7 63.2501 409.48 63.5701 409.27 63.8801C408.44 65.1601 407.74 66.57 407.25 68C407.36 67.42 407.45 66.85 407.56 66.35C407.66 65.84 407.73 65.3501 407.8 64.9401C407.91 64.2401 407.95 63.59 407.96 63.01C407.97 62.43 407.93 61.91 407.85 61.43C407.69 60.47 407.36 59.6901 407.06 59.0201C406.74 58.36 406.42 57.82 406.18 57.42C405.94 57.03 405.78 56.8 405.78 56.8C405.78 56.8 405.63 56.9 405.37 57.12C405.12 57.34 404.75 57.66 404.31 58.07C403.86 58.48 403.38 59.0301 402.86 59.6501C402.59 59.9501 402.34 60.3 402.09 60.67C401.84 61.03 401.57 61.4101 401.33 61.8101C401.13 62.1401 400.94 62.4801 400.76 62.8301C400.58 63.1801 400.4 63.5301 400.24 63.9001C399.93 64.6401 399.62 65.41 399.46 66.1C399.1 66.07 398.76 66.1 398.48 66.14C398.17 66.2 397.92 66.26 397.74 66.32C397.57 66.37 397.48 66.4101 397.48 66.4101C397.48 66.4101 397.34 67.01 397.19 67.93C397.03 68.87 396.88 70.13 396.8 71.52C396.76 72.16 396.76 72.8201 396.75 73.4801C396.77 74.1401 396.78 74.81 396.84 75.46C396.05 74.32 395.24 73.4801 394.46 72.9801C393.66 72.4301 392.91 72.21 392.37 72.13C391.82 72.05 391.49 72.09 391.49 72.09C391.49 72.09 391.47 72.2601 391.44 72.5801C391.42 72.8901 391.37 73.3601 391.35 73.9001C391.31 75.0001 391.31 76.51 391.48 78.1101C391.55 78.9001 391.67 79.6901 391.81 80.5101C391.96 81.3101 392.13 82.1201 392.35 82.9101C392.03 82.8201 391.72 82.7601 391.42 82.7201C390.4 82.5901 389.54 82.7901 388.94 82.9801C388.34 83.2001 388.01 83.4001 388.01 83.4001C388.01 83.4001 388.19 83.9501 388.51 84.7901C388.64 85.2201 388.84 85.7001 389.07 86.25Z" fill="#FFB546"/>
<path d="M408.5 65.1901C408.66 64.9701 408.82 64.7501 408.97 64.5401C409.13 64.3301 409.3 64.1501 409.46 63.9601C409.72 63.6801 409.98 63.3801 410.27 63.1301C410.56 62.8701 410.86 62.6201 411.16 62.3701C411.46 62.1301 411.79 61.9201 412.11 61.7001C412.27 61.6001 412.43 61.4901 412.59 61.3901C412.76 61.3001 412.92 61.2101 413.09 61.1201C414.41 60.3801 415.79 59.9401 417.03 59.6501C417.65 59.5301 418.23 59.4101 418.76 59.3801C419.29 59.3401 419.75 59.3001 420.15 59.3201C420.54 59.3301 420.85 59.3401 421.06 59.3501C421.17 59.3501 421.25 59.3601 421.3 59.3701C421.36 59.3801 421.38 59.3801 421.38 59.3801C421.38 59.3801 421.24 59.6001 420.92 59.9901C420.76 60.1801 420.57 60.4101 420.33 60.6701C420.09 60.9301 419.81 61.2201 419.51 61.5401C419.2 61.8601 418.85 62.1901 418.48 62.5701C418.29 62.7601 418.09 62.9501 417.89 63.1401C417.69 63.3401 417.48 63.5401 417.26 63.7601C416.41 64.5701 415.47 65.4701 414.43 66.4601C414.1 66.7501 413.76 67.1101 413.38 67.4401C414.98 66.2201 416.68 65.2101 418.01 64.4301C419.24 63.7201 420.35 63.0401 421.33 62.4001C421.82 62.0801 422.27 61.8001 422.69 61.4801C423.1 61.2001 423.48 60.9201 423.8 60.6401C424.13 60.3501 424.41 60.1301 424.65 59.8901C424.89 59.6601 425.09 59.4501 425.24 59.2601C425.55 58.9001 425.69 58.6601 425.69 58.6601C425.69 58.6601 425.18 58.4801 424.33 58.2201C423.9 58.1001 423.38 58.0201 422.79 57.9101C422.5 57.8501 422.18 57.8401 421.85 57.8101C421.52 57.7901 421.18 57.7501 420.83 57.7501C419.41 57.7401 417.83 57.9401 416.29 58.4101C414.76 58.9001 413.28 59.6801 412.06 60.6701C410.75 61.7801 409.46 63.3901 408.5 65.1901Z" fill="#FF790B"/>
<path d="M389.07 86.2501C389.3 86.8001 389.58 87.3901 389.88 88.0401C390.49 89.2901 391.18 90.5901 391.95 91.8301C391.97 91.8601 391.99 91.9001 392.02 91.9301H393.86C393.62 91.4501 393.39 90.9601 393.17 90.5101C392.89 89.9001 392.64 89.3501 392.42 88.8201C392.2 88.3001 392.01 87.8401 391.87 87.4501C391.56 86.6501 391.4 86.1701 391.4 86.1701C391.4 86.1701 391.72 86.1201 392.28 86.1701C392.84 86.2201 393.64 86.3801 394.6 86.8101C395.56 87.2301 396.66 87.9501 397.8 89.0101C398.65 89.8001 399.52 90.7801 400.33 91.9401H400.76C400 90.3901 399.19 88.9901 398.43 87.8801C397.28 86.2201 396.04 84.9601 394.81 84.1201C394.57 83.9601 394.34 83.8301 394.12 83.7001C393.99 83.0901 393.86 82.5001 393.77 81.9101C393.71 81.5501 393.66 81.2001 393.61 80.8701C393.57 80.5301 393.53 80.2001 393.5 79.8901C393.42 79.2701 393.4 78.7001 393.37 78.2201C393.34 77.7501 393.33 77.3601 393.33 77.0901C393.33 76.8201 393.33 76.6801 393.33 76.6801C393.33 76.6801 393.62 76.7501 394.1 76.9801C394.58 77.2201 395.23 77.6401 395.97 78.3201C397.45 79.6701 399.27 82.1601 400.78 85.5901C401.02 86.1401 401.27 86.7401 401.51 87.3801C400.74 84.7101 399.93 82.1001 399.18 80.1301C398.97 79.5401 398.71 79.0001 398.48 78.4801C398.43 77.8101 398.39 77.1401 398.39 76.4701C398.37 75.8101 398.39 75.1501 398.41 74.5201C398.42 73.8701 398.49 73.2501 398.53 72.6901C398.58 72.1301 398.65 71.6201 398.7 71.2001C398.75 70.7701 398.82 70.4201 398.86 70.1901C398.9 69.9501 398.93 69.8301 398.93 69.8301C398.93 69.8301 399.22 69.8401 399.66 70.0001C400.1 70.1601 400.7 70.5001 401.29 71.1601C401.59 71.4901 401.88 71.8901 402.16 72.3801C402.45 72.8701 402.72 73.4401 402.97 74.0901C403.48 75.3901 403.9 77.0001 404.19 78.8201C404.29 79.4001 404.36 80.0401 404.44 80.7001C404.36 78.0101 404.26 75.3001 404.01 73.2801C403.92 72.3601 403.74 71.5001 403.56 70.7401C403.36 69.9701 403.11 69.2901 402.83 68.7201C402.34 67.7201 401.7 67.0501 401.03 66.6501C401.07 66.5001 401.11 66.3501 401.18 66.1901C401.31 65.8301 401.45 65.4801 401.6 65.1401C401.74 64.8001 401.89 64.4801 402.04 64.1901C402.35 63.6101 402.63 63.0701 402.91 62.6601C403.45 61.8301 403.83 61.3401 403.83 61.3401C403.83 61.3401 404.03 61.5001 404.33 61.8201C404.63 62.1401 405.01 62.6201 405.4 63.2501C405.77 63.8801 406.16 64.6901 406.4 65.7101C406.52 66.2101 406.63 66.8001 406.69 67.4301C406.72 67.7501 406.74 68.0701 406.76 68.4201C406.78 68.7701 406.79 69.1401 406.79 69.5201C406.78 70.0101 406.79 70.5401 406.77 71.1101C406.81 70.8101 406.85 70.5201 406.88 70.2301C406.92 69.9401 406.98 69.6501 407.02 69.3701C407.07 69.0901 407.11 68.8001 407.16 68.5301C407.21 68.2601 407.26 67.9901 407.31 67.7301C407.36 67.4701 407.4 67.2101 407.45 66.9601C407.5 66.7201 407.55 66.4801 407.59 66.2501C407.68 65.8001 407.74 65.3501 407.8 64.9801C407.91 64.2801 407.95 63.6301 407.96 63.0501C407.97 62.4701 407.93 61.9501 407.85 61.4701C407.69 60.5101 407.36 59.7301 407.06 59.0601C406.74 58.4001 406.42 57.8601 406.18 57.4601C405.94 57.0701 405.78 56.8401 405.78 56.8401C405.78 56.8401 405.63 56.9401 405.37 57.1601C405.12 57.3801 404.75 57.7001 404.31 58.1101C403.86 58.5201 403.38 59.0701 402.86 59.6901C402.59 59.9901 402.34 60.3401 402.09 60.7101C401.84 61.0701 401.57 61.4501 401.33 61.8501C401.13 62.1801 400.94 62.5201 400.76 62.8701C400.58 63.2201 400.4 63.5701 400.25 63.9401C399.94 64.6801 399.63 65.4501 399.48 66.1401C399.12 66.1101 398.77 66.1301 398.49 66.1701C398.18 66.2301 397.93 66.2901 397.75 66.3501C397.58 66.4001 397.49 66.4401 397.49 66.4401C397.49 66.4401 397.35 67.0401 397.2 67.9601C397.04 68.9001 396.89 70.1601 396.81 71.5501C396.77 72.1901 396.77 72.8501 396.76 73.5101C396.78 74.1701 396.79 74.8401 396.85 75.4901C396.06 74.3501 395.25 73.5101 394.47 73.0101C393.67 72.4601 392.92 72.2401 392.38 72.1601C391.83 72.0801 391.5 72.1201 391.5 72.1201C391.5 72.1201 391.48 72.2901 391.45 72.6101C391.43 72.9201 391.38 73.3901 391.36 73.9301C391.32 75.0301 391.32 76.5401 391.49 78.1401C391.56 78.9301 391.69 79.7201 391.82 80.5401C391.98 81.3401 392.14 82.1601 392.37 82.9401C392.05 82.8501 391.73 82.7901 391.43 82.7501C390.41 82.6201 389.55 82.8201 388.95 83.0101C388.35 83.2301 388.02 83.4301 388.02 83.4301C388.02 83.4301 388.2 83.9801 388.52 84.8201C388.64 85.2201 388.84 85.7001 389.07 86.2501Z" fill="#FF790B"/>
<path d="M416.129 71.66C415.759 71.91 415.239 72.22 414.689 72.68C414.569 72.78 414.439 72.87 414.319 72.97C414.189 73.07 414.079 73.19 413.949 73.29C413.829 73.4 413.689 73.51 413.569 73.63C413.449 73.75 413.319 73.87 413.189 73.99C413.129 74.05 413.059 74.11 412.989 74.18L412.789 74.39C412.649 74.53 412.509 74.68 412.369 74.82C412.239 74.97 412.099 75.12 411.949 75.28L411.729 75.51L411.519 75.75C410.839 76.04 410.169 76.45 409.519 76.98C409.169 77.27 408.809 77.61 408.459 77.99C408.099 78.37 407.759 78.79 407.409 79.26C406.729 80.19 406.059 81.3 405.439 82.55C405.799 81.96 406.149 81.43 406.509 80.98C407.579 79.6 408.799 78.58 409.969 77.91C410.569 77.59 411.129 77.32 411.699 77.15C411.979 77.06 412.239 76.99 412.499 76.93C412.759 76.87 413.019 76.84 413.259 76.81C414.209 76.68 414.999 76.77 415.529 76.85C416.059 76.93 416.359 77.04 416.359 77.04C416.359 77.04 416.309 77.08 416.219 77.17C416.129 77.26 415.999 77.39 415.819 77.56C415.489 77.92 414.989 78.42 414.429 79.16C414.289 79.32 414.159 79.51 414.009 79.71C413.599 79.83 413.189 79.98 412.789 80.18C412.379 80.37 411.969 80.6 411.579 80.89C410.799 81.42 409.989 82.19 409.189 83.16C408.399 84.13 407.639 85.3 406.969 86.6C407.359 85.99 407.749 85.42 408.139 84.95C409.369 83.45 410.719 82.45 412.019 81.82C413.319 81.19 414.549 80.92 415.579 80.82C416.609 80.71 417.469 80.78 418.059 80.84C418.649 80.91 418.979 80.98 418.979 80.98C418.979 80.98 418.929 81.02 418.819 81.11C418.719 81.2 418.559 81.31 418.369 81.49C417.989 81.84 417.409 82.37 416.729 83.14C416.119 83.83 415.419 84.69 414.679 85.7C414.649 85.71 414.629 85.72 414.599 85.73C413.219 86.27 411.739 87.13 410.389 88.51C409.549 89.36 408.669 90.54 407.839 91.93H408.399C409.239 90.95 410.099 90.14 410.959 89.51C412.239 88.58 413.489 88.01 414.539 87.65C415.609 87.29 416.499 87.13 417.119 87.04C417.739 86.95 418.099 86.95 418.099 86.95C418.099 86.95 417.879 87.29 417.509 87.87C417.329 88.17 417.089 88.53 416.829 88.96C416.699 89.18 416.559 89.41 416.409 89.65C416.259 89.9 416.099 90.17 415.939 90.45C415.679 90.91 415.389 91.41 415.089 91.93H416.929C418.009 90.38 418.959 88.95 419.769 87.92C420.429 87.02 420.949 86.42 421.439 86.07C421.679 85.9 421.889 85.79 422.039 85.71C422.189 85.64 422.269 85.6 422.269 85.6C422.269 85.6 422.199 85.54 422.049 85.46C421.899 85.38 421.659 85.26 421.329 85.15C420.669 84.92 419.609 84.8 418.439 84.9C417.929 84.94 417.379 85 416.809 85.11C417.019 84.89 417.239 84.7 417.439 84.5C417.639 84.3 417.849 84.11 418.039 83.93C418.999 83.04 419.779 82.38 420.429 81.99C421.089 81.6 421.659 81.43 422.119 81.39C422.349 81.37 422.529 81.37 422.659 81.38C422.789 81.38 422.859 81.39 422.859 81.39C422.859 81.39 422.789 81.34 422.659 81.26C422.529 81.17 422.319 81.05 422.039 80.89C421.479 80.57 420.609 80.12 419.509 79.78C418.529 79.47 417.459 79.32 416.299 79.33C416.829 78.86 417.279 78.46 417.709 78.18C417.849 78.07 417.979 77.98 418.119 77.9C418.249 77.82 418.379 77.73 418.479 77.68C418.579 77.65 418.679 77.62 418.759 77.59C418.799 77.58 418.839 77.56 418.869 77.55C418.909 77.54 418.949 77.53 418.989 77.52C419.139 77.48 419.239 77.44 419.319 77.42C419.399 77.4 419.439 77.39 419.439 77.39C419.439 77.39 419.199 77.17 418.729 76.83C418.259 76.49 417.599 76.04 416.719 75.68C416.219 75.47 415.679 75.31 415.069 75.21C414.919 75.19 414.759 75.17 414.599 75.15C414.439 75.14 414.269 75.15 414.099 75.16C413.759 75.18 413.409 75.21 413.049 75.28C413.129 75.22 413.229 75.18 413.319 75.13C413.509 75.02 413.699 74.9 413.879 74.78C414.059 74.67 414.229 74.58 414.389 74.48L414.629 74.33L414.879 74.19C415.049 74.1 415.189 73.99 415.349 73.9C415.989 73.52 416.599 73.17 417.169 72.9C417.449 72.78 417.719 72.66 417.959 72.56C418.209 72.47 418.429 72.38 418.609 72.32C418.989 72.21 419.209 72.12 419.209 72.12C419.209 72.12 419.119 71.87 418.899 71.45C418.689 71.03 418.349 70.48 417.809 69.9C417.529 69.62 417.199 69.34 416.809 69.08C416.419 68.83 415.959 68.64 415.429 68.47C415.159 68.39 414.889 68.35 414.599 68.32C414.309 68.29 413.989 68.27 413.679 68.29C413.369 68.31 413.029 68.35 412.689 68.42C412.349 68.49 412.009 68.61 411.659 68.74C410.889 69.03 410.059 69.54 409.229 70.23C408.429 70.94 407.639 71.81 407.009 72.81C407.199 72.59 407.389 72.37 407.569 72.16C407.759 71.96 407.949 71.78 408.139 71.61C408.289 71.48 408.429 71.35 408.579 71.23C408.739 71.11 408.889 71 409.039 70.9C409.349 70.69 409.639 70.51 409.959 70.37C410.269 70.23 410.569 70.1 410.859 70C411.169 69.91 411.459 69.84 411.739 69.79C412.879 69.59 413.859 69.72 414.589 69.98C415.329 70.22 415.859 70.58 416.199 70.85C416.539 71.12 416.709 71.31 416.709 71.31C416.709 71.31 416.649 71.34 416.549 71.4C416.469 71.46 416.309 71.53 416.129 71.66Z" fill="#FF790B"/>
<path d="M73.49 75.02C73.15 74.7 72.63 74.24 71.9 73.67C70.45 72.54 68.11 70.98 65.1 69.73C62.47 68.63 59.39 67.78 56.26 67.36C57.01 66.81 57.8 66.32 58.51 65.83C58.86 65.59 59.21 65.35 59.55 65.11C59.9 64.89 60.24 64.67 60.57 64.46C61.47 63.86 62.29 63.32 63.06 62.87C63.82 62.42 64.44 61.99 65.01 61.67C66.13 61.05 66.74 60.63 66.74 60.63C66.74 60.63 66 60.07 64.62 59.21C63.24 58.39 61.2 57.28 58.57 56.41C57.1 55.9 55.48 55.51 53.72 55.27C51.96 55.03 50.01 54.93 48.06 55.09C48.31 54.98 48.58 54.86 48.82 54.75C53.07 52.67 56.57 49.8 59.73 47.58C60.49 47.02 61.23 46.52 61.91 46.06C62.59 45.61 63.15 45.16 63.68 44.86C64.71 44.21 65.31 43.77 65.31 43.77C65.31 43.77 64.87 43.14 63.97 42.15C63.08 41.14 61.72 39.88 59.83 38.63C58.88 38.04 57.81 37.49 56.59 36.98C55.37 36.49 54.07 36.19 52.62 35.94C49.89 35.58 46.75 35.82 43.6 37.08C44.24 36.36 44.92 35.66 45.59 34.96C46.26 34.26 46.88 33.52 47.54 32.82C50.41 29.61 53.19 26.54 55.06 23.72C56.04 22.36 56.86 20.94 57.57 19.51C58.3 18.12 58.91 16.71 59.41 15.31C60.46 12.6 61.07 9.87 61.43 7.64C61.78 5.37 61.86 3.45 61.81 2.1C61.77 0.77 61.65 0 61.65 0C61.65 0 60.61 0.32 58.92 0.96C57.23 1.57 54.94 2.62 52.4 3.94C47.33 6.66 41.59 10.92 38.05 16.53C35.15 21.17 32.85 28.1 31.42 34.72C31.48 33.33 31.49 32.01 31.46 30.76C31.45 29.53 31.41 28.39 31.31 27.35C30.95 23.87 30.12 21.05 29.02 18.67C27.91 16.29 26.54 14.36 25.28 12.69C24 11.04 22.8 9.68 21.93 8.7C21.06 7.72 20.49 7.15 20.49 7.15C20.49 7.15 19.57 8.16 18.22 10.01C17.53 10.92 16.78 12.09 16 13.43C15.22 14.77 14.39 16.27 13.68 17.96C13.09 19.31 12.52 20.72 12.06 22.2C11.6 23.69 11.21 25.22 10.89 26.74C9.95 26.49 9.08 26.37 8.37 26.31C6.8 26.25 5.85 26.4 5.85 26.4C5.85 26.4 5.59 27.69 5.3 29.69C5.13 30.71 5 31.94 4.83 33.29C4.68 34.64 4.47 36.09 4.35 37.68C4.24 39.12 4.12 40.63 4 42.18C3.92 43.73 3.89 45.31 3.87 46.87C2.65 44.84 1.33 43.09 0 41.66V92.27H56.15C56.22 92.23 56.28 92.18 56.35 92.14C59.1 90.28 61.67 88.75 63.75 87.55C65.78 86.39 67.3 85.68 68.72 85.38C69.4 85.22 69.99 85.16 70.41 85.12C70.84 85.09 71.07 85.08 71.07 85.08C71.07 85.08 70.87 84.95 70.48 84.7C70.08 84.47 69.46 84.1 68.57 83.7C66.81 82.88 63.91 81.97 60.66 81.47C59.25 81.24 57.71 81.04 56.14 80.93C57.37 80.38 58.58 79.83 59.77 79.3C62.64 78.1 64.87 77.1 66.81 76.47C68.71 75.8 70.46 75.52 71.78 75.46C72.43 75.42 73.02 75.45 73.4 75.48C73.79 75.49 74 75.5 74 75.5C74 75.5 73.82 75.33 73.49 75.02Z" fill="#FFB546"/>
<path d="M33.1699 27.99C33.4299 27.46 33.6799 26.94 33.9199 26.43C34.1899 25.94 34.4599 25.47 34.7099 25.01C38.0099 19.3 43.1499 14.87 47.5399 11.94C48.6499 11.22 49.6899 10.57 50.6299 10.01C51.5899 9.47 52.4599 9.03 53.1799 8.67C53.9099 8.32 54.4799 8.03 54.8799 7.84C55.2799 7.66 55.5099 7.57 55.5099 7.57C55.5099 7.57 55.5499 8.29 55.4799 9.61C55.4099 10.92 55.2199 12.78 54.7599 14.97C53.9099 19.43 52.0299 25.26 48.5699 30.91C48.0399 31.83 47.3599 32.74 46.6899 33.73C49.8899 30.23 52.9699 26.8 55.0299 23.74C56.0099 22.38 56.8299 20.96 57.5399 19.53C58.2699 18.14 58.8799 16.73 59.3799 15.33C60.4299 12.62 61.0399 9.89 61.3999 7.66C61.7499 5.39 61.8299 3.47 61.7799 2.12C61.7699 0.77 61.6499 0 61.6499 0C61.6499 0 60.6099 0.32 58.9199 0.96C57.2299 1.57 54.9399 2.62 52.3999 3.94C47.3299 6.66 41.5899 10.92 38.0499 16.53C37.1099 18.08 36.1999 19.86 35.3699 21.79C34.5999 23.77 33.7899 25.8 33.1699 27.99Z" fill="#FF790B"/>
<path d="M0 72V78.93C0.66 79.59 1.32 80.29 1.99 81.04C3.44 82.64 4.86 84.44 6.26 86.43C7.58 88.23 8.77 90.18 10 92.26H10.7C8.5 87.06 6.28 82.14 4.13 78.32C2.8 75.99 1.44 73.88 0 72Z" fill="#FF790B"/>
<path d="M31.46 30.43C31.45 29.33 31.4 28.3 31.32 27.36C30.96 23.88 30.13 21.06 29.03 18.68C27.92 16.3 26.55 14.37 25.29 12.7C24.01 11.05 22.81 9.69 21.94 8.71C21.07 7.73 20.5 7.16 20.5 7.16C20.5 7.16 19.58 8.18 18.23 10.02C17.54 10.93 16.79 12.1 16.01 13.44C15.23 14.78 14.4 16.28 13.69 17.97C13.1 19.32 12.53 20.73 12.08 22.22C11.63 23.71 11.24 25.24 10.93 26.77C9.98 26.52 9.1 26.39 8.38 26.34C6.81 26.28 5.86 26.43 5.86 26.43C5.86 26.43 5.6 27.72 5.31 29.72C5.14 30.74 5.01 31.97 4.84 33.32C4.69 34.67 4.48 36.12 4.36 37.71C4.25 39.15 4.13 40.66 4.01 42.21C3.93 43.76 3.9 45.34 3.88 46.9C2.65 44.84 1.33 43.09 0 41.66V52.35C0.24 52.6 0.48 52.87 0.72 53.14C4.42 57.3 8.44 64.41 11.44 73.59C11.94 75.06 12.38 76.64 12.86 78.33C11.58 71.43 10.4 64.58 9 59.39C8.6 57.84 8.06 56.38 7.59 54.99C7.67 53.36 7.76 51.72 7.89 50.14C8.05 48.56 8.21 47.02 8.36 45.56C8.53 44.05 8.77 42.66 8.94 41.38C9.13 40.1 9.3 38.95 9.48 38.02C9.85 36.1 10.07 34.97 10.07 34.97C10.07 34.97 10.83 35.16 12.02 35.78C13.21 36.41 14.81 37.52 16.4 39.4C18.02 41.27 19.55 43.87 20.78 47.26C21.99 50.63 22.86 54.72 23.14 59.23C23.24 60.67 23.22 62.21 23.25 63.85C23.92 57.42 24.21 50.88 23.65 45.95C23.16 41.41 21.95 37.52 20.22 34.49C18.76 31.89 16.96 30.03 15.1 28.76C15.18 28.44 15.27 28.1 15.35 27.79C16.11 24.77 17.17 22.26 17.97 20.46C18.37 19.56 18.74 18.86 19 18.39C19.27 17.92 19.41 17.66 19.41 17.66C19.41 17.66 21.75 19.41 24.36 22.62C25.65 24.24 27.02 26.24 28.19 28.82C28.77 30.1 29.29 31.52 29.71 33.07C29.92 33.84 30.1 34.65 30.26 35.5C30.43 36.36 30.58 37.25 30.69 38.18C30.83 39.37 30.89 40.65 30.93 42.05C31.23 39.24 31.35 36.47 31.45 34.01C31.49 32.74 31.49 31.55 31.46 30.43Z" fill="#FF790B"/>
<path d="M31.5195 63.9301C32.3895 63.3901 33.2495 62.9001 34.0995 62.4601C35.8695 61.6101 37.5895 60.9401 39.2495 60.4401C40.9595 59.9601 42.5795 59.6401 44.1095 59.4401C45.6595 59.2601 47.1295 59.2101 48.4595 59.2501C51.0895 59.3001 53.2895 59.7401 54.7595 60.1101C56.2395 60.4801 57.0595 60.8101 57.0595 60.8101C57.0595 60.8101 56.4895 61.3301 55.4195 62.2101C54.4095 63.1201 52.9095 64.3801 51.1695 65.9701C50.7395 66.3301 50.3095 66.7201 49.8795 67.1301C48.7495 67.2101 47.5895 67.3501 46.4095 67.5701C45.2295 67.7901 44.0895 68.1201 42.9095 68.5401C38.3795 70.1101 32.9995 73.6101 28.4495 78.9401C29.0895 78.3401 29.7195 77.7701 30.3395 77.2301C30.9695 76.7001 31.6095 76.2201 32.2295 75.7901C39.9995 70.3101 48.2595 70.09 53.8895 70.7701C56.7695 71.1301 59.0695 71.7201 60.6795 72.1901C62.2895 72.6701 63.1695 73.0401 63.1695 73.0401C63.1695 73.0401 62.5095 73.4001 61.3495 74.0201C60.7395 74.3301 60.0595 74.7301 59.2295 75.1901C58.8095 75.4201 58.3595 75.6701 57.8895 75.9301C57.4295 76.2101 56.9395 76.5001 56.4395 76.8001C55.9695 77.0801 55.4895 77.3701 54.9895 77.6601C54.4995 77.9801 53.9895 78.3101 53.4695 78.6401C52.3795 79.3101 51.2995 80.07 50.1395 80.8801C50.0595 80.8801 49.9895 80.8901 49.9195 80.8901C47.9095 81.0501 45.8595 81.3901 43.7695 81.9801C42.7295 82.2801 41.6495 82.6301 40.5995 83.0601C39.5595 83.5 38.5195 84.0101 37.4795 84.6001C34.5695 86.2401 31.4295 88.8201 28.5695 92.2401H29.8195C29.9495 92.1201 30.0795 92.0001 30.2195 91.8901C31.1695 91.1201 32.1195 90.43 33.0695 89.8101C34.9395 88.57 36.9495 87.6301 38.8195 86.8901C40.6895 86.1601 42.5895 85.6501 44.3395 85.3001C46.0995 84.9501 47.7595 84.7501 49.2595 84.6401C52.3295 84.4401 54.8595 84.5801 56.6095 84.7201C58.3595 84.8701 59.3495 85.0501 59.3495 85.0501C59.3495 85.0501 58.6695 85.5401 57.4995 86.3901C56.9095 86.8401 56.1895 87.3901 55.3695 88.0101C54.5295 88.6501 53.6495 89.4101 52.5995 90.2501C51.8695 90.8501 51.1095 91.5301 50.3195 92.2401H56.1595C56.2295 92.2001 56.2895 92.1501 56.3595 92.1101C59.1095 90.2501 61.6795 88.7201 63.7595 87.5201C65.7895 86.3601 67.3095 85.6501 68.7295 85.3501C69.4095 85.1901 69.9995 85.1301 70.4195 85.09C70.8495 85.0601 71.0795 85.0501 71.0795 85.0501C71.0795 85.0501 70.8795 84.9201 70.4895 84.6701C70.0895 84.4401 69.4695 84.0701 68.5795 83.6701C66.8195 82.8501 63.9195 81.9401 60.6695 81.4401C59.2495 81.2101 57.6995 81.0101 56.1195 80.9001C57.3895 80.3201 58.6695 79.8 59.7795 79.2701C62.6495 78.07 64.8795 77.0701 66.8195 76.4401C68.7195 75.7701 70.4695 75.4901 71.7895 75.4301C72.4395 75.3901 73.0295 75.4201 73.4095 75.4501C73.7895 75.4901 73.9995 75.5001 73.9995 75.5001C73.9995 75.5001 73.8195 75.3301 73.4895 75.0201C73.1495 74.7001 72.6295 74.2401 71.8995 73.6701C70.4495 72.5401 68.1095 70.9801 65.0995 69.7301C62.4595 68.6301 59.3795 67.7801 56.2395 67.3601C56.9895 66.8101 57.7795 66.3201 58.4995 65.8301C58.8495 65.5901 59.1995 65.3501 59.5395 65.1101C59.8895 64.8901 60.2295 64.6701 60.5695 64.4601C61.4695 63.8601 62.2895 63.3201 63.0595 62.8701C63.8195 62.4201 64.4395 61.9901 65.0095 61.6701C66.1295 61.0501 66.7395 60.6301 66.7395 60.6301C66.7395 60.6301 65.9995 60.0701 64.6195 59.2101C63.2395 58.3901 61.1995 57.2801 58.5695 56.4101C57.1095 55.9101 55.4895 55.5101 53.7295 55.2801C51.9695 55.0401 50.0295 54.9301 48.0795 55.1001C48.3295 54.9901 48.5695 54.8701 48.8095 54.7601C53.0595 52.6801 56.5595 49.8101 59.7195 47.5901C60.4795 47.0301 61.2195 46.5301 61.8995 46.0701C62.5795 45.6201 63.1395 45.1701 63.6695 44.8701C64.6995 44.2201 65.2995 43.7801 65.2995 43.7801C65.2995 43.7801 64.8595 43.1501 63.9595 42.1601C63.0695 41.1501 61.7095 39.8901 59.8195 38.6401C58.8795 38.0501 57.7995 37.5001 56.5795 36.9901C55.3595 36.5001 54.0595 36.2001 52.6095 35.9501C51.1795 35.7701 49.5995 35.7101 48.0095 35.9301C46.4095 36.1301 44.7095 36.5301 43.0695 37.2801C39.4095 38.7701 35.1895 42.0201 31.7595 46.3001C32.7695 45.3801 33.7095 44.5001 34.6695 43.8201C37.6995 41.6501 40.8495 40.4801 43.7395 40.0101C45.1995 39.7901 46.5695 39.7201 47.8395 39.7701C49.1095 39.8301 50.2995 40.0301 51.3395 40.2901C53.4395 40.8001 55.0195 41.5301 56.0995 42.1401C57.1795 42.7501 57.7495 43.2201 57.7495 43.2201C57.7495 43.2201 57.6095 43.3401 57.3495 43.5501C57.0995 43.7701 56.7295 44.1001 56.2795 44.5101C55.8195 44.9401 55.2495 45.4101 54.6295 45.9501C54.0195 46.5101 53.3395 47.1301 52.5995 47.8101C50.0695 50.1301 47.1695 53.0001 43.8195 55.7601C41.9695 56.2401 40.0195 56.9101 38.1995 57.9001C34.1395 60.0301 29.7295 63.6001 25.5195 68.7801C26.6495 67.5701 27.8695 66.5701 28.9495 65.7101C29.7795 65.0601 30.6495 64.4601 31.5195 63.9301Z" fill="#FF790B"/>
<path d="M97.8205 81.8099C96.7905 82.1899 96.2305 82.4399 96.2305 82.4399C96.2305 82.4399 96.6805 82.7599 97.4605 83.2699C98.2305 83.7699 99.3205 84.4999 100.58 85.4099C103.12 87.1799 106.13 89.5399 109.58 91.8099C109.64 91.8499 109.71 91.8899 109.77 91.9299H144.37C145.01 91.3399 145.63 90.7599 146.19 90.1899C150.29 86.0799 153.42 80.9699 155.45 76.7599C156.37 74.7399 157.07 73.1699 157.78 72.1199C158.12 71.5899 158.45 71.2099 158.68 70.9399C158.92 70.6799 159.05 70.5499 159.05 70.5499C159.05 70.5499 158.89 70.4699 158.57 70.3299C158.25 70.2199 157.76 70.0499 157.11 69.9999C155.81 69.8499 153.85 70.2699 151.83 71.1599C150.94 71.5399 150.01 71.9699 149.04 72.4699C149.61 71.4399 150.12 70.3999 150.58 69.3599C151.75 66.8199 152.48 64.4199 153.12 62.4699C153.77 60.4999 154.34 58.8699 154.89 57.7299C155.16 57.1599 155.4 56.6999 155.57 56.3999C155.74 56.0899 155.84 55.9199 155.84 55.9199C155.84 55.9199 155.67 55.8899 155.36 55.8199C155.04 55.7599 154.58 55.7099 153.97 55.7399C152.76 55.7699 150.97 56.2199 149.03 57.3199C147.32 58.2799 145.57 59.6299 143.86 61.1299C144.11 59.4799 144.31 57.8999 144.41 56.4599C144.54 54.4699 144.64 52.7399 144.65 51.4999C144.67 50.2799 144.64 49.5299 144.64 49.5299C144.64 49.5299 144.07 49.7699 143.11 50.3099C142.17 50.8599 140.84 51.7399 139.4 53.0199C137.8 54.4099 136.01 56.3499 134.41 58.6099C134.47 58.4199 134.53 58.2199 134.59 58.0399C135.02 56.3999 135.2 54.6999 135.19 53.0699C135.19 51.4299 135.08 49.8199 134.91 48.3599C134.76 46.9199 134.57 45.5999 134.43 44.6799C134.27 43.7499 134.15 43.1699 134.15 43.1699C134.15 43.1699 133.67 43.3099 132.86 43.6599C132.04 44.0099 130.96 44.6199 129.75 45.5499C129.16 46.0199 128.56 46.5699 127.94 47.1999C127.34 47.8299 126.75 48.5599 126.17 49.3399C125.13 50.8499 124.23 52.6199 123.69 54.5699C123.48 53.5199 123.17 52.4899 122.84 51.4999C122.1 49.2599 121.03 47.2599 119.92 45.8799C118.76 44.5099 117.35 43.5599 115.91 42.9399C114.45 42.3299 112.96 42.0499 111.67 41.9699C110.37 41.8899 109.25 41.9799 108.45 42.1099C107.65 42.2299 107.18 42.3599 107.18 42.3599C107.18 42.3599 107.21 42.8399 107.32 43.5999C107.43 44.3599 107.61 45.4099 107.89 46.5599C108.14 47.7299 108.48 48.9999 108.99 50.2299C109.47 51.4799 110.11 52.6899 111.02 53.7699C111.76 54.6599 112.78 55.6099 113.95 56.6099C115.12 57.6199 116.37 58.7099 117.61 59.7799C116.34 59.0899 115.12 58.5899 114.05 58.2999C110.43 57.3599 107.09 58.1899 104.5 58.8799C103.2 59.2399 102.07 59.6099 101.26 59.8699C100.45 60.1499 99.9505 60.3099 99.9505 60.3099C99.9505 60.3099 100.09 60.7199 100.45 61.3699C100.81 62.0199 101.36 62.9199 102.23 63.8599C102.92 64.6199 103.78 65.3999 104.77 66.1299C104.22 66.4099 103.76 66.6899 103.38 66.9199C102.59 67.4399 102.18 67.7699 102.18 67.7699C102.18 67.7699 102.57 68.0599 103.23 68.4999C103.88 68.9699 104.75 69.6099 105.73 70.3799C106.18 70.7399 106.66 71.1099 107.14 71.4999C107.62 71.8899 108.11 72.2999 108.6 72.7099C106.54 72.4299 104.58 72.4799 102.94 72.6899C101.23 72.8999 99.8105 73.2599 98.8405 73.5599C97.8705 73.8599 97.3205 74.0699 97.3205 74.0699C97.3205 74.0699 97.6405 74.4399 98.2305 75.0299C98.8105 75.6199 99.6805 76.4399 100.66 77.4099C101.62 78.3399 102.75 79.3899 103.98 80.4699C103.37 80.5299 102.79 80.5999 102.24 80.6899C100.36 80.9899 98.8405 81.4599 97.8205 81.8099Z" fill="#FFB546"/>
<path d="M115.11 57.5899C114.8 57.1599 114.5 56.7599 114.22 56.3799C113.39 55.1799 112.83 53.8799 112.36 52.6099C111.88 51.3499 111.58 50.0799 111.31 48.9499C111.04 47.8299 110.87 46.8299 110.77 46.1099C110.67 45.3899 110.62 44.9499 110.62 44.9499C110.62 44.9499 111.07 44.9099 111.8 44.9499C112.54 44.9899 113.57 45.0999 114.76 45.4099C117.14 46.0099 120.13 47.5499 122.14 50.5399C122.46 51.0099 122.76 51.5499 123.05 52.1299C122.29 49.6399 121.15 47.3799 119.92 45.8799C118.76 44.5099 117.35 43.5599 115.91 42.9399C114.45 42.3299 112.96 42.0499 111.67 41.9699C110.37 41.8899 109.25 41.9799 108.45 42.1099C107.65 42.2299 107.18 42.3599 107.18 42.3599C107.18 42.3599 107.21 42.8399 107.32 43.5999C107.43 44.3599 107.61 45.4099 107.89 46.5599C108.14 47.7299 108.48 48.9999 108.99 50.2299C109.47 51.4799 110.11 52.6899 111.02 53.7699C112 54.9399 113.5 56.1999 115.11 57.5899Z" fill="#FF790B"/>
<path d="M97.8205 81.8099C96.7905 82.1899 96.2305 82.4399 96.2305 82.4399C96.2305 82.4399 96.6805 82.7599 97.4605 83.2699C98.2305 83.7699 99.3205 84.4999 100.58 85.4099C103.12 87.1799 106.13 89.5399 109.58 91.8099C109.64 91.8499 109.71 91.8899 109.77 91.9299H111.95C111.5 91.4599 111.04 90.9899 110.6 90.5399C109.25 89.1899 108.03 87.9499 106.92 86.8999C105.77 85.8299 104.83 84.9699 104.16 84.3799C103.49 83.7599 103.09 83.4199 103.09 83.4199C103.09 83.4199 103.67 83.2899 104.7 83.1499C105.74 83.0199 107.24 82.8999 109.08 83.0299C110.9 83.1499 113.05 83.5099 115.28 84.3599C116.39 84.7799 117.53 85.3299 118.64 86.0099C119.73 86.6999 120.79 87.5199 121.78 88.4999C122.42 89.1199 123.06 89.8399 123.65 90.6299C122.65 88.9599 121.42 87.4299 120.18 86.1399C118.91 84.8399 117.56 83.7799 116.27 82.9999C113.92 81.5499 111.27 80.8099 108.85 80.5099C108.38 80.4499 107.93 80.4299 107.47 80.3999C107.06 79.9399 106.66 79.4799 106.29 79.0599C105.36 78.0199 104.6 77.1299 104.08 76.4999C103.55 75.8699 103.24 75.4999 103.24 75.4999C103.24 75.4999 103.78 75.3799 104.74 75.2799C105.69 75.1799 107.07 75.0999 108.72 75.2199C110.35 75.3399 112.27 75.6699 114.25 76.3899C115.24 76.7499 116.25 77.1999 117.24 77.7599C118.21 78.3299 119.17 79.0099 120.07 79.8099C120.65 80.3199 121.25 80.9099 121.82 81.5799C120.86 80.1599 119.77 78.8599 118.67 77.7499C117.55 76.6399 116.38 75.7099 115.26 75.0199C114.59 74.6099 113.92 74.2699 113.21 73.9699C112.3 72.9199 111.45 71.9199 110.65 71.0399C109.82 70.1299 109.06 69.3699 108.53 68.8299C107.99 68.2799 107.68 67.9699 107.68 67.9699C107.68 67.9699 108.14 67.7599 108.98 67.4899C109.82 67.2299 111.06 66.9199 112.59 66.8199C114.12 66.7199 115.95 66.8399 117.86 67.4499C119.77 68.0499 121.73 69.1599 123.33 70.8699C123.85 71.4099 124.36 72.0499 124.82 72.7499C124.09 71.2499 123.11 69.8799 122.1 68.7299C121.07 67.5699 119.92 66.6399 118.81 65.9899C116.81 64.7699 114.51 64.2899 112.44 64.2599C110.64 64.2399 109 64.5599 107.58 64.9899C107.48 64.8999 107.37 64.8099 107.28 64.7299C106.38 63.9099 105.67 63.1599 105.21 62.5999C104.75 62.0499 104.52 61.6899 104.52 61.6899C104.52 61.6899 106.32 60.9999 108.92 60.4199C111.5 59.8799 115.11 59.3699 118.86 60.9299C119.45 61.1799 120.07 61.4999 120.71 61.8999C118.47 59.9999 116 58.8199 114.05 58.2899C110.43 57.3499 107.09 58.1799 104.5 58.8699C103.2 59.2299 102.07 59.5999 101.26 59.8599C100.45 60.1399 99.9505 60.2999 99.9505 60.2999C99.9505 60.2999 100.09 60.7099 100.45 61.3599C100.81 62.0099 101.36 62.9099 102.23 63.8499C102.92 64.6099 103.79 65.3799 104.79 66.1099C104.24 66.3899 103.76 66.6699 103.39 66.9099C102.6 67.4299 102.19 67.7599 102.19 67.7599C102.19 67.7599 102.58 68.0499 103.24 68.4899C103.89 68.9599 104.76 69.5999 105.74 70.3699C106.19 70.7299 106.67 71.0999 107.15 71.4899C107.63 71.8799 108.12 72.2899 108.61 72.6999C106.55 72.4199 104.59 72.4699 102.95 72.6799C101.24 72.8899 99.8205 73.2499 98.8505 73.5499C97.8805 73.8499 97.3305 74.0599 97.3305 74.0599C97.3305 74.0599 97.6505 74.4299 98.2405 75.0199C98.8205 75.6099 99.6905 76.4299 100.67 77.3999C101.63 78.3299 102.77 79.3799 104 80.4599C103.39 80.5199 102.8 80.5899 102.24 80.6799C100.36 80.9899 98.8405 81.4599 97.8205 81.8099Z" fill="#FF790B"/>
<path d="M123.24 60.7999C123.64 58.7699 124.36 56.9099 125.24 55.2799C126.13 53.6499 127.18 52.2499 128.15 51.2099C130.11 49.0699 131.83 48.1699 131.83 48.1699C131.83 48.1699 131.94 48.6799 132.09 49.5199C132.29 50.3799 132.43 51.5499 132.62 52.9399C132.92 55.3099 133.13 58.1599 132.8 61.0699C132.11 62.2099 131.48 63.3999 130.94 64.6499C130.36 66.0099 129.76 67.5299 129.21 69.1399C128.67 70.7599 128.1 72.4999 127.55 74.3299C127.92 73.4299 128.3 72.5899 128.68 71.8199C129.82 69.4899 131.13 67.3299 132.5 65.3999C133.84 63.4799 135.24 61.7999 136.52 60.4399C137.81 59.0699 138.93 58.0599 139.76 57.3899C140.58 56.7199 141.09 56.3899 141.09 56.3899C141.09 56.3899 141.11 57.0599 141.09 58.2199C141.05 59.3799 140.96 61.0199 140.78 62.9299C140.74 63.3799 140.68 63.8499 140.61 64.3299C139.5 65.5499 138.42 66.8699 137.43 68.3299C135.5 71.1499 133.48 74.9299 131.69 78.8699C132.25 77.9199 132.77 76.9899 133.33 76.1799C135.05 73.5899 136.9 71.3699 138.8 69.4699C140.67 67.5799 142.52 66.0499 144.14 64.8599C145.77 63.6699 147.17 62.8099 148.18 62.2499C149.19 61.6899 149.79 61.4599 149.79 61.4599C149.79 61.4599 149.62 62.1899 149.32 63.4599C149 64.7199 148.55 66.4999 147.83 68.5599C147.19 70.3999 146.43 72.4299 145.44 74.5399C145.4 74.5699 145.35 74.5899 145.31 74.6199C142.99 76.1699 140.64 78.1099 138.4 80.5299C135.98 83.1699 133.33 86.8199 130.99 90.7199C131.68 89.7799 132.38 88.8999 133.04 88.1099C137.25 83.1399 142.11 79.8399 145.83 77.9399C147.68 76.9899 149.25 76.3499 150.36 75.9599C151.47 75.5599 152.11 75.4099 152.11 75.4099C152.11 75.4099 151.85 76.1399 151.32 77.3599C150.78 78.5899 149.98 80.2999 148.94 82.2499C147.87 84.2199 146.59 86.3999 145.09 88.6299C144.34 89.7199 143.56 90.8099 142.74 91.8999H144.37C145.01 91.3099 145.62 90.7299 146.19 90.1599C150.29 86.0499 153.42 80.9399 155.45 76.7299C156.37 74.7099 157.07 73.1399 157.78 72.0899C158.12 71.5599 158.45 71.1799 158.68 70.9099C158.92 70.6499 159.05 70.5199 159.05 70.5199C159.05 70.5199 158.89 70.4399 158.57 70.2999C158.25 70.1899 157.76 70.0199 157.11 69.9699C155.81 69.8199 153.85 70.2399 151.83 71.1299C150.93 71.5099 150 71.9499 149.02 72.4499C149.59 71.4199 150.12 70.3799 150.58 69.3299C151.75 66.7899 152.48 64.3899 153.12 62.4399C153.77 60.4699 154.34 58.8399 154.89 57.6999C155.16 57.1299 155.4 56.6699 155.57 56.3699C155.74 56.0599 155.84 55.8899 155.84 55.8899C155.84 55.8899 155.67 55.8599 155.36 55.7899C155.04 55.7299 154.58 55.6799 153.97 55.7099C152.76 55.7399 150.97 56.1899 149.03 57.2899C147.32 58.2499 145.56 59.5999 143.85 61.1099C144.1 59.4599 144.31 57.8699 144.41 56.4299C144.54 54.4399 144.64 52.7099 144.65 51.4699C144.67 50.2499 144.64 49.4999 144.64 49.4999C144.64 49.4999 144.07 49.7399 143.11 50.2799C142.17 50.8299 140.84 51.7099 139.4 52.9899C137.81 54.3799 136.02 56.3199 134.42 58.5699C134.48 58.3799 134.53 58.1999 134.58 58.0199C135.01 56.3799 135.19 54.6799 135.18 53.0499C135.18 51.4099 135.07 49.7999 134.9 48.3399C134.75 46.8999 134.56 45.5799 134.42 44.6599C134.26 43.7299 134.14 43.1499 134.14 43.1499C134.14 43.1499 133.66 43.2899 132.85 43.6399C132.03 43.9899 130.95 44.5999 129.74 45.5299C129.15 45.9999 128.55 46.5499 127.93 47.1799C127.33 47.8099 126.74 48.5399 126.16 49.3199C125.06 50.9099 124.11 52.7799 123.58 54.8599C123.27 55.9899 123.07 57.2799 122.98 58.6299C122.87 59.9899 122.85 61.4199 122.96 62.8499C123.05 62.1499 123.11 61.4499 123.24 60.7999Z" fill="#FF790B"/>
<path d="M448 153.6C448 153.6 339.66 171.86 288.28 167.57C281.93 167.04 275.39 166.33 269.82 163.32C248.01 151.53 256.04 116.37 238.39 99.19C233.89 94.81 228.12 92.06 222.08 89.93H0V264H366.5C370.98 259.37 374.96 254.29 378.18 248.71C384.51 237.76 386.98 226.57 398.33 219.02C408.08 212.53 419.7 211.86 428.85 203.71C436.77 196.66 442.1 187.03 445.48 177.4C448 170.22 448 153.6 448 153.6Z" fill="#B6D7FD"/>
<path d="M420.851 120.67C420.121 114.47 425.031 109.2 428.431 103.92C432.321 97.8199 427.681 89.9299 420.321 89.9299H143.271C133.501 89.9299 125.321 97.6699 125.601 107.19C126.271 129.69 161.951 116.99 166.531 136.15C173.111 164.05 103.681 154.28 97.8008 185.54C99.6208 209.31 133.691 208.21 150.301 205.62C181.631 200.74 214.131 207.13 242.651 220.48C267.391 232.06 295.781 236.18 322.541 230.73C341.231 226.93 359.001 218.37 373.491 205.93C379.971 200.37 385.001 191.97 392.031 187.58C401.231 181.82 413.381 182.32 423.311 178.31C437.611 172.54 454.391 160.51 445.531 143.19C439.311 133.62 422.171 131.94 420.851 120.67Z" fill="#389444"/>
</svg>
