<svg width="448" height="264" viewBox="0 0 448 264" fill="none" xmlns="http://www.w3.org/2000/svg">
<path d="M151.56 80.4401C150.02 79.4301 147.44 80.2501 145.02 82.2201C142.6 84.1901 140.33 87.2801 139.31 90.8301C140.09 87.4101 140.53 84.0401 140.71 80.8601C140.89 77.7001 140.8 74.7701 140.5 72.2101C140.19 69.6701 139.66 67.4701 138.92 65.7501C138.16 64.0401 137.21 62.8201 136.09 62.2301C134.37 61.3201 132.46 62.0401 130.62 63.9801C128.77 65.9201 126.95 69.1001 125.31 73.1001C125.13 65.1701 123.72 57.6201 121.65 51.9901C120.63 49.1601 119.44 46.8201 118.23 45.0901C116.99 43.3901 115.72 42.3201 114.48 42.0501C111.44 41.4001 109.36 45.7401 108.42 52.7101C108.14 52.1401 107.85 51.5601 107.56 50.9701C103.57 43.0601 98.75 36.2401 94.4 31.6501C92.24 29.3401 90.17 27.6201 88.43 26.5301C86.66 25.4701 85.19 25.0701 84.16 25.4601C81.31 26.5301 82.49 33.1201 86.01 41.9701C79.91 36.0401 73.65 31.4801 68.59 28.8101C67.32 28.1401 66.13 27.5901 65.04 27.1501C63.94 26.7301 62.93 26.4201 62.05 26.2401C60.27 25.8801 58.96 26.0201 58.23 26.7301C57.65 27.5601 57.72 28.8801 58.33 30.5601C58.64 31.4001 59.08 32.3201 59.65 33.3201C60.21 34.3301 60.89 35.4101 61.68 36.5501C64.85 41.1201 69.7 46.7101 75.46 52.5001C66.76 49.3001 60.34 49.1101 59.4 51.9001C59.05 52.9301 59.46 54.2601 60.48 55.8001C61.48 57.3701 63.13 59.1001 65.21 61.0101C66.69 62.3401 68.41 63.7501 70.31 65.1901C70.15 65.3301 69.99 65.4801 69.82 65.6401C69.03 66.4201 68.18 67.4101 67.36 68.6001C66.55 69.7901 65.74 71.1801 64.92 72.7301C63.82 74.8801 62.76 77.3701 61.79 80.1401C61.83 77.4601 61.66 75.1401 61.22 73.3101C60.49 70.2901 59.03 68.5001 56.73 68.3901C53.53 68.2501 49.21 71.5401 44.98 77.1701C46.43 74.5301 47.68 72.0701 48.66 69.8601C51.07 64.3701 51.77 60.2701 49.84 58.3501C48.68 57.1901 46.65 56.9801 44.04 57.6601C41.41 58.3501 38.26 59.9301 34.84 62.4001C35.05 61.7501 35.27 61.1001 35.48 60.4501C38.34 51.5401 40.62 43.5001 41.61 37.2801C41.88 35.7301 42.04 34.2901 42.09 32.9701C42.18 31.6601 42.17 30.4801 42.04 29.4501C41.77 27.3801 41.13 25.9001 39.96 25.1901C38.37 24.2201 35.98 24.8101 33.24 26.8201C31.88 27.8301 30.42 29.1801 28.9 30.8701C27.43 32.5601 25.9 34.5801 24.4 36.9001C25.27 27.3701 25.8 18.7301 25.53 12.1301C25.48 10.4901 25.36 8.97006 25.17 7.60006C24.99 6.23006 24.78 5.02006 24.47 3.98006C23.86 1.90006 22.95 0.510062 21.72 0.0400617C20.43 -0.209938 18.95 0.510062 17.35 2.07006C16.56 2.85006 15.71 3.84006 14.89 5.03006C14.08 6.22006 13.26 7.61006 12.45 9.16006C9.25 15.3901 6.37 24.5301 5.22 34.9501C3.47 29.8801 1.73 25.5501 0 22.4101V117.23H153.39C153.96 116.01 154.48 114.75 154.94 113.42C155.26 112.48 155.55 111.51 155.81 110.52C156.06 109.54 156.28 108.55 156.47 107.55C157.22 103.55 157.42 99.4601 157.17 95.7301C156.66 88.2301 154.43 82.3501 151.56 80.4401Z" fill="#FF9432"/>
<path d="M406.179 82.69C405.379 83.3 404.509 84.12 403.539 85.1C402.589 86.08 401.579 87.24 400.499 88.53C402.289 82.76 403.129 77.35 403.179 73.32C403.229 69.28 402.519 66.64 401.269 66.25C399.929 66.12 398.299 68.25 396.579 71.75C394.849 75.25 392.999 80.12 391.209 85.58C391.069 83.98 390.829 82.53 390.549 81.26C390.269 79.99 389.919 78.9 389.539 78.03C388.779 76.28 387.849 75.38 386.889 75.57C385.469 75.84 384.229 78.34 383.199 82.15C382.169 85.96 381.319 91.09 380.719 96.75C380.679 97.17 380.629 97.58 380.589 97.99C379.519 95.97 378.369 94.46 377.299 93.58C376.229 92.7 375.229 92.44 374.399 92.93C373.729 93.33 373.229 94.18 372.889 95.39C372.559 96.61 372.369 98.17 372.339 100C372.309 100.91 372.329 101.9 372.379 102.94C372.419 103.98 372.489 105.07 372.599 106.21C372.799 108.48 373.139 110.95 373.589 113.45C370.479 108.75 367.129 106.51 365.289 107.86C364.079 108.74 363.699 110.98 363.939 113.97C364.029 115.11 364.209 116.36 364.459 117.69H400.439C400.969 117.25 401.479 116.81 401.969 116.37C402.839 115.57 403.649 114.77 404.369 113.99C405.799 112.42 406.929 110.91 407.629 109.57C408.339 108.24 408.629 107.08 408.439 106.22C408.209 105.17 407.299 104.68 405.889 104.67C404.479 104.66 402.579 105.14 400.329 105.99C400.599 105.62 400.869 105.26 401.149 104.88C404.829 99.78 407.559 94.48 409.039 90.22C410.529 85.96 410.809 82.76 409.749 81.76C409.039 81.06 407.789 81.47 406.179 82.69Z" fill="#FF9432"/>
<path d="M438.69 165.94C438.95 165.79 439.2 165.62 439.45 165.46C452.05 157.06 449.78 136.46 438.81 126.04C432.2 119.8 423.44 116.32 414.32 116.32H0V264H391.14C397.22 264 402.69 259.88 403.89 253.95C404.05 253.14 404.14 252.31 404.14 251.47C404.12 245.45 399.84 239.05 406.01 234.18C407.33 233.14 408.87 232.42 410.48 231.94C421.37 228.66 432.99 224.69 439.33 214.42C442.59 209.14 443.43 202.61 440.85 196.97C439.82 194.72 438.42 192.9 436.74 191.37C428.81 184.19 429.52 171.47 438.69 165.94Z" fill="#B6D7FD"/>
<path d="M323.641 174.24C321.221 171.6 318.261 169.34 314.901 167.63C320.511 166.77 325.821 163.83 329.091 159.04C341.901 140.24 299.991 130.29 291.611 129.01C249.871 122.67 207.581 127.9 167.281 140.33C152.561 144.87 114.621 158.49 121.141 185.28C125.291 202.33 146.941 207.73 158.751 211.1C186.321 218.97 214.931 224.86 243.351 225.98C256.921 226.51 271.101 226.41 284.721 224.05C297.531 221.83 313.081 218.39 323.301 208.16C331.941 199.53 332.321 183.68 323.641 174.24Z" fill="#389444"/>
</svg>
