<svg width="112" height="112" viewBox="0 0 112 112" fill="none" xmlns="http://www.w3.org/2000/svg">
<path d="M56 112C86.9279 112 112 86.9279 112 56C112 25.0721 86.9279 0 56 0C25.0721 0 0 25.0721 0 56C0 86.9279 25.0721 112 56 112Z" fill="#FFCC4D"/>
<path d="M79.2846 85.1782C79.1446 84.6214 75.6508 71.5547 55.9979 71.5547C36.3419 71.5547 32.8513 84.6214 32.7113 85.1782C32.5402 85.8534 32.8451 86.5534 33.4486 86.9018C34.0553 87.2471 34.8144 87.1445 35.3153 86.6622C35.3744 86.6031 41.3944 80.888 55.9979 80.888C70.6015 80.888 76.6246 86.6031 76.6806 86.6591C76.9793 86.9547 77.3775 87.1102 77.7757 87.1102C78.0371 87.1102 78.3015 87.0449 78.5411 86.9111C79.1508 86.5627 79.4557 85.8565 79.2846 85.1782Z" fill="#664500"/>
<path d="M37.3325 52.8891C41.628 52.8891 45.1102 48.014 45.1102 42.0002C45.1102 35.9864 41.628 31.1113 37.3325 31.1113C33.0369 31.1113 29.5547 35.9864 29.5547 42.0002C29.5547 48.014 33.0369 52.8891 37.3325 52.8891Z" fill="#664500"/>
<path d="M74.6645 52.8891C78.96 52.8891 82.4423 48.014 82.4423 42.0002C82.4423 35.9864 78.96 31.1113 74.6645 31.1113C70.3689 31.1113 66.8867 35.9864 66.8867 42.0002C66.8867 48.014 70.3689 52.8891 74.6645 52.8891Z" fill="#664500"/>
</svg>
