<svg width="17" height="20" viewBox="0 0 17 20" fill="none" xmlns="http://www.w3.org/2000/svg">
<path d="M15.8892 9.7787C14.8892 8.72314 13.5559 8.00092 12.167 7.72314C11.5559 7.55647 10.9448 7.44536 10.3336 7.38981C11.8892 5.55647 11.6114 2.7787 9.77809 1.22314C7.94475 -0.332415 5.16698 -0.0546377 3.61142 1.7787C2.05587 3.61203 2.33364 6.38981 4.16698 7.94536C4.50031 8.22314 4.83364 8.44536 5.16698 8.55647V9.7787L4.27809 8.94536C3.50031 8.16758 2.22253 8.16758 1.3892 8.94536C0.611421 9.72314 0.555865 10.9454 1.33364 11.7231L3.8892 14.7231C4.00031 15.5009 4.27809 16.2231 4.66698 16.8898C4.94475 17.3898 5.33364 17.8898 5.72253 18.2787V19.3342C5.72253 19.6676 5.94475 19.8898 6.27809 19.8898H13.8336C14.1114 19.8898 14.3892 19.612 14.3892 19.3342V17.8898C15.4448 16.612 16.0003 15.0009 16.0003 13.3898V10.1676C16.0559 9.94536 16.0003 9.83425 15.8892 9.7787V9.7787ZM3.66698 4.55647C3.66698 2.72314 5.16698 1.2787 7.00031 1.33425C8.83364 1.33425 10.2781 2.83425 10.2225 4.66758C10.2225 5.66758 9.77809 6.55647 9.00031 7.16758V4.38981C8.97194 3.90835 8.76048 3.45597 8.40927 3.12543C8.05806 2.79488 7.59372 2.61119 7.11142 2.61203C6.11142 2.55647 5.22253 3.38981 5.22253 4.38981V7.2787C4.27809 6.72314 3.72253 5.66758 3.66698 4.55647ZM14.9448 13.3343C15.0003 14.7787 14.5003 16.1676 13.5559 17.2787C13.4448 17.3898 13.3336 17.5009 13.3336 17.6676V18.8343H6.8892V18.0565C6.8892 17.8898 6.77809 17.7231 6.66698 17.612C6.27809 17.2787 5.94475 16.8898 5.66698 16.3898C5.33364 15.8343 5.11142 15.1676 5.00031 14.5009C5.00031 14.3898 4.94475 14.2787 4.8892 14.1676L2.22253 11.0009C2.05587 10.8343 1.94475 10.612 1.94475 10.3343C1.94475 10.112 2.05587 9.83425 2.22253 9.66758C2.61142 9.33425 3.16698 9.33425 3.55586 9.66758L5.16698 11.2787V12.9454L6.22253 12.3898V4.38981C6.27809 4.00092 6.61142 3.66758 7.05587 3.72314C7.44475 3.72314 7.83364 4.00092 7.83364 4.38981V10.7787L8.94475 11.0009V8.44536C9.00031 8.38981 9.05587 8.38981 9.11142 8.33425C9.50031 8.33425 9.8892 8.38981 10.2781 8.44536V11.2787L11.167 11.4454V8.55647L11.8336 8.72314C12.1114 8.77869 12.3892 8.88981 12.667 9.00092V11.7787L13.5559 11.9454V9.38981C14.0559 9.61203 14.5003 9.94536 14.8892 10.3343L14.9448 13.3343V13.3343Z" fill="#86BCFC"/>
</svg>
