<svg width="112" height="112" viewBox="0 0 112 112" fill="none" xmlns="http://www.w3.org/2000/svg">
<path d="M112 56C112 86.9276 86.9276 112 56 112C25.0756 112 0 86.9276 0 56C0 25.0756 25.0756 0 56 0C86.9276 0 112 25.0756 112 56Z" fill="#FFCC4D"/>
<path d="M79.2878 86.7358C79.1478 86.1789 75.654 73.1122 56.0012 73.1122C36.3451 73.1122 32.8545 86.1789 32.7145 86.7358C32.5434 87.4109 32.8483 88.1109 33.4518 88.4593C34.0585 88.8047 34.8176 88.702 35.3185 88.2198C35.3776 88.1607 41.3976 82.4455 56.0012 82.4455C70.6047 82.4455 76.6278 88.1607 76.6838 88.2167C76.9825 88.5122 77.3807 88.6678 77.7789 88.6678C78.0403 88.6678 78.3047 88.6024 78.5443 88.4687C79.154 88.1202 79.4589 87.414 79.2878 86.7358ZM90.2265 43.5567C89.2776 43.5567 88.3474 43.1273 87.7345 42.3122C80.1683 32.2198 67.4687 39.6802 66.9336 40.0007C65.4558 40.8873 63.5456 40.4051 62.6652 38.9335C61.7816 37.4589 62.2576 35.5486 63.7323 34.6651C69.9483 30.9349 83.998 26.9589 92.7092 38.5758C93.742 39.9509 93.462 41.9015 92.0869 42.9313C91.53 43.3544 90.8767 43.5567 90.2265 43.5567ZM21.7758 43.5567C21.1287 43.5567 20.4723 43.3544 19.9123 42.9344C18.5371 41.9046 18.2603 39.954 19.29 38.5789C28.0043 26.962 42.054 30.938 48.2669 34.6682C49.7416 35.5518 50.2176 37.462 49.334 38.9367C48.4505 40.4082 46.5465 40.8904 45.0718 40.0069C44.5149 39.6771 31.7749 32.3069 24.2647 42.3153C23.658 43.1273 22.7216 43.5567 21.7758 43.5567ZM90.2234 49.7789C90.2234 48.0615 88.8327 46.6678 87.1123 46.6678H65.3345C63.614 46.6678 62.2234 48.0615 62.2234 49.7789C62.2234 51.4962 63.614 52.89 65.3345 52.89H81.1763C81.8203 54.6975 83.5283 56.0011 85.5567 56.0011C88.1327 56.0011 90.2234 53.9135 90.2234 51.3344C90.2234 50.9922 90.1798 50.6593 90.1114 50.3358C90.1487 50.1491 90.2234 49.9749 90.2234 49.7789ZM49.7789 49.7789C49.7789 48.0615 48.3852 46.6678 46.6678 46.6678H24.89C23.1727 46.6678 21.7789 48.0615 21.7789 49.7789C21.7789 51.4962 23.1727 52.89 24.89 52.89H40.7318C41.3758 54.6975 43.0838 56.0011 45.1123 56.0011C47.6883 56.0011 49.7789 53.9135 49.7789 51.3344C49.7789 50.9922 49.7354 50.6593 49.6669 50.3358C49.7011 50.1491 49.7789 49.9749 49.7789 49.7789Z" fill="#664500"/>
</svg>
