<svg width="184" height="211" viewBox="0 0 184 211" fill="none" xmlns="http://www.w3.org/2000/svg">
<path d="M134.57 187.48C133.9 187.48 133.27 187.48 132.61 187.44C131.21 187.39 129.83 187.06 128.55 186.48C127.27 185.9 126.12 185.07 125.17 184.04C124.21 183.01 123.47 181.8 122.98 180.49C122.49 179.17 122.26 177.77 122.31 176.37C122.36 174.97 122.69 173.59 123.27 172.31C123.85 171.03 124.68 169.88 125.71 168.93C126.74 167.97 127.95 167.23 129.26 166.74C130.58 166.25 131.98 166.02 133.38 166.07C145.82 166.52 157.38 159.58 160.85 149.55C163.9 140.75 159.55 131.52 148.63 123.53C125.71 106.83 115.05 89.7901 116.92 72.9801C119.52 49.6401 145.57 38.1101 146.68 37.6301C147.97 37.0701 149.35 36.7801 150.76 36.7601C152.16 36.7401 153.56 36.9901 154.86 37.5101C156.16 38.0301 157.35 38.8001 158.36 39.7701C159.37 40.7501 160.17 41.9101 160.73 43.2001C161.29 44.4901 161.58 45.8701 161.6 47.2801C161.62 48.6801 161.37 50.0801 160.85 51.3801C160.33 52.6801 159.56 53.8701 158.59 54.8801C157.61 55.8901 156.45 56.6901 155.16 57.2501C150.79 59.1901 139.13 66.2701 138.15 75.4001C137.26 83.7901 145.45 94.7701 161.23 106.27C179.84 119.85 187.25 138.64 181.05 156.54C174.67 174.97 155.73 187.48 134.57 187.48Z" fill="#0C6ED6"/>
<path d="M96.1201 57.1801C94.6901 58.2401 92.8502 58.0401 90.8802 57.0101C84.6802 53.7401 77.1502 42.1201 76.8502 35.1401C76.7802 33.1401 77.2801 31.5701 78.5501 30.6201C85.7601 25.2801 106.71 18.6501 111.54 25.9801C116.37 33.3101 103.32 51.8501 96.1201 57.1801Z" fill="#3F8CFF"/>
<path d="M90.8796 57.0099C84.6796 53.7399 77.1496 42.1199 76.8496 35.1399C83.0496 30.8499 99.5096 25.7899 103.37 31.6299C107.33 37.5699 96.7696 52.5699 90.8796 57.0099Z" fill="#86BCFC"/>
<path d="M28.3096 34.7201C28.8196 36.4201 30.4196 37.3901 32.6096 37.7101C39.5396 38.7901 52.5096 33.9601 56.8996 28.5101C58.1396 26.9701 58.6896 25.3901 58.2396 23.8701C55.6396 15.2901 42.7996 -2.53988 34.5396 0.450118C26.2796 3.44012 25.7096 26.1501 28.3096 34.7201Z" fill="#3F8CFF"/>
<path d="M32.6203 37.71C39.5503 38.79 52.5203 33.96 56.9103 28.51C54.5003 21.36 44.3203 7.46996 37.7303 9.85996C31.0203 12.3 30.5403 30.63 32.6203 37.71Z" fill="#0C6ED6"/>
<path d="M139.35 157.89C139.76 176.54 125.66 192.38 112.33 195.59C110.11 196.12 107.82 196.62 105.49 197.05C82.0099 201.52 53.9099 201.2 36.6399 194.99C33.6599 193.86 30.8599 192.31 28.3199 190.39C14.7499 180.28 -0.730069 156.37 1.11993 116.35C1.32993 111.83 2.81994 104.54 4.93994 96.2401C8.09994 83.84 12.6599 69.2001 16.4299 58.2201C17.7699 54.3501 18.9899 50.9301 20.0399 48.2001C28.0899 27.2801 46.0199 19.2901 65.4599 24.2401C72.1799 25.8601 78.3299 29.2701 83.2599 34.1101C92.1299 42.9501 95.8399 56.0201 93.6899 69.9301C93.3399 72.2501 92.8299 74.5401 92.1699 76.7901C91.2099 80.1001 88.9499 87.1001 88.8299 94.0401C88.7099 101.49 91.0599 108.89 100.14 111.6C106.42 113.39 112.49 115.85 118.24 118.95C136.17 128.83 139 142.12 139.35 157.89Z" fill="#3F8CFF"/>
<path d="M105.499 197.08C82.0194 201.55 53.9194 201.23 36.6494 195.02C33.6694 193.89 30.8694 192.33 28.3294 190.4C-5.73063 139.18 16.8394 86.6301 43.1794 88.0201C68.5594 89.3601 72.7194 148.1 81.4694 168.17C86.9394 180.68 99.1394 191.83 105.499 197.08Z" fill="#86BCFC"/>
<path d="M12.8309 196.41C11.0109 196.41 9.24089 195.85 7.75089 194.82C6.26089 193.79 5.12089 192.32 4.48089 190.62C3.84089 188.92 3.73088 187.07 4.18088 185.31C4.62088 183.55 5.59089 181.96 6.95089 180.77C7.14089 180.6 28.0309 161.9 26.6109 142.43C25.9409 132.91 19.6209 124.21 7.9109 116.57C6.9309 115.93 6.0809 115.1 5.4109 114.13C4.7509 113.16 4.28089 112.07 4.04089 110.92C3.80089 109.77 3.78089 108.58 4.00089 107.43C4.22089 106.28 4.6609 105.17 5.3009 104.19C5.9409 103.21 6.7709 102.36 7.7409 101.69C8.7109 101.03 9.80089 100.56 10.9509 100.32C12.1009 100.08 13.2909 100.06 14.4409 100.28C15.5909 100.5 16.7009 100.94 17.6809 101.58C34.3409 112.45 43.3309 125.77 44.4309 141.18C46.4309 169.53 19.8409 193.17 18.7209 194.17C17.0909 195.59 15.0009 196.4 12.8309 196.41Z" fill="#0C6ED6"/>
<path d="M27.5997 199.22C29.7997 195.56 26.2397 189.39 19.6697 185.45C13.0897 181.51 5.97971 181.28 3.77971 184.94C1.57971 188.6 5.13972 194.77 11.7097 198.71C18.2997 202.65 25.4097 202.88 27.5997 199.22Z" fill="#86BCFC"/>
<path d="M28.2091 197.42C30.4091 193.76 26.8491 187.59 20.2791 183.65C13.6991 179.71 6.58909 179.48 4.38909 183.14C2.18909 186.8 5.74909 192.97 12.3191 196.91C18.9091 200.86 26.0191 201.09 28.2091 197.42Z" fill="#0C6ED6"/>
<path d="M17.5702 201.22C17.7102 200.93 17.8302 200.64 17.9202 200.34C18.0202 200.04 18.0902 199.73 18.1502 199.42C18.2502 198.85 18.2802 198.28 18.2602 197.7C18.2102 196.8 17.9902 195.93 17.5902 195.12C17.2202 194.32 16.6702 193.61 15.9902 193.06C16.2002 193.91 16.4702 194.67 16.6102 195.45C16.7102 195.84 16.7402 196.23 16.8202 196.61C16.8902 196.98 16.9102 197.38 16.9102 197.77C16.9102 198.16 16.9102 198.62 16.9102 199.05C16.9102 199.48 16.9102 199.76 16.8702 200.13C16.8302 200.49 16.8102 200.71 16.7802 201L17.5702 201.22Z" fill="#183B59"/>
<path d="M22.7402 201.75C22.8102 201.58 22.8702 201.41 22.9302 201.24C23.0702 200.83 23.1602 200.4 23.2202 199.97C23.2802 199.53 23.2902 199.08 23.2702 198.63C23.2302 197.73 23.0002 196.85 22.6002 196.05C22.2302 195.25 21.6802 194.54 20.9902 193.99C21.2102 194.85 21.4802 195.6 21.6202 196.39C21.7202 196.77 21.7502 197.16 21.8202 197.55C21.8902 197.93 21.9102 198.32 21.9202 198.71C21.9302 199.1 21.9202 199.59 21.9202 200.05C21.9202 200.5 21.9202 200.72 21.8802 201.09C21.8802 201.34 21.8302 201.59 21.8102 201.84L22.7402 201.75Z" fill="#183B59"/>
<path d="M27.7507 198.94C27.7707 198.65 27.7707 198.36 27.7507 198.08C27.7107 197.19 27.4807 196.32 27.0807 195.53C26.7207 194.72 26.1607 194.02 25.4707 193.47C25.6907 194.32 25.9607 195.08 26.1007 195.86C26.2007 196.25 26.2307 196.63 26.3007 197.02C26.3707 197.4 26.4007 197.79 26.4007 198.18C26.4007 198.57 26.4007 198.81 26.4007 199.12C26.4007 199.59 26.4007 200.06 26.3507 200.54L27.7507 198.94Z" fill="#183B59"/>
<path d="M54.9004 207.09L44.7704 192.4L44.6504 192.49C44.7004 192.45 50.2504 188.26 54.8004 177.8C59.1304 167.87 63.4204 150.18 59.2804 122.22C59.1104 121.06 59.1704 119.88 59.4504 118.74C59.7404 117.6 60.2404 116.53 60.9404 115.59C61.6404 114.65 62.5204 113.85 63.5204 113.25C64.5304 112.65 65.6404 112.25 66.8004 112.08C67.9604 111.91 69.1404 111.97 70.2804 112.25C71.4204 112.54 72.4904 113.04 73.4304 113.74C74.3704 114.44 75.1704 115.32 75.7704 116.32C76.3704 117.33 76.7704 118.44 76.9404 119.6C86.5504 184.49 56.2004 206.23 54.9004 207.09Z" fill="#0C6ED6"/>
<path d="M46.6298 210.36C54.2498 209.52 60.0498 205.4 59.5798 201.15C59.1098 196.9 52.5498 194.14 44.9298 194.98C37.3098 195.82 31.5098 199.94 31.9798 204.19C32.4498 208.44 39.0098 211.2 46.6298 210.36Z" fill="#86BCFC"/>
<path d="M46.829 208.48C54.449 207.64 60.249 203.52 59.779 199.27C59.309 195.02 52.749 192.26 45.129 193.1C37.509 193.94 31.709 198.06 32.179 202.31C32.639 206.56 39.199 209.32 46.829 208.48Z" fill="#0C6ED6"/>
<path d="M40.2291 210.22C40.2191 209.91 40.2391 209.59 40.2791 209.28C40.3091 208.97 40.3691 208.66 40.4491 208.35C40.5891 207.79 40.7991 207.26 41.0591 206.75C41.4691 205.95 42.0391 205.25 42.7191 204.67C43.3891 204.09 44.1791 203.68 45.0391 203.47C44.4891 204.14 43.9291 204.73 43.4791 205.39C43.2291 205.7 43.0291 206.06 42.8091 206.36C42.5891 206.66 42.3991 207.03 42.2391 207.38C42.0691 207.73 41.8691 208.13 41.6891 208.53C41.5191 208.92 41.4091 209.2 41.2791 209.53C41.1491 209.86 41.0891 210.08 40.9891 210.36L40.2291 210.22Z" fill="#183B59"/>
<path d="M35.3203 208.56C35.3203 208.38 35.3403 208.2 35.3603 208.02C35.4103 207.59 35.5003 207.16 35.6303 206.74C35.7603 206.31 35.9403 205.89 36.1503 205.48C36.5603 204.68 37.1203 203.98 37.8103 203.41C38.4803 202.83 39.2703 202.42 40.1303 202.21C39.5803 202.88 39.0103 203.47 38.5603 204.12C38.3103 204.43 38.1203 204.79 37.8903 205.09C37.6603 205.39 37.4803 205.76 37.3203 206.11C37.1603 206.46 36.9303 206.9 36.7503 207.3C36.5703 207.7 36.4803 207.97 36.3603 208.26C36.2303 208.55 36.1903 208.74 36.1103 208.99L35.3203 208.56Z" fill="#183B59"/>
<path d="M31.9395 203.91C32.0495 203.64 32.1695 203.38 32.2995 203.13C32.6995 202.34 33.2694 201.64 33.9494 201.08C34.6094 200.5 35.4095 200.09 36.2695 199.88C35.7195 200.55 35.1494 201.14 34.6994 201.79C34.4494 202.1 34.2594 202.46 34.0294 202.76C33.7994 203.06 33.6195 203.43 33.4595 203.77C33.2995 204.11 33.1695 204.32 33.0495 204.62C32.8595 205.04 32.6795 205.48 32.4995 205.96L31.9395 203.91Z" fill="#183B59"/>
<path d="M101.961 202.89C100.401 202.89 98.8708 202.49 97.5108 201.71C96.1608 200.94 95.0308 199.82 94.2408 198.47C88.0008 187.78 79.7508 164.65 84.2208 147.92C86.0908 140.94 90.0708 135.54 95.7308 132.32C105.021 127.04 114.431 127.44 121.531 133.44C134.071 144 136.301 170.62 131.701 183.41C130.861 185.58 129.201 187.34 127.081 188.31C124.961 189.28 122.541 189.38 120.351 188.59C118.161 187.8 116.361 186.18 115.341 184.09C114.321 181.99 114.171 179.58 114.901 177.37C117.651 169.74 115.371 151.61 110.031 147.11C109.451 146.62 108.361 145.7 104.551 147.86C103.621 148.39 102.291 149.46 101.461 152.54C98.7308 162.69 104.561 180.81 109.621 189.44C110.411 190.8 110.841 192.34 110.851 193.91C110.861 195.48 110.451 197.03 109.671 198.39C108.891 199.75 107.761 200.89 106.411 201.68C105.051 202.47 103.511 202.89 101.941 202.89H101.961Z" fill="#0C6ED6"/>
<path d="M98.9107 208.41C106.501 207.32 112.161 203 111.551 198.77C110.941 194.54 104.291 192 96.7006 193.1C89.1106 194.19 83.4506 198.51 84.0606 202.74C84.6706 206.97 91.3207 209.51 98.9107 208.41Z" fill="#86BCFC"/>
<path d="M98.1196 207.22C105.71 206.15 111.38 201.85 110.78 197.62C110.18 193.39 103.54 190.83 95.9496 191.91C88.3596 192.98 82.6896 197.28 83.2896 201.51C83.8896 205.74 90.5296 208.3 98.1196 207.22Z" fill="#0C6ED6"/>
<path d="M92.5401 208.46C92.5101 208.14 92.5101 207.83 92.5401 207.51C92.5601 207.2 92.6101 206.88 92.6801 206.57C92.8001 206.01 92.9901 205.46 93.2401 204.95C93.6201 204.14 94.1701 203.42 94.8401 202.82C95.4901 202.22 96.2701 201.78 97.1201 201.54C96.5901 202.25 96.0401 202.84 95.6201 203.51C95.3801 203.82 95.2001 204.18 94.9901 204.49C94.7801 204.8 94.6001 205.16 94.4601 205.53C94.3101 205.9 94.1101 206.3 93.9501 206.7C93.7901 207.09 93.6901 207.37 93.5801 207.71L93.3201 208.54L92.5401 208.46Z" fill="#183B59"/>
<path d="M87.5605 206.97C87.5605 206.79 87.5605 206.61 87.5605 206.42C87.6305 205.53 87.8706 204.67 88.2706 203.87C88.6506 203.06 89.1905 202.33 89.8605 201.74C90.5106 201.14 91.2905 200.7 92.1405 200.46C91.6105 201.17 91.0705 201.76 90.6405 202.43C90.4105 202.74 90.2205 203.1 90.0105 203.42C89.8005 203.74 89.6305 204.09 89.4805 204.45C89.3305 204.81 89.1106 205.25 88.9606 205.66C88.8106 206.07 88.7105 206.33 88.5905 206.63C88.4805 206.93 88.4405 207.12 88.3605 207.36L87.5605 206.97Z" fill="#183B59"/>
<path d="M84.0391 202.42C84.1291 202.15 84.2391 201.88 84.3691 201.63C84.7391 200.83 85.2791 200.11 85.9491 199.53C86.5891 198.93 87.3691 198.49 88.2191 198.25C87.6891 198.92 87.1491 199.55 86.7191 200.21C86.4791 200.53 86.2891 200.88 86.0891 201.2C85.8791 201.52 85.6991 201.87 85.5491 202.23C85.3991 202.59 85.2791 202.8 85.1691 203.09C84.9891 203.52 84.8191 203.96 84.6591 204.43L84.0391 202.42Z" fill="#183B59"/>
<path d="M93.7091 69.9201C93.5991 70.3301 93.4591 70.7501 93.3291 71.1601L93.2191 71.4701C89.2091 72.0101 84.7791 71.0601 82.4091 70.4101C76.9191 68.9401 65.4091 64.8401 62.5891 61.0601C59.9191 57.5001 68.4591 42.2001 83.2891 34.0701C92.1391 42.9401 95.8491 56.0101 93.7091 69.9201Z" fill="#0C6ED6"/>
<path d="M87.4207 61.2502C85.7107 66.3902 79.4107 67.8601 74.0607 66.0702C68.7207 64.2901 63.9707 61.7701 65.6807 56.6301C67.3807 51.4901 74.8707 45.6702 80.2407 47.4602C85.6107 49.2502 89.1307 56.1102 87.4207 61.2502Z" fill="#3F8CFF"/>
<path d="M84.8295 60.47C83.5695 64.24 78.9595 65.33 75.0095 64.02C71.0595 62.71 67.5995 60.86 68.8495 57.09C70.1095 53.32 75.5995 49.03 79.5395 50.35C83.4795 51.66 86.0895 56.69 84.8295 60.47Z" fill="#3F8CFF"/>
<path d="M33.1407 43.21C31.4407 48.35 35.5807 53.28 40.9507 55.07C46.3207 56.86 51.6407 57.67 53.3207 52.53C55.0007 47.39 52.5107 38.25 47.1407 36.46C41.7607 34.67 34.8507 38.07 33.1407 43.21Z" fill="#0C6ED6"/>
<path d="M35.6805 44.1202C34.4205 47.9002 37.4705 51.5302 41.4205 52.8402C45.3705 54.1502 49.2505 54.7502 50.5005 50.9802C51.7505 47.2102 49.9106 40.4902 45.9606 39.1702C42.0106 37.8502 36.9405 40.3602 35.6805 44.1202Z" fill="#3F8CFF"/>
<path d="M60.93 64.0601C61.67 61.8301 60.53 59.4401 58.37 58.7201C56.21 58.0001 53.86 59.2301 53.12 61.4701C52.38 63.7001 53.52 66.0901 55.68 66.8101C57.84 67.5201 60.19 66.3001 60.93 64.0601Z" fill="#183B59"/>
<path d="M64.6604 72.0501C63.7704 72.5701 62.7504 72.8201 61.7204 72.7801C60.6504 72.7101 59.6204 72.3101 58.7804 71.6401C57.9504 70.9801 57.2504 70.1901 56.7104 69.2801C56.1704 68.3901 55.7404 67.4401 55.4204 66.4401L56.4904 66.7101C55.7404 67.4401 54.8704 68.0401 53.9304 68.5001C52.9804 68.9701 51.9304 69.2101 50.8704 69.2101C49.8104 69.2001 48.7704 68.8601 47.9004 68.2501C47.0804 67.6601 46.4004 66.9101 45.9004 66.0401C46.5804 66.7101 47.3604 67.2801 48.2204 67.7201C49.0404 68.1201 49.9504 68.2901 50.8504 68.2201C51.7404 68.1301 52.6104 67.8601 53.3904 67.4301C54.1904 67.0001 54.9304 66.4601 55.5704 65.8301L56.3304 65.0701L56.6404 66.1101C56.9104 67.0001 57.2904 67.8601 57.7504 68.6701C58.1904 69.4901 58.7504 70.2301 59.4104 70.8801C60.0704 71.5201 60.8904 71.9601 61.7904 72.1601C62.7504 72.3301 63.7304 72.3001 64.6604 72.0501Z" fill="#183B59"/>
<path d="M76.2791 71.8903C76.2391 71.8903 76.1991 71.8803 76.1591 71.8703C76.1191 71.8603 76.0891 71.8303 76.0591 71.8003C73.2291 69.1703 69.9491 67.0802 66.3691 65.6302C66.3291 65.6202 66.2791 65.6003 66.2491 65.5703C66.2091 65.5403 66.1791 65.5103 66.1591 65.4703C66.1391 65.4303 66.1291 65.3902 66.1191 65.3402C66.1191 65.2902 66.1191 65.2503 66.1391 65.2103C66.1591 65.1703 66.1792 65.1303 66.2092 65.1003C66.2392 65.0703 66.2792 65.0403 66.3192 65.0303C66.3592 65.0103 66.4091 65.0103 66.4491 65.0103C66.4991 65.0103 66.5391 65.0303 66.5791 65.0503C70.2391 66.5303 73.5992 68.6703 76.4892 71.3603C76.5492 71.4203 76.5791 71.5002 76.5791 71.5902C76.5791 71.6802 76.5492 71.7603 76.4892 71.8203C76.4592 71.8503 76.4291 71.8703 76.3891 71.8903C76.3691 71.8803 76.3191 71.8903 76.2791 71.8903Z" fill="#86BCFC"/>
<path d="M72.1399 77.9202C72.0799 77.9202 72.0199 77.9002 71.9699 77.8702C71.9199 77.8402 71.8799 77.7902 71.8499 77.7302C70.1499 74.2602 67.8399 71.1302 65.0299 68.4902C64.9699 68.4302 64.9299 68.3602 64.9199 68.2702C64.9099 68.1902 64.9399 68.1002 64.9999 68.0402C65.0599 67.9802 65.1299 67.9402 65.2199 67.9302C65.2999 67.9302 65.3899 67.9502 65.4499 68.0102C68.3299 70.7102 70.6999 73.9202 72.4299 77.4702C72.4599 77.5502 72.4699 77.6302 72.4399 77.7102C72.4099 77.7902 72.3499 77.8502 72.2699 77.8902C72.2299 77.9102 72.1899 77.9202 72.1399 77.9202Z" fill="#86BCFC"/>
<path d="M75.0106 75.94C74.9506 75.94 74.8906 75.92 74.8306 75.89C74.7806 75.86 74.7406 75.81 74.7106 75.75C72.6506 71.15 65.5906 67.17 65.5206 67.13C65.4506 67.09 65.3906 67.02 65.3706 66.94C65.3506 66.86 65.3506 66.77 65.3906 66.7C65.4306 66.63 65.5006 66.57 65.5806 66.55C65.6606 66.53 65.7506 66.54 65.8206 66.58C66.1206 66.75 73.1706 70.7 75.2806 75.5C75.3106 75.58 75.3206 75.66 75.2906 75.74C75.2606 75.82 75.2006 75.88 75.1206 75.92C75.0906 75.93 75.0506 75.94 75.0106 75.94Z" fill="#86BCFC"/>
<path d="M47.6196 59.78C47.5796 59.79 47.5496 59.79 47.5096 59.78C43.8496 58.55 40.0096 58 36.1596 58.14C36.0796 58.14 36.0096 58.1 35.9496 58.05C35.8896 58 35.8596 57.92 35.8496 57.84C35.8396 57.76 35.8696 57.68 35.9096 57.62C35.9596 57.56 36.0296 57.52 36.0996 57.5C40.0496 57.34 43.9896 57.91 47.7396 59.18C47.7796 59.19 47.8196 59.22 47.8496 59.24C47.8796 59.27 47.9096 59.3 47.9196 59.34C47.9396 59.38 47.9496 59.42 47.9496 59.46C47.9496 59.5 47.9396 59.54 47.9296 59.58C47.8996 59.64 47.8596 59.69 47.7996 59.72C47.7496 59.77 47.6896 59.78 47.6196 59.78Z" fill="#86BCFC"/>
<path d="M35.3498 65.4002C35.2698 65.4102 35.1998 65.3801 35.1398 65.3401C35.0798 65.2901 35.0398 65.2302 35.0198 65.1502C34.9998 65.0802 35.0098 65.0002 35.0498 64.9302C35.0898 64.8602 35.1498 64.8102 35.2198 64.7902C38.8498 63.2202 42.7298 62.3302 46.6698 62.1602C46.7498 62.1602 46.8298 62.2002 46.8898 62.2502C46.9498 62.3102 46.9798 62.3902 46.9898 62.4702C46.9898 62.5102 46.9798 62.5501 46.9698 62.5901C46.9498 62.6301 46.9298 62.6701 46.8998 62.7001C46.8698 62.7301 46.8398 62.7501 46.7998 62.7701C46.7598 62.7901 46.7198 62.8002 46.6798 62.8002C42.8198 62.9702 39.0298 63.8302 35.4898 65.3602C35.4498 65.3802 35.3998 65.3902 35.3498 65.4002Z" fill="#86BCFC"/>
<path d="M34.4704 62.03C34.4104 62.03 34.3504 62.01 34.3004 61.98C34.2504 61.95 34.2104 61.9 34.1804 61.84C34.1604 61.8 34.1504 61.76 34.1504 61.72C34.1504 61.68 34.1504 61.64 34.1704 61.6C34.1804 61.56 34.2104 61.52 34.2304 61.49C34.2604 61.46 34.2904 61.43 34.3304 61.42C39.0804 59.18 46.9904 60.75 47.3104 60.82C47.3904 60.84 47.4704 60.89 47.5104 60.96C47.5604 61.03 47.5804 61.12 47.5604 61.2C47.5504 61.24 47.5304 61.28 47.5104 61.32C47.4904 61.35 47.4604 61.38 47.4204 61.41C47.3804 61.43 47.3504 61.45 47.3004 61.46C47.2604 61.47 47.2204 61.47 47.1704 61.46C47.0904 61.46 39.1604 59.86 34.5904 62.01C34.5704 62.02 34.5204 62.03 34.4704 62.03Z" fill="#86BCFC"/>
<path d="M73.5202 33.0302C73.4602 33.0302 73.3901 33.0102 73.3401 32.9802C73.2901 32.9502 73.2402 32.9002 73.2102 32.8502C73.1802 32.8002 73.1602 32.7302 73.1602 32.6702C73.1602 32.6102 73.1802 32.5402 73.2102 32.4902C76.5502 26.6302 84.1602 20.0802 84.2402 20.0102C84.2802 19.9802 84.3202 19.9502 84.3602 19.9402C84.4102 19.9202 84.4502 19.9202 84.5002 19.9202C84.5502 19.9202 84.5902 19.9402 84.6402 19.9602C84.6802 19.9802 84.7202 20.0102 84.7502 20.0502C84.8102 20.1202 84.8401 20.2202 84.8401 20.3202C84.8301 20.4202 84.7902 20.5102 84.7102 20.5702C84.6402 20.6302 77.1401 27.1102 73.8401 32.8502C73.8101 32.9102 73.7601 32.9502 73.7001 32.9802C73.6401 33.0102 73.5802 33.0302 73.5202 33.0302Z" fill="#86BCFC"/>
<path d="M75.069 34.2101C74.999 34.2101 74.939 34.1901 74.879 34.1601C74.839 34.1401 74.799 34.1001 74.779 34.0601C74.749 34.0201 74.729 33.9801 74.719 33.9301C74.709 33.8801 74.709 33.8301 74.709 33.7901C74.719 33.7401 74.729 33.7001 74.759 33.6601C76.669 30.8301 79.309 28.5601 82.409 27.1101C82.449 27.0901 82.499 27.0801 82.549 27.0701C82.599 27.0701 82.649 27.0801 82.689 27.0901C82.739 27.1101 82.779 27.1301 82.809 27.1701C82.839 27.2001 82.869 27.2401 82.889 27.2901C82.909 27.3301 82.919 27.3801 82.919 27.4301C82.919 27.4801 82.909 27.5301 82.899 27.5701C82.879 27.6101 82.859 27.6601 82.829 27.6901C82.799 27.7201 82.759 27.7501 82.709 27.7701C79.749 29.1801 77.209 31.3401 75.359 34.0501C75.329 34.1001 75.279 34.1401 75.229 34.1701C75.189 34.1901 75.129 34.2101 75.069 34.2101Z" fill="#86BCFC"/>
<path d="M60.1102 28.8702C60.0802 28.8802 60.0402 28.8802 60.0102 28.8702C59.9602 28.8602 59.9202 28.8402 59.8802 28.8102C59.8402 28.7802 59.8102 28.7402 59.7902 28.7002C59.7702 28.6602 59.7502 28.6102 59.7502 28.5602C59.7402 28.5102 59.7502 28.4602 59.7602 28.4202C61.5402 22.0402 60.8802 12.1602 60.8802 12.0602C60.8702 11.9602 60.9102 11.8702 60.9702 11.8002C61.0302 11.7302 61.1202 11.6802 61.2202 11.6802C61.3202 11.6802 61.4102 11.7102 61.4802 11.7702C61.5502 11.8302 61.6002 11.9202 61.6102 12.0202C61.6102 12.1202 62.2802 22.1302 60.4702 28.6302C60.4502 28.7002 60.4002 28.7702 60.3402 28.8102C60.2602 28.8502 60.1802 28.8702 60.1102 28.8702Z" fill="#86BCFC"/>
<path d="M58.1701 28.5902H58.0801C57.9901 28.5702 57.9101 28.5102 57.8601 28.4202C57.8101 28.3402 57.7901 28.2402 57.8201 28.1402C58.4501 24.9302 58.2201 21.6002 57.1501 18.5102C57.1201 18.4602 57.1001 18.4102 57.0901 18.3602C57.0801 18.3002 57.0901 18.2502 57.1001 18.1902C57.1201 18.1402 57.1501 18.0902 57.1801 18.0502C57.2201 18.0102 57.2701 17.9802 57.3201 17.9602C57.3701 17.9402 57.4301 17.9302 57.4801 17.9402C57.5401 17.9502 57.5901 17.9602 57.6401 17.9902C57.6901 18.0202 57.7301 18.0602 57.7601 18.1102C57.7901 18.1602 57.8101 18.2102 57.8101 18.2702C58.9401 21.4902 59.1801 24.9502 58.5101 28.2902C58.5001 28.3702 58.4501 28.4502 58.3901 28.5002C58.3301 28.5602 58.2501 28.5902 58.1701 28.5902Z" fill="#86BCFC"/>
<path d="M89.4796 45.3402C89.9596 43.8802 87.2096 41.6502 83.3296 40.3602C79.4496 39.0702 75.9096 39.2102 75.4196 40.6702C74.9296 42.1302 77.6896 44.3602 81.5696 45.6502C85.4496 46.9302 88.9896 46.8002 89.4796 45.3402Z" fill="#86BCFC"/>
<path d="M55.1105 33.91C55.6005 32.45 52.8405 30.22 48.9605 28.93C45.0805 27.64 41.5405 27.78 41.0505 29.24C40.5605 30.7 43.3205 32.93 47.2005 34.22C51.0805 35.5 54.6205 35.37 55.1105 33.91Z" fill="#86BCFC"/>
<path d="M49.4293 50.6201C48.9093 49.2001 48.2393 47.8401 47.4293 46.5601C46.6293 45.4301 45.5593 44.5101 44.3193 43.8901C43.0893 43.2901 41.7093 43.0701 40.3593 43.2601C38.8993 43.4701 37.5493 44.1501 36.5293 45.2201C36.7893 44.4101 37.2393 43.6801 37.8493 43.0901C38.4593 42.5001 39.1993 42.0601 40.0093 41.8301C41.6993 41.2801 43.5393 41.4001 45.1293 42.1901C46.6993 42.9601 47.9593 44.2501 48.6993 45.8401C49.3593 47.3301 49.6193 48.9901 49.4293 50.6201Z" fill="#183B59"/>
<path d="M69.1602 57.1801C69.9902 55.7601 71.1802 54.5801 72.6102 53.7701C74.1502 52.9401 75.9301 52.6601 77.6501 52.9901C79.4001 53.3101 80.9502 54.3101 81.9702 55.7601C82.4802 56.4401 82.8102 57.2301 82.9402 58.0701C83.0702 58.9101 83.0002 59.7601 82.7202 60.5601C82.5402 59.1001 81.8702 57.7401 80.8202 56.7001C79.8502 55.7401 78.6102 55.1001 77.2702 54.8401C75.9102 54.5901 74.5001 54.6901 73.1801 55.1201C71.7801 55.6701 70.4302 56.3501 69.1602 57.1801Z" fill="#183B59"/>
<path d="M118.27 118.93C110.45 120.07 93.2499 121.74 88.1499 115.59C83.0499 109.44 83.7899 102.98 88.8599 94.02C88.7399 101.47 91.0899 108.87 100.17 111.58C106.45 113.37 112.52 115.83 118.27 118.93Z" fill="#0C6ED6"/>
<path d="M19.1892 81.7302C15.1392 87.2002 10.3492 92.0702 4.94922 96.2202C8.10922 83.8202 12.6692 69.1802 16.4392 58.2002C21.2692 67.2502 24.7892 73.7702 19.1892 81.7302Z" fill="#0C6ED6"/>
</svg>
