<svg width="271" height="230" viewBox="0 0 271 230" fill="none" xmlns="http://www.w3.org/2000/svg">
<path d="M96.0097 195.95C94.1797 195.95 92.3997 195.39 90.8997 194.35C89.3997 193.31 88.2597 191.83 87.6297 190.12C86.9997 188.41 86.8997 186.54 87.3597 184.77C87.8197 183 88.8097 181.42 90.1997 180.23C91.2697 179 100.63 166.87 109.57 110.49C109.94 108.15 111.22 106.06 113.14 104.66C115.05 103.27 117.44 102.69 119.78 103.06C122.12 103.43 124.21 104.71 125.61 106.63C127 108.54 127.58 110.93 127.21 113.27C117.1 177.15 105.59 191.26 101.11 194.36C99.6097 195.4 97.8297 195.96 96.0097 195.95Z" fill="#0C6ED6"/>
<path d="M223.59 188.22C222.87 188.22 222.15 188.21 221.43 188.18C220.03 188.13 218.65 187.8 217.37 187.22C216.09 186.64 214.94 185.81 213.99 184.78C213.03 183.75 212.29 182.55 211.8 181.23C211.31 179.91 211.08 178.51 211.13 177.11C211.18 175.71 211.51 174.33 212.09 173.05C212.67 171.77 213.5 170.62 214.53 169.67C215.56 168.71 216.76 167.97 218.08 167.48C219.4 166.99 220.8 166.76 222.2 166.81C234.02 167.24 244.03 162.28 247.71 154.17C251.67 145.49 247.92 134.05 237.44 122.86C208.05 91.5501 208.79 62.0501 214.54 42.8001C220.68 22.2601 233.85 9.17011 234.41 8.62011C236.44 6.67011 239.16 5.60011 241.97 5.65011C244.78 5.69011 247.47 6.84011 249.44 8.85011C251.41 10.8601 252.51 13.5701 252.5 16.3801C252.49 19.1901 251.36 21.8901 249.38 23.8801C242.62 31.2501 237.64 40.0701 234.81 49.6501C229.15 69.5701 235.28 89.2801 253.04 108.23C269.74 126.06 274.91 146.02 267.18 163C260.13 178.49 243.18 188.22 223.59 188.22Z" fill="#0C6ED6"/>
<path d="M168.46 35.16C167.79 36.82 166.15 37.62 163.93 37.79C156.94 38.3 144.39 32.45 140.47 26.66C139.35 25.03 138.93 23.41 139.51 21.93C142.8 13.59 157.04 -3.15001 165.03 0.499989C173.01 4.16999 171.76 26.83 168.46 35.16Z" fill="#3F8CFF"/>
<path d="M163.931 37.8001C156.941 38.3101 144.391 32.4601 140.471 26.6701C143.451 19.7401 154.721 6.70009 161.081 9.63009C167.571 12.6001 166.571 30.9101 163.931 37.8001Z" fill="#86BCFC"/>
<path d="M99.5099 50.7301C100.85 51.9001 102.7 51.8501 104.74 50.9801C111.19 48.2201 119.63 37.2401 120.46 30.3101C120.69 28.3501 120.33 26.7101 119.12 25.6301C112.37 19.7501 92.0199 11.4201 86.6099 18.3401C81.1999 25.2601 92.7599 44.8401 99.5099 50.7301Z" fill="#3F8CFF"/>
<path d="M104.74 50.9898C111.19 48.2298 119.63 37.2498 120.46 30.3198C114.62 25.5398 98.63 19.1498 94.3 24.6798C89.97 30.2098 99.23 46.1098 104.74 50.9898Z" fill="#0C6ED6"/>
<path d="M185.379 207.79C176.759 209.75 166.469 211.02 154.299 211.6C152.669 211.67 128.309 211.6 115.599 201.78C112.869 199.74 110.599 197.14 108.949 194.16C101.079 179.51 111.409 157.9 110.689 122.93C110.059 92.61 102.009 89.14 100.139 56.69C99.0094 37.21 115.959 21.39 135.459 21.39C139.499 20.93 143.589 21.2 147.539 22.2C160.059 25.47 168.689 36.46 178.629 51.49C181.139 55.29 183.739 59.35 186.499 63.61C187.839 65.65 192.949 74.72 198.939 87.15C204.929 99.58 211.699 115.12 216.499 130.43L216.959 131.91C229.579 173.15 226.559 198.39 185.379 207.79Z" fill="#3F8CFF"/>
<path d="M185.38 207.79C176.76 209.75 166.47 211.02 154.3 211.6C152.67 211.67 128.31 211.6 115.6 201.78C112.87 199.74 110.6 197.14 108.95 194.16C108.78 185.04 112.05 173.32 113.63 156.53C115.57 136.23 114.89 133.15 116.16 111.34C116.92 98.2399 129.48 88.9799 142.51 90.4999C145.25 90.5099 147.96 91.0099 150.52 91.9799C158.64 95.1399 163.54 103.15 169.01 113.97C170.39 116.71 171.82 119.62 173.33 122.65C174.85 125.68 184.42 149.07 188.36 170.65C191.37 187.09 191.33 199.57 185.38 207.79Z" fill="#86BCFC"/>
<path d="M178.63 51.4499L171.54 55.6999C168.2 57.9899 163.81 59.0899 161.39 59.5899C155.82 60.7199 143.69 62.1899 139.5 60.0799C135.49 58.0799 137.72 36.2099 147.51 22.1599C160.06 25.4499 168.68 36.4399 178.63 51.4499Z" fill="#0C6ED6"/>
<path d="M216.51 130.4C202.22 124.07 193.51 101.53 198.95 87.1201C204.89 99.4501 211.7 115.09 216.51 130.4Z" fill="#0C6ED6"/>
<path d="M161.8 49.1599C162.57 54.4999 157.61 58.6399 152 59.4399C146.4 60.2399 141.05 60.1099 140.28 54.7599C139.52 49.4199 143.62 40.8499 149.22 40.0699C154.83 39.2899 161.04 43.8099 161.8 49.1599Z" fill="#3F8CFF"/>
<path d="M159.129 49.63C159.689 53.57 156.049 56.59 151.929 57.18C147.809 57.77 143.919 57.67 143.319 53.73C142.729 49.79 145.769 43.51 149.889 42.92C154.019 42.33 158.569 45.68 159.129 49.63Z" fill="#B0E881"/>
<path d="M148.62 56.9099C150.59 56.6299 151.84 53.9599 151.42 50.9399C150.99 47.9199 149.05 45.6999 147.08 45.9799C145.11 46.2599 143.86 48.9299 144.28 51.9499C144.71 54.9699 146.65 57.1899 148.62 56.9099Z" fill="#183B59"/>
<path d="M105.171 57.2501C105.931 62.5901 111.851 65.1701 117.451 64.3801C123.051 63.5901 128.141 61.9501 127.381 56.5901C126.621 51.2301 120.291 44.1701 114.691 44.9701C109.101 45.7601 104.401 51.8801 105.171 57.2501Z" fill="#0C6ED6"/>
<path d="M107.86 56.9402C108.43 60.8802 112.77 62.7602 116.89 62.1802C121.01 61.5902 124.74 60.3902 124.18 56.4602C123.62 52.5302 118.97 47.3402 114.83 47.9202C110.69 48.5002 107.3 53.0002 107.86 56.9402Z" fill="#B0E881"/>
<path d="M113.89 61.31C115.86 61.03 117.11 58.35 116.68 55.33C116.25 52.31 114.3 50.09 112.33 50.37C110.36 50.65 109.11 53.33 109.54 56.35C109.97 59.37 111.92 61.59 113.89 61.31Z" fill="#183B59"/>
<path d="M133.3 69.5299C135.55 69.2099 137.1 67.0599 136.77 64.7299C136.44 62.3999 134.34 60.7699 132.1 61.0899C129.85 61.4099 128.3 63.5599 128.63 65.8899C128.96 68.2199 131.05 69.8499 133.3 69.5299Z" fill="#183B59"/>
<path d="M143.711 70.2399C143.541 70.7099 143.211 71.0999 142.791 71.3599C142.351 71.6099 141.861 71.7699 141.361 71.8199C140.381 71.9099 139.391 71.8299 138.441 71.5899C137.501 71.3699 136.581 71.0799 135.691 70.7199C134.801 70.3499 133.951 69.9499 133.091 69.4799L133.891 69.3399C133.271 70.0199 132.601 70.6499 131.891 71.2199C131.171 71.7899 130.401 72.2999 129.581 72.7199C128.761 73.1499 127.871 73.4499 126.951 73.5899C126.041 73.7299 125.121 73.6099 124.281 73.2399C125.141 73.3599 126.021 73.2699 126.841 72.9899C127.641 72.7099 128.411 72.3299 129.111 71.8599C129.821 71.3899 130.511 70.8599 131.151 70.2999C131.791 69.7399 132.401 69.1399 132.971 68.4999L133.321 68.1099L133.771 68.3599C134.551 68.7999 135.391 69.2099 136.211 69.5999C137.031 69.9899 137.891 70.3199 138.751 70.6299C139.601 70.9399 140.481 71.1299 141.371 71.1999C141.811 71.2499 142.251 71.1899 142.661 71.0299C143.071 70.8499 143.431 70.5899 143.711 70.2399Z" fill="#183B59"/>
<path d="M141.44 65.6101C141.38 65.6101 141.31 65.59 141.26 65.56C141.21 65.53 141.16 65.48 141.14 65.42C141.11 65.34 141.11 65.25 141.14 65.17C141.17 65.09 141.23 65.03 141.31 64.99C144.99 63.56 148.91 62.82 152.86 62.8C152.94 62.8 153.02 62.8401 153.08 62.9001C153.14 62.9601 153.17 63.0401 153.17 63.1301C153.17 63.1701 153.16 63.21 153.15 63.25C153.13 63.29 153.11 63.32 153.08 63.35C153.05 63.38 153.01 63.4 152.98 63.42C152.94 63.44 152.9 63.44 152.86 63.44C149 63.46 145.17 64.1901 141.57 65.5801C141.52 65.6001 141.48 65.6101 141.44 65.6101Z" fill="#86BCFC"/>
<path d="M153.961 70.6699H153.841C150.231 69.2999 146.401 68.5999 142.541 68.6099C142.451 68.6099 142.371 68.5699 142.301 68.5099C142.241 68.4499 142.201 68.3599 142.201 68.2699C142.201 68.1799 142.241 68.0999 142.301 68.0299C142.361 67.9699 142.451 67.9299 142.541 67.9299C146.491 67.9299 150.411 68.6399 154.101 70.0399C154.141 70.0599 154.171 70.0799 154.201 70.1099C154.231 70.1399 154.251 70.1799 154.271 70.2099C154.291 70.2499 154.291 70.2899 154.291 70.3299C154.291 70.3699 154.281 70.4099 154.261 70.4499C154.241 70.5099 154.191 70.5699 154.141 70.5999C154.101 70.6599 154.031 70.6799 153.961 70.6699Z" fill="#86BCFC"/>
<path d="M154.69 67.2701C154.65 67.2801 154.61 67.2801 154.56 67.2701C149.88 65.3301 142.04 67.2701 141.96 67.2701C141.88 67.2901 141.79 67.2801 141.72 67.2301C141.65 67.1901 141.6 67.1201 141.58 67.0301C141.57 66.9901 141.57 66.9501 141.57 66.9101C141.57 66.8701 141.59 66.8301 141.61 66.7901C141.63 66.7501 141.66 66.7201 141.69 66.7001C141.72 66.6801 141.76 66.6601 141.8 66.6501C142.13 66.5701 149.96 64.6501 154.8 66.6501C154.88 66.6801 154.94 66.7401 154.97 66.8201C155 66.9001 155 66.9801 154.97 67.0601C154.95 67.1201 154.91 67.1701 154.85 67.2101C154.81 67.2501 154.75 67.2701 154.69 67.2701Z" fill="#86BCFC"/>
<path d="M112.261 69.2401C112.191 69.2401 112.121 69.2201 112.071 69.1801C112.011 69.1401 111.971 69.0801 111.961 69.0101C111.931 68.9301 111.941 68.8401 111.981 68.7701C112.021 68.7001 112.091 68.6401 112.171 68.6101C115.971 67.5301 119.931 67.1401 123.871 67.4801C123.951 67.4901 124.031 67.5301 124.081 67.6001C124.131 67.6701 124.161 67.7501 124.151 67.8401C124.141 67.9201 124.101 68.0001 124.031 68.0501C123.961 68.1001 123.881 68.1301 123.801 68.1201C119.951 67.7901 116.081 68.1601 112.371 69.2201L112.261 69.2401Z" fill="#86BCFC"/>
<path d="M113.221 76.4802C113.171 76.4802 113.121 76.4702 113.081 76.4502C113.041 76.4302 113.001 76.4002 112.971 76.3602C112.921 76.2902 112.901 76.2102 112.911 76.1302C112.921 76.0502 112.961 75.9702 113.031 75.9202C116.181 73.5402 119.741 71.7602 123.541 70.6602C123.581 70.6402 123.631 70.6302 123.671 70.6402C123.721 70.6402 123.761 70.6502 123.801 70.6702C123.841 70.6902 123.881 70.7202 123.911 70.7502C123.941 70.7902 123.961 70.8302 123.971 70.8702C123.981 70.9102 123.981 70.9602 123.981 71.0102C123.971 71.0602 123.951 71.1002 123.931 71.1402C123.901 71.1802 123.871 71.2102 123.831 71.2302C123.791 71.2502 123.751 71.2702 123.701 71.2702C119.991 72.3502 116.511 74.0902 113.431 76.4102C113.361 76.4602 113.291 76.4802 113.221 76.4802Z" fill="#86BCFC"/>
<path d="M111.57 73.42C111.5 73.42 111.44 73.4 111.39 73.36C111.34 73.32 111.3 73.27 111.27 73.21C111.25 73.15 111.25 73.08 111.26 73.02C111.28 72.96 111.31 72.9 111.36 72.86C115.45 69.57 123.5 69.23 123.84 69.21C123.92 69.21 124 69.24 124.07 69.3C124.13 69.36 124.17 69.43 124.18 69.52C124.18 69.6 124.15 69.68 124.09 69.74C124.03 69.8 123.95 69.84 123.87 69.84C123.78 69.84 115.69 70.19 111.77 73.35C111.71 73.39 111.64 73.42 111.57 73.42Z" fill="#86BCFC"/>
<path d="M133.941 30.7401C133.841 30.7301 133.751 30.6901 133.691 30.6201C133.631 30.5501 133.591 30.4501 133.601 30.3601C133.991 23.6301 137.861 14.3701 137.901 14.2801C137.941 14.1901 138.011 14.1201 138.101 14.0901C138.191 14.0501 138.291 14.0501 138.381 14.0901C138.421 14.1101 138.461 14.1401 138.501 14.1701C138.531 14.2001 138.561 14.2401 138.581 14.2901C138.601 14.3301 138.611 14.3801 138.611 14.4301C138.611 14.4801 138.601 14.5201 138.581 14.5701C138.541 14.6601 134.731 23.8101 134.341 30.4201C134.331 30.5201 134.291 30.6101 134.221 30.6701C134.131 30.7201 134.031 30.7501 133.941 30.7401Z" fill="#86BCFC"/>
<path d="M135.86 31.1101C135.81 31.1101 135.77 31.0901 135.72 31.0701C135.68 31.0501 135.64 31.0201 135.61 30.9801C135.58 30.9401 135.56 30.9001 135.54 30.8601C135.53 30.8101 135.52 30.7701 135.53 30.7201C135.97 27.3301 137.33 24.1201 139.45 21.4401C139.48 21.4001 139.52 21.3701 139.56 21.3501C139.6 21.3301 139.65 21.3101 139.69 21.3101C139.74 21.3101 139.78 21.3101 139.83 21.3201C139.88 21.3301 139.92 21.3601 139.95 21.3901C140.02 21.4501 140.07 21.5401 140.08 21.6401C140.09 21.7401 140.06 21.8301 140 21.9101C137.99 24.4901 136.69 27.5601 136.24 30.8001C136.24 30.8501 136.22 30.8901 136.2 30.9401C136.18 30.9801 136.15 31.0201 136.11 31.0501C136.07 31.0801 136.03 31.1001 135.99 31.1201C135.95 31.1101 135.9 31.1201 135.86 31.1101Z" fill="#86BCFC"/>
<path d="M120.071 33.01C119.991 33.01 119.911 32.98 119.841 32.93C119.771 32.88 119.731 32.8 119.721 32.72C118.461 26.21 113.461 17.67 113.411 17.58C113.361 17.5 113.351 17.4 113.371 17.3C113.401 17.21 113.461 17.13 113.541 17.08C113.581 17.06 113.631 17.04 113.671 17.03C113.721 17.02 113.761 17.03 113.811 17.04C113.861 17.05 113.901 17.07 113.941 17.1C113.981 17.13 114.011 17.17 114.031 17.21C114.081 17.3 119.141 25.95 120.421 32.57C120.431 32.62 120.431 32.67 120.421 32.71C120.411 32.76 120.391 32.8 120.371 32.84C120.351 32.88 120.311 32.91 120.271 32.94C120.231 32.97 120.191 32.98 120.141 32.99L120.071 33.01Z" fill="#86BCFC"/>
<path d="M118.221 33.6302C118.141 33.6302 118.061 33.6002 117.991 33.5502C117.931 33.5002 117.881 33.4302 117.861 33.3502C117.001 30.2002 115.321 27.3302 112.981 25.0302C112.911 24.9602 112.871 24.8702 112.871 24.7802C112.871 24.6802 112.901 24.5902 112.971 24.5202C113.041 24.4502 113.131 24.4102 113.221 24.4102C113.321 24.4102 113.411 24.4402 113.481 24.5102C115.941 26.8902 117.701 29.8902 118.591 33.1902C118.601 33.2402 118.601 33.2802 118.591 33.3302C118.581 33.3802 118.561 33.4202 118.541 33.4602C118.511 33.5002 118.481 33.5402 118.441 33.5602C118.401 33.5902 118.361 33.6102 118.311 33.6202L118.221 33.6302Z" fill="#86BCFC"/>
<path d="M148.561 37.4099C152.611 36.8299 155.721 35.1299 155.501 33.6099C155.281 32.0899 151.821 31.3199 147.771 31.8999C143.721 32.4799 140.611 34.1799 140.831 35.6999C141.051 37.2199 144.511 37.9799 148.561 37.4099Z" fill="#86BCFC"/>
<path d="M112.46 43.9001C116.51 43.3301 119.619 41.6301 119.399 40.1101C119.179 38.5901 115.729 37.8201 111.679 38.3901C107.629 38.9601 104.52 40.6601 104.74 42.1801C104.95 43.7101 108.41 44.4801 112.46 43.9001Z" fill="#86BCFC"/>
<path d="M188.91 209.08C186.54 209.08 184.27 208.14 182.6 206.47C180.93 204.8 179.98 202.53 179.98 200.16C179.98 198.35 179.87 195.73 179.73 192.68C178.65 168.73 178.78 148.35 191.34 141.55C198.17 137.85 203.36 139.87 205.86 141.4C214.84 146.92 216.15 161.78 215.42 187.27C215.29 189.59 214.26 191.78 212.55 193.35C210.84 194.93 208.58 195.77 206.25 195.71C203.92 195.64 201.71 194.67 200.09 193C198.47 191.33 197.57 189.09 197.57 186.76C197.81 178.44 197.75 172.31 197.52 167.79C197.47 168.38 197.42 169.02 197.37 169.68C196.88 177.03 197.26 185.25 197.55 191.87C197.7 195.13 197.82 197.94 197.82 200.15C197.82 202.52 196.88 204.79 195.21 206.46C193.54 208.14 191.27 209.08 188.91 209.08Z" fill="#0C6ED6"/>
<path d="M186.461 215.62C194.031 214.4 199.621 209.99 198.941 205.77C198.261 201.55 191.571 199.12 184.001 200.35C176.431 201.57 170.841 205.98 171.521 210.2C172.201 214.42 178.891 216.85 186.461 215.62Z" fill="#86BCFC"/>
<path d="M186.56 213.74C194.13 212.52 199.72 208.11 199.04 203.89C198.36 199.67 191.67 197.25 184.1 198.47C176.53 199.69 170.94 204.1 171.62 208.32C172.3 212.53 178.99 214.96 186.56 213.74Z" fill="#0C6ED6"/>
<path d="M180.07 215.81C180.05 215.5 180.05 215.18 180.07 214.87C180.1 214.55 180.14 214.24 180.2 213.93C180.32 213.37 180.5 212.82 180.74 212.3C181.11 211.48 181.64 210.75 182.3 210.14C182.94 209.53 183.71 209.07 184.55 208.8C184.04 209.52 183.5 210.14 183.08 210.8C182.85 211.12 182.67 211.47 182.47 211.8C182.26 212.13 182.1 212.47 181.95 212.84C181.8 213.21 181.62 213.61 181.46 214.02C181.31 214.42 181.21 214.69 181.1 215.04C180.99 215.39 180.93 215.6 180.85 215.88L180.07 215.81Z" fill="#183B59"/>
<path d="M175.101 214.42C175.091 214.24 175.091 214.05 175.101 213.87C175.131 213.44 175.201 213.01 175.311 212.59C175.421 212.15 175.581 211.72 175.771 211.31C176.131 210.49 176.661 209.76 177.331 209.15C177.961 208.53 178.731 208.07 179.581 207.81C179.071 208.52 178.531 209.15 178.111 209.81C177.881 210.13 177.701 210.48 177.501 210.81C177.291 211.14 177.131 211.48 176.981 211.85C176.831 212.22 176.631 212.65 176.481 213.07C176.331 213.48 176.241 213.74 176.131 214.05C176.021 214.36 175.981 214.54 175.921 214.78L175.101 214.42Z" fill="#183B59"/>
<path d="M171.471 209.92C171.561 209.65 171.671 209.38 171.791 209.12C172.151 208.31 172.681 207.59 173.331 206.99C173.961 206.37 174.731 205.91 175.581 205.65C175.071 206.36 174.531 206.99 174.111 207.65C173.881 207.97 173.701 208.32 173.501 208.65C173.291 208.98 173.131 209.32 172.981 209.69C172.831 210.06 172.731 210.26 172.611 210.56C172.441 210.99 172.281 211.44 172.131 211.9L171.471 209.92Z" fill="#183B59"/>
<path d="M122.711 223.5C126.821 225.37 135.321 229.2 139.871 229.03C140.021 229.03 140.171 229.03 140.311 229.03C140.351 229.03 140.381 229.03 140.421 229.03C143.001 228.36 162.791 220.15 164.131 217.91C164.761 216.65 164.681 215.28 164.541 213.82C163.871 206.9 157.751 203.76 151.341 202.47C141.211 201.05 126.131 212.01 122.321 218.8C121.081 220.98 121.001 222.73 122.711 223.5Z" fill="#878787"/>
<path d="M122.71 223.5C126.82 225.37 135.32 229.2 139.87 229.03C140.02 229.03 140.17 229.03 140.31 229.03C140.35 229.03 140.38 229.03 140.42 229.03L140.87 225.34C134.26 224 125.4 220.2 122.31 218.82C121.08 220.98 121 222.73 122.71 223.5Z" fill="#7D7D7D"/>
<path d="M139.87 229.03C140.02 229.03 140.17 229.03 140.31 229.03C142.37 228.58 162.76 220.17 164.13 217.89C164.74 216.61 164.88 215.17 164.54 213.8C159.38 212 141.24 223.63 140.46 225.32C140.04 226.51 139.84 227.76 139.87 229.03Z" fill="#6E6E6E"/>
<path d="M140.741 222.84C140.391 223.07 140.001 223.23 139.581 223.28C139.161 223.34 138.741 223.3 138.341 223.17C134.671 222.04 124.391 218.8 124.551 217.78C124.761 216.54 131.471 208.7 137.971 208.28C143.981 207.9 154.881 214.58 149.631 217.16C144.171 219.85 143.241 221.1 140.741 222.84Z" fill="#707070"/>
<path d="M138.181 223.73C123.721 219.3 123.881 218.33 123.991 217.72C124.271 216.03 131.411 208.16 137.951 207.74C142.791 207.41 150.641 211.51 151.531 214.78C151.721 215.49 151.761 216.78 149.911 217.72C147.371 218.88 144.981 220.35 142.801 222.08C142.271 222.49 141.731 222.9 141.101 223.36C140.561 223.73 139.911 223.93 139.251 223.93C138.881 223.91 138.521 223.85 138.181 223.73ZM140.411 222.39C141.031 221.96 141.551 221.55 142.071 221.15C144.331 219.37 146.801 217.87 149.421 216.67C150.561 216.12 150.541 215.49 150.431 215.08C149.761 212.54 142.611 208.61 138.051 208.9C132.041 209.28 125.931 216.32 125.231 217.76C126.031 218.43 130.341 220.13 138.551 222.65C138.861 222.75 139.201 222.79 139.521 222.74C139.851 222.7 140.161 222.58 140.441 222.39H140.411Z" fill="#666666"/>
<path d="M131.59 221.1C134.19 218.37 141.61 211.18 144.6 210.53L144.35 209.39C140.4 210.24 131.13 219.88 130.74 220.29L131.59 221.1Z" fill="#666666"/>
<path d="M137.79 216.25C139.98 214.47 141.35 212.53 140.85 211.91C140.35 211.29 138.16 212.23 135.97 214.01C133.78 215.79 132.41 217.73 132.91 218.35C133.42 218.97 135.6 218.03 137.79 216.25Z" fill="#666666"/>
<path d="M134.041 216.81C134.561 217.41 135.801 216.58 137.291 215.28C138.781 213.98 139.961 212.68 139.441 212.08C138.921 211.48 137.281 212.08 135.791 213.36C134.291 214.63 133.511 216.21 134.041 216.81Z" fill="#404040"/>
<path d="M155.06 205.37C153.23 205.37 151.45 204.81 149.96 203.77C148.46 202.73 147.32 201.25 146.69 199.54C146.06 197.83 145.97 195.96 146.42 194.2C146.88 192.43 147.87 190.85 149.26 189.66C150.32 188.43 159.69 176.3 168.63 119.91C169 117.57 170.28 115.48 172.2 114.08C174.12 112.69 176.5 112.12 178.84 112.49C181.18 112.86 183.27 114.14 184.67 116.06C186.06 117.97 186.63 120.36 186.26 122.7C176.15 186.58 164.64 200.69 160.16 203.78C158.67 204.82 156.89 205.38 155.06 205.37Z" fill="#0C6ED6"/>
<path d="M151.281 210.86C157.941 207.05 161.611 200.95 159.491 197.25C157.371 193.54 150.251 193.63 143.601 197.44C136.951 201.25 133.271 207.35 135.391 211.05C137.511 214.76 144.621 214.68 151.281 210.86Z" fill="#86BCFC"/>
<path d="M150.7 209.06C157.35 205.25 161.03 199.15 158.91 195.45C156.79 191.74 149.67 191.83 143.02 195.64C136.36 199.45 132.69 205.55 134.81 209.25C136.93 212.95 144.05 212.87 150.7 209.06Z" fill="#0C6ED6"/>
<path d="M145.38 213.24C145.25 212.95 145.14 212.65 145.05 212.35C144.8 211.48 144.7 210.58 144.77 209.68C144.82 208.79 145.04 207.92 145.44 207.12C145.83 206.33 146.39 205.65 147.09 205.12C146.86 205.97 146.57 206.72 146.42 207.5C146.31 207.88 146.27 208.27 146.19 208.65C146.11 209.02 146.08 209.42 146.07 209.81C146.06 210.2 146.03 210.66 146.03 211.08C146.03 211.5 146.03 211.8 146.03 212.16C146.03 212.52 146.07 212.73 146.1 213.03L145.38 213.24Z" fill="#183B59"/>
<path d="M140.211 213.68C140.141 213.51 140.081 213.34 140.031 213.17C139.901 212.75 139.821 212.33 139.771 211.89C139.621 210.54 139.851 209.18 140.441 207.96C140.821 207.17 141.391 206.49 142.081 205.96C141.851 206.81 141.571 207.56 141.411 208.34C141.301 208.72 141.261 209.11 141.181 209.5C141.101 209.88 141.071 210.27 141.061 210.66C141.051 211.05 141.011 211.53 141.021 212C141.031 212.46 141.021 212.67 141.021 213.04L141.081 213.8L140.211 213.68Z" fill="#183B59"/>
<path d="M128.13 205.56L101.94 218.17L43.5801 195.48L68.5701 189.84L128.13 205.56Z" fill="#878787"/>
<path d="M128.13 205.56V207.36L101.91 221.47V218.17L128.13 205.56Z" fill="#6E6E6E"/>
<path d="M101.911 218.17V221.47L43.6211 197.9V195.5L101.911 218.17Z" fill="#595959"/>
<path d="M107.469 198.99V201.43L85.9395 209.21V206.3L107.469 198.99Z" fill="#5C5C5C"/>
<path d="M48.3105 193.15L55.2905 195.59H55.3006L56.4205 195.98H56.4305L63.3806 198.4H63.3905L64.4706 198.78H64.4805L71.3905 201.2L72.4406 201.57H72.4505L80.2505 204.3L81.3105 204.67L85.9706 206.3L89.3806 205.14L90.4205 204.79L94.4906 203.41L95.5305 203.06H95.5405L99.5305 201.7L100.611 201.33H100.621L104.081 200.16L105.201 199.77H105.211L107.501 199L102.951 197.85L101.721 197.54L92.5605 195.23L91.3306 194.92L84.2305 193.13L82.9505 192.8L75.8006 190.99H75.7905L74.4505 190.65H74.4406L70.0206 189.53L68.5005 189.78H68.4906L66.9305 190.05H66.9205L64.8905 190.39H64.8806L63.4106 190.64H63.4005L60.0806 191.19L58.6805 191.42L53.6105 192.27L52.2306 192.5L48.3105 193.15Z" fill="#737373"/>
<path d="M85.9295 206.3V209.21L48.2695 195.63V193.12L85.9295 206.3Z" fill="#545454"/>
<path d="M66.9004 190.04L104.05 200.15L105.17 199.76L68.4704 189.77H68.4604L66.9004 190.04Z" fill="#5C5C5C"/>
<path d="M63.3809 190.63L99.5108 201.69L100.591 201.32L64.8609 190.38H64.8509L63.3809 190.63Z" fill="#5C5C5C"/>
<path d="M58.6504 191.42L94.4604 203.41L95.5004 203.06L60.0504 191.19L58.6504 191.42Z" fill="#5C5C5C"/>
<path d="M52.2012 192.49L89.3512 205.13L90.3912 204.78L53.5812 192.26L52.2012 192.49Z" fill="#5C5C5C"/>
<path d="M80.2207 204.3L101.681 197.53L102.911 197.84L81.2807 204.67L80.2207 204.3Z" fill="#545454"/>
<path d="M63.3711 198.41L82.9111 192.79L84.1911 193.12L64.4611 198.8H64.4511L63.3711 198.41Z" fill="#545454"/>
<path d="M71.3711 201.21L91.2911 194.9L92.5211 195.21L72.4211 201.57H72.4111L71.3711 201.21Z" fill="#545454"/>
<path d="M55.291 195.59L56.411 195.98H56.421L75.761 190.97L74.421 190.63H74.411L55.291 195.59Z" fill="#545454"/>
<path d="M89.4004 207.2L92.3404 208.3L93.2504 208.64L96.9004 210.02L97.8004 210.36L101.73 211.84L104.89 210.43L105.79 210.03L109.42 208.41L110.32 208.01H110.33L114.32 206.23L115.24 205.82L118.88 204.2L119.84 203.77L122.16 202.73L118.01 201.71L116.93 201.45L112.91 200.47L111.82 200.2H111.81L109.91 199.74L107.85 200.49H107.84L106.75 200.88L103.29 202.14H103.28L102.24 202.51L98.2704 203.96L97.2604 204.33L93.3104 205.77L92.3104 206.14L89.4004 207.2Z" fill="#737373"/>
<path d="M122.161 204.77V202.73L101.811 211.53V214.52L122.161 204.77Z" fill="#5C5C5C"/>
<path d="M101.811 211.53V214.52L89.3906 210.12V207.17L101.811 211.53Z" fill="#545454"/>
<path d="M106.75 200.89L118.88 204.19L119.84 203.76L107.84 200.49H107.83L106.75 200.89Z" fill="#5C5C5C"/>
<path d="M102.24 202.52L114.32 206.22L115.24 205.81L103.29 202.15H103.28L102.24 202.52Z" fill="#5C5C5C"/>
<path d="M97.2598 204.34L109.42 208.41L110.32 208.01L98.2698 203.98L97.2598 204.34Z" fill="#5C5C5C"/>
<path d="M92.3008 206.14L104.891 210.42L105.791 210.02L93.3108 205.77L92.3008 206.14Z" fill="#5C5C5C"/>
<path d="M96.9004 210.02L97.8004 210.36L118 201.71L116.92 201.45L96.9004 210.02Z" fill="#545454"/>
<path d="M92.3301 208.3L93.2401 208.64L112.9 200.46L111.81 200.19H111.8L92.3301 208.3Z" fill="#545454"/>
<path d="M95.0698 200.41C102.59 198.72 107.92 193.96 106.98 189.78C106.04 185.59 99.1898 183.57 91.6698 185.25C84.1498 186.94 78.8198 191.7 79.7598 195.88C80.6998 200.07 87.5498 202.09 95.0698 200.41Z" fill="#86BCFC"/>
<path d="M91.8594 196.35C99.3394 194.68 104.659 189.94 103.719 185.77C102.789 181.6 95.9594 179.58 88.4794 181.25C80.9994 182.92 75.6794 187.66 76.6194 191.83C77.5494 196 84.3794 198.02 91.8594 196.35Z" fill="#0C6ED6"/>
<path d="M85.4702 198.84C85.3902 198.21 85.3902 197.58 85.4702 196.95C85.5502 196.38 85.7002 195.83 85.9102 195.29C86.2302 194.45 86.7102 193.69 87.3302 193.05C87.9302 192.4 88.6702 191.91 89.5002 191.6C89.0302 192.34 88.5302 192.98 88.1602 193.67C87.9502 194 87.7902 194.34 87.6102 194.71C87.4202 195.08 87.2802 195.38 87.1602 195.79C87.0302 196.2 86.8702 196.58 86.7402 196.99C86.6102 197.4 86.5302 197.66 86.4402 198.03C86.3502 198.4 86.3102 198.6 86.2502 198.88L85.4702 198.84Z" fill="#183B59"/>
<path d="M80.4102 197.72C80.4102 197.54 80.4102 197.35 80.4102 197.17C80.4202 196.74 80.4601 196.3 80.5401 195.87C80.6201 195.41 80.7502 194.97 80.9202 194.53C81.2402 193.69 81.7201 192.93 82.3401 192.29C82.9401 191.65 83.6901 191.15 84.5101 190.84C84.0401 191.59 83.5402 192.22 83.1702 192.92C82.9602 193.25 82.8001 193.59 82.6201 193.96C82.4301 194.33 82.2902 194.63 82.1702 195.03C82.0402 195.43 81.8602 195.86 81.7402 196.27C81.6202 196.68 81.5401 196.94 81.4501 197.27C81.3901 197.51 81.3402 197.76 81.2802 198.01L80.4102 197.72Z" fill="#183B59"/>
<path d="M76.541 193.48C76.611 193.2 76.701 192.93 76.811 192.67C77.121 191.84 77.601 191.09 78.231 190.45C78.821 189.8 79.571 189.3 80.401 189C79.931 189.74 79.431 190.38 79.061 191.08C78.851 191.41 78.691 191.75 78.511 192.11C78.331 192.47 78.181 192.78 78.051 193.18C77.921 193.58 77.831 193.77 77.741 194.07C77.591 194.51 77.461 194.97 77.341 195.41L76.541 193.48Z" fill="#183B59"/>
<path d="M88.1603 110.45L114.48 203.77L32.5303 174.46L0.820312 87.1201L88.1603 110.45Z" fill="#333333"/>
<path d="M0.820312 87.1199L10.9903 86.9199L95.3403 108.65L88.1603 110.45L0.820312 87.1199Z" fill="#636363"/>
<path d="M95.3399 108.65L119.87 201.18L114.49 203.77L88.1699 110.45L95.3399 108.65Z" fill="#787878"/>
<path d="M81.9806 225.7C82.9806 225.5 96.7306 221.31 96.7306 221.31L54.6506 202.97L50.6406 204.37L81.9806 225.7Z" fill="#858585"/>
<path d="M41.3008 145.14L57.6508 150.12L81.9808 225.69L48.6808 206.55L41.3008 145.14Z" fill="#474747"/>
<path d="M57.6504 150.13L83.7304 222.03L97.0304 221.32L81.9804 225.71L57.6504 150.13Z" fill="#B3B3B3"/>
</svg>
