<svg width="217" height="190" viewBox="0 0 217 190" fill="none" xmlns="http://www.w3.org/2000/svg">
<path d="M88.6686 51.45C89.8586 52.46 91.5386 52.4 93.4086 51.64C99.3186 49.22 107.199 39.67 108.089 33.67C108.349 31.97 108.039 30.56 106.979 29.67C100.959 24.62 82.6486 17.55 77.5886 23.56C72.5386 29.57 82.6586 46.39 88.6686 51.45Z" fill="#3F8CFF"/>
<path d="M93.4202 51.6301C99.3302 49.2101 107.21 39.6601 108.1 33.6601C102.9 29.5601 88.5002 24.1401 84.4602 28.9401C80.3502 33.8201 88.5102 47.4401 93.4202 51.6301Z" fill="#0C6ED6"/>
<path d="M144.678 28.77C144.308 30.21 142.978 31.11 141.088 31.56C135.128 32.97 123.678 29.92 119.638 25.74C118.498 24.56 117.938 23.29 118.278 22C120.148 14.71 130.468 -1.00995 137.768 0.860046C145.058 2.73005 146.548 21.47 144.678 28.77Z" fill="#3F8CFF"/>
<path d="M141.089 31.56C135.129 32.97 123.679 29.92 119.639 25.74C121.409 19.65 129.599 7.40004 135.419 8.88004C141.339 10.4 142.579 25.54 141.089 31.56Z" fill="#86BCFC"/>
<path d="M79.9199 161C78.1799 161 76.4299 160.38 75.0499 159.11C72.1099 156.42 71.8999 151.85 74.5899 148.91C74.6899 148.8 87.0999 134.71 96.0599 103.4C97.1599 99.57 101.15 97.35 104.99 98.44C108.82 99.54 111.04 103.53 109.95 107.37C99.9599 142.29 85.8499 158 85.2599 158.65C83.8199 160.21 81.8799 161 79.9199 161Z" fill="#0C6ED6"/>
<path d="M189.408 154.4C189.038 154.4 188.668 154.39 188.288 154.38C184.308 154.26 181.168 150.94 181.288 146.95C181.398 142.96 184.728 139.83 188.718 139.95C192.678 140.07 197.898 139.27 200.318 134.82C203.058 129.77 202.268 119.04 191.858 104.07C180.738 88.0801 192.678 71.6301 200.538 65.1801C203.618 62.6501 208.168 63.0901 210.698 66.1801C213.228 69.2601 212.788 73.8101 209.698 76.3401C209.218 76.7401 197.408 86.7801 203.708 95.8301C215.908 113.37 219.298 130.09 213.008 141.7C208.618 149.81 200.058 154.4 189.408 154.4Z" fill="#0C6ED6"/>
<path d="M188.99 145.73C187.42 154.07 181.23 162.48 170.84 167.33C166.46 169.37 161.33 170.78 155.49 171.28C123.44 174.01 105.51 171.31 96.8 155.99C95.07 152.95 93.71 149.41 92.67 145.32C89.57 133.11 100.07 98.4101 98.81 88.3601C97.55 78.3101 91.86 64.8801 90.99 58.2101C87.11 28.5601 108.88 19.7901 124.79 21.4001C127.76 21.7001 130.51 22.3601 132.87 23.3101C142.19 27.0801 152.03 38.3901 160.88 53.3801C164.5 59.4901 167.95 66.2201 171.13 73.2901C171.51 74.1401 171.91 75.0201 172.32 75.9501C175.18 82.4001 178.74 90.7301 181.89 99.7501C187.28 115.15 191.49 132.52 188.99 145.73Z" fill="#3F8CFF"/>
<path d="M160.879 53.37C152.129 58.31 130.699 68.74 121.699 58.2C118.379 54.31 116.989 38.54 124.789 21.39C127.759 21.69 130.509 22.35 132.869 23.3C142.199 27.06 152.039 38.38 160.879 53.37Z" fill="#0C6ED6"/>
<path d="M131.22 59.7201C136.81 59.7201 141.34 55.1901 141.34 49.6001C141.34 44.0101 136.81 39.4801 131.22 39.4801C125.63 39.4801 121.1 44.0101 121.1 49.6001C121.1 55.1901 125.63 59.7201 131.22 59.7201Z" fill="#3F8CFF"/>
<path d="M131.429 57.5001C135.829 57.5001 139.399 53.9301 139.399 49.5301C139.399 45.1301 135.829 41.5601 131.429 41.5601C127.029 41.5601 123.459 45.1301 123.459 49.5301C123.459 53.9301 127.029 57.5001 131.429 57.5001Z" fill="#B0E881"/>
<path d="M130.2 56.2901C132.26 55.6701 133.16 52.6101 132.2 49.4601C131.25 46.3101 128.81 44.2601 126.75 44.8801C124.69 45.5001 123.79 48.5601 124.75 51.7101C125.7 54.8601 128.14 56.9201 130.2 56.2901Z" fill="#183B59"/>
<path d="M129.64 37.6701C133.32 36.5601 135.97 34.5301 135.55 33.1501C135.13 31.7701 131.81 31.5401 128.12 32.6601C124.44 33.7701 121.79 35.8001 122.21 37.1801C122.63 38.5601 125.95 38.7801 129.64 37.6701Z" fill="#86BCFC"/>
<path d="M104.64 67.75C110.23 67.75 114.76 63.22 114.76 57.63C114.76 52.04 110.23 47.51 104.64 47.51C99.0495 47.51 94.5195 52.04 94.5195 57.63C94.5195 63.22 99.0495 67.75 104.64 67.75Z" fill="#0C6ED6"/>
<path d="M104.429 65.6601C108.829 65.6601 112.399 62.0901 112.399 57.6901C112.399 53.2901 108.829 49.7201 104.429 49.7201C100.029 49.7201 96.459 53.2901 96.459 57.6901C96.469 62.1001 100.039 65.6601 104.429 65.6601Z" fill="#B0E881"/>
<path d="M103.63 63.8801C105.69 63.2601 106.59 60.2001 105.63 57.0501C104.68 53.9001 102.24 51.8501 100.18 52.4701C98.1195 53.0901 97.2195 56.1501 98.1795 59.3001C99.1295 62.4501 101.57 64.5001 103.63 63.8801Z" fill="#183B59"/>
<path d="M99.339 46.83C103.019 45.72 105.669 43.69 105.249 42.31C104.829 40.93 101.509 40.71 97.819 41.82C94.139 42.93 91.489 44.96 91.909 46.34C92.329 47.72 95.659 47.94 99.339 46.83Z" fill="#86BCFC"/>
<path d="M120.699 68.8C122.749 68.18 123.879 65.96 123.239 63.84C122.599 61.72 120.419 60.5 118.379 61.12C116.329 61.74 115.189 63.96 115.839 66.08C116.469 68.21 118.649 69.42 120.699 68.8Z" fill="#183B59"/>
<path d="M130.459 67.9801C130.379 68.4201 130.129 68.8501 129.759 69.1501C129.399 69.4601 128.949 69.6501 128.499 69.7801C127.589 70.0201 126.659 70.0401 125.749 69.9801C124.839 69.9201 123.949 69.7501 123.069 69.5501C122.189 69.3301 121.339 69.0801 120.479 68.7601L121.229 68.4801C120.819 69.2001 120.379 69.8401 119.869 70.4501C119.349 71.0501 118.789 71.6201 118.129 72.0901C117.489 72.5701 116.749 72.9501 115.979 73.1601C115.199 73.3601 114.369 73.3701 113.629 73.1301C114.399 73.1101 115.129 72.9401 115.779 72.6101C116.429 72.3001 117.009 71.8601 117.549 71.3701C118.069 70.8701 118.559 70.3301 118.989 69.7401C119.419 69.1601 119.849 68.5301 120.179 67.9201L120.429 67.4501L120.929 67.6401C121.719 67.9401 122.559 68.2101 123.379 68.4401C124.199 68.6901 125.039 68.8701 125.889 69.0401C126.729 69.1801 127.579 69.2801 128.409 69.1901C129.209 69.1301 130.049 68.8001 130.459 67.9801Z" fill="#183B59"/>
<path d="M127.678 64C127.578 64 127.478 63.95 127.418 63.86C127.328 63.72 127.378 63.53 127.518 63.45C132.288 60.54 137.888 59.77 137.938 59.77C138.098 59.74 138.248 59.86 138.278 60.03C138.298 60.19 138.188 60.34 138.018 60.37C137.958 60.38 132.488 61.13 127.828 63.97C127.788 63.98 127.728 64 127.678 64Z" fill="#86BCFC"/>
<path d="M140.049 66.92C140.019 66.92 140.009 66.9201 139.979 66.9101C139.919 66.9001 134.549 65.63 129.179 66.6C129.019 66.63 128.859 66.52 128.829 66.35C128.799 66.19 128.909 66.03 129.079 66C134.579 65.01 140.069 66.31 140.129 66.32C140.289 66.36 140.389 66.52 140.349 66.68C140.309 66.83 140.179 66.92 140.049 66.92Z" fill="#86BCFC"/>
<path d="M128.329 65.4701C128.209 65.4701 128.099 65.4001 128.049 65.2901C127.989 65.1401 128.059 64.9601 128.209 64.8901C128.509 64.7601 135.509 61.8701 140.299 63.0601C140.459 63.1001 140.559 63.2601 140.519 63.4201C140.479 63.5801 140.319 63.6801 140.159 63.6401C135.559 62.5001 128.519 65.4201 128.449 65.4401C128.409 65.4601 128.369 65.4701 128.329 65.4701Z" fill="#86BCFC"/>
<path d="M101.069 71.5201C100.959 71.5201 100.849 71.4601 100.799 71.3501C100.719 71.2001 100.789 71.0201 100.939 70.9501C100.989 70.9201 106.069 68.4601 111.659 68.2401C111.829 68.2401 111.969 68.3701 111.969 68.5301C111.969 68.6901 111.839 68.84 111.679 68.84C106.229 69.06 101.259 71.4701 101.209 71.4901C101.159 71.5001 101.119 71.5201 101.069 71.5201Z" fill="#86BCFC"/>
<path d="M102.99 78.1201C102.91 78.1201 102.85 78.0901 102.79 78.0401C102.67 77.9301 102.66 77.7401 102.77 77.6101C102.81 77.5701 106.66 73.4401 111.79 71.2201C111.94 71.1501 112.12 71.2301 112.19 71.3801C112.25 71.5301 112.18 71.7101 112.03 71.7801C107.02 73.9501 103.25 77.9801 103.21 78.0201C103.15 78.0901 103.07 78.1201 102.99 78.1201Z" fill="#86BCFC"/>
<path d="M101.019 75.51C100.949 75.51 100.879 75.48 100.819 75.43C100.689 75.32 100.689 75.13 100.799 75C104.129 71.36 111.569 69.89 111.879 69.83C112.039 69.8 112.199 69.91 112.229 70.07C112.259 70.23 112.149 70.39 111.989 70.42C111.909 70.43 104.429 71.91 101.239 75.41C101.189 75.47 101.109 75.51 101.019 75.51Z" fill="#86BCFC"/>
<path d="M117.68 32.32C117.5 32.32 117.35 32.19 117.34 32.01C116.75 25.69 119.02 16.54 119.05 16.44C119.09 16.26 119.28 16.14 119.46 16.19C119.64 16.23 119.76 16.42 119.71 16.6C119.68 16.69 117.44 25.73 118.02 31.93C118.04 32.12 117.9 32.28 117.71 32.3C117.7 32.32 117.68 32.32 117.68 32.32Z" fill="#86BCFC"/>
<path d="M119.508 32.3901C119.328 32.3901 119.178 32.2501 119.168 32.0701C119.158 31.8801 118.918 27.2801 121.488 22.8901C121.578 22.7301 121.798 22.6701 121.958 22.7701C122.118 22.8601 122.178 23.0801 122.078 23.2401C119.618 27.4401 119.848 32.0001 119.848 32.0401C119.858 32.2301 119.718 32.3901 119.528 32.4001C119.528 32.3901 119.518 32.3901 119.508 32.3901Z" fill="#86BCFC"/>
<path d="M105.11 36.4001C104.97 36.4001 104.84 36.3101 104.79 36.1701C102.69 30.3001 96.8301 23.0701 96.7701 22.9901C96.6501 22.8501 96.6801 22.6301 96.8201 22.5101C96.9601 22.3901 97.1801 22.4201 97.3001 22.5601C97.3601 22.6401 103.29 29.9701 105.43 35.9401C105.49 36.1201 105.4 36.3201 105.22 36.3801C105.19 36.3901 105.15 36.4001 105.11 36.4001Z" fill="#86BCFC"/>
<path d="M103.469 37.24C103.329 37.24 103.209 37.16 103.149 37.03C103.129 36.99 101.419 32.76 97.4094 30C97.2494 29.89 97.2194 29.68 97.3194 29.52C97.4294 29.36 97.6394 29.33 97.7994 29.43C101.989 32.32 103.719 36.59 103.789 36.77C103.859 36.95 103.769 37.15 103.599 37.22C103.559 37.23 103.519 37.24 103.469 37.24Z" fill="#86BCFC"/>
<path d="M170.839 167.33C166.459 169.37 161.329 170.78 155.489 171.28C123.439 174.01 105.509 171.31 96.7992 155.99C95.7692 123.3 107.539 86.8601 120.939 85.8401C142.929 84.1601 160.889 110.71 165.959 129.61C171.769 151.24 172.049 161.5 170.839 167.33Z" fill="#86BCFC"/>
<path d="M181.749 170.2C181.749 173.23 175.609 174.67 169.749 174.54C169.409 174.53 169.079 174.52 168.749 174.5C167.779 174.44 166.819 174.35 165.909 174.2L164.919 174.02C163.959 173.83 163.059 173.58 162.289 173.27C161.859 173.11 161.469 172.92 161.119 172.71C159.969 172.05 159.279 171.21 159.279 170.19C159.279 169.92 159.289 169.67 159.309 169.4C159.309 169.4 159.309 169.4 159.309 169.39C159.739 163.97 164.589 159.7 170.499 159.7C176.409 159.7 181.269 163.98 181.699 169.39C181.699 169.4 181.699 169.4 181.699 169.4C181.739 169.68 181.749 169.93 181.749 170.2Z" fill="#86BCFC"/>
<path d="M181.739 169.04C181.739 174.83 159.279 174.83 159.279 169.04C159.279 163.25 164.309 158.55 170.509 158.55C176.719 158.55 181.739 163.25 181.739 169.04Z" fill="#0C6ED6"/>
<path d="M174.48 172.35C171.33 172.35 168.42 170.26 167.53 167.08C167.43 166.72 165.03 158.12 163.49 148.84C160.83 132.78 162.32 124.41 168.45 120.85C173.4 117.98 178.85 118.56 182.67 122.38C187.43 127.13 188.43 135.67 188.43 142.01C188.44 149.9 186.84 157.37 184.16 161.99C183.53 163.08 182.66 163.93 181.67 164.54C181.95 167.92 179.81 171.14 176.42 172.08C175.79 172.26 175.13 172.35 174.48 172.35Z" fill="#0C6ED6"/>
<path d="M162.56 169.11C162.54 169.82 162.51 170.52 162.46 171.21C162.44 171.52 162.42 171.84 162.39 172.15C162.36 172.53 162.33 172.9 162.3 173.27C161.87 173.11 161.48 172.92 161.13 172.71C161.08 172.32 161.07 171.92 161.08 171.52C161.08 171.38 161.09 171.24 161.09 171.11C161.15 170.37 161.28 169.63 161.5 168.92C161.73 168.21 162.03 167.53 162.49 166.9C162.6 167.68 162.57 168.39 162.56 169.11Z" fill="#183B59"/>
<path d="M164.929 174.02C164.909 173.95 164.899 173.88 164.879 173.81C164.819 173.48 164.779 173.15 164.749 172.82C164.719 172.41 164.719 171.99 164.749 171.58C164.809 170.84 164.939 170.1 165.159 169.39C165.389 168.68 165.689 168 166.149 167.37C166.249 168.15 166.229 168.86 166.229 169.58C166.209 170.29 166.179 170.98 166.129 171.68C166.099 172.14 166.069 172.6 166.029 173.06C165.999 173.44 165.969 173.82 165.919 174.21L164.929 174.02Z" fill="#183B59"/>
<path d="M170.049 170.03C170.029 170.74 169.999 171.44 169.949 172.13C169.919 172.54 169.889 172.95 169.859 173.37C169.829 173.75 169.789 174.15 169.749 174.54C169.409 174.53 169.079 174.52 168.749 174.5C168.729 174.42 168.719 174.35 168.699 174.27C168.639 173.96 168.609 173.64 168.569 173.32C168.539 172.89 168.539 172.47 168.569 172.04C168.629 171.3 168.749 170.56 168.979 169.85C169.209 169.14 169.509 168.46 169.969 167.83C170.079 168.6 170.059 169.32 170.049 170.03Z" fill="#183B59"/>
<path d="M116.04 184.63C119.91 186.39 127.9 190 132.18 189.83C132.32 189.83 132.47 189.82 132.6 189.8C132.63 189.79 132.67 189.79 132.7 189.77C135.13 189.12 153.73 181.42 155 179.31C155.6 178.14 155.52 176.84 155.38 175.46C154.76 168.95 148.99 166 142.96 164.81C133.43 163.47 119.25 173.79 115.66 180.17C114.51 182.26 114.46 183.91 116.04 184.63Z" fill="#878787"/>
<path d="M116.038 184.63C119.908 186.39 127.898 190 132.178 189.83C132.318 189.83 132.468 189.82 132.598 189.8C132.628 189.79 132.668 189.79 132.698 189.77L133.128 186.3C126.918 185.04 118.568 181.47 115.668 180.17C114.508 182.26 114.458 183.91 116.038 184.63Z" fill="#7D7D7D"/>
<path d="M132.18 189.83C132.32 189.83 132.47 189.82 132.6 189.8C134.53 189.37 153.71 181.46 155 179.31C155.6 178.14 155.69 176.81 155.38 175.46C150.53 173.76 133.47 184.71 132.73 186.3C132.32 187.21 132.19 188.67 132.18 189.83Z" fill="#6E6E6E"/>
<path d="M133.009 184.01C132.359 184.47 131.519 184.56 130.749 184.32C127.289 183.26 117.629 180.21 117.779 179.25C117.969 178.09 124.279 170.71 130.399 170.32C136.019 169.96 146.309 176.24 141.369 178.67C136.229 181.2 135.359 182.36 133.009 184.01Z" fill="#707070"/>
<path d="M130.589 184.85C116.989 180.68 117.139 179.77 117.239 179.16C117.499 177.57 124.219 170.16 130.369 169.77C134.919 169.46 142.329 173.32 143.139 176.39C143.319 177.06 143.349 178.3 141.609 179.15C137.809 181.02 136.409 182.1 134.919 183.25C134.419 183.64 133.909 184.03 133.319 184.45C132.809 184.81 132.209 184.99 131.579 184.99C131.249 185 130.919 184.95 130.589 184.85ZM132.689 183.56C133.269 183.15 133.759 182.77 134.249 182.39C135.709 181.26 137.229 180.09 141.129 178.17C142.199 177.65 142.189 177.06 142.079 176.67C141.449 174.28 134.719 170.59 130.439 170.86C124.819 171.22 119.039 177.84 118.379 179.18C119.139 179.8 123.189 181.42 130.909 183.78C131.549 183.99 132.199 183.91 132.689 183.56Z" fill="#666666"/>
<path d="M124.39 182.35C126.84 179.79 133.82 173.02 136.63 172.41L136.4 171.34C132.69 172.14 123.97 181.2 123.6 181.59L124.39 182.35Z" fill="#666666"/>
<path d="M130.249 177.79C132.309 176.12 133.599 174.29 133.129 173.71C132.659 173.13 130.599 174.01 128.539 175.68C126.479 177.35 125.189 179.18 125.659 179.76C126.129 180.35 128.189 179.47 130.249 177.79Z" fill="#666666"/>
<path d="M126.688 178.34C127.188 178.91 128.348 178.13 129.758 176.9C131.168 175.67 132.268 174.46 131.778 173.9C131.278 173.33 129.738 173.87 128.338 175.1C126.938 176.32 126.198 177.77 126.688 178.34Z" fill="#404040"/>
<path d="M120.2 170.4L95.5699 182.26L40.6699 160.92L64.1799 155.62L120.2 170.4Z" fill="#878787"/>
<path d="M120.199 170.4V172.1L95.5391 185.37V182.27L120.199 170.4Z" fill="#6E6E6E"/>
<path d="M95.529 182.27V185.37L40.709 163.2V160.94L95.529 182.27Z" fill="#595959"/>
<path d="M100.76 164.23V166.52L80.5098 173.84V171.1L100.76 164.23Z" fill="#5C5C5C"/>
<path d="M45.1191 158.73L51.6791 161.03H51.6891L52.7491 161.4H52.7591L59.2891 163.68H59.2991L60.3192 164.04H60.3291L66.8291 166.31L67.8192 166.66H67.8291L75.1691 169.22L76.1591 169.57L80.5391 171.1L83.7491 170.01L84.7291 169.68L88.5591 168.38L89.5391 168.05H89.5491L93.3091 166.77L94.3192 166.42H94.3291L97.5791 165.32L98.6292 164.96H98.6391L100.789 164.23L96.5091 163.15L95.3492 162.85L86.7291 160.68L85.5692 160.38L78.8891 158.7L77.6791 158.39L70.9592 156.69H70.9491L69.6891 156.37H69.6791L65.5191 155.32L64.0891 155.56H64.0791L62.6191 155.81H62.6091L60.6991 156.13H60.6891L59.3091 156.36H59.2991L56.1791 156.88L54.8591 157.1L50.0891 157.9L48.7891 158.11L45.1191 158.73Z" fill="#737373"/>
<path d="M80.5101 171.1V173.84L45.0801 161.07V158.71L80.5101 171.1Z" fill="#545454"/>
<path d="M62.6094 155.81L97.5494 165.32L98.5994 164.96L64.0794 155.56H64.0694L62.6094 155.81Z" fill="#5C5C5C"/>
<path d="M59.2988 156.36L93.2788 166.76L94.2888 166.41L60.6888 156.12H60.6788L59.2988 156.36Z" fill="#5C5C5C"/>
<path d="M54.8496 157.11L88.5396 168.39L89.5196 168.06L56.1696 156.9L54.8496 157.11Z" fill="#5C5C5C"/>
<path d="M48.7793 158.12L83.7193 170.01L84.6993 169.68L50.0793 157.9L48.7793 158.12Z" fill="#5C5C5C"/>
<path d="M75.1387 169.22L95.3187 162.85L96.4787 163.15L76.1287 169.57L75.1387 169.22Z" fill="#545454"/>
<path d="M59.2793 163.68L77.6593 158.39L78.8693 158.7L60.3093 164.04H60.2993L59.2793 163.68Z" fill="#545454"/>
<path d="M66.8086 166.32L85.5486 160.39L86.7086 160.69L67.8086 166.67H67.7986L66.8086 166.32Z" fill="#545454"/>
<path d="M51.6895 161.03L52.7495 161.4H52.7594L70.9494 156.69L69.6895 156.37H69.6794L51.6895 161.03Z" fill="#545454"/>
<path d="M83.7695 171.95L86.5295 172.99L87.3795 173.31L90.8195 174.6L91.6695 174.92L95.3695 176.31L98.3395 174.98L99.1795 174.6L102.59 173.08L103.44 172.7H103.45L107.21 171.02L108.08 170.63L111.5 169.1L112.4 168.7L114.58 167.73L110.67 166.78L109.65 166.53L105.87 165.61L104.85 165.36H104.84L103.05 164.93L101.12 165.64H101.11L100.09 166.01L96.8395 167.2H96.8295L95.8495 167.55L92.1095 168.91L91.1595 169.26L87.4395 170.61L86.4995 170.96L83.7695 171.95Z" fill="#737373"/>
<path d="M114.579 169.66V167.74L95.4395 176.02V178.83L114.579 169.66Z" fill="#5C5C5C"/>
<path d="M95.4398 176.02V178.83L83.7598 174.69V171.92L95.4398 176.02Z" fill="#545454"/>
<path d="M100.09 166.01L111.5 169.11L112.4 168.71L101.12 165.64H101.11L100.09 166.01Z" fill="#5C5C5C"/>
<path d="M95.8496 167.55L107.21 171.03L108.08 170.64L96.8396 167.2H96.8296L95.8496 167.55Z" fill="#5C5C5C"/>
<path d="M91.1602 169.26L102.59 173.09L103.44 172.71L92.1102 168.92L91.1602 169.26Z" fill="#5C5C5C"/>
<path d="M86.5 170.96L98.34 174.99L99.18 174.61L87.44 170.61L86.5 170.96Z" fill="#5C5C5C"/>
<path d="M90.8184 174.6L91.6684 174.92L110.668 166.78L109.648 166.53L90.8184 174.6Z" fill="#545454"/>
<path d="M86.5293 172.99L87.3793 173.31L105.869 165.62L104.849 165.37H104.839L86.5293 172.99Z" fill="#545454"/>
<path d="M87.0402 159.04C87.2202 162.07 81.2602 163.89 75.3902 164.13C75.0002 164.16 74.6002 164.16 74.2202 164.16C73.3102 164.17 72.4002 164.13 71.5502 164.07L70.3902 163.94C69.4902 163.82 68.6402 163.66 67.8802 163.44C67.4102 163.31 66.9802 163.15 66.5902 162.98C65.1602 162.36 64.2502 161.5 64.1802 160.35C64.1702 160.08 64.1602 159.82 64.1702 159.55C64.3002 154 68.9802 149.37 75.0102 149.01C81.0302 148.66 86.2202 152.74 86.9802 158.23C87.0002 158.51 87.0202 158.77 87.0402 159.04Z" fill="#86BCFC"/>
<path d="M64.0891 159.17C64.4291 165.07 87.3091 163.76 86.9691 157.86C86.6291 151.96 81.2291 147.48 74.9091 147.84C68.5891 148.2 63.7491 153.27 64.0891 159.17Z" fill="#0C6ED6"/>
<path d="M67.87 159.77C67.89 160.48 67.9 161.17 67.89 161.87C67.89 162.01 67.88 162.15 67.88 162.29C67.87 162.67 67.86 163.06 67.85 163.45C67.38 163.32 66.95 163.16 66.56 162.99C66.52 162.62 66.5 162.24 66.5 161.87C66.5 161.86 66.5 161.84 66.51 161.82C66.53 161.09 66.61 160.37 66.79 159.66C66.98 158.94 67.24 158.23 67.66 157.59C67.81 158.34 67.83 159.05 67.87 159.77Z" fill="#183B59"/>
<path d="M70.3692 163.95C70.2892 163.55 70.2392 163.16 70.2192 162.76C70.2092 162.55 70.1992 162.33 70.1992 162.11C70.2092 161.36 70.2992 160.62 70.4892 159.9C70.6792 159.18 70.9392 158.47 71.3592 157.83C71.4992 158.59 71.5292 159.31 71.5592 160.03C71.5792 160.74 71.5892 161.43 71.5792 162.13C71.5792 162.39 71.5692 162.65 71.5692 162.92C71.5592 163.3 71.5492 163.7 71.5392 164.09L70.3692 163.95Z" fill="#183B59"/>
<path d="M75.3991 160.25C75.4091 160.96 75.4291 161.66 75.4191 162.35C75.4191 162.55 75.4091 162.75 75.4091 162.94C75.3991 163.34 75.3891 163.73 75.3791 164.13C74.9891 164.16 74.5891 164.16 74.2091 164.16C74.1291 163.77 74.0791 163.37 74.0591 162.98C74.0491 162.76 74.0391 162.55 74.0391 162.33C74.0591 161.58 74.1391 160.84 74.3291 160.12C74.5191 159.4 74.7791 158.69 75.1991 158.05C75.3391 158.82 75.3691 159.54 75.3991 160.25Z" fill="#183B59"/>
<path d="M82.5992 80.9501L107.349 168.73L30.2692 141.16L0.449219 59.0001L82.5992 80.9501Z" fill="#333333"/>
<path d="M0.449219 59.0001L10.0092 58.8101L89.3492 79.2501L82.5992 80.9401L0.449219 59.0001Z" fill="#636363"/>
<path d="M89.3496 79.26L112.42 166.29L107.35 168.73L82.5996 80.95L89.3496 79.26Z" fill="#787878"/>
<path d="M76.7898 189.35C77.7298 189.16 90.6698 185.22 90.6698 185.22L51.0898 167.96L47.3398 169.27L76.7898 189.35Z" fill="#858585"/>
<path d="M38.5195 113.58L53.9095 118.27L76.7895 189.35L45.4695 171.35L38.5195 113.58Z" fill="#474747"/>
<path d="M53.9102 118.27L78.4402 185.9L90.9501 185.23L76.7901 189.35L53.9102 118.27Z" fill="#B3B3B3"/>
<path d="M150.429 167.2L138.949 161.43L138.109 160.04C138.199 159.91 147.999 145.78 147.989 114.32C147.989 110.33 151.219 107.1 155.209 107.1C159.199 107.1 162.429 110.33 162.429 114.32C162.439 150.79 151.659 165.63 150.429 167.2Z" fill="#0C6ED6"/>
<path d="M150.389 167.77C151.389 170.63 146.169 174.03 140.589 175.88C140.219 176.01 139.849 176.13 139.469 176.24C138.599 176.49 137.719 176.71 136.879 176.89L135.719 177.09C134.819 177.22 133.949 177.3 133.169 177.3C132.679 177.3 132.229 177.27 131.799 177.21C130.259 177.02 129.139 176.43 128.759 175.34C128.669 175.09 128.599 174.83 128.529 174.57C127.119 169.2 130.349 163.46 136.049 161.46C141.749 159.47 147.849 161.96 150.099 167.03C150.199 167.27 150.299 167.52 150.389 167.77Z" fill="#86BCFC"/>
<path d="M128.37 174.22C130.32 179.8 151.95 172.23 150.01 166.66C148.06 161.08 141.64 158.25 135.66 160.35C129.68 162.43 126.42 168.64 128.37 174.22Z" fill="#0C6ED6"/>
<path d="M132.159 173.75C132.369 174.42 132.569 175.09 132.759 175.77C132.799 175.9 132.839 176.04 132.869 176.17C132.969 176.54 133.059 176.92 133.169 177.29C132.679 177.29 132.229 177.26 131.799 177.2C131.659 176.85 131.539 176.5 131.439 176.13C131.429 176.12 131.429 176.1 131.429 176.08C131.249 175.37 131.129 174.65 131.109 173.93C131.089 173.19 131.149 172.43 131.379 171.69C131.709 172.4 131.939 173.07 132.159 173.75Z" fill="#183B59"/>
<path d="M135.72 177.08C135.54 176.72 135.38 176.35 135.25 175.98C135.18 175.78 135.11 175.57 135.06 175.36C134.87 174.64 134.75 173.9 134.73 173.15C134.71 172.41 134.77 171.65 134.99 170.92C135.34 171.61 135.56 172.3 135.79 172.98C136 173.65 136.2 174.32 136.39 175C136.47 175.25 136.53 175.5 136.6 175.76C136.7 176.13 136.8 176.51 136.9 176.9L135.72 177.08Z" fill="#183B59"/>
<path d="M139.53 172.15C139.74 172.83 139.94 173.5 140.13 174.17C140.18 174.36 140.23 174.55 140.29 174.74C140.39 175.12 140.49 175.5 140.59 175.89C140.22 176.02 139.85 176.14 139.47 176.25C139.29 175.9 139.13 175.53 139 175.16C138.92 174.95 138.86 174.75 138.81 174.54C138.62 173.82 138.5 173.08 138.48 172.34C138.46 171.6 138.52 170.84 138.75 170.1C139.08 170.79 139.31 171.47 139.53 172.15Z" fill="#183B59"/>
<path d="M181.898 99.7401C176.358 97.0501 166.478 88.1201 172.328 75.9401C175.188 82.3801 178.738 90.7201 181.898 99.7401Z" fill="#0C6ED6"/>
</svg>
