<svg width="223" height="227" viewBox="0 0 223 227" fill="none" xmlns="http://www.w3.org/2000/svg">
<path d="M45.8206 226.28C37.6906 226.28 19.3206 221.6 8.91057 211.53C3.37057 206.19 0.530567 199.78 0.700567 193.04C0.870567 186.3 4.32057 179.55 10.3806 174.34C21.8206 164.48 40.9306 160.37 62.8206 163.05C64.0106 163.16 65.1606 163.51 66.2106 164.08C67.2606 164.65 68.1906 165.42 68.9306 166.35C69.6806 167.28 70.2306 168.35 70.5606 169.5C70.8906 170.65 70.9806 171.85 70.8306 173.03C70.6806 174.21 70.3006 175.36 69.7106 176.39C69.1206 177.42 68.3206 178.33 67.3706 179.05C66.4206 179.77 65.3306 180.29 64.1806 180.59C63.0206 180.88 61.8206 180.94 60.6406 180.77C41.0406 178.36 27.8406 182.85 22.0306 187.86C19.8306 189.76 18.5806 191.76 18.5406 193.51C18.5406 194.12 18.4806 195.96 21.3106 198.69C28.2506 205.37 42.5306 208.62 45.7906 208.43C46.9806 208.32 48.1806 208.46 49.3106 208.82C50.4506 209.19 51.5006 209.77 52.4006 210.55C53.3006 211.33 54.0406 212.28 54.5706 213.35C55.1006 214.42 55.4106 215.58 55.4806 216.77C55.5506 217.96 55.3906 219.15 54.9906 220.28C54.5906 221.41 53.9806 222.44 53.1806 223.32C52.3806 224.2 51.4106 224.92 50.3206 225.42C49.2406 225.92 48.0706 226.2 46.8706 226.24C46.5506 226.28 46.1906 226.28 45.8206 226.28Z" fill="#0C6ED6"/>
<path d="M57.6201 226.57C65.2901 226.33 71.3901 222.68 71.2601 218.41C71.1301 214.14 64.8101 210.87 57.1401 211.11C49.4701 211.35 43.3701 215 43.5001 219.27C43.6301 223.53 49.9501 226.8 57.6201 226.57Z" fill="#86BCFC"/>
<path d="M57.1611 224.73C64.8311 224.49 70.9311 220.84 70.8011 216.57C70.6711 212.3 64.3511 209.03 56.6811 209.27C49.0111 209.51 42.9111 213.16 43.0411 217.43C43.1811 221.69 49.5011 224.96 57.1611 224.73Z" fill="#0C6ED6"/>
<path d="M63.8802 225.55C63.8402 225.24 63.7801 224.93 63.7001 224.62C63.6201 224.32 63.5201 224.02 63.4001 223.72C63.1801 223.19 62.9002 222.69 62.5602 222.22C62.0502 221.49 61.3901 220.87 60.6201 220.4C59.8801 219.92 59.0402 219.63 58.1602 219.53C58.8302 220.14 59.4401 220.63 59.9801 221.21C60.2701 221.48 60.5102 221.8 60.7702 222.08C61.0402 222.36 61.2601 222.67 61.4801 223C61.6901 223.33 61.9601 223.67 62.1501 224.06C62.3401 224.45 62.5201 224.67 62.7001 224.99C62.8801 225.31 62.9702 225.5 63.1002 225.77L63.8802 225.55Z" fill="#183B59"/>
<path d="M68.5213 223.22C68.5213 223.04 68.4513 222.87 68.4013 222.69C68.1713 221.83 67.7813 221.02 67.2613 220.3C66.7513 219.56 66.0913 218.94 65.3213 218.48C64.5813 218 63.7413 217.71 62.8613 217.61C63.5313 218.22 64.1413 218.71 64.6813 219.29C64.9713 219.56 65.2113 219.88 65.4713 220.16C65.7313 220.44 65.9613 220.75 66.1813 221.08C66.4013 221.41 66.6813 221.8 66.9113 222.18C67.1413 222.55 67.2613 222.77 67.4413 223.08C67.6113 223.38 67.6713 223.53 67.7913 223.75L68.5213 223.22Z" fill="#183B59"/>
<path d="M71.2111 218.17C71.0711 217.92 70.9211 217.67 70.7511 217.44C70.2511 216.71 69.5911 216.09 68.8311 215.64C68.0911 215.16 67.2411 214.86 66.3711 214.78C67.0411 215.38 67.6511 215.87 68.1911 216.46C68.4811 216.73 68.7211 217.04 68.9811 217.32C69.2411 217.6 69.4711 217.91 69.6911 218.24C69.9111 218.57 70.0511 218.75 70.2111 219.02C70.4711 219.41 70.7011 219.82 70.9411 220.24L71.2111 218.17Z" fill="#183B59"/>
<path d="M47.6497 196.63C45.8197 196.63 44.0398 196.07 42.5498 195.03C41.0498 193.99 39.9097 192.51 39.2797 190.8C38.6497 189.09 38.5598 187.22 39.0198 185.46C39.4798 183.69 40.4697 182.11 41.8597 180.92C42.9197 179.69 52.2897 167.56 61.2297 111.17C61.3397 109.95 61.6897 108.76 62.2797 107.69C62.8597 106.61 63.6698 105.67 64.6298 104.92C65.5998 104.17 66.7097 103.62 67.8897 103.31C69.0797 103 70.3098 102.95 71.5198 103.14C72.7298 103.33 73.8897 103.77 74.9197 104.43C75.9497 105.09 76.8398 105.95 77.5198 106.97C78.1998 107.99 78.6697 109.13 78.8897 110.34C79.1097 111.54 79.0798 112.78 78.7998 113.98C68.6898 177.86 57.1797 191.97 52.6997 195.06C51.2097 196.08 49.4497 196.63 47.6497 196.63Z" fill="#0C6ED6"/>
<path d="M43.1613 197.79C50.8313 197.72 57.0113 194.2 56.9813 189.93C56.9413 185.66 50.6913 182.25 43.0213 182.32C35.3513 182.39 29.1713 185.91 29.2013 190.18C29.2413 194.46 35.4913 197.86 43.1613 197.79Z" fill="#86BCFC"/>
<path d="M43.5402 195.93C51.2102 195.86 57.3902 192.34 57.3602 188.07C57.3202 183.8 51.0702 180.39 43.4002 180.46C35.7302 180.53 29.5502 184.05 29.5802 188.32C29.6202 192.6 35.8702 196 43.5402 195.93Z" fill="#0C6ED6"/>
<path d="M36.8301 197C36.8601 196.69 36.9001 196.37 36.9801 196.06C37.0501 195.75 37.1301 195.45 37.2401 195.15C37.4401 194.61 37.7001 194.1 38.0201 193.62C38.5001 192.87 39.1401 192.22 39.8801 191.72C40.6001 191.21 41.4301 190.88 42.3001 190.76C41.6801 191.39 41.0601 191.9 40.5501 192.51C40.2701 192.79 40.0401 193.11 39.7901 193.4C39.5401 193.69 39.3201 194.02 39.1201 194.36C38.9201 194.69 38.6701 195.08 38.4501 195.45C38.2401 195.82 38.1101 196.08 37.9401 196.4C37.7701 196.72 37.7001 196.93 37.5701 197.19L36.8301 197Z" fill="#183B59"/>
<path d="M32.0996 194.86C32.1196 194.68 32.1596 194.5 32.1996 194.32C32.2896 193.89 32.4196 193.48 32.5896 193.08C32.7696 192.66 32.9996 192.26 33.2596 191.88C33.7396 191.13 34.3796 190.48 35.1196 189.98C35.8396 189.48 36.6696 189.15 37.5396 189.02C36.9196 189.65 36.2996 190.16 35.7896 190.77C35.5096 191.05 35.2796 191.37 35.0296 191.67C34.7796 191.96 34.5596 192.28 34.3596 192.62C34.1196 192.98 33.8996 193.36 33.6896 193.75C33.5196 194.04 33.3596 194.35 33.1996 194.67C33.0396 194.98 32.9896 195.13 32.8796 195.34L32.0996 194.86Z" fill="#183B59"/>
<path d="M29.2012 189.89C29.3312 189.64 29.4812 189.39 29.6312 189.15C30.1112 188.41 30.7412 187.77 31.4712 187.28C32.1912 186.77 33.0212 186.44 33.8912 186.32C33.2812 186.94 32.6612 187.46 32.1412 188.06C31.8712 188.35 31.6312 188.66 31.3812 188.96C31.1312 189.25 30.9112 189.57 30.7112 189.91C30.5112 190.25 30.3712 190.44 30.2212 190.71C29.9812 191.11 29.7612 191.53 29.5512 191.95L29.2012 189.89Z" fill="#183B59"/>
<path d="M175.231 188.9C174.631 188.9 174.031 188.9 173.421 188.9C167.591 188.73 162.731 184.02 162.731 178.21C162.731 176.77 163.021 175.35 163.581 174.03C164.141 172.71 164.961 171.51 166.001 170.51C167.031 169.51 168.261 168.73 169.601 168.22C170.941 167.71 172.371 167.47 173.811 167.52C185.621 167.94 195.631 162.98 199.321 154.88C203.291 146.2 199.541 134.76 189.051 123.57C170.351 103.59 161.471 82.9999 162.731 62.3799C163.711 46.4999 170.621 34.1499 176.551 26.3099C177.511 25.0499 178.741 24.0299 180.141 23.3099C181.551 22.5899 183.101 22.1999 184.681 22.1699C186.261 22.1399 187.831 22.4599 189.271 23.1199C190.711 23.7799 191.981 24.7499 192.991 25.9599L193.211 26.2199C194.731 28.0599 195.581 30.3499 195.631 32.7399C195.681 35.1199 194.921 37.4499 193.471 39.3499C189.461 44.6899 184.631 53.2199 184.041 63.9399C183.241 78.3799 190.171 93.5199 204.631 108.94C221.331 126.77 226.491 146.74 218.761 163.71C211.771 179.17 194.821 188.9 175.231 188.9Z" fill="#0C6ED6"/>
<path d="M120.101 35.8299C119.431 37.4799 117.781 38.2899 115.571 38.4499C108.581 38.9699 96.031 33.1099 92.101 27.3299C90.991 25.6999 90.561 24.0699 91.141 22.5999C94.431 14.2599 108.671 -2.48009 116.651 1.16991C124.651 4.82991 123.381 27.5099 120.101 35.8299Z" fill="#3F8CFF"/>
<path d="M115.57 38.4998C108.58 39.0198 96.0296 33.1599 92.0996 27.3799C95.0796 20.4499 106.35 7.41985 112.73 10.3398C119.22 13.2698 118.2 31.5898 115.57 38.4998Z" fill="#86BCFC"/>
<path d="M51.1505 51.42C52.4905 52.59 54.3305 52.54 56.3805 51.67C62.8305 48.92 71.2705 37.94 72.1005 31C72.3405 29.04 71.9705 27.4 70.7605 26.32C64.0105 20.43 43.6605 12.11 38.2505 19.03C32.8405 25.95 44.4005 45.53 51.1505 51.42Z" fill="#3F8CFF"/>
<path d="M56.3804 51.6599C62.8304 48.9099 71.2704 37.9299 72.1004 30.9899C66.2704 26.1999 50.2704 19.8199 45.9504 25.3499C41.6304 30.8799 50.8604 46.7699 56.3804 51.6599Z" fill="#0C6ED6"/>
<path d="M137.021 208.48C128.401 210.44 118.111 211.71 105.941 212.29C104.311 212.36 79.9507 212.29 67.2407 202.47C64.5007 200.43 62.2207 197.83 60.5607 194.85C52.6907 180.2 63.0207 158.59 62.3007 123.62C61.6307 93.2999 53.6207 89.8299 51.7507 57.3799C50.6207 37.8999 67.5707 22.0599 87.0707 22.0599C91.1107 21.5999 95.2007 21.8699 99.1507 22.8699C111.671 26.1399 120.301 37.1299 130.241 52.1599C132.751 55.9599 135.351 60.0199 138.111 64.2799C139.451 66.3199 144.561 75.3899 150.551 87.8199C156.551 100.24 163.311 115.79 168.111 131.1L168.571 132.58C181.211 173.83 178.201 199.09 137.021 208.48Z" fill="#3F8CFF"/>
<path d="M137.021 208.48C128.401 210.44 118.111 211.71 105.941 212.29C104.311 212.36 79.9511 212.29 67.2411 202.47C64.5011 200.43 62.2211 197.84 60.5611 194.85C60.3911 185.73 63.6611 174.01 65.2411 157.22C67.1811 136.92 66.5011 133.84 67.7711 112.03C68.5311 98.9299 81.0911 89.6699 94.1211 91.1899C96.8611 91.1999 99.5711 91.6999 102.131 92.6699C110.251 95.8299 115.151 103.84 120.621 114.66C122.001 117.4 123.431 120.31 124.941 123.34C126.461 126.37 136.031 149.76 139.971 171.34C143.001 187.78 142.961 200.25 137.021 208.48Z" fill="#86BCFC"/>
<path d="M130.271 52.1499L123.181 56.3999C119.811 58.6899 115.451 59.7899 113.031 60.2899C107.461 61.4199 95.331 62.8899 91.141 60.7799C87.131 58.7799 89.361 36.9099 99.151 22.8599C111.701 26.1299 120.321 37.1199 130.271 52.1499Z" fill="#0C6ED6"/>
<path d="M113.441 49.8499C114.201 55.1899 109.251 59.3299 103.641 60.1299C98.031 60.9299 92.691 60.7999 91.921 55.4199C91.151 50.0399 95.261 41.5099 100.861 40.7299C106.471 39.9399 112.671 44.5099 113.441 49.8499Z" fill="#3F8CFF"/>
<path d="M110.78 50.3098C111.34 54.2398 107.69 57.2698 103.57 57.8598C99.4498 58.4498 95.5598 58.3398 94.9698 54.4098C94.3798 50.4798 97.4198 44.1898 101.54 43.5998C105.66 43.0098 110.19 46.3698 110.78 50.3098Z" fill="#B0E881"/>
<path d="M100.96 56.8999C102.93 56.6199 104.18 53.9399 103.75 50.9199C103.32 47.8999 101.37 45.6799 99.4001 45.9599C97.4301 46.2399 96.1801 48.9199 96.6101 51.9399C97.0401 54.9699 98.9801 57.1899 100.96 56.8999Z" fill="#183B59"/>
<path d="M56.8096 57.92C57.5796 63.26 63.4896 65.85 69.0996 65.05C74.7096 64.25 79.7896 62.62 79.0296 57.26C78.2696 51.9 71.9396 44.84 66.3396 45.64C60.7396 46.44 56.0496 52.57 56.8096 57.92Z" fill="#0C6ED6"/>
<path d="M59.5002 57.6198C60.0602 61.5498 64.4102 63.4398 68.5202 62.8598C72.6302 62.2698 76.3802 61.0698 75.8202 57.1398C75.2602 53.2098 70.6102 48.0098 66.4702 48.5998C62.3302 49.1798 58.9402 53.6798 59.5002 57.6198Z" fill="#B0E881"/>
<path d="M65.5206 61.9899C67.4906 61.7099 68.7406 59.0299 68.3106 56.0099C67.8806 52.9899 65.9306 50.77 63.9606 51.05C61.9906 51.33 60.7406 54.01 61.1706 57.03C61.6006 60.0499 63.5506 62.2699 65.5206 61.9899Z" fill="#183B59"/>
<path d="M85.6403 70.4401C87.8903 70.1201 89.4403 67.9701 89.1103 65.6401C88.7803 63.3101 86.6803 61.6801 84.4303 62.0001C82.1803 62.3201 80.6303 64.4701 80.9603 66.8001C81.2903 69.1301 83.3903 70.7601 85.6403 70.4401Z" fill="#183B59"/>
<path d="M96.0296 71.15C95.8596 71.62 95.5296 72.01 95.1096 72.27C94.6696 72.52 94.1796 72.68 93.6796 72.73C92.6996 72.82 91.7096 72.74 90.7596 72.5C89.8196 72.28 88.9096 71.99 88.0096 71.63C87.1196 71.26 86.2696 70.86 85.4096 70.39L86.2096 70.25C85.5896 70.93 84.9196 71.56 84.2096 72.13C83.4896 72.7 82.7196 73.21 81.8996 73.63C81.0796 74.07 80.1896 74.36 79.2696 74.5C78.3596 74.64 77.4396 74.52 76.5996 74.15C77.4596 74.27 78.3396 74.18 79.1596 73.9C79.9596 73.62 80.7296 73.24 81.4296 72.77C82.1296 72.3 82.7996 71.77 83.4296 71.21C84.0696 70.65 84.6796 70.05 85.2496 69.41L85.5896 69.02L86.0396 69.27C86.8196 69.71 87.6596 70.13 88.4896 70.51C89.3196 70.9 90.1696 71.24 91.0296 71.54C91.8696 71.85 92.7496 72.04 93.6496 72.11C94.0896 72.17 94.5396 72.11 94.9596 71.95C95.3796 71.77 95.7496 71.5 96.0296 71.15Z" fill="#183B59"/>
<path d="M93.7912 66.55C93.7312 66.55 93.6612 66.53 93.6112 66.5C93.5612 66.47 93.5112 66.42 93.4912 66.36C93.4612 66.28 93.4612 66.19 93.4912 66.11C93.5212 66.03 93.5812 65.97 93.6612 65.93C97.3412 64.51 101.261 63.76 105.211 63.74C105.291 63.74 105.371 63.78 105.431 63.84C105.491 63.9 105.521 63.98 105.521 64.07C105.521 64.11 105.511 64.15 105.491 64.19C105.471 64.23 105.451 64.26 105.421 64.29C105.391 64.32 105.351 64.34 105.311 64.36C105.271 64.38 105.231 64.38 105.191 64.38C101.331 64.4 97.5012 65.13 93.9012 66.52L93.7912 66.55Z" fill="#86BCFC"/>
<path d="M106.311 71.58H106.191C102.581 70.22 98.7505 69.52 94.8905 69.52C94.8505 69.52 94.8005 69.52 94.7605 69.5C94.7205 69.49 94.6805 69.46 94.6505 69.43C94.6205 69.4 94.6006 69.36 94.5806 69.33C94.5606 69.29 94.5605 69.25 94.5605 69.21C94.5605 69.13 94.5905 69.04 94.6505 68.98C94.7105 68.92 94.7905 68.88 94.8705 68.88C98.8205 68.87 102.741 69.59 106.431 70.99C106.471 71.01 106.501 71.03 106.531 71.06C106.561 71.09 106.581 71.13 106.601 71.16C106.621 71.2 106.621 71.24 106.621 71.28C106.621 71.32 106.611 71.36 106.601 71.4C106.571 71.45 106.531 71.5 106.481 71.53C106.431 71.57 106.371 71.58 106.311 71.58Z" fill="#86BCFC"/>
<path d="M107.04 68.18C107 68.19 106.96 68.19 106.91 68.18C102.23 66.24 94.3899 68.18 94.3099 68.18C94.2299 68.2 94.1399 68.19 94.0699 68.14C93.9999 68.1 93.9499 68.03 93.9299 67.94C93.9199 67.9 93.9199 67.86 93.9199 67.81C93.9299 67.77 93.9399 67.73 93.9599 67.69C93.9799 67.65 94.0099 67.62 94.0499 67.6C94.0799 67.58 94.1199 67.56 94.1599 67.55C94.4899 67.47 102.32 65.55 107.16 67.55C107.2 67.57 107.23 67.59 107.26 67.62C107.29 67.65 107.31 67.68 107.33 67.72C107.35 67.76 107.35 67.8 107.35 67.84C107.35 67.88 107.34 67.92 107.33 67.96C107.31 68.02 107.27 68.07 107.21 68.11C107.17 68.16 107.11 68.18 107.04 68.18Z" fill="#86BCFC"/>
<path d="M64.6204 70.14C64.5504 70.14 64.4804 70.12 64.4304 70.08C64.3704 70.04 64.3304 69.98 64.3104 69.91C64.2804 69.83 64.2904 69.74 64.3304 69.67C64.3704 69.59 64.4404 69.54 64.5204 69.51C68.3204 68.43 72.2904 68.05 76.2204 68.39C76.3004 68.4 76.3804 68.44 76.4304 68.51C76.4804 68.58 76.5104 68.66 76.5004 68.75C76.5004 68.79 76.4804 68.83 76.4604 68.87C76.4404 68.91 76.4104 68.94 76.3804 68.97C76.3504 69 76.3104 69.02 76.2704 69.03C76.2304 69.04 76.1904 69.04 76.1504 69.04C72.3004 68.71 68.4304 69.08 64.7204 70.14H64.6204Z" fill="#86BCFC"/>
<path d="M65.57 77.4001C65.52 77.4001 65.47 77.3901 65.43 77.3701C65.39 77.3501 65.35 77.3201 65.32 77.2801C65.27 77.2101 65.24 77.1301 65.25 77.0401C65.26 76.9601 65.3 76.8801 65.37 76.8201C68.52 74.4401 72.08 72.6601 75.88 71.5601C75.92 71.5401 75.97 71.5301 76.01 71.5401C76.06 71.5401 76.1 71.5501 76.14 71.5701C76.18 71.5901 76.22 71.6201 76.25 71.6501C76.28 71.6901 76.3 71.7301 76.31 71.7701C76.32 71.8101 76.32 71.8601 76.32 71.9101C76.31 71.9601 76.29 72.0001 76.27 72.0401C76.24 72.0801 76.21 72.1101 76.17 72.1301C76.13 72.1501 76.09 72.1701 76.04 72.1701C72.33 73.2401 68.85 74.9901 65.77 77.3101C65.72 77.3701 65.65 77.4001 65.57 77.4001Z" fill="#86BCFC"/>
<path d="M63.9198 74.3299C63.8698 74.3299 63.8298 74.3199 63.7798 74.2999C63.7398 74.2799 63.6998 74.2499 63.6698 74.2099C63.6398 74.1799 63.6198 74.1399 63.6098 74.0999C63.5998 74.0599 63.5898 74.0199 63.5998 73.9699C63.5998 73.9299 63.6198 73.8899 63.6398 73.8499C63.6598 73.8099 63.6898 73.7799 63.7198 73.7499C67.8098 70.4599 75.8598 70.1199 76.1998 70.0999C76.2798 70.0999 76.3698 70.1299 76.4298 70.1899C76.4898 70.2499 76.5298 70.3299 76.5298 70.4099C76.5298 70.4899 76.4998 70.5699 76.4398 70.6399C76.3798 70.6999 76.2998 70.7399 76.2198 70.7399C76.1298 70.7399 68.0398 71.0899 64.1198 74.2499C64.0698 74.2999 63.9998 74.3299 63.9198 74.3299Z" fill="#86BCFC"/>
<path d="M86.2907 31.66C86.1907 31.65 86.1007 31.61 86.0407 31.54C85.9807 31.47 85.9408 31.37 85.9508 31.28C86.3508 24.55 90.2108 15.29 90.2508 15.2C90.2908 15.11 90.3608 15.05 90.4508 15.01C90.5408 14.97 90.6407 14.97 90.7307 15.01C90.8207 15.05 90.8907 15.12 90.9307 15.21C90.9707 15.3 90.9707 15.4 90.9307 15.49C90.9007 15.58 87.0808 24.72 86.6908 31.33C86.6808 31.43 86.6408 31.52 86.5708 31.58C86.4808 31.63 86.3907 31.67 86.2907 31.66Z" fill="#86BCFC"/>
<path d="M88.2105 32.03H88.1505C88.1005 32.03 88.0605 32.01 88.0105 31.99C87.9705 31.97 87.9305 31.94 87.9005 31.9C87.8705 31.86 87.8505 31.82 87.8305 31.77C87.8205 31.72 87.8105 31.68 87.8205 31.63C88.2605 28.24 89.6205 25.03 91.7405 22.35C91.7705 22.31 91.8105 22.28 91.8505 22.26C91.8905 22.24 91.9405 22.22 91.9805 22.22C92.0305 22.22 92.0705 22.22 92.1205 22.23C92.1705 22.24 92.2105 22.27 92.2405 22.3C92.2805 22.33 92.3105 22.37 92.3305 22.41C92.3505 22.45 92.3705 22.5 92.3705 22.54C92.3705 22.59 92.3705 22.63 92.3605 22.68C92.3505 22.73 92.3205 22.77 92.2905 22.8C90.2805 25.38 88.9805 28.45 88.5305 31.69C88.5205 31.78 88.4805 31.86 88.4205 31.92C88.3705 31.98 88.2905 32.02 88.2105 32.03Z" fill="#86BCFC"/>
<path d="M72.4198 33.9199C72.3398 33.9199 72.2598 33.8899 72.1898 33.8399C72.1298 33.7899 72.0798 33.7099 72.0698 33.6299C70.7798 27.1399 65.8098 18.5799 65.7598 18.4599C65.7098 18.3799 65.6998 18.2799 65.7298 18.1799C65.7598 18.0799 65.8198 18.0099 65.8998 17.9599C65.9398 17.9399 65.9898 17.9199 66.0298 17.9099C66.0798 17.8999 66.1298 17.9099 66.1698 17.9199C66.2198 17.9299 66.2598 17.9499 66.2998 17.9799C66.3398 18.0099 66.3698 18.0499 66.3898 18.0899C66.4398 18.1799 71.4998 26.8299 72.7898 33.4499C72.8098 33.5499 72.7898 33.6399 72.7298 33.7199C72.6698 33.7999 72.5898 33.8599 72.4898 33.8699L72.4198 33.9199Z" fill="#86BCFC"/>
<path d="M70.5712 34.5401C70.4912 34.5401 70.4112 34.5101 70.3412 34.4601C70.2812 34.4101 70.2312 34.3401 70.2112 34.2601C69.3412 31.1001 67.6512 28.2301 65.3112 25.9401C65.2812 25.9101 65.2512 25.8701 65.2312 25.8201C65.2112 25.7801 65.2012 25.7301 65.2012 25.6801C65.2012 25.6301 65.2112 25.5801 65.2212 25.5401C65.2412 25.5001 65.2612 25.4501 65.3012 25.4201C65.3312 25.3901 65.3712 25.3601 65.4212 25.3401C65.4612 25.3201 65.5112 25.3101 65.5612 25.3101C65.6112 25.3101 65.6612 25.3201 65.7012 25.3301C65.7412 25.3501 65.7912 25.3701 65.8212 25.4101C68.2712 27.7901 70.0412 30.7901 70.9312 34.0901C70.9512 34.1801 70.9412 34.2801 70.8912 34.3601C70.8412 34.4401 70.7612 34.5001 70.6712 34.5201L70.5712 34.5401Z" fill="#86BCFC"/>
<path d="M99.8797 32.4499C103.93 31.8699 107.04 30.1699 106.82 28.6499C106.6 27.1299 103.14 26.3599 99.0897 26.9399C95.0397 27.5199 91.9297 29.2199 92.1497 30.7399C92.3797 32.2699 95.8297 33.0299 99.8797 32.4499Z" fill="#86BCFC"/>
<path d="M65.3699 45.1398C69.4199 44.5598 72.5299 42.8598 72.3099 41.3398C72.0899 39.8198 68.6299 39.0498 64.5799 39.6298C60.5299 40.2098 57.4199 41.9098 57.6399 43.4298C57.8599 44.9498 61.3199 45.7098 65.3699 45.1398Z" fill="#86BCFC"/>
<path d="M94.4298 98.6201C98.2498 91.9701 98.3398 84.8501 94.6398 82.7301C90.9398 80.6101 84.8398 84.2701 81.0198 90.9201C77.1998 97.5701 77.0998 104.68 80.8098 106.81C84.5098 108.93 90.6098 105.27 94.4298 98.6201Z" fill="#86BCFC"/>
<path d="M92.631 98.0398C96.451 91.3898 96.551 84.2798 92.841 82.1498C89.141 80.0198 83.041 83.6898 79.221 90.3398C75.401 96.9898 75.301 104.11 79.011 106.23C82.711 108.36 88.801 104.69 92.631 98.0398Z" fill="#0C6ED6"/>
<path d="M96.8302 92.74C96.5402 92.61 96.2402 92.5001 95.9402 92.4101C95.6402 92.3201 95.3302 92.24 95.0202 92.2C94.4502 92.11 93.8802 92.08 93.3002 92.13C92.4102 92.17 91.5402 92.4 90.7402 92.8C89.9502 93.18 89.2702 93.74 88.7402 94.44C89.5902 94.21 90.3402 93.93 91.1202 93.77C91.5002 93.67 91.8902 93.63 92.2702 93.55C92.6402 93.47 93.0402 93.44 93.4302 93.43C93.8202 93.42 94.2802 93.39 94.7002 93.39H95.7802L96.6502 93.46L96.8302 92.74Z" fill="#183B59"/>
<path d="M97.3098 87.5701C97.1398 87.5001 96.9799 87.4401 96.7999 87.3901C96.3799 87.2701 95.9599 87.1801 95.5199 87.1301C94.1699 86.9801 92.8098 87.2201 91.5898 87.8001C90.7998 88.1801 90.1198 88.7501 89.5898 89.4401C90.4398 89.2101 91.1898 88.9301 91.9698 88.7701C92.3498 88.6701 92.7399 88.6201 93.1299 88.5401C93.5099 88.4601 93.8998 88.4301 94.2898 88.4301C94.6798 88.4201 95.1599 88.3801 95.6299 88.3901H96.6599C96.9099 88.3901 97.1698 88.4101 97.4198 88.4501L97.3098 87.5701Z" fill="#183B59"/>
<path d="M94.3902 82.61C94.1002 82.59 93.8202 82.59 93.5302 82.61C92.6502 82.65 91.7802 82.88 90.9902 83.28C90.2002 83.66 89.5102 84.22 88.9902 84.92C89.8402 84.69 90.5902 84.41 91.3702 84.25C91.7502 84.14 92.1402 84.1 92.5202 84.02C92.9002 83.94 93.2802 83.91 93.6802 83.9C94.0702 83.89 94.3002 83.86 94.6202 83.87C95.0902 83.87 95.5602 83.87 96.0402 83.87L94.3902 82.61Z" fill="#183B59"/>
<path d="M113.881 147.22C106.341 147.22 98.3211 142.68 91.0611 134.25C84.1811 126.22 79.3711 116.63 77.0311 106.31C76.7911 105.16 76.7711 103.98 76.9911 102.83C77.2111 101.68 77.6511 100.58 78.2811 99.5999C79.5711 97.6099 81.6011 96.2299 83.9211 95.7399C85.0711 95.4999 86.2511 95.4799 87.4011 95.6999C88.5511 95.9199 89.6511 96.3599 90.6311 96.9999C92.6211 98.2899 94.0011 100.32 94.5011 102.64C96.2211 110.04 99.7011 116.91 104.641 122.68C109.511 128.3 113.041 129.36 113.861 129.36C114.331 128.91 117.811 124.95 117.311 108.4C117.271 107.23 117.471 106.06 117.891 104.97C118.311 103.87 118.931 102.87 119.741 102.02C120.541 101.17 121.511 100.48 122.581 99.9999C123.651 99.5199 124.801 99.2499 125.971 99.2199C127.141 99.1799 128.311 99.3799 129.401 99.7999C130.501 100.22 131.501 100.84 132.351 101.65C133.201 102.45 133.891 103.42 134.371 104.49C134.851 105.56 135.121 106.71 135.151 107.88C135.491 119.15 134.341 127.75 131.631 134.18C127.351 144.31 120.061 146.62 116.091 147.1C115.361 147.15 114.621 147.21 113.881 147.22Z" fill="#0C6ED6"/>
<path d="M110.711 212.45C108.341 212.45 106.071 211.51 104.401 209.83C102.731 208.16 101.791 205.89 101.791 203.52C101.791 195.51 103.951 162.78 114.511 149.98C119.631 143.77 127.791 141.61 136.361 144.21C149.891 148.32 164.771 164.25 167.021 186.83C167.141 188 167.021 189.17 166.681 190.3C166.341 191.42 165.791 192.47 165.041 193.37C164.301 194.28 163.381 195.03 162.351 195.58C161.321 196.13 160.191 196.48 159.021 196.6C157.851 196.72 156.681 196.6 155.551 196.26C154.431 195.92 153.381 195.36 152.481 194.62C151.571 193.88 150.821 192.96 150.271 191.93C149.721 190.9 149.371 189.77 149.251 188.6C147.711 173.24 137.551 163.22 131.171 161.29C130.321 161.03 128.811 160.69 128.281 161.29C123.261 167.39 119.601 190.72 119.601 203.48C119.601 204.65 119.381 205.82 118.931 206.9C118.491 207.99 117.831 208.97 117.011 209.8C116.181 210.63 115.201 211.29 114.121 211.75C113.041 212.21 111.881 212.45 110.711 212.45Z" fill="#0C6ED6"/>
<path d="M107.67 220.47C115.24 219.25 120.83 214.84 120.15 210.62C119.47 206.4 112.78 203.97 105.21 205.2C97.6399 206.42 92.0498 210.83 92.7298 215.05C93.4098 219.26 100.1 221.69 107.67 220.47Z" fill="#86BCFC"/>
<path d="M107.76 218.57C115.33 217.35 120.92 212.94 120.24 208.72C119.56 204.5 112.87 202.08 105.3 203.3C97.7297 204.52 92.1397 208.93 92.8197 213.15C93.4997 217.37 100.19 219.8 107.76 218.57Z" fill="#0C6ED6"/>
<path d="M101.281 220.65C101.261 220.33 101.261 220.02 101.281 219.7C101.311 219.39 101.351 219.07 101.411 218.76C101.531 218.2 101.711 217.65 101.951 217.13C102.321 216.31 102.851 215.58 103.511 214.97C104.151 214.36 104.921 213.9 105.761 213.63C105.251 214.35 104.711 214.97 104.291 215.63C104.061 215.95 103.881 216.3 103.681 216.63C103.471 216.96 103.311 217.3 103.161 217.67C103.011 218.04 102.831 218.44 102.671 218.85C102.521 219.25 102.421 219.52 102.311 219.87C102.201 220.22 102.141 220.43 102.061 220.71L101.281 220.65Z" fill="#183B59"/>
<path d="M96.2907 219.24C96.2807 219.06 96.2807 218.87 96.2907 218.69C96.3207 218.25 96.3907 217.82 96.5007 217.4C96.6107 216.96 96.7707 216.53 96.9607 216.12C97.3207 215.3 97.8507 214.57 98.5207 213.96C99.1507 213.34 99.9307 212.88 100.771 212.62C100.261 213.33 99.7207 213.96 99.3007 214.62C99.0707 214.94 98.8907 215.29 98.6907 215.62C98.4807 215.95 98.3207 216.29 98.1707 216.66C98.0207 217.03 97.8207 217.46 97.6707 217.87C97.5207 218.28 97.4307 218.54 97.3207 218.85C97.2107 219.16 97.1707 219.34 97.1107 219.58L96.2907 219.24Z" fill="#183B59"/>
<path d="M168.141 131.09C153.851 124.76 145.141 102.22 150.581 87.8098C156.531 100.13 163.341 115.77 168.141 131.09Z" fill="#0C6ED6"/>
<path d="M93.2001 53.0199C104.78 55.0999 111.16 48.3399 111.16 48.3399C111.16 48.3399 107.31 40.2699 101.36 41.8799C92.6001 44.2599 93.2001 53.0199 93.2001 53.0199Z" fill="#3F8CFF"/>
<path d="M77.1499 55.5C66.1899 59.76 59.4999 57.62 58.6299 54.36C58.0399 52.17 61.5999 46.35 67.7399 46.79C76.7899 47.44 77.1499 55.5 77.1499 55.5Z" fill="#0C6ED6"/>
</svg>
