<svg width="204" height="261" viewBox="0 0 204 261" fill="none" xmlns="http://www.w3.org/2000/svg">
<path d="M149.57 235.75C148.65 235.75 147.72 235.56 146.82 235.15C143.47 233.63 141.99 229.69 143.51 226.35C143.53 226.31 143.91 225.46 144.57 223.94C144.35 223.95 144.13 223.95 143.9 223.94C140.23 223.75 137.41 220.63 137.6 216.96C138.18 205.45 137.56 193.79 136.95 182.51C136.26 169.63 135.61 157.46 137.09 148.09C139.06 135.61 144.95 128.47 154.59 126.88C165.15 125.14 170.92 129.42 173.9 133.31C181.29 142.95 180.26 162.21 170.75 192.18C164.17 212.94 155.96 231.08 155.62 231.84C154.51 234.3 152.1 235.75 149.57 235.75ZM159.22 139.79C158.52 139.79 157.71 139.86 156.75 140.01C154.99 140.3 151.7 140.84 150.23 150.16C148.97 158.15 149.58 169.64 150.24 181.8C150.68 189.94 151.16 198.88 151.14 207.9C153.41 202 155.88 195.15 158.13 188.06C169.25 152.95 164.94 143.47 163.36 141.41C162.97 140.92 162.1 139.79 159.22 139.79Z" fill="#0C6ED6"/>
<path d="M33.2494 53.9904C33.8394 54.9504 34.9994 55.2804 36.4494 55.1804C41.0294 54.8504 48.5594 50.1004 50.5194 46.2104C51.0694 45.1104 51.1794 44.0804 50.6594 43.2204C47.6894 38.4204 36.7694 29.4704 31.9594 32.4404C27.1494 35.4204 30.2794 49.1804 33.2494 53.9904Z" fill="#3F8CFF"/>
<path d="M36.4504 55.1801C41.0304 54.8501 48.5604 50.1001 50.5204 46.2101C47.8904 42.2401 39.2704 35.3001 35.4404 37.6701C31.5304 40.0801 34.0404 51.2001 36.4504 55.1801Z" fill="#0C6ED6"/>
<path d="M18.5301 173.04C18.3701 173.04 18.2101 173.04 18.0501 173.03C11.8901 172.89 6.60013 169.36 3.55013 163.34C-3.26987 149.88 2.23013 128.15 18.2701 105.21C20.1401 102.53 23.8301 101.88 26.5001 103.75C29.1701 105.62 29.8301 109.31 27.9601 111.98C12.0501 134.74 10.5501 150.99 14.1001 157.99C15.1601 160.09 16.5801 161.17 18.3201 161.21C22.0001 161.3 26.2901 159.22 30.1101 155.53C37.3901 148.48 41.6301 137.19 41.7501 124.54C41.7801 121.29 44.4201 118.68 47.6601 118.68C47.6801 118.68 47.7001 118.68 47.7201 118.68C50.9801 118.71 53.6101 121.38 53.5801 124.65C53.4301 140.43 47.8701 154.79 38.3401 164.02C32.3101 169.85 25.3001 173.04 18.5301 173.04Z" fill="#0C6ED6"/>
<path d="M195.461 210.85C190.151 249.57 171.131 244.58 121.371 247.34C82.3511 249.51 64.9811 239.98 53.9011 209.16C53.2811 207.42 52.6711 205.62 52.0811 203.74C44.1411 188.1 38.4811 169.01 34.7311 149.89C33.7711 145.02 32.9411 140.15 32.2311 135.33C31.3611 129.47 30.6711 123.7 30.1511 118.11C28.6611 102.4 28.4611 88.1201 29.3311 77.5601C29.6311 73.8701 30.0511 70.6401 30.6011 67.9601C35.1711 45.3701 46.6411 36.9101 61.9011 36.2601C64.8711 36.1301 67.9711 36.5601 71.0011 37.4501C79.7411 40.0501 87.8111 46.6101 90.0911 55.3101C90.1811 55.6501 90.2611 56.0001 90.3411 56.3601C91.2011 60.1901 92.1311 63.9101 93.1011 67.5401C94.5711 73.0101 96.1411 78.2701 97.8111 83.3301C99.4411 88.2601 102.381 92.6101 106.261 95.9201C108.061 97.4601 110.061 98.7701 112.231 99.8201C127.461 107.17 143.591 118.33 157.591 131.64C181.521 154.43 199.211 183.55 195.461 210.85Z" fill="#3F8CFF"/>
<path d="M149.51 243.68C149.27 243.68 149.03 243.67 148.8 243.67C144.72 243.55 141.51 240.14 141.63 236.06C141.75 231.98 145.15 228.78 149.24 228.89C150.9 228.94 153.53 228.62 156.97 225.25C164.68 217.69 178.65 192.04 185.57 105.16C189.58 54.7101 189.19 7.92007 189.19 7.46007C189.15 3.38007 192.43 0.0400742 196.51 7.41699e-05C200.61 -0.0499258 203.93 3.24007 203.97 7.32007C203.98 7.79007 204.37 55.1501 200.32 106.24C197.93 136.38 194.46 161.97 190.04 182.27C184.2 209.05 176.77 226.57 167.33 235.82C161.98 241.03 155.99 243.68 149.51 243.68Z" fill="#0C6ED6"/>
<path d="M93.1006 67.5502C83.2906 70.4002 57.2406 74.1102 52.3206 67.4702C49.9606 64.2902 54.3806 49.6802 71.0006 37.4502C79.7406 40.0502 87.8106 46.6102 90.0906 55.3102C90.1806 55.6502 90.2606 56.0002 90.3406 56.3602C91.2006 60.1902 92.1206 63.9102 93.1006 67.5502Z" fill="#0C6ED6"/>
<path d="M59.6909 40.1301C59.5809 41.2501 60.2908 42.2201 61.5108 43.0201C65.3508 45.5401 74.2108 46.3401 78.1408 44.4301C79.2508 43.8901 79.9608 43.1402 80.0608 42.1502C80.6108 36.5302 77.3709 22.7901 71.7409 22.2301C66.1209 21.6701 60.2509 34.5101 59.6909 40.1301Z" fill="#3F8CFF"/>
<path d="M61.5098 43.0302C65.3498 45.5502 74.2098 46.3502 78.1398 44.4402C78.4598 39.6902 75.8298 28.9402 71.3398 28.5002C66.7698 28.0402 62.0098 38.4002 61.5098 43.0302Z" fill="#86BCFC"/>
<path d="M53.1399 77.5802C55.0199 77.0302 56.0899 75.0202 55.5199 73.0702C54.9499 71.1302 52.9699 69.9902 51.0899 70.5402C49.2099 71.0902 48.1399 73.1002 48.7099 75.0502C49.2699 77.0002 51.2599 78.1302 53.1399 77.5802Z" fill="#183B59"/>
<path d="M47.4102 80.7399C47.9802 81.0199 48.5801 81.0899 49.0901 80.8699C49.6001 80.6699 50.0202 80.2799 50.4202 79.8599C50.8002 79.4199 51.1602 78.9599 51.4602 78.4499C51.7802 77.9599 52.0802 77.4299 52.3302 76.9099L52.5901 76.3799L53.1002 76.6799C53.7702 77.0699 54.5701 77.3799 55.3401 77.6199C56.1201 77.8699 56.9302 78.0099 57.7502 78.0499C58.5602 78.0799 59.3902 77.9999 60.1702 77.7499C60.9702 77.5199 61.7001 77.0899 62.4001 76.5699C61.8701 77.2599 61.1801 77.8499 60.3701 78.2499C59.5701 78.6499 58.6602 78.8699 57.7502 78.9099C56.8402 78.9699 55.9402 78.8399 55.0602 78.6199C54.1802 78.3899 53.3602 78.0799 52.5302 77.6199L53.3002 77.3799C53.0002 77.9699 52.6702 78.5099 52.3002 79.0299C51.9102 79.5399 51.5002 80.0499 50.9902 80.4699C50.4902 80.8999 49.9001 81.2699 49.2001 81.3899C48.8601 81.4399 48.4901 81.4099 48.1801 81.2799C47.8801 81.1699 47.6202 80.9699 47.4102 80.7399Z" fill="#183B59"/>
<path d="M35.4903 79.7799C35.3803 79.7799 35.2903 79.7199 35.2403 79.6299C35.1703 79.4899 35.2303 79.3299 35.3703 79.2699C35.4103 79.2499 40.1003 77.0399 45.2103 76.8999C45.3603 76.8999 45.4903 77.0199 45.4903 77.1599C45.5003 77.3099 45.3703 77.4399 45.2203 77.4399C40.2203 77.5799 35.6503 79.7399 35.6103 79.7599C35.5603 79.7799 35.5303 79.7799 35.4903 79.7799Z" fill="#86BCFC"/>
<path d="M37.18 85.8502C37.11 85.8502 37.04 85.8302 36.99 85.7702C36.88 85.6602 36.87 85.4902 36.98 85.3802C37.01 85.3402 40.58 81.6002 45.3 79.6202C45.44 79.5602 45.6 79.6302 45.66 79.7702C45.72 79.9102 45.65 80.0702 45.51 80.1302C40.9 82.0702 37.41 85.7202 37.37 85.7602C37.32 85.8202 37.25 85.8502 37.18 85.8502Z" fill="#86BCFC"/>
<path d="M35.4007 83.4398C35.3307 83.4398 35.2707 83.4198 35.2107 83.3698C35.1007 83.2598 35.0907 83.0898 35.2007 82.9798C38.2907 79.6698 45.1107 78.4098 45.4007 78.3598C45.5507 78.3298 45.6907 78.4298 45.7207 78.5798C45.7507 78.7298 45.6507 78.8698 45.5007 78.8998C45.4307 78.9098 38.5707 80.1898 35.6107 83.3598C35.5507 83.4098 35.4807 83.4398 35.4007 83.4398Z" fill="#86BCFC"/>
<path d="M42.0301 49.9802C41.9401 49.9802 41.84 49.9302 41.79 49.8402C39.27 45.5102 33.5801 40.6302 33.5201 40.5902C33.4001 40.4902 33.3901 40.3202 33.4901 40.2002C33.5901 40.0802 33.7601 40.0702 33.8801 40.1702C33.9401 40.2202 39.7 45.1502 42.26 49.5602C42.34 49.6902 42.2901 49.8602 42.1601 49.9402C42.1201 49.9702 42.0701 49.9802 42.0301 49.9802Z" fill="#86BCFC"/>
<path d="M40.8597 50.88C40.7697 50.88 40.6797 50.84 40.6297 50.75C40.6097 50.72 38.6397 47.63 35.0597 46.03C34.9197 45.97 34.8597 45.8 34.9197 45.67C34.9797 45.54 35.1497 45.47 35.2797 45.53C39.0197 47.21 41.0097 50.33 41.0897 50.46C41.1697 50.59 41.1297 50.76 40.9997 50.84C40.9497 50.87 40.9097 50.88 40.8597 50.88Z" fill="#86BCFC"/>
<path d="M52.2298 44.06C52.1098 44.06 51.9998 43.98 51.9598 43.86C50.5698 38.95 51.0298 31.38 51.0398 31.3C51.0498 31.15 51.1798 31.03 51.3298 31.05C51.4798 31.06 51.5998 31.19 51.5798 31.34C51.5698 31.42 51.1198 38.89 52.4798 43.71C52.5198 43.85 52.4398 44.01 52.2898 44.05C52.2798 44.05 52.2598 44.06 52.2298 44.06Z" fill="#86BCFC"/>
<path d="M53.6909 43.8402C53.5709 43.8402 53.4509 43.7602 53.4209 43.6302C53.3809 43.4802 52.5209 39.8802 53.9209 36.0302C53.9709 35.8902 54.1309 35.8102 54.2709 35.8602C54.4109 35.9102 54.4909 36.0702 54.4409 36.2102C53.1009 39.9002 53.9509 43.4602 53.9609 43.5002C54.0009 43.6502 53.9008 43.8002 53.7608 43.8302C53.7408 43.8402 53.7209 43.8402 53.6909 43.8402Z" fill="#86BCFC"/>
<path d="M59.9195 73.16C59.8295 73.16 59.7395 73.11 59.6795 73.03C59.5995 72.9 59.6495 72.73 59.7695 72.65C64.1695 70.03 69.2995 69.39 69.3495 69.39C69.4995 69.37 69.6395 69.48 69.6495 69.63C69.6695 69.78 69.5595 69.92 69.4095 69.93C69.3595 69.94 64.3395 70.57 60.0395 73.12C60.0195 73.15 59.9695 73.16 59.9195 73.16Z" fill="#86BCFC"/>
<path d="M71.2103 75.9701C71.1903 75.9701 71.1703 75.9701 71.1403 75.9601C71.0903 75.9501 66.1803 74.7301 61.2503 75.5701C61.1003 75.6001 60.9603 75.4901 60.9303 75.3401C60.9103 75.1901 61.0103 75.0501 61.1603 75.0201C66.2003 74.1601 71.2203 75.4101 71.2703 75.4201C71.4203 75.4601 71.5103 75.6101 71.4703 75.7501C71.4503 75.8801 71.3403 75.9701 71.2103 75.9701Z" fill="#86BCFC"/>
<path d="M60.5099 74.5199C60.3999 74.5199 60.2999 74.4499 60.2599 74.3499C60.1999 74.2099 60.2699 74.0499 60.4099 73.9899C60.6799 73.8799 67.1199 71.2899 71.4999 72.4299C71.6499 72.4699 71.7399 72.6199 71.6999 72.7699C71.6599 72.9199 71.5099 73.0099 71.3599 72.9699C67.1599 71.8799 60.6799 74.4799 60.6199 74.5099C60.5799 74.5199 60.5399 74.5199 60.5099 74.5199Z" fill="#86BCFC"/>
<path d="M64.3093 67.01C69.6093 65.47 73.2594 62.02 72.4694 59.29C71.6794 56.57 66.7394 55.6 61.4394 57.14C56.1394 58.68 52.4893 62.13 53.2793 64.86C54.0693 67.59 59.0093 68.55 64.3093 67.01Z" fill="#3F8CFF"/>
<path d="M63.5408 66.4103C67.9808 65.1203 71.0508 62.2203 70.3808 59.9403C69.7208 57.6603 65.5808 56.8503 61.1408 58.1403C56.7008 59.4303 53.6308 62.3303 54.3008 64.6103C54.9608 66.9003 59.1008 67.7003 63.5408 66.4103Z" fill="#B0E881"/>
<path d="M62.2805 61.7601C62.9505 61.5701 63.2805 60.7101 63.0305 59.8501C62.7805 58.9901 62.0405 58.4501 61.3705 58.6401C60.7005 58.8301 60.3705 59.6901 60.6205 60.5501C60.8705 61.4101 61.6105 61.9601 62.2805 61.7601Z" fill="#183B59"/>
<path d="M37.4908 74.3601C42.3508 72.9501 45.7008 69.7801 44.9808 67.2701C44.2508 64.7701 39.7208 63.8901 34.8608 65.3001C30.0008 66.7101 26.6508 69.8801 27.3708 72.3901C28.1008 74.8901 32.6308 75.7701 37.4908 74.3601Z" fill="#0C6ED6"/>
<path d="M37.7995 73.5201C41.8795 72.3401 44.6895 69.6801 44.0795 67.5801C43.4695 65.4801 39.6695 64.7401 35.5995 65.9301C31.5195 67.1101 28.7095 69.7701 29.3195 71.8701C29.9295 73.9701 33.7295 74.7001 37.7995 73.5201Z" fill="#B0E881"/>
<path d="M38.9594 69.6901C39.6694 69.4801 40.0294 68.5701 39.7594 67.6601C39.4894 66.7401 38.6994 66.1601 37.9894 66.3701C37.2794 66.5801 36.9194 67.4901 37.1894 68.4001C37.4594 69.3201 38.2494 69.9001 38.9594 69.6901Z" fill="#183B59"/>
<path d="M59.9498 53.3698C63.1098 52.4498 65.3998 50.7398 65.0498 49.5498C64.6998 48.3598 61.8598 48.1398 58.6998 49.0598C55.5398 49.9798 53.2498 51.6898 53.5998 52.8798C53.9398 54.0698 56.7898 54.2898 59.9498 53.3698Z" fill="#86BCFC"/>
<path d="M35.1002 65.0001C38.2602 64.0801 40.5502 62.3701 40.2002 61.1801C39.8502 59.9901 37.0102 59.7701 33.8502 60.6901C30.6902 61.6101 28.4002 63.3201 28.7502 64.5101C29.0902 65.7001 31.9402 65.9201 35.1002 65.0001Z" fill="#86BCFC"/>
<path d="M92.1898 258.64C89.4998 258.64 86.9798 257 85.9698 254.34C85.6798 253.58 78.8697 235.51 73.8697 214.78C66.6797 184.94 67.0398 165.73 74.9497 156.05C78.1597 152.12 84.2098 147.82 94.7998 149.56C104.44 151.15 110.33 158.28 112.3 170.77C113.78 180.15 113.13 192.32 112.44 205.19C111.84 216.47 111.21 228.13 111.79 239.64C111.98 243.31 109.15 246.44 105.49 246.62C101.82 246.81 98.6997 243.98 98.5097 240.32C97.8897 228.12 98.5698 215.56 99.1598 204.49C99.8098 192.33 100.43 180.84 99.1698 172.85C97.6998 163.53 94.4197 162.99 92.6497 162.7C87.4197 161.84 85.8998 163.7 85.2498 164.49C82.9698 167.27 78.5598 177.43 86.7698 211.56C91.5598 231.5 98.3397 249.47 98.3997 249.65C99.6997 253.08 97.9697 256.93 94.5397 258.23C93.7697 258.5 92.9698 258.64 92.1898 258.64Z" fill="#0C6ED6"/>
<path d="M87.3193 260.83C93.6593 260.45 98.6293 257.29 98.4193 253.76C98.2093 250.23 92.8993 247.67 86.5693 248.05C80.2293 248.43 75.2593 251.59 75.4693 255.12C75.6693 258.65 80.9793 261.21 87.3193 260.83Z" fill="#86BCFC"/>
<path d="M87.5498 259.28C93.8898 258.9 98.8598 255.74 98.6498 252.21C98.4398 248.68 93.1298 246.12 86.7998 246.5C80.4598 246.88 75.4898 250.04 75.6998 253.57C75.9098 257.1 81.2198 259.66 87.5498 259.28Z" fill="#0C6ED6"/>
<path d="M82.671 260.54C82.761 260.31 82.851 260.09 82.941 259.87C83.061 259.6 83.191 259.33 83.321 259.06C83.481 258.74 83.641 258.44 83.821 258.13C83.971 257.84 84.161 257.59 84.331 257.32C84.531 257.07 84.711 256.79 84.921 256.55C85.321 256.03 85.811 255.58 86.301 255.04C85.601 255.18 84.911 255.48 84.341 255.94C83.741 256.38 83.251 256.95 82.881 257.59C82.641 258 82.441 258.44 82.301 258.89C82.221 259.14 82.161 259.39 82.121 259.65C82.081 259.9 82.051 260.17 82.041 260.43L82.671 260.54Z" fill="#183B59"/>
<path d="M78.681 259.22C78.761 259.02 78.831 258.83 78.921 258.63C79.041 258.36 79.161 258.11 79.291 257.86C79.451 257.53 79.621 257.21 79.801 256.9C79.951 256.61 80.141 256.36 80.311 256.09C80.511 255.84 80.691 255.56 80.901 255.32C81.301 254.8 81.791 254.35 82.281 253.81C81.581 253.95 80.891 254.25 80.321 254.71C79.721 255.15 79.231 255.72 78.861 256.36C78.671 256.68 78.511 257.02 78.381 257.38C78.261 257.72 78.161 258.07 78.101 258.42C78.071 258.57 78.061 258.72 78.041 258.87L78.681 259.22Z" fill="#183B59"/>
<path d="M75.8309 256.52C75.8309 256.51 75.8409 256.51 75.8409 256.51C76.0009 256.15 76.1709 255.8 76.3509 255.45C76.4709 255.22 76.5909 254.99 76.7309 254.76C76.8809 254.47 77.0709 254.22 77.2409 253.95C77.4409 253.7 77.6209 253.42 77.8309 253.18C78.2309 252.66 78.7209 252.21 79.2109 251.67C78.5109 251.81 77.8209 252.1 77.2509 252.57C76.6609 253 76.1709 253.57 75.8009 254.2C75.7909 254.21 75.7909 254.22 75.7909 254.22C75.6709 254.42 75.5609 254.63 75.4609 254.85L75.8309 256.52Z" fill="#183B59"/>
<path d="M35.6904 104.72C40.0804 100.13 41.5604 94.4301 39.0004 91.9901C36.4404 89.5501 30.8204 91.2901 26.4304 95.8801C22.0404 100.47 20.5604 106.17 23.1204 108.61C25.6804 111.05 31.3104 109.31 35.6904 104.72Z" fill="#86BCFC"/>
<path d="M34.3604 103.89C38.7504 99.3 40.2304 93.6 37.6704 91.16C35.1104 88.72 29.4904 90.46 25.1004 95.05C20.7104 99.64 19.2304 105.34 21.7904 107.78C24.3504 110.22 29.9704 108.48 34.3604 103.89Z" fill="#0C6ED6"/>
<path d="M38.7804 100.45C38.5804 100.29 38.3504 100.14 38.1304 100.01C37.9004 99.88 37.6804 99.76 37.4304 99.66C36.9904 99.47 36.5304 99.34 36.0604 99.26C35.3404 99.13 34.5804 99.14 33.8604 99.31C33.1404 99.45 32.4704 99.79 31.9004 100.23C32.6304 100.21 33.2904 100.13 33.9504 100.16C34.2804 100.15 34.6004 100.2 34.9204 100.21C35.2404 100.26 35.5604 100.28 35.8804 100.34C36.2304 100.4 36.5704 100.47 36.9104 100.56C37.2004 100.63 37.4904 100.71 37.7704 100.79C38.0004 100.87 38.2304 100.94 38.4604 101.02L38.7804 100.45Z" fill="#183B59"/>
<path d="M40.1703 96.3902C40.0503 96.3002 39.9203 96.2202 39.7903 96.1502C39.4803 95.9702 39.1503 95.8102 38.8203 95.6902C38.4703 95.5602 38.1103 95.4602 37.7303 95.4002C37.0103 95.2702 36.2503 95.2801 35.5303 95.4501C34.8103 95.5901 34.1403 95.9302 33.5703 96.3702C34.3003 96.3502 34.9603 96.2702 35.6203 96.3002C35.9503 96.2902 36.2703 96.3401 36.5903 96.3501C36.9103 96.4001 37.2303 96.4202 37.5503 96.4802C37.9103 96.5402 38.2603 96.6202 38.6103 96.7102C38.8903 96.7802 39.1603 96.8502 39.4403 96.9302C39.6403 96.9902 39.8403 97.0601 40.0403 97.1301L40.1703 96.3902Z" fill="#183B59"/>
<path d="M38.7992 91.8202C38.5692 91.7502 38.3392 91.7002 38.1092 91.6602C38.0992 91.6602 38.0892 91.6502 38.0892 91.6502C37.3692 91.5202 36.6192 91.5302 35.9092 91.7102C35.1892 91.8402 34.5192 92.1902 33.9492 92.6302C34.6792 92.6102 35.3392 92.5302 35.9992 92.5602C36.3292 92.5502 36.6492 92.5902 36.9692 92.6102C37.2892 92.6502 37.6092 92.6702 37.9192 92.7402C38.1792 92.7802 38.4292 92.8302 38.6792 92.8902C39.0592 92.9702 39.4392 93.0702 39.8092 93.1802C39.8192 93.1902 39.8192 93.1802 39.8192 93.1902L38.7992 91.8202Z" fill="#183B59"/>
<path d="M53.8993 209.16C53.2793 207.42 52.6693 205.62 52.0793 203.74C44.1393 188.1 38.4793 169.01 34.7293 149.89C34.4493 116.11 38.8693 100.56 49.4893 99.7103C61.8293 98.7403 43.7893 156.3 53.8993 209.16Z" fill="#86BCFC"/>
<path d="M157.59 131.65C150.17 139.33 120.45 146.56 103.13 140.63C82.5905 133.6 80.0205 113.36 106.26 95.9302C108.06 97.4702 110.06 98.7802 112.23 99.8302C127.45 107.18 143.59 118.34 157.59 131.65Z" fill="#0C6ED6"/>
<path d="M39.82 252.14C39.94 248.61 34.89 245.57 28.55 245.35C22.21 245.13 16.96 247.82 16.84 251.35C16.72 254.88 21.76 257.92 28.11 258.14C34.46 258.36 39.7 255.67 39.82 252.14Z" fill="#86BCFC"/>
<path d="M40.2008 250.62C40.3208 247.08 35.2808 244.05 28.9308 243.82C22.5908 243.6 17.3408 246.3 17.2208 249.83C17.1008 253.36 22.1508 256.4 28.4908 256.62C34.8308 256.84 40.0808 254.15 40.2008 250.62Z" fill="#0C6ED6"/>
<path d="M23.5399 257.44C23.6499 257.22 23.7599 257.01 23.8699 256.79C24.0199 256.53 24.1699 256.27 24.3199 256.02C24.5099 255.72 24.6999 255.43 24.9099 255.14C25.0899 254.87 25.2999 254.64 25.4999 254.38C25.7199 254.15 25.9199 253.89 26.1599 253.67C26.6099 253.19 27.1399 252.79 27.6699 252.29C26.9599 252.37 26.2399 252.59 25.6299 253C24.9899 253.38 24.4499 253.91 24.0199 254.5C23.7399 254.89 23.5099 255.3 23.3199 255.74C23.2199 255.98 23.1399 256.23 23.0699 256.48C22.9999 256.73 22.9499 256.99 22.9199 257.25L23.5399 257.44Z" fill="#183B59"/>
<path d="M19.6901 255.74C19.7801 255.55 19.8801 255.36 19.9801 255.18C20.1201 254.93 20.2701 254.68 20.4201 254.44C20.6101 254.13 20.8101 253.83 21.0201 253.53C21.2001 253.26 21.4101 253.03 21.6101 252.77C21.8301 252.54 22.0301 252.28 22.2701 252.06C22.7201 251.58 23.2501 251.18 23.7801 250.68C23.0701 250.76 22.3501 250.98 21.7401 251.39C21.1001 251.77 20.5601 252.3 20.1301 252.89C19.9101 253.19 19.7201 253.51 19.5601 253.86C19.4101 254.19 19.2801 254.52 19.1801 254.87C19.1401 255.02 19.1101 255.16 19.0801 255.31L19.6901 255.74Z" fill="#183B59"/>
<path d="M17.1009 252.8C17.1009 252.79 17.1109 252.79 17.1109 252.79C17.3009 252.45 17.5009 252.11 17.7209 251.78C17.8609 251.56 18.0009 251.34 18.1609 251.13C18.3409 250.86 18.5509 250.63 18.7509 250.37C18.9709 250.14 19.1709 249.88 19.4109 249.66C19.8609 249.18 20.3909 248.77 20.9209 248.28C20.2109 248.35 19.4909 248.58 18.8809 248.99C18.2509 249.36 17.7108 249.88 17.2908 250.47C17.2808 250.48 17.2809 250.49 17.2709 250.49C17.1309 250.68 17.0009 250.88 16.8809 251.09L17.1009 252.8Z" fill="#183B59"/>
<path d="M33.65 255.39C32.95 255.39 32.24 255.26 31.55 255C28.5 253.84 26.97 250.43 28.13 247.38C28.41 246.64 56.38 172.54 58.17 122.44C58.29 119.18 61.02 116.63 64.29 116.75C67.55 116.87 70.1 119.61 69.98 122.87C68.12 174.94 40.36 248.49 39.17 251.59C38.27 253.94 36.03 255.39 33.65 255.39Z" fill="#0C6ED6"/>
</svg>
