<svg width="195" height="228" viewBox="0 0 195 228" fill="none" xmlns="http://www.w3.org/2000/svg">
<path d="M144.079 170.59C142.209 170.59 140.379 170 138.859 168.9C137.339 167.8 136.209 166.26 135.609 164.48C132.359 154.74 125.859 125.74 134.609 108.5C137.599 102.62 142.209 98.5399 147.969 96.7199C160.569 92.7099 167.249 99.0999 169.539 102.06C181.619 117.56 169.079 153.66 163.609 162.49C162.439 164.38 160.599 165.77 158.459 166.38C156.319 166.99 154.029 166.77 152.039 165.78C151.289 167.24 150.149 168.46 148.749 169.31C147.349 170.16 145.739 170.61 144.109 170.62L144.079 170.59ZM155.609 113.28C154.839 113.32 154.089 113.48 153.369 113.73C152.879 113.88 151.719 114.25 150.529 116.6C146.919 123.7 147.809 138.15 150.149 149.62C152.649 143.59 154.499 137.31 155.649 130.88C157.629 119.86 156.389 114.67 155.609 113.28Z" fill="#0C6ED6"/>
<path d="M155.16 171.23C155.46 166.96 149.48 163.06 141.82 162.52C134.15 161.98 127.69 165.01 127.39 169.28C127.09 173.55 133.07 177.45 140.73 177.99C148.41 178.53 154.87 175.5 155.16 171.23Z" fill="#86BCFC"/>
<path d="M153.02 166.58C153.3 162.32 147.32 158.46 139.67 157.96C132.02 157.46 125.59 160.51 125.31 164.77C125.03 169.03 131.01 172.89 138.66 173.39C146.31 173.89 152.74 170.84 153.02 166.58Z" fill="#0C6ED6"/>
<path d="M131.869 173.91C131.919 173.6 131.989 173.29 132.079 172.99C132.169 172.69 132.279 172.39 132.409 172.1C132.649 171.58 132.939 171.08 133.299 170.63C133.839 169.92 134.519 169.32 135.299 168.88C136.059 168.43 136.909 168.16 137.789 168.1C137.119 168.68 136.449 169.15 135.909 169.71C135.609 169.97 135.359 170.28 135.089 170.54C134.819 170.81 134.579 171.12 134.349 171.44C134.119 171.76 133.849 172.11 133.609 172.48C133.369 172.85 133.219 173.08 133.029 173.4L132.609 174.16L131.869 173.91Z" fill="#183B59"/>
<path d="M127.32 171.42C127.35 171.25 127.4 171.07 127.45 170.89C127.57 170.47 127.74 170.07 127.94 169.69C128.55 168.48 129.5 167.47 130.67 166.78C131.43 166.33 132.28 166.07 133.16 166.01C132.49 166.59 131.82 167.06 131.28 167.62C130.99 167.88 130.73 168.19 130.46 168.45C130.19 168.71 129.95 169.03 129.72 169.35C129.49 169.67 129.2 170.06 128.96 170.42C128.72 170.78 128.59 171 128.41 171.3C128.23 171.6 128.16 171.74 128.04 171.97L127.32 171.42Z" fill="#183B59"/>
<path d="M124.811 166.25C124.961 166 125.121 165.77 125.301 165.54C125.841 164.83 126.521 164.24 127.301 163.8C128.061 163.34 128.911 163.08 129.791 163.03C129.121 163.6 128.451 164.07 127.911 164.64C127.611 164.9 127.361 165.2 127.081 165.47C126.811 165.74 126.571 166.04 126.351 166.37C126.131 166.69 125.971 166.87 125.801 167.13C125.531 167.51 125.281 167.91 125.031 168.32L124.811 166.25Z" fill="#183B59"/>
<path d="M24.7707 51.1198C26.0107 52.3998 27.8607 52.4998 29.9707 51.7898C36.6507 49.5698 45.9407 39.3298 47.3407 32.4898C47.7407 30.5498 47.5107 28.8898 46.4107 27.7498C40.1707 21.3198 20.5807 11.3498 14.6107 17.7898C8.6407 24.2298 18.5507 44.6898 24.7707 51.1198Z" fill="#3F8CFF"/>
<path d="M29.969 51.8098C36.649 49.5898 45.939 39.3498 47.339 32.5098C41.929 27.2498 26.519 19.5698 21.749 24.7198C16.979 29.8698 24.879 46.4798 29.969 51.8098Z" fill="#0C6ED6"/>
<path d="M22.3799 155.31C17.3799 155.39 12.5098 153.74 8.58985 150.63C-3.64015 140.75 -2.67015 119.52 10.9999 97.7899C12.2599 95.7899 14.2599 94.3699 16.5699 93.8399C18.8799 93.3099 21.2999 93.7299 23.2999 94.9899C25.2999 96.2499 26.7199 98.2499 27.2499 100.56C27.7799 102.87 27.3599 105.29 26.0999 107.29C16.0499 123.27 17.0599 134.52 19.7999 136.73C22.0199 138.53 31.5599 137.4 46.8899 122.42C47.7299 121.6 48.7198 120.96 49.8098 120.52C50.8998 120.08 52.0598 119.87 53.2298 119.88C54.3998 119.89 55.5598 120.14 56.6399 120.6C57.7199 121.06 58.6898 121.73 59.5098 122.57C60.3298 123.41 60.9699 124.4 61.4099 125.49C61.8499 126.58 62.0599 127.74 62.0499 128.91C62.0399 130.08 61.7899 131.24 61.3299 132.32C60.8699 133.4 60.1999 134.37 59.3599 135.19C43.2699 150.92 31.0399 155.31 22.3799 155.31Z" fill="#0C6ED6"/>
<path d="M160.25 161.94C160.58 162.32 153.72 163.94 143.93 165.95C143.67 167.36 143.54 168.78 143.52 170.21C143.79 191.18 180.86 158.96 160.25 161.94Z" fill="#3F8CFF"/>
<path d="M182.271 165.8C182.661 204.89 151.641 212.55 112.551 212.09C91.1806 211.86 74.4806 210.05 61.4406 199.13C57.8706 196.11 54.7306 192.62 52.0906 188.76C45.5206 179.32 40.1506 166.08 35.7606 147.54C34.8206 143.58 32.5906 129.51 30.5206 113.68C30.3006 112.01 30.0906 110.34 29.8506 108.62C27.5706 90.3795 25.7106 70.9895 26.3806 62.4895C28.6206 34.2395 38.8406 24.1895 60.2206 21.0795C63.2706 20.6095 66.3706 20.5195 69.4406 20.8095C83.1706 22.1895 92.8206 32.1595 100.021 49.9195C101.061 52.4595 102.021 55.1795 102.971 58.0395C105.611 66.1495 109.171 71.3395 112.441 74.6595C116.891 79.1795 120.801 80.1995 121.081 80.2995C132.441 84.7095 142.981 91.0095 152.221 98.9495C171.461 115.7 181.991 138.74 182.271 165.8Z" fill="#3F8CFF"/>
<path d="M150.97 202.31H150.27C147.44 202.28 144.73 201.13 142.75 199.1C140.77 197.08 139.67 194.35 139.7 191.51C139.73 188.68 140.88 185.97 142.91 183.99C144.94 182.01 147.66 180.91 150.5 180.94C151.53 180.13 156.3 175.42 161.19 154.54C164.59 139.91 167.35 120.41 169.38 96.5798C172.87 55.5398 172.97 15.6798 172.97 15.2798C172.97 12.4498 174.1 9.72984 176.1 7.71984C178.1 5.71984 180.82 4.58984 183.66 4.58984C186.49 4.58984 189.21 5.71984 191.22 7.71984C193.22 9.71984 194.35 12.4398 194.35 15.2798C194.35 15.6498 194.27 53.3498 191.08 93.5398C185.07 169.27 173.71 188.28 165.74 195.98C160.34 201.14 154.85 202.31 150.97 202.31Z" fill="#0C6ED6"/>
<path d="M95.19 221.27C93.63 221.27 92.1 220.86 90.75 220.09C89.4 219.32 88.27 218.2 87.48 216.86C81.23 206.17 72.99 183.04 77.46 166.31C79.34 159.32 83.32 153.93 88.98 150.71C98.26 145.43 107.68 145.83 114.78 151.82C127.32 162.39 129.55 189 124.94 201.79C124.14 204.02 122.48 205.83 120.34 206.84C118.2 207.85 115.74 207.96 113.52 207.16C111.29 206.36 109.48 204.7 108.47 202.56C107.46 200.42 107.35 197.96 108.15 195.74C110.9 188.12 108.62 169.98 103.28 165.48C102.7 164.99 101.6 164.07 97.8 166.23C96.87 166.76 95.54 167.83 94.7 170.91C91.98 181.07 97.81 199.18 102.87 207.82C103.66 209.18 104.09 210.72 104.09 212.29C104.1 213.86 103.69 215.41 102.91 216.77C102.13 218.13 101 219.27 99.64 220.06C98.28 220.85 96.74 221.27 95.17 221.27H95.19Z" fill="#0C6ED6"/>
<path d="M92.1392 226.78C99.7292 225.68 105.389 221.37 104.779 217.14C104.169 212.91 97.5192 210.37 89.9292 211.47C82.3392 212.57 76.6792 216.88 77.2892 221.11C77.8992 225.34 84.5492 227.88 92.1392 226.78Z" fill="#86BCFC"/>
<path d="M92.27 224.9C99.86 223.8 105.52 219.49 104.91 215.26C104.3 211.03 97.65 208.49 90.06 209.59C82.47 210.69 76.81 215 77.42 219.23C78.03 223.45 84.68 225.99 92.27 224.9Z" fill="#0C6ED6"/>
<path d="M85.7689 226.84C85.7489 226.53 85.7489 226.21 85.7689 225.9C85.7889 225.59 85.8389 225.27 85.9189 224.96C86.0389 224.4 86.2289 223.85 86.4789 223.34C86.8589 222.53 87.4089 221.81 88.0789 221.21C88.7289 220.61 89.4989 220.18 90.3489 219.93C89.8189 220.64 89.2789 221.23 88.8489 221.89C88.6189 222.21 88.4289 222.56 88.2189 222.88C88.0089 223.2 87.8289 223.55 87.6789 223.92C87.5289 224.29 87.3289 224.69 87.1689 225.09C87.0089 225.49 86.9089 225.76 86.7889 226.1C86.6689 226.44 86.6189 226.65 86.5389 226.93L85.7689 226.84Z" fill="#183B59"/>
<path d="M80.8005 225.36C80.7905 225.18 80.7905 225 80.8005 224.81C80.8405 224.38 80.9105 223.95 81.0305 223.53C81.1505 223.09 81.3105 222.66 81.5105 222.25C81.8905 221.44 82.4305 220.72 83.1005 220.13C83.7505 219.53 84.5305 219.09 85.3805 218.85C84.8505 219.56 84.3005 220.15 83.8805 220.82C83.6405 221.13 83.4605 221.49 83.2505 221.8C83.0405 222.11 82.8605 222.47 82.7205 222.84C82.5705 223.21 82.3505 223.64 82.1905 224.05C82.0305 224.46 81.9405 224.72 81.8305 225.02C81.7205 225.32 81.6805 225.51 81.6005 225.75L80.8005 225.36Z" fill="#183B59"/>
<path d="M77.2793 220.81C77.3693 220.54 77.4793 220.27 77.6093 220.02C77.9893 219.22 78.5193 218.5 79.1893 217.92C79.8293 217.32 80.6093 216.88 81.4593 216.64C80.9293 217.34 80.3893 217.94 79.9593 218.6C79.7293 218.91 79.5393 219.27 79.3293 219.59C79.1193 219.91 78.9393 220.26 78.7893 220.62C78.6393 220.98 78.5193 221.19 78.4093 221.47C78.2193 221.9 78.0593 222.34 77.8993 222.81L77.2793 220.81Z" fill="#183B59"/>
<path d="M52.0991 188.75C45.5291 179.31 40.1591 166.07 35.7691 147.53C34.7291 143.16 32.8691 134.63 30.6491 116.81C30.5491 115.77 30.5191 114.72 30.5391 113.68C30.6291 105.78 33.0991 95.8799 40.2191 96.3099C47.8791 96.7999 37.5491 111.46 52.0991 188.75Z" fill="#86BCFC"/>
<path d="M39.8492 223.91C38.2992 223.91 36.7892 223.5 35.4392 222.73C34.0992 221.96 32.9792 220.86 32.1892 219.53C31.3992 218.2 30.9692 216.69 30.9392 215.14C30.9092 213.59 31.2792 212.07 32.0192 210.71C32.2092 210.37 50.7692 175.48 49.1292 134.09C49.0392 131.73 49.8892 129.42 51.4892 127.68C53.0992 125.94 55.3292 124.91 57.6892 124.82C60.0492 124.73 62.3592 125.58 64.0992 127.18C65.8392 128.79 66.8692 131.02 66.9592 133.38C68.8192 179.83 48.5692 217.64 47.7092 219.23C46.9392 220.64 45.7992 221.82 44.4192 222.64C43.0292 223.47 41.4592 223.91 39.8492 223.91Z" fill="#0C6ED6"/>
<path d="M37.1894 225.7C44.7594 224.48 50.3494 220.07 49.6694 215.85C48.9894 211.63 42.2994 209.21 34.7294 210.43C27.1594 211.65 21.5694 216.06 22.2494 220.28C22.9294 224.5 29.6194 226.93 37.1894 225.7Z" fill="#86BCFC"/>
<path d="M37.289 223.82C44.859 222.6 50.449 218.19 49.769 213.97C49.089 209.75 42.399 207.33 34.829 208.55C27.259 209.77 21.669 214.18 22.349 218.4C23.029 222.61 29.719 225.04 37.289 223.82Z" fill="#0C6ED6"/>
<path d="M30.8002 225.91C30.7802 225.6 30.7802 225.28 30.8002 224.97C30.8202 224.65 30.8601 224.34 30.9301 224.03C31.0501 223.47 31.2302 222.92 31.4702 222.4C31.8402 221.58 32.3702 220.85 33.0302 220.24C33.6702 219.62 34.4402 219.17 35.2802 218.9C34.7702 219.62 34.2302 220.24 33.8102 220.9C33.5802 221.22 33.4002 221.57 33.2002 221.9C33.0002 222.23 32.8301 222.57 32.6801 222.94C32.5301 223.31 32.3502 223.71 32.1902 224.12C32.0302 224.53 31.9402 224.79 31.8302 225.14C31.7202 225.49 31.6602 225.7 31.5802 225.98L30.8002 225.91Z" fill="#183B59"/>
<path d="M25.8005 224.47C25.7905 224.29 25.7905 224.1 25.8005 223.92C25.8305 223.49 25.9005 223.06 26.0105 222.64C26.1205 222.2 26.2805 221.77 26.4605 221.36C26.8305 220.54 27.3605 219.81 28.0205 219.2C28.6505 218.58 29.4305 218.12 30.2705 217.86C29.7505 218.57 29.2205 219.2 28.8005 219.86C28.5705 220.18 28.3905 220.53 28.1905 220.86C27.9805 221.19 27.8205 221.53 27.6705 221.9C27.5205 222.27 27.3205 222.7 27.1705 223.11C27.0205 223.52 26.9305 223.78 26.8205 224.09C26.7105 224.4 26.6805 224.58 26.6105 224.82L25.8005 224.47Z" fill="#183B59"/>
<path d="M22.1895 219.99C22.2795 219.71 22.3794 219.45 22.5094 219.19C22.8694 218.38 23.3895 217.65 24.0495 217.06C24.6795 216.44 25.4495 215.98 26.2995 215.72C25.7795 216.43 25.2495 217.06 24.8295 217.72C24.5995 218.04 24.4195 218.39 24.2195 218.72C24.0095 219.05 23.8494 219.39 23.6994 219.76C23.5494 220.13 23.4395 220.33 23.3295 220.63C23.1495 221.06 22.9995 221.51 22.8495 221.97L22.1895 219.99Z" fill="#183B59"/>
<path d="M152.26 98.9497C144.35 104.01 124.83 118.15 113.25 108.8C106.06 102.99 105.74 86.1897 112.48 74.6597C116.93 79.1797 120.84 80.1997 121.12 80.2997C132.48 84.6997 143.01 91.0097 152.26 98.9497Z" fill="#0C6ED6"/>
<path d="M100.04 49.9098C93.55 53.1898 76.0301 59.2598 73.9901 59.9298C68.5701 61.6298 56.6601 64.3398 52.2601 62.6998C48.1101 61.1298 49.6501 34.8098 69.4701 20.8398C83.2101 22.1998 92.8801 32.1498 100.04 49.9098Z" fill="#0C6ED6"/>
<path d="M73.3197 49.4698C74.6597 54.7198 70.1297 59.3298 64.6397 60.6998C59.1397 62.0798 53.8197 62.4898 52.4997 57.2298C51.1797 51.9698 54.3797 43.0498 59.8497 41.6698C65.3197 40.3098 71.9897 44.2398 73.3197 49.4698Z" fill="#3F8CFF"/>
<path d="M70.7193 50.1997C71.6793 54.0597 68.3693 57.4497 64.3293 58.4597C60.2993 59.4697 56.3793 59.7997 55.4093 55.9197C54.4393 52.0397 56.7893 45.4997 60.8293 44.4897C64.8693 43.4797 69.7493 46.3397 70.7193 50.1997Z" fill="#B0E881"/>
<path d="M64.4505 50.0798C65.3805 49.8498 65.8805 48.6298 65.5605 47.3598C65.2405 46.0898 64.2305 45.2498 63.3005 45.4798C62.3705 45.7098 61.8705 46.9298 62.1905 48.1998C62.5105 49.4798 63.5205 50.3198 64.4505 50.0798Z" fill="#183B59"/>
<path d="M23.3493 62.21C24.6293 67.33 29.2592 68.56 33.4392 67.93C37.8892 67.26 41.1892 65.68 39.9092 60.58C38.6292 55.48 32.9492 48.96 28.8592 49.98C24.7492 51.01 22.0693 57.1 23.3493 62.21Z" fill="#0C6ED6"/>
<path d="M25.3198 61.7998C26.2598 65.5698 30.4298 66.1498 32.6698 65.8098C35.7398 65.3598 38.4398 64.3398 37.4998 60.5698C36.5598 56.7998 32.6698 52.0298 29.6698 52.7798C26.6598 53.5298 24.3798 58.0398 25.3198 61.7998Z" fill="#B0E881"/>
<path d="M47.4198 72.7197C49.6198 72.1697 50.9498 69.8697 50.3798 67.5897C49.8098 65.3097 47.5598 63.8997 45.3498 64.4597C43.1498 65.0097 41.8198 67.3097 42.3898 69.5897C42.9598 71.8697 45.2098 73.2797 47.4198 72.7197Z" fill="#183B59"/>
<path d="M59.3702 72.7197C59.2902 72.9897 59.1602 73.2397 58.9902 73.4497C58.8102 73.6697 58.6002 73.8497 58.3502 73.9797C57.8502 74.2497 57.3102 74.4197 56.7502 74.4897C55.6602 74.6197 54.5502 74.5897 53.4602 74.4097C52.3902 74.2597 51.3302 74.0297 50.2902 73.7397C49.2502 73.4297 48.2302 73.0697 47.2202 72.6897L48.0902 72.1597C47.9702 73.0897 47.6902 73.9897 47.2702 74.8297C46.8502 75.6797 46.2002 76.3997 45.4102 76.9197C44.6102 77.4097 43.6702 77.6297 42.7402 77.5497C41.8602 77.4697 41.0102 77.2097 40.2402 76.7797C41.0602 76.9497 41.9002 76.9997 42.7402 76.9297C43.5102 76.8697 44.2502 76.5897 44.8702 76.1197C45.4502 75.6297 45.9102 75.0097 46.2102 74.3097C46.5302 73.5997 46.7402 72.8497 46.8402 72.0697L46.9302 71.2197L47.7202 71.5397C48.6702 71.9297 49.6602 72.2897 50.6602 72.6097C51.6602 72.9297 52.6602 73.2297 53.6702 73.4797C54.6702 73.7397 55.6902 73.8897 56.7202 73.9197C57.7002 73.8797 58.8202 73.6897 59.3702 72.7197Z" fill="#183B59"/>
<path d="M57.3304 67.0696C57.2604 67.0696 57.1904 67.0496 57.1304 67.0096C57.0704 66.9696 57.0304 66.9095 57.0104 66.8395C56.9904 66.7695 57.0004 66.6995 57.0304 66.6295C57.0604 66.5596 57.1104 66.5096 57.1804 66.4796C60.6904 64.6796 64.5104 63.5296 68.4304 63.0996C68.5104 63.0896 68.6004 63.1196 68.6604 63.1796C68.7204 63.2296 68.7704 63.3096 68.7704 63.3996C68.7804 63.4796 68.7504 63.5696 68.6904 63.6296C68.6304 63.6896 68.5604 63.7396 68.4704 63.7396C64.6304 64.1596 60.9004 65.2796 57.4704 67.0396C57.4404 67.0596 57.3904 67.0696 57.3304 67.0696Z" fill="#86BCFC"/>
<path d="M70.3105 70.8099C70.2805 70.8199 70.2505 70.8199 70.2205 70.8099C66.4905 69.8299 62.6105 69.5299 58.7705 69.9299C58.7305 69.9399 58.6905 69.9299 58.6505 69.9199C58.6105 69.9099 58.5705 69.8899 58.5405 69.8699C58.5105 69.8399 58.4805 69.8099 58.4605 69.7799C58.4405 69.7399 58.4305 69.6999 58.4205 69.6599C58.4105 69.5799 58.4305 69.4899 58.4805 69.4199C58.5305 69.3499 58.6105 69.3099 58.6905 69.2999C62.6205 68.8899 66.5905 69.1899 70.4005 70.2099C70.4805 70.2199 70.5605 70.2699 70.6105 70.3299C70.6605 70.3999 70.6805 70.4799 70.6705 70.5599C70.6605 70.6399 70.6105 70.7199 70.5505 70.7699C70.4805 70.8199 70.4005 70.8399 70.3205 70.8299V70.8099H70.3105Z" fill="#86BCFC"/>
<path d="M57.9606 68.6697C57.8906 68.6697 57.8306 68.6497 57.7806 68.6097C57.7306 68.5697 57.6906 68.5197 57.6606 68.4597C57.6406 68.4197 57.6406 68.3797 57.6406 68.3397C57.6406 68.2997 57.6506 68.2597 57.6706 68.2197C57.6906 68.1797 57.7106 68.1497 57.7406 68.1197C57.7706 68.0897 57.8106 68.0697 57.8506 68.0497C58.1706 67.9397 65.7606 65.2097 70.7906 66.7097C70.8706 66.7397 70.9406 66.7897 70.9806 66.8697C71.0206 66.9397 71.0306 67.0297 71.0106 67.1097C71.0006 67.1497 70.9806 67.1897 70.9506 67.2197C70.9206 67.2497 70.8906 67.2797 70.8506 67.2997C70.8106 67.3197 70.7706 67.3297 70.7306 67.3397C70.6906 67.3397 70.6506 67.3397 70.6106 67.3297C65.7806 65.8797 58.1506 68.6197 58.0806 68.6697C58.0306 68.6697 58.0006 68.6797 57.9606 68.6697Z" fill="#86BCFC"/>
<path d="M28.6896 73.69C28.6096 73.69 28.5396 73.67 28.4796 73.63C28.4196 73.58 28.3796 73.52 28.3596 73.44C28.3396 73.36 28.3596 73.29 28.3896 73.22C28.4296 73.15 28.4896 73.1 28.5596 73.08C32.2296 71.61 36.1296 70.82 40.0796 70.75C40.1196 70.75 40.1596 70.76 40.1996 70.77C40.2396 70.79 40.2696 70.81 40.2996 70.84C40.3296 70.87 40.3496 70.91 40.3696 70.94C40.3896 70.98 40.3896 71.02 40.3896 71.06C40.3896 71.1 40.3796 71.14 40.3696 71.18C40.3496 71.22 40.3296 71.25 40.2996 71.28C40.2696 71.31 40.2296 71.33 40.1896 71.35C40.1496 71.36 40.1096 71.37 40.0696 71.37C36.2096 71.42 32.3896 72.19 28.8096 73.65C28.7696 73.69 28.7296 73.69 28.6896 73.69Z" fill="#86BCFC"/>
<path d="M30.3903 80.8099C30.3303 80.8099 30.2703 80.7899 30.2103 80.7499C30.1603 80.7099 30.1203 80.6599 30.0903 80.6099C30.0703 80.5499 30.0603 80.4899 30.0703 80.4299C30.0803 80.3699 30.1103 80.3099 30.1603 80.2699C33.0503 77.5799 36.4103 75.4299 40.0703 73.9399C40.1103 73.9299 40.1503 73.9199 40.1903 73.9199C40.2303 73.9199 40.2703 73.9299 40.3103 73.9499C40.3503 73.9699 40.3803 73.9899 40.4103 74.0199C40.4403 74.0499 40.4603 74.0899 40.4703 74.1299C40.5003 74.2099 40.5003 74.2999 40.4703 74.3699C40.4403 74.4499 40.3703 74.5099 40.2903 74.5399C36.7103 75.9899 33.4303 78.0899 30.6103 80.7199C30.5603 80.7799 30.4703 80.8099 30.3903 80.8099Z" fill="#86BCFC"/>
<path d="M28.4291 77.9295C28.3891 77.9295 28.3391 77.9195 28.3091 77.8995C28.2691 77.8795 28.2392 77.8595 28.2092 77.8295C28.1792 77.7995 28.1591 77.7695 28.1391 77.7295C28.1191 77.6895 28.1191 77.6495 28.1191 77.6095C28.1191 77.5695 28.1291 77.5295 28.1391 77.4895C28.1591 77.4495 28.1792 77.4195 28.2092 77.3895C31.9392 73.6895 39.9091 72.5095 40.2291 72.4595C40.3091 72.4495 40.3991 72.4695 40.4691 72.5195C40.5391 72.5695 40.5792 72.6495 40.5992 72.7295C40.6092 72.8095 40.5891 72.8995 40.5391 72.9695C40.4891 73.0395 40.4091 73.0795 40.3291 73.0895C40.2491 73.0895 32.2291 74.2895 28.6591 77.8395C28.5891 77.8995 28.5091 77.9295 28.4291 77.9295Z" fill="#86BCFC"/>
<path d="M47.2708 31.3499C47.1908 31.3499 47.1108 31.3199 47.0508 31.2699C46.9908 31.2199 46.9408 31.1499 46.9208 31.0699C45.2508 24.5299 46.1108 14.5399 46.1208 14.4399C46.1408 14.3499 46.1908 14.2699 46.2608 14.2199C46.3308 14.1699 46.4208 14.1399 46.5108 14.1499C46.6008 14.1599 46.6908 14.1999 46.7508 14.2699C46.8108 14.3399 46.8508 14.4199 46.8508 14.5199C46.8508 14.6099 45.9908 24.4899 47.6308 30.8999C47.6508 30.9899 47.6408 31.0899 47.5908 31.1699C47.5408 31.2499 47.4608 31.3099 47.3708 31.3399L47.2708 31.3499Z" fill="#86BCFC"/>
<path d="M49.2297 31.1098C49.1497 31.1098 49.0597 31.0798 48.9997 31.0298C48.9297 30.9798 48.8897 30.8998 48.8697 30.8198C48.2697 27.4598 48.5797 23.9998 49.7797 20.7998C49.7897 20.7498 49.8197 20.7098 49.8497 20.6698C49.8797 20.6298 49.9197 20.5998 49.9697 20.5798C50.0097 20.5598 50.0597 20.5498 50.1097 20.5498C50.1597 20.5498 50.2097 20.5598 50.2597 20.5798C50.3097 20.5998 50.3497 20.6298 50.3797 20.6598C50.4097 20.6998 50.4397 20.7398 50.4597 20.7798C50.4797 20.8298 50.4897 20.8798 50.4797 20.9298C50.4797 20.9798 50.4697 21.0298 50.4397 21.0698C49.3097 24.1398 49.0097 27.4598 49.5697 30.6798C49.5897 30.7698 49.5697 30.8698 49.5197 30.9498C49.4697 31.0298 49.3797 31.0898 49.2897 31.1098H49.2297Z" fill="#86BCFC"/>
<path d="M34.7805 37.7297C34.7105 37.7297 34.6505 37.7097 34.5905 37.6797C34.5305 37.6497 34.4905 37.5997 34.4605 37.5397C31.2705 31.7397 23.9105 25.1097 23.8405 25.0397C23.8105 25.0097 23.7805 24.9697 23.7605 24.9197C23.7405 24.8797 23.7305 24.8297 23.7305 24.7797C23.7305 24.7297 23.7405 24.6797 23.7605 24.6397C23.7805 24.5997 23.8105 24.5597 23.8405 24.5197C23.8705 24.4897 23.9105 24.4597 23.9605 24.4397C24.0005 24.4197 24.0505 24.4097 24.1005 24.4097C24.1505 24.4097 24.2005 24.4197 24.2405 24.4397C24.2805 24.4597 24.3205 24.4897 24.3605 24.5197C24.4305 24.5897 31.8905 31.2897 35.1305 37.2097C35.1505 37.2497 35.1705 37.2997 35.1705 37.3397C35.1805 37.3897 35.1705 37.4397 35.1605 37.4797C35.1505 37.5297 35.1205 37.5697 35.1005 37.6097C35.0705 37.6497 35.0305 37.6797 34.9905 37.6997C34.9105 37.7397 34.8505 37.7497 34.7805 37.7297Z" fill="#86BCFC"/>
<path d="M33.1907 38.8998C33.1307 38.8998 33.0707 38.8798 33.0107 38.8498C32.9607 38.8198 32.9107 38.7798 32.8807 38.7198C31.0907 35.9798 28.6107 33.7598 25.6807 32.2898C25.6407 32.2698 25.6007 32.2398 25.5607 32.1998C25.5307 32.1598 25.5007 32.1198 25.4907 32.0798C25.4707 32.0298 25.4707 31.9898 25.4707 31.9398C25.4707 31.8898 25.4807 31.8398 25.5007 31.7998C25.5207 31.7598 25.5507 31.7198 25.5907 31.6798C25.6307 31.6498 25.6707 31.6198 25.7107 31.6098C25.7607 31.5898 25.8007 31.5898 25.8507 31.5898C25.9007 31.5898 25.9507 31.5998 25.9907 31.6198C29.0507 33.1298 31.6507 35.4398 33.5007 38.2998C33.5307 38.3598 33.5507 38.4198 33.5507 38.4798C33.5507 38.5398 33.5307 38.6098 33.5007 38.6598C33.4707 38.7198 33.4207 38.7598 33.3707 38.7898C33.3107 38.8198 33.2507 38.8398 33.1907 38.8398V38.8998Z" fill="#86BCFC"/>
<path d="M58.63 36.5497C62.6 35.5597 65.51 33.5397 65.14 32.0497C64.77 30.5597 61.25 30.1497 57.28 31.1497C53.31 32.1397 50.4 34.1597 50.77 35.6497C51.15 37.1397 54.67 37.5397 58.63 36.5497Z" fill="#86BCFC"/>
<path d="M29.6093 49.0496C32.4193 48.3496 34.3893 46.5696 34.0193 45.0696C33.6493 43.5796 31.0693 42.9396 28.2593 43.6396C25.4493 44.3396 23.4793 46.1196 23.8493 47.6196C24.2193 49.1096 26.7993 49.7496 29.6093 49.0496Z" fill="#86BCFC"/>
<path d="M31.8802 58.78C32.8102 58.55 33.3102 57.33 32.9902 56.06C32.6702 54.79 31.6602 53.95 30.7302 54.18C29.8002 54.41 29.3002 55.63 29.6202 56.9C29.9402 58.17 30.9502 59.01 31.8802 58.78Z" fill="#183B59"/>
<path d="M88.1994 35.5598C87.4194 37.1598 85.6994 37.8198 83.4694 37.7998C76.4594 37.7398 64.4494 30.8498 61.0094 24.7698C60.0294 23.0498 59.7494 21.4298 60.4494 19.9798C64.4194 11.9698 79.9894 -3.56023 87.6494 0.739775C95.3094 5.03977 92.1694 27.5398 88.1994 35.5598Z" fill="#3F8CFF"/>
<path d="M83.4795 37.8198C76.4695 37.7598 64.4595 30.8698 61.0195 24.7898C64.5595 18.1098 76.8695 6.08982 82.9895 9.51982C89.1995 13.0098 86.6795 31.1798 83.4795 37.8198Z" fill="#86BCFC"/>
<path d="M29.7108 100.51C35.3608 95.32 37.6008 88.57 34.7108 85.4199C31.8208 82.2699 24.9008 83.93 19.2508 89.11C13.6008 94.3 11.3608 101.05 14.2508 104.2C17.1408 107.35 24.0608 105.7 29.7108 100.51Z" fill="#86BCFC"/>
<path d="M28.16 99.4196C33.81 94.2296 36.05 87.4796 33.16 84.3296C30.27 81.1796 23.35 82.8396 17.7 88.0196C12.05 93.2096 9.81002 99.9596 12.7 103.11C15.59 106.26 22.51 104.61 28.16 99.4196Z" fill="#0C6ED6"/>
<path d="M33.7895 95.5999C33.5595 95.3899 33.3095 95.1899 33.0495 95.0199C32.7895 94.8399 32.5195 94.6799 32.2395 94.5399C31.7295 94.2799 31.1795 94.0799 30.6195 93.9499C29.7495 93.7299 28.8395 93.6899 27.9495 93.8399C27.0795 93.9599 26.2395 94.2799 25.5195 94.7899C26.3995 94.8299 27.1995 94.7899 27.9895 94.8699C28.3795 94.8699 28.7695 94.9699 29.1595 94.9999C29.5495 95.0299 29.9195 95.1299 30.2995 95.2399C30.6695 95.3499 31.1195 95.4599 31.5295 95.5899L32.5495 95.9299L33.3595 96.2599L33.7895 95.5999Z" fill="#183B59"/>
<path d="M35.7801 90.8099C35.6401 90.6899 35.5001 90.5899 35.3501 90.4899C34.9901 90.2299 34.6101 90.0099 34.2101 89.8199C33.8001 89.6299 33.3701 89.4899 32.9301 89.3899C32.0601 89.1699 31.1501 89.1299 30.2601 89.2799C29.3901 89.3999 28.5501 89.7199 27.8301 90.2299C28.7101 90.2699 29.5101 90.2299 30.3001 90.3099C30.7001 90.3099 31.0901 90.4099 31.4701 90.4499C31.8501 90.4899 32.2301 90.5799 32.6101 90.6799C32.9901 90.7899 33.4601 90.8999 33.8701 91.0399C34.2801 91.1799 34.5401 91.2499 34.8501 91.3699C35.1601 91.4899 35.3201 91.5599 35.5601 91.6599L35.7801 90.8099Z" fill="#183B59"/>
<path d="M34.4989 85.1999C34.2289 85.0999 33.9589 85.0199 33.6789 84.9499C32.8189 84.7299 31.9289 84.6899 31.0589 84.8399C30.1789 84.9599 29.3489 85.2899 28.6289 85.7999C29.5089 85.7999 30.3089 85.7999 31.1089 85.8799C31.4989 85.8799 31.8789 85.9699 32.2689 86.0099C32.6589 86.0499 33.0289 86.1399 33.4089 86.2399C33.7789 86.3499 34.0189 86.3899 34.3189 86.4899C34.7689 86.6199 35.2189 86.7699 35.6589 86.9299L34.4989 85.1999Z" fill="#183B59"/>
</svg>
