<svg width="195" height="259" viewBox="0 0 195 259" fill="none" xmlns="http://www.w3.org/2000/svg">
<path d="M146.53 241.06C140.24 241.06 134.17 239.32 128.6 235.88C124.98 233.63 123.86 228.88 126.1 225.26C128.35 221.64 133.1 220.52 136.72 222.76C147.99 229.73 161.01 222.89 168.93 213.02C181.14 197.78 184.38 173.12 164.09 152.37C155.84 143.93 146.68 136.83 137.82 129.96C120.3 116.37 105.16 104.64 103.4 87.2501C102.26 76.0301 107.15 64.2201 118.35 51.1501C121.12 47.9201 125.99 47.5401 129.22 50.3101C132.45 53.0801 132.83 57.9501 130.06 61.1901C121.75 70.8801 118.05 78.8901 118.75 85.6901C119.85 96.5001 132.56 106.36 147.28 117.77C156.12 124.62 166.14 132.39 175.13 141.59C187.39 154.13 193.96 169.08 194.13 184.84C194.27 198.48 189.61 211.91 180.99 222.68C174.47 230.82 166.04 236.78 157.27 239.44C153.64 240.51 150.05 241.06 146.53 241.06Z" fill="#0C6ED6"/>
<path d="M83.0699 37.0398C82.2199 37.9198 80.9099 37.9998 79.3799 37.5498C74.5799 36.1198 67.6999 29.2898 66.5399 24.6798C66.2099 23.3798 66.3399 22.2498 67.0899 21.4698C71.3899 17.0598 85.1199 10.1298 89.5299 14.4198C93.9599 18.7298 87.3699 32.6298 83.0699 37.0398Z" fill="#3F8CFF"/>
<path d="M79.3908 37.5497C74.5908 36.1197 67.7108 29.2897 66.5508 24.6797C70.2908 21.0797 81.1008 15.7297 84.6208 19.1597C88.1908 22.6497 82.9008 33.8897 79.3908 37.5497Z" fill="#86BCFC"/>
<path d="M29.8211 26.5102C30.3511 27.5502 31.5211 28.0202 33.0411 28.0402C37.8311 28.1102 46.0811 23.8502 48.4711 19.9702C49.1511 18.8702 49.3511 17.8102 48.8911 16.8802C46.2311 11.6202 35.6711 1.33017 30.4111 3.99017C25.1311 6.64017 27.1511 21.2402 29.8211 26.5102Z" fill="#3F8CFF"/>
<path d="M33.0405 28.04C37.8305 28.11 46.0805 23.85 48.4705 19.97C46.0905 15.6 37.7505 7.61 33.5505 9.74C29.2705 11.89 30.8805 23.68 33.0405 28.04Z" fill="#0C6ED6"/>
<path d="M119.76 241.26C117.4 242.29 114.91 243.18 112.27 243.94C87.1703 251.19 55.5903 250.9 34.7403 243.57C34.0203 243.32 33.3103 243.06 32.6103 242.78C-1.24969 229.61 -5.72969 144.93 7.81031 81.7999C10.6203 68.7099 14.1903 56.5599 18.4403 46.1599C26.0703 27.5099 35.8603 14.4999 47.2303 11.8999C58.2403 9.37992 66.0903 11.1599 71.6603 15.7899C79.1003 21.9799 82.4403 33.2599 83.7403 46.2199C85.4103 62.9999 83.6403 82.5999 82.8303 97.5999C82.4403 104.81 82.2803 110.96 82.8303 115.22C85.8903 139.05 102.27 145.33 117.05 153.15C127.34 158.59 136.84 164.78 140.55 178.13C150.07 212.37 140.62 232.15 119.76 241.26Z" fill="#3F8CFF"/>
<path d="M55.3204 41.98C55.7304 39.91 54.4404 37.9 52.4404 37.5C50.4404 37.1 48.4804 38.46 48.0604 40.53C47.6504 42.6 48.9404 44.61 50.9404 45.01C52.9504 45.41 54.9104 44.05 55.3204 41.98Z" fill="#183B59"/>
<path d="M40.9609 44.7302C41.3509 45.6302 42.0009 46.4102 42.8609 46.6502C43.7109 46.9202 44.6509 46.7802 45.5309 46.5302C46.4209 46.2602 47.2909 45.8902 48.1309 45.4402C48.9709 45.0102 49.8009 44.5002 50.5609 43.9702L51.1609 43.5502L51.4309 44.2402C51.7409 45.0402 52.2409 45.8502 52.8009 46.5402C53.3609 47.2402 54.0409 47.8402 54.8209 48.2602C55.6009 48.6802 56.4909 48.9002 57.4109 48.9102C58.3309 48.9202 59.2709 48.7302 60.2009 48.4502C59.3709 48.9602 58.4509 49.3102 57.4509 49.4602C56.4609 49.5902 55.4009 49.4702 54.4409 49.0602C53.4809 48.6602 52.6609 47.9902 51.9809 47.2402C51.3009 46.4702 50.7809 45.6202 50.3609 44.6402L51.2309 44.9102C50.3809 45.4902 49.5309 45.9802 48.6209 46.4202C47.7009 46.8402 46.7609 47.2202 45.7509 47.4102C44.7509 47.6102 43.6409 47.6502 42.6509 47.1802C42.1709 46.9402 41.7609 46.5702 41.4809 46.1402C41.2009 45.7002 41.0409 45.2202 40.9609 44.7302Z" fill="#183B59"/>
<path d="M43.8502 41.0799C43.8102 41.0799 43.7602 41.0699 43.7202 41.0499C39.0302 38.7799 33.7502 38.5699 33.6902 38.5699C33.5302 38.5599 33.4102 38.4299 33.4102 38.2799C33.4202 38.1199 33.5401 37.9899 33.7001 37.9999C33.7501 37.9999 39.1502 38.2099 43.9602 40.5399C44.1002 40.6099 44.1601 40.7799 44.0901 40.9199C44.0601 41.0199 43.9502 41.0799 43.8502 41.0799Z" fill="#86BCFC"/>
<path d="M32.3513 44.9998C32.2313 44.9998 32.1213 44.9198 32.0813 44.8098C32.0313 44.6598 32.1113 44.4998 32.2613 44.4498C32.3113 44.4298 37.4213 42.6898 42.7413 43.1298C42.9013 43.1398 43.0213 43.2798 43.0113 43.4398C43.0013 43.5998 42.8613 43.7098 42.7013 43.7098C37.5113 43.2798 32.5013 44.9898 32.4513 44.9998C32.4113 44.9898 32.3813 44.9998 32.3513 44.9998Z" fill="#86BCFC"/>
<path d="M43.3602 42.54C43.3302 42.54 43.3002 42.53 43.2702 42.53C43.2002 42.51 36.2302 40.38 31.9602 41.89C31.8102 41.94 31.6502 41.87 31.5902 41.72C31.5402 41.57 31.6102 41.41 31.7602 41.35C36.2102 39.77 43.1402 41.89 43.4302 41.98C43.5802 42.03 43.6702 42.19 43.6202 42.34C43.5902 42.47 43.4802 42.54 43.3602 42.54Z" fill="#86BCFC"/>
<path d="M54.6 13.5C54.59 13.5 54.59 13.5 54.58 13.5C54.42 13.49 54.3 13.36 54.31 13.19C54.63 7.96995 52.5 0.449955 52.47 0.369955C52.42 0.219955 52.52 0.0599547 52.67 0.00995472C52.82 -0.0400453 52.98 0.0599547 53.03 0.209955C53.05 0.289955 55.21 7.89995 54.89 13.23C54.88 13.38 54.75 13.5 54.6 13.5Z" fill="#86BCFC"/>
<path d="M53.0611 13.6102C52.9011 13.6002 52.7711 13.4702 52.7811 13.3202C52.7811 13.2802 52.8611 9.46018 50.6711 6.00018C50.5811 5.87018 50.6211 5.69018 50.7611 5.60018C50.8911 5.51018 51.0711 5.55018 51.1611 5.69018C53.4411 9.30018 53.3611 13.1702 53.3611 13.3402C53.3411 13.4802 53.2211 13.6102 53.0611 13.6102Z" fill="#86BCFC"/>
<path d="M65.4001 16.0299C65.3701 16.0299 65.3401 16.0199 65.3101 16.0199C65.1601 15.9699 65.0701 15.8099 65.1301 15.6599C66.7601 10.5899 71.5401 4.26992 71.5901 4.20992C71.6901 4.07992 71.8701 4.05992 71.9901 4.15992C72.1201 4.25992 72.1401 4.43992 72.0401 4.55992C71.9901 4.61992 67.2701 10.8599 65.6701 15.8399C65.6301 15.9499 65.5201 16.0299 65.4001 16.0299Z" fill="#86BCFC"/>
<path d="M66.7998 16.6901C66.7698 16.6901 66.7398 16.6801 66.6998 16.6701C66.5498 16.6201 66.4698 16.4501 66.5298 16.3001C66.5898 16.1401 67.9198 12.5101 71.3598 9.97014C71.4898 9.88014 71.6698 9.90014 71.7598 10.0301C71.8498 10.1601 71.8298 10.3401 71.6998 10.4301C68.4098 12.8601 67.0898 16.4501 67.0698 16.4801C67.0198 16.6101 66.9098 16.6901 66.7998 16.6901Z" fill="#86BCFC"/>
<path d="M69.8606 45.78C69.8306 45.78 69.7906 45.77 69.7606 45.76C69.7106 45.74 64.7606 43.91 59.5506 44.2C59.4006 44.21 59.2606 44.09 59.2506 43.93C59.2406 43.77 59.3606 43.64 59.5206 43.63C64.8506 43.33 69.9206 45.21 69.9706 45.22C70.1206 45.28 70.2006 45.44 70.1406 45.59C70.0806 45.72 69.9706 45.78 69.8606 45.78Z" fill="#86BCFC"/>
<path d="M68.63 52.2501C68.56 52.2501 68.49 52.2301 68.44 52.1701C68.4 52.1401 64.44 48.6401 59.48 47.0401C59.33 46.9901 59.24 46.8301 59.3 46.6801C59.35 46.5301 59.51 46.4501 59.66 46.5001C64.75 48.1401 68.79 51.7101 68.83 51.7501C68.95 51.8501 68.96 52.0401 68.85 52.1501C68.79 52.2201 68.71 52.2501 68.63 52.2501Z" fill="#86BCFC"/>
<path d="M70.2695 49.5802C70.1995 49.5802 70.1295 49.5602 70.0795 49.5002C66.7095 46.4602 59.4695 45.7502 59.3895 45.7502C59.2295 45.7302 59.1195 45.5902 59.1295 45.4402C59.1495 45.2802 59.2895 45.1702 59.4395 45.1802C59.7495 45.2102 66.9595 45.9202 70.4595 49.0802C70.5795 49.1802 70.5895 49.3702 70.4795 49.4802C70.4295 49.5402 70.3495 49.5802 70.2695 49.5802Z" fill="#86BCFC"/>
<path d="M83.7409 46.2199C68.9309 48.3199 53.9409 39.2699 54.1009 35.5199C54.3509 29.8699 62.4609 21.6399 71.6609 15.7899C79.1109 21.9699 82.4509 33.2499 83.7409 46.2199Z" fill="#0C6ED6"/>
<path d="M77.6708 37.3902C78.2508 34.4902 74.1408 31.2202 68.4908 30.0902C62.8408 28.9602 57.7908 30.4002 57.2108 33.3102C56.6308 36.2102 60.7408 39.4802 66.3908 40.6102C72.0408 41.7302 77.0908 40.2902 77.6708 37.3902Z" fill="#3F8CFF"/>
<path d="M75.421 36.98C75.911 34.54 72.461 31.8 67.731 30.86C62.991 29.91 58.761 31.12 58.271 33.56C57.781 36 61.231 38.74 65.961 39.68C70.701 40.63 74.941 39.42 75.421 36.98Z" fill="#3F8CFF"/>
<path d="M48.3705 31.5299C48.9005 28.8599 45.1305 25.8599 39.9505 24.8299C34.7705 23.7999 30.1305 25.1199 29.6005 27.7799C29.0705 30.4499 32.8405 33.4499 38.0205 34.4799C43.2005 35.5199 47.8305 34.1999 48.3705 31.5299Z" fill="#0C6ED6"/>
<path d="M47.3803 31.3799C47.8303 29.1499 44.6703 26.6299 40.3203 25.7599C35.9703 24.8899 32.0903 25.9999 31.6403 28.2399C31.1903 30.4699 34.3503 32.9899 38.7003 33.8599C43.0503 34.7199 46.9303 33.6099 47.3803 31.3799Z" fill="#3F8CFF"/>
<path d="M74.2207 25.2099C74.4707 23.9399 71.9407 22.3699 68.5707 21.6899C65.2007 21.0199 62.2607 21.4999 62.0007 22.7699C61.7407 24.0399 64.2807 25.6099 67.6507 26.2899C71.0307 26.9599 73.9707 26.4799 74.2207 25.2099Z" fill="#86BCFC"/>
<path d="M49.4304 21.04C49.6804 19.77 47.1504 18.2 43.7804 17.52C40.4104 16.85 37.4704 17.33 37.2104 18.6C36.9604 19.87 39.4904 21.44 42.8604 22.12C46.2404 22.79 49.1804 22.31 49.4304 21.04Z" fill="#86BCFC"/>
<path d="M31.9707 28.0801C33.0807 27.4601 34.3807 27.2101 35.6607 27.1501C36.9407 27.0901 38.2207 27.2501 39.4807 27.5301C40.7207 27.8401 41.9407 28.2901 43.0507 28.9401C43.6007 29.2701 44.1407 29.6601 44.6007 30.1201C45.0407 30.5901 45.4607 31.1601 45.5207 31.8101C45.2107 31.2501 44.7407 30.8801 44.2407 30.5601C43.7407 30.2401 43.2007 29.9801 42.6507 29.7401C41.5407 29.2801 40.3907 28.9101 39.2207 28.6401C38.0507 28.3501 36.8607 28.1501 35.6607 28.0301C34.4407 27.9301 33.2307 27.9101 31.9707 28.0801Z" fill="#183B59"/>
<path d="M74.5809 38.2199C73.6209 37.3999 72.5909 36.7599 71.5309 36.1899C70.4609 35.6299 69.3509 35.1499 68.2109 34.7499C67.0809 34.3299 65.9109 34.0199 64.7409 33.7999C64.1509 33.6999 63.5609 33.6199 62.9609 33.6199C62.3709 33.6199 61.7709 33.6699 61.2109 33.9699C61.6109 33.4599 62.2809 33.2099 62.9009 33.0499C63.5409 32.9099 64.1909 32.8799 64.8409 32.9099C66.1309 32.9599 67.4009 33.2499 68.6009 33.6699C69.8009 34.1099 70.9709 34.6699 72.0109 35.4299C73.0309 36.1699 73.9909 37.0899 74.5809 38.2199Z" fill="#183B59"/>
<path d="M119.76 241.26C117.4 242.29 114.91 243.18 112.27 243.94C87.17 251.19 55.59 250.9 34.74 243.57C-10.06 201.4 9.18002 83.9802 36.84 77.7002C74.17 69.2402 52.23 196.22 77.63 220.08C90.24 231.92 107.27 238.11 119.76 241.26Z" fill="#86BCFC"/>
<path d="M106.51 253.96C104.53 253.96 102.56 253.12 101.19 251.48C93.2597 242.03 86.7097 224.77 83.6697 205.3C80.4697 184.84 81.6797 165.53 87.0097 152.31C93.5297 136.14 104.58 131.7 112.7 130.83C117.81 130.28 127.49 131.49 134.86 145.7C145.02 165.29 146.92 206.31 124.04 232.36C121.51 235.24 117.12 235.53 114.24 232.99C111.36 230.46 111.07 226.07 113.61 223.19C121.63 214.06 126.71 200.95 127.91 186.28C128.95 173.59 126.89 160.49 122.52 152.08C121.28 149.7 117.99 144.21 114.17 144.62C107.76 145.31 103.09 149.51 99.8797 157.48C90.3197 181.21 98.7697 226.97 111.82 242.54C114.28 245.48 113.9 249.86 110.96 252.32C109.67 253.43 108.08 253.96 106.51 253.96Z" fill="#0C6ED6"/>
<path d="M102.521 258.2C109.141 257.81 114.321 254.5 114.111 250.82C113.891 247.14 108.351 244.46 101.741 244.86C95.1207 245.25 89.9407 248.56 90.1507 252.24C90.3607 255.92 95.9007 258.59 102.521 258.2Z" fill="#86BCFC"/>
<path d="M102.771 256.58C109.391 256.19 114.571 252.88 114.361 249.2C114.141 245.52 108.601 242.84 101.991 243.24C95.3707 243.63 90.1907 246.94 90.4007 250.62C90.6107 254.3 96.1507 256.97 102.771 256.58Z" fill="#0C6ED6"/>
<path d="M97.6695 257.92C97.7595 257.68 97.8595 257.45 97.9495 257.22C98.0795 256.94 98.2095 256.65 98.3495 256.38C98.5195 256.05 98.6795 255.73 98.8795 255.41C99.0395 255.11 99.2395 254.85 99.4195 254.56C99.6295 254.3 99.8095 254.01 100.04 253.76C100.46 253.22 100.97 252.74 101.48 252.18C100.75 252.33 100.03 252.64 99.4295 253.12C98.8095 253.58 98.2895 254.18 97.9095 254.84C97.6595 255.27 97.4495 255.72 97.2995 256.2C97.2195 256.46 97.1595 256.73 97.1095 257C97.0595 257.27 97.0295 257.54 97.0195 257.81L97.6695 257.92Z" fill="#183B59"/>
<path d="M93.5111 256.53C93.5911 256.32 93.6711 256.12 93.7611 255.92C93.8811 255.64 94.0111 255.37 94.1511 255.11C94.3211 254.77 94.5011 254.43 94.6911 254.11C94.8511 253.81 95.0511 253.55 95.2311 253.26C95.4411 253 95.6211 252.71 95.8511 252.46C96.2711 251.92 96.7811 251.44 97.2911 250.88C96.5611 251.03 95.8411 251.34 95.2411 251.82C94.6211 252.28 94.1011 252.88 93.7211 253.54C93.5211 253.87 93.3511 254.23 93.2211 254.6C93.0911 254.95 92.9911 255.32 92.9311 255.69C92.9011 255.85 92.8811 256 92.8711 256.16L93.5111 256.53Z" fill="#183B59"/>
<path d="M90.5304 253.71C90.5304 253.7 90.5404 253.7 90.5404 253.7C90.7104 253.32 90.8804 252.96 91.0704 252.6C91.1904 252.36 91.3204 252.12 91.4604 251.88C91.6204 251.58 91.8204 251.32 92.0004 251.03C92.2104 250.76 92.3904 250.48 92.6204 250.23C93.0404 249.69 93.5504 249.21 94.0604 248.65C93.3304 248.79 92.6104 249.1 92.0104 249.59C91.3904 250.03 90.8804 250.63 90.5004 251.29C90.4904 251.3 90.4904 251.31 90.4904 251.31C90.3604 251.52 90.2504 251.74 90.1504 251.97L90.5304 253.71Z" fill="#183B59"/>
<path d="M42.3402 256.44C41.1502 256.44 39.9502 256.1 38.8902 255.38C36.0602 253.48 35.3202 249.64 37.2302 246.81C37.3102 246.69 46.0902 233.44 53.1002 210.43C59.5502 189.26 65.7902 155.23 58.8702 113.33C58.3202 109.96 60.5902 106.79 63.9602 106.24C67.3302 105.68 70.5002 107.96 71.0502 111.33C78.4002 155.85 71.6802 192.05 64.7502 214.58C57.1802 239.17 47.8702 253.14 47.4702 253.73C46.2702 255.49 44.3202 256.44 42.3402 256.44Z" fill="#0C6ED6"/>
<path d="M38.4304 258C45.0204 257.27 50.0304 253.71 49.6304 250.04C49.2304 246.37 43.5604 243.98 36.9704 244.71C30.3804 245.44 25.3704 249 25.7704 252.67C26.1804 256.34 31.8404 258.73 38.4304 258Z" fill="#86BCFC"/>
<path d="M38.6004 256.37C45.1904 255.64 50.2003 252.08 49.8003 248.41C49.4003 244.74 43.7303 242.35 37.1403 243.08C30.5503 243.81 25.5403 247.37 25.9403 251.04C26.3403 254.71 32.0104 257.1 38.6004 256.37Z" fill="#0C6ED6"/>
<path d="M32.9205 257.86C32.9105 257.59 32.9305 257.31 32.9705 257.04C33.0005 256.77 33.0505 256.5 33.1205 256.24C33.2405 255.76 33.4305 255.29 33.6605 254.85C34.0105 254.17 34.5005 253.54 35.1005 253.05C35.6705 252.54 36.3805 252.2 37.1005 252.01C36.6205 252.6 36.1405 253.1 35.7405 253.67C35.5305 253.94 35.3605 254.24 35.1605 254.51C35.0005 254.81 34.8105 255.08 34.6705 255.39C34.5005 255.71 34.3505 256.05 34.2005 256.38C34.0805 256.66 33.9605 256.95 33.8405 257.24C33.7605 257.48 33.6705 257.71 33.5905 257.96L32.9205 257.86Z" fill="#183B59"/>
<path d="M28.6699 256.43C28.6799 256.27 28.6899 256.12 28.6999 255.96C28.7399 255.59 28.8299 255.22 28.9399 254.86C29.0599 254.48 29.2099 254.12 29.3899 253.77C29.7399 253.09 30.2299 252.46 30.8299 251.97C31.3999 251.46 32.1099 251.12 32.8299 250.93C32.3499 251.52 31.8699 252.02 31.4699 252.59C31.2599 252.86 31.0899 253.16 30.8899 253.43C30.7299 253.73 30.5399 254 30.3999 254.31C30.2299 254.64 30.0599 254.99 29.9199 255.34C29.7999 255.61 29.6799 255.89 29.5799 256.17C29.4999 256.38 29.4399 256.59 29.3699 256.79L28.6699 256.43Z" fill="#183B59"/>
<path d="M25.7598 252.41C25.8498 252.18 25.9498 251.95 26.0698 251.73C26.0798 251.72 26.0798 251.71 26.0798 251.71C26.4298 251.03 26.9098 250.41 27.5098 249.94C28.0798 249.43 28.7898 249.09 29.5098 248.9C29.0298 249.49 28.5498 249.99 28.1498 250.56C27.9398 250.83 27.7698 251.12 27.5698 251.4C27.4098 251.69 27.2198 251.97 27.0698 252.27C26.9398 252.51 26.8198 252.75 26.7198 253C26.5498 253.36 26.3898 253.74 26.2498 254.13C26.2498 254.14 26.2398 254.14 26.2398 254.14L25.7598 252.41Z" fill="#183B59"/>
<path d="M11.4604 232.6C9.33039 232.6 7.26038 231.5 6.12038 229.53C4.41038 226.58 5.41039 222.81 8.35039 221.09C8.41039 221.06 16.3304 216.32 23.8004 206.63C33.6504 193.84 38.1704 178.81 37.2304 161.94C36.0704 141.18 23.5204 119.27 11.4004 116.85C8.06038 116.18 5.89038 112.93 6.56038 109.59C7.23038 106.25 10.4704 104.08 13.8204 104.75C23.0304 106.59 31.8804 113.99 38.7304 125.57C44.9404 136.06 48.8804 149.06 49.5604 161.25C50.9604 186.32 41.4504 204.12 33.2204 214.63C24.2904 226.04 14.9504 231.54 14.5504 231.77C13.5804 232.33 12.5204 232.6 11.4604 232.6Z" fill="#0C6ED6"/>
<path d="M25.7012 237.83C27.6712 234.71 24.7312 229.31 19.1312 225.77C13.5312 222.23 7.39118 221.89 5.41118 225.01C3.44118 228.13 6.38117 233.53 11.9812 237.07C17.5812 240.61 23.7212 240.95 25.7012 237.83Z" fill="#86BCFC"/>
<path d="M26.2598 236.3C28.2298 233.18 25.2898 227.78 19.6898 224.24C14.0898 220.7 7.94978 220.35 5.96978 223.48C3.99978 226.6 6.93977 232 12.5398 235.54C18.1498 239.08 24.2898 239.42 26.2598 236.3Z" fill="#0C6ED6"/>
<path d="M16.9805 239.37C17.1005 239.13 17.2106 238.87 17.3006 238.61C17.3906 238.35 17.4606 238.09 17.5206 237.82C17.6206 237.34 17.6605 236.84 17.6505 236.34C17.6305 235.57 17.4705 234.8 17.1505 234.1C16.8605 233.4 16.3805 232.78 15.8105 232.29C15.9805 233.03 16.2006 233.69 16.3006 234.37C16.3806 234.7 16.4005 235.05 16.4505 235.37C16.4705 235.71 16.5105 236.04 16.5105 236.37C16.5205 236.73 16.5205 237.1 16.5005 237.47C16.4905 237.78 16.4706 238.09 16.4406 238.4C16.4106 238.65 16.3806 238.9 16.3506 239.15L16.9805 239.37Z" fill="#183B59"/>
<path d="M21.4296 239.95C21.4896 239.81 21.5496 239.66 21.5996 239.51C21.7296 239.16 21.8096 238.79 21.8696 238.42C21.9296 238.03 21.9596 237.64 21.9396 237.25C21.9196 236.48 21.7596 235.71 21.4396 235.01C21.1496 234.31 20.6696 233.69 20.0996 233.2C20.2696 233.94 20.4896 234.6 20.5896 235.28C20.6696 235.61 20.6896 235.96 20.7396 236.28C20.7596 236.62 20.7996 236.95 20.7996 237.28C20.8096 237.66 20.8096 238.04 20.7896 238.42C20.7796 238.71 20.7596 239.01 20.7296 239.31C20.7096 239.53 20.6796 239.75 20.6496 239.97L21.4296 239.95Z" fill="#183B59"/>
<path d="M25.82 237.61C25.84 237.36 25.85 237.11 25.84 236.87C25.84 236.86 25.84 236.85 25.84 236.85C25.82 236.09 25.66 235.32 25.34 234.63C25.05 233.92 24.57 233.3 24 232.82C24.17 233.56 24.39 234.22 24.49 234.9C24.57 235.23 24.59 235.57 24.64 235.9C24.66 236.23 24.71 236.56 24.7 236.9C24.71 237.17 24.71 237.44 24.69 237.71C24.68 238.11 24.66 238.52 24.62 238.93C24.62 238.94 24.62 238.94 24.62 238.94L25.82 237.61Z" fill="#183B59"/>
<path d="M117.059 153.15C84.1895 174.67 63.4095 116.95 82.2795 96.35C82.4695 96.77 82.6595 97.18 82.8495 97.6C82.4595 104.81 82.2995 110.96 82.8495 115.22C85.8995 139.05 102.279 145.33 117.059 153.15Z" fill="#0C6ED6"/>
<path d="M23.6903 78.0199C20.9503 82.3699 14.0203 82.6799 7.82031 81.7999C10.6303 68.7099 14.2003 56.5599 18.4503 46.1599C23.8403 54.4699 30.2303 67.6299 23.6903 78.0199Z" fill="#0C6ED6"/>
</svg>
