<svg width="204" height="204" viewBox="0 0 204 204" fill="none" xmlns="http://www.w3.org/2000/svg">
<g clip-path="url(#clip0_3501_17664)">
<path d="M101.689 231.878C173.64 231.878 231.968 173.55 231.968 101.599C231.968 29.6482 173.64 -28.6797 101.689 -28.6797C29.738 -28.6797 -28.5898 29.6482 -28.5898 101.599C-28.5898 173.55 29.738 231.878 101.689 231.878Z" fill="#86BCFC"/>
<g opacity="0.2">
<path d="M90.3056 71.541H-9.51562V193.905H90.3056V71.541Z" fill="#161A0E"/>
</g>
<path d="M88.838 69.6738H-8.22656V191.638H88.838V69.6738Z" fill="#156C84"/>
<path d="M85.8183 82.4355H-6.71094V183.457H85.8183V82.4355Z" fill="#F2F2F2"/>
<g opacity="0.8">
<path d="M85.0607 83.9922H-5.73438V181.724H85.0607V83.9922Z" fill="#A9DDF3"/>
<path d="M57.8926 104.757C62.2883 104.757 65.8516 100.457 65.8516 95.153C65.8516 89.8488 62.2883 85.5488 57.8926 85.5488C53.497 85.5488 49.9336 89.8488 49.9336 95.153C49.9336 100.457 53.497 104.757 57.8926 104.757Z" fill="#8EDF73"/>
<path d="M12.8081 159.315C16.7209 153.312 23.2571 150.111 23.2571 150.111C23.2571 150.111 28.1481 149.577 32.9947 154.157C37.8412 158.737 39.3975 159.448 40.9092 164.072C42.421 168.697 44.6442 171.72 43.5326 174.788C42.421 177.856 41.5762 175.5 40.3312 177.278C39.0862 179.057 41.3094 181.591 41.3094 181.591L-6.57812 181.725C-6.57812 181.725 -5.33314 171.72 -1.55371 172.654C2.22571 173.588 9.16207 165.984 9.16207 165.984L12.8081 159.315Z" fill="#DACEDF"/>
<path d="M37.3056 82.6133C37.3056 82.6133 36.194 100.31 40.9072 99.3317C45.6203 98.3535 46.7764 94.0405 46.065 90.1277C45.3535 86.2148 50.2446 94.4407 52.0676 91.1059C53.8906 87.7711 57.092 86.5261 61.405 87.5043C65.718 88.4825 75.3222 83.5915 75.3222 83.5915L37.3056 82.6133Z" fill="#C5B797"/>
<path d="M50.8231 168.517C50.5563 173.675 47.8885 174.653 53.7577 174.386C59.6269 174.12 63.7621 171.185 62.5171 173.808C61.2721 176.432 60.1605 175.365 57.2259 177.855C54.2913 180.345 51.5345 180.789 56.3811 180.923C61.2276 181.056 59.3157 181.767 59.3157 181.767L83.8152 181.501C83.8152 181.501 85.6382 178.166 83.8152 178.299C81.9922 178.433 81.3253 176.921 78.7908 178.299C76.2564 179.678 72.7882 177.454 72.7882 177.454C72.7882 177.454 66.6522 177.454 65.4072 177.054C64.1622 176.654 62.2058 173.586 65.007 173.853C67.8083 174.12 70.0314 172.741 70.565 171.763C71.0986 170.785 70.565 167.85 73.4996 169.406C76.4342 170.963 77.2791 168.562 79.191 167.05C81.1029 165.538 80.7028 168.028 82.3924 167.183C84.082 166.338 84.082 164.115 84.082 164.115L83.8152 150.465L66.4299 150.998L58.9155 160.202L50.8231 168.517Z" fill="#B69DBE"/>
<path d="M62.5177 97.776C60.0277 92.885 58.4715 92.885 60.5613 91.2398C62.6511 89.5947 57.3599 86.6601 61.4061 86.7935C65.4523 86.9268 67.2308 86.9269 68.7871 85.9486C70.3433 84.9704 72.3887 82.4805 72.3887 82.4805L81.5927 84.3035L78.2579 92.218L72.6999 96.9312L66.4305 98.3096L62.5177 97.776Z" fill="#FCEE21"/>
<path d="M83.6811 98.354C76.8781 98.0872 71.0089 98.7542 67.6741 108.936C64.3393 119.119 61.5381 126.455 66.6959 127.433C71.8537 128.412 78.3899 123.965 80.3463 123.654C81.5023 123.476 82.7029 123.521 83.8145 123.787L85.0595 99.2877L83.6811 98.354Z" fill="#585AA8"/>
<path d="M-5.73548 108.092C-2.53409 106.002 -3.91247 104.49 -3.91247 104.49C-3.91247 104.49 -5.60209 99.7773 -3.20104 101.289C-1.91159 102.089 -0.71107 103.023 0.400526 104.046C0.400526 104.046 1.9123 100.133 2.35693 99.7328C2.80157 99.3327 1.95676 97.3763 2.75711 95.0197C3.55746 92.6631 0.8007 91.5515 1.9123 90.8401C3.02389 90.1287 5.11369 87.3719 5.11369 87.3719L6.35868 84.0371L10.6717 84.5707L12.4947 87.194L16.4075 87.5942L17.2523 84.3928L32.0143 84.5262L34.8155 90.0842L34.9489 96.487L31.7475 107.781L15.2959 115.028L-0.177505 119.208L-4.62389 120.053L-6.98047 117.83L-5.73548 108.092Z" fill="#998675"/>
<path d="M62.5178 97.7761C64.7409 96.3977 61.8063 94.8415 65.7191 94.8415C69.632 94.8415 71.1437 95.6863 71.8552 92.7517C72.5666 89.8171 74.7898 89.6837 74.7898 89.6837C74.7898 89.6837 72.5666 86.3489 76.1681 85.2373C79.7697 84.1257 83.9493 84.6593 83.9493 84.6593C83.9493 84.6593 86.3059 101.644 84.0827 101.778C81.8595 101.911 80.6145 97.9984 81.1481 103.156C81.6817 108.314 83.5047 108.314 79.9031 109.292C76.3015 110.27 80.4811 111.649 74.0783 111.916C67.6756 112.182 62.5178 108.447 62.5178 108.447L60.8281 102.445L62.5178 97.7761Z" fill="#CE838C"/>
<path d="M-6.26688 116.585C-3.64351 116.718 -3.7769 118.097 -1.8205 116.585C0.135912 115.073 -0.130872 113.117 1.78107 114.895C3.73748 116.718 3.87087 113.205 6.22745 113.917C8.58404 114.628 11.652 120.008 11.652 120.008C11.652 120.008 18.4995 115.695 11.7854 130.324C5.07139 144.953 1.64768 146.642 1.64768 146.642L-6.57812 148.599L-6.26688 116.585Z" fill="#8CC63F"/>
<path d="M5.42256 123.832C6.40076 130.101 8.09039 135.393 6.66754 137.349C5.2447 139.305 4.84453 138.905 2.48795 143.04C0.131363 147.176 0.131362 146.242 3.73293 149.31C7.3345 152.378 4.84453 153.356 8.17931 153.89C11.5141 154.423 12.7591 151.533 12.6257 154.423C12.4923 157.313 9.82448 157.224 12.7591 159.314C15.6937 161.404 12.7591 161.404 17.0721 158.469C21.3851 155.535 18.8951 153.578 23.4749 154.69C28.0546 155.802 27.3877 159.136 30.9893 156.513C34.5908 153.89 37.392 147.887 34.4574 143.707C31.5228 139.528 27.5655 134.681 23.7861 132.325C20.0067 129.968 11.9587 123.832 11.9587 123.832H5.42256Z" fill="#C69C6D"/>
<path d="M38.5489 83.459C39.0825 87.2384 43.1287 87.9054 41.4835 90.5732C39.8384 93.241 34.3693 96.5758 34.3693 96.5758L30.7677 89.595L29.0781 84.8818L30.5899 83.7702L38.5489 83.459Z" fill="#FBB03B"/>
<path d="M2.22273 94.0395C2.22273 96.8407 2.22273 99.7309 5.02395 101.154C7.82517 102.577 10.4485 107.69 8.8923 109.335C7.33607 110.98 7.38053 109.602 6.40233 112.67C5.42412 115.738 5.86876 117.961 3.91235 120.318C1.95595 122.674 -2.35705 119.606 1.55577 123.786C5.46859 127.965 3.51218 124.764 7.95856 129.344C12.4049 133.924 9.91497 137.836 13.1164 139.215C16.3178 140.593 16.8958 140.326 17.6961 144.373C18.4965 148.419 19.7859 149.264 23.8321 148.686C27.8784 148.107 30.3683 147.307 31.3465 148.686C32.3247 150.064 27.4337 149.397 30.9464 153.577C34.459 157.756 29.2567 153.843 32.3247 158.29C35.3927 162.736 38.0161 163.448 37.6159 166.916C37.2158 170.384 38.9943 168.605 41.7955 172.073C44.5967 175.542 41.3954 172.34 46.9533 170.695C52.5113 169.05 48.643 170.829 53.9342 169.85C59.2253 168.872 62.4267 166.649 64.2498 164.292C66.0728 161.936 67.3178 167.36 68.4294 163.047C69.5409 158.734 67.051 160.246 68.296 156.645C69.541 153.043 67.4511 156.778 71.7641 155.8C76.0771 154.822 72.8757 155.4 77.9001 154.822C82.9246 154.244 85.2811 156.511 82.0798 150.242C78.8784 143.972 77.9001 143.706 80.1233 142.594C82.3465 141.482 83.1913 148.019 82.6133 139.926C82.0353 131.834 84.8365 130.722 81.7685 129.922C78.7005 129.121 81.3683 126.987 79.4119 125.475C77.4555 123.964 71.0527 124.631 72.7423 122.274C74.432 119.917 78.1669 122.674 77.4555 118.495C76.7441 114.315 75.4991 115.293 75.0989 111.958C74.6988 108.624 79.2785 105.689 74.6988 106.667C70.119 107.645 67.7179 109.335 65.9394 104.711C64.1608 100.087 70.9638 100.665 63.7162 97.1964C56.4686 93.7282 57.18 97.063 55.0902 94.1284C53.0004 91.1938 53.9786 89.4153 50.3326 88.8372C46.6865 88.2592 45.7528 85.7692 44.908 88.9706C44.0632 92.172 48.3762 92.0386 45.6194 94.7954C42.8627 97.5521 42.1512 99.9532 41.7066 96.0404C41.262 92.1275 42.6848 88.526 38.772 91.016C34.8592 93.5059 34.5924 94.2174 33.3474 96.8407C32.1024 99.4641 26.2332 101.865 24.4546 98.7971C22.6761 95.7291 24.1879 93.2391 19.1634 93.2391C14.139 93.2391 10.8042 91.7274 7.46946 91.8608C4.13467 91.9942 2.22273 91.6829 2.22273 94.0395Z" fill="#86BCFC"/>
<path d="M43.0423 174.386C42.6421 174.386 42.4198 174.075 41.8418 173.364C41.6639 173.141 41.486 172.875 41.2193 172.563C40.1077 171.185 39.2184 170.74 38.507 170.34C37.3509 169.718 36.6395 169.229 36.9063 166.916C37.1286 164.96 36.2838 164.071 34.772 162.426C33.9272 161.492 32.8601 160.38 31.7485 158.735C30.7258 157.268 30.459 156.512 30.6813 155.934C30.8147 155.578 31.0815 155.4 31.3483 155.356C31.2149 155.134 30.9037 154.733 30.4146 154.111C29.303 152.777 28.8583 151.754 29.0362 150.865C29.214 149.931 29.9699 149.531 30.459 149.22C30.5479 149.175 30.6369 149.131 30.7258 149.086C30.1033 148.464 28.5026 148.731 26.235 149.086C25.5235 149.22 24.7677 149.353 23.9228 149.442C19.5209 150.065 17.9647 148.998 17.0754 144.596C16.4085 141.394 16.1417 141.261 13.9185 140.372C13.6072 140.238 13.2515 140.105 12.8513 139.927C11.0283 139.127 10.7171 137.57 10.4058 135.97C10.0946 134.28 9.69442 132.19 7.47123 129.923C5.2925 127.655 4.71447 127.388 4.1809 127.121C3.60287 126.81 3.02484 126.499 1.02397 124.365C-0.576725 122.675 -0.932435 122.052 -0.665652 121.43C-0.398869 120.852 0.268088 120.807 0.890581 120.807C1.69093 120.807 2.7136 120.763 3.33609 120.007C4.49215 118.584 4.71447 117.295 5.02572 115.605C5.20357 114.716 5.38143 113.693 5.73714 112.582C6.4041 110.536 6.67088 110.225 7.3823 109.825C7.64908 109.692 7.91586 109.514 8.40497 108.98C8.67175 108.669 8.76068 108.135 8.62729 107.379C8.22711 105.29 6.4041 102.666 4.71447 101.821C1.55754 100.221 1.55754 96.9749 1.55754 94.1292C1.55754 91.5058 3.55841 91.4614 5.87053 91.4169C6.31517 91.4169 6.80427 91.4169 7.33784 91.3724C8.983 91.2835 10.6726 91.6392 12.4067 91.9505C14.3187 92.3062 16.4529 92.7508 19.0318 92.7508C22.7668 92.7508 23.3893 94.0847 23.9673 96.219C24.1452 96.9304 24.4119 97.7752 24.901 98.6201C25.4791 99.5983 26.5462 99.7761 27.3466 99.7316C29.3919 99.6427 31.8819 98.2199 32.5933 96.7081L32.6822 96.5747C33.8827 94.0403 34.2829 93.151 38.2847 90.6166C39.7075 89.6828 40.5968 89.4605 41.2637 89.8607C42.153 90.3498 42.153 91.5948 42.153 93.3289C42.153 94.1737 42.1085 95.1519 42.2419 96.1301C42.3309 96.7526 42.3753 97.1527 42.4198 97.3751C42.6421 97.1527 42.9534 96.797 43.1757 96.4858C43.6648 95.9078 44.2428 95.1963 44.9987 94.4849C46.0658 93.4178 45.8435 93.1955 45.1765 92.4396C44.5541 91.7726 43.6648 90.75 44.1094 88.9269C44.4207 87.7709 44.7319 87.1929 45.3099 86.9705C45.9769 86.6593 46.6883 86.9705 47.4887 87.3707C48.2001 87.7264 49.0894 88.1266 50.3343 88.3044C53.0911 88.7491 53.5802 89.9051 54.2472 91.4169C54.5584 92.1283 54.8697 92.9287 55.5366 93.8624C56.2925 94.9296 56.4259 94.9296 57.1818 94.9296C58.2044 94.8851 59.9385 94.7962 63.8958 96.7081C66.3858 97.9086 67.4085 98.709 67.6308 99.5983C67.8086 100.354 67.364 100.932 66.9638 101.466C66.3858 102.222 65.8078 102.978 66.4302 104.578C67.7197 107.824 69.0091 107.513 72.2105 106.668C72.8775 106.49 73.6334 106.312 74.4337 106.134C75.7676 105.868 76.6569 105.779 77.1016 106.401C77.5462 107.024 77.146 107.735 76.6569 108.624C76.1234 109.603 75.5009 110.803 75.6343 112.004C75.8121 113.471 76.1234 113.96 76.568 114.583C77.0571 115.338 77.6351 116.183 77.9908 118.495C78.1687 119.696 78.0798 120.496 77.6351 121.03C77.1016 121.741 76.2123 121.786 75.3675 121.875C74.4782 121.964 73.6334 122.008 73.1443 122.764C73.0109 122.986 72.9664 123.075 72.9664 123.075C73.1443 123.386 74.745 123.653 75.6787 123.831C77.1905 124.098 78.7467 124.365 79.6805 125.076C80.8365 125.965 80.7476 127.077 80.7031 127.877C80.6587 128.767 80.6142 129.122 81.8147 129.433C84.0824 130.056 83.9045 131.212 83.5488 132.991C83.282 134.413 82.8819 136.548 83.1486 140.06C83.4154 144.062 83.4154 144.596 82.7485 144.818C82.1704 145.04 81.8147 144.551 81.5479 144.151C80.9255 143.351 80.6142 143.128 80.303 143.306C80.1251 143.395 79.5471 143.706 79.4581 143.884C79.3692 144.195 79.9473 145.307 80.7031 146.685C81.1922 147.575 81.8147 148.686 82.5262 150.109C84.0379 153.044 84.3492 154.155 83.8601 154.956C83.371 155.712 82.3928 155.667 81.0588 155.623C80.1696 155.578 79.1024 155.534 77.8575 155.667C76.2568 155.845 75.5009 155.889 75.0562 155.934C74.5227 155.978 74.5227 155.978 73.9002 156.112C73.5 156.201 72.922 156.334 71.8104 156.601C70.432 156.912 69.5427 156.779 68.9647 156.512C68.9202 156.645 68.8758 156.823 68.7868 157.001C68.2533 158.513 68.4756 158.869 68.7424 159.358C69.187 160.202 69.5427 161.092 68.9647 163.359C68.609 164.693 68.2088 165.316 67.6308 165.538C66.9638 165.76 66.3858 165.316 65.9411 164.96C65.6744 164.738 65.3186 164.471 65.1408 164.515C65.0074 164.515 64.874 164.649 64.6962 164.871C63.1399 166.916 59.983 169.584 53.9804 170.696C51.5349 171.141 50.9124 171.052 50.3343 170.829C50.0676 170.74 49.8452 170.651 47.0885 171.496C44.5096 172.252 44.0649 173.364 43.8871 173.808C43.7982 174.031 43.6203 174.431 43.1757 174.475C43.1312 174.386 43.0867 174.386 43.0423 174.386ZM32.0153 156.512C32.1042 156.734 32.3265 157.179 32.8601 157.979C33.9272 159.491 34.9054 160.558 35.7502 161.492C37.3954 163.226 38.5514 164.515 38.2402 167.05C38.0623 168.606 38.2402 168.695 39.1295 169.14C39.8854 169.54 40.9969 170.118 42.2864 171.719C42.5532 172.03 42.7755 172.297 42.9089 172.519C42.9089 172.519 42.9089 172.563 42.9534 172.563C43.398 171.852 44.3317 170.829 46.7328 170.118C49.7563 169.229 50.201 169.273 50.779 169.451C51.0458 169.54 51.4459 169.673 53.7581 169.229C59.3605 168.206 62.2507 165.76 63.629 163.893C64.0292 163.359 64.4738 163.093 64.9629 163.004C65.7188 162.915 66.2969 163.359 66.7415 163.76C66.8749 163.893 67.0972 164.026 67.1861 164.071C67.2751 163.982 67.4529 163.671 67.6752 162.87C68.1643 160.914 67.8976 160.425 67.5863 159.847C67.1417 159.046 66.8749 158.29 67.5418 156.423C67.8086 155.667 67.8976 155.267 67.9865 155.045C68.0309 154.867 68.1643 154.378 68.6534 154.378C68.7868 154.378 69.187 154.422 69.3649 154.867C69.5872 155.489 70.8322 155.311 71.5436 155.178C72.6107 154.956 73.2332 154.778 73.5889 154.689C74.3003 154.511 74.3003 154.511 74.9228 154.467C75.3675 154.422 76.1234 154.378 77.7241 154.2C79.058 154.066 80.214 154.111 81.1033 154.111C81.7703 154.155 82.5706 154.155 82.7485 154.022C82.7929 153.844 82.6151 153.044 81.3256 150.554C80.6142 149.131 79.9917 148.064 79.5026 147.175C78.3465 145.085 77.8574 144.195 78.1242 143.351C78.3465 142.684 78.969 142.328 79.636 141.972C80.6142 141.483 81.3701 141.928 81.9037 142.461C81.8592 141.617 81.8147 140.549 81.7703 139.971C81.5035 136.281 81.9481 134.058 82.2149 132.546C82.5261 130.812 82.5262 130.812 81.4146 130.545C79.1914 129.923 79.2803 128.544 79.3248 127.655C79.3692 126.899 79.3692 126.454 78.7912 126.01C78.1242 125.521 76.7014 125.254 75.4119 125.032C73.5445 124.72 72.1216 124.454 71.677 123.475C71.4991 122.986 71.5881 122.453 71.9882 121.875C72.8775 120.63 74.2114 120.541 75.2341 120.452C75.8121 120.407 76.3457 120.363 76.5235 120.141C76.6125 120.007 76.7903 119.651 76.6125 118.629C76.2568 116.583 75.8121 115.916 75.3675 115.205C74.9228 114.538 74.4337 113.827 74.2559 112.048C74.0336 110.403 74.8339 108.936 75.4119 107.869C75.5453 107.646 75.6787 107.335 75.7676 107.157C75.5453 107.157 75.1896 107.202 74.6116 107.335C73.8112 107.513 73.1443 107.691 72.4329 107.869C69.2759 108.713 66.786 109.336 65.0519 104.978C64.1626 102.666 65.1408 101.377 65.7633 100.576C65.9856 100.265 66.2079 99.9984 66.1635 99.8206C66.119 99.5983 65.6299 99.0202 63.1399 97.8197C59.4494 96.0411 57.9377 96.1301 57.0484 96.1301C55.8923 96.1745 55.3588 96.0412 54.2472 94.5294C53.4913 93.4622 53.1356 92.573 52.8243 91.8171C52.2463 90.4387 51.9795 89.8162 49.9786 89.505C48.5558 89.2826 47.5331 88.7935 46.7772 88.4378C46.4215 88.26 45.888 87.9932 45.7546 88.0377C45.7546 88.0377 45.5323 88.1711 45.3099 89.1493C44.9987 90.2609 45.4878 90.7944 46.0658 91.4169C46.9551 92.4396 47.6221 93.4622 45.8435 95.2853C45.1321 95.9967 44.5541 96.6636 44.1094 97.2417C43.1757 98.3533 42.6421 99.0202 41.8862 98.7534C41.1748 98.5311 40.9525 97.6863 40.8191 96.1301C40.6857 95.0629 40.7302 94.0847 40.7302 93.1955C40.7302 92.3507 40.7746 91.1057 40.5523 90.8833C40.5523 90.8833 40.1966 90.7944 38.9516 91.5948C35.3056 93.9513 34.9943 94.5294 33.8383 97.0194L33.7493 97.1527C32.8156 99.1092 29.881 100.799 27.3466 100.932C25.7014 100.977 24.3675 100.354 23.7005 99.1536C23.1225 98.1309 22.8557 97.1972 22.6334 96.3969C22.1888 94.6628 21.9664 93.9069 18.9874 93.9069C16.2751 93.9069 14.0519 93.4622 12.0955 93.1065C10.3614 92.7508 8.80514 92.484 7.33784 92.5285C6.80427 92.573 6.2707 92.573 5.82607 92.573C3.11377 92.6174 2.80253 92.7508 2.80253 93.9514C2.80253 96.6636 2.80253 99.2425 5.20357 100.488C7.47123 101.644 9.42763 104.756 9.82781 106.979C10.0501 108.135 9.87227 109.114 9.29424 109.736C8.67175 110.403 8.27157 110.67 7.96033 110.803C7.64908 110.981 7.47123 111.07 6.93766 112.804C6.62641 113.827 6.44856 114.76 6.2707 115.65C5.95946 117.384 5.69267 118.984 4.3143 120.674C3.29163 121.919 1.77986 121.964 0.846118 121.964C0.801654 121.964 0.801654 121.964 0.75719 121.964C0.935045 122.23 1.29076 122.631 1.91325 123.253C3.73627 125.209 4.22537 125.476 4.71447 125.743C5.33696 126.054 6.00392 126.41 8.31604 128.811C10.806 131.345 11.2507 133.791 11.6064 135.569C11.9176 137.259 12.1399 138.059 13.2515 138.549C13.6517 138.726 13.9629 138.86 14.3187 138.993C16.8086 140.016 17.4756 140.461 18.2759 144.195C19.0318 147.886 19.9211 148.508 23.6561 147.975C24.4564 147.841 25.2123 147.753 25.9237 147.619C28.8583 147.13 30.8147 146.819 31.8374 148.242C32.0597 148.553 32.1486 148.864 32.0597 149.175C31.9263 149.709 31.4817 149.976 31.0815 150.198C30.6369 150.465 30.3256 150.643 30.2812 150.91C30.2367 151.176 30.3256 151.754 31.3928 153.044C32.6377 154.511 32.949 155.178 32.7711 155.756C32.6377 156.334 32.2376 156.467 32.0153 156.512Z" fill="white"/>
<path d="M-6.13281 146.953C-1.55304 146.819 0.269977 144.596 2.49317 145.974C4.71636 147.353 14.4539 150.287 14.3205 153.089C14.1872 155.89 11.6527 153.8 14.7207 160.203C17.7887 166.606 19.7451 164.649 21.2569 169.94C22.7687 175.232 29.3493 176.21 22.7687 177.588C16.188 178.966 17.0773 177.455 13.4313 177.188C9.78523 176.921 10.0965 174.698 6.76169 177.188C3.42691 179.678 0.492297 178.878 -0.75269 179.411C-1.99768 179.945 -6.04388 181.501 -6.04388 181.501L-6.13281 146.953Z" fill="#00A99D"/>
<path d="M41.9281 135.481C45.366 135.481 48.153 132.694 48.153 129.256C48.153 125.818 45.366 123.031 41.9281 123.031C38.4901 123.031 35.7031 125.818 35.7031 129.256C35.7031 132.694 38.4901 135.481 41.9281 135.481Z" fill="white"/>
<path d="M68.6551 178.834C70.4969 178.834 71.9899 177.341 71.9899 175.499C71.9899 173.657 70.4969 172.164 68.6551 172.164C66.8133 172.164 65.3203 173.657 65.3203 175.499C65.3203 177.341 66.8133 178.834 68.6551 178.834Z" fill="white"/>
<path d="M6.58088 163.494C8.42263 163.494 9.91567 162.001 9.91567 160.159C9.91567 158.317 8.42263 156.824 6.58088 156.824C4.73913 156.824 3.24609 158.317 3.24609 160.159C3.24609 162.001 4.73913 163.494 6.58088 163.494Z" fill="white"/>
<path d="M74.5211 100.978C76.2155 100.978 77.5891 99.6042 77.5891 97.9098C77.5891 96.2154 76.2155 94.8418 74.5211 94.8418C72.8267 94.8418 71.4531 96.2154 71.4531 97.9098C71.4531 99.6042 72.8267 100.978 74.5211 100.978Z" fill="white"/>
<path d="M53.6686 147.576C54.7801 149.355 55.8028 151.133 56.7366 153.001C57.6703 154.868 58.4706 156.78 59.1376 158.737C59.8046 160.649 60.3826 162.649 60.7828 164.65C61.2274 166.651 61.4497 168.652 61.4942 170.653C61.0495 168.696 60.4715 166.829 59.6712 164.962C58.9153 163.139 58.026 161.404 57.0033 159.715C55.9807 158.025 54.9135 156.424 53.713 154.913C52.5125 153.401 51.2675 151.934 49.9336 150.511L53.6686 147.576Z" fill="#F7931E"/>
<path d="M47.9766 143.219L48.3323 156.38L52.2006 149.844L59.5816 149.488L47.9766 143.219Z" fill="#F7931E"/>
<path d="M52.3359 114.361C53.6254 112.938 54.9593 111.604 56.3821 110.315C57.805 109.07 59.2723 107.869 60.8285 106.802C62.3848 105.735 63.9855 104.757 65.6751 103.912C67.3202 103.067 69.0543 102.356 70.8329 101.822C69.2322 102.667 67.676 103.69 66.2531 104.846C64.8303 105.957 63.4964 107.202 62.2514 108.492C61.0064 109.781 59.8503 111.16 58.7832 112.583C57.7161 114.005 56.7379 115.473 55.8486 116.984L52.3359 114.361Z" fill="#F7931E"/>
<path d="M49.8906 120.453L61.4512 116.896L54.6927 115.117L52.6029 108.67L49.8906 120.453Z" fill="#F7931E"/>
<path d="M12.6289 148.42C14.2296 147.042 15.8748 145.752 17.5644 144.507C19.254 143.307 21.0326 142.195 22.8556 141.217C24.6786 140.239 26.5461 139.394 28.5025 138.683C30.4144 137.971 32.3708 137.393 34.3717 137.082C32.5042 137.793 30.7257 138.727 28.9916 139.794C27.302 140.861 25.7013 142.018 24.145 143.263C22.6333 144.507 21.2104 145.841 19.832 147.264C18.4981 148.687 17.2531 150.154 16.0526 151.711L12.6289 148.42Z" fill="#ED1C24"/>
<path d="M9.16016 154.735L22.1881 152.378L15.0738 149.533L13.6065 142.285L9.16016 154.735Z" fill="#ED1C24"/>
</g>
<path d="M85.8183 72.7422H-6.71094V79.9009H85.8183V72.7422Z" fill="#F2F2F2"/>
<path d="M147.309 246.639L127.567 251.975L124.187 252.864L122.053 239.392L120.942 252.02L118.852 251.13L108.758 246.773L108.625 213.469L103.512 166.471C106.58 164.115 109.826 162.025 113.249 160.246C114.405 159.668 115.561 159.135 116.717 158.69C117.518 158.379 118.318 158.112 119.119 157.89C119.652 157.756 120.141 157.623 120.675 157.534C120.897 157.489 121.075 157.445 121.297 157.445C122.053 157.312 122.809 157.267 123.565 157.312H123.743C125.699 157.401 127.656 157.667 129.612 158.067C131.124 158.379 132.636 158.779 134.147 159.224C138.371 160.513 142.418 162.469 146.108 164.959L143.84 212.313L147.309 246.639Z" fill="#DCF6FF"/>
<path d="M127.566 251.976L124.187 252.865L122.053 239.393L120.941 252.02L118.852 251.131C121.03 239.659 120.185 185.992 120.319 164.693C120.319 163.182 121.697 162.515 121.697 164.782C121.786 187.148 121.964 245.84 127.566 251.976Z" fill="#B8F0FF"/>
<path d="M121.432 165.271L114.629 159.936C115.741 159.358 116.452 158.868 117.608 158.424C118.453 162.426 121.432 165.271 121.432 165.271Z" fill="#4D4D4D"/>
<path d="M134.102 158.469L121.518 165.583L120.273 164.472C120.273 164.472 127.032 160.603 130.589 156.779C131.701 155.579 132.679 158.024 134.102 158.469Z" fill="#4D4D4D"/>
<path d="M152.688 250.02C152.644 250.064 150.021 250.954 147.575 251.843C145.974 252.421 144.418 252.954 143.751 253.177C140.105 254.333 130.412 255.578 130.412 255.578C130.412 255.578 124.943 220.496 126.633 184.347C126.988 176.832 130.279 156.957 130.279 156.957L145.352 161.448C147.664 162.159 149.176 164.382 148.953 166.784C148.909 167.273 148.865 167.851 148.776 168.384C147.708 179.456 145.53 203.244 145.708 210.269C145.708 210.314 145.708 210.403 145.708 210.447C145.708 210.491 145.708 210.669 145.708 210.803C145.708 210.847 145.708 210.847 145.708 210.892C145.708 211.025 145.708 211.158 145.752 211.292C146.375 219.651 151.443 244.462 152.422 249.219C152.466 249.486 152.511 249.709 152.555 249.975C152.644 249.975 152.644 250.02 152.688 250.02Z" fill="#03384F"/>
<path d="M152.69 250.02C152.646 250.065 150.022 250.954 147.577 251.843C146.198 243.217 143.842 227.388 143.219 218.14C142.374 204.978 143.664 179.856 148.822 168.385C147.755 179.456 145.576 203.244 145.754 210.27C145.754 210.314 145.754 210.403 145.754 210.448C145.754 210.492 145.754 210.67 145.754 210.803C145.754 210.848 145.754 210.848 145.754 210.892C145.754 211.026 145.754 211.159 145.798 211.292C146.376 218.584 150.556 239.794 152.468 249.22C152.512 249.487 152.557 249.709 152.601 249.976C152.69 249.976 152.69 250.02 152.69 250.02Z" fill="#022E47"/>
<path d="M134.017 177.455L133.172 180.968L141.709 181.901L140.864 179.234L134.017 177.455Z" fill="white"/>
<path d="M132.413 179.811L131.969 182.478L142.551 183.768L142.329 180.967L132.902 179.855L132.413 179.811Z" fill="#022E47"/>
<path d="M130.546 155.801C134.148 156.823 138.149 157.446 137.305 159.358C130.368 175.543 126.589 207.334 126.589 207.334C125.611 197.286 125.566 187.192 126.456 177.143C127.122 169.94 130.546 155.801 130.546 155.801Z" fill="#064F63"/>
<path d="M117.119 158.514C114.762 171.497 116.274 256.423 116.274 256.423C116.274 256.423 104.046 253.399 104.358 250.065C106.047 232.902 107.559 214.76 107.114 212.848C106.759 211.292 103.557 180.612 102.401 169.674C102.179 167.362 103.38 165.183 105.469 164.161L117.119 158.514Z" fill="#03384F"/>
<path d="M124.146 206.222L120.455 211.914L120.411 211.825L118.188 206.222L120.011 166.383L121.344 166.916L122.145 167.228L124.146 206.222Z" fill="#4D4D4D"/>
<path d="M124.145 206.223L120.455 211.914L120.41 211.825C121.388 210.047 122.856 207.334 123.078 206.045C123.434 204.133 122.767 174.52 121.344 166.961L122.144 167.272L124.145 206.223Z" fill="#3F3F3F"/>
<path d="M129.124 158.202L131.614 152.066C131.614 152.066 122.677 152.689 121.032 152.911C119.386 153.134 115.829 153.311 116.185 153.489C116.541 153.667 122.943 160.292 122.943 160.292L129.124 158.202Z" fill="#64A3BF"/>
<path d="M121.656 151.844H125.836V156.246C125.836 157.313 124.991 158.158 123.924 158.158H123.568C122.501 158.158 121.656 157.313 121.656 156.246V151.844Z" fill="#EDBBAB"/>
<path d="M131.657 152.021L129.79 158.469L120.319 164.694L118.096 160.158L116.184 153.444L120.63 155.801L121.653 157.224L122.987 155.845L131.657 152.021Z" fill="#C7DEE8"/>
<path d="M81.0156 84.08C81.0156 115.694 95.4219 150.687 122.678 150.687C126.235 150.687 130.237 145.974 132.416 147.219C134.016 148.108 134.55 155 134.55 155C134.55 155 140.642 151.443 143.754 146.774C144.465 145.662 144.732 154.777 145.755 153.844C147.044 152.688 153.047 140.682 154.248 139.393C155.359 138.237 152.914 153.088 153.981 151.887C164.296 139.482 183.06 111.603 179.636 87.2369C175.279 55.8899 149.935 36.1035 122.678 36.1035C95.4219 36.1035 81.0156 52.4662 81.0156 84.08Z" fill="#603813"/>
<path d="M107.601 57.581C77.1879 71.9429 90.4826 96.2201 78.6552 109.337C70.0737 118.852 75.7206 138.061 95.5959 148.243C100.531 150.777 104.089 151.755 109.246 152.6C128.277 155.624 147.396 147.62 155.978 132.992C167.183 113.872 161.402 64.4729 131.878 55.0021C117.872 50.5558 107.601 57.581 107.601 57.581Z" fill="#FFD9CC"/>
<path d="M134.014 95.4187C133.702 95.4187 133.347 95.3298 133.035 95.1964C132.946 95.1519 124.676 90.9278 116.628 93.818C115.517 94.2182 114.316 93.6401 113.916 92.5285C113.516 91.4169 114.094 90.2164 115.205 89.8162C125.032 86.3036 134.592 91.1946 134.992 91.4169C136.014 91.9505 136.415 93.24 135.881 94.2626C135.525 94.974 134.814 95.4187 134.014 95.4187Z" fill="#42210B"/>
<path d="M137.174 109.647C136.907 115.828 131.794 119.83 125.613 119.518C119.433 119.207 112.23 115.961 112.541 109.825C112.852 103.689 120.367 97.6867 126.547 97.9979C132.683 98.2647 137.441 103.511 137.174 109.647Z" fill="white"/>
<path d="M124.588 117.962C129.377 117.962 133.259 114.08 133.259 109.292C133.259 104.503 129.377 100.621 124.588 100.621C119.8 100.621 115.918 104.503 115.918 109.292C115.918 114.08 119.8 117.962 124.588 117.962Z" fill="#58B9E2"/>
<path d="M122.676 116.584C126.138 116.584 128.945 113.777 128.945 110.314C128.945 106.852 126.138 104.045 122.676 104.045C119.213 104.045 116.406 106.852 116.406 110.314C116.406 113.777 119.213 116.584 122.676 116.584Z" fill="#2D1508"/>
<path d="M136.327 112.716C136.727 110.537 136.594 108.314 135.927 106.224C135.571 105.246 135.082 104.357 134.415 103.556C133.748 102.756 132.992 102.089 132.148 101.511C130.369 100.31 128.368 99.5101 126.278 99.1988C124.1 98.8876 121.832 99.1099 119.742 99.8213C120.676 99.0654 121.743 98.5319 122.855 98.1761C124.011 97.8204 125.211 97.6426 126.412 97.6426C128.857 97.687 131.258 98.4429 133.304 99.7768C134.371 100.444 135.305 101.333 136.016 102.356C136.772 103.378 137.261 104.534 137.528 105.779C138.061 108.18 137.617 110.67 136.327 112.716Z" fill="#42210B"/>
<g opacity="0.5">
<path d="M129.168 109.469C131.157 109.469 132.77 107.856 132.77 105.867C132.77 103.878 131.157 102.266 129.168 102.266C127.179 102.266 125.566 103.878 125.566 105.867C125.566 107.856 127.179 109.469 129.168 109.469Z" fill="white"/>
</g>
<path d="M85.1942 93.9075C84.4828 93.9075 83.8158 93.5518 83.4157 92.9293C82.7932 91.9511 83.1044 90.6172 84.0826 89.9947C90.7077 85.9041 98.8446 87.9939 99.2003 88.0828C100.312 88.394 101.023 89.5501 100.712 90.6617C100.401 91.7733 99.2448 92.4847 98.1332 92.1735C98.0887 92.1735 91.3747 90.4838 86.3058 93.5963C85.9501 93.7741 85.5499 93.9075 85.1942 93.9075Z" fill="#42210B"/>
<path d="M79.9438 105.778C79.677 111.336 83.2341 115.338 87.9472 115.56C92.6604 115.782 98.3962 113.426 98.663 107.868C98.9298 102.31 93.6386 96.3516 88.9255 96.1293C84.2123 95.907 80.2105 100.22 79.9438 105.778Z" fill="white"/>
<path d="M88.7968 114.539C93.0942 114.539 96.578 111.055 96.578 106.758C96.578 102.46 93.0942 98.9766 88.7968 98.9766C84.4994 98.9766 81.0156 102.46 81.0156 106.758C81.0156 111.055 84.4994 114.539 88.7968 114.539Z" fill="#58B9E2"/>
<path d="M87.1523 113.293C90.2956 113.293 92.8437 110.745 92.8437 107.602C92.8437 104.458 90.2956 101.91 87.1523 101.91C84.0091 101.91 81.4609 104.458 81.4609 107.602C81.4609 110.745 84.0091 113.293 87.1523 113.293Z" fill="#2D1508"/>
<path d="M79.7689 106.756C79.5021 105.067 79.591 103.377 80.0801 101.732C80.5692 100.042 81.6364 98.5306 83.0592 97.4635C84.4821 96.3964 86.1717 95.8183 87.9502 95.7739C89.6843 95.7294 91.3295 96.3074 92.7079 97.3301C91.1961 96.7965 89.5954 96.6187 88.0392 96.841C86.5274 97.0633 85.1046 97.6858 83.904 98.6196C82.7035 99.5533 81.7698 100.798 81.1917 102.177C80.5692 103.688 80.0801 105.2 79.7689 106.756Z" fill="#42210B"/>
<g opacity="0.5">
<path d="M91.9072 107.023C93.8471 107.023 95.4198 105.451 95.4198 103.511C95.4198 101.571 93.8471 99.998 91.9072 99.998C89.9672 99.998 88.3945 101.571 88.3945 103.511C88.3945 105.451 89.9672 107.023 91.9072 107.023Z" fill="white"/>
</g>
<path d="M103.245 108.848C101.511 115.073 94.0854 117.34 94.0854 117.34C93.9076 120.675 97.02 123.521 99.0209 124.232" fill="#FFD9CC"/>
<path d="M103.248 108.848C103.115 109.959 102.803 111.071 102.27 112.049C101.736 113.027 101.025 113.961 100.18 114.717C99.3796 115.517 98.4458 116.184 97.4676 116.762C96.9785 117.073 96.4894 117.296 95.9558 117.563C95.4223 117.829 94.8887 118.007 94.3551 118.185L94.9332 117.429C94.8887 118.052 94.9776 118.719 95.2 119.297C95.4223 119.964 95.6891 120.542 96.0448 121.12C96.4005 121.742 96.8451 122.276 97.3342 122.809C97.8233 123.343 98.4013 123.832 99.0238 124.277C98.268 124.143 97.5121 123.832 96.8451 123.432C96.1782 123.032 95.5557 122.498 95.0221 121.92C94.4885 121.298 94.0439 120.586 93.7326 119.83C93.4214 119.03 93.2435 118.185 93.288 117.34C93.288 116.985 93.5103 116.718 93.866 116.584H93.9105C94.8887 116.229 95.8224 115.828 96.7117 115.339C97.6455 114.85 98.4903 114.317 99.3351 113.694C99.7353 113.383 100.135 113.027 100.536 112.716C100.936 112.36 101.291 112.005 101.603 111.604C102.27 110.76 102.803 109.826 103.248 108.848Z" fill="#E0A08B"/>
<path d="M152.155 129.034C132.991 114.138 169.496 96.4862 171.363 108.847C173.231 121.208 157.758 133.391 152.155 129.034Z" fill="#FFD9CC"/>
<path d="M153.003 119.786C152.869 118.719 153.269 117.652 153.714 116.718C154.203 115.784 154.826 114.895 155.537 114.095C156.915 112.449 158.605 111.115 160.473 110.048C161.451 109.47 162.518 109.07 163.629 108.848C163.941 108.803 164.296 108.803 164.608 108.848C165.008 108.892 165.408 109.026 165.719 109.292C165.897 109.426 166.031 109.604 166.164 109.782C166.253 109.915 166.342 110.093 166.386 110.226C166.52 110.537 166.564 110.849 166.609 111.16C166.653 112.316 166.297 113.472 165.586 114.406C164.963 115.295 164.207 116.006 163.318 116.629C163.896 115.784 164.385 114.895 164.741 113.961C165.141 113.161 165.275 112.227 165.141 111.338C165.097 111.16 165.008 110.982 164.919 110.804C164.874 110.715 164.83 110.671 164.786 110.582C164.741 110.582 164.741 110.537 164.697 110.537C164.43 110.448 164.119 110.448 163.852 110.537C162.963 110.76 162.118 111.115 161.317 111.605C159.628 112.583 157.983 113.739 156.515 115.028C155.759 115.695 155.092 116.362 154.425 117.118C153.847 117.918 153.314 118.808 153.003 119.786Z" fill="#EDBBAB"/>
<path d="M166.025 53.5339C172.828 7.33601 58.4229 32.0134 58.4229 32.0134C58.4229 32.0134 97.8179 41.7955 89.5921 42.7737C64.3366 45.8861 53.9766 62.4711 53.9766 62.4711C53.9766 62.4711 94.4831 55.1346 87.3244 59.4921C69.1832 70.5636 58.4229 89.8164 58.4229 89.8164C58.4229 89.8164 104.932 64.5165 95.9504 71.4084C84.5232 80.1678 79.9434 96.3526 79.9434 96.3526C79.9434 96.3526 109.912 83.7249 117.738 81.4127C137.079 75.6769 141.392 75.3212 141.392 75.3212L133.3 96.0413L149.574 79.7231L144.549 107.602L153.487 97.1085L149.04 113.427C149.04 113.427 177.63 98.6647 179.142 75.7658C180.654 52.867 166.025 53.5339 166.025 53.5339Z" fill="#754C24"/>
<path d="M137.08 34.3698C136.102 33.7917 135.168 33.1692 134.19 32.5912C133.212 32.0132 132.233 31.5241 131.255 30.9905C129.254 29.9678 127.253 29.0786 125.208 28.2337C123.163 27.3889 121.073 26.6775 118.983 25.9661L117.427 25.477C116.893 25.2991 116.36 25.1657 115.826 24.9879C114.759 24.6766 113.692 24.3654 112.625 24.0986C108.356 22.9426 103.999 21.9643 99.597 21.1195C95.195 20.2747 90.7487 19.4744 86.2578 18.674C90.7931 18.096 95.3729 17.9626 99.9527 18.4072C104.532 18.763 109.068 19.5633 113.514 20.7194C115.737 21.3419 117.916 22.0533 120.095 22.8536C122.229 23.6984 124.363 24.6766 126.364 25.7438C128.41 26.8554 130.321 28.1004 132.144 29.5232C133.034 30.2346 133.923 30.9905 134.723 31.7909C135.124 32.191 135.568 32.5912 135.924 33.0358C136.28 33.4805 136.68 33.9251 137.08 34.3698Z" fill="#A67C52"/>
<path d="M169.851 32.8574C170.162 33.2131 170.429 33.6133 170.652 34.0135C170.874 34.4581 171.052 34.9028 171.185 35.3474C171.452 36.2811 171.63 37.2149 171.674 38.1486C171.763 40.0161 171.63 41.928 171.274 43.7955C170.918 45.6185 170.429 47.4416 169.807 49.1756C169.184 50.9542 168.428 52.6438 167.584 54.3334L165.36 51.9324C167.361 51.0876 169.496 50.5096 171.63 50.2428C172.163 50.1538 172.697 50.1094 173.23 50.0649C173.764 50.0205 174.298 50.0205 174.831 49.976C175.898 49.976 176.965 49.976 178.033 50.0649C180.122 50.2428 182.212 50.6429 184.213 51.1765C185.236 51.4433 186.214 51.799 187.192 52.1547C188.17 52.5104 189.104 52.9551 190.038 53.4442C187.992 53.1329 185.992 52.9551 183.946 52.8217C181.945 52.6883 179.945 52.6438 177.988 52.7327C176.032 52.8217 174.12 53.044 172.208 53.3997C170.34 53.7554 168.517 54.3334 166.783 55.0449L162.426 56.8679L164.516 52.5994C165.271 51.0876 166.027 49.4424 166.694 47.8417C167.361 46.241 168.028 44.5959 168.562 42.9507C169.14 41.3055 169.584 39.6604 169.896 37.9263C170.296 36.3701 170.251 34.5915 169.851 32.8574Z" fill="#A67C52"/>
<path d="M110.049 40.24C107.026 40.5958 104.002 41.1293 101.067 41.7963C98.1328 42.4188 95.2427 43.1747 92.3081 43.9305C89.3734 44.6864 86.4388 45.3978 83.5042 46.1537C80.5696 46.9096 77.5461 47.5321 74.4336 48.0212C77.0125 46.2427 79.7693 44.7309 82.6149 43.5304C85.4606 42.3298 88.4397 41.3072 91.4632 40.5513C94.4868 39.7509 97.5993 39.3063 100.756 39.1284C102.312 39.0395 103.913 39.084 105.469 39.2618C106.981 39.3508 108.537 39.7065 110.049 40.24Z" fill="#A67C52"/>
<path d="M137.172 62.4707C135.616 63.0932 134.193 63.938 132.859 64.9162C131.526 65.8944 130.281 66.9171 129.08 67.9842C126.634 70.1629 124.322 72.4751 121.966 74.8316L114.985 81.9014C112.628 84.258 110.227 86.6146 107.648 88.8377C109.116 85.7697 110.85 82.8351 112.895 80.1228C114.896 77.3661 117.119 74.7872 119.476 72.3861C121.877 69.9406 124.545 67.7174 127.39 65.85C128.858 64.8718 130.414 64.0714 132.015 63.4489C132.815 63.1377 133.66 62.8709 134.549 62.693C134.994 62.6041 135.394 62.5596 135.838 62.5152C136.328 62.4707 136.728 62.4707 137.172 62.4707Z" fill="#A67C52"/>
<path d="M94.8438 130.678C99.3791 136.636 111.295 133.523 114.675 131.789L94.8438 130.678Z" fill="#FFD9CC"/>
<path d="M94.8438 130.678C96.1332 131.789 97.6894 132.545 99.3791 132.901C101.024 133.257 102.714 133.39 104.403 133.301C106.138 133.212 107.827 133.079 109.517 132.812C110.362 132.679 111.251 132.545 112.096 132.367C112.941 132.19 113.83 132.012 114.675 131.789C113.207 132.812 111.518 133.612 109.784 134.101C108.05 134.635 106.226 134.946 104.403 134.991C102.536 135.08 100.713 134.813 98.9344 134.19C98.0451 133.879 97.2448 133.39 96.4889 132.812C95.8664 132.19 95.2884 131.478 94.8438 130.678Z" fill="#E0A08B"/>
<path d="M124.41 163.715C124.41 164.204 122.809 166.605 121.564 167.494C121.298 167.717 120.986 167.85 120.631 167.805C119.519 167.539 117.741 163.537 118.363 163.048C119.341 162.292 121.431 162.47 122.898 162.87C123.788 163.181 124.41 163.492 124.41 163.715Z" fill="#666666"/>
<path d="M124.408 163.714C124.408 164.204 122.807 166.605 121.562 167.494C122.141 166.293 122.896 164.515 122.896 162.914C123.786 163.181 124.408 163.492 124.408 163.714Z" fill="#4D4D4D"/>
<path d="M117.607 158.158C116.985 162.071 115.917 205.646 115.917 205.646C115.917 205.646 108.181 162.782 110.893 160.292C113.605 157.802 117.607 158.158 117.607 158.158Z" fill="#054E68"/>
<path d="M56.6455 169.406C56.6455 169.406 56.5566 173.141 57.1346 173.764C57.7127 174.386 61.581 173.675 61.8478 172.963C62.1146 172.252 62.3814 167.806 62.3814 167.806L58.9132 166.561L57.0902 167.405L56.6455 169.406Z" fill="#EDBBAB"/>
<path d="M45.3516 157.045L49.5756 158.735L49.709 158.823L56.4675 165.004L67.1388 174.742C67.5835 175.142 67.6279 175.809 67.2278 176.253L66.7831 176.742C66.3829 177.187 65.6715 177.276 65.2269 176.876L55.1336 167.761L47.8415 161.091L47.6637 160.958L45.3516 157.045Z" fill="#ED1E79"/>
<path d="M45.3516 157.045L46.8633 157.667L49.5756 158.779L49.709 158.868C48.9531 159.446 48.3306 160.246 47.886 161.091L47.7081 160.958L46.2408 158.512L45.3516 157.045Z" fill="#C69C6D"/>
<path d="M45.3516 157.045L46.8633 157.667C46.641 157.934 46.4187 158.201 46.2408 158.512L45.3516 157.045Z" fill="#4D4D4D"/>
<path d="M62.7359 179.455C61.1797 178.477 58.2451 176.387 56.7778 174.164C55.1326 171.63 54.9992 168.962 55.1326 168.295C55.5328 166.339 58.0672 171.541 61.0018 172.163C65.2704 173.053 64.6923 174.965 64.3366 176.743C64.1143 177.81 63.5807 178.788 62.7359 179.455Z" fill="#FFD9CC"/>
<path d="M68.5637 177.188C68.5637 177.188 67.0075 168.74 65.718 167.85C64.4286 166.961 55.4914 161.67 55.1356 162.115C54.4687 162.959 55.5803 165.049 57.5367 166.339C58.7372 167.095 60.249 167.45 60.5158 168.784C60.827 170.474 59.5376 172.43 59.9822 174.52C60.8715 179.011 66.385 182.257 66.385 182.257L68.5637 177.188Z" fill="#FFD9CC"/>
<path d="M69.4093 173.941C69.1869 174.608 62.1172 181.456 62.1172 181.456L66.1189 185.235L73.0553 178.877L69.4093 173.941Z" fill="#B8F0FF"/>
<path d="M65.4933 181.99C65.9598 181.99 66.3381 181.612 66.3381 181.146C66.3381 180.679 65.9598 180.301 65.4933 180.301C65.0267 180.301 64.6484 180.679 64.6484 181.146C64.6484 181.612 65.0267 181.99 65.4933 181.99Z" fill="#03384F"/>
<path d="M90.705 201.999C85.0136 201.999 78.6998 196.753 75.8986 194.441C72.297 191.417 68.8733 188.171 65.6719 184.748L73.0084 177.989C73.0529 178.033 76.4766 181.724 80.6117 185.37C86.0808 190.172 88.9709 191.506 90.0825 191.906C94.6178 187.015 100.398 174.165 103.11 166.873L104.4 167.362C108.713 168.963 110.936 173.765 109.335 178.122C109.291 178.256 109.202 178.434 109.157 178.567C106.045 185.681 101.154 195.419 96.1741 199.999C94.6623 201.288 92.7059 202.044 90.705 201.999Z" fill="#03384F"/>
<path d="M155.935 229.477C155.935 229.344 153.889 216.005 150.732 201.954C144.863 175.943 140.595 172.074 140.105 171.719L147.131 162.604C150.777 165.405 155.757 172.163 161.937 199.508C165.183 213.959 167.184 227.209 167.273 227.787L155.935 229.477Z" fill="#03384F"/>
<g clip-path="url(#clip1_3501_17664)">
<rect width="204" height="204" rx="99" fill="white"/>
<path d="M239.403 -13.9727H-13.9727V218.461H239.403V-13.9727Z" fill="#8EB9E3"/>
<path d="M63.6835 217.76C62.8839 217.766 62.0918 217.604 61.3583 217.286C60.6248 216.967 59.9663 216.498 59.425 215.91C58.8925 215.349 58.4758 214.688 58.1989 213.966C57.9219 213.244 57.79 212.474 57.8107 211.701C57.8314 210.927 58.0044 210.166 58.3197 209.459C58.635 208.753 59.0865 208.116 59.6483 207.584L73.2693 194.745L80.3988 161.745C80.529 160.958 80.8174 160.205 81.2466 159.533C81.6759 158.86 82.237 158.282 82.8962 157.832C83.5553 157.383 84.2987 157.072 85.0815 156.917C85.8643 156.763 86.6701 156.77 87.4504 156.936C88.2307 157.102 88.9692 157.425 89.6213 157.884C90.2733 158.344 90.8254 158.931 91.2442 159.61C91.6629 160.289 91.9396 161.046 92.0576 161.835C92.1755 162.624 92.1322 163.429 91.9304 164.201L83.9555 200.773L67.7028 216.149C66.6097 217.165 65.1756 217.734 63.6835 217.744" fill="#002E46"/>
<path d="M130.872 251.286L108.543 257.299L104.747 258.32L102.338 243.088L101.03 257.347L98.654 256.326L87.2181 251.43L81.3008 160.517C84.7402 157.824 88.431 155.468 92.322 153.483C93.598 152.824 94.9077 152.233 96.2456 151.712C97.1388 151.393 98.0639 151.074 98.9411 150.835C99.5312 150.66 100.089 150.564 100.696 150.42C100.926 150.365 101.161 150.333 101.397 150.325C102.252 150.196 103.118 150.153 103.981 150.197H104.173C106.398 150.294 108.611 150.572 110.792 151.026C112.526 151.382 114.24 151.829 115.927 152.366C120.724 153.87 125.279 156.056 129.453 158.858L126.901 212.417L130.872 251.286Z" fill="#DEF2FC"/>
<path d="M108.555 257.346L104.759 258.367L102.351 243.135L101.043 257.394L98.6504 256.374C101.107 243.359 100.134 182.718 100.245 158.586C100.245 156.88 101.84 156.13 101.84 158.682C101.84 184.01 102.064 250.408 108.459 257.346" fill="#BDE6F6"/>
<path d="M101.557 159.24L93.8691 153.179C94.963 152.542 96.0919 151.967 97.2505 151.457C97.961 154.391 99.4486 157.079 101.557 159.24Z" fill="#4D4D4E"/>
<path d="M115.909 151.68L101.65 159.655L100.246 158.363C104.465 155.928 108.384 153.005 111.921 149.655C113.165 148.267 114.282 151.09 115.893 151.601" fill="#4D4D4E"/>
<path d="M136.932 255.177L131.19 257.203C129.388 257.857 127.633 258.463 126.836 258.686C121.878 259.882 116.856 260.798 111.795 261.43C108.016 234.747 106.591 207.784 107.537 180.852C107.952 172.335 111.652 149.878 111.652 149.878L128.734 154.982C130.014 155.358 131.123 156.169 131.868 157.276C132.614 158.383 132.949 159.715 132.817 161.042C132.817 161.601 132.721 162.207 132.626 162.893C131.429 175.445 128.925 202.336 129.149 210.263V210.997C129.124 211.134 129.124 211.274 129.149 211.411C129.85 220.87 135.528 248.925 136.661 254.332C136.696 254.618 136.755 254.901 136.836 255.177C136.836 255.177 136.932 255.177 136.836 255.177" fill="#01384F"/>
<path d="M136.931 255.129L131.189 257.155C129.594 247.394 126.978 229.482 126.276 219.051C125.319 204.154 126.755 175.764 132.656 162.797C131.46 175.349 128.956 202.256 129.179 210.167V210.901C129.156 211.043 129.156 211.189 129.179 211.331C129.833 219.609 134.554 243.55 136.691 254.252C136.729 254.532 136.787 254.81 136.867 255.081L136.931 255.129Z" fill="#002E46"/>
<path d="M115.814 173.036L114.889 177.008L124.474 178.076L123.549 175.062L115.814 173.036Z" fill="white"/>
<path d="M114.01 175.716L113.5 178.731L125.446 180.214L125.255 177.008L114.569 175.764L114.01 175.716Z" fill="#002E46"/>
<path d="M111.89 148.491C115.957 149.655 120.502 150.341 119.577 152.526C111.698 170.804 107.487 206.755 107.487 206.755C106.366 195.397 106.302 183.96 107.296 172.591C108.415 164.484 109.948 156.44 111.89 148.491Z" fill="#094F63"/>
<path d="M96.6885 151.68C94.0568 166.354 95.7156 262.435 95.7156 262.435C95.7156 262.435 81.8872 259.005 82.2541 255.209C84.1999 235.799 85.8587 215.335 85.444 213.118C85.0772 211.364 81.4247 176.625 80.1168 164.264C79.9954 163.005 80.258 161.738 80.8701 160.631C81.4821 159.524 82.415 158.627 83.546 158.06L96.6885 151.68Z" fill="#01384F"/>
<path d="M104.665 205.575L100.486 212.018L100.438 211.875L97.9023 205.575L99.9758 160.533L101.507 161.123L102.384 161.506L104.665 205.575Z" fill="#4D4D4E"/>
<path d="M104.663 205.59L100.484 211.97V211.874C101.702 209.83 102.692 207.659 103.435 205.398C103.802 203.277 103.116 169.751 101.489 161.186L102.382 161.553L104.663 205.59Z" fill="#40403F"/>
<path d="M97.2474 151.234C96.5137 155.62 95.3015 204.936 95.3015 204.936C95.3015 204.936 86.5611 156.466 89.6075 153.642C91.7685 151.922 94.4905 151.064 97.2474 151.234Z" fill="#064F68"/>
<path d="M90.5331 185.03C88.6351 188.539 84.5679 188.46 84.9826 189.512C85.3973 190.565 86.5776 191.921 91.1392 190.437C95.7008 188.954 95.302 184.935 93.8346 184.664C92.7205 184.535 91.5918 184.661 90.5331 185.03Z" fill="#ECBAAB"/>
<path d="M105.542 191.969C104.582 189.932 103.141 188.16 101.343 186.804C99.5453 185.448 97.445 184.549 95.2229 184.185C90.9165 183.452 80.2143 183.212 80.7247 185.541C81.4584 188.954 90.0712 185.764 90.2945 189.098C90.5178 192.431 97.6153 195.86 100.981 196.419C104.346 196.977 106.643 194.186 105.526 191.969" fill="#FDD9CC"/>
<path d="M88.4106 192.113C88.1652 192.11 87.9244 192.045 87.712 191.922C87.4995 191.799 87.3226 191.623 87.1985 191.411C87.0221 191.085 86.9817 190.702 87.0863 190.347C87.1909 189.991 87.4319 189.691 87.7567 189.513L95.2211 185.398C95.3833 185.291 95.5657 185.22 95.7569 185.187C95.9481 185.155 96.144 185.163 96.3321 185.21C96.5202 185.257 96.6965 185.342 96.8498 185.461C97.0032 185.58 97.1304 185.729 97.2232 185.899C97.3161 186.069 97.3726 186.257 97.3894 186.45C97.4061 186.643 97.3826 186.838 97.3204 187.022C97.2581 187.205 97.1585 187.374 97.0278 187.517C96.8971 187.661 96.7381 187.775 96.5609 187.854L89.0805 191.969C88.8611 192.053 88.6295 192.102 88.3947 192.113" fill="#FDD9CC"/>
<path d="M90.3095 193.819C90.0022 193.822 89.703 193.721 89.4597 193.533C89.2163 193.346 89.0431 193.082 88.9677 192.784C88.8923 192.486 88.9191 192.171 89.0439 191.891C89.1686 191.61 89.384 191.379 89.6556 191.235L97.6304 186.785C97.9549 186.62 98.3309 186.588 98.6789 186.694C99.0269 186.801 99.3199 187.039 99.4958 187.358C99.6717 187.677 99.7169 188.051 99.6218 188.403C99.5267 188.754 99.2988 189.055 98.9861 189.241L91.0113 193.691C90.7915 193.772 90.5596 193.815 90.3255 193.819" fill="#FDD9CC"/>
<path d="M92.942 194.983C92.6584 194.978 92.3832 194.886 92.1525 194.721C91.9219 194.556 91.7467 194.325 91.6501 194.058C91.5841 193.885 91.5532 193.701 91.5594 193.517C91.5655 193.332 91.6084 193.15 91.6857 192.982C91.7629 192.815 91.8729 192.664 92.0092 192.539C92.1456 192.414 92.3054 192.318 92.4795 192.256L101.332 189.066C101.505 189.002 101.69 188.973 101.875 188.98C102.06 188.988 102.242 189.032 102.41 189.11C102.578 189.187 102.729 189.297 102.855 189.434C102.98 189.57 103.078 189.729 103.142 189.903C103.206 190.077 103.235 190.262 103.227 190.447C103.22 190.632 103.176 190.814 103.098 190.982C103.02 191.15 102.91 191.301 102.774 191.427C102.638 191.552 102.478 191.65 102.304 191.713L93.4524 194.903C93.2867 194.955 93.1153 194.988 92.942 194.999" fill="#FDD9CC"/>
<path d="M104.33 186.769C104.33 187.567 98.9707 197.28 98.9707 197.28L104.521 200.055L109.896 190.9L104.33 186.769Z" fill="#BDE6F6"/>
<path d="M133.548 209.291C128.009 209.077 122.525 208.111 117.247 206.42C112.372 204.991 107.579 203.293 102.893 201.332L108.22 188.684C112.341 190.38 116.547 191.865 120.82 193.134C124.457 194.277 128.196 195.068 131.985 195.494C131.205 191.625 130.193 187.806 128.954 184.058C126.259 175.669 122.925 168.443 119.831 164.328L130.804 156.083C136.498 163.675 140.486 174.887 142.336 180.948C143.772 185.589 147.009 196.977 145.845 202.209C145.622 203.308 145.171 204.347 144.519 205.26C143.868 206.172 143.032 206.937 142.065 207.504C139.419 208.801 136.492 209.42 133.548 209.306" fill="#01384F"/>
<path d="M46.2244 171.793L74.9338 165.588C75.2552 165.504 75.5963 165.543 75.891 165.696C76.1858 165.849 76.413 166.106 76.5288 166.418L95.461 215.718C95.5399 215.924 95.5667 216.147 95.539 216.366C95.5112 216.585 95.4298 216.793 95.302 216.973C95.1741 217.153 95.0038 217.299 94.8062 217.397C94.6086 217.495 94.3897 217.543 94.1691 217.536L67.4056 216.787C67.1617 216.788 66.9224 216.72 66.716 216.59C66.5097 216.46 66.3449 216.274 66.2413 216.053L45.2515 173.691C45.1746 173.503 45.1392 173.301 45.1477 173.099C45.1563 172.896 45.2086 172.698 45.301 172.518C45.3935 172.337 45.5239 172.179 45.6833 172.054C45.8427 171.929 46.0273 171.84 46.2244 171.793Z" fill="#666766"/>
<path d="M93.3564 218.174L83.1805 217.903L79.1931 217.807L66.6088 217.44C66.3636 217.439 66.1239 217.367 65.9177 217.235C65.7115 217.102 65.5474 216.913 65.4445 216.691L44.4228 174.328C44.3336 174.145 44.2872 173.945 44.2871 173.741C44.2871 173.538 44.3334 173.337 44.4225 173.154C44.5117 172.971 44.6414 172.811 44.8017 172.685C44.9621 172.56 45.1489 172.473 45.3479 172.43L74.0573 166.226C74.3784 166.149 74.7166 166.191 75.0096 166.343C75.3026 166.495 75.5308 166.748 75.6522 167.055L83.1964 186.641L84.584 190.214L94.6802 216.372C94.7563 216.578 94.7804 216.8 94.7503 217.018C94.7202 217.237 94.6368 217.444 94.5075 217.622C94.3782 217.8 94.207 217.944 94.009 218.04C93.811 218.136 93.5923 218.182 93.3723 218.174" fill="#808080"/>
<path d="M50.2733 174.01C50.9831 173.655 51.7825 173.52 52.5693 173.623C53.3561 173.725 54.0945 174.06 54.6901 174.584C55.2856 175.108 55.7111 175.798 55.9123 176.566C56.1134 177.333 56.081 178.143 55.8192 178.892C55.5574 179.641 55.0781 180.295 54.4426 180.77C53.8071 181.245 53.0444 181.52 52.2519 181.559C51.4594 181.598 50.6733 181.4 49.9941 180.99C49.3148 180.58 48.7734 179.977 48.4391 179.257C48.214 178.792 48.0829 178.288 48.0533 177.772C48.0237 177.256 48.0962 176.74 48.2666 176.253C48.437 175.765 48.702 175.316 49.0464 174.931C49.3907 174.546 49.8076 174.233 50.2733 174.01Z" fill="black"/>
<path d="M50.8028 175.445C51.2386 175.217 51.7327 175.126 52.2212 175.182C52.7096 175.238 53.1699 175.44 53.5426 175.761C53.9152 176.081 54.1829 176.507 54.3112 176.981C54.4394 177.456 54.4223 177.958 54.2619 178.423C54.1015 178.888 53.8054 179.294 53.4117 179.589C53.0181 179.883 52.545 180.053 52.0539 180.076C51.5627 180.098 51.076 179.973 50.6567 179.716C50.2375 179.46 49.905 179.083 49.7022 178.635C49.4312 178.065 49.3946 177.411 49.6004 176.815C49.8062 176.218 50.238 175.726 50.8028 175.445Z" fill="#4D4D4E"/>
<path d="M51.1361 176.673C51.4243 176.541 51.7526 176.528 52.0507 176.635C52.3488 176.742 52.593 176.962 52.7311 177.247C52.8587 177.536 52.8702 177.863 52.7633 178.16C52.6564 178.457 52.4393 178.701 52.1569 178.842C51.8711 178.954 51.5534 178.954 51.268 178.841C50.9825 178.728 50.7506 178.511 50.619 178.233C50.4874 177.956 50.4659 177.639 50.5589 177.346C50.652 177.054 50.8526 176.807 51.1202 176.657" fill="black"/>
<path d="M55.174 176.131H55.0305H55.174C55.3795 176.556 55.4968 177.019 55.5187 177.49C55.5407 177.962 55.4668 178.433 55.3016 178.875C54.9802 179.755 54.3357 180.479 53.4993 180.9C53.0825 181.097 52.63 181.207 52.1694 181.224C51.7087 181.24 51.2495 181.163 50.8198 180.996C49.9363 180.668 49.2193 180.002 48.8261 179.146C48.4091 178.299 48.3426 177.322 48.6412 176.426C48.9397 175.53 49.5792 174.788 50.421 174.361L50.6603 174.265C51.4988 173.959 52.422 173.979 53.2464 174.322C54.0707 174.665 54.7361 175.305 55.1102 176.115M53.292 180.565C53.6658 180.388 53.9998 180.137 54.2739 179.828C54.548 179.518 54.7566 179.156 54.8869 178.763C55.1602 177.941 55.1089 177.045 54.7434 176.259C54.6018 175.832 54.3714 175.439 54.0672 175.107C53.763 174.775 53.392 174.511 52.9785 174.333C52.565 174.154 52.1185 174.065 51.6682 174.072C51.218 174.079 50.7742 174.181 50.3661 174.371C49.9581 174.561 49.595 174.836 49.3007 175.177C49.0064 175.518 48.7876 175.917 48.6587 176.349C48.5298 176.78 48.4937 177.234 48.5528 177.68C48.6119 178.127 48.7648 178.555 49.0015 178.939C49.3662 179.718 50.0091 180.332 50.8038 180.661C51.5238 180.93 52.3168 180.93 53.0368 180.661C53.1193 180.653 53.1974 180.62 53.2601 180.565" fill="#CCCCCB"/>
<path d="M84.5655 190.199L83.1778 217.903L79.2383 217.807L83.1778 186.642L84.5655 190.199Z" fill="#999999"/>
<path d="M102.528 194.84C102.786 194.84 103.033 194.942 103.216 195.125C103.398 195.307 103.501 195.555 103.501 195.813C103.501 196.071 103.398 196.318 103.216 196.501C103.033 196.683 102.786 196.786 102.528 196.786C102.27 196.786 102.022 196.683 101.84 196.501C101.657 196.318 101.555 196.071 101.555 195.813C101.555 195.555 101.657 195.307 101.84 195.125C102.022 194.942 102.27 194.84 102.528 194.84Z" fill="#01384F"/>
<path d="M110.308 151.233L113.132 144.279C113.132 144.279 102.988 144.981 101.137 145.252C99.2873 145.523 95.252 145.667 95.6348 145.906C96.0176 146.145 103.275 153.594 103.275 153.594L110.308 151.233Z" fill="#64A2BF"/>
<path d="M104.661 151.234H103.784C103.269 151.23 102.776 151.023 102.412 150.659C102.048 150.295 101.842 149.803 101.838 149.288V144.056H106.623V149.288C106.625 149.544 106.576 149.798 106.479 150.035C106.382 150.272 106.239 150.487 106.058 150.669C105.876 150.85 105.661 150.993 105.424 151.09C105.187 151.187 104.933 151.236 104.677 151.234" fill="#ECBAAB"/>
<path d="M113.137 144.279L111.048 151.6L100.362 158.586L97.8098 153.498L95.6406 145.89L100.681 148.538L101.845 150.165L103.36 148.586L113.137 144.279Z" fill="#C7DFE8"/>
<path d="M63.2266 79.508C63.2266 109.653 76.9752 142.94 102.893 142.94C106.275 142.94 110.071 138.442 112.208 139.654C113.803 140.531 114.249 147.055 114.249 147.055C117.636 145.033 120.603 142.38 122.99 139.239C123.692 138.171 123.915 146.831 124.888 146.002C126.1 144.886 131.842 133.45 132.99 132.238C134.139 131.025 131.746 145.3 132.719 144.136C142.576 132.333 160.408 105.857 157.17 82.5703C152.991 52.7923 128.955 33.8601 102.941 33.8601C76.9273 33.8601 63.2266 49.3632 63.2266 79.508Z" fill="#5F3917"/>
<path d="M88.5557 54.2753C59.5593 67.9282 72.2552 91.0711 60.9469 103.576C52.7647 112.651 58.1238 130.945 77.072 140.627C81.1263 142.759 85.528 144.153 90.071 144.742C108.222 147.613 126.42 139.957 134.57 126.081C145.225 107.85 139.754 60.8465 111.603 51.819C107.812 50.542 103.789 50.1004 99.8105 50.5244C95.8323 50.9483 91.9929 52.2279 88.5557 54.2753Z" fill="#FDD9CC"/>
<path d="M113.69 90.1146C113.38 90.1276 113.073 90.044 112.813 89.8753C112.717 89.8753 104.838 85.8082 97.1184 88.5834C96.6576 88.7294 96.1583 88.6925 95.724 88.4803C95.2897 88.2682 94.9537 87.8971 94.7855 87.4439C94.6174 86.9908 94.63 86.4903 94.8209 86.0462C95.0117 85.6021 95.366 85.2485 95.8105 85.0585C105.077 81.7251 114.153 86.4143 114.519 86.6535C114.959 86.8904 115.288 87.2912 115.435 87.7689C115.581 88.2467 115.533 88.7629 115.301 89.2055C115.16 89.5064 114.934 89.7592 114.65 89.9322C114.366 90.1053 114.038 90.1909 113.706 90.1784" fill="#412311"/>
<path d="M116.654 103.831C116.367 109.717 111.503 113.513 105.681 113.226C99.8595 112.938 92.9214 109.844 93.2244 103.975C93.5275 98.1053 100.673 92.4272 106.622 92.6665C109.436 92.8233 112.074 94.0836 113.965 96.1739C115.855 98.2643 116.844 101.016 116.718 103.831" fill="white"/>
<path d="M104.665 95.2019C106.305 95.2019 107.909 95.6883 109.273 96.5997C110.637 97.511 111.7 98.8063 112.327 100.322C112.955 101.837 113.119 103.505 112.799 105.114C112.479 106.723 111.689 108.2 110.53 109.36C109.37 110.52 107.892 111.31 106.283 111.63C104.674 111.95 103.007 111.786 101.491 111.158C99.9755 110.53 98.6802 109.467 97.7689 108.104C96.8575 106.74 96.3711 105.136 96.3711 103.496C96.369 102.406 96.5821 101.327 96.9982 100.319C97.4142 99.3121 98.025 98.397 98.7956 97.6264C99.5662 96.8559 100.481 96.245 101.489 95.829C102.496 95.4129 103.575 95.1998 104.665 95.2019Z" fill="#5AB9E2"/>
<path d="M102.862 98.488C104.045 98.488 105.201 98.8388 106.185 99.496C107.168 100.153 107.935 101.087 108.388 102.18C108.84 103.273 108.959 104.476 108.728 105.636C108.497 106.796 107.928 107.862 107.091 108.698C106.255 109.535 105.189 110.105 104.029 110.335C102.869 110.566 101.666 110.448 100.573 109.995C99.4802 109.542 98.5461 108.776 97.8889 107.792C97.2316 106.808 96.8809 105.652 96.8809 104.469C96.8809 102.883 97.511 101.362 98.6327 100.24C99.7544 99.1182 101.276 98.488 102.862 98.488Z" fill="#2C170E"/>
<path d="M115.859 106.782C116.054 105.731 116.134 104.661 116.099 103.592C116.052 102.587 115.864 101.594 115.54 100.641C115.216 99.7131 114.73 98.8493 114.105 98.0896C113.786 97.7141 113.445 97.3573 113.084 97.0209C112.719 96.6914 112.336 96.3826 111.936 96.0958C110.24 94.9724 108.327 94.2172 106.322 93.8788C104.232 93.5842 102.103 93.8032 100.117 94.5168C101 93.8259 102.007 93.3115 103.084 93.0016C104.179 92.6615 105.319 92.4895 106.465 92.4912C107.053 92.507 107.64 92.5656 108.22 92.6667C108.762 92.7692 109.295 92.9131 109.815 93.0973C110.366 93.2581 110.9 93.4718 111.41 93.7353L111.792 93.9267C111.918 93.9839 112.04 94.0478 112.159 94.1181C112.42 94.2383 112.666 94.3882 112.893 94.5647C113.395 94.8921 113.865 95.2659 114.296 95.6812C114.732 96.0939 115.132 96.542 115.493 97.0209C116.187 97.9735 116.675 99.0597 116.928 100.211C117.159 101.353 117.159 102.53 116.928 103.672C116.719 104.767 116.326 105.819 115.764 106.782" fill="#412311"/>
<g opacity="0.5">
<path d="M109.062 96.8291C109.741 96.8291 110.405 97.0307 110.969 97.4082C111.533 97.7857 111.973 98.3222 112.232 98.9497C112.491 99.5773 112.558 100.268 112.424 100.933C112.29 101.599 111.962 102.21 111.481 102.689C111 103.168 110.387 103.493 109.721 103.624C109.055 103.754 108.365 103.684 107.739 103.422C107.112 103.16 106.578 102.718 106.203 102.152C105.828 101.586 105.63 100.921 105.633 100.242C105.633 99.7928 105.722 99.3476 105.894 98.9325C106.067 98.5173 106.32 98.1403 106.638 97.8232C106.957 97.506 107.335 97.255 107.751 97.0844C108.167 96.9138 108.612 96.827 109.062 96.8291Z" fill="white"/>
</g>
<path d="M67.1499 88.6792C66.8304 88.6861 66.5148 88.6086 66.2348 88.4546C65.9548 88.3006 65.7203 88.0755 65.555 87.802C65.4226 87.5927 65.3329 87.3593 65.2909 87.1152C65.2489 86.8711 65.2555 86.6211 65.3104 86.3796C65.3652 86.1381 65.4671 85.9098 65.6104 85.7077C65.7536 85.5057 65.9353 85.3339 66.1451 85.2022C72.3974 81.3105 80.1329 83.3042 80.4998 83.3999C80.9778 83.531 81.3841 83.8467 81.6294 84.2774C81.8747 84.7081 81.9388 85.2187 81.8076 85.6967C81.6765 86.1747 81.3609 86.581 80.9301 86.8263C80.4994 87.0715 79.9889 87.1357 79.5109 87.0045C79.5109 87.0045 73.0353 85.4096 68.1707 88.3921C67.8425 88.5717 67.4761 88.6702 67.1021 88.6792" fill="#412311"/>
<path d="M62.2091 100.163C61.9698 105.442 65.399 109.286 69.8489 109.461C74.2989 109.637 79.8015 107.42 80.0248 102.109C80.2481 96.7974 75.2399 91.1353 70.774 90.9439C66.3081 90.7525 62.4324 94.8835 62.2091 100.211" fill="white"/>
<path d="M70.5803 93.6709C72.0479 93.6678 73.4833 94.1001 74.7051 94.9131C75.9268 95.7261 76.8799 96.8833 77.4437 98.2382C78.0075 99.5932 78.1567 101.085 77.8723 102.525C77.5879 103.964 76.8828 105.287 75.8462 106.326C74.8096 107.365 73.4882 108.073 72.0491 108.36C70.6099 108.648 69.1179 108.502 67.7618 107.941C66.4056 107.38 65.2464 106.43 64.4307 105.21C63.6151 103.99 63.1797 102.555 63.1797 101.087C63.1797 99.1233 63.9589 97.2392 65.3463 95.8488C66.7337 94.4584 68.6161 93.6751 70.5803 93.6709Z" fill="#5AB9E2"/>
<path d="M69.0476 96.4466C70.1208 96.4434 71.1708 96.7588 72.0647 97.3527C72.9586 97.9467 73.6561 98.7925 74.069 99.7831C74.4819 100.774 74.5916 101.865 74.3841 102.918C74.1767 103.971 73.6615 104.938 72.9037 105.698C72.1459 106.458 71.1797 106.976 70.1273 107.187C69.075 107.397 67.9838 107.291 66.992 106.881C66.0001 106.471 65.1523 105.776 64.5557 104.884C63.9591 103.992 63.6406 102.943 63.6406 101.869C63.6406 100.434 64.2098 99.057 65.2233 98.0405C66.2368 97.024 67.6121 96.4508 69.0476 96.4466Z" fill="#2C170E"/>
<path d="M61.964 101.088C61.8688 100.304 61.8688 99.5112 61.964 98.7273C62.0084 97.9228 62.1641 97.1284 62.4265 96.3667C62.6712 95.574 63.0313 94.8216 63.4951 94.1338C63.9332 93.4366 64.4954 92.8257 65.1539 92.3315C65.8352 91.8369 66.5883 91.4496 67.3868 91.1831C68.1775 90.9033 69.0052 90.7421 69.8431 90.7046C70.6625 90.6848 71.4786 90.8146 72.2515 91.0874C73.024 91.3114 73.7448 91.6853 74.3728 92.1879C72.9611 91.648 71.4362 91.4725 69.9388 91.6775C68.5002 91.8604 67.1328 92.4096 65.9673 93.2725C64.829 94.1815 63.9354 95.3601 63.3675 96.7017C62.7061 98.0653 62.239 99.5148 61.9799 101.008" fill="#412311"/>
<g opacity="0.5">
<path d="M73.6011 94.6433C74.2604 94.6433 74.9048 94.8388 75.453 95.2051C76.0012 95.5714 76.4285 96.092 76.6808 96.7011C76.9331 97.3102 76.9991 97.9805 76.8705 98.6271C76.7419 99.2737 76.4244 99.8677 75.9582 100.334C75.492 100.8 74.898 101.118 74.2514 101.246C73.6048 101.375 72.9345 101.309 72.3254 101.057C71.7163 100.804 71.1957 100.377 70.8294 99.8288C70.4631 99.2806 70.2676 98.6361 70.2676 97.9768C70.2718 97.094 70.6243 96.2485 71.2486 95.6243C71.8728 95.0001 72.7183 94.6475 73.6011 94.6433Z" fill="white"/>
</g>
<path d="M84.3762 103.082C82.7812 109.047 75.6836 111.184 75.6836 111.184C75.7593 112.61 76.2388 113.985 77.0662 115.148C77.8937 116.312 79.0349 117.216 80.3568 117.755" fill="#FDD9CC"/>
<path d="M84.376 103.082C84.2619 104.138 83.9306 105.159 83.4031 106.08C82.8854 107.027 82.2175 107.884 81.4253 108.616C81.0304 109.001 80.6094 109.358 80.1653 109.685C79.7506 110.004 79.2881 110.275 78.8255 110.562C78.3621 110.835 77.8828 111.08 77.3901 111.296L76.6564 111.631C76.5388 111.677 76.4266 111.736 76.3214 111.806C76.1868 111.864 76.0483 111.912 75.9068 111.95L76.465 111.216C76.4416 111.508 76.4416 111.801 76.465 112.093C76.5075 112.39 76.5715 112.683 76.6564 112.971C76.8438 113.593 77.1234 114.185 77.4858 114.725C77.8594 115.287 78.2753 115.821 78.7298 116.32C78.9555 116.588 79.2065 116.834 79.4795 117.054C79.7409 117.29 80.018 117.509 80.3089 117.708C79.9408 117.663 79.581 117.566 79.2402 117.421C78.888 117.282 78.5468 117.116 78.2195 116.926C77.5925 116.502 77.0053 116.021 76.465 115.491C75.9447 114.898 75.5245 114.225 75.2209 113.497C75.0613 113.124 74.9488 112.733 74.886 112.333C74.8084 111.939 74.7763 111.537 74.7903 111.136C74.8013 110.971 74.8598 110.812 74.9589 110.679C75.0579 110.546 75.1932 110.445 75.3485 110.387C75.57 110.342 75.7884 110.284 76.0025 110.211L76.6883 109.924C77.1508 109.749 77.5815 109.509 78.044 109.286C78.9186 108.829 79.7512 108.295 80.5322 107.691C80.95 107.423 81.3262 107.096 81.6486 106.718C82.013 106.386 82.354 106.029 82.6694 105.65C82.9885 105.271 83.2815 104.872 83.5466 104.453L83.738 104.119L83.9135 103.8C84.1051 103.599 84.2614 103.367 84.376 103.114" fill="#ECBAAB"/>
<path d="M130.965 122.285C112.719 108.122 147.441 91.2632 149.244 103.146C151.046 115.028 136.277 126.528 130.965 122.285Z" fill="#FDD9CC"/>
<path d="M131.748 113.401C131.679 112.364 131.923 111.331 132.449 110.434C132.921 109.538 133.494 108.697 134.156 107.93C135.51 106.406 137.086 105.095 138.829 104.039C139.751 103.475 140.776 103.101 141.844 102.938C142.152 102.913 142.461 102.913 142.769 102.938C143.155 102.979 143.524 103.123 143.838 103.353C144.008 103.474 144.15 103.632 144.252 103.815L144.475 104.278C144.599 104.556 144.68 104.852 144.715 105.155C144.783 106.301 144.438 107.433 143.742 108.345C143.149 109.163 142.427 109.88 141.605 110.466C142.152 109.675 142.607 108.825 142.96 107.93C143.309 107.145 143.431 106.277 143.311 105.426C143.215 105.235 143.215 105.059 143.12 104.916C143.024 104.772 143.024 104.724 142.976 104.724C142.928 104.724 142.976 104.724 142.976 104.724C142.715 104.657 142.44 104.657 142.179 104.724C141.332 104.951 140.522 105.294 139.77 105.745C138.143 106.691 136.61 107.791 135.193 109.031C134.491 109.685 133.805 110.339 133.199 111.024C132.609 111.8 132.141 112.66 131.811 113.576" fill="#ECBAAB"/>
<path d="M144.156 50.3839C150.631 6.39478 41.6951 29.8727 41.6951 29.8727C41.6951 29.8727 79.1927 39.1872 71.3774 40.1602C47.3413 43.1109 37.4844 58.901 37.4844 58.901C37.4844 58.901 76.0506 51.9151 69.2401 56.0779C51.9667 66.5887 41.6951 84.9787 41.6951 84.9787C41.6951 84.9787 86.0032 60.8947 77.3904 67.4341C66.5127 75.7757 62.1585 91.1831 62.1585 91.1831C62.1585 91.1831 90.6764 79.2368 98.1249 77.0039C116.563 71.5491 120.63 71.2141 120.63 71.2141L112.894 91.0714L128.413 75.5205L123.628 102.045L132.146 91.9646L127.935 107.516C127.935 107.516 155.161 93.4479 156.644 71.6288C158.127 49.8097 144.188 50.3839 144.188 50.3839" fill="#754D25"/>
<path d="M116.562 32.1374C114.764 30.9779 112.906 29.9132 110.996 28.9475C109.098 27.9746 107.2 27.0973 105.27 26.3158C103.34 25.5343 101.331 24.8325 99.3368 24.1307L97.8535 23.6682L96.2585 23.2056L95.5249 22.9823L94.7752 22.7431L93.1803 22.3284C89.0971 21.2598 84.9343 20.3347 80.7714 19.5053C76.6086 18.6759 72.3819 17.9103 68.0117 17.2883C69.0668 17.1086 70.1323 16.9967 71.2016 16.9534C72.2703 16.8577 73.3867 16.8577 74.3916 16.8577C76.5607 16.8577 78.7299 16.9534 80.915 17.1448C83.1001 17.3362 85.2214 17.6073 87.3905 17.9741L88.9855 18.2453C89.5437 18.341 90.0541 18.4845 90.5805 18.5802L92.1754 18.9471L93.7704 19.3618C94.2808 19.5053 94.839 19.6489 95.3654 19.8243L96.1469 20.0635L96.9284 20.2868C97.4388 20.4782 97.9492 20.6218 98.5234 20.7972L100.118 21.3555L101.713 21.9616C101.97 22.0386 102.216 22.1457 102.447 22.2805L103.197 22.6474L103.93 22.9823C104.187 23.0787 104.433 23.2017 104.664 23.3492L106.147 24.0829C108.079 25.1254 109.924 26.3201 111.666 27.6556C113.402 29.0086 115.005 30.5255 116.451 32.1853" fill="#A67C52"/>
<path d="M147.758 30.7493C148.329 31.4387 148.743 32.2443 148.971 33.1099C149.099 33.5347 149.206 33.9659 149.29 34.4018C149.36 34.851 149.408 35.3035 149.433 35.7575C149.505 37.5434 149.365 39.3314 149.018 41.0847C148.684 42.8181 148.204 44.5202 147.583 46.1727C147.264 47.002 146.977 47.7676 146.61 48.6289L146.052 49.8251C145.86 50.2398 145.685 50.6226 145.446 51.0373L143.452 48.9C145.357 48.0775 147.372 47.5401 149.433 47.3051C151.444 47.0559 153.475 47.0132 155.494 47.1775C157.482 47.3465 159.451 47.688 161.379 48.1983C162.338 48.4488 163.281 48.7578 164.202 49.1233C165.121 49.4639 166.016 49.8635 166.882 50.3196C164.936 50.0006 163.038 49.8092 161.092 49.6656C159.197 49.5328 157.296 49.5115 155.398 49.6018C153.536 49.6592 151.681 49.8565 149.848 50.192L148.508 50.4791C148.046 50.5748 147.631 50.7024 147.168 50.8459C146.3 51.104 145.448 51.4129 144.616 51.771L140.82 53.3659L142.67 49.6018L143.229 48.4854C143.419 48.1225 143.589 47.7498 143.739 47.3689C144.058 46.6352 144.425 45.7739 144.76 45.104C145.398 43.5091 146.004 41.9938 146.562 40.4308C147.093 38.8683 147.509 37.269 147.806 35.6459C148.228 34.0194 148.228 32.3121 147.806 30.6855" fill="#A67C52"/>
<path d="M90.8198 37.7519C89.3364 37.8795 87.901 38.0708 86.4655 38.2941C85.03 38.5174 83.6424 38.8045 82.2548 39.1395C79.4317 39.7296 76.6565 40.4314 73.8653 41.1172L65.4917 43.2226C62.6686 43.9244 59.8455 44.5624 56.8789 45.0727C58.0978 44.2166 59.3832 43.4592 60.7228 42.8079C62.0147 42.1061 63.3545 41.516 64.758 40.9099C67.4716 39.7612 70.2715 38.8279 73.1316 38.1187C76.0039 37.3478 78.9497 36.8827 81.9198 36.7311C83.419 36.6462 84.9224 36.6728 86.4177 36.8108C87.9032 36.9382 89.3664 37.2544 90.7719 37.7519" fill="#A67C52"/>
<path d="M116.656 58.9014C115.186 59.4733 113.798 60.2347 112.525 61.1662C111.274 62.0766 110.071 63.0508 108.92 64.085C106.56 66.1266 104.327 68.3436 102.158 70.5765L95.4589 77.3711C93.2419 79.6519 90.9611 81.9167 88.5527 84.038C88.8877 83.3043 89.3024 82.5706 89.6692 81.8689C90.0361 81.1671 90.4986 80.4812 90.9292 79.7794C91.7666 78.4078 92.677 77.082 93.6566 75.808C95.5979 73.1972 97.7303 70.7341 100.036 68.4393C102.308 66.0966 104.821 64.0008 107.533 62.187C108.92 61.2723 110.395 60.4976 111.935 59.8743C112.685 59.5758 113.458 59.341 114.248 59.1725C115.034 58.974 115.846 58.8934 116.656 58.9333" fill="#A67C52"/>
<path d="M101.937 122.747C100.677 127.006 95.9079 134.008 91.6015 134.056C89.403 133.992 87.2546 133.384 85.3492 132.285C82.3487 130.776 79.8787 128.39 78.2676 125.443C81.3413 127.075 84.7896 127.873 88.268 127.756H89.0814C93.6562 127.093 98.0198 125.396 101.841 122.795" fill="#751A26"/>
<path d="M101.935 122.747C100.675 127.006 95.9063 134.008 91.5999 134.056C89.4014 133.992 87.2531 133.384 85.3477 132.285C86.1596 130.688 87.1208 129.171 88.2186 127.756H89.0799C93.6835 127.109 98.0766 125.412 101.919 122.795" fill="#841F31"/>
<path d="M100.454 119.781C84.7919 125.332 77.5348 121.376 77.9973 124.455C78.0512 124.788 78.1421 125.114 78.2685 125.427C81.6053 127.131 85.3457 127.887 89.0823 127.613C93.6615 126.997 98.0321 125.314 101.842 122.7C102.48 120.579 102.161 119.095 100.359 119.749" fill="white"/>
<path d="M104.934 157.518C104.236 159.191 103.141 160.669 101.744 161.825C101.465 162.077 101.1 162.214 100.723 162.207C99.4313 161.872 97.4376 157.422 98.1713 156.832C99.2878 155.955 101.648 156.178 103.323 156.641C104.248 156.88 104.918 157.247 104.918 157.518" fill="#666766"/>
<path d="M104.934 157.518C104.236 159.191 103.141 160.669 101.744 161.824C102.616 160.22 103.158 158.457 103.339 156.64C104.312 156.88 104.934 157.246 104.934 157.518Z" fill="#4D4D4E"/>
<path d="M51.2497 192.288C50.9235 192.312 50.6005 192.209 50.3489 192C50.0974 191.791 49.9371 191.492 49.9019 191.167C49.8666 190.842 49.9593 190.516 50.1602 190.257C50.3612 189.999 50.6546 189.829 50.9786 189.784C52.8606 189.385 59.1288 188.189 61.1225 188.811C61.2796 188.864 61.4247 188.948 61.5494 189.057C61.674 189.167 61.776 189.3 61.8493 189.449C61.9226 189.598 61.9659 189.759 61.9766 189.925C61.9874 190.091 61.9655 190.257 61.912 190.414C61.8586 190.571 61.7748 190.716 61.6653 190.84C61.5559 190.965 61.4229 191.067 61.2741 191.14C61.1252 191.214 60.9634 191.257 60.7978 191.268C60.6323 191.279 60.4662 191.257 60.3091 191.203C59.4159 190.9 55.0457 191.506 51.5208 192.272H51.2497" fill="#FDD9CC"/>
<path d="M62.2243 192.91C62.0871 192.934 61.9468 192.934 61.8096 192.91C59.7818 192.523 57.7151 192.378 55.6531 192.479C55.3413 192.444 55.0533 192.296 54.8442 192.062C54.6351 191.828 54.5195 191.525 54.5195 191.211C54.5195 190.898 54.6351 190.595 54.8442 190.361C55.0533 190.127 55.3413 189.978 55.6531 189.943C58.0178 189.837 60.3865 190.03 62.7028 190.518C62.9812 190.621 63.215 190.818 63.3638 191.075C63.5126 191.332 63.5672 191.632 63.518 191.925C63.4689 192.218 63.3192 192.485 63.0947 192.679C62.8702 192.873 62.585 192.983 62.2881 192.99" fill="#FDD9CC"/>
<path d="M62.5209 194.744C62.3889 194.767 62.2541 194.767 62.1221 194.744C60.0942 194.357 58.0276 194.213 55.9656 194.314C55.6538 194.278 55.3658 194.13 55.1567 193.896C54.9476 193.662 54.832 193.359 54.832 193.046C54.832 192.732 54.9476 192.429 55.1567 192.195C55.3658 191.961 55.6538 191.813 55.9656 191.778C58.325 191.671 60.6885 191.864 62.9994 192.352C63.1565 192.404 63.3018 192.487 63.427 192.595C63.5521 192.704 63.6547 192.836 63.7288 192.984C63.8028 193.132 63.847 193.293 63.8587 193.458C63.8703 193.624 63.8493 193.79 63.7968 193.947C63.7081 194.198 63.5441 194.415 63.3271 194.569C63.1101 194.723 62.8508 194.807 62.5847 194.808" fill="#FDD9CC"/>
<path d="M54.8829 197.2C54.5963 197.2 54.3184 197.102 54.0951 196.922C53.8718 196.742 53.7165 196.491 53.6548 196.211C53.6071 196.045 53.5938 195.87 53.6157 195.698C53.6377 195.527 53.6944 195.361 53.7825 195.212C53.8705 195.062 53.9881 194.933 54.1279 194.83C54.2677 194.728 54.427 194.655 54.5958 194.617C56.8914 194.047 59.2485 193.763 61.6137 193.771C61.7783 193.793 61.937 193.847 62.0807 193.93C62.2244 194.013 62.3502 194.124 62.451 194.256C62.5518 194.387 62.6255 194.538 62.6679 194.698C62.7104 194.859 62.7207 195.026 62.6982 195.191C62.6545 195.524 62.4808 195.827 62.2149 196.033C61.9491 196.239 61.6126 196.332 61.2787 196.291C59.218 196.313 57.1673 196.581 55.17 197.089H54.8829" fill="#FDD9CC"/>
<path d="M53.562 189.337C58.3469 189.018 64.5354 193.086 63.6581 193.851C62.7809 194.617 56.5127 197.727 56.1299 198.54C55.7471 199.354 56.7998 201.347 55.5079 201.044C51.68 200.167 49.6225 192.671 50.4359 191.331C51.68 189.274 52.1903 189.433 53.6258 189.337" fill="#FDD9CC"/>
</g>
</g>
<defs>
<clipPath id="clip0_3501_17664">
<rect width="204" height="204" rx="102" fill="white"/>
</clipPath>
<clipPath id="clip1_3501_17664">
<rect width="204" height="204" rx="99" fill="white"/>
</clipPath>
</defs>
</svg>
