<svg width="204" height="204" viewBox="0 0 204 204" fill="none" xmlns="http://www.w3.org/2000/svg">
<g clip-path="url(#clip0_3409_126510)">
<path d="M242 -7H-7V221.949H242V-7Z" fill="#FCB45D"/>
<path d="M96.8821 178.997C96.3022 174.975 95.6596 170.435 94.9856 165.407C94.8859 164.334 94.5707 163.292 94.059 162.344C93.5474 161.396 92.8497 160.561 92.0081 159.89C91.1664 159.219 90.1981 158.726 89.1614 158.44C88.1246 158.153 87.0408 158.08 85.975 158.224C84.9093 158.368 83.8836 158.727 82.9596 159.278C82.0356 159.83 81.2324 160.563 80.5983 161.433C79.9641 162.304 79.5121 163.294 79.2694 164.344C79.0267 165.394 78.9984 166.483 79.186 167.544C79.8757 172.619 80.5183 177.206 81.0982 181.244C82.9635 194.472 84.139 202.767 83.9823 209.523C78.5277 207.119 76.1452 205.202 69.6404 202.013C65.6905 200.065 64.9382 202.516 61.9131 205.673C59.1387 208.517 64.2798 214.377 70.5809 219.2C74.1189 221.988 78.0017 224.307 82.1327 226.097C84.7006 227.31 87.4578 228.07 90.2833 228.344C92.1292 228.346 93.9225 227.728 95.377 226.589C96.8316 225.45 97.8637 223.855 98.3085 222.06V221.871C101.24 209.978 99.7505 199.546 96.8351 178.887" fill="#BDE6F6"/>
<path d="M142.483 164.025C140.79 188.549 134.442 243.095 140.21 259.293C140.444 259.988 140.738 260.66 141.088 261.304C142.656 264.116 135.022 266.017 127.122 266.457C110.665 267.494 87.7959 264.116 87.7959 264.116C87.7959 264.116 82.2473 160.553 86.7614 158.102C93.7835 154.3 104.003 147.701 104.003 147.701C104.003 147.701 118.674 147.371 119.959 147.843C124.223 149.414 142.859 156.892 142.781 158.699C142.781 160.27 142.609 162.045 142.467 164.025" fill="#BDE6F6"/>
<path d="M140.211 259.214C140.211 259.576 140.211 259.906 140.211 260.22C140.038 263.441 128.925 264.273 121.025 264.776C122.859 250.024 133.126 170.686 142.53 163.946C140.838 188.47 134.49 243.017 140.258 259.214" fill="#B1E1F0"/>
<path d="M114.52 124.214C114.52 124.214 114.52 124.324 114.52 124.371C114.159 127.513 113.956 130.09 113.83 132.431C113.674 135.903 113.721 138.715 113.83 141.071C114.018 144.528 114.363 147.199 114.442 150.042C114.442 151.817 114.097 153.404 113.532 153.687C112.36 154.317 111.054 154.657 109.724 154.677C108.156 154.677 106.589 155.886 105.742 155.431C105.194 155.148 104.959 151.817 105.006 150.058C105.006 148.785 105.006 147.167 105.115 145.345C105.241 138.668 105.335 129.414 105.021 125.188C105.021 124.811 105.021 124.465 104.927 124.183C104.817 123.47 104.904 122.741 105.181 122.076C105.458 121.411 105.912 120.835 106.495 120.412C109.363 118.307 115.116 119.548 114.567 124.183" fill="#FDD9CC"/>
<path d="M114.518 124.215C114.518 124.215 114.518 124.325 114.518 124.372C114.158 127.514 113.954 130.09 113.828 132.431C113.672 135.903 113.719 138.715 113.828 141.072C111.047 142.746 108.132 144.186 105.114 145.377C105.239 138.7 105.333 129.446 105.02 125.22L106.446 120.507C109.314 118.402 115.067 119.643 114.518 124.277" fill="#ECBAAB"/>
<path d="M68.3439 211.156C67.5288 210.574 57.7168 203.96 57.7168 203.96L62.325 199.341L68.3439 211.156Z" fill="#FDD9CC"/>
<path d="M108.941 225.704L102.53 234.878L102.468 234.721L96.0098 224.902L104.395 159.5L106.574 160.458L107.859 161.039L108.941 225.704Z" fill="#0D71BA"/>
<path d="M112.106 224.604L102.529 234.894V234.722C104.452 231.771 106.03 228.608 107.232 225.295C107.89 222.153 108.517 173.105 106.605 160.474L107.906 161.039L112.106 224.604Z" fill="#00558D"/>
<path d="M113.426 154.064C113.426 155.116 110.292 160.348 107.705 162.312C107.452 162.558 107.153 162.752 106.825 162.881C106.496 163.011 106.146 163.073 105.793 163.066C103.364 162.548 99.3196 154.252 100.636 153.153C102.658 151.472 107.125 151.723 110.197 152.477C112.063 152.917 113.332 153.561 113.426 154.048" fill="#0D71BA"/>
<path d="M113.424 154.064C113.424 155.116 110.289 160.348 107.703 162.312C109.201 159.24 110.05 155.892 110.195 152.477C112.061 152.917 113.33 153.561 113.424 154.048" fill="#00558D"/>
<path d="M116.904 142.847L124.209 148.204L111.559 162.642L107.547 150.859L116.904 142.847Z" fill="#B1E1F0"/>
<path d="M115.951 142.046L124.87 148.204L112.377 160.333L106.688 150.325L115.951 142.046Z" fill="#DAF1F9"/>
<path d="M105.931 150.984L100.226 162.359L97.4355 149.445L101.746 147.135L105.931 150.984Z" fill="#B1E1F0"/>
<path d="M106.371 150.545L100.588 159.924L97.5938 148.707L104.24 145.125L106.371 150.545Z" fill="#DAF1F9"/>
<path d="M97.5025 184.055C93.6153 188.061 86.9068 187.511 87.377 188.768C87.8472 190.025 89.5087 191.91 97.2987 190.622C105.089 189.334 105.387 184.479 103.004 183.945C101.183 183.635 99.3234 183.635 97.5025 183.945" fill="#ECBAAB"/>
<path d="M117.778 197.126C115.224 189.978 110.96 184.747 104.722 182.877C98.4836 181.007 80.6777 179.546 81.0225 183.113C81.5084 188.36 98.2641 183.537 97.8879 188.548C97.5118 193.56 106.65 200.473 111.524 201.902C116.399 203.332 119.032 200.661 117.794 197.189" fill="#FDD9CC"/>
<path d="M93.9441 194.22C93.5294 194.221 93.1238 194.097 92.78 193.865C92.4362 193.632 92.1701 193.302 92.0162 192.916C91.8087 192.401 91.8125 191.825 92.0268 191.313C92.2411 190.801 92.6485 190.394 93.1604 190.182L105.026 185.359C105.541 185.152 106.118 185.158 106.629 185.376C107.14 185.594 107.544 186.006 107.753 186.522C107.858 186.775 107.911 187.047 107.91 187.321C107.909 187.596 107.854 187.867 107.747 188.12C107.641 188.373 107.485 188.602 107.29 188.794C107.095 188.986 106.863 189.138 106.609 189.24L94.7278 194.063C94.4802 194.169 94.2134 194.222 93.9441 194.22" fill="#FDD9CC"/>
<path d="M96.4608 197.126C95.9718 197.133 95.4959 196.968 95.1163 196.659C94.7366 196.35 94.4775 195.917 94.3841 195.436C94.2907 194.955 94.369 194.456 94.6054 194.027C94.8418 193.598 95.2211 193.266 95.6771 193.089L108.373 187.888C108.887 187.68 109.462 187.685 109.972 187.901C110.482 188.118 110.885 188.529 111.093 189.043C111.301 189.558 111.296 190.134 111.08 190.645C110.864 191.156 110.454 191.561 109.941 191.769L97.2602 197.016C97.0068 197.121 96.735 197.175 96.4608 197.173" fill="#FDD9CC"/>
<path d="M100.196 199.342C99.6785 199.349 99.1769 199.164 98.7883 198.822C98.3998 198.479 98.1521 198.004 98.0935 197.489C98.0349 196.974 98.1695 196.455 98.4711 196.034C98.7727 195.613 99.2198 195.319 99.7255 195.21L113.519 191.942C114.04 191.865 114.571 191.987 115.006 192.283C115.442 192.58 115.75 193.03 115.871 193.544C115.991 194.058 115.914 194.598 115.656 195.058C115.397 195.518 114.976 195.864 114.475 196.027L100.682 199.279C100.521 199.303 100.357 199.303 100.196 199.279" fill="#FDD9CC"/>
<path d="M49.5201 173.938L78.3763 167.653C78.6941 167.571 79.0309 167.611 79.3209 167.765C79.6108 167.919 79.8329 168.176 79.9437 168.486L98.9721 218.163C99.0528 218.369 99.0811 218.591 99.0545 218.811C99.0279 219.031 98.9473 219.24 98.8198 219.421C98.6924 219.602 98.5221 219.748 98.3243 219.846C98.1266 219.945 97.9075 219.992 97.6868 219.985L70.837 219.231C70.5923 219.228 70.3531 219.157 70.1457 219.027C69.9384 218.897 69.7708 218.712 69.6614 218.492L48.5953 175.854C48.505 175.67 48.4577 175.468 48.457 175.262C48.4564 175.057 48.5024 174.855 48.5915 174.67C48.6806 174.485 48.8106 174.323 48.9715 174.196C49.1324 174.069 49.32 173.981 49.5201 173.938" fill="#666766"/>
<path d="M96.8373 220.582L86.6178 220.299L82.6365 220.173L69.9875 219.828C69.7434 219.822 69.5057 219.749 69.3008 219.616C69.096 219.482 68.9321 219.295 68.8276 219.074L47.7145 176.482C47.6241 176.298 47.5768 176.096 47.5762 175.891C47.5755 175.686 47.6215 175.483 47.7106 175.298C47.7998 175.113 47.9297 174.951 48.0906 174.825C48.2515 174.698 48.4391 174.609 48.6392 174.566L77.4954 168.282C77.8128 168.21 78.1452 168.255 78.4326 168.408C78.7201 168.56 78.9436 168.811 79.0628 169.114L86.6491 188.847L87.9971 192.46L98.1069 218.791C98.1868 218.998 98.2145 219.221 98.1878 219.441C98.161 219.662 98.0806 219.872 97.9535 220.054C97.8265 220.235 97.6568 220.383 97.4594 220.483C97.262 220.584 97.043 220.634 96.8217 220.629" fill="#808080"/>
<path d="M58.7831 178.164C58.4393 177.476 57.9008 176.905 57.235 176.522C56.5692 176.139 55.8055 175.962 55.0396 176.012C54.2737 176.062 53.5395 176.337 52.9288 176.803C52.3182 177.27 51.8582 177.906 51.6065 178.633C51.3548 179.359 51.3224 180.144 51.5135 180.889C51.7046 181.635 52.1106 182.307 52.6808 182.822C53.251 183.337 53.9601 183.672 54.7193 183.785C55.4785 183.898 56.2541 183.784 56.9492 183.458C57.4168 183.231 57.8352 182.915 58.1806 182.526C58.5259 182.137 58.7913 181.684 58.9616 181.192C59.132 180.7 59.2039 180.18 59.1732 179.66C59.1426 179.14 59.01 178.632 58.7831 178.164" fill="black"/>
<path d="M57.2788 178.855C57.0806 178.423 56.7586 178.061 56.354 177.814C55.9493 177.567 55.4804 177.447 55.0071 177.468C54.5338 177.49 54.0777 177.652 53.6969 177.935C53.3162 178.217 53.0282 178.607 52.8697 179.055C52.7112 179.502 52.6894 179.987 52.8071 180.447C52.9248 180.907 53.1767 181.321 53.5305 181.637C53.8844 181.953 54.3241 182.156 54.7935 182.22C55.263 182.284 55.7408 182.206 56.166 181.997C56.7181 181.716 57.1415 181.233 57.3486 180.649C57.5558 180.064 57.5308 179.422 57.2788 178.855" fill="#4D4D4E"/>
<path d="M56.0207 179.421C55.9223 179.205 55.762 179.023 55.5602 178.899C55.3584 178.775 55.1243 178.714 54.8878 178.724C54.6513 178.734 54.423 178.814 54.2322 178.955C54.0414 179.095 53.8967 179.289 53.8165 179.513C53.7363 179.736 53.7243 179.978 53.782 180.208C53.8397 180.438 53.9645 180.646 54.1405 180.805C54.3165 180.963 54.5357 181.066 54.77 181.099C55.0044 181.133 55.2434 181.095 55.4565 180.992C55.7339 180.853 55.9473 180.612 56.0524 180.319C56.1575 180.027 56.1461 179.705 56.0207 179.421" fill="black"/>
<path d="M58.4529 178.305H58.2961H58.4529C58.8628 179.171 58.919 180.164 58.6096 181.07C58.4572 181.513 58.2181 181.919 57.9063 182.267C57.5945 182.615 57.2164 182.897 56.7942 183.096C56.3721 183.295 55.9144 183.408 55.4482 183.427C54.982 183.446 54.5167 183.371 54.0798 183.207C53.1865 182.867 52.461 182.19 52.0578 181.322C51.6624 180.472 51.615 179.502 51.9256 178.618C52.2362 177.733 52.8801 177.007 53.7193 176.593L53.9387 176.499C54.7877 176.182 55.7247 176.198 56.562 176.545C57.3992 176.892 58.0747 177.543 58.4529 178.368M56.6504 182.877C57.0198 182.69 57.3485 182.431 57.6175 182.115C57.8866 181.8 58.0906 181.434 58.2178 181.039C58.5056 180.217 58.4606 179.315 58.0924 178.525C57.9133 178.144 57.661 177.801 57.3498 177.517C57.0386 177.233 56.6747 177.014 56.2788 176.871C55.8829 176.728 55.4628 176.664 55.0425 176.684C54.6221 176.704 54.2098 176.806 53.829 176.986C53.4482 177.165 53.1064 177.418 52.8231 177.73C52.5398 178.042 52.3206 178.407 52.178 178.804C52.0354 179.2 51.9721 179.621 51.9918 180.043C52.0115 180.464 52.1139 180.877 52.2929 181.259C52.6956 182.028 53.3817 182.608 54.2052 182.877C54.9268 183.154 55.725 183.154 56.4466 182.877H56.6504Z" fill="#CCCCCB"/>
<path d="M88.0169 192.46L86.6219 220.331L82.6406 220.221L86.6219 188.863L88.0169 192.46Z" fill="#999999"/>
<path d="M167.17 213.041C167.155 216.879 165.739 220.578 163.189 223.441C161.665 225.006 159.76 226.144 157.663 226.745C155.565 227.346 153.348 227.387 151.229 226.866C137.326 223.143 125.508 214.832 113.925 206.757C112.434 205.706 111.376 204.149 110.947 202.374C110.719 201.259 110.735 200.108 110.995 199C111.254 197.893 111.751 196.855 112.45 195.958C113.149 195.062 114.034 194.328 115.044 193.808C116.053 193.289 117.164 192.995 118.298 192.947C119.873 192.961 121.405 193.46 122.687 194.377C130.524 199.389 138.737 204.73 147.483 208.171L149.662 208.988C147.515 195.587 139.098 180.85 132.154 169.853C125.21 158.856 141.292 148.707 148.236 159.531C156.339 173.136 163.032 187.59 166.371 203.301C167.037 206.529 167.316 209.825 167.201 213.12" fill="#BDE6F6"/>
<path d="M167.171 213.041C167.155 216.879 165.739 220.578 163.189 223.441C161.665 225.005 159.76 226.144 157.663 226.745C155.566 227.345 153.348 227.387 151.23 226.866C137.327 223.143 125.509 214.832 113.925 206.757C112.435 205.706 111.376 204.148 110.947 202.374C121.026 212.413 146.293 225.562 154.38 226.191C160.274 226.662 164.976 218.068 167.171 213.12" fill="#B1E1F0"/>
<path d="M147.556 208.14C145.832 210.308 127.838 202.311 118.371 192.916C119.946 192.929 121.478 193.429 122.76 194.346C130.597 199.357 138.81 204.699 147.556 208.14Z" fill="#DAF1F9"/>
<path d="M130.12 198.902L121.092 215.461L108.004 201.903C108.004 201.903 114.995 191.157 115.089 190.905L130.12 198.902Z" fill="#B1E1F0"/>
<path d="M130.965 197.598L120.917 213.639L108.033 201.903C108.033 201.903 115.87 189.869 115.98 189.633L130.965 197.598Z" fill="#DAF1F9"/>
<path d="M53.3018 194.518C52.9258 194.529 52.5572 194.412 52.2562 194.186C51.9553 193.959 51.7399 193.637 51.6453 193.272C51.5506 192.908 51.5823 192.521 51.7352 192.177C51.888 191.832 52.153 191.55 52.4867 191.376C54.8535 190.496 62.769 187.637 65.4963 188.234C65.7114 188.274 65.9165 188.356 66.0999 188.476C66.2832 188.596 66.4413 188.75 66.565 188.931C66.6887 189.112 66.7757 189.316 66.8209 189.53C66.8661 189.745 66.8688 189.966 66.8286 190.182C66.7885 190.398 66.7064 190.603 66.587 190.787C66.4676 190.971 66.3132 191.129 66.1327 191.253C65.9523 191.377 65.7492 191.464 65.5351 191.51C65.321 191.555 65.1001 191.558 64.885 191.517C63.6781 191.297 58.0981 192.931 53.6466 194.659H53.3018" fill="#FDD9CC"/>
<path d="M67.6971 193.215C67.5157 193.247 67.33 193.247 67.1485 193.215C64.4379 193.099 61.7232 193.305 59.0606 193.827C58.6361 193.866 58.2127 193.742 57.8765 193.479C57.5403 193.216 57.3165 192.835 57.2506 192.413C57.1847 191.991 57.2817 191.56 57.5219 191.206C57.762 190.853 58.1273 190.605 58.5434 190.512C61.5951 189.934 64.7063 189.733 67.8068 189.915C68.1883 189.99 68.532 190.196 68.7791 190.497C69.0261 190.798 69.1612 191.175 69.1612 191.565C69.1612 191.955 69.0261 192.332 68.7791 192.633C68.532 192.934 68.1883 193.14 67.8068 193.215" fill="#FDD9CC"/>
<path d="M68.4723 195.524C68.2855 195.555 68.0948 195.555 67.908 195.524C65.1974 195.409 62.4827 195.614 59.8201 196.137V196.137C59.3927 196.183 58.9636 196.064 58.6216 195.803C58.2796 195.541 58.0507 195.158 57.9823 194.733C57.9139 194.307 58.0112 193.872 58.254 193.516C58.4969 193.16 58.8667 192.912 59.2872 192.822C62.3442 192.243 65.4606 192.042 68.5663 192.225C68.9993 192.309 69.382 192.56 69.6313 192.925C69.8807 193.289 69.9767 193.738 69.8986 194.173C69.8323 194.514 69.6629 194.827 69.4134 195.069C69.1638 195.31 68.8463 195.469 68.5036 195.524" fill="#FDD9CC"/>
<path d="M58.9881 200.159C58.6092 200.178 58.2353 200.066 57.9285 199.842C57.6217 199.619 57.4005 199.297 57.3016 198.93C57.2027 198.562 57.2321 198.173 57.3849 197.825C57.5378 197.477 57.8048 197.191 58.1417 197.017C61.0175 195.828 64.0288 194.999 67.1073 194.55C67.5221 194.59 67.9071 194.784 68.1872 195.093C68.4673 195.403 68.6225 195.805 68.6225 196.223C68.6225 196.641 68.4673 197.044 68.1872 197.353C67.9071 197.662 67.5221 197.856 67.1073 197.896C64.4165 198.328 61.7859 199.077 59.2702 200.127C59.155 200.175 59.0336 200.207 58.9097 200.222" fill="#FDD9CC"/>
<path d="M55.7602 190.214C61.8105 188.91 70.7447 193.01 69.7573 194.157C68.7698 195.304 61.1992 200.598 60.87 201.745C60.5408 202.892 62.2807 205.264 60.5408 205.123C55.384 204.715 51.2774 195.32 52.0611 193.434C53.2994 190.497 53.9734 190.607 55.7602 190.292" fill="#FDD9CC"/>
<path d="M65.9507 83.3041C67.1419 108.865 87.44 134.363 109.415 133.342C112.268 133.201 119.666 127.152 121.484 128.079C122.817 128.739 123.538 139.799 123.538 139.799C125.004 137.74 125.897 135.327 126.124 132.808C126.296 131.74 128.083 139.092 128.867 138.291C129.854 137.301 134.18 125.22 134.447 123.067C134.604 121.779 133.616 133.892 134.682 133.153C147.707 124.089 165.701 91.8506 162.033 72.2753C157.331 47.1385 130.246 36.0312 108.287 37.0524C86.3271 38.0736 64.7595 57.7431 65.9664 83.3041" fill="#5F3917"/>
<path d="M134.399 109.603C114.948 98.4018 146.108 77.4911 149.415 88.6142C152.722 99.7372 140.011 112.871 134.399 109.588" fill="#FDD9CC"/>
<path d="M134.01 100.978C133.809 99.9947 133.896 98.9744 134.261 98.0399C134.598 97.1077 135.039 96.2169 135.577 95.3848C136.653 93.7222 137.999 92.2513 139.559 91.033C140.38 90.3799 141.308 89.8749 142.302 89.5405C142.598 89.4538 142.903 89.4011 143.211 89.3834C143.593 89.364 143.972 89.451 144.308 89.6348C144.492 89.7358 144.652 89.8751 144.778 90.0432C144.884 90.1614 144.974 90.2935 145.045 90.436C145.19 90.7033 145.301 90.9885 145.374 91.2844C145.57 92.3602 145.387 93.471 144.856 94.4265C144.401 95.3009 143.803 96.0923 143.085 96.7673C143.484 95.9173 143.81 95.0342 144.057 94.128C144.294 93.3336 144.294 92.4872 144.057 91.6928C143.993 91.5276 143.903 91.3738 143.791 91.2372C143.791 91.2372 143.681 91.0801 143.65 91.0644C143.618 91.0487 143.65 91.0644 143.65 91.0644C143.388 91.0209 143.12 91.0593 142.881 91.1744C142.098 91.5048 141.365 91.9438 140.703 92.4784C139.267 93.6031 137.944 94.866 136.753 96.2489C136.186 96.9496 135.663 97.6841 135.185 98.4484C134.671 99.2212 134.324 100.094 134.167 101.009" fill="#ECBAAB"/>
<path d="M89.4713 49.4161C63.4208 63.2256 74.8316 86.5557 64.6748 99.2341C59.9725 109.022 63.5306 127.654 80.5527 137.426C84.7848 139.861 86.3992 140.034 90.8507 140.82C107.152 143.726 123.5 136.012 130.835 121.967C140.397 103.539 135.538 56.0617 110.193 46.9339C106.792 45.6572 103.136 45.2164 99.5307 45.6483C95.9253 46.0802 92.4757 47.3722 89.4713 49.4161" fill="#FDD9CC"/>
<path d="M112.832 85.5509C112.568 85.5633 112.306 85.4977 112.079 85.3624C112.079 85.3624 105.245 81.8589 98.6466 84.2469C98.4494 84.324 98.2386 84.3602 98.0271 84.3534C97.8155 84.3466 97.6076 84.2969 97.4157 84.2074C97.2238 84.1178 97.052 83.9902 96.9107 83.8323C96.7693 83.6744 96.6613 83.4895 96.5933 83.2886C96.516 83.0919 96.4792 82.8817 96.485 82.6704C96.4907 82.4591 96.5389 82.2512 96.6267 82.0591C96.7145 81.8669 96.8401 81.6945 96.996 81.5521C97.1518 81.4098 97.3347 81.3004 97.5337 81.2305C105.465 78.3712 113.208 82.3774 113.537 82.5345C113.729 82.6288 113.899 82.7613 114.038 82.924C114.177 83.0867 114.281 83.2761 114.344 83.4806C114.407 83.6851 114.428 83.9004 114.405 84.1132C114.382 84.326 114.316 84.5319 114.211 84.7182C114.093 84.9815 113.898 85.2024 113.652 85.3512C113.405 85.5 113.119 85.5697 112.832 85.5509Z" fill="#412311"/>
<path d="M115.367 97.3489C115.307 98.5077 115.013 99.6423 114.501 100.683C113.99 101.724 113.272 102.65 112.392 103.404C111.512 104.158 110.489 104.725 109.383 105.069C108.278 105.414 107.114 105.529 105.962 105.408C100.931 105.173 95.0686 102.502 95.3037 97.4588C95.5388 92.4158 101.683 87.5455 106.715 87.7812C109.122 87.9113 111.381 88.9899 112.999 90.7821C114.617 92.5742 115.462 94.9346 115.351 97.3489" fill="white"/>
<path d="M105.102 89.9179C106.507 89.9148 107.882 90.3295 109.051 91.1096C110.221 91.8897 111.134 93.0001 111.673 94.3003C112.213 95.6005 112.356 97.0319 112.084 98.4135C111.812 99.7951 111.137 101.065 110.144 102.062C109.152 103.058 107.887 103.738 106.509 104.014C105.131 104.29 103.703 104.15 102.404 103.611C101.106 103.073 99.9962 102.161 99.2153 100.99C98.4344 99.8196 98.0176 98.443 98.0176 97.0347C98.0155 96.1009 98.1973 95.1758 98.5524 94.3124C98.9075 93.449 99.429 92.6644 100.087 92.0033C100.745 91.3422 101.527 90.8177 102.387 90.4599C103.248 90.1021 104.171 89.9179 105.102 89.9179" fill="#5AB9E2"/>
<path d="M103.551 92.7461C104.562 92.7461 105.55 93.0465 106.39 93.6092C107.23 94.172 107.885 94.9719 108.272 95.9078C108.659 96.8436 108.76 97.8734 108.563 98.8669C108.366 99.8604 107.879 100.773 107.164 101.489C106.45 102.206 105.539 102.693 104.548 102.891C103.557 103.089 102.529 102.987 101.596 102.599C100.662 102.212 99.864 101.555 99.3026 100.713C98.7411 99.8709 98.4414 98.8807 98.4414 97.8677C98.4414 96.5094 98.9798 95.2067 99.938 94.2462C100.896 93.2857 102.196 92.7461 103.551 92.7461Z" fill="#2C170E"/>
<path d="M114.65 99.8479C114.811 98.9461 114.874 98.0296 114.838 97.1143C114.812 96.2468 114.653 95.3885 114.368 94.5692C114.083 93.7787 113.67 93.0408 113.145 92.3854C112.595 91.7404 111.969 91.1653 111.28 90.673C109.83 89.713 108.196 89.0657 106.483 88.772C104.694 88.5258 102.872 88.7144 101.17 89.3219C101.925 88.7285 102.787 88.2859 103.709 88.0179C104.648 87.727 105.626 87.5787 106.609 87.578C107.097 87.5808 107.585 87.6229 108.067 87.7037C108.55 87.7815 109.027 87.897 109.493 88.0493C109.966 88.2024 110.427 88.3915 110.872 88.6149L111.201 88.772C111.312 88.8115 111.417 88.8643 111.515 88.9291C111.737 89.0377 111.947 89.1694 112.142 89.3219C112.572 89.5974 112.972 89.9187 113.333 90.2802C113.71 90.6324 114.056 91.0161 114.368 91.4271C114.97 92.255 115.387 93.2035 115.59 94.2078C115.786 95.1931 115.786 96.2075 115.59 97.1928C115.429 98.1247 115.111 99.0225 114.65 99.8479" fill="#412311"/>
<g opacity="0.5">
<path d="M108.863 91.3154C109.442 91.3154 110.009 91.4877 110.491 91.8105C110.973 92.1334 111.349 92.5922 111.571 93.129C111.793 93.6658 111.851 94.2565 111.737 94.8264C111.624 95.3963 111.345 95.9198 110.935 96.3307C110.525 96.7415 110.003 97.0213 109.435 97.1347C108.866 97.2481 108.277 97.1899 107.741 96.9675C107.205 96.7452 106.748 96.3686 106.426 95.8855C106.104 95.4024 105.932 94.8343 105.932 94.2533C105.932 93.8675 106.007 93.4855 106.155 93.129C106.302 92.7726 106.518 92.4487 106.79 92.1759C107.062 91.9031 107.385 91.6867 107.741 91.5391C108.097 91.3914 108.478 91.3154 108.863 91.3154" fill="white"/>
</g>
<path d="M70.8714 86.0531C70.6166 86.0568 70.3653 85.9935 70.1425 85.8694C69.9198 85.7454 69.7333 85.565 69.6018 85.3462C69.4035 85.001 69.3433 84.5933 69.4335 84.2054C69.5237 83.8174 69.7575 83.4783 70.0877 83.2567C75.1348 80.1146 81.3731 81.6856 81.6396 81.7956C82.0144 81.9091 82.3332 82.1591 82.5334 82.4964C82.7335 82.8336 82.8005 83.2338 82.7211 83.618C82.6109 83.9999 82.3604 84.3256 82.0201 84.5297C81.6798 84.7338 81.275 84.801 80.8872 84.7178C80.8872 84.7178 75.6677 83.3981 71.7335 85.8332C71.4683 85.9757 71.1724 86.0512 70.8714 86.0531" fill="#412311"/>
<path d="M66.8744 95.3536C66.6863 99.6111 69.4136 102.753 73.05 102.879C76.6864 103.005 81.0752 101.308 81.2633 96.9246C81.4514 92.5414 77.4231 88.0482 73.7867 87.8597C70.1503 87.6711 67.0625 91.0018 66.8744 95.3536" fill="white"/>
<path d="M73.6427 90.1852C74.8295 90.1916 75.9877 90.5514 76.9701 91.2189C77.9525 91.8863 78.7149 92.8314 79.1604 93.934C79.6058 95.0367 79.7143 96.2471 79.472 97.4117C79.2298 98.5762 78.6476 99.6424 77.7996 100.475C76.9516 101.307 75.8759 101.868 74.7092 102.086C73.5425 102.304 72.3374 102.17 71.2469 101.701C70.1565 101.231 69.2298 100.447 68.5847 99.4486C67.9396 98.45 67.6052 97.2819 67.6238 96.0924C67.6445 94.5103 68.2892 93.0008 69.4171 91.8939C70.5449 90.787 72.0642 90.1727 73.6427 90.1852" fill="#5AB9E2"/>
<path d="M72.4024 92.3535C73.2673 92.3535 74.1128 92.6106 74.832 93.0922C75.5511 93.5739 76.1116 94.2584 76.4426 95.0594C76.7736 95.8603 76.8602 96.7416 76.6915 97.5919C76.5227 98.4421 76.1062 99.2231 75.4946 99.8361C74.8831 100.449 74.1038 100.867 73.2555 101.036C72.4072 101.205 71.528 101.118 70.7289 100.786C69.9298 100.455 69.2468 99.8927 68.7663 99.1719C68.2858 98.4511 68.0293 97.6037 68.0293 96.7367C68.0293 95.5742 68.49 94.4593 69.3101 93.6373C70.1303 92.8153 71.2426 92.3535 72.4024 92.3535Z" fill="#2C170E"/>
<path d="M66.7286 96.0925C66.6582 95.4608 66.6582 94.8232 66.7286 94.1915C66.7628 93.538 66.8895 92.8926 67.1048 92.2748C67.2988 91.637 67.5896 91.033 67.9668 90.4838C68.3415 89.9124 68.82 89.4168 69.3775 89.0227C69.9244 88.6142 70.5329 88.296 71.18 88.0801C71.8188 87.8673 72.4829 87.7405 73.155 87.703C73.8152 87.6884 74.473 87.7894 75.0986 88.0016C75.728 88.1874 76.3141 88.4972 76.8227 88.9128C75.6841 88.4584 74.4462 88.3122 73.2334 88.4886C72.0646 88.6558 70.9582 89.1211 70.0202 89.8397C69.0993 90.5762 68.3772 91.5322 67.9198 92.6204C67.3882 93.7197 67.0136 94.8885 66.8069 96.0925" fill="#412311"/>
<g opacity="0.5">
<path d="M76.0769 90.8931C76.6101 90.8931 77.1313 91.0516 77.5747 91.3485C78.018 91.6454 78.3636 92.0675 78.5676 92.5612C78.7717 93.055 78.825 93.5983 78.721 94.1225C78.617 94.6467 78.3602 95.1282 77.9832 95.5061C77.6062 95.884 77.1258 96.1413 76.6028 96.2456C76.0799 96.3499 75.5378 96.2963 75.0452 96.0918C74.5525 95.8873 74.1315 95.541 73.8353 95.0966C73.539 94.6522 73.3809 94.1298 73.3809 93.5953C73.3788 93.2399 73.4471 92.8876 73.5819 92.5588C73.7166 92.23 73.9151 91.9313 74.1659 91.6799C74.4167 91.4286 74.7147 91.2296 75.0427 91.0946C75.3707 90.9595 75.7222 90.891 76.0769 90.8931" fill="white"/>
</g>
<path d="M79.1895 120.726C79.8711 121.079 80.5994 121.333 81.3525 121.481C82.0593 121.631 82.7777 121.721 83.4999 121.748C84.9486 121.794 86.3989 121.747 87.8416 121.606C89.2836 121.449 90.7413 121.245 92.1833 120.962C92.8868 120.826 93.5827 120.653 94.268 120.444C95.0064 120.253 95.6992 119.917 96.3057 119.454C96.2356 119.879 96.0575 120.28 95.7884 120.616C95.5433 120.972 95.2536 121.294 94.9263 121.575C94.2843 122.122 93.5728 122.582 92.8103 122.942C91.3291 123.643 89.7385 124.085 88.1081 124.246C86.4329 124.431 84.7377 124.276 83.1237 123.79C82.2989 123.542 81.5204 123.16 80.8196 122.659C80.1337 122.167 79.5923 121.5 79.2521 120.726" fill="#ECBAAB"/>
<path d="M88.9123 96.7838C87.3449 104.639 79.5078 108.881 79.5078 108.881C79.5892 110.532 80.1694 112.12 81.1716 113.433C82.1737 114.746 83.5504 115.723 85.1192 116.233" fill="#FDD9CC"/>
<path d="M88.9105 96.7833C88.8966 98.149 88.6364 99.5009 88.1425 100.774C87.6566 102.075 86.9919 103.302 86.1676 104.419C85.3551 105.537 84.4192 106.559 83.3776 107.466C82.8603 107.922 82.3274 108.362 81.8101 108.77C81.2419 109.194 80.6448 109.577 80.0233 109.917L80.6346 108.88C80.6 110.285 80.9818 111.668 81.7318 112.855C82.143 113.496 82.6211 114.091 83.1581 114.63C83.7365 115.198 84.3546 115.723 85.0077 116.201C84.1479 116.12 83.3094 115.886 82.5311 115.51C81.7146 115.118 80.9722 114.586 80.3368 113.939C79.6675 113.28 79.1349 112.496 78.7693 111.63C78.4036 110.743 78.212 109.793 78.2051 108.833C78.2069 108.63 78.2612 108.43 78.3629 108.254C78.4645 108.078 78.6099 107.931 78.785 107.828V107.828C79.2552 107.545 79.8195 107.199 80.3524 106.838C80.8854 106.477 81.3713 106.115 81.9199 105.723C82.9121 104.945 83.8447 104.095 84.7099 103.177C85.5832 102.264 86.3752 101.276 87.0767 100.224C87.8048 99.138 88.4193 97.9798 88.9105 96.7676" fill="#ECBAAB"/>
<path d="M139.816 50.5162C133.876 -2.50667 41.9939 43.8236 41.9939 43.8236C41.9939 43.8236 77.4018 46.3844 70.4582 47.5784C49.0473 51.2546 40.834 65.8654 40.834 65.8654C40.834 65.8654 70.6149 59.4555 64.7214 63.4617C49.6742 73.6421 46.1319 86.6975 46.1319 86.6975C46.1319 86.6975 74.2984 68.1905 66.8845 74.4747C57.48 82.4243 61.5396 96.3437 61.5396 96.3437C61.5396 96.3437 72.5115 75.9201 92.3864 70.1386C108.954 65.4255 116.948 70.4843 116.948 70.4843L117.779 87.9858L121.007 82.8641L120.224 105.424L127.183 91.552L124.299 114.018C124.299 114.018 150.255 91.8663 150.616 72.2124C150.976 52.5586 139.863 50.5162 139.863 50.5162" fill="#754D25"/>
<path d="M110.636 38.4977C108.928 37.5236 107.25 36.5967 105.526 35.7955C103.802 34.9942 102.109 34.303 100.26 33.6274C98.4102 32.9519 96.6704 32.4334 94.8522 31.915C93.034 31.3965 91.1844 30.9724 89.3349 30.5639C85.6201 29.7469 81.874 29.1028 78.0965 28.5529C74.319 28.0031 70.4945 27.5318 66.6387 27.0604C70.4902 26.4139 74.3996 26.1822 78.3003 26.3692C82.2124 26.5121 86.1042 27.001 89.9305 27.8303C91.8428 28.2702 93.7393 28.7729 95.6202 29.4013C97.4892 30.0213 99.3164 30.7612 101.091 31.6165C102.869 32.4705 104.577 33.4633 106.2 34.5858C107.81 35.7207 109.297 37.0212 110.636 38.4663" fill="#A67C52"/>
<path d="M138.53 35.9216C139.066 36.5228 139.471 37.229 139.721 37.9954C139.993 38.7673 140.172 39.569 140.254 40.3833C140.407 41.986 140.354 43.6016 140.097 45.1908C139.871 46.787 139.52 48.3629 139.047 49.9039C138.583 51.4305 138.023 52.926 137.37 54.3814L135.505 52.4804C137.183 51.6855 138.959 51.1201 140.787 50.7994C141.688 50.6276 142.599 50.5174 143.514 50.4695C144.418 50.4224 145.323 50.4224 146.226 50.4695C148.015 50.5331 149.794 50.7646 151.54 51.1607C153.275 51.5374 154.967 52.0956 156.587 52.8261C154.831 52.6375 153.107 52.5118 151.383 52.4804C149.678 52.4248 147.972 52.472 146.273 52.6218C144.605 52.7505 142.949 53.0079 141.32 53.3916C139.735 53.7598 138.192 54.2861 136.712 54.9627L133.342 56.5337L134.909 53.0774C135.489 51.742 136.053 50.3124 136.571 48.9141C137.088 47.5159 137.558 46.0863 137.966 44.6566C138.387 43.2315 138.701 41.7768 138.906 40.3048C139.14 38.812 139.028 37.2851 138.577 35.843" fill="#A67C52"/>
<path d="M87.7829 44.6246L86.5133 44.7974C86.0901 44.7974 85.6669 44.7974 85.2437 44.9545C84.4129 45.1273 83.5822 45.2373 82.7515 45.4101C81.9207 45.5829 81.184 45.7714 80.2906 45.9285L77.8141 46.4941C74.5382 47.2796 71.278 48.0652 67.9864 48.8821C64.6948 49.699 61.4189 50.4532 58.1117 51.223C54.8044 51.9928 51.4658 52.6526 48.0488 53.1554C51.0859 51.5869 54.2284 50.2326 57.4533 49.1021C60.6822 47.9709 63.9581 46.9968 67.281 46.1799C70.6126 45.3466 73.995 44.7326 77.4066 44.3418C78.2686 44.3418 79.1307 44.169 79.9928 44.1218H82.579C83.4568 44.1218 84.3189 44.2004 85.181 44.2632C86.0399 44.3561 86.8929 44.4977 87.7358 44.6874" fill="#A67C52"/>
<path d="M111.837 62.5497C110.41 63.1679 109.049 63.9312 107.777 64.8278C106.508 65.7075 105.269 66.6187 104.047 67.5928C101.633 69.4938 99.3446 71.5047 96.8838 73.4999C94.4229 75.4952 92.1815 77.5218 89.7207 79.5171C87.2598 81.5123 84.8617 83.4761 82.2598 85.3299C84.0492 82.7069 86.0462 80.2323 88.2316 77.9303C90.3832 75.5921 92.6759 73.3884 95.0969 71.3319C97.5195 69.2683 100.104 67.4032 102.824 65.7547C104.204 64.9282 105.645 64.2087 107.135 63.6023C108.623 62.9561 110.217 62.5887 111.837 62.5183" fill="#A67C52"/>
</g>
<defs>
<clipPath id="clip0_3409_126510">
<rect width="204" height="204" rx="102" fill="white"/>
</clipPath>
</defs>
</svg>
