<svg width="317" height="189" viewBox="0 0 317 189" fill="none" xmlns="http://www.w3.org/2000/svg">
<path d="M98.0234 108.954C95.4071 107.869 92.6096 107.288 89.7778 107.241C88.2478 107.223 86.7212 107.39 85.2312 107.738C83.6478 108.128 82.1242 108.73 80.7016 109.527C79.2561 110.342 77.916 111.332 76.7115 112.473C75.5604 113.564 74.5035 114.749 73.552 116.018C71.8772 118.296 70.3526 120.682 68.9881 123.159C66.4194 127.688 64.1846 131.456 61.496 134.29C58.796 137.186 55.5632 139.535 51.9745 141.209C44.244 145.149 35.4414 146.469 26.8951 144.967C22.2432 144.113 17.7178 142.675 13.4264 140.686C8.74763 138.539 4.25661 136.004 0.000442505 133.108C1.02039 135.638 2.33071 138.04 3.90497 140.267C4.68416 141.388 5.51465 142.493 6.40514 143.546C7.28312 144.62 8.21477 145.649 9.19651 146.629C13.2331 150.736 18.0127 154.04 23.2817 156.364C28.8522 158.799 34.8853 159.994 40.9632 159.866C44.0283 159.794 47.078 159.41 50.0651 158.719C51.5635 158.351 52.985 157.991 54.4149 157.52C55.869 157.058 57.298 156.521 58.6961 155.91C61.6001 154.651 64.3449 153.053 66.8732 151.15C68.1615 150.167 69.3856 149.103 70.538 147.964C71.6818 146.817 72.7487 145.596 73.7318 144.308C75.6053 141.835 77.1829 139.151 78.4325 136.311C79.5481 133.755 80.4978 131.129 81.2753 128.45C82.0288 125.959 82.6624 123.638 83.3645 121.6C83.9636 119.668 84.8467 117.836 85.9847 116.163C87.2838 114.423 88.9501 112.991 90.8652 111.968C91.9731 111.36 93.1169 110.819 94.2902 110.349C95.4547 109.853 96.7562 109.433 98.0234 108.954Z" fill="#FF790B"/>
<path d="M161.831 83.6945C190.464 93.7639 196.03 139.41 165.427 157.451C152.387 165.158 145.956 163.197 145.956 163.197C145.956 163.197 144.347 179.637 145.785 180.741C147.224 181.846 159.34 185.93 155.478 186.05C151.616 186.17 141.59 188.276 137.497 183.661C134.56 180.33 128.677 165.877 125.073 158.248C124.464 156.934 124.247 155.473 124.447 154.04C124.647 152.606 125.257 151.261 126.203 150.165C128.172 147.862 134.123 145.884 132.556 142.955C129.671 137.552 115.979 126.336 119.713 112.987C123.446 99.6378 138.464 75.4917 161.831 83.6945Z" fill="#FF9432"/>
<path d="M260.23 134.701C258.277 155.516 258.808 179.628 263.475 181.443C268.141 183.259 275.351 186.846 268.929 186.709C262.507 186.572 262.473 188.276 255.272 184.689C248.071 181.101 230.261 153.735 240.442 138.974C250.623 124.212 261.351 122.731 260.23 134.701Z" fill="#FF9432"/>
<path d="M102.45 144.18C139.91 176.897 140.604 132.372 166.3 129.803C192.235 132.321 206.843 161.784 238.738 154.934C267.662 150.542 274.589 117.259 273.45 92.1884C272.979 63.333 269.375 53.7002 256.891 52.4501C242.223 50.515 257.978 68.7187 250.315 91.9572C245.511 114.502 226.794 111.463 216.681 99.7662C210.277 92.1114 204.625 86.0063 199.085 81.2542C160.777 42.8687 58.4727 92.2055 102.45 144.18Z" fill="#FF9432"/>
<path d="M120.295 155.345C124.243 156.191 128.349 155.918 132.151 154.556C135.952 153.195 139.298 150.799 141.812 147.639C148.987 138.503 157.807 129.803 166.301 129.803C175.403 129.803 183.075 134.941 191.988 140.849C203.976 148.846 218.866 158.83 238.765 154.934C254.64 151.869 266.105 140.643 270.198 124.109C270.343 123.527 270.48 122.928 270.617 122.328C267.261 109.485 263.528 107.961 256.917 115.812C249.357 124.803 247.935 139.941 225.69 139.941C203.445 139.941 204.883 111.086 180.309 105.409C157.49 100.203 123.377 138.7 120.295 155.345Z" fill="#FFB546"/>
<path d="M231.059 133.228C228.576 155.122 228.49 180.553 233.054 182.565C237.618 184.577 244.69 188.559 238.328 188.225C231.967 187.891 231.881 189.74 224.834 185.802C217.787 181.863 198.736 146.825 209.207 131.49C219.679 116.155 232.48 120.667 231.059 133.228Z" fill="#FF9432"/>
<path d="M134.363 85.7923C163.005 95.8617 168.562 141.5 137.96 159.549C124.919 167.255 118.489 165.295 118.489 165.295C118.489 165.295 116.879 181.735 118.317 182.839C119.756 183.944 131.88 187.977 128.019 188.148C124.157 188.319 114.122 190.366 110.037 185.759C107.109 182.42 101.218 167.966 97.6219 160.346C97.0099 159.033 96.7909 157.571 96.9915 156.137C97.192 154.703 97.8035 153.357 98.7521 152.263C100.722 149.951 106.672 147.981 105.097 145.053C102.211 139.65 88.52 128.433 92.2533 115.084C95.9865 101.736 111.031 77.5723 134.363 85.7923Z" fill="#FF9432"/>
<path d="M281.937 11.2989C281.937 11.2989 282.237 11.6414 282.794 12.2408C285.362 15.0236 293.188 23.2692 300.646 27.7817C301.325 28.2567 302.105 28.5647 302.925 28.6808C303.745 28.7968 304.581 28.7176 305.364 28.4495C311.247 26.2747 314.064 12.3864 313.396 4.7572C312.634 -3.88232 293.06 2.22273 281.937 11.2989Z" fill="#FF9432"/>
<path d="M282.793 12.2408C285.362 15.0236 293.188 23.2692 300.646 27.7817C301.324 28.2566 302.105 28.5647 302.925 28.6808C303.745 28.7968 304.58 28.7176 305.364 28.4495C308.146 23.1322 309.371 14.7496 308.909 9.46655C308.249 2.09427 293.899 5.45077 282.793 12.2408Z" fill="#FF790B"/>
<path d="M221.768 28.4495C222.552 28.7156 223.387 28.7937 224.207 28.6777C225.026 28.5617 225.807 28.2548 226.486 27.7817C233.944 23.2692 241.787 15.0236 244.339 12.2408C244.887 11.6414 245.195 11.2989 245.195 11.2989C234.064 2.19704 214.507 -3.88232 213.745 4.7572C213.043 12.3863 215.86 26.2747 221.768 28.4495Z" fill="#FF9432"/>
<path d="M221.769 28.4495C222.553 28.7155 223.388 28.7937 224.208 28.6777C225.027 28.5617 225.808 28.2548 226.487 27.7817C233.945 23.2692 241.788 15.0236 244.34 12.2408C233.209 5.45077 218.875 2.09427 218.224 9.46655C217.728 14.7753 218.961 23.1322 221.769 28.4495Z" fill="#FF790B"/>
<path d="M210.106 37.8425C210.106 61.4578 234.038 79.8671 263.553 79.8671C293.068 79.8671 317 61.4578 317 37.8425C317 14.2273 293.025 0.844177 263.553 0.844177C234.081 0.844177 210.106 14.2102 210.106 37.8425Z" fill="#FF9432"/>
<path d="M263.553 14.4585C301.313 6.38409 316.862 31.3779 309.49 51.2771C302.118 71.1762 277.467 55.2243 263.553 43.1598C249.639 55.2243 225.022 71.219 217.615 51.2771C210.208 31.3351 225.792 6.38409 263.553 14.4585Z" fill="#D35315"/>
<path d="M226.581 58.8634H226.795L246.488 53.7259C246.648 53.6314 246.772 53.4876 246.843 53.3161C246.914 53.1447 246.927 52.9548 246.881 52.7752C246.835 52.5956 246.731 52.4359 246.586 52.3201C246.441 52.2043 246.263 52.1388 246.077 52.1333L226.384 57.2708C226.177 57.3327 226.002 57.4703 225.892 57.656C225.783 57.8417 225.747 58.0619 225.793 58.2726C225.847 58.4401 225.952 58.5868 226.093 58.6925C226.234 58.7983 226.404 58.8579 226.581 58.8634Z" fill="#FFB546"/>
<path d="M232.043 64.7287C232.178 64.728 232.311 64.6926 232.428 64.6259L247.455 56.6114C247.586 56.5854 247.709 56.529 247.815 56.4469C247.92 56.3648 248.005 56.2591 248.062 56.1384C248.119 56.0177 248.147 55.8852 248.144 55.7516C248.141 55.6181 248.107 55.4871 248.044 55.3692C247.981 55.2513 247.892 55.1496 247.783 55.0725C247.674 54.9954 247.548 54.9449 247.416 54.925C247.284 54.9051 247.149 54.9164 247.022 54.9579C246.895 54.9995 246.779 55.0702 246.685 55.1644L231.675 63.1446C231.488 63.2527 231.349 63.4276 231.285 63.634C231.222 63.8404 231.238 64.0632 231.332 64.2577C231.399 64.3915 231.5 64.5053 231.625 64.5879C231.749 64.6706 231.894 64.7191 232.043 64.7287Z" fill="#FFB546"/>
<path d="M229.286 51.8165H229.363L245.631 50.3523C245.761 50.3752 245.895 50.3679 246.021 50.3308C246.148 50.2938 246.264 50.228 246.361 50.1387C246.458 50.0493 246.533 49.9388 246.58 49.8158C246.627 49.6927 246.645 49.5604 246.633 49.4291C246.621 49.2979 246.578 49.1713 246.509 49.0592C246.44 48.947 246.345 48.8524 246.234 48.7826C246.122 48.7128 245.995 48.6698 245.864 48.6569C245.733 48.644 245.601 48.6616 245.477 48.7083L229.209 50.181C229.001 50.2082 228.811 50.3103 228.674 50.468C228.537 50.6257 228.462 50.8282 228.464 51.0373C228.482 51.245 228.576 51.4387 228.727 51.5822C228.879 51.7256 229.077 51.809 229.286 51.8165Z" fill="#FFB546"/>
<path d="M300.542 58.8634C300.72 58.8304 300.884 58.7415 301.008 58.6095C301.133 58.4776 301.212 58.3094 301.235 58.1293C301.258 57.9492 301.223 57.7664 301.136 57.6075C301.048 57.4486 300.912 57.3217 300.747 57.2451L281.053 52.1076C280.939 52.0399 280.811 51.9998 280.678 51.9903C280.546 51.9808 280.413 52.0023 280.29 52.053C280.168 52.1037 280.058 52.1823 279.971 52.2825C279.884 52.3827 279.821 52.5018 279.788 52.6304C279.755 52.759 279.752 52.8935 279.78 53.0234C279.808 53.1533 279.865 53.2749 279.948 53.3787C280.031 53.4825 280.137 53.5655 280.257 53.6213C280.378 53.6771 280.51 53.7041 280.643 53.7002L300.336 58.8377C300.403 58.854 300.472 58.8626 300.542 58.8634Z" fill="#FFB546"/>
<path d="M295.062 64.7287C295.233 64.707 295.394 64.634 295.523 64.5193C295.652 64.4045 295.744 64.2534 295.785 64.0858C295.827 63.9181 295.817 63.7418 295.757 63.5799C295.696 63.418 295.588 63.2782 295.447 63.1789L280.437 55.1986C280.342 55.1044 280.227 55.0337 280.1 54.9922C279.973 54.9506 279.838 54.9393 279.706 54.9592C279.574 54.9791 279.448 55.0296 279.339 55.1068C279.23 55.1839 279.14 55.2855 279.078 55.4034C279.015 55.5213 278.98 55.6523 278.977 55.7859C278.974 55.9194 279.002 56.0519 279.06 56.1726C279.117 56.2933 279.201 56.399 279.307 56.4811C279.412 56.5633 279.535 56.6196 279.666 56.6457L294.676 64.6259C294.793 64.6938 294.926 64.7292 295.062 64.7287Z" fill="#FFB546"/>
<path d="M297.819 51.8165C297.996 51.7711 298.155 51.6699 298.27 51.5278C298.386 51.3858 298.453 51.2103 298.462 51.0272C298.471 50.8442 298.42 50.6632 298.318 50.5109C298.216 50.3586 298.068 50.243 297.896 50.1811L281.627 48.7083C281.443 48.7422 281.275 48.8355 281.149 48.9739C281.023 49.1124 280.946 49.2884 280.929 49.4749C280.913 49.6615 280.958 49.8483 281.057 50.0068C281.157 50.1652 281.306 50.2866 281.482 50.3523L297.75 51.8165H297.819Z" fill="#FFB546"/>
<path d="M239.186 45.3689C234.14 45.3689 230.05 41.2785 230.05 36.2328C230.05 31.187 234.14 27.0966 239.186 27.0966C244.232 27.0966 248.322 31.187 248.322 36.2328C248.322 41.2785 244.232 45.3689 239.186 45.3689Z" fill="#183B59"/>
<path d="M239.09 43.665C235.043 43.665 231.761 40.3835 231.761 36.3356C231.761 32.2876 235.043 29.0061 239.09 29.0061C243.138 29.0061 246.42 32.2876 246.42 36.3356C246.42 40.3835 243.138 43.665 239.09 43.665Z" fill="#F2F2F2"/>
<path d="M239.466 41.7042C236.392 41.7042 233.9 39.2124 233.9 36.1386C233.9 33.0648 236.392 30.573 239.466 30.573C242.539 30.573 245.031 33.0648 245.031 36.1386C245.031 39.2124 242.539 41.7042 239.466 41.7042Z" fill="#183B59"/>
<path d="M287.913 45.3689C282.867 45.3689 278.777 41.2785 278.777 36.2328C278.777 31.187 282.867 27.0966 287.913 27.0966C292.958 27.0966 297.049 31.187 297.049 36.2328C297.049 41.2785 292.958 45.3689 287.913 45.3689Z" fill="#183B59"/>
<path d="M287.819 43.665C283.771 43.665 280.49 40.3835 280.49 36.3356C280.49 32.2876 283.771 29.0061 287.819 29.0061C291.867 29.0061 295.148 32.2876 295.148 36.3356C295.148 40.3835 291.867 43.665 287.819 43.665Z" fill="#F2F2F2"/>
<path d="M288.196 41.7042C285.122 41.7042 282.631 39.2124 282.631 36.1386C282.631 33.0648 285.122 30.573 288.196 30.573C291.27 30.573 293.762 33.0648 293.762 36.1386C293.762 39.2124 291.27 41.7042 288.196 41.7042Z" fill="#183B59"/>
<path d="M254.776 48.948C254.776 52.4758 264.007 55.3356 264.007 55.3356C264.007 55.3356 273.229 52.4758 273.229 48.948C273.229 45.4203 269.101 42.5604 264.007 42.5604C258.912 42.5604 254.776 45.4203 254.776 48.948Z" fill="#183B59"/>
<path d="M278.066 58.8377C277.045 59.8349 275.736 60.485 274.325 60.6957C272.988 60.7715 271.665 60.3977 270.566 59.634C269.41 58.8666 268.359 57.9512 267.44 56.9111C266.493 55.877 265.634 54.7658 264.872 53.5889L263.853 52.022L262.997 53.7345C262.358 54.9764 261.558 56.1281 260.616 57.1594C259.693 58.2047 258.605 59.0925 257.397 59.7881C256.177 60.485 254.828 60.9277 253.432 61.0896C251.964 61.2303 250.484 61.1495 249.04 60.8499C250.408 61.5751 251.913 62.0067 253.458 62.1171C255.059 62.1997 256.657 61.9064 258.124 61.2609C259.595 60.6136 260.929 59.6924 262.055 58.5466C263.193 57.4094 264.154 56.1077 264.906 54.6849L263.056 54.7877C263.914 56.0782 264.895 57.2826 265.985 58.3839C267.092 59.5075 268.369 60.4495 269.769 61.1752C270.498 61.5408 271.277 61.7948 272.081 61.9287C272.9 62.0564 273.737 62.0126 274.539 61.8003C276.049 61.2987 277.311 60.2389 278.066 58.8377Z" fill="#183B59"/>
<path d="M296.013 27.7559C296.635 27.7563 297.242 27.5632 297.749 27.2033C298.256 26.8434 298.639 26.3346 298.844 25.7474C299.049 25.1603 299.067 24.5238 298.894 23.9263C298.721 23.3288 298.366 22.7999 297.88 22.4129C291.432 17.2754 283.452 18.2002 278.905 21.7536C278.278 22.243 277.872 22.9613 277.774 23.7506C277.677 24.5398 277.898 25.3353 278.387 25.9621C278.876 26.5888 279.595 26.9955 280.384 27.0927C281.173 27.1898 281.969 26.9695 282.595 26.4801C285.233 24.4165 290.173 23.9114 294.155 27.1052C294.683 27.5263 295.338 27.7558 296.013 27.7559Z" fill="#FFB546"/>
<path d="M231.084 27.7559C231.762 27.7571 232.42 27.5276 232.951 27.1052C236.932 23.9371 241.873 24.4166 244.51 26.4801C245.137 26.9695 245.932 27.1899 246.722 27.0927C247.511 26.9956 248.229 26.5889 248.718 25.9621C249.208 25.3353 249.428 24.5398 249.331 23.7506C249.234 22.9614 248.827 22.243 248.2 21.7537C243.645 18.2002 235.674 17.284 229.217 22.413C228.731 22.8 228.376 23.3289 228.203 23.9264C228.03 24.5238 228.048 25.1603 228.253 25.7475C228.458 26.3347 228.841 26.8435 229.348 27.2033C229.855 27.5632 230.462 27.7564 231.084 27.7559Z" fill="#FFB546"/>
<path d="M131.949 104.732C128.833 104.732 126.307 102.206 126.307 99.0898C126.307 95.9734 128.833 93.4471 131.949 93.4471C135.066 93.4471 137.592 95.9734 137.592 99.0898C137.592 102.206 135.066 104.732 131.949 104.732Z" fill="#FF790B"/>
<path d="M126.194 115.59C124.095 115.59 122.393 113.888 122.393 111.788C122.393 109.688 124.095 107.986 126.194 107.986C128.294 107.986 129.996 109.688 129.996 111.788C129.996 113.888 128.294 115.59 126.194 115.59Z" fill="#FF790B"/>
<path d="M118.601 106.257C116.501 106.257 114.799 104.554 114.799 102.455C114.799 100.355 116.501 98.6531 118.601 98.6531C120.7 98.6531 122.402 100.355 122.402 102.455C122.402 104.554 120.7 106.257 118.601 106.257Z" fill="#FF790B"/>
</svg>
