<svg width="161" height="171" viewBox="0 0 161 171" fill="none" xmlns="http://www.w3.org/2000/svg">
<path d="M97.8212 125.56C102.751 125.75 107.301 126.97 111.711 128.46C116.111 129.98 120.351 131.84 124.461 134.03C128.571 136.21 132.551 138.69 136.331 141.77C138.211 143.33 140.061 145.03 141.751 147.2C142.581 148.32 143.421 149.51 144.071 151.11C144.701 152.66 145.241 154.67 144.831 157.06C144.281 159.72 141.691 161.43 139.021 160.89C136.361 160.34 134.651 157.75 135.191 155.08C135.221 155.26 135.301 155 135.151 154.48C135.041 153.98 134.661 153.26 134.241 152.55C133.331 151.11 132.021 149.61 130.591 148.19C127.691 145.35 124.291 142.74 120.721 140.41C117.141 138.07 113.361 135.97 109.461 134.21C105.571 132.47 101.501 131.01 97.5211 130.5L97.4311 130.49C96.0711 130.32 95.1212 129.07 95.2912 127.72C95.4312 126.43 96.5512 125.51 97.8212 125.56Z" fill="#8BD74B"/>
<path d="M95.34 127.36C98.68 128.71 101.85 130.27 104.97 131.96C108.08 133.66 111.13 135.46 114.1 137.45C117.08 139.44 119.99 141.57 122.78 144.11C124.18 145.39 125.54 146.77 126.84 148.46C127.48 149.35 128.12 150.24 128.68 151.42C129.22 152.59 129.75 153.96 129.82 155.81C129.82 158.53 127.62 160.72 124.91 160.72C122.19 160.72 120 158.52 120 155.81C120.05 155.92 120.07 155.62 119.94 155.21C119.83 154.8 119.54 154.23 119.24 153.67C118.58 152.53 117.66 151.31 116.64 150.14C114.6 147.77 112.18 145.5 109.66 143.34C107.14 141.18 104.47 139.13 101.73 137.18C98.99 135.24 96.16 133.41 93.27 131.82L93.24 131.81C92.04 131.15 91.6 129.65 92.26 128.45C92.85 127.35 94.19 126.89 95.34 127.36Z" fill="#8BD74B"/>
<path d="M99.3411 123.87C103.071 122.72 106.771 122.52 110.401 122.57C114.021 122.67 117.591 123.1 121.121 123.76C124.651 124.43 128.141 125.32 131.621 126.54C132.491 126.87 133.361 127.19 134.231 127.55C135.101 127.96 135.971 128.3 136.861 128.77C137.751 129.26 138.621 129.67 139.541 130.35L140.221 130.82C140.451 130.97 140.671 131.13 140.921 131.37C141.411 131.8 141.891 132.24 142.361 132.71C144.301 134.61 144.331 137.71 142.441 139.65C140.541 141.59 137.441 141.62 135.501 139.73C135.471 139.7 135.451 139.68 135.421 139.65L134.821 139.03C134.681 138.89 134.551 138.74 134.431 138.56C134.391 138.48 134.281 138.38 134.161 138.28L133.821 137.98C133.421 137.57 132.791 137.17 132.221 136.76C131.651 136.35 130.961 135.99 130.321 135.59C129.651 135.22 128.951 134.87 128.261 134.5C125.441 133.1 122.411 131.93 119.311 130.96C116.221 129.99 113.051 129.22 109.871 128.74C106.711 128.3 103.491 128.14 100.581 128.66L100.471 128.68C99.1311 128.92 97.8411 128.03 97.6011 126.68C97.4211 125.42 98.1611 124.23 99.3411 123.87Z" fill="#8BD74B"/>
<path d="M90.0404 136.5C87.5604 136.5 85.2104 135.03 84.2104 132.59C82.8904 129.37 84.4204 125.69 87.6404 124.37C87.7304 124.33 93.4104 121.99 101.27 118.42C99.3904 118.57 97.4604 117.88 96.1004 116.38C93.7604 113.8 93.9504 109.82 96.5304 107.48C105.96 98.9101 137.97 71.5501 153.74 79.4301C155.88 80.5001 160.78 83.8801 160 92.1801C159.47 97.8701 154.81 105.8 124.28 121.35C108.46 129.41 93.0704 135.76 92.4204 136.03C91.6504 136.35 90.8404 136.5 90.0404 136.5ZM147.16 90.5801C142.71 90.5801 128.03 95.9301 105.22 116.61C108.99 114.86 113.08 112.9 117.2 110.82C143.55 97.5401 147.1 91.6101 147.49 90.7901C147.5 90.7201 147.5 90.6501 147.5 90.5801C147.38 90.5801 147.27 90.5801 147.16 90.5801Z" fill="#8BD74B"/>
<path d="M44.3006 87.9501C44.2606 87.9501 44.2206 87.9501 44.1706 87.9501C22.9706 87.4201 7.17057 77.9401 1.89057 62.5901C-2.51943 49.7901 1.66057 35.3301 12.2806 26.6001C14.3806 24.8801 17.4706 25.1801 19.2006 27.2801C20.9206 29.3801 20.6206 32.4701 18.5206 34.2001C11.0606 40.3301 8.11057 50.4601 11.1906 59.3901C15.1406 70.8701 27.2506 77.7001 44.4306 78.1201C47.1406 78.1901 49.2906 80.4401 49.2206 83.1501C49.1506 85.8301 46.9606 87.9501 44.3006 87.9501Z" fill="#8BD74B"/>
<path d="M15.3806 27.9701L14.9306 25.9501C14.8106 25.2601 14.7306 24.5501 14.6306 23.8501C14.5406 22.4101 14.4906 20.9301 14.7806 19.3801C15.0306 17.8401 15.5406 16.2401 16.4806 14.7501C16.9606 14.0201 17.5006 13.2901 18.1906 12.6501C18.5206 12.3201 18.9006 12.0301 19.2906 11.7401C19.5006 11.6001 19.6906 11.4601 19.9406 11.3301C20.0606 11.2601 20.1506 11.2001 20.3106 11.1301C20.4706 11.0601 20.5406 11.0101 20.8506 10.9001C22.6706 10.3201 24.6206 11.3301 25.2006 13.1501C25.7806 14.9701 24.7706 16.9201 22.9506 17.5001C23.1106 17.4401 23.0306 17.4501 23.0406 17.4501C23.0406 17.4401 22.9906 17.4601 22.9706 17.4601C22.9206 17.4601 22.8406 17.4901 22.7706 17.5101C22.6306 17.5601 22.4606 17.6201 22.3106 17.7201C21.9806 17.8801 21.6806 18.1401 21.3706 18.4101C20.7606 18.9801 20.2506 19.8001 19.8606 20.7401C19.4406 21.6701 19.2306 22.7801 19.0506 23.9001C19.0106 24.4701 18.9406 25.0501 18.9206 25.6501V27.4501V27.6101C18.9206 28.6001 18.1306 29.4001 17.1406 29.4001C16.2706 29.3701 15.5606 28.7701 15.3806 27.9701Z" fill="#8BD74B"/>
<path d="M15.8198 28.3L16.7098 26.42C17.0398 25.81 17.3998 25.2 17.7598 24.58C18.5698 23.39 19.4398 22.2 20.5998 21.16C21.7298 20.11 23.0998 19.16 24.7298 18.56C25.5498 18.27 26.4098 18.04 27.3198 17.95C27.7698 17.89 28.2398 17.89 28.7298 17.9C28.9798 17.91 29.2098 17.92 29.4798 17.96C29.6098 17.98 29.7298 17.99 29.8898 18.02C30.0598 18.05 30.1398 18.06 30.4398 18.15C32.1398 18.75 33.0298 20.62 32.4198 22.32C31.8198 24.02 29.9498 24.91 28.2498 24.3C28.3998 24.34 28.3298 24.31 28.3398 24.31C28.3498 24.3 28.2898 24.29 28.2698 24.28C28.2198 24.25 28.1398 24.23 28.0598 24.21C27.9098 24.17 27.7298 24.12 27.5398 24.1C27.1698 24.04 26.7598 24.07 26.3398 24.11C25.4898 24.22 24.5898 24.58 23.7098 25.12C22.8198 25.63 21.9898 26.4 21.1698 27.2C20.7998 27.64 20.3998 28.07 20.0198 28.53L18.9498 29.98L18.8598 30.11C18.2798 30.9 17.1598 31.07 16.3598 30.49C15.6798 29.99 15.4598 29.07 15.8198 28.3Z" fill="#8BD74B"/>
<path d="M16.9713 30.59C17.9613 29.7 19.0713 28.82 20.4113 28.28C21.7213 27.7 23.1913 27.37 24.6513 27.35C26.1113 27.32 27.5513 27.53 28.9213 27.92C29.6013 28.12 30.2713 28.35 30.9213 28.64C31.2513 28.78 31.5713 28.93 31.8913 29.1C32.2313 29.29 32.5013 29.41 32.9413 29.72L34.9413 31.08C36.7613 32.32 37.2213 34.81 35.9813 36.62C34.7413 38.44 32.2513 38.9 30.4413 37.66C29.4913 37.01 28.9013 35.99 28.7413 34.93C28.7313 34.88 28.5213 34.69 28.3813 34.57C28.2113 34.43 28.0513 34.29 27.8713 34.16C27.5213 33.89 27.1413 33.65 26.7513 33.42C25.9813 32.97 25.1513 32.65 24.3213 32.47C23.4913 32.27 22.6313 32.25 21.7713 32.4C20.9013 32.51 20.0513 32.92 19.1913 33.37L18.9713 33.48C18.1013 33.93 17.0313 33.59 16.5713 32.73C16.2013 32.01 16.3813 31.13 16.9713 30.59Z" fill="#8BD74B"/>
<path d="M106.561 94.9202C107.451 126.06 92.8506 141.57 73.9506 142.1C55.0506 142.64 39.0106 128 38.1206 96.8602C37.2306 65.7202 51.8406 29.8802 70.7406 29.3502C89.6406 28.8202 105.681 63.7802 106.561 94.9202Z" fill="#8BD74B"/>
<path d="M92.3298 100.76C93.1199 128.41 80.3599 142.95 63.8399 143.43C47.3199 143.9 33.2799 130.13 32.4899 102.47C31.6999 74.8201 44.4599 43.7601 60.9799 43.2901C77.5099 42.8201 91.5499 73.1101 92.3298 100.76Z" fill="#B0E881"/>
<path d="M53.0706 119.7C56.8006 119.7 59.8306 116.68 59.8306 112.94C59.8306 109.21 56.8106 106.18 53.0706 106.18C49.3306 106.18 46.3105 109.2 46.3105 112.94C46.3105 116.68 49.3406 119.7 53.0706 119.7Z" fill="#DFF6CD"/>
<path d="M53.0905 119.9C52.6105 119.9 52.1305 119.85 51.6505 119.75C49.8305 119.37 48.2805 118.3 47.2605 116.75C46.2505 115.19 45.9005 113.35 46.2805 111.53C46.6605 109.71 47.7305 108.16 49.2805 107.14C50.8405 106.13 52.6905 105.78 54.5005 106.16C58.2505 106.95 60.6605 110.63 59.8705 114.38C59.4905 116.2 58.4205 117.75 56.8705 118.77C55.7205 119.51 54.4205 119.9 53.0905 119.9ZM51.7205 119.38C53.4405 119.74 55.1905 119.41 56.6605 118.45C58.1305 117.49 59.1405 116.02 59.5005 114.3C60.2505 110.76 57.9605 107.27 54.4305 106.52C52.7105 106.16 50.9605 106.49 49.4905 107.45C48.0205 108.41 47.0105 109.88 46.6505 111.6C46.2905 113.32 46.6205 115.07 47.5805 116.54C48.5305 118.01 50.0005 119.02 51.7205 119.38Z" fill="#F2F2F2"/>
<path d="M76.2305 129.12C78.8505 129.12 80.9805 126.99 80.9805 124.37C80.9805 121.75 78.8505 119.62 76.2305 119.62C73.6005 119.62 71.4805 121.75 71.4805 124.37C71.4705 126.99 73.6005 129.12 76.2305 129.12Z" fill="#DFF6CD"/>
<path d="M76.2309 129.3C75.9009 129.3 75.5609 129.27 75.2209 129.19C73.9209 128.92 72.8209 128.16 72.1009 127.05C71.3809 125.94 71.1309 124.63 71.4109 123.33C71.6809 122.04 72.4409 120.93 73.5509 120.21C74.6609 119.49 75.9709 119.24 77.2709 119.52C78.5709 119.79 79.6709 120.55 80.3909 121.66C81.1109 122.77 81.3609 124.08 81.0809 125.38C80.5709 127.71 78.5209 129.3 76.2309 129.3ZM76.2209 119.8C75.3509 119.8 74.4809 120.05 73.7409 120.54C72.7209 121.21 72.0209 122.23 71.7709 123.42C71.5209 124.61 71.7509 125.83 72.4209 126.85C73.0909 127.87 74.1109 128.57 75.3009 128.82C77.7609 129.34 80.1909 127.75 80.7109 125.29C80.9609 124.1 80.7309 122.88 80.0709 121.86C79.4009 120.84 78.3809 120.14 77.1909 119.89C76.8509 119.83 76.5309 119.8 76.2209 119.8Z" fill="#F2F2F2"/>
<path d="M75.9202 105.23C78.1302 105.23 79.9301 103.44 79.9301 101.22C79.9301 99.01 78.1402 97.21 75.9202 97.21C73.7102 97.21 71.9102 99 71.9102 101.22C71.9202 103.44 73.7102 105.23 75.9202 105.23Z" fill="#DFF6CD"/>
<path d="M75.9296 105.41C75.6396 105.41 75.3596 105.38 75.0696 105.32C72.8096 104.85 71.3496 102.62 71.8296 100.36C72.0596 99.27 72.6996 98.32 73.6396 97.72C74.5696 97.11 75.6996 96.9 76.7896 97.13C77.8796 97.36 78.8296 98 79.4396 98.94C80.0496 99.87 80.2596 101 80.0296 102.09C79.6096 104.06 77.8696 105.41 75.9296 105.41ZM75.9196 97.41C75.1896 97.41 74.4696 97.62 73.8396 98.03C72.9896 98.58 72.3996 99.45 72.1896 100.44C71.9796 101.43 72.1696 102.46 72.7296 103.31C73.2896 104.16 74.1496 104.75 75.1396 104.96C77.1996 105.39 79.2296 104.07 79.6596 102.01C80.0896 99.95 78.7696 97.92 76.7096 97.49C76.4496 97.43 76.1796 97.41 75.9196 97.41Z" fill="#F2F2F2"/>
<path d="M98.0406 46.5801C110.731 46.5801 121.021 36.2901 121.021 23.6001C121.021 10.9101 110.731 0.620117 98.0406 0.620117C85.3506 0.620117 75.0605 10.9101 75.0605 23.6001C75.0605 36.2901 85.3506 46.5801 98.0406 46.5801Z" fill="#8BD74B"/>
<path d="M96.6004 39.3902C106.51 39.3902 114.55 31.3502 114.55 21.4402C114.55 11.5302 106.51 3.49023 96.6004 3.49023C86.6904 3.49023 78.6504 11.5302 78.6504 21.4402C78.6504 31.3502 86.6904 39.3902 96.6004 39.3902Z" fill="white"/>
<path d="M90.7309 26.1402C95.9009 26.1402 100.081 21.9502 100.081 16.7902C100.081 11.6202 95.8909 7.44019 90.7309 7.44019C85.5609 7.44019 81.3809 11.6302 81.3809 16.7902C81.3709 21.9502 85.5609 26.1402 90.7309 26.1402Z" fill="#183B59"/>
<path d="M46.0405 44.91C57.8105 44.91 67.3505 35.37 67.3505 23.6C67.3505 11.83 57.8105 2.29004 46.0405 2.29004C34.2705 2.29004 24.7305 11.83 24.7305 23.6C24.7305 35.37 34.2805 44.91 46.0405 44.91Z" fill="#8BD74B"/>
<path d="M44.7106 38.2502C53.9106 38.2502 61.3605 30.8002 61.3605 21.6002C61.3605 12.4002 53.9106 4.9502 44.7106 4.9502C35.5106 4.9502 28.0605 12.4002 28.0605 21.6002C28.0605 30.8002 35.5106 38.2502 44.7106 38.2502Z" fill="white"/>
<path d="M39.8399 25.7301C44.6299 25.7301 48.5099 21.8501 48.5099 17.0601C48.5099 12.2701 44.6299 8.39014 39.8399 8.39014C35.0499 8.39014 31.1699 12.2701 31.1699 17.0601C31.1699 21.8501 35.0499 25.7301 39.8399 25.7301Z" fill="#183B59"/>
<path d="M77.0996 22.5602C92.8896 16.1202 117.47 16.8502 117.47 23.5702C117.47 30.2902 109.49 44.6702 95.4496 42.0402C81.4096 39.4102 77.0996 22.5602 77.0996 22.5602Z" fill="#8BD74B"/>
<path d="M25.2598 24.5102C39.8498 18.6202 63.0898 17.8102 63.0898 23.9802C63.0898 30.1402 55.7098 43.3202 42.7398 40.9102C29.7698 38.4902 25.2598 24.5102 25.2598 24.5102Z" fill="#8BD74B"/>
<path d="M83.37 154C82.84 154 82.29 153.91 81.75 153.73C79.19 152.84 77.83 150.04 78.72 147.47C78.82 147.18 88.86 117.73 84.75 89.2301C84.36 86.5501 86.23 84.0501 88.91 83.6601C91.6 83.2701 94.0901 85.1401 94.4801 87.8301C98.9501 118.76 88.46 149.41 88 150.7C87.31 152.73 85.4 154 83.37 154Z" fill="#8BD74B"/>
<path d="M80.9902 151.01L79.2602 150.48C78.6902 150.34 78.1102 150.23 77.5402 150.1C76.4102 149.95 75.2902 149.83 74.2802 149.96C73.2702 150.05 72.3402 150.31 71.6102 150.73C71.2602 150.94 70.9202 151.16 70.6802 151.43C70.5402 151.55 70.4402 151.69 70.3502 151.81C70.3102 151.87 70.2602 151.94 70.2402 151.98C70.2302 152 70.2002 152.04 70.2102 152.04C70.2202 152.03 70.1802 152.11 70.2902 151.97C69.2102 153.55 67.0502 153.94 65.4802 152.86C63.9002 151.78 63.5102 149.62 64.5902 148.05C64.7902 147.78 64.8602 147.73 64.9702 147.6C65.0802 147.48 65.1702 147.41 65.2702 147.31C65.4702 147.12 65.6602 146.97 65.8602 146.82C66.2502 146.52 66.6502 146.25 67.0502 146.03C67.8602 145.56 68.7102 145.25 69.5502 145C71.2502 144.53 72.9302 144.52 74.4702 144.72C76.0302 144.89 77.4402 145.37 78.7902 145.88C79.4402 146.18 80.0902 146.46 80.7202 146.77L82.5302 147.79C83.3902 148.28 83.6902 149.37 83.2102 150.22C82.7902 150.96 81.9202 151.29 81.1302 151.05L80.9902 151.01Z" fill="#8BD74B"/>
<path d="M83.441 151.81L81.741 152.41C81.191 152.64 80.671 152.89 80.141 153.12C79.141 153.67 78.161 154.23 77.421 154.94C76.651 155.62 76.041 156.38 75.691 157.16C75.531 157.55 75.381 157.93 75.331 158.31C75.281 158.5 75.281 158.68 75.281 158.84C75.291 158.92 75.281 159 75.291 159.06C75.301 159.09 75.301 159.13 75.301 159.13C75.311 159.12 75.311 159.2 75.321 159.04C75.411 160.84 74.011 162.37 72.211 162.46C70.411 162.55 68.881 161.15 68.791 159.35C68.791 159.03 68.811 158.95 68.821 158.78C68.831 158.62 68.861 158.51 68.881 158.37C68.921 158.1 68.981 157.88 69.041 157.64C69.171 157.17 69.311 156.73 69.491 156.31C69.841 155.46 70.311 154.71 70.831 154.01C71.881 152.62 73.181 151.59 74.521 150.81C75.861 150 77.251 149.51 78.631 149.09C79.321 148.93 80.011 148.76 80.691 148.62L82.741 148.31C83.711 148.16 84.621 148.84 84.771 149.81C84.901 150.67 84.391 151.48 83.601 151.75L83.441 151.81Z" fill="#8BD74B"/>
<path d="M86.6104 153.02C85.9304 153.71 85.2904 154.4 84.9304 155.21C84.5404 155.99 84.3004 156.81 84.2504 157.67C84.1804 158.52 84.2604 159.4 84.4604 160.27C84.5604 160.7 84.6904 161.14 84.8504 161.56C84.9204 161.77 85.0104 161.97 85.1004 162.17C85.1804 162.34 85.3004 162.6 85.3404 162.62C87.3404 163.55 88.2004 165.92 87.2704 167.92C86.3404 169.92 83.9704 170.78 81.9704 169.85C80.9204 169.36 80.1804 168.47 79.8504 167.45L79.1204 165.13C78.9604 164.61 78.9104 164.32 78.8304 163.94C78.7604 163.59 78.7104 163.23 78.6704 162.87C78.5804 162.16 78.5504 161.45 78.5604 160.75C78.5804 159.33 78.7904 157.89 79.2504 156.5C79.6804 155.11 80.4304 153.8 81.3704 152.71C82.2804 151.58 83.4404 150.78 84.5804 150.09C85.4204 149.58 86.5204 149.84 87.0204 150.68C87.4504 151.39 87.3304 152.28 86.7704 152.85L86.6104 153.02Z" fill="#8BD74B"/>
<path d="M54.6406 43.9501C56.5806 41.8701 59.4606 40.7501 62.3206 40.4401C63.7606 40.2701 65.2306 40.3001 66.6706 40.5401C68.1206 40.7501 69.5406 41.1701 70.8906 41.7701C73.6206 42.8601 75.9606 45.1401 77.5806 47.1301C79.2706 49.1401 80.7206 51.0101 83.2506 52.2101C81.8906 52.4001 80.4006 52.1601 79.0706 51.6001C77.7206 51.0601 76.5306 50.2501 75.4306 49.4801C73.2506 47.8301 71.3806 46.7301 69.1706 45.9001C68.6406 45.6701 68.0706 45.5201 67.5306 45.3101C66.9606 45.1601 66.4106 44.9701 65.8306 44.8401C64.6906 44.5501 63.5106 44.3101 62.3206 44.1601C59.9006 43.7901 57.4506 43.7301 54.6406 43.9501Z" fill="#46B755"/>
</svg>
