<svg width="243" height="165" viewBox="0 0 243 165" fill="none" xmlns="http://www.w3.org/2000/svg">
<path d="M206.88 127.04C210.15 127.89 213.37 128.93 216.52 130.15C219.67 131.35 222.76 132.65 225.82 134.16C228.97 135.66 231.99 137.4 234.86 139.38C236.44 140.48 237.91 141.72 239.25 143.11C240.05 143.95 240.74 144.89 241.33 145.89C242.13 147.25 242.59 148.78 242.67 150.35C242.67 151.61 242.17 152.82 241.28 153.72C240.39 154.62 239.18 155.11 237.91 155.11C236.64 155.11 235.44 154.61 234.54 153.72C233.65 152.83 233.15 151.62 233.15 150.35C233.2 150.6 233.26 150.45 233.15 150.14C232.97 149.7 232.73 149.28 232.45 148.89C231.63 147.81 230.71 146.81 229.69 145.92C227.39 143.89 224.93 142.05 222.34 140.41C219.67 138.69 216.93 137.1 214.1 135.62C211.3 134.13 208.41 132.79 205.46 131.61C204.9 131.38 204.44 130.95 204.18 130.41C203.92 129.86 203.88 129.23 204.07 128.65C204.26 128.07 204.65 127.59 205.18 127.29C205.71 126.99 206.33 126.91 206.92 127.06H206.88V127.04Z" fill="#8BD74B"/>
<path d="M204.66 128.33C207.22 129.39 209.64 130.77 211.85 132.44C214.02 134.03 216.08 135.78 218 137.66C219.97 139.56 221.79 141.62 223.44 143.81C224.32 145 225.12 146.25 225.82 147.55C226.22 148.29 226.55 149.06 226.84 149.85C227.21 150.86 227.44 151.93 227.51 153C227.51 154.26 227.01 155.47 226.11 156.37C225.22 157.26 224.01 157.76 222.74 157.76C221.48 157.76 220.27 157.26 219.37 156.37C218.48 155.48 217.98 154.27 217.98 153C218.03 153.04 218.05 152.76 217.98 152.43C217.91 152.01 217.8 151.59 217.67 151.19C217.32 150.19 216.9 149.22 216.41 148.29C215.32 146.23 214.06 144.26 212.65 142.41C211.22 140.5 209.66 138.69 207.97 137.01C206.37 135.35 204.58 133.9 202.63 132.68L202.55 132.63C202.03 132.32 201.64 131.83 201.47 131.25C201.3 130.67 201.35 130.05 201.61 129.5C201.88 128.96 202.34 128.53 202.9 128.32C203.46 128.1 204.09 128.1 204.66 128.33Z" fill="#8BD74B"/>
<path d="M207.299 125.66C209.939 124.83 212.679 124.34 215.449 124.19C218.139 124.02 220.829 124.04 223.519 124.24C226.259 124.43 228.969 124.84 231.639 125.46C233.079 125.8 234.489 126.24 235.859 126.8C236.639 127.12 237.399 127.49 238.119 127.92C239.049 128.46 239.899 129.14 240.629 129.92C241.049 130.4 241.369 130.95 241.579 131.56C241.779 132.16 241.859 132.8 241.819 133.44C241.769 134.08 241.599 134.69 241.309 135.26C241.019 135.83 240.619 136.33 240.129 136.74C239.639 137.15 239.079 137.46 238.469 137.64C237.859 137.82 237.219 137.89 236.589 137.82C235.959 137.76 235.339 137.56 234.789 137.26C234.229 136.95 233.739 136.54 233.349 136.04C233.409 136.04 233.239 135.81 232.999 135.59C232.679 135.31 232.329 135.06 231.959 134.84C231.049 134.29 230.109 133.82 229.129 133.42C226.959 132.54 224.729 131.84 222.449 131.32C220.129 130.77 217.779 130.39 215.409 130.17C213.119 129.93 210.809 129.97 208.519 130.29H208.429C207.809 130.44 207.149 130.34 206.609 130.01C206.059 129.68 205.669 129.14 205.519 128.52C205.369 127.9 205.469 127.25 205.799 126.7C206.129 126.15 206.669 125.76 207.289 125.61L207.299 125.66Z" fill="#8BD74B"/>
<path d="M192.41 115.9C195.01 112.15 197.32 108.2 199.31 104.09C201.41 99.86 203.32 95.41 205.1 90.86C206.88 86.31 208.56 81.64 210.26 76.83C211.13 74.41 211.97 72 213.04 69.32C213.31 68.65 213.61 67.94 213.98 67.16C214.16 66.76 214.36 66.34 214.65 65.86C214.98 65.23 215.35 64.62 215.76 64.04C216.16 63.48 216.6 62.96 217.1 62.48C217.3 62.28 217.51 62.09 217.73 61.92L218.16 61.5899C218.32 61.4799 218.42 61.4 218.64 61.26L219.25 60.91L219.58 60.75L219.99 60.56C220.27 60.44 220.56 60.34 220.86 60.25C221.22 60.14 221.59 60.06 221.96 60C222.15 59.97 222.32 59.95 222.53 59.93C222.74 59.91 222.95 59.9 223.16 59.89C224.41 59.86 225.66 60.1 226.81 60.6C227.43 60.86 228.02 61.2 228.56 61.6C228.7 61.7 228.8 61.77 228.89 61.85L229.16 62.08C229.34 62.24 229.52 62.41 229.68 62.57C230.39 63.3 230.98 64.15 231.42 65.07C231.58 65.39 231.66 65.59 231.77 65.85C231.88 66.11 231.94 66.28 232 66.46C232.13 66.83 232.22 67.13 232.29 67.45C232.44 68.03 232.54 68.52 232.62 68.97C232.87 70.48 233.02 72 233.09 73.53L233.17 75.7V77.87C233.13 80.78 232.89 83.68 232.46 86.55C231.58 92.28 229.82 97.85 227.25 103.05C224.72 108.14 221.47 112.83 217.6 116.98C213.84 121.01 209.61 124.56 204.99 127.57C203.98 128.21 202.76 128.45 201.59 128.24C200.41 128.02 199.36 127.37 198.65 126.4C197.94 125.44 197.62 124.24 197.75 123.05C197.89 121.86 198.47 120.77 199.38 119.99C206.65 113.92 212.35 106.3 215.29 97.95C216.76 93.81 217.58 89.47 217.72 85.09C217.8 82.91 217.72 80.73 217.48 78.56L217.28 76.93L217.02 75.3C216.82 74.26 216.59 73.01 216.42 72.32C216.4 72.21 216.36 72.09 216.31 71.99C216.31 71.99 216.31 71.99 216.31 72.07C216.33 72.13 216.35 72.18 216.37 72.24C216.41 72.36 216.46 72.4799 216.52 72.5899C216.85 73.2099 217.28 73.77 217.8 74.25C217.93 74.38 218.08 74.53 218.23 74.66L218.46 74.85L218.74 75.06C219.5 75.62 220.36 76.04 221.28 76.29C222.03 76.5 222.81 76.59 223.58 76.58C223.77 76.58 223.97 76.57 224.16 76.55L224.67 76.48C225 76.43 225.34 76.35 225.66 76.25C225.92 76.18 226.17 76.09 226.41 75.98L226.78 75.82L227.05 75.68C227.23 75.59 227.4 75.49 227.56 75.39C227.75 75.27 227.81 75.22 227.94 75.13C228.06 75.05 228.17 74.97 228.27 74.88C228.43 74.76 228.58 74.63 228.72 74.49C228.99 74.24 229.24 73.96 229.45 73.66C229.64 73.39 229.62 73.41 229.6 73.48L229.44 73.91C229.3 74.28 229.13 74.76 228.96 75.25C228.29 77.33 227.58 79.77 226.9 82.17C225.51 87.03 224.07 92.04 222.47 97.04C220.86 102.04 219.07 107.06 216.97 112.09C214.85 117.27 212.33 122.27 209.43 127.06L209.39 127.12C207.97 129.42 205.7 131.07 203.07 131.69C200.44 132.32 197.67 131.87 195.36 130.46C193.06 129.04 191.41 126.77 190.79 124.14C190.17 121.51 190.61 118.74 192.02 116.44C192.16 116.31 192.29 116.07 192.41 115.9Z" fill="#8BD74B"/>
<path d="M59.139 131.61C56.189 132.79 53.309 134.13 50.499 135.62C47.669 137.1 44.909 138.69 42.259 140.41C39.669 142.05 37.209 143.89 34.909 145.92C33.899 146.82 32.969 147.81 32.149 148.89C31.879 149.28 31.649 149.7 31.479 150.14C31.369 150.45 31.429 150.61 31.479 150.35C31.479 151.61 30.979 152.82 30.089 153.72C29.199 154.61 27.989 155.12 26.719 155.12C25.459 155.12 24.249 154.62 23.349 153.72C22.459 152.83 21.959 151.62 21.959 150.35C22.029 148.78 22.489 147.24 23.299 145.89C23.879 144.89 24.579 143.95 25.379 143.11C26.719 141.73 28.189 140.48 29.769 139.38C32.629 137.4 35.649 135.65 38.789 134.14C41.839 132.64 44.939 131.33 48.089 130.13C51.239 128.92 54.459 127.88 57.729 127.02C58.319 126.87 58.939 126.96 59.469 127.25C59.999 127.55 60.399 128.03 60.579 128.61C60.769 129.19 60.729 129.82 60.469 130.37C60.209 130.92 59.749 131.35 59.189 131.58L59.139 131.61Z" fill="#8BD74B"/>
<path d="M61.9596 132.68C60.0096 133.9 58.2096 135.35 56.6196 137.01C54.9396 138.7 53.3696 140.5 51.9396 142.41C50.5296 144.27 49.2796 146.24 48.1796 148.29C47.6796 149.22 47.2596 150.19 46.9196 151.19C46.7796 151.59 46.6696 152.01 46.6096 152.43C46.5596 152.76 46.6096 153.04 46.6096 153C46.6096 153.63 46.4896 154.24 46.2496 154.82C46.0096 155.4 45.6596 155.92 45.2196 156.36C44.7796 156.8 44.2496 157.15 43.6796 157.39C43.0996 157.63 42.4796 157.75 41.8596 157.75C41.2396 157.75 40.6196 157.63 40.0396 157.39C39.4596 157.15 38.9396 156.8 38.4896 156.36C38.0496 155.92 37.6996 155.39 37.4596 154.82C37.2196 154.24 37.0996 153.62 37.0996 153C37.1696 151.92 37.3996 150.86 37.7696 149.85C38.0496 149.06 38.3896 148.29 38.7896 147.55C39.4896 146.24 40.2896 144.99 41.1696 143.81C42.8196 141.62 44.6296 139.56 46.6096 137.66C48.5396 135.78 50.5896 134.04 52.7596 132.44C54.9696 130.77 57.3896 129.39 59.9496 128.33C60.5096 128.1 61.1396 128.1 61.6996 128.32C62.2596 128.54 62.7296 128.96 62.9896 129.5C63.2596 130.04 63.3096 130.67 63.1296 131.25C62.9596 131.83 62.5696 132.32 62.0496 132.63L61.9596 132.68Z" fill="#8BD74B"/>
<path d="M56.059 130.33C53.779 130.01 51.469 129.97 49.169 130.21C46.799 130.42 44.439 130.8 42.119 131.34C39.839 131.86 37.609 132.56 35.439 133.44C34.459 133.84 33.509 134.32 32.609 134.86C32.239 135.08 31.899 135.33 31.569 135.61C31.319 135.84 31.159 136.06 31.219 136.06C30.829 136.56 30.329 136.98 29.779 137.28C29.219 137.59 28.609 137.78 27.969 137.84C27.339 137.91 26.699 137.84 26.089 137.66C25.479 137.47 24.919 137.17 24.429 136.76C23.939 136.35 23.539 135.85 23.249 135.28C22.959 134.71 22.789 134.09 22.739 133.46C22.689 132.82 22.769 132.19 22.979 131.58C23.179 130.98 23.509 130.42 23.929 129.94C24.669 129.16 25.509 128.48 26.439 127.94C27.169 127.52 27.919 127.14 28.699 126.82C30.069 126.27 31.479 125.82 32.919 125.48C35.589 124.86 38.309 124.45 41.039 124.26C43.719 124.05 46.419 124.03 49.109 124.21C51.879 124.36 54.609 124.85 57.259 125.68C57.879 125.83 58.409 126.22 58.749 126.77C59.079 127.32 59.179 127.97 59.029 128.59C58.879 129.21 58.489 129.74 57.939 130.08C57.389 130.41 56.739 130.51 56.119 130.36L56.059 130.33Z" fill="#8BD74B"/>
<path d="M54.9497 130.23C46.1597 124.89 37.6297 119.3 29.1697 113.89C24.9497 111.22 20.7297 108.55 16.5897 106.08C14.5397 104.88 12.4497 103.71 10.6597 102.85C10.2197 102.64 9.80973 102.46 9.47973 102.34C9.15973 102.21 8.90972 102.14 9.16972 102.17C9.64972 102.22 10.1297 102.2 10.6097 102.12C11.3997 102 12.1697 101.74 12.8797 101.37L13.2497 101.16L13.6597 100.89C13.9397 100.68 14.2097 100.46 14.4597 100.22C14.9797 99.7199 15.4297 99.1599 15.7997 98.5399C16.3497 97.6099 16.6897 96.5799 16.7997 95.4999C16.8497 95.0099 16.8297 94.5099 16.7597 94.0199C16.7297 93.7399 16.6597 93.4699 16.5397 93.2099C16.4897 93.1399 16.5997 93.4499 16.7697 93.7699L17.4197 94.9499C17.8597 95.7599 18.3597 96.5299 18.9097 97.2699C20.1297 98.8899 21.5097 100.38 23.0297 101.72C26.4497 104.68 30.2097 107.22 34.2197 109.29C38.4597 111.52 42.8397 113.45 47.3397 115.08C49.6197 115.92 51.9297 116.69 54.2597 117.4C55.4197 117.75 56.5897 118.09 57.7697 118.42L59.5297 118.89L61.2197 119.31L61.4597 119.37C62.6297 119.66 63.6397 120.38 64.2897 121.39C64.9397 122.4 65.1797 123.62 64.9597 124.8C64.7397 125.98 64.0797 127.03 63.1097 127.75C62.1397 128.46 60.9397 128.77 59.7497 128.63L57.7497 128.38L55.7897 128.11C54.4897 127.92 53.1897 127.7 51.8997 127.44C49.3097 127 46.7397 126.46 44.1697 125.85C38.9697 124.64 33.8497 123.08 28.8597 121.17C23.5997 119.21 18.5897 116.62 13.9397 113.48C11.4297 111.76 9.10972 109.8 6.98972 107.62C5.86972 106.46 4.82972 105.22 3.87972 103.93L3.15973 102.91C2.93973 102.56 2.71972 102.24 2.48972 101.83C1.93972 100.92 1.46973 99.9699 1.07973 98.9799C0.739728 98.1299 0.509729 97.2499 0.369729 96.3499C0.239729 95.5499 0.219727 94.7299 0.289727 93.9199C0.409727 92.5299 0.849723 91.1899 1.55972 89.9899C2.00972 89.2299 2.56973 88.5399 3.21973 87.9499C3.52973 87.6599 3.85972 87.3999 4.19972 87.1599C4.36972 87.0499 4.52972 86.9299 4.70972 86.8299L5.17973 86.5599C6.16973 86.0399 7.23972 85.6899 8.34972 85.5299C9.45972 85.3699 10.5797 85.3699 11.6897 85.5299C12.8197 85.6899 13.9397 85.9499 15.0297 86.3099C15.8997 86.5899 16.6697 86.8799 17.3897 87.1599C20.2497 88.2999 22.6397 89.4799 25.0297 90.6899C29.7597 93.0899 34.2297 95.5699 38.6997 98.0399C47.5997 102.98 56.3297 107.93 65.0997 112.57C66.2797 113.19 67.3297 114.05 68.1897 115.08C69.0397 116.11 69.6897 117.3 70.0797 118.58C70.4797 119.86 70.6197 121.2 70.4897 122.54C70.3697 123.87 69.9797 125.17 69.3597 126.35C68.7397 127.53 67.8797 128.58 66.8497 129.44C65.8197 130.29 64.6297 130.94 63.3497 131.33C62.0697 131.73 60.7297 131.87 59.3897 131.74C58.0597 131.62 56.7597 131.23 55.5797 130.61C55.3997 130.52 55.2297 130.42 55.0597 130.31L54.9497 130.23Z" fill="#8BD74B"/>
<path d="M210.21 95.6397C210.26 100.32 209.66 104.99 208.43 109.51C200.33 138.08 166.35 147.88 125.61 147.88C84.8697 147.88 50.8897 138.08 42.8197 109.51C41.5797 104.99 40.9697 100.32 41.0097 95.6397C41.0097 56.3097 78.8797 5.46973 125.61 5.46973C172.34 5.46973 210.21 56.3197 210.21 95.6397Z" fill="#8BD74B"/>
<path d="M208.44 109.51C200.34 138.08 166.36 147.88 125.62 147.88C84.8801 147.88 50.9001 138.08 42.8301 109.51C50.8901 73.5599 84.8801 34.9399 125.62 34.9399C166.36 34.9399 200.34 73.5599 208.44 109.51Z" fill="#B0E881"/>
<path d="M164.56 125.57C170.72 125.57 175.72 120.57 175.72 114.41C175.72 108.25 170.72 103.25 164.56 103.25C158.4 103.25 153.4 108.25 153.4 114.41C153.4 120.57 158.4 125.57 164.56 125.57Z" fill="#DFF6CD"/>
<path d="M164.57 125.71C162.33 125.71 160.15 125.05 158.29 123.81C156.43 122.57 154.98 120.8 154.13 118.74C153.27 116.67 153.05 114.4 153.49 112.21C153.93 110.02 155 108 156.58 106.42C158.16 104.84 160.17 103.76 162.37 103.33C164.56 102.89 166.83 103.12 168.9 103.97C170.96 104.82 172.73 106.27 173.97 108.13C175.21 109.99 175.87 112.17 175.87 114.41C175.87 117.41 174.67 120.28 172.56 122.4C170.45 124.52 167.56 125.71 164.57 125.71ZM164.57 103.39C162.39 103.39 160.26 104.04 158.45 105.25C156.64 106.46 155.22 108.18 154.39 110.2C153.56 112.21 153.34 114.43 153.76 116.57C154.18 118.71 155.23 120.67 156.78 122.21C158.32 123.75 160.29 124.8 162.42 125.23C164.56 125.65 166.77 125.44 168.79 124.6C170.8 123.77 172.52 122.35 173.74 120.54C174.95 118.73 175.6 116.6 175.6 114.42C175.6 111.5 174.43 108.7 172.37 106.63C170.29 104.56 167.49 103.39 164.57 103.39Z" fill="#F2F2F2"/>
<path d="M139.119 109.94C143.309 109.94 146.709 106.54 146.709 102.35C146.709 98.1598 143.309 94.7598 139.119 94.7598C134.929 94.7598 131.529 98.1598 131.529 102.35C131.529 106.54 134.929 109.94 139.119 109.94Z" fill="#DFF6CD"/>
<path d="M139.119 110.08C137.589 110.08 136.099 109.63 134.829 108.78C133.559 107.93 132.569 106.72 131.979 105.31C131.399 103.9 131.239 102.34 131.539 100.85C131.839 99.35 132.569 97.97 133.649 96.89C134.729 95.81 136.109 95.07 137.609 94.78C139.109 94.48 140.659 94.64 142.069 95.22C143.479 95.81 144.689 96.8 145.539 98.07C146.389 99.34 146.839 100.83 146.839 102.36C146.839 104.41 146.019 106.37 144.569 107.82C143.129 109.26 141.169 110.08 139.119 110.08ZM139.119 94.91C137.649 94.91 136.209 95.35 134.979 96.17C133.759 96.99 132.799 98.15 132.239 99.51C131.679 100.87 131.529 102.37 131.819 103.81C132.109 105.25 132.819 106.58 133.859 107.62C134.899 108.66 136.229 109.37 137.669 109.66C139.109 109.95 140.609 109.8 141.969 109.24C143.329 108.68 144.489 107.72 145.309 106.5C146.129 105.28 146.569 103.84 146.569 102.36C146.559 100.39 145.769 98.51 144.379 97.12C142.979 95.73 141.099 94.95 139.129 94.94V94.91H139.119Z" fill="#F2F2F2"/>
<path d="M155.86 95.6598C157.96 95.6598 159.65 93.9598 159.65 91.8698C159.65 89.7698 157.95 88.0798 155.86 88.0798C153.77 88.0798 152.07 89.7798 152.07 91.8698C152.07 93.9598 153.76 95.6598 155.86 95.6598Z" fill="#DFF6CD"/>
<path d="M155.861 95.7999C155.081 95.7999 154.321 95.5699 153.671 95.1399C153.021 94.7099 152.521 94.0899 152.221 93.3699C151.921 92.6499 151.841 91.8599 152.001 91.0999C152.151 90.3399 152.531 89.6399 153.081 89.0899C153.631 88.5399 154.331 88.1699 155.091 88.0099C155.851 87.8599 156.641 87.9399 157.361 88.2299C158.081 88.5299 158.691 89.0299 159.131 89.6799C159.561 90.3299 159.791 91.0899 159.791 91.8699C159.791 92.9099 159.381 93.9099 158.641 94.6499C157.901 95.3799 156.901 95.7999 155.861 95.7999ZM155.861 88.2099C155.141 88.2099 154.431 88.4199 153.831 88.8299C153.231 89.2299 152.761 89.7999 152.481 90.4699C152.201 91.1399 152.131 91.8699 152.271 92.5799C152.411 93.2899 152.761 93.9399 153.271 94.4499C153.781 94.9599 154.431 95.3099 155.141 95.4499C155.851 95.5899 156.581 95.5199 157.251 95.2399C157.921 94.9599 158.491 94.4999 158.891 93.8899C159.291 93.2899 159.511 92.5799 159.511 91.8599C159.511 90.8899 159.121 89.9599 158.441 89.2799C157.761 88.5999 156.831 88.2099 155.861 88.2099Z" fill="#F2F2F2"/>
<path d="M177.51 48.2197C180.84 48.2197 183.53 45.5197 183.53 42.1997C183.53 38.8697 180.83 36.1797 177.51 36.1797C174.18 36.1797 171.49 38.8797 171.49 42.1997C171.49 45.5197 174.19 48.2197 177.51 48.2197Z" fill="#B0E881"/>
<path d="M73.7193 48.2197C77.0493 48.2197 79.7393 45.5197 79.7393 42.1997C79.7393 38.8697 77.0393 36.1797 73.7193 36.1797C70.3893 36.1797 67.6992 38.8797 67.6992 42.1997C67.6892 45.5197 70.3893 48.2197 73.7193 48.2197Z" fill="#B0E881"/>
<path d="M166.269 34.5298C175.779 34.5298 183.489 26.8198 183.489 17.3098C183.489 7.79984 175.779 0.0898438 166.269 0.0898438C156.759 0.0898438 149.049 7.79984 149.049 17.3098C149.049 26.8198 156.759 34.5298 166.269 34.5298Z" fill="#8BD74B"/>
<path d="M165.2 29.1397C172.63 29.1397 178.65 23.1197 178.65 15.6897C178.65 8.25975 172.63 2.23975 165.2 2.23975C157.77 2.23975 151.75 8.25975 151.75 15.6897C151.74 23.1197 157.77 29.1397 165.2 29.1397Z" fill="white"/>
<path d="M159.43 19.5298C162.2 19.5298 164.44 17.2898 164.44 14.5198C164.44 11.7498 162.2 9.50977 159.43 9.50977C156.66 9.50977 154.42 11.7498 154.42 14.5198C154.42 17.2898 156.66 19.5298 159.43 19.5298Z" fill="#183B59"/>
<path d="M84.9505 34.5298C94.4605 34.5298 102.17 26.8198 102.17 17.3098C102.17 7.79984 94.4605 0.0898438 84.9505 0.0898438C75.4405 0.0898438 67.7305 7.79984 67.7305 17.3098C67.7305 26.8198 75.4405 34.5298 84.9505 34.5298Z" fill="#8BD74B"/>
<path d="M83.8797 29.1397C91.3097 29.1397 97.3297 23.1197 97.3297 15.6897C97.3297 8.25975 91.3097 2.23975 83.8797 2.23975C76.4497 2.23975 70.4297 8.25975 70.4297 15.6897C70.4297 23.1197 76.4497 29.1397 83.8797 29.1397Z" fill="white"/>
<path d="M79.4397 19.5298C82.2097 19.5298 84.4497 17.2898 84.4497 14.5198C84.4497 11.7498 82.2097 9.50977 79.4397 9.50977C76.6697 9.50977 74.4297 11.7498 74.4297 14.5198C74.4297 17.2898 76.6797 19.5298 79.4397 19.5298Z" fill="#183B59"/>
<path d="M55.2995 76.6698C61.1395 78.1298 67.2295 78.2698 73.1295 77.0898C75.1095 76.6698 77.0694 76.1198 78.9794 75.4498C82.8694 74.0198 86.5595 72.0898 89.9595 69.7098C91.6895 68.4998 93.3395 67.1898 94.9095 65.7898C95.6995 65.0898 96.4594 64.3598 97.1894 63.6098C97.5594 63.2398 97.9195 62.8598 98.2695 62.4798L98.7794 61.9098L99.2194 61.3998L99.4294 61.1598C100.049 60.4398 100.919 59.9798 101.869 59.8798C102.819 59.7798 103.769 60.0598 104.519 60.6398C105.269 61.2298 105.769 62.0798 105.909 63.0198C106.049 63.9598 105.819 64.9198 105.269 65.6998L104.679 66.5398L104.119 67.2998C103.749 67.7898 103.369 68.2798 102.969 68.7498C102.189 69.6998 101.389 70.6098 100.549 71.4998C98.8794 73.2798 97.1095 74.9698 95.2395 76.5398C91.4495 79.7398 87.2594 82.4298 82.7794 84.5498C80.4894 85.5998 78.1294 86.4898 75.7194 87.2198C68.3494 89.3998 60.5994 89.9098 53.0094 88.7198C52.2094 88.5998 51.4494 88.3298 50.7494 87.9198C50.0594 87.5098 49.4494 86.9598 48.9694 86.3198C48.4894 85.6698 48.1394 84.9398 47.9394 84.1598C47.7394 83.3798 47.6995 82.5698 47.8195 81.7698C47.9395 80.9698 48.2094 80.2098 48.6194 79.5098C49.0294 78.8198 49.5794 78.2098 50.2194 77.7298C50.8594 77.2498 51.5995 76.8998 52.3795 76.6998C53.1595 76.4998 53.9695 76.4598 54.7695 76.5798C54.9395 76.5998 55.1195 76.6298 55.2995 76.6698Z" fill="#8BD74B"/>
<path d="M101.099 59.9998C100.959 59.2298 100.769 58.4598 100.689 57.6598L100.619 56.4398C100.619 56.2398 100.619 56.0298 100.619 55.8298L100.669 55.1998C100.759 53.4598 101.239 51.7598 102.059 50.2198C102.889 48.6498 104.019 47.2698 105.399 46.1498C106.079 45.5998 106.799 45.0998 107.559 44.6598C107.939 44.4398 108.329 44.2298 108.729 44.0498C108.919 43.9498 109.139 43.8598 109.349 43.7698L109.679 43.6398L109.859 43.5698L110.099 43.4998C110.519 43.3698 110.969 43.3298 111.409 43.3898C111.849 43.4398 112.269 43.5798 112.649 43.7998C113.029 44.0198 113.369 44.3198 113.629 44.6698C113.889 45.0198 114.079 45.4298 114.189 45.8598C114.289 46.2898 114.309 46.7398 114.229 47.1698C114.149 47.6098 113.989 48.0198 113.749 48.3898C113.509 48.7598 113.189 49.0798 112.819 49.3198C112.449 49.5598 112.039 49.7298 111.599 49.8098H111.519H111.349C111.229 49.8098 111.099 49.8598 110.979 49.8998C110.719 49.9698 110.459 50.0398 110.199 50.1298C109.679 50.3198 109.179 50.5398 108.689 50.7998C107.729 51.3098 106.889 51.9998 106.209 52.8398C105.499 53.6998 104.999 54.7098 104.739 55.7998L104.619 56.2198C104.579 56.3698 104.579 56.5198 104.549 56.6698L104.429 57.5698C104.379 58.1798 104.429 58.8298 104.429 59.4698V59.7598C104.429 60.1798 104.269 60.5798 103.989 60.8798C103.709 61.1898 103.319 61.3698 102.899 61.4098C102.479 61.4398 102.069 61.3198 101.749 61.0598C101.419 60.7998 101.209 60.4298 101.139 60.0198L101.099 59.9998Z" fill="#8BD74B"/>
<path d="M101.51 60.3098C102.02 59.0498 102.66 57.8498 103.41 56.7198C104.27 55.3398 105.5 54.2198 106.96 53.4798C107.95 53.0198 109.06 52.8598 110.14 53.0198C111.24 53.2098 112.27 53.6898 113.11 54.4298C113.86 55.0798 114.47 55.8798 114.91 56.7698C115.37 57.6798 115.64 58.6798 115.7 59.6998L115.77 60.8698C115.82 61.7298 115.53 62.5798 114.96 63.2298C114.39 63.8798 113.58 64.2698 112.72 64.3298C111.86 64.3798 111.01 64.0998 110.36 63.5198C109.71 62.9498 109.32 62.1398 109.26 61.2798C109.23 60.7398 109.33 60.1898 109.56 59.6998C109.62 59.4798 109.62 59.2498 109.56 59.0298C109.51 58.7998 109.42 58.5698 109.3 58.3598C109.23 58.2398 109.16 58.1298 109.07 58.0298C109.02 57.9598 108.9 57.8798 108.64 57.9198C107.82 58.1598 107.09 58.6198 106.53 59.2598C105.75 60.0598 105.05 60.9298 104.45 61.8698C104.22 62.2198 103.87 62.4698 103.46 62.5798C103.05 62.6798 102.62 62.6298 102.25 62.4298C101.88 62.2298 101.6 61.8998 101.46 61.4998C101.32 61.0998 101.34 60.6698 101.51 60.2798V60.3098Z" fill="#8BD74B"/>
<path d="M102.609 62.4498C103.469 61.5798 104.459 60.8398 105.539 60.2598C106.929 59.4798 108.569 59.2298 110.129 59.5698C111.689 59.9098 113.079 60.7998 114.029 62.0798C115.029 63.3598 115.639 64.8998 115.779 66.5198L115.869 67.4398C115.839 68.2498 115.509 69.0198 114.949 69.5998C114.389 70.1898 113.639 70.5498 112.839 70.6198C112.039 70.6898 111.229 70.4698 110.579 69.9998C109.929 69.5298 109.469 68.8298 109.289 68.0398C109.249 67.5198 109.319 66.9998 109.509 66.5198C109.619 66.0798 109.589 65.6098 109.439 65.1798C109.319 64.7798 109.059 64.4398 108.729 64.1998C108.219 63.9498 107.619 63.8998 107.069 64.0698C106.249 64.2798 105.469 64.6198 104.749 65.0698L104.589 65.1598C104.239 65.3398 103.829 65.3898 103.439 65.2898C103.049 65.1998 102.709 64.9698 102.479 64.6498C102.249 64.3298 102.129 63.9398 102.159 63.5398C102.189 63.1398 102.359 62.7698 102.639 62.4898V62.4498H102.609Z" fill="#8BD74B"/>
<path d="M213.43 102.21C213.65 106.96 213.32 111.72 212.44 116.4C211.98 118.74 211.37 121.04 210.6 123.3C209.85 125.55 208.94 127.75 207.87 129.87C205.78 134.09 203.12 138 199.97 141.51C198.42 143.25 196.75 144.88 194.98 146.4C194.09 147.15 193.18 147.88 192.23 148.58C191.76 148.93 191.27 149.25 190.78 149.6L190.02 150.09C189.75 150.26 189.53 150.4 189.15 150.62C188.33 151.12 187.36 151.28 186.43 151.07C185.5 150.87 184.68 150.31 184.15 149.52C183.62 148.73 183.41 147.76 183.57 146.82C183.73 145.88 184.25 145.04 185.02 144.47L185.29 144.27L185.76 143.91L186.31 143.47C186.68 143.18 187.04 142.86 187.41 142.53C188.13 141.86 188.84 141.19 189.52 140.53C190.88 139.12 192.15 137.62 193.31 136.04C195.63 132.92 197.5 129.5 198.89 125.87C199.59 124.09 200.15 122.25 200.58 120.39C201.02 118.53 201.33 116.65 201.52 114.75C201.87 110.93 201.78 107.09 201.25 103.3C201.08 102.47 201.07 101.62 201.24 100.8C201.41 99.97 201.75 99.19 202.23 98.5C202.71 97.81 203.34 97.23 204.06 96.79C204.78 96.35 205.58 96.06 206.42 95.95C207.26 95.83 208.11 95.89 208.92 96.12C209.73 96.35 210.49 96.74 211.14 97.27C211.79 97.8 212.33 98.46 212.72 99.21C213.11 99.96 213.34 100.78 213.39 101.62C213.42 101.81 213.44 102 213.44 102.19V102.21H213.43Z" fill="#8BD74B"/>
<path d="M184.1 147.55L182.42 147.36C181.87 147.36 181.32 147.36 180.78 147.31C179.76 147.32 178.74 147.47 177.75 147.74C176.9 147.96 176.11 148.36 175.42 148.9C175.14 149.14 174.89 149.41 174.68 149.71C174.59 149.84 174.51 149.98 174.44 150.12C174.41 150.18 174.39 150.24 174.37 150.3V150.36C174.37 150.36 174.37 150.42 174.44 150.28C174.28 150.68 174.03 151.05 173.73 151.36C173.42 151.67 173.06 151.91 172.65 152.07C172.25 152.23 171.81 152.31 171.38 152.31C170.95 152.3 170.52 152.21 170.12 152.03C169.72 151.85 169.36 151.6 169.07 151.28C168.77 150.96 168.54 150.59 168.39 150.18C168.24 149.77 168.17 149.34 168.2 148.9C168.22 148.47 168.33 148.04 168.52 147.65C168.6 147.48 168.69 147.32 168.79 147.17C168.86 147.06 168.93 146.95 169.02 146.85C169.16 146.65 169.31 146.47 169.47 146.29C169.77 145.95 170.09 145.64 170.43 145.35C171.08 144.81 171.8 144.34 172.56 143.97C173.97 143.31 175.49 142.93 177.05 142.87C178.45 142.8 179.86 142.91 181.23 143.19C181.9 143.36 182.53 143.5 183.16 143.68L185 144.31C185.39 144.44 185.72 144.72 185.92 145.08C186.12 145.44 186.18 145.86 186.09 146.27C186 146.67 185.76 147.03 185.43 147.27C185.09 147.51 184.68 147.62 184.27 147.57L184.1 147.55Z" fill="#8BD74B"/>
<path d="M186.499 147.87L185.059 148.72C184.599 149.02 184.149 149.35 183.719 149.66C182.899 150.28 182.159 151.01 181.519 151.81C180.959 152.5 180.549 153.3 180.309 154.15C180.219 154.52 180.169 154.89 180.179 155.27C180.179 155.44 180.199 155.6 180.229 155.76C180.239 155.83 180.259 155.89 180.279 155.96V156.03C180.279 156.03 180.279 156.09 180.279 155.94C180.469 156.73 180.329 157.56 179.909 158.25C179.479 158.94 178.799 159.43 178.009 159.62C177.219 159.81 176.389 159.67 175.699 159.25C175.009 158.82 174.519 158.14 174.329 157.35C174.299 157.18 174.269 157 174.259 156.82C174.259 156.67 174.259 156.57 174.259 156.43C174.249 156.2 174.249 155.96 174.259 155.73C174.289 155.28 174.349 154.83 174.449 154.39C174.629 153.57 174.909 152.79 175.279 152.04C175.979 150.67 176.939 149.45 178.119 148.45C179.179 147.54 180.349 146.77 181.609 146.15C182.219 145.88 182.829 145.6 183.429 145.36L185.269 144.73C185.659 144.59 186.089 144.6 186.479 144.77C186.859 144.93 187.169 145.23 187.349 145.61C187.519 145.99 187.549 146.42 187.419 146.82C187.289 147.22 187.019 147.55 186.659 147.76L186.499 147.87Z" fill="#8BD74B"/>
<path d="M189.629 148.43C189.109 149.13 188.709 149.91 188.459 150.74C188.229 151.51 188.159 152.32 188.259 153.12C188.359 153.93 188.589 154.73 188.929 155.48C189.099 155.87 189.289 156.24 189.509 156.6C189.609 156.78 189.719 156.95 189.839 157.12C189.929 157.25 190.029 157.38 190.139 157.49C190.739 157.64 191.299 157.95 191.749 158.37C192.209 158.79 192.549 159.32 192.749 159.91C192.949 160.5 192.999 161.13 192.889 161.74C192.789 162.35 192.529 162.93 192.149 163.42C191.769 163.91 191.269 164.29 190.699 164.54C190.129 164.79 189.509 164.89 188.889 164.84C188.269 164.79 187.669 164.58 187.159 164.24C186.639 163.9 186.209 163.43 185.919 162.88L184.839 160.88C184.659 160.54 184.509 160.19 184.369 159.83C184.249 159.52 184.139 159.2 184.039 158.88C183.839 158.24 183.679 157.59 183.569 156.94C183.339 155.62 183.309 154.27 183.479 152.93C183.649 151.57 184.089 150.26 184.779 149.08C185.429 147.95 186.279 146.94 187.279 146.11C187.579 145.84 187.969 145.69 188.379 145.69C188.779 145.69 189.179 145.83 189.479 146.1C189.779 146.37 189.989 146.73 190.039 147.13C190.099 147.53 190.009 147.94 189.779 148.28L189.629 148.43Z" fill="#8BD74B"/>
<path d="M130.729 31.2999C135.076 31.2999 138.599 27.8615 138.599 23.6199C138.599 19.3784 135.076 15.9399 130.729 15.9399C126.383 15.9399 122.859 19.3784 122.859 23.6199C122.859 27.8615 126.383 31.2999 130.729 31.2999Z" fill="#46B755"/>
</svg>
