<svg width="241" height="222" viewBox="0 0 241 222" fill="none" xmlns="http://www.w3.org/2000/svg">
<path d="M63.5312 56.08C62.8713 60.41 61.9512 64.82 60.0312 69.33C59.0612 71.58 57.8212 73.87 56.0612 76.06C54.3312 78.24 51.8813 80.32 48.8813 81.61C47.3713 82.22 45.7713 82.67 44.1613 82.81C42.5713 82.95 40.9812 82.91 39.5112 82.63C36.5512 82.12 34.0513 80.94 31.8613 79.59C27.5513 76.8 24.4213 73.2 21.9713 69.33C19.5413 65.44 17.8213 61.19 16.8613 56.77C15.9013 52.35 15.7512 47.71 16.5412 43.22C17.3312 38.73 19.0812 34.41 21.5912 30.72C22.8512 28.87 24.2713 27.17 25.8013 25.61C27.3413 24.06 29.0112 22.68 30.7312 21.4C32.2812 20.25 34.4712 20.57 35.6212 22.11C36.7112 23.57 36.4812 25.6 35.1512 26.8L35.0513 26.89C33.7113 28.08 32.4413 29.33 31.3213 30.68C30.2113 32.03 29.2213 33.45 28.3913 34.93C26.7313 37.91 25.7613 41.15 25.4713 44.44C24.8813 51.04 27.1513 57.89 31.1013 63.13C33.0613 65.74 35.5213 67.94 37.9713 69.2C39.1813 69.79 40.3813 70.17 41.3213 70.2C42.2813 70.25 42.9213 70.04 43.4913 69.71C44.0513 69.33 44.6812 68.79 45.2912 67.81C45.9012 66.86 46.4712 65.61 46.9312 64.21C47.8612 61.38 48.3312 57.97 48.5412 54.5V54.46C48.8012 50.3 52.3812 47.14 56.5412 47.4C60.7012 47.66 63.8613 51.24 63.6013 55.4C63.5913 55.63 63.5612 55.86 63.5312 56.08Z" fill="#46B755"/>
<path d="M35.1108 21.9799C34.8908 21.9799 34.6608 21.9499 34.4408 21.8899C33.0608 21.5199 32.2508 20.0899 32.6208 18.7199C35.0208 9.84992 41.4908 5.75992 46.3708 6.39992C49.0008 6.74992 50.7708 8.56992 50.7708 10.9299C50.7708 12.3599 49.6208 13.5099 48.1908 13.5099C46.9608 13.5099 45.9308 12.6599 45.6708 11.5099C45.2608 11.4599 44.5008 11.5199 43.5508 11.9399C42.2708 12.4999 39.1508 14.4199 37.6208 20.0499C37.2808 21.2199 36.2408 21.9799 35.1108 21.9799Z" fill="#46B755"/>
<path d="M34.7311 23.4599C33.9611 23.4599 33.1911 23.1099 32.6811 22.4499C31.8111 21.3199 32.0211 19.6999 33.1511 18.8299C41.3511 12.4999 46.1511 13.3199 48.2811 14.3599C50.3811 15.3899 51.6411 17.4399 51.6411 19.8399C51.6411 21.2699 50.4911 22.4199 49.0611 22.4199C47.6311 22.4199 46.4811 21.2699 46.4811 19.8399C46.4811 19.2299 46.1511 19.0699 46.0111 18.9999C44.9711 18.4899 41.7411 18.7299 36.3111 22.9299C35.8311 23.2799 35.2711 23.4599 34.7311 23.4599Z" fill="#46B755"/>
<path d="M46.9814 30.58C45.5514 30.58 44.4014 29.43 44.4014 28C44.4014 27.54 43.9514 27.13 43.6914 26.93C42.3414 25.89 39.3114 25.19 34.8414 26.35C33.4614 26.71 32.0514 25.88 31.6914 24.49C31.3314 23.11 32.1614 21.7 33.5514 21.34C38.9614 19.94 43.8214 20.49 46.8614 22.84C48.6114 24.2 49.5814 26.03 49.5814 28C49.5614 29.43 48.4014 30.58 46.9814 30.58Z" fill="#46B755"/>
<path d="M144.431 133.58C147.551 132.89 151.011 131.68 154.531 130.14C158.051 128.59 161.661 126.72 165.261 124.65C172.471 120.49 179.661 115.57 186.831 110.35C190.421 107.73 194.011 105.04 197.671 102.28C201.351 99.5198 205.011 96.7198 209.131 93.8098C210.161 93.0798 211.251 92.3398 212.421 91.5798C213.611 90.8098 214.851 90.0298 216.521 89.1498C217.381 88.6998 218.291 88.2398 219.681 87.7098C220.361 87.4598 221.221 87.1598 222.311 86.9098C223.471 86.6698 224.951 86.3598 227.391 86.5398C227.711 86.5698 227.941 86.5898 228.341 86.6498C228.701 86.6998 229.071 86.7798 229.421 86.8598L229.951 86.9898C230.141 87.0398 230.361 87.0998 230.561 87.1698C230.971 87.2998 231.391 87.4498 231.791 87.6098C232.171 87.7598 232.651 87.9898 233.071 88.2198C233.501 88.4498 233.921 88.6898 234.331 88.9698C235.151 89.5298 235.971 90.1998 236.631 90.8898C236.961 91.2398 237.281 91.5998 237.591 91.9798C237.911 92.3698 238.121 92.6798 238.361 93.0498C238.591 93.4098 238.811 93.7798 239.021 94.1498C239.191 94.4798 239.351 94.7898 239.491 95.1198C239.641 95.4398 239.781 95.7898 239.891 96.0898C239.991 96.3598 240.081 96.6398 240.161 96.9098C240.251 97.1798 240.321 97.4698 240.391 97.7398L240.541 98.4198C240.881 100.26 240.851 101.48 240.821 102.43C240.771 103.44 240.671 104.15 240.551 104.83C240.321 106.15 240.061 107.1 239.801 107.98C239.541 108.85 239.271 109.64 239.011 110.35C238.741 111.07 238.481 111.77 238.211 112.39L237.401 114.21C236.871 115.43 236.261 116.61 235.691 117.8C235.071 118.97 234.491 120.16 233.821 121.3C228.701 130.54 222.111 138.68 214.831 145.73C207.531 152.78 199.501 158.72 191.141 163.83C182.771 168.92 174.061 173.19 165.151 176.77C160.701 178.56 156.181 180.18 151.621 181.64C149.341 182.37 147.041 183.05 144.721 183.69C143.561 184.01 142.391 184.32 141.221 184.61L139.441 185.04L137.531 185.47C133.441 186.39 129.381 183.82 128.461 179.74C127.601 175.91 129.801 172.1 133.451 170.88L133.881 170.74L135.281 170.28L136.801 169.76C137.811 169.4 138.841 169.03 139.851 168.64C141.891 167.87 143.921 167.04 145.931 166.19C149.961 164.47 153.921 162.61 157.791 160.6C165.541 156.6 172.941 152.04 179.781 146.93C186.611 141.82 192.871 136.14 198.191 129.91C203.501 123.68 207.901 116.93 211.001 109.79C211.411 108.91 211.741 107.99 212.111 107.11C212.441 106.2 212.801 105.31 213.101 104.39L213.561 103.02C213.711 102.58 213.831 102.19 213.931 101.83C214.041 101.46 214.111 101.16 214.161 100.92C214.211 100.7 214.211 100.54 214.161 100.73C214.131 100.86 214.101 101 214.071 101.43C214.061 101.81 214.011 102.46 214.241 103.73C214.271 103.88 214.311 104.04 214.351 104.2C214.401 104.4 214.461 104.62 214.521 104.83C214.581 105.04 214.651 105.24 214.731 105.45C214.821 105.68 214.931 105.98 215.041 106.23C215.161 106.5 215.281 106.74 215.431 107C215.601 107.31 215.781 107.62 215.981 107.92C216.191 108.23 216.371 108.47 216.631 108.81C216.881 109.13 217.161 109.44 217.441 109.74C218.011 110.31 218.701 110.91 219.421 111.38C219.771 111.61 220.121 111.83 220.491 112.02C220.841 112.21 221.261 112.4 221.581 112.53C221.911 112.67 222.251 112.8 222.601 112.9L223.111 113.05L223.541 113.16C223.831 113.23 224.121 113.28 224.411 113.33C224.741 113.38 224.901 113.4 225.141 113.42C227.021 113.56 227.921 113.33 228.521 113.21C229.051 113.1 229.371 112.98 229.511 112.94C229.841 112.83 229.721 112.88 229.581 112.99C229.241 113.21 228.561 113.68 227.861 114.2C227.151 114.73 226.371 115.33 225.581 115.98C222.381 118.56 218.931 121.53 215.471 124.49C211.991 127.47 208.451 130.5 204.821 133.52C197.551 139.54 189.971 145.5 181.651 151.04C177.481 153.8 173.121 156.47 168.411 158.9C163.691 161.33 158.631 163.57 152.901 165.27L152.611 165.36C143.931 167.93 134.821 162.98 132.251 154.3C129.681 145.62 134.631 136.51 143.311 133.94C143.661 133.76 144.071 133.66 144.431 133.58Z" fill="#46B755"/>
<path d="M136.81 175C141.68 175.87 146.4 177.08 151.08 178.46C155.75 179.85 160.38 181.42 164.96 183.25C169.53 185.09 174.06 187.12 178.52 189.78C180.75 191.12 182.96 192.61 185.13 194.57C186.21 195.62 187.29 196.67 188.29 198.17C189.26 199.64 190.25 201.47 190.54 203.94C190.81 207.06 188.49 209.81 185.37 210.08C182.25 210.35 179.5 208.03 179.23 204.91C179.3 204.98 179.26 204.59 178.99 204.05C178.75 203.5 178.18 202.81 177.63 202.13C176.39 200.75 174.77 199.37 173.03 198.07C169.52 195.47 165.53 193.14 161.43 191.02C157.32 188.89 153.07 186.95 148.74 185.19C144.41 183.43 140 181.83 135.57 180.58L135.54 180.57C134.02 180.14 133.14 178.56 133.56 177.05C133.96 175.61 135.38 174.75 136.81 175Z" fill="#46B755"/>
<path d="M133.651 177.14C137.581 178.38 141.061 180.23 144.371 182.27C147.671 184.34 150.791 186.63 153.761 189.13C156.721 191.64 159.561 194.33 162.201 197.39C163.521 198.93 164.781 200.55 165.961 202.43C166.551 203.36 167.111 204.38 167.621 205.52C168.111 206.69 168.591 207.98 168.821 209.69L169.111 211.9C169.541 215.18 167.231 218.2 163.941 218.63C160.661 219.06 157.641 216.75 157.211 213.46C157.081 212.49 157.201 211.51 157.511 210.65C157.561 210.52 157.501 210.02 157.361 209.48C157.191 208.91 156.961 208.26 156.651 207.58C156.041 206.23 155.221 204.81 154.301 203.41C152.461 200.61 150.251 197.89 147.891 195.31C145.521 192.73 142.961 190.29 140.261 188.07C137.561 185.87 134.681 183.86 131.701 182.49L131.621 182.45C130.181 181.79 129.561 180.09 130.221 178.66C130.801 177.34 132.291 176.71 133.651 177.14Z" fill="#46B755"/>
<path d="M137.591 172.96C141.401 171.38 145.251 170.57 149.111 170.02C152.961 169.49 156.831 169.24 160.711 169.25C164.601 169.27 168.491 169.51 172.481 170.16C174.481 170.49 176.491 170.93 178.601 171.62C179.651 171.96 180.741 172.38 181.861 172.93C182.991 173.52 184.181 174.19 185.451 175.35L187.091 176.86C189.531 179.1 189.691 182.9 187.451 185.34C185.211 187.78 181.411 187.94 178.971 185.7C178.251 185.04 177.711 184.21 177.391 183.35C177.341 183.22 176.981 182.88 176.521 182.55C176.031 182.22 175.431 181.87 174.761 181.56C173.421 180.92 171.881 180.36 170.291 179.87C167.081 178.91 163.641 178.23 160.171 177.77C156.701 177.31 153.171 177.09 149.681 177.12C146.201 177.17 142.701 177.48 139.531 178.34L139.441 178.37C137.921 178.78 136.351 177.89 135.941 176.37C135.541 174.95 136.281 173.5 137.591 172.96Z" fill="#46B755"/>
<path d="M186.121 120.78C186.121 162.41 149.001 196.16 103.211 196.16C57.4208 196.16 20.3008 162.41 20.3008 120.78C20.3008 79.1499 57.4208 22.1399 103.211 22.1399C149.001 22.1399 186.121 79.1499 186.121 120.78Z" fill="#8BD74B"/>
<path d="M154.102 78.4199C158.382 78.4199 161.852 74.9499 161.852 70.6699C161.852 66.3899 158.382 62.9199 154.102 62.9199C149.822 62.9199 146.352 66.3899 146.352 70.6699C146.352 74.9499 149.822 78.4199 154.102 78.4199Z" fill="#46B755"/>
<path d="M155.68 99.9598C158.69 99.9598 161.13 97.5198 161.13 94.5098C161.13 91.4998 158.69 89.0598 155.68 89.0598C152.67 89.0598 150.23 91.4998 150.23 94.5098C150.22 97.5098 152.67 99.9598 155.68 99.9598Z" fill="#46B755"/>
<path d="M137.59 71.2398C140.13 71.2398 142.18 69.1798 142.18 66.6498C142.18 64.1198 140.12 62.0598 137.59 62.0598C135.05 62.0598 133 64.1198 133 66.6498C133 69.1798 135.06 71.2398 137.59 71.2398Z" fill="#46B755"/>
<path d="M73.7008 196.15C114.381 196.15 147.351 163.17 147.351 122.5C147.351 81.8199 114.371 48.8499 73.7008 48.8499C33.0308 48.8499 0.0507812 81.8299 0.0507812 122.5C0.0507812 163.18 33.0208 196.15 73.7008 196.15Z" fill="#B0E881"/>
<path d="M54.1699 51.7199C57.1399 49.3699 60.6899 47.6799 64.3999 46.5899C68.1199 45.4899 71.9999 44.9499 75.8899 44.8899C83.6699 44.7499 91.3999 46.3899 98.5699 49.2099C100.37 49.8999 102.11 50.7299 103.85 51.5699C105.57 52.4499 107.25 53.3899 108.88 54.4099L110.1 55.1899C110.5 55.4499 110.97 55.7499 111.38 56.0499C112.22 56.6499 113 57.2899 113.74 57.9399C115.24 59.2299 116.56 60.5999 117.86 61.9399C120.44 64.6399 122.87 67.2899 125.59 69.6099C128.3 71.9299 131.38 73.8499 134.95 75.0199C133.08 75.0299 131.16 74.7599 129.32 74.2199C127.47 73.6799 125.68 72.8999 123.99 71.9699C120.59 70.1199 117.57 67.7099 114.68 65.4299C113.24 64.2899 111.82 63.1699 110.39 62.1699C109.68 61.6699 108.97 61.2099 108.25 60.7999C107.89 60.5799 107.56 60.4099 107.17 60.2099L105.98 59.6199C102.78 58.0599 99.5099 56.6599 96.1899 55.4299C89.5399 52.9799 82.6599 51.2299 75.6399 50.4099C68.6099 49.5999 61.4799 49.8199 54.1699 51.7199Z" fill="#46B755"/>
<path d="M146.981 135.99C147.311 142.47 147.261 149.01 146.651 155.52C146.481 157.15 146.341 158.78 146.091 160.4L145.751 162.84L145.321 165.27C145.061 166.89 144.661 168.49 144.321 170.1C143.901 171.7 143.541 173.3 143.041 174.87C142.131 178.03 141.001 181.15 139.681 184.19C138.361 187.23 136.841 190.18 135.101 193.02C133.351 195.85 131.391 198.55 129.171 201.06C128.061 202.32 126.881 203.52 125.631 204.66C125.011 205.23 124.351 205.79 123.681 206.33C123.341 206.6 123.001 206.86 122.631 207.13L122.081 207.52C121.871 207.66 121.731 207.77 121.411 207.96C119.791 209 117.641 208.53 116.601 206.91C115.671 205.45 115.951 203.55 117.211 202.44L117.541 202.14L118.161 201.59C118.401 201.37 118.641 201.14 118.881 200.9C119.361 200.42 119.831 199.92 120.301 199.38C121.211 198.33 122.091 197.22 122.911 196.06C124.541 193.74 125.961 191.25 127.191 188.68C128.411 186.1 129.441 183.41 130.291 180.68C131.141 177.94 131.821 175.14 132.311 172.3C132.601 170.89 132.751 169.45 132.961 168.03C133.091 166.59 133.301 165.16 133.371 163.71L133.521 161.55L133.591 159.37C133.661 157.93 133.611 156.47 133.611 155.01C133.521 149.2 132.931 143.36 131.991 137.57C131.321 133.45 134.121 129.58 138.231 128.9C142.341 128.23 146.221 131.03 146.901 135.14C146.951 135.41 146.971 135.68 146.991 135.95L146.981 135.99Z" fill="#46B755"/>
<path d="M102 207.98L99.76 206.68L97.5 205.44C97.68 205.11 102.13 197.36 115.28 202.15C116.62 202.64 117.31 204.12 116.82 205.46C116.33 206.8 114.85 207.49 113.51 207C104.72 203.8 102.11 207.8 102 207.98Z" fill="#46B755"/>
<path d="M102.891 216.02C102.841 215.65 101.681 206.79 115.061 202.64C116.421 202.22 117.871 202.98 118.291 204.34C118.711 205.7 117.951 207.15 116.591 207.57C107.641 210.34 107.991 215.11 108.011 215.31L105.451 215.62L102.891 216.02Z" fill="#46B755"/>
<path d="M116.371 221.95C115.441 221.95 114.551 221.45 114.091 220.57C112.361 217.27 110.721 209.64 116.891 204.41C117.981 203.49 119.611 203.62 120.531 204.71C121.451 205.8 121.321 207.43 120.231 208.35C115.701 212.2 118.551 217.94 118.671 218.18C119.321 219.45 118.821 221 117.561 221.66C117.181 221.86 116.771 221.95 116.371 221.95Z" fill="#46B755"/>
<path d="M41.5117 175.92C45.7917 175.92 49.2617 172.45 49.2617 168.17C49.2617 163.89 45.7917 160.42 41.5117 160.42C37.2317 160.42 33.7617 163.89 33.7617 168.17C33.7617 172.45 37.2317 175.92 41.5117 175.92Z" fill="#DFF6CD"/>
<path d="M41.5313 176.14C40.9813 176.14 40.4313 176.08 39.8713 175.97C37.7913 175.53 36.0013 174.31 34.8413 172.53C33.6813 170.75 33.2813 168.62 33.7113 166.54C34.1513 164.46 35.3713 162.67 37.1513 161.51C38.9313 160.35 41.0613 159.95 43.1413 160.38C45.2213 160.82 47.0113 162.04 48.1713 163.82C49.3313 165.6 49.7313 167.73 49.3013 169.81C48.8713 171.89 47.6413 173.68 45.8613 174.84C44.5513 175.7 43.0613 176.14 41.5313 176.14ZM41.5013 160.63C40.0513 160.63 38.6413 161.05 37.3913 161.86C35.7013 162.96 34.5513 164.65 34.1313 166.62C33.7213 168.59 34.1013 170.61 35.1913 172.29C36.2913 173.98 37.9813 175.13 39.9513 175.55C41.9213 175.96 43.9413 175.58 45.6213 174.49C47.3113 173.39 48.4613 171.7 48.8813 169.73C49.2913 167.76 48.9113 165.74 47.8213 164.06C46.7213 162.37 45.0313 161.22 43.0613 160.8C42.5413 160.69 42.0213 160.63 41.5013 160.63Z" fill="#F2F2F2"/>
<path d="M70.8309 185.81C73.8409 185.81 76.2809 183.37 76.2809 180.36C76.2809 177.35 73.8409 174.91 70.8309 174.91C67.8209 174.91 65.3809 177.35 65.3809 180.36C65.3709 183.37 67.8209 185.81 70.8309 185.81Z" fill="#DFF6CD"/>
<path d="M70.8408 186.03C70.4508 186.03 70.0508 185.99 69.6708 185.91C66.6108 185.27 64.6408 182.25 65.2808 179.19C65.9208 176.13 68.9408 174.16 72.0008 174.8C75.0608 175.44 77.0308 178.46 76.3908 181.52C76.0808 183 75.2108 184.28 73.9408 185.1C72.9908 185.72 71.9208 186.03 70.8408 186.03ZM69.7508 185.49C71.1208 185.78 72.5208 185.52 73.6908 184.75C74.8608 183.98 75.6708 182.81 75.9508 181.44C76.5408 178.61 74.7308 175.83 71.9008 175.23C69.0808 174.64 66.2908 176.45 65.6908 179.28C65.1008 182.11 66.9208 184.89 69.7508 185.49Z" fill="#F2F2F2"/>
<path d="M62.7814 152.21C65.3214 152.21 67.3714 150.15 67.3714 147.62C67.3714 145.08 65.3114 143.03 62.7814 143.03C60.2514 143.03 58.1914 145.09 58.1914 147.62C58.1914 150.16 60.2514 152.21 62.7814 152.21Z" fill="#DFF6CD"/>
<path d="M62.8014 152.43C62.4714 152.43 62.1314 152.4 61.8014 152.32C59.2014 151.77 57.5314 149.22 58.0814 146.63C58.6314 144.03 61.1814 142.37 63.7714 142.91C66.3714 143.46 68.0414 146.01 67.4914 148.6C67.2214 149.86 66.4914 150.94 65.4114 151.64C64.6314 152.17 63.7214 152.43 62.8014 152.43ZM62.7814 143.24C60.7514 143.24 58.9314 144.66 58.4914 146.72C58.2514 147.86 58.4714 149.04 59.1114 150.01C59.7514 150.99 60.7313 151.66 61.8713 151.9C63.0113 152.14 64.1914 151.92 65.1614 151.28C66.1414 150.64 66.8114 149.66 67.0514 148.52C67.5414 146.16 66.0313 143.83 63.6713 143.33C63.3913 143.28 63.0814 143.24 62.7814 143.24Z" fill="#F2F2F2"/>
<path d="M67.5215 43.9099C79.4015 43.9099 89.0215 34.2799 89.0215 22.4099C89.0215 10.5399 79.3915 0.909912 67.5215 0.909912C55.6515 0.909912 46.0215 10.5399 46.0215 22.4099C46.0215 34.2799 55.6415 43.9099 67.5215 43.9099Z" fill="#8BD74B"/>
<path d="M66.1711 37.1898C75.4511 37.1898 82.9711 29.6698 82.9711 20.3898C82.9711 11.1098 75.4511 3.58984 66.1711 3.58984C56.8911 3.58984 49.3711 11.1098 49.3711 20.3898C49.3711 29.6698 56.8911 37.1898 66.1711 37.1898Z" fill="white"/>
<path d="M57.04 17.26C59.18 17.26 60.91 15.53 60.91 13.39C60.91 11.25 59.18 9.52002 57.04 9.52002C54.9 9.52002 53.17 11.25 53.17 13.39C53.16 15.53 54.9 17.26 57.04 17.26Z" fill="#183B59"/>
<path d="M125.662 51.45C139.602 51.45 150.892 40.15 150.892 26.22C150.892 12.29 139.592 0.98999 125.662 0.98999C111.722 0.98999 100.432 12.29 100.432 26.22C100.432 40.15 111.732 51.45 125.662 51.45Z" fill="#8BD74B"/>
<path d="M124.091 43.5599C134.981 43.5599 143.801 34.7299 143.801 23.8499C143.801 12.9699 134.971 4.13992 124.091 4.13992C113.211 4.13992 104.381 12.9699 104.381 23.8499C104.381 34.7299 113.201 43.5599 124.091 43.5599Z" fill="white"/>
<path d="M114.7 20.2199C117.21 20.2199 119.25 18.1799 119.25 15.6699C119.25 13.1599 117.21 11.1199 114.7 11.1199C112.19 11.1199 110.15 13.1599 110.15 15.6699C110.16 18.1799 112.19 20.2199 114.7 20.2199Z" fill="#183B59"/>
<path d="M102.021 26.6599C118.621 19.8999 144.452 20.6499 144.452 27.7199C144.452 34.7899 136.061 49.8999 121.301 47.1299C106.551 44.3699 102.021 26.6599 102.021 26.6599Z" fill="#8BD74B"/>
<path d="M48.0215 23.3998C63.3515 17.1998 87.7815 16.3598 87.7815 22.8398C87.7815 29.3198 80.0215 43.1698 66.3915 40.6298C52.7615 38.0998 48.0215 23.3998 48.0215 23.3998Z" fill="#8BD74B"/>
</svg>
