<svg width="282" height="226" viewBox="0 0 282 226" fill="none" xmlns="http://www.w3.org/2000/svg">
<path d="M109.651 179.22C104.911 180.67 100.381 182.43 95.8915 184.36C91.4215 186.3 87.0115 188.41 82.6915 190.77C78.3615 193.14 74.1215 195.7 70.0115 198.88C67.9615 200.48 65.9415 202.22 64.0215 204.43C63.0715 205.6 62.1215 206.77 61.3115 208.38C60.5215 209.96 59.7715 211.9 59.7715 214.38C59.8815 217.51 62.5115 219.96 65.6415 219.85C68.7715 219.74 71.2215 217.11 71.1115 213.98C71.0515 214.06 71.0415 213.67 71.2515 213.1C71.4215 212.53 71.9015 211.77 72.3815 211.03C73.4415 209.51 74.8915 207.95 76.4715 206.45C79.6415 203.45 83.3315 200.66 87.1415 198.07C90.9615 195.46 94.9615 193.04 99.0415 190.77C103.131 188.51 107.321 186.39 111.561 184.62L111.591 184.61C113.051 184 113.731 182.33 113.131 180.87C112.561 179.49 111.041 178.8 109.651 179.22Z" fill="#46B755"/>
<path d="M113.04 180.96C109.28 182.66 106.06 184.91 103.01 187.34C99.9905 189.79 97.1605 192.44 94.5105 195.28C91.8705 198.13 89.3805 201.13 87.1205 204.49C86.0005 206.17 84.9305 207.94 83.9905 209.94C83.5205 210.93 83.0805 212.02 82.7105 213.21C82.3605 214.44 82.0405 215.77 82.0205 217.49L81.9905 219.72C81.9605 223.03 84.6105 225.75 87.9305 225.78C91.2405 225.81 93.9605 223.16 93.9905 219.84C94.0005 218.86 93.7605 217.9 93.3505 217.08C93.2905 216.95 93.2805 216.45 93.3605 215.89C93.4505 215.3 93.6105 214.63 93.8405 213.92C94.2805 212.5 94.9305 211 95.6705 209.5C97.1705 206.5 99.0305 203.53 101.06 200.69C103.1 197.84 105.35 195.12 107.77 192.59C110.19 190.08 112.81 187.74 115.6 186.03L115.68 185.98C117.02 185.15 117.44 183.4 116.62 182.05C115.89 180.83 114.33 180.37 113.04 180.96Z" fill="#46B755"/>
<path d="M108.631 177.29C104.661 176.18 100.741 175.83 96.8512 175.75C92.9612 175.68 89.0912 175.9 85.2412 176.38C81.3812 176.87 77.5412 177.57 73.6612 178.7C71.7212 179.27 69.7712 179.94 67.7612 180.88C66.7612 181.34 65.7312 181.89 64.6812 182.57C63.6312 183.28 62.5212 184.1 61.4012 185.41L59.9512 187.1C57.7912 189.62 58.0912 193.41 60.6112 195.56C63.1312 197.72 66.9213 197.42 69.0713 194.9C69.7113 194.15 70.1412 193.27 70.3512 192.38C70.3812 192.25 70.7012 191.86 71.1212 191.48C71.5712 191.09 72.1212 190.67 72.7512 190.28C74.0012 189.48 75.4612 188.74 76.9912 188.07C80.0612 186.73 83.4012 185.65 86.7812 184.78C90.1712 183.91 93.6512 183.26 97.1212 182.88C100.581 182.51 104.101 182.4 107.341 182.87L107.431 182.88C108.991 183.11 110.441 182.03 110.671 180.47C110.891 179.02 109.991 177.67 108.631 177.29Z" fill="#46B755"/>
<path d="M86.8909 131.7C87.0309 132.26 87.1409 132.84 87.2009 133.42C87.2509 134.01 87.2509 134.61 87.2209 135.2C87.1609 135.76 87.0809 136.35 86.9509 136.88C86.8209 137.38 86.6509 137.9 86.4609 138.36C85.6909 140.2 84.7009 141.32 83.8209 142.21C82.9309 143.09 82.0609 143.73 81.2609 144.25C80.4409 144.79 79.6709 145.19 78.9009 145.58C75.8809 147.02 73.0709 147.79 70.2709 148.4C64.7009 149.54 59.2109 149.88 53.6409 149.44C50.8609 149.21 48.0709 148.77 45.2709 147.98C42.4809 147.19 39.6609 146.06 37.0309 144.25C35.7209 143.34 34.4709 142.25 33.3909 140.97C32.3109 139.69 31.4109 138.21 30.7909 136.63C30.1709 135.06 29.8409 133.43 29.7309 131.85C29.6209 130.27 29.7409 128.74 29.9609 127.28C30.2609 125.37 32.0609 124.07 33.9709 124.38C35.7209 124.66 36.9509 126.18 36.9209 127.9V128.03C36.8809 130.09 37.2509 131.93 38.0809 133.32C38.9009 134.72 40.1409 135.77 41.7709 136.58C43.3909 137.38 45.3409 137.92 47.4209 138.19C49.5009 138.46 51.6809 138.53 53.8809 138.4C58.2709 138.15 62.7809 137.25 66.8309 135.8C68.8309 135.08 70.7609 134.18 72.1209 133.25C72.4309 133.02 72.7409 132.79 72.9309 132.6C73.1409 132.41 73.2409 132.24 73.2109 132.22C73.1909 132.21 72.9709 132.31 72.6409 132.98C72.5609 133.15 72.4709 133.37 72.4309 133.57C72.3609 133.8 72.3009 134.07 72.2909 134.32C72.2609 134.59 72.2509 134.88 72.2809 135.16C72.2909 135.43 72.3309 135.7 72.4109 135.96C71.2409 131.97 73.5209 127.78 77.5209 126.6C81.5309 125.43 85.7209 127.71 86.8909 131.7Z" fill="#46B755"/>
<path d="M184.9 132.67C188.02 131.98 191.48 130.77 195 129.23C198.52 127.68 202.13 125.81 205.73 123.74C212.94 119.58 220.13 114.66 227.3 109.44C230.89 106.82 234.48 104.13 238.14 101.37C241.82 98.6099 245.48 95.8099 249.6 92.8999C250.63 92.1699 251.72 91.4299 252.89 90.6699C254.08 89.8999 255.32 89.1199 256.99 88.2399C257.85 87.7899 258.76 87.3299 260.15 86.7999C260.83 86.5499 261.69 86.2499 262.78 85.9999C263.94 85.7599 265.42 85.4499 267.86 85.6299C268.18 85.6599 268.41 85.6799 268.81 85.7399C269.17 85.7899 269.54 85.8699 269.89 85.9499L270.42 86.0799C270.61 86.1299 270.83 86.1899 271.03 86.2599C271.44 86.3899 271.86 86.5399 272.26 86.6999C272.64 86.8499 273.12 87.0799 273.54 87.3099C273.97 87.5399 274.39 87.7799 274.8 88.0599C275.62 88.6199 276.44 89.2899 277.1 89.9799C277.43 90.3299 277.75 90.6899 278.06 91.0699C278.38 91.4599 278.59 91.7699 278.83 92.1399C279.06 92.4999 279.28 92.8699 279.49 93.2399C279.66 93.5699 279.82 93.8799 279.96 94.2099C280.11 94.5299 280.25 94.8799 280.36 95.1799C280.46 95.4499 280.55 95.7299 280.63 95.9999C280.72 96.2699 280.79 96.5599 280.86 96.8299L281.01 97.5099C281.35 99.3499 281.32 100.57 281.29 101.52C281.24 102.53 281.14 103.24 281.02 103.92C280.79 105.24 280.53 106.19 280.27 107.07C280.01 107.94 279.74 108.73 279.48 109.44C279.21 110.16 278.95 110.86 278.68 111.48L277.87 113.3C277.34 114.52 276.73 115.7 276.16 116.89C275.54 118.06 274.96 119.25 274.29 120.39C269.17 129.63 262.58 137.77 255.3 144.82C248 151.87 239.97 157.81 231.61 162.92C223.24 168.01 214.53 172.28 205.62 175.86C201.17 177.65 196.65 179.27 192.09 180.73C189.81 181.46 187.51 182.14 185.19 182.78C184.03 183.1 182.86 183.41 181.69 183.7L179.91 184.13L178 184.56C173.91 185.48 169.85 182.91 168.93 178.83C168.07 175 170.27 171.19 173.92 169.97L174.35 169.83L175.75 169.37L177.27 168.85C178.28 168.49 179.31 168.12 180.32 167.73C182.36 166.96 184.39 166.13 186.4 165.28C190.43 163.56 194.39 161.7 198.26 159.69C206.01 155.69 213.41 151.13 220.25 146.02C227.08 140.91 233.34 135.23 238.66 129C243.97 122.77 248.37 116.02 251.47 108.88C251.88 108 252.21 107.08 252.58 106.2C252.91 105.29 253.27 104.4 253.57 103.48L254.03 102.11C254.18 101.67 254.3 101.28 254.4 100.92C254.51 100.55 254.58 100.25 254.63 100.01C254.68 99.7899 254.68 99.6299 254.63 99.8199C254.6 99.9499 254.57 100.09 254.54 100.52C254.53 100.9 254.48 101.55 254.71 102.82C254.74 102.97 254.78 103.13 254.82 103.29C254.87 103.49 254.93 103.71 254.99 103.92C255.05 104.13 255.12 104.33 255.2 104.54C255.29 104.77 255.4 105.07 255.51 105.32C255.63 105.59 255.75 105.83 255.9 106.09C256.07 106.4 256.25 106.71 256.45 107.01C256.66 107.32 256.84 107.56 257.1 107.9C257.35 108.22 257.63 108.53 257.91 108.83C258.48 109.4 259.17 110 259.89 110.47C260.24 110.7 260.59 110.92 260.96 111.11C261.31 111.3 261.73 111.49 262.05 111.62C262.38 111.76 262.72 111.89 263.07 111.99L263.58 112.14L264.01 112.25C264.3 112.32 264.59 112.37 264.88 112.42C265.21 112.47 265.37 112.49 265.61 112.51C267.49 112.65 268.39 112.42 268.99 112.3C269.52 112.19 269.84 112.07 269.98 112.03C270.31 111.92 270.19 111.97 270.05 112.08C269.71 112.3 269.03 112.77 268.33 113.3C267.62 113.83 266.84 114.43 266.05 115.08C262.85 117.66 259.4 120.63 255.94 123.59C252.46 126.57 248.92 129.6 245.29 132.62C238.02 138.64 230.44 144.6 222.12 150.14C217.95 152.9 213.59 155.57 208.88 158C204.16 160.43 199.1 162.67 193.37 164.37L193.08 164.46C184.4 167.03 175.29 162.08 172.72 153.4C170.15 144.72 175.1 135.61 183.78 133.04C184.13 132.86 184.54 132.76 184.9 132.67Z" fill="#46B755"/>
<path d="M170.45 182.1C175.32 182.97 180.04 184.18 184.72 185.56C189.39 186.95 194.02 188.52 198.6 190.35C203.17 192.19 207.7 194.22 212.16 196.88C214.39 198.22 216.6 199.71 218.77 201.67C219.85 202.72 220.93 203.77 221.93 205.27C222.9 206.74 223.89 208.57 224.18 211.04C224.45 214.16 222.13 216.91 219.01 217.18C215.89 217.45 213.14 215.13 212.87 212.01C212.94 212.08 212.9 211.69 212.63 211.15C212.39 210.6 211.82 209.91 211.27 209.23C210.03 207.85 208.41 206.47 206.67 205.17C203.16 202.57 199.17 200.24 195.07 198.12C190.96 195.99 186.71 194.05 182.38 192.29C178.05 190.53 173.64 188.93 169.21 187.68L169.18 187.67C167.66 187.24 166.78 185.66 167.2 184.15C167.61 182.72 169.03 181.85 170.45 182.1Z" fill="#46B755"/>
<path d="M167.301 184.24C171.231 185.48 174.711 187.33 178.021 189.37C181.321 191.44 184.441 193.73 187.411 196.23C190.371 198.74 193.211 201.43 195.851 204.49C197.171 206.03 198.431 207.65 199.611 209.53C200.201 210.46 200.761 211.48 201.271 212.62C201.761 213.79 202.241 215.08 202.471 216.79L202.761 219C203.191 222.28 200.881 225.3 197.591 225.73C194.311 226.16 191.291 223.85 190.861 220.56C190.731 219.59 190.851 218.61 191.161 217.75C191.211 217.62 191.151 217.12 191.011 216.58C190.841 216.01 190.611 215.36 190.301 214.68C189.691 213.33 188.871 211.91 187.951 210.51C186.111 207.71 183.901 204.99 181.541 202.41C179.171 199.83 176.611 197.39 173.911 195.17C171.211 192.97 168.331 190.96 165.351 189.59L165.271 189.55C163.831 188.89 163.211 187.19 163.871 185.76C164.451 184.45 165.941 183.81 167.301 184.24Z" fill="#46B755"/>
<path d="M171.241 180.07C175.051 178.49 178.901 177.68 182.761 177.13C186.611 176.6 190.481 176.35 194.361 176.36C198.251 176.38 202.141 176.62 206.131 177.27C208.131 177.6 210.141 178.04 212.251 178.73C213.301 179.07 214.391 179.49 215.511 180.04C216.641 180.63 217.831 181.3 219.101 182.46L220.741 183.97C223.181 186.21 223.341 190.01 221.101 192.45C218.861 194.89 215.061 195.05 212.621 192.81C211.901 192.15 211.361 191.32 211.041 190.46C210.991 190.33 210.631 189.99 210.171 189.66C209.681 189.33 209.081 188.98 208.411 188.67C207.071 188.03 205.531 187.47 203.941 186.98C200.731 186.02 197.291 185.34 193.821 184.88C190.351 184.42 186.821 184.2 183.331 184.23C179.851 184.28 176.351 184.59 173.181 185.45L173.091 185.48C171.571 185.89 170.001 185 169.591 183.48C169.191 182.05 169.931 180.61 171.241 180.07Z" fill="#46B755"/>
<path d="M226.591 119.87C226.591 161.5 189.471 195.25 143.681 195.25C97.8915 195.25 60.7715 161.5 60.7715 119.87C60.7715 78.24 97.8915 21.23 143.681 21.23C189.471 21.23 226.591 78.24 226.591 119.87Z" fill="#8BD74B"/>
<path d="M194.58 77.5098C198.86 77.5098 202.33 74.0398 202.33 69.7598C202.33 65.4798 198.86 62.0098 194.58 62.0098C190.3 62.0098 186.83 65.4798 186.83 69.7598C186.82 74.0398 190.3 77.5098 194.58 77.5098Z" fill="#46B755"/>
<path d="M196.151 99.0499C199.161 99.0499 201.601 96.6099 201.601 93.5999C201.601 90.5899 199.161 88.1499 196.151 88.1499C193.141 88.1499 190.701 90.5899 190.701 93.5999C190.701 96.6099 193.141 99.0499 196.151 99.0499Z" fill="#46B755"/>
<path d="M178.071 70.3299C180.611 70.3299 182.66 68.2699 182.66 65.7399C182.66 63.1999 180.601 61.1499 178.071 61.1499C175.531 61.1499 173.481 63.2099 173.481 65.7399C173.471 68.2699 175.531 70.3299 178.071 70.3299Z" fill="#46B755"/>
<path d="M114.171 195.25C154.851 195.25 187.821 162.27 187.821 121.6C187.821 80.9202 154.841 47.9502 114.171 47.9502C73.4915 47.9502 40.5215 80.9302 40.5215 121.6C40.5215 162.27 73.4915 195.25 114.171 195.25Z" fill="#B0E881"/>
<path d="M104.291 43.04C104.781 43.47 105.321 43.7 105.901 43.89C106.471 44.08 107.051 44.22 107.641 44.34C108.821 44.57 110.001 44.77 111.211 44.91C113.601 45.23 116.021 45.46 118.431 45.69L132.901 47.09C137.731 47.58 142.551 48.11 147.411 48.72C152.271 49.36 157.141 49.98 162.161 51.04C157.331 52.8 152.311 53.6 147.291 54C142.271 54.37 137.231 54.29 132.221 53.77C127.221 53.26 122.251 52.34 117.381 50.85C114.951 50.09 112.551 49.21 110.231 48.04C109.081 47.46 107.931 46.8 106.871 46.02C106.341 45.63 105.821 45.2 105.351 44.71C104.891 44.23 104.451 43.67 104.291 43.04Z" fill="#46B755"/>
<path d="M81.9805 175.01C86.2605 175.01 89.7305 171.54 89.7305 167.26C89.7305 162.98 86.2605 159.51 81.9805 159.51C77.7005 159.51 74.2305 162.98 74.2305 167.26C74.2305 171.54 77.7005 175.01 81.9805 175.01Z" fill="#DFF6CD"/>
<path d="M81.9999 175.23C81.4499 175.23 80.8999 175.17 80.3399 175.06C76.0399 174.16 73.2799 169.92 74.1799 165.62C74.6199 163.54 75.8399 161.75 77.6199 160.59C79.3999 159.43 81.5299 159.03 83.6099 159.46C85.6899 159.9 87.4799 161.12 88.6399 162.9C89.7999 164.68 90.1999 166.81 89.7699 168.89C89.3399 170.97 88.1099 172.76 86.3299 173.92C85.0299 174.79 83.5299 175.23 81.9999 175.23ZM81.9699 159.72C80.5199 159.72 79.1099 160.14 77.8599 160.95C76.1699 162.05 75.0199 163.74 74.5999 165.71C73.7499 169.78 76.3599 173.78 80.4299 174.64C82.3999 175.05 84.4199 174.67 86.0999 173.58C87.7899 172.48 88.9399 170.79 89.3599 168.82C89.7799 166.85 89.3899 164.83 88.2999 163.15C87.2099 161.47 85.5099 160.31 83.5399 159.89C83.0099 159.78 82.4899 159.72 81.9699 159.72Z" fill="#F2F2F2"/>
<path d="M111.302 184.91C114.312 184.91 116.752 182.47 116.752 179.46C116.752 176.45 114.312 174.01 111.302 174.01C108.292 174.01 105.852 176.45 105.852 179.46C105.852 182.46 108.292 184.91 111.302 184.91Z" fill="#DFF6CD"/>
<path d="M111.3 185.13C110.91 185.13 110.53 185.09 110.13 185.01C107.07 184.37 105.1 181.35 105.74 178.29C106.38 175.23 109.4 173.26 112.46 173.9C113.94 174.21 115.22 175.08 116.04 176.35C116.87 177.62 117.15 179.13 116.84 180.62C116.29 183.29 113.93 185.13 111.3 185.13ZM110.22 184.58C113.04 185.17 115.83 183.36 116.43 180.53C116.72 179.16 116.46 177.76 115.69 176.58C114.92 175.41 113.75 174.6 112.38 174.32C109.55 173.73 106.77 175.54 106.17 178.37C105.57 181.2 107.4 183.99 110.22 184.58Z" fill="#F2F2F2"/>
<path d="M103.26 151.31C105.8 151.31 107.85 149.25 107.85 146.72C107.85 144.18 105.79 142.13 103.26 142.13C100.73 142.13 98.67 144.19 98.67 146.72C98.66 149.25 100.72 151.31 103.26 151.31Z" fill="#DFF6CD"/>
<path d="M103.26 151.53C102.93 151.53 102.6 151.5 102.27 151.42C99.6701 150.87 98.0001 148.32 98.5501 145.73C99.1001 143.13 101.65 141.46 104.24 142.01C106.84 142.56 108.51 145.11 107.96 147.7C107.49 149.97 105.49 151.53 103.26 151.53ZM102.36 151C104.72 151.49 107.05 149.98 107.55 147.62C108.04 145.26 106.53 142.93 104.17 142.43C101.81 141.94 99.4801 143.45 98.9801 145.81C98.4801 148.18 99.9901 150.51 102.36 151Z" fill="#F2F2F2"/>
<path d="M107.99 43.01C119.87 43.01 129.49 33.38 129.49 21.51C129.49 9.64 119.87 0 107.99 0C96.1102 0 86.4902 9.63 86.4902 21.5C86.4902 33.37 96.1102 43.01 107.99 43.01Z" fill="#8BD74B"/>
<path d="M106.64 36.2802C115.92 36.2802 123.44 28.7602 123.44 19.4802C123.44 10.2002 115.92 2.68018 106.64 2.68018C97.3598 2.68018 89.8398 10.2002 89.8398 19.4802C89.8498 28.7602 97.3698 36.2802 106.64 36.2802Z" fill="white"/>
<path d="M98.9501 29.5501C101.09 29.5501 102.82 27.8201 102.82 25.6801C102.82 23.5401 101.09 21.8101 98.9501 21.8101C96.8101 21.8101 95.0801 23.5401 95.0801 25.6801C95.0801 27.8201 96.8101 29.5501 98.9501 29.5501Z" fill="#183B59"/>
<path d="M166.14 50.5401C180.08 50.5401 191.37 39.2401 191.37 25.3101C191.37 11.3701 180.07 0.0800781 166.14 0.0800781C152.2 0.0800781 140.91 11.3801 140.91 25.3101C140.9 39.2401 152.2 50.5401 166.14 50.5401Z" fill="#8BD74B"/>
<path d="M164.562 42.65C175.452 42.65 184.272 33.82 184.272 22.94C184.272 12.05 175.442 3.22998 164.562 3.22998C153.672 3.22998 144.852 12.06 144.852 22.94C144.852 33.83 153.672 42.65 164.562 42.65Z" fill="white"/>
<path d="M153.251 33.7899C155.761 33.7899 157.801 31.7499 157.801 29.2399C157.801 26.7299 155.761 24.6899 153.251 24.6899C150.741 24.6899 148.701 26.7299 148.701 29.2399C148.701 31.7499 150.731 33.7899 153.251 33.7899Z" fill="#183B59"/>
<path d="M3.00098 62.0299L53.361 36.8999C54.491 36.3299 55.841 36.8799 56.541 38.1799L112.611 142.36C113.621 144.24 110.311 148.57 105.971 148.68L61.391 155.61C60.471 155.77 59.521 155.3 58.931 154.37L2.13098 66.6899C1.07098 65.0699 1.50098 62.7699 3.00098 62.0299Z" fill="#1D1D1B"/>
<path d="M105.621 150.26L87.8007 153.15L80.8606 154.26L58.7806 157.83C57.9106 157.97 57.0106 157.48 56.4306 156.55L54.8106 153.98L43.5707 136.18L0.87065 68.4001C-0.15935 66.7701 0.220647 64.5101 1.61065 63.7901L48.8007 39.8401C49.8707 39.3101 51.1606 39.8701 51.8406 41.1801L69.8406 75.2501L73.7806 82.7101L74.3906 83.8801L77.7606 90.2801L107.021 145.7C108.041 147.6 107.301 149.98 105.621 150.26Z" fill="#808080"/>
<path d="M6.43982 66.66L20.3898 59.18C21.7498 58.38 23.4498 58.74 24.1998 60.01L40.4298 89.23C41.2798 90.67 40.6198 92.45 38.9898 93.1L25.9498 98.31C24.6298 98.84 23.0798 98.33 22.3398 97.15L5.48982 70.38C4.69982 69.13 5.12982 67.43 6.43982 66.66Z" fill="#1D1D1B"/>
<path d="M15.7198 76.46C18.7398 76.46 21.1798 74.02 21.1798 71C21.1798 67.98 18.7398 65.54 15.7198 65.54C12.6998 65.54 10.2598 67.99 10.2598 71C10.2598 74.02 12.7098 76.46 15.7198 76.46Z" fill="#333333"/>
<path d="M19.5699 68.82C20.6399 70.64 20.0299 72.99 18.2099 74.07C17.9199 74.24 17.5999 74.38 17.2799 74.46C18.9999 73.35 19.5399 71.08 18.4899 69.3C17.5999 67.78 15.7999 67.11 14.1699 67.57C14.2199 67.53 14.2599 67.5 14.3199 67.47C16.1399 66.39 18.4899 67 19.5699 68.82Z" fill="#4D4D4D"/>
<path d="M26.0205 94.7C29.0405 94.7 31.4806 92.26 31.4806 89.24C31.4806 86.22 29.0405 83.78 26.0205 83.78C23.0005 83.78 20.5605 86.23 20.5605 89.24C20.5605 92.25 23.0105 94.7 26.0205 94.7Z" fill="#333333"/>
<path d="M20.1497 83.5499C21.5097 83.5499 22.6197 82.4399 22.6197 81.0799C22.6197 79.7199 21.5097 78.6099 20.1497 78.6099C18.7897 78.6099 17.6797 79.7199 17.6797 81.0799C17.6797 82.4399 18.7897 83.5499 20.1497 83.5499Z" fill="#333333"/>
<path d="M27.5114 92.7599C27.4614 92.7999 27.4214 92.8299 27.3614 92.8599C25.5414 93.9299 23.1814 93.3299 22.1114 91.4999C21.0414 89.6799 21.6514 87.3299 23.4714 86.2499C23.7614 86.0799 24.0814 85.9399 24.4014 85.8599C22.6814 86.9699 22.1414 89.2399 23.1914 91.0199C24.0814 92.5499 25.8714 93.2199 27.5114 92.7599Z" fill="#4D4D4D"/>
<path d="M69.8401 75.25L43.5801 136.18L54.8201 153.99L74.4001 83.88L69.8401 75.25Z" fill="#999999"/>
<path d="M184.9 133.79C178.42 136.55 171.42 138.61 164.07 139.25L162.69 139.38C162.23 139.41 161.76 139.41 161.29 139.41C160.36 139.42 159.43 139.45 158.51 139.44C156.64 139.31 154.78 139.25 152.93 138.92C149.23 138.36 145.57 137.36 142.18 135.81C135.35 132.77 129.64 127.97 125.24 122.51C123.03 119.77 121.11 116.86 119.45 113.84C118.63 112.32 117.85 110.8 117.15 109.21C116.8 108.42 116.46 107.63 116.15 106.82C115.99 106.42 115.84 106.01 115.68 105.6C115.53 105.17 115.39 104.8 115.23 104.27C114.64 102.43 115.64 100.46 117.48 99.8702C119.18 99.3202 120.98 100.14 121.71 101.71L121.81 101.93L122.24 102.85C122.41 103.18 122.57 103.51 122.74 103.84C123.09 104.5 123.45 105.16 123.83 105.82C124.58 107.13 125.41 108.4 126.25 109.64C127.98 112.11 129.88 114.42 131.96 116.5C136.11 120.67 140.98 123.84 146.19 125.52C148.79 126.39 151.48 126.81 154.19 126.93C155.54 127.04 156.91 126.92 158.27 126.88L160.32 126.63C160.66 126.58 161 126.56 161.34 126.5L162.36 126.29C167.81 125.22 173.17 123.07 178.3 120.21C181.94 118.18 186.54 119.48 188.57 123.12C190.6 126.76 189.3 131.36 185.66 133.39C185.43 133.52 185.19 133.64 184.95 133.74L184.9 133.79Z" fill="#46B755"/>
<path d="M118.531 101.25C118.531 101.25 118.521 101.25 118.531 101.25C117.091 101.25 115.941 100.09 115.951 98.66C115.971 88.73 106.291 85.59 106.191 85.56C104.831 85.13 104.071 83.68 104.491 82.32C104.921 80.96 106.371 80.2 107.731 80.62C112.371 82.07 121.141 87.71 121.121 98.67C121.111 100.1 119.951 101.25 118.531 101.25Z" fill="#46B755"/>
<path d="M105.182 104.82C103.752 104.82 102.602 103.67 102.602 102.24C102.602 99.0701 105.212 94.7901 109.102 93.4901C111.362 92.7401 115.862 92.4002 120.582 98.6502C121.442 99.7902 121.212 101.41 120.082 102.27C118.942 103.13 117.322 102.9 116.462 101.77C115.272 100.19 112.942 97.6602 110.752 98.4002C109.012 98.9902 107.782 101.25 107.782 102.25C107.762 103.66 106.612 104.82 105.182 104.82Z" fill="#46B755"/>
<path d="M108.74 109.26C107.31 109.26 106.16 108.11 106.16 106.68C106.16 103.69 107.48 101.13 109.7 99.8502C111.49 98.8202 114.65 98.1602 119.53 100.96C120.77 101.67 121.2 103.25 120.48 104.48C119.77 105.72 118.19 106.15 116.96 105.43C114.88 104.24 113.13 103.82 112.29 104.31C111.62 104.7 111.32 105.77 111.32 106.67C111.32 108.11 110.17 109.26 108.74 109.26Z" fill="#46B755"/>
<path d="M31.4313 125.59C30.0713 125.59 28.9313 124.53 28.8513 123.16C28.7113 120.75 28.5613 120.57 27.7413 119.56C26.8513 118.46 25.5013 116.8 23.6213 112.78C23.0213 111.48 23.5713 109.95 24.8713 109.35C26.1713 108.74 27.7013 109.3 28.3113 110.6C29.9213 114.04 30.9813 115.35 31.7513 116.3C33.1913 118.06 33.7913 119.15 34.0113 122.86C34.1013 124.28 33.0113 125.51 31.5813 125.59C31.5313 125.59 31.4713 125.59 31.4313 125.59Z" fill="#46B755"/>
<path d="M31.6912 127.09C31.2812 127.09 30.8812 127 30.4912 126.79C29.2312 126.12 28.7412 124.56 29.4012 123.3C34.2212 114.13 38.9112 112.87 41.3012 112.93C43.6412 112.99 45.6412 114.33 46.6412 116.51C47.2312 117.81 46.6712 119.34 45.3712 119.93C44.0712 120.52 42.5412 119.96 41.9512 118.66C41.7012 118.11 41.3312 118.09 41.1712 118.09C41.1612 118.09 41.1512 118.09 41.1412 118.09C39.9612 118.09 37.1512 119.69 34.0012 125.7C33.5212 126.59 32.6212 127.09 31.6912 127.09Z" fill="#46B755"/>
<path d="M32.4497 130.01C31.6997 130.01 30.9497 129.68 30.4497 129.06C29.5497 127.95 29.7197 126.32 30.8197 125.42C35.1597 121.89 39.7897 120.36 43.5397 121.23C45.6997 121.73 47.3397 123 48.1597 124.79C48.7497 126.09 48.1897 127.62 46.8897 128.21C45.5897 128.8 44.0597 128.24 43.4697 126.94C43.2797 126.53 42.6997 126.33 42.3797 126.26C40.7197 125.87 37.6697 126.5 34.0897 129.42C33.5897 129.82 33.0197 130.01 32.4497 130.01Z" fill="#46B755"/>
</svg>
