<svg width="152" height="168" viewBox="0 0 152 168" fill="none" xmlns="http://www.w3.org/2000/svg">
<path d="M104.2 131.64C109.13 131.83 113.68 133.05 118.09 134.54C122.49 136.06 126.73 137.92 130.84 140.11C134.95 142.29 138.93 144.77 142.71 147.85C144.59 149.41 146.44 151.11 148.13 153.28C148.96 154.4 149.8 155.59 150.45 157.19C151.08 158.74 151.62 160.75 151.21 163.14C150.66 165.8 148.07 167.51 145.4 166.97C142.74 166.42 141.03 163.83 141.57 161.16C141.59 161.34 141.68 161.08 141.53 160.56C141.42 160.06 141.04 159.34 140.62 158.63C139.71 157.19 138.4 155.69 136.97 154.27C134.07 151.43 130.67 148.82 127.1 146.49C123.52 144.15 119.74 142.05 115.84 140.29C111.95 138.55 107.88 137.09 103.9 136.58L103.81 136.57C102.45 136.4 101.5 135.15 101.67 133.8C101.82 132.53 102.94 131.6 104.2 131.64Z" fill="#8BD74B"/>
<path d="M101.721 133.45C105.061 134.8 108.231 136.36 111.351 138.05C114.461 139.75 117.511 141.55 120.481 143.54C123.461 145.53 126.371 147.66 129.161 150.2C130.561 151.48 131.921 152.86 133.221 154.55C133.861 155.44 134.501 156.33 135.061 157.51C135.601 158.68 136.131 160.05 136.211 161.9C136.211 164.62 134.011 166.81 131.301 166.81C128.581 166.81 126.391 164.61 126.391 161.9C126.441 162.01 126.461 161.71 126.331 161.3C126.221 160.89 125.931 160.32 125.631 159.76C124.971 158.62 124.051 157.4 123.031 156.23C120.991 153.86 118.571 151.59 116.051 149.43C113.531 147.27 110.861 145.22 108.121 143.27C105.381 141.33 102.551 139.5 99.6606 137.91L99.6306 137.9C98.4306 137.24 97.9906 135.74 98.6506 134.54C99.2406 133.45 100.571 132.99 101.721 133.45Z" fill="#8BD74B"/>
<path d="M105.73 129.96C109.46 128.81 113.16 128.61 116.79 128.66C120.41 128.76 123.98 129.19 127.51 129.85C131.04 130.52 134.53 131.41 138.01 132.63C138.88 132.96 139.75 133.28 140.62 133.64C141.49 134.05 142.36 134.39 143.25 134.86C144.14 135.35 145.01 135.76 145.93 136.44L146.61 136.91C146.84 137.06 147.06 137.22 147.31 137.46C147.8 137.89 148.28 138.33 148.75 138.8C150.69 140.7 150.73 143.8 148.83 145.74C146.93 147.68 143.83 147.72 141.89 145.82C141.86 145.79 141.84 145.77 141.81 145.74L141.21 145.12C141.07 144.98 140.94 144.83 140.82 144.65C140.78 144.57 140.67 144.47 140.55 144.37L140.21 144.07C139.81 143.66 139.18 143.26 138.61 142.85C138.04 142.44 137.35 142.08 136.71 141.68C136.04 141.31 135.34 140.96 134.65 140.59C131.83 139.19 128.8 138.02 125.7 137.05C122.61 136.08 119.44 135.31 116.26 134.83C113.1 134.39 109.88 134.23 106.97 134.75L106.86 134.77C105.52 135.01 104.23 134.12 103.99 132.77C103.81 131.52 104.55 130.32 105.73 129.96Z" fill="#8BD74B"/>
<path d="M101.19 138.38C99.6202 138.38 98.0502 137.8 96.8302 136.62C94.3202 134.21 94.2302 130.22 96.6402 127.71C96.7102 127.64 100.95 123.2 106.7 116.75C105.04 117.64 103 117.79 101.15 116.97C97.9702 115.56 96.5302 111.84 97.9502 108.66C103.12 97 121.32 59.03 138.95 59.88C141.34 59.99 147.19 61.11 149.83 69.01C151.65 74.44 150.58 83.56 128.95 110.13C117.74 123.9 106.23 135.93 105.74 136.43C104.5 137.73 102.84 138.38 101.19 138.38ZM137.73 72.63C133.94 73.99 122.42 84.63 109.58 113.51C112.32 110.39 115.27 106.94 118.19 103.38C136.92 80.59 137.78 73.73 137.8 72.82C137.78 72.76 137.75 72.69 137.73 72.63Z" fill="#8BD74B"/>
<path d="M48.3104 136.58C44.3304 137.09 40.2504 138.54 36.3704 140.29C32.4704 142.05 28.6904 144.14 25.1104 146.49C21.5404 148.83 18.1304 151.43 15.2404 154.27C13.8004 155.69 12.5004 157.19 11.5904 158.63C11.1604 159.34 10.7804 160.05 10.6804 160.56C10.5304 161.08 10.6104 161.34 10.6404 161.16C11.1904 163.82 9.48036 166.42 6.81036 166.97C4.15036 167.52 1.55036 165.81 1.00036 163.14C0.590364 160.74 1.13036 158.74 1.76036 157.19C2.41036 155.59 3.24037 154.41 4.08037 153.28C5.78037 151.11 7.62036 149.41 9.50036 147.85C13.2804 144.77 17.2604 142.3 21.3704 140.11C25.4804 137.93 29.7204 136.06 34.1204 134.54C38.5304 133.04 43.0704 131.82 48.0104 131.64C49.3704 131.59 50.5204 132.65 50.5704 134.02C50.6204 135.31 49.6804 136.4 48.4304 136.56L48.3104 136.58Z" fill="#8BD74B"/>
<path d="M52.56 137.93C49.67 139.52 46.83 141.35 44.09 143.29C41.35 145.23 38.68 147.28 36.16 149.45C33.64 151.61 31.22 153.88 29.18 156.25C28.17 157.42 27.24 158.64 26.58 159.78C26.28 160.33 25.99 160.9 25.88 161.32C25.75 161.73 25.77 162.04 25.82 161.92C25.82 164.64 23.62 166.83 20.91 166.83C18.19 166.83 16 164.63 16 161.92C16.07 160.07 16.6 158.7 17.15 157.53C17.7 156.35 18.34 155.46 18.99 154.57C20.29 152.87 21.65 151.5 23.05 150.22C25.84 147.68 28.75 145.55 31.73 143.56C34.7 141.57 37.75 139.76 40.86 138.07C43.98 136.38 47.14 134.82 50.49 133.47C51.76 132.96 53.2 133.57 53.71 134.84C54.18 136.01 53.69 137.34 52.61 137.94L52.56 137.93Z" fill="#8BD74B"/>
<path d="M45.1799 134.74C42.2799 134.21 39.0599 134.37 35.8899 134.82C32.7099 135.29 29.5399 136.07 26.4499 137.04C23.3599 138.01 20.3299 139.19 17.4999 140.58C16.8099 140.95 16.1099 141.3 15.4399 141.67C14.8099 142.07 14.1199 142.44 13.5399 142.84C12.9899 143.25 12.3499 143.65 11.9399 144.06L11.5999 144.36C11.4799 144.46 11.3699 144.55 11.3299 144.64C11.2099 144.81 11.0799 144.96 10.9399 145.11L10.3499 145.72C8.46993 147.66 5.35993 147.72 3.40993 145.83C1.46993 143.95 1.40993 140.84 3.29993 138.89C3.32993 138.86 3.36992 138.82 3.38992 138.8C3.85992 138.35 4.33992 137.9 4.82992 137.46C5.07992 137.23 5.30992 137.06 5.52992 136.91L6.20993 136.44C7.13993 135.77 8.00992 135.36 8.88992 134.86C9.77992 134.39 10.6499 134.05 11.5199 133.64C12.3899 133.28 13.2599 132.97 14.1299 132.63C17.6099 131.4 21.0999 130.52 24.6299 129.85C28.1599 129.19 31.7299 128.76 35.3499 128.66C38.9699 128.6 42.6699 128.8 46.4099 129.96C47.7199 130.36 48.4499 131.75 48.0499 133.05C47.6799 134.26 46.4599 134.98 45.2499 134.76L45.1799 134.74Z" fill="#8BD74B"/>
<path d="M51.0098 138.38C49.3498 138.38 47.6998 137.73 46.4598 136.44C45.9798 135.93 34.4598 123.91 23.2498 110.14C1.61979 83.5799 0.559779 74.4499 2.36978 69.0199C5.00978 61.1199 10.8598 59.9999 13.2498 59.8899C30.8598 59.0899 49.0898 97.0099 54.2498 108.67C55.6598 111.85 54.2198 115.57 51.0498 116.98C49.1898 117.8 47.1498 117.65 45.4998 116.76C51.2498 123.21 55.4998 127.64 55.5698 127.72C57.9798 130.23 57.8898 134.22 55.3798 136.63C54.1398 137.8 52.5698 138.38 51.0098 138.38ZM14.3898 72.8199C14.4098 73.7299 15.2698 80.5899 34.0398 103.43C36.9598 106.97 39.8898 110.4 42.6098 113.51C29.7698 84.6299 18.2498 73.9999 14.4598 72.6299C14.4398 72.6899 14.4098 72.7599 14.3898 72.8199Z" fill="#8BD74B"/>
<path d="M113.63 84.3501C113.63 99.4501 109.7 113.17 103.28 123.3C96.4503 134.12 86.7903 140.87 76.1003 140.87C65.3903 140.87 55.7403 134.12 48.9203 123.3C42.5003 113.17 38.5703 99.4501 38.5703 84.3501C38.5703 53.1301 55.3703 27.8101 76.1103 27.8101C96.8203 27.8201 113.63 53.1301 113.63 84.3501Z" fill="#8BD74B"/>
<path d="M106.481 98.06C106.481 107.14 105.331 115.72 103.281 123.31C96.4507 134.13 86.7907 140.88 76.1007 140.88C65.3907 140.88 55.7407 134.13 48.9207 123.31C46.8707 115.71 45.7207 107.13 45.7207 98.06C45.7207 66.84 59.3307 41.54 76.1107 41.54C92.8707 41.53 106.481 66.84 106.481 98.06Z" fill="#B0E881"/>
<path d="M61.6311 120.98C65.3611 120.98 68.3911 117.96 68.3911 114.22C68.3911 110.49 65.3711 107.46 61.6311 107.46C57.9011 107.46 54.8711 110.48 54.8711 114.22C54.8711 117.95 57.9011 120.98 61.6311 120.98Z" fill="#DFF6CD"/>
<path d="M61.6297 121.17C61.1597 121.17 60.6797 121.12 60.1997 121.02C56.4497 120.23 54.0397 116.54 54.8297 112.8C55.2097 110.98 56.2797 109.43 57.8297 108.41C59.3897 107.4 61.2297 107.05 63.0497 107.43C64.8697 107.81 66.4197 108.88 67.4397 110.43C68.4497 111.99 68.7997 113.83 68.4197 115.65C67.7397 118.92 64.8497 121.17 61.6297 121.17ZM60.2797 120.65C63.8297 121.39 67.3097 119.11 68.0597 115.58C68.4197 113.86 68.0897 112.11 67.1297 110.64C66.1697 109.17 64.6997 108.16 62.9797 107.8C61.2597 107.44 59.5097 107.77 58.0397 108.73C56.5697 109.69 55.5597 111.16 55.1997 112.88C54.4597 116.42 56.7297 119.9 60.2797 120.65Z" fill="#F2F2F2"/>
<path d="M84.7911 130.39C87.4111 130.39 89.5411 128.26 89.5411 125.64C89.5411 123.02 87.4111 120.89 84.7911 120.89C82.1611 120.89 80.0411 123.02 80.0411 125.64C80.0311 128.26 82.1611 130.39 84.7911 130.39Z" fill="#DFF6CD"/>
<path d="M84.7912 130.58C84.4612 130.58 84.1212 130.55 83.7812 130.47C81.1212 129.91 79.4013 127.29 79.9613 124.62C80.5213 121.96 83.1512 120.24 85.8112 120.8C88.4712 121.36 90.1913 123.98 89.6313 126.65C89.1313 128.98 87.0812 130.58 84.7912 130.58ZM83.8412 130.11C86.3112 130.62 88.7312 129.04 89.2512 126.58C89.7612 124.12 88.1812 121.69 85.7212 121.17C83.2412 120.66 80.8312 122.24 80.3112 124.7C79.8012 127.17 81.3812 129.59 83.8412 130.11Z" fill="#F2F2F2"/>
<path d="M84.4905 106.5C86.7005 106.5 88.5005 104.7 88.5005 102.49C88.5005 100.28 86.7105 98.48 84.4905 98.48C82.2805 98.48 80.4805 100.28 80.4805 102.49C80.4805 104.71 82.2705 106.5 84.4905 106.5Z" fill="#DFF6CD"/>
<path d="M84.4797 106.68C84.1897 106.68 83.9097 106.65 83.6197 106.59C82.5297 106.36 81.5797 105.72 80.9797 104.78C80.3697 103.85 80.1597 102.72 80.3897 101.63C80.6197 100.54 81.2597 99.59 82.1997 98.98C83.1297 98.37 84.2597 98.16 85.3497 98.39C87.6097 98.86 89.0597 101.09 88.5897 103.35C88.1697 105.33 86.4297 106.68 84.4797 106.68ZM83.6997 106.23C85.7597 106.66 87.7897 105.34 88.2197 103.28C88.4297 102.29 88.2397 101.26 87.6797 100.41C87.1297 99.56 86.2597 98.97 85.2697 98.76C84.2797 98.55 83.2497 98.74 82.3997 99.3C81.5497 99.85 80.9597 100.72 80.7497 101.71C80.5397 102.7 80.7297 103.73 81.2897 104.58C81.8497 105.44 82.6997 106.02 83.6997 106.23Z" fill="#F2F2F2"/>
<path d="M105.9 46.19C118.59 46.19 128.88 35.9 128.88 23.21C128.88 10.51 118.59 0.22998 105.9 0.22998C93.2099 0.22998 82.9199 10.52 82.9199 23.21C82.9199 35.9 93.2099 46.19 105.9 46.19Z" fill="#8BD74B"/>
<path d="M104.47 39.0001C114.38 39.0001 122.42 30.9601 122.42 21.0501C122.42 11.1401 114.38 3.1001 104.47 3.1001C94.5595 3.1001 86.5195 11.1401 86.5195 21.0501C86.5095 30.9601 94.5495 39.0001 104.47 39.0001Z" fill="white"/>
<path d="M104.791 32.3901C111.921 32.3901 117.691 26.6201 117.691 19.4901C117.691 12.3601 111.911 6.59009 104.791 6.59009C97.6606 6.59009 91.8906 12.3601 91.8906 19.4901C91.8806 26.6101 97.6606 32.3901 104.791 32.3901Z" fill="#183B59"/>
<path d="M46.2906 46.19C58.9805 46.19 69.2706 35.9 69.2706 23.21C69.2706 10.51 58.9805 0.22998 46.2906 0.22998C33.6006 0.22998 23.3106 10.52 23.3106 23.21C23.3006 35.9 33.5906 46.19 46.2906 46.19Z" fill="#8BD74B"/>
<path d="M44.8504 39.0001C54.7604 39.0001 62.8004 30.9601 62.8004 21.0501C62.8004 11.1401 54.7604 3.1001 44.8504 3.1001C34.9404 3.1001 26.9004 11.1401 26.9004 21.0501C26.9004 30.9601 34.9404 39.0001 44.8504 39.0001Z" fill="white"/>
<path d="M45.1695 32.3901C52.2995 32.3901 58.0695 26.6201 58.0695 19.4901C58.0695 12.3601 52.2895 6.59009 45.1695 6.59009C38.0395 6.59009 32.2695 12.3601 32.2695 19.4901C32.2695 26.6101 38.0395 32.3901 45.1695 32.3901Z" fill="#183B59"/>
<path d="M100.19 111.09C97.8896 111.09 95.4996 110.46 93.1996 109.2C85.7896 105.15 80.7096 95.5899 80.5396 85.3899C80.4996 82.6699 82.6596 80.4399 85.3796 80.3999C85.4096 80.3999 85.4296 80.3999 85.4596 80.3999C88.1396 80.3999 90.3296 82.5499 90.3696 85.2399C90.4896 93.0099 94.3596 98.6399 97.9096 100.57C98.8796 101.1 100.27 101.6 101.33 100.94C103 99.9099 104.83 95.7899 104.51 87.5899C104.4 84.8799 106.52 82.5899 109.23 82.4799C111.97 82.3999 114.23 84.4899 114.34 87.1999C114.89 101.11 110.38 106.89 106.51 109.29C104.57 110.5 102.42 111.09 100.19 111.09Z" fill="#8BD74B"/>
<path d="M87.6297 82.5201L89.4197 82.7301C90.0097 82.7701 90.5897 82.7801 91.1797 82.8001C92.3197 82.7501 93.4397 82.6701 94.4197 82.3701C95.3997 82.1001 96.2697 81.6801 96.9097 81.1501C97.2197 80.8801 97.5097 80.6001 97.7097 80.3001C97.8197 80.1601 97.8997 80.0001 97.9697 79.8701C97.9997 79.8001 98.0397 79.7301 98.0397 79.6801C98.0397 79.6601 98.0697 79.6101 98.0497 79.6101C98.0397 79.6201 98.0597 79.5401 97.9797 79.7001C98.7697 77.9601 100.82 77.1901 102.56 77.9801C104.3 78.7701 105.07 80.8201 104.28 82.5601C104.13 82.8601 104.07 82.9201 103.98 83.0701C103.89 83.2101 103.82 83.3001 103.73 83.4101C103.57 83.6401 103.4 83.8101 103.24 84.0001C102.91 84.3601 102.57 84.7001 102.21 84.9901C101.5 85.6001 100.71 86.0501 99.9297 86.4401C98.3397 87.1901 96.6897 87.5101 95.1397 87.5801C93.5697 87.6801 92.0997 87.4501 90.6797 87.2001C89.9897 87.0201 89.2997 86.8501 88.6197 86.6601L86.6597 85.9701C85.7297 85.6401 85.2397 84.6301 85.5697 83.6901C85.8497 82.8801 86.6497 82.4101 87.4697 82.5101L87.6297 82.5201Z" fill="#8BD74B"/>
<path d="M85.0699 82.16L86.6399 81.27C87.1399 80.95 87.6099 80.61 88.0999 80.29C88.9899 79.57 89.8499 78.85 90.4599 78.01C91.0899 77.2 91.5599 76.35 91.7699 75.52C91.8599 75.11 91.9399 74.71 91.9199 74.33C91.9299 74.14 91.8999 73.96 91.8799 73.8C91.8599 73.73 91.8499 73.64 91.8299 73.59C91.8199 73.57 91.8199 73.52 91.7999 73.52C91.7899 73.53 91.7699 73.45 91.7999 73.61C91.3999 71.85 92.4999 70.1 94.2599 69.7C96.0199 69.3 97.7699 70.4 98.1699 72.16C98.2299 72.47 98.2199 72.55 98.2399 72.73C98.2499 72.89 98.2499 73 98.2499 73.14C98.2599 73.41 98.2399 73.65 98.2199 73.89C98.1699 74.37 98.1199 74.84 98.0099 75.28C97.8199 76.18 97.4799 77 97.0999 77.78C96.3099 79.33 95.2099 80.58 94.0399 81.58C92.8699 82.61 91.5799 83.34 90.2999 84C89.6499 84.28 88.9999 84.57 88.3499 84.83L86.3899 85.49C85.4599 85.8 84.4499 85.3 84.1299 84.37C83.8599 83.55 84.2099 82.66 84.9399 82.25L85.0699 82.16Z" fill="#8BD74B"/>
<path d="M81.7408 81.52C82.2908 80.71 82.7908 79.92 83.0008 79.07C83.2508 78.24 83.3408 77.39 83.2308 76.53C83.1408 75.68 82.9208 74.83 82.5608 74.01C82.3808 73.6 82.1908 73.2 81.9508 72.81C81.8408 72.62 81.7208 72.43 81.6008 72.26C81.4908 72.11 81.3308 71.87 81.2808 71.86C79.1508 71.29 77.8808 69.11 78.4508 66.98C79.0208 64.85 81.2008 63.58 83.3308 64.15C84.4508 64.45 85.3308 65.19 85.8308 66.15L86.9608 68.31C87.2108 68.79 87.3108 69.06 87.4508 69.43C87.5808 69.77 87.7008 70.11 87.7908 70.45C88.0008 71.13 88.1608 71.82 88.2708 72.52C88.5008 73.92 88.5408 75.38 88.3408 76.82C88.1508 78.26 87.6508 79.69 86.9208 80.93C86.2308 82.2 85.2208 83.19 84.2208 84.07C83.4908 84.72 82.3608 84.65 81.7108 83.92C81.1608 83.3 81.1208 82.4 81.5708 81.74L81.7408 81.52Z" fill="#8BD74B"/>
<path d="M52.0107 111.09C49.7707 111.09 47.6207 110.5 45.6907 109.3C41.8207 106.9 37.3207 101.12 37.8607 87.2099C37.9707 84.4999 40.2007 82.3999 42.9707 82.4899C45.6807 82.5999 47.8007 84.8799 47.6907 87.5999C47.3707 95.7999 49.2107 99.9099 50.8707 100.95C51.9307 101.6 53.3107 101.11 54.2907 100.58C57.8307 98.6399 61.7107 93.0199 61.8307 85.2499C61.8707 82.5599 64.0707 80.4099 66.7407 80.4099C66.7707 80.4099 66.7907 80.4099 66.8207 80.4099C69.5407 80.4499 71.7007 82.6899 71.6607 85.3999C71.5007 95.5899 66.4107 105.16 59.0007 109.21C56.6907 110.46 54.3007 111.09 52.0107 111.09Z" fill="#8BD74B"/>
<path d="M65.53 85.9601L63.57 86.6501C62.9 86.8501 62.21 87.0101 61.51 87.1901C60.09 87.4501 58.63 87.6801 57.05 87.5701C55.49 87.5001 53.85 87.1801 52.26 86.4301C51.47 86.0401 50.69 85.5901 49.98 84.9801C49.61 84.6901 49.28 84.3501 48.95 83.9901C48.78 83.8001 48.62 83.6201 48.46 83.4001C48.38 83.2901 48.31 83.2001 48.21 83.0601C48.12 82.9101 48.06 82.8501 47.91 82.5501C47.12 80.8101 47.89 78.7601 49.63 77.9701C51.37 77.1801 53.42 77.9501 54.21 79.6901C54.13 79.5401 54.16 79.6201 54.14 79.6001C54.13 79.6001 54.15 79.6501 54.15 79.6701C54.16 79.7201 54.2 79.7901 54.22 79.8601C54.29 79.9901 54.37 80.1501 54.48 80.2901C54.68 80.6001 54.97 80.8701 55.28 81.1401C55.92 81.6701 56.79 82.0901 57.77 82.3601C58.74 82.6701 59.87 82.7401 61.01 82.7901C61.59 82.7601 62.17 82.7601 62.77 82.7201L64.56 82.5101L64.72 82.4901C65.7 82.3701 66.59 83.0701 66.7 84.0501C66.81 84.9001 66.3 85.6801 65.53 85.9601Z" fill="#8BD74B"/>
<path d="M65.8112 85.47L63.8512 84.81C63.2012 84.56 62.5512 84.26 61.9012 83.98C60.6212 83.32 59.3412 82.6 58.1612 81.56C56.9912 80.56 55.8812 79.31 55.1012 77.76C54.7212 76.98 54.3912 76.16 54.1912 75.26C54.0812 74.82 54.0212 74.35 53.9812 73.87C53.9712 73.62 53.9512 73.39 53.9512 73.12C53.9612 72.98 53.9512 72.87 53.9612 72.71C53.9812 72.54 53.9712 72.46 54.0312 72.14C54.4312 70.38 56.1812 69.28 57.9412 69.68C59.7012 70.08 60.8012 71.83 60.4012 73.59C60.4312 73.44 60.4012 73.51 60.4012 73.5C60.3912 73.5 60.3812 73.55 60.3712 73.57C60.3412 73.62 60.3412 73.7 60.3212 73.78C60.3012 73.94 60.2712 74.12 60.2812 74.31C60.2612 74.68 60.3412 75.09 60.4312 75.5C60.6412 76.33 61.1012 77.18 61.7412 77.99C62.3512 78.82 63.2112 79.55 64.1012 80.27C64.5812 80.59 65.0512 80.93 65.5612 81.25L67.1312 82.14L67.2612 82.22C68.1112 82.71 68.4112 83.8 67.9312 84.65C67.5012 85.42 66.6012 85.74 65.8112 85.47Z" fill="#8BD74B"/>
<path d="M67.9399 84.0599C66.9499 83.1799 65.9399 82.1799 65.2399 80.9199C64.5099 79.6799 63.9999 78.2599 63.8199 76.8099C63.6099 75.3699 63.6498 73.9099 63.8898 72.5099C64.0098 71.8099 64.1598 71.1199 64.3698 70.4399C64.4698 70.0999 64.5899 69.7599 64.7099 69.4199C64.8599 69.0599 64.9498 68.7799 65.1998 68.2999L66.3199 66.1599C67.3399 64.2099 69.7398 63.4499 71.6998 64.4699C73.6498 65.4899 74.4098 67.8899 73.3898 69.8499C72.8598 70.8799 71.9099 71.5799 70.8799 71.8599C70.8299 71.8699 70.6698 72.1099 70.5598 72.2599C70.4398 72.4399 70.3199 72.6199 70.2099 72.8099C69.9799 73.1899 69.7799 73.5999 69.5999 74.0099C69.2499 74.8299 69.0298 75.6899 68.9298 76.5299C68.8298 77.3799 68.9099 78.2299 69.1599 79.0699C69.3699 79.9299 69.8698 80.7199 70.4198 81.5199L70.5598 81.7299C71.1098 82.5399 70.8998 83.6499 70.0898 84.1999C69.4398 84.6699 68.5399 84.5899 67.9399 84.0599Z" fill="#8BD74B"/>
<path d="M66.5597 41.5899C67.7697 41.7899 68.6497 41.6899 69.4597 41.5599C70.2497 41.4299 70.9497 41.2699 71.6497 41.1299C73.0397 40.8399 74.3897 40.6799 75.8197 40.6299C77.2497 40.5799 78.7197 40.6499 80.2897 40.8999C81.0797 41.0299 81.8797 41.1899 82.7297 41.3899L84.0597 41.7099C84.3097 41.7699 84.5297 41.8099 84.7897 41.8399C84.9197 41.8599 85.0497 41.8699 85.1897 41.8899C85.3197 41.8899 85.4597 41.8799 85.6197 41.8699C85.6797 42.1799 85.6197 42.4899 85.5497 42.7999C85.4597 43.0899 85.3397 43.3799 85.2097 43.6499C84.9397 44.2099 84.5997 44.6599 84.2397 45.0999C83.5097 45.9499 82.6597 46.5999 81.7797 47.1399C80.0197 48.1999 78.0697 48.7099 76.0697 48.7799C74.0697 48.8299 71.9797 48.4499 70.0397 47.3199C69.0797 46.7499 68.1597 45.9999 67.4597 45.0199C66.7897 44.0299 66.3197 42.8099 66.5597 41.5899Z" fill="#46B755"/>
</svg>
