<svg width="448" height="264" viewBox="0 0 448 264" fill="none" xmlns="http://www.w3.org/2000/svg">
<path d="M331.29 99.82C331.9 101.28 332.33 102.73 332.59 104.13C332.72 104.83 332.82 105.5 332.89 106.15C332.97 106.79 333.03 107.4 333.07 107.96C333.22 110.22 333.03 111.79 333.03 111.79C333.03 111.79 331.71 111.01 330.02 109.46C329.6 109.07 329.15 108.64 328.7 108.16C328.27 107.67 327.83 107.13 327.4 106.55C326.55 105.38 325.7 104.05 325.07 102.53C324.46 101 324.07 99.46 323.84 98.03C323.78 97.67 323.73 97.32 323.69 96.97C323.66 96.62 323.64 96.28 323.62 95.95C323.59 95.28 323.59 94.66 323.61 94.08C323.68 91.77 324.03 90.26 324.03 90.26C324.03 90.26 325.28 91.21 326.78 92.88C327.16 93.3 327.55 93.76 327.94 94.26C328.14 94.51 328.33 94.78 328.53 95.05C328.74 95.32 328.94 95.6 329.14 95.89C329.95 97.04 330.7 98.35 331.29 99.82Z" fill="#46B755"/>
<path d="M331.37 108.36C331.37 108.36 331.1 108.2 330.65 107.88C330.19 107.56 329.59 107.07 328.89 106.43C327.51 105.13 325.7 103.23 324.42 100.7C324.6 101.31 324.81 101.93 325.06 102.55C325.69 104.07 326.54 105.41 327.39 106.57C327.82 107.15 328.26 107.69 328.69 108.18C329.14 108.66 329.59 109.1 330.01 109.48C331.7 111.03 333.02 111.81 333.02 111.81C333.02 111.81 333.21 110.24 333.06 107.98C333.02 107.41 332.96 106.81 332.88 106.17C332.81 105.52 332.72 104.84 332.58 104.15C332.32 102.75 331.88 101.3 331.28 99.8401C331.04 99.2501 330.78 98.6801 330.49 98.1401C331.21 100.79 331.49 103.3 331.49 105.21C331.5 106.16 331.45 106.97 331.43 107.51C331.41 108.04 331.37 108.36 331.37 108.36Z" fill="#3EA34C"/>
<path d="M327.98 113.63C328.83 114.03 329.6 114.47 330.36 114.9C331.12 115.34 331.82 115.79 332.48 116.25C333.79 117.16 334.87 118.1 335.77 118.92C337.59 120.55 338.54 121.83 338.54 121.83C338.54 121.83 336.72 122.09 334.01 121.97C332.66 121.9 331.06 121.76 329.4 121.4C327.74 121.04 325.98 120.5 324.24 119.7C323.37 119.3 322.53 118.86 321.78 118.38C321.02 117.9 320.32 117.39 319.66 116.87C318.35 115.83 317.22 114.76 316.35 113.78C314.62 111.8 313.74 110.27 313.74 110.27C313.74 110.27 315.62 110.31 318.33 110.77C319.69 110.99 321.22 111.33 322.89 111.79C324.55 112.23 326.29 112.83 327.98 113.63Z" fill="#46B755"/>
<path d="M330.611 115.04C332.271 116.32 333.521 117.58 334.371 118.52C334.781 118.99 335.121 119.37 335.351 119.64C335.571 119.91 335.691 120.06 335.691 120.06C335.691 120.06 335.231 120.12 334.431 120.15C333.631 120.19 332.481 120.2 331.141 120.1C329.791 120 328.231 119.8 326.551 119.42C324.891 119.03 323.081 118.48 321.391 117.61C320.441 117.14 319.551 116.61 318.721 116.05C320.251 117.36 322.051 118.7 324.261 119.68C326.001 120.48 327.761 121.02 329.421 121.38C331.071 121.74 332.681 121.88 334.031 121.95C336.741 122.07 338.561 121.81 338.561 121.81C338.561 121.81 337.851 120.86 336.491 119.55C336.151 119.22 335.761 118.88 335.351 118.51C334.941 118.14 334.501 117.75 334.011 117.36C333.031 116.6 331.901 115.8 330.611 115.04Z" fill="#3EA34C"/>
<path d="M335.2 128.1C337.17 128.8 338.89 129.68 340.42 130.56C341.97 131.43 343.28 132.34 344.35 133.16C345.4 134 346.26 134.71 346.83 135.24C347.4 135.77 347.7 136.1 347.7 136.1C347.7 136.1 345.71 136.58 342.69 136.74C341.17 136.83 339.45 136.78 337.56 136.56C335.69 136.33 333.65 135.93 331.65 135.21C329.67 134.48 327.87 133.52 326.29 132.5C324.71 131.48 323.43 130.35 322.35 129.35C321.29 128.34 320.44 127.44 319.91 126.77C319.38 126.1 319.1 125.69 319.1 125.69C319.1 125.69 319.62 125.66 320.52 125.66C321.42 125.66 322.68 125.71 324.22 125.83C325.75 125.95 327.53 126.16 329.39 126.52C331.27 126.88 333.22 127.4 335.2 128.1Z" fill="#46B755"/>
<path d="M337.401 129C338.401 129.65 339.251 130.32 340.041 130.92C340.821 131.52 341.491 132.09 342.021 132.57C343.091 133.54 343.651 134.21 343.651 134.21C343.651 134.21 341.651 134.64 338.631 134.7C337.121 134.73 335.351 134.67 333.451 134.4C331.581 134.12 329.581 133.63 327.571 132.86C326.791 132.55 326.021 132.22 325.311 131.85C327.101 133.12 329.241 134.33 331.641 135.22C333.641 135.94 335.681 136.35 337.551 136.57C339.441 136.79 341.161 136.83 342.681 136.75C345.701 136.59 347.691 136.11 347.691 136.11C347.691 136.11 347.451 135.84 346.981 135.4C346.521 134.96 345.801 134.36 344.931 133.65C344.061 132.94 342.981 132.14 341.711 131.34C341.081 130.94 340.381 130.55 339.671 130.16C338.961 129.75 338.201 129.36 337.401 129Z" fill="#3EA34C"/>
<path d="M344.64 143.44C346.91 144.01 348.93 144.77 350.71 145.59C352.53 146.38 354.09 147.23 355.36 148.03C356.62 148.84 357.67 149.52 358.35 150.04C359.04 150.56 359.41 150.89 359.41 150.89C359.41 150.89 357.26 151.67 353.93 152.19C352.25 152.46 350.32 152.62 348.2 152.59C347.14 152.57 346.04 152.51 344.91 152.37C343.78 152.24 342.62 152.04 341.48 151.74C339.19 151.14 337.07 150.27 335.21 149.3C333.38 148.3 331.79 147.2 330.48 146.19C330.15 145.94 329.84 145.69 329.55 145.45C329.27 145.21 329 144.97 328.76 144.74C328.27 144.29 327.85 143.88 327.52 143.53C326.85 142.84 326.49 142.41 326.49 142.41C326.49 142.41 328.8 142.07 332.21 142.05C333.9 142.05 335.91 142.09 338.03 142.29C339.09 142.39 340.18 142.53 341.29 142.72C342.39 142.91 343.5 143.16 344.64 143.44Z" fill="#46B755"/>
<path d="M347.44 144.27C348.66 144.88 349.71 145.54 350.68 146.13C351.64 146.72 352.47 147.28 353.13 147.77C354.46 148.75 355.19 149.44 355.19 149.44C355.19 149.44 353.03 150.15 349.69 150.57C348.02 150.78 346.04 150.91 343.91 150.83C341.8 150.73 339.52 150.41 337.2 149.77C336.7 149.63 336.21 149.48 335.72 149.32C335.24 149.15 334.78 148.97 334.33 148.78C335.34 149.39 336.48 149.94 337.69 150.44C338.89 150.94 340.17 151.38 341.51 151.73C342.65 152.04 343.81 152.23 344.94 152.36C346.07 152.49 347.17 152.56 348.23 152.58C350.35 152.61 352.28 152.45 353.96 152.18C357.29 151.66 359.44 150.88 359.44 150.88C359.44 150.88 359.15 150.62 358.59 150.19C358.04 149.76 357.21 149.19 356.17 148.52C354.11 147.16 351.07 145.57 347.44 144.27Z" fill="#3EA34C"/>
<path d="M337.69 108.64C337.48 109.53 337.3 110.42 337.22 111.27C337.13 112.12 337.1 112.94 337.1 113.73C337.11 115.3 337.24 116.75 337.46 117.95C337.92 120.34 338.55 121.83 338.55 121.83C338.55 121.83 339.65 120.3 340.93 117.91C341.58 116.71 342.24 115.31 342.9 113.76C343.55 112.2 344.14 110.51 344.55 108.77C344.76 107.9 344.89 107.06 345.02 106.24C345.15 105.42 345.23 104.63 345.27 103.88C345.37 102.38 345.3 101.06 345.22 99.93C345.08 97.67 344.67 96.28 344.67 96.28C344.67 96.28 343.38 97.58 341.84 99.77C341.08 100.87 340.23 102.2 339.51 103.69C338.78 105.18 338.13 106.85 337.69 108.64Z" fill="#46B755"/>
<path d="M337.199 111.54C337.279 113.57 337.599 115.31 337.889 116.53C338.029 117.14 338.189 117.61 338.299 117.94C338.409 118.26 338.489 118.44 338.489 118.44C338.489 118.44 338.769 118.07 339.209 117.4C339.649 116.73 340.249 115.77 340.929 114.58C341.599 113.39 342.329 112 342.999 110.47C343.679 108.94 344.249 107.3 344.729 105.55C344.989 104.59 345.179 103.66 345.309 102.77C345.289 104.53 345.029 106.59 344.539 108.77C344.129 110.51 343.539 112.2 342.889 113.76C342.239 115.32 341.569 116.71 340.919 117.91C339.639 120.3 338.539 121.83 338.539 121.83C338.539 121.83 338.079 120.72 337.649 118.89C337.549 118.43 337.439 117.93 337.349 117.38C337.269 116.83 337.209 116.24 337.159 115.62C337.079 114.37 337.069 112.99 337.199 111.54Z" fill="#3EA34C"/>
<path d="M345.47 121.62C345.18 123.62 345.13 125.56 345.28 127.31C345.45 129.04 345.77 130.61 346.12 131.92C346.46 133.24 346.88 134.27 347.18 134.99C347.49 135.71 347.7 136.1 347.7 136.1C347.7 136.1 348.75 134.3 349.92 131.53C350.49 130.15 351.16 128.49 351.71 126.72C352.28 124.94 352.73 123.04 353.03 121.07C353.35 119.09 353.43 117.26 353.38 115.62C353.33 113.98 353.21 112.49 353 111.27C352.81 110.04 352.54 109.08 352.37 108.39C352.19 107.7 352.06 107.33 352.06 107.33C352.06 107.33 351.73 107.72 351.21 108.43C350.69 109.14 349.96 110.18 349.23 111.45C348.49 112.73 347.71 114.26 347.03 115.99C346.34 117.7 345.75 119.62 345.47 121.62Z" fill="#46B755"/>
<path d="M345.24 123.94C345.36 125.09 345.52 126.17 345.75 127.09C345.98 128.02 346.23 128.83 346.46 129.51C346.92 130.85 347.3 131.62 347.3 131.62C347.3 131.62 348.41 129.84 349.66 127.1C350.29 125.73 350.95 124.13 351.54 122.38C352.16 120.62 352.7 118.72 353.04 116.79C353.18 116.03 353.26 115.3 353.34 114.58C353.46 116.47 353.43 118.65 353.04 121.06C352.74 123.03 352.28 124.93 351.72 126.71C351.17 128.48 350.5 130.14 349.93 131.52C348.76 134.29 347.71 136.09 347.71 136.09C347.71 136.09 347.54 135.77 347.27 135.18C347.02 134.59 346.64 133.74 346.32 132.65C346 131.56 345.68 130.25 345.46 128.78C345.35 128.04 345.25 127.28 345.22 126.46C345.19 125.66 345.19 124.81 345.24 123.94Z" fill="#3EA34C"/>
<path d="M355.35 135.11C355.23 137.36 355.41 139.5 355.74 141.42C356.12 143.32 356.64 145.01 357.17 146.43C357.69 147.86 358.28 148.94 358.7 149.71C359.12 150.47 359.4 150.88 359.4 150.88C359.4 150.88 360.36 148.75 361.35 145.54C361.83 143.95 362.37 142.04 362.8 140.01C363.01 138.99 363.2 137.94 363.35 136.88C363.5 135.81 363.6 134.73 363.68 133.62C363.83 131.4 363.72 129.38 363.51 127.58C363.33 125.75 363.01 124.16 362.67 122.84C362.58 122.51 362.5 122.2 362.41 121.9C362.33 121.6 362.25 121.32 362.17 121.06C362.01 120.53 361.86 120.09 361.73 119.72C361.46 118.99 361.27 118.59 361.27 118.59C361.27 118.59 359.95 120.44 358.52 123.44C357.79 124.95 357.09 126.72 356.51 128.69C356.22 129.68 355.97 130.72 355.76 131.79C355.57 132.87 355.4 134 355.35 135.11Z" fill="#46B755"/>
<path d="M355.359 137.96C355.619 139.25 355.909 140.46 356.269 141.49C356.629 142.52 356.999 143.42 357.339 144.16C358.009 145.64 358.539 146.48 358.539 146.48C358.539 146.48 359.559 144.37 360.649 141.19C361.189 139.6 361.749 137.75 362.219 135.75C362.709 133.73 363.109 131.58 363.289 129.4C363.329 128.93 363.349 128.47 363.369 128.02C363.389 127.56 363.409 127.11 363.409 126.67C363.529 127.7 363.659 128.78 363.719 129.93C363.779 131.09 363.779 132.32 363.689 133.61C363.609 134.73 363.509 135.81 363.359 136.87C363.209 137.94 363.019 138.99 362.809 140C362.379 142.03 361.839 143.93 361.359 145.53C360.369 148.74 359.409 150.87 359.409 150.87C359.409 150.87 359.189 150.54 358.839 149.93C358.489 149.32 358.009 148.43 357.519 147.3C356.599 145 355.519 141.8 355.359 137.96Z" fill="#3EA34C"/>
<path d="M332.09 111C343.04 133.69 358.7 154.04 377.82 170.19L379.08 168.62C359.97 152.91 344.17 132.95 333 110.54L332.09 111Z" fill="#3EA34C"/>
<path d="M392.869 17.42C393.959 20.22 394.519 23.06 394.959 25.65C395.169 26.95 395.319 28.19 395.419 29.36C395.479 30.54 395.459 31.67 395.429 32.69C395.309 36.78 394.779 39.35 394.779 39.35C394.779 39.35 393.019 37.35 390.909 34.04C390.379 33.21 389.839 32.3 389.269 31.33C388.649 30.37 388.029 29.34 387.419 28.24C386.179 26.06 385.119 23.57 384.089 20.94C382.999 18.33 382.239 15.73 381.699 13.26C381.559 12.64 381.439 12.04 381.329 11.44C381.189 10.86 381.059 10.29 380.929 9.74C380.689 8.63 380.489 7.58 380.339 6.61C379.719 2.71 379.699 0 379.699 0C379.699 0 381.779 1.52 384.559 4.45C385.249 5.18 385.989 6 386.749 6.91C387.129 7.36 387.509 7.83 387.899 8.33C388.249 8.84 388.599 9.37 388.949 9.92C390.339 12.12 391.719 14.65 392.869 17.42Z" fill="#46B755"/>
<path d="M392.989 32.6699C392.989 32.6699 392.639 32.2799 392.059 31.5399C391.509 30.7999 390.589 29.7699 389.599 28.4499C388.599 27.1399 387.479 25.5499 386.369 23.7499C385.319 21.9199 384.059 19.9499 382.939 17.7899C383.279 18.8299 383.659 19.8799 384.099 20.9399C385.129 23.5799 386.189 26.0599 387.429 28.2399C388.039 29.3399 388.659 30.3699 389.279 31.3299C389.849 32.3099 390.389 33.2199 390.919 34.0399C393.029 37.3499 394.789 39.3499 394.789 39.3499C394.789 39.3499 395.319 36.7799 395.439 32.6899C395.459 31.6699 395.479 30.5499 395.429 29.3599C395.319 28.1899 395.169 26.9499 394.969 25.6499C394.529 23.0599 393.969 20.2199 392.879 17.4199C392.419 16.2999 391.909 15.2199 391.389 14.1899C392.209 16.6399 392.799 19.0099 393.009 21.2599C393.279 23.4799 393.379 25.4899 393.399 27.1799C393.409 28.8699 393.389 30.2199 393.229 31.1799C393.089 32.1399 392.989 32.6699 392.989 32.6699Z" fill="#3EA34C"/>
<path d="M387.299 40.07C388.389 41.07 389.499 42.1 390.369 43.2C391.259 44.3 392.069 45.42 392.809 46.54C394.279 48.78 395.549 50.98 396.409 52.95C398.049 56.91 398.709 59.76 398.709 59.76C398.709 59.76 396.179 58.73 392.679 56.69C390.909 55.68 389.009 54.4 386.869 52.92C384.729 51.44 382.529 49.73 380.479 47.78C379.429 46.81 378.559 45.79 377.609 44.82C376.669 43.85 375.809 42.88 375.029 41.93C373.449 40.04 372.249 38.19 371.189 36.62C368.979 33.52 367.939 31.28 367.939 31.28C367.939 31.28 370.519 31.51 374.279 32.68C376.129 33.28 378.409 34.08 380.589 35.3C382.779 36.52 385.079 38.08 387.299 40.07Z" fill="#46B755"/>
<path d="M390.649 43.56C392.479 46.52 393.799 49.33 394.649 51.39C395.099 52.42 395.329 53.27 395.499 53.86C395.659 54.45 395.749 54.78 395.749 54.78C395.749 54.78 395.119 54.55 394.059 54.07C392.999 53.59 391.509 52.88 389.669 51.94C387.859 51 385.789 49.83 383.669 48.44C381.509 47.05 379.469 45.39 377.219 43.58C376.009 42.56 374.899 41.52 373.889 40.48C375.629 42.81 377.999 45.28 380.479 47.76C382.529 49.72 384.729 51.43 386.869 52.9C389.019 54.38 390.909 55.66 392.679 56.67C396.169 58.71 398.709 59.74 398.709 59.74C398.709 59.74 398.219 57.62 397.029 54.5C396.729 53.72 396.409 52.88 395.999 52C395.559 51.13 395.069 50.21 394.519 49.27C393.439 47.42 392.149 45.46 390.649 43.56Z" fill="#3EA34C"/>
<path d="M391.039 66.9199C393.019 69.4999 394.739 72.2899 395.979 75.0099C397.139 77.7399 398.009 80.3899 398.639 82.7099C399.329 85.0299 399.549 87.0099 399.719 88.3999C399.879 89.7999 399.919 90.6099 399.919 90.6099C399.919 90.6099 397.359 88.9799 393.969 86.0799C392.319 84.6299 390.199 82.8699 388.199 80.8599C386.139 78.8399 384.179 76.5699 382.239 74.0699C380.229 71.5699 378.609 69.0699 377.309 66.7099C376.699 65.5299 375.999 64.3999 375.429 63.3199C374.849 62.2399 374.349 61.2199 373.919 60.2699C373.029 58.3799 372.529 56.7599 372.029 55.6599C371.569 54.5499 371.359 53.8899 371.359 53.8899C371.359 53.8899 372.069 54.0699 373.269 54.4699C374.459 54.8799 376.229 55.5199 378.109 56.5099C380.019 57.4899 382.209 58.7999 384.469 60.5099C386.729 62.2199 389.099 64.3199 391.039 66.9199Z" fill="#46B755"/>
<path d="M393.23 70.03C394.04 71.83 394.82 73.57 395.27 75.18C395.74 76.79 396.09 78.25 396.36 79.49C396.89 81.96 397.06 83.5 397.06 83.5C397.06 83.5 394.41 82 390.84 79.29C389.05 77.94 387.06 76.29 385 74.4C382.85 72.51 380.66 70.37 378.68 68C377.89 67.07 377.21 66.13 376.5 65.21C377.95 67.98 379.79 71.02 382.24 74.06C384.18 76.56 386.14 78.84 388.2 80.85C390.2 82.87 392.32 84.62 393.97 86.07C397.37 88.97 399.92 90.6 399.92 90.6C399.92 90.6 399.89 89.94 399.77 88.79C399.62 87.64 399.49 85.99 398.99 84.03C398.5 82.07 397.83 79.79 396.93 77.39C396.47 76.19 396.01 74.96 395.37 73.72C394.72 72.48 394.01 71.25 393.23 70.03Z" fill="#3EA34C"/>
<path d="M390.169 96.91C391.839 100.13 393.089 103.51 393.989 106.75C394.709 109.97 395.119 113.06 395.339 115.73C395.629 118.42 395.399 120.62 395.329 122.19C395.219 123.75 395.089 124.65 395.089 124.65C395.089 124.65 392.629 122.3 389.499 118.4C387.989 116.46 386.079 114.11 384.269 111.49C383.359 110.18 382.459 108.8 381.599 107.37C380.739 105.93 379.949 104.45 379.069 102.89C377.369 99.77 376.119 96.75 375.129 93.95C373.989 91.14 373.189 88.55 372.629 86.34C372.499 85.79 372.369 85.26 372.259 84.75C372.119 84.25 371.989 83.77 371.869 83.32C371.629 82.42 371.449 81.64 371.319 80.99C371.049 79.7 370.959 78.95 370.959 78.95C370.959 78.95 373.909 80.21 377.889 83.07C379.929 84.5 382.029 86.34 384.159 88.64C385.219 89.79 386.279 91.05 387.309 92.44C388.319 93.8 389.379 95.31 390.169 96.91Z" fill="#46B755"/>
<path d="M392.1 101.15C392.65 103.33 393.16 105.45 393.37 107.36C393.57 109.27 393.67 110.99 393.71 112.44C393.8 115.34 393.66 117.12 393.66 117.12C393.66 117.12 391.07 114.89 387.71 111.17C386.02 109.31 384.18 107.09 382.31 104.6C380.33 102.09 378.37 99.3198 376.67 96.3498C375.96 95.0498 375.27 93.7798 374.59 92.5298C375.24 94.1298 375.79 95.7998 376.52 97.5298C377.24 99.2598 378.09 101.05 379.08 102.87C379.97 104.43 380.75 105.92 381.61 107.35C382.47 108.78 383.37 110.16 384.28 111.47C386.09 114.09 388 116.45 389.51 118.38C392.64 122.28 395.1 124.63 395.1 124.63C395.1 124.63 395.2 123.92 395.3 122.65C395.39 121.38 395.53 119.58 395.47 117.38C395.34 115.17 395.08 112.58 394.6 109.81C394.34 108.42 394.13 107.01 393.65 105.54C393.2 104.1 392.69 102.62 392.1 101.15Z" fill="#3EA34C"/>
<path d="M382.809 129.39C383.979 133.33 384.759 137.42 384.779 141.14C384.839 143.02 384.809 144.85 384.729 146.59C384.679 147.46 384.659 148.31 384.549 149.12C384.439 149.92 384.319 150.69 384.189 151.43C383.679 154.4 383.079 156.87 382.619 158.6C382.399 159.47 382.179 160.13 381.989 160.57C381.809 161.01 381.719 161.25 381.719 161.25C381.719 161.25 381.199 160.45 380.389 159C379.539 157.54 378.339 155.41 377.049 152.83C375.749 150.25 374.339 147.23 373.049 143.96C371.599 140.61 370.219 136.99 369.189 133.26C368.729 131.41 368.109 129.52 367.719 127.75C367.299 125.97 366.979 124.25 366.729 122.63C366.529 121.02 366.179 119.41 365.989 117.95C365.779 116.47 365.649 115.1 365.559 113.84C365.449 111.34 365.199 109.22 365.189 107.77C365.149 106.31 365.199 105.49 365.199 105.49C365.199 105.49 368.229 107.47 372.099 111.45C374.099 113.46 376.009 115.92 377.929 118.92C379.819 121.91 381.709 125.46 382.809 129.39Z" fill="#46B755"/>
<path d="M384.169 135.04C384.209 135.7 384.249 136.35 384.299 136.99C384.319 137.63 384.289 138.24 384.269 138.85C384.229 140.07 384.159 141.24 384.059 142.36C383.879 144.6 383.619 146.61 383.339 148.28C382.599 151.55 381.919 153.53 381.919 153.53C381.919 153.53 379.669 150.39 376.979 145.48C375.519 142.98 373.919 140.04 372.409 136.84C371.649 135.24 370.949 133.59 370.229 131.86C369.459 130.11 368.729 128.32 368.089 126.49C367.479 124.75 366.979 123.07 366.559 121.44C366.789 123.22 367.119 125.11 367.569 127.09C367.789 128.08 368.039 129.1 368.329 130.13C368.479 130.65 368.629 131.17 368.779 131.7C368.919 132.22 369.049 132.74 369.189 133.26C370.219 136.99 371.599 140.62 373.049 143.96C374.349 147.24 375.759 150.26 377.049 152.83C378.339 155.4 379.539 157.53 380.389 159C381.199 160.44 381.719 161.25 381.719 161.25C381.719 161.25 381.789 161.07 381.929 160.72C382.059 160.37 382.279 159.87 382.449 159.18C382.829 157.82 383.339 155.86 383.809 153.46C384.049 152.26 384.279 150.95 384.479 149.56C384.689 148.17 384.709 146.63 384.769 145.06C384.809 143.49 384.799 141.85 384.729 140.18C384.689 139.34 384.639 138.5 384.559 137.65C384.499 136.8 384.329 135.91 384.169 135.04Z" fill="#3EA34C"/>
<path d="M401.939 36.1801C401.489 37.7101 401.209 39.2001 400.829 40.6801C400.469 42.1601 400.169 43.6101 399.939 44.9901C399.449 47.7701 399.269 50.3001 399.069 52.4901C398.589 56.8701 398.719 59.7601 398.719 59.7601C398.719 59.7601 400.889 58.1601 403.659 54.9901C405.019 53.4101 406.639 51.4001 407.989 49.0301C409.349 46.6601 410.639 43.8801 411.649 40.7201C412.139 39.1501 412.619 37.5401 412.859 35.9701C413.119 34.4001 413.289 32.8501 413.409 31.3301C413.629 28.3001 413.679 25.4201 413.479 22.9901C412.989 18.1301 412.149 14.8901 412.149 14.8901C412.149 14.8901 410.429 17.1701 408.349 20.9701C407.279 22.8801 406.249 25.1201 405.069 27.7001C403.909 30.2801 402.799 33.1301 401.939 36.1801Z" fill="#46B755"/>
<path d="M400.709 41.16C400.229 44.88 400.139 48.08 400.159 50.37C400.199 51.51 400.159 52.4401 400.169 53.07C400.179 53.71 400.189 54.05 400.189 54.05C400.189 54.05 400.729 53.6201 401.609 52.7901C402.499 51.9501 403.729 50.71 404.999 49.07C406.289 47.43 407.709 45.38 409.049 42.92C410.359 40.47 411.749 37.5801 412.499 34.4001C412.959 32.6201 413.299 30.83 413.549 29.05C413.369 32.73 413.019 36.73 411.649 40.71C410.639 43.87 409.349 46.64 407.989 49.0201C406.639 51.39 405.009 53.4 403.659 54.98C400.889 58.15 398.719 59.75 398.719 59.75C398.719 59.75 398.619 57.6 398.899 54.21C398.979 53.36 399.079 52.43 399.169 51.44C399.239 50.46 399.329 49.4101 399.459 48.3101C399.719 46.1201 400.109 43.7 400.709 41.16Z" fill="#3EA34C"/>
<path d="M407.76 65.35C406.18 68.55 405.06 71.7 404.05 74.66C402.97 77.61 402.19 80.36 401.62 82.72C401.11 85.08 400.59 87.04 400.31 88.43C400.02 89.81 399.91 90.61 399.91 90.61C399.91 90.61 402.6 89.29 406.27 86.35C408.15 84.88 410.01 82.98 412.01 80.63C413.95 78.28 416 75.46 417.63 72.18C419.2 68.9 420.36 65.46 421.23 62.15C421.7 60.49 421.93 58.88 422.16 57.34C422.37 55.8 422.53 54.33 422.64 52.96C422.84 50.23 422.98 47.9 422.84 46.3C422.75 44.69 422.64 43.76 422.64 43.76C422.64 43.76 422.08 44.31 421.17 45.34C420.23 46.37 419.04 47.87 417.49 49.79C415.98 51.7 414.29 54.01 412.63 56.62C410.97 59.23 409.39 62.15 407.76 65.35Z" fill="#46B755"/>
<path d="M406.09 69.08C405.52 71.13 405.19 73.04 404.76 74.78C404.34 76.52 404.03 78.07 403.81 79.36C403.36 81.95 403.24 83.54 403.24 83.54C403.24 83.54 405.85 82.09 409.33 78.95C411.06 77.38 413.05 75.37 414.96 72.9C416.78 70.44 418.58 67.5 420.12 64.09C420.72 62.76 421.29 61.4 421.73 60.04C420.87 63.96 419.53 68.19 417.63 72.17C416 75.46 413.95 78.27 412.01 80.62C410.01 82.97 408.15 84.86 406.27 86.34C402.6 89.28 399.91 90.6 399.91 90.6C399.91 90.6 400 89.95 400.23 88.8C400.43 87.66 400.89 86.02 401.31 84.04C401.74 82.06 402.34 79.73 403.17 77.19C403.57 75.92 404.08 74.6 404.54 73.24C405 71.89 405.51 70.5 406.09 69.08Z" fill="#3EA34C"/>
<path d="M408.82 98.5601C406.45 101.77 404.52 105 402.91 108.05C401.13 111.07 399.71 113.92 398.61 116.38C397.58 118.86 396.53 120.88 395.97 122.35C395.37 123.8 395.09 124.66 395.09 124.66C395.09 124.66 398.3 123.82 402.92 121.37C405.28 120.16 407.77 118.49 410.41 116.31C411.73 115.22 413.07 114 414.4 112.64C415.73 111.28 417.1 109.79 418.25 108.13C420.63 104.82 422.64 101.24 424.22 97.7401C425.65 94.2301 426.73 90.8001 427.52 87.8101C427.71 87.0601 427.89 86.3401 428.07 85.6501C428.21 84.9601 428.32 84.3001 428.42 83.6801C428.62 82.4401 428.78 81.3501 428.89 80.4401C429.11 78.6301 429.18 77.5801 429.18 77.5801C429.18 77.5801 426.28 79.6101 422.4 83.2701C420.51 85.1001 418.16 87.3201 415.81 89.8901C414.64 91.1701 413.45 92.5401 412.3 93.9901C411.12 95.4201 410.05 96.9601 408.82 98.5601Z" fill="#46B755"/>
<path d="M405.99 102.72C404.92 104.9 404.12 106.98 403.29 108.84C402.45 110.7 401.77 112.38 401.24 113.79C400.18 116.61 399.71 118.38 399.71 118.38C399.71 118.38 402.86 117.37 407.31 114.67C409.53 113.32 412.11 111.53 414.72 109.21C417.22 106.88 419.79 104.01 422.17 100.56C422.69 99.81 423.18 99.06 423.66 98.29C424.11 97.52 424.51 96.74 424.92 95.96C424.2 97.99 423.16 100.06 422.04 102.11C420.91 104.16 419.66 106.19 418.26 108.12C417.11 109.78 415.74 111.27 414.41 112.63C413.07 113.99 411.73 115.21 410.42 116.3C407.78 118.48 405.29 120.15 402.93 121.36C398.31 123.8 395.1 124.65 395.1 124.65C395.1 124.65 395.33 123.97 395.8 122.79C396.26 121.61 397.02 119.94 397.95 117.92C398.81 115.88 399.91 113.5 401.3 110.92C401.97 109.63 402.81 108.31 403.53 106.92C404.27 105.55 405.09 104.14 405.99 102.72Z" fill="#3EA34C"/>
<path d="M403.199 135.57C399.859 138.63 397.119 141.84 394.389 144.76C393.069 146.24 391.869 147.69 390.769 149.08C390.209 149.77 389.719 150.46 389.189 151.11C388.659 151.76 388.149 152.38 387.659 152.98C385.739 155.39 384.279 157.46 383.299 158.93C382.819 159.67 382.429 160.25 382.139 160.64C381.869 161.03 381.719 161.24 381.719 161.24C381.719 161.24 382.679 161.22 384.359 161.04C386.009 160.83 388.329 160.42 391.149 159.63C393.969 158.84 397.279 157.67 400.849 155.92C404.259 154.11 407.889 151.71 411.489 148.58C413.349 147.03 414.839 145.3 416.359 143.55C417.849 141.79 419.239 139.98 420.529 138.17C421.869 136.37 422.849 134.52 423.849 132.74C424.819 130.96 425.689 129.23 426.459 127.61C428.069 124.38 428.919 121.52 429.579 119.51C430.209 117.5 430.509 116.31 430.509 116.31C430.509 116.31 426.849 118.01 421.739 121.33C419.249 123 416.099 125 412.959 127.38C409.769 129.77 406.599 132.53 403.199 135.57Z" fill="#46B755"/>
<path d="M398.788 139.98C398.378 140.54 397.968 141.1 397.568 141.64C397.148 142.18 396.738 142.71 396.328 143.23C395.528 144.27 394.778 145.28 394.088 146.24C392.708 148.17 391.558 149.92 390.638 151.41C388.588 154.3 387.538 156.16 387.538 156.16C387.538 156.16 391.328 155.91 397.058 154.09C399.808 153.13 403.028 151.76 406.478 149.79C408.188 148.8 410.008 147.68 411.758 146.37C413.458 145.04 415.188 143.54 416.888 141.86C418.508 140.27 420.028 138.58 421.468 136.85C420.078 138.88 418.558 140.92 416.918 142.91C416.098 143.9 415.238 144.88 414.348 145.83C413.898 146.3 413.448 146.77 412.998 147.24C412.508 147.69 412.008 148.14 411.508 148.58C407.898 151.7 404.278 154.11 400.868 155.92C397.298 157.67 393.988 158.84 391.168 159.63C388.348 160.42 386.028 160.83 384.378 161.04C382.698 161.23 381.738 161.24 381.738 161.24C381.738 161.24 381.848 161.08 382.058 160.77C382.268 160.46 382.618 160.03 382.978 159.43C383.738 158.26 384.878 156.6 386.378 154.63C387.128 153.65 387.968 152.58 388.898 151.47C389.838 150.35 390.708 149.11 391.748 147.87C392.768 146.62 393.878 145.32 395.068 144.01C395.668 143.35 396.288 142.69 396.928 142.03C397.538 141.36 398.158 140.67 398.788 139.98Z" fill="#3EA34C"/>
<path d="M393.579 37.5399C399.279 59.4999 400.499 82.5899 397.629 105.08C396.069 116.3 393.649 127.42 390.049 138.15C386.369 148.84 381.719 159.17 376.119 168.95L378.489 170.39C384.089 160.38 388.719 149.84 392.349 138.95C395.899 128.03 398.229 116.74 399.699 105.36C402.389 82.5799 400.909 59.2699 394.949 37.1799L393.579 37.5399Z" fill="#3EA34C"/>
<path d="M36.6695 156C38.1095 156.84 39.3195 157.9 40.3795 158.91C40.9095 159.42 41.3895 159.93 41.8195 160.42C42.2395 160.93 42.5995 161.45 42.9295 161.92C44.2295 163.81 44.8095 165.19 44.8095 165.19C44.8095 165.19 43.2795 165.02 41.1595 164.41C40.6295 164.26 40.0595 164.07 39.4595 163.87C38.8495 163.69 38.2095 163.48 37.5495 163.23C36.2395 162.74 34.9095 162.06 33.5495 161.27C32.1795 160.51 30.9695 159.62 29.9095 158.7C29.6495 158.47 29.3895 158.24 29.1495 158.01C28.8995 157.79 28.6495 157.58 28.4195 157.38C27.9495 156.96 27.5195 156.54 27.1295 156.15C25.5795 154.57 24.6895 153.3 24.6895 153.3C24.6895 153.3 26.1695 153.16 28.4495 153.4C29.0195 153.46 29.6395 153.54 30.2895 153.66C30.6195 153.72 30.9495 153.78 31.2995 153.86C31.6295 153.95 31.9795 154.05 32.3195 154.17C33.7295 154.58 35.2095 155.19 36.6695 156Z" fill="#46B755"/>
<path d="M41.7185 162.92C41.7185 162.92 41.4185 162.89 40.8885 162.8C40.3785 162.7 39.5885 162.61 38.6785 162.42C36.8285 162.08 34.4885 161.31 31.9785 160.28C32.4785 160.62 33.0085 160.95 33.5585 161.26C34.9085 162.05 36.2385 162.74 37.5585 163.22C38.2085 163.47 38.8485 163.68 39.4685 163.86C40.0685 164.06 40.6285 164.25 41.1685 164.4C43.2985 165.01 44.8185 165.18 44.8185 165.18C44.8185 165.18 44.2285 163.8 42.9385 161.91C42.6085 161.44 42.2485 160.93 41.8285 160.41C41.3985 159.92 40.9085 159.41 40.3885 158.9C39.3285 157.9 38.1185 156.84 36.6785 155.99C36.0885 155.66 35.4985 155.37 34.9085 155.1C37.3285 156.65 38.9885 158.74 40.1185 160.24C40.6785 161.01 41.0985 161.64 41.3485 162.14C41.5985 162.63 41.7185 162.92 41.7185 162.92Z" fill="#3EA34C"/>
<path d="M41.3803 168.61C43.1403 168.55 44.7603 168.83 46.2303 169.21C47.7003 169.59 49.0603 170.05 50.1503 170.56C52.3003 171.62 53.6003 172.6 53.6003 172.6C53.6003 172.6 51.9903 173.19 49.5703 173.75C48.3503 174.04 46.9703 174.27 45.4203 174.51C43.8703 174.74 42.2203 174.9 40.5603 174.89C39.7203 174.89 38.9503 174.81 38.1703 174.78C37.3903 174.74 36.6503 174.66 35.9603 174.56C34.5703 174.37 33.3803 174.05 32.3603 173.78C30.2903 173.29 29.0703 172.71 29.0703 172.71C29.0703 172.71 30.3903 171.74 32.6003 170.71C33.7003 170.21 35.0603 169.64 36.5203 169.28C38.0003 168.89 39.6403 168.64 41.3803 168.61Z" fill="#46B755"/>
<path d="M44.1807 168.78C46.0707 169.33 47.6607 170.03 48.7707 170.6C49.3307 170.87 49.7407 171.15 50.0307 171.34C50.3107 171.54 50.4607 171.64 50.4607 171.64C50.4607 171.64 50.0707 171.8 49.3807 172.03C48.6907 172.26 47.7107 172.56 46.5007 172.91C45.2907 173.25 43.8807 173.59 42.3807 173.85C40.8607 174.13 39.2907 174.26 37.6107 174.38C36.6907 174.43 35.8107 174.42 34.9707 174.38C36.5807 174.7 38.5407 174.83 40.5907 174.89C42.2507 174.9 43.9007 174.75 45.4507 174.51C47.0007 174.27 48.3807 174.04 49.6007 173.75C52.0207 173.2 53.6307 172.6 53.6307 172.6C53.6307 172.6 52.6707 171.88 51.0207 171C50.6107 170.78 50.1607 170.55 49.6607 170.33C49.1507 170.13 48.6007 169.92 48.0207 169.73C46.8407 169.34 45.5507 169 44.1807 168.78Z" fill="#3EA34C"/>
<path d="M52.2294 178.88C54.0994 179.18 55.9094 179.68 57.4694 180.34C58.9994 181.03 60.3594 181.81 61.4894 182.54C62.6394 183.26 63.4594 184 64.0394 184.52C64.6094 185.05 64.9194 185.38 64.9194 185.38C64.9194 185.38 63.0594 185.73 60.3294 185.89C58.9794 185.96 57.3194 186.06 55.6194 186.03C53.8894 186.01 52.1194 185.86 50.2894 185.58C48.4394 185.33 46.7794 184.93 45.3294 184.45C43.8794 183.98 42.5394 183.55 41.4894 183.07C39.3994 182.11 38.1094 181.35 38.1094 181.35C38.1094 181.35 38.5194 181.13 39.2394 180.81C39.9594 180.5 41.0394 180.04 42.3094 179.69C43.5894 179.32 45.1094 178.98 46.7994 178.8C48.4894 178.63 50.3694 178.57 52.2294 178.88Z" fill="#46B755"/>
<path d="M54.3902 179.33C55.4102 179.77 56.3902 180.21 57.1802 180.71C57.9702 181.21 58.6602 181.69 59.2202 182.11C60.3502 182.95 60.9702 183.54 60.9702 183.54C60.9702 183.54 59.1202 183.98 56.3902 184.29C55.0202 184.45 53.4602 184.56 51.7702 184.61C50.0502 184.68 48.2302 184.66 46.4402 184.47C45.7302 184.4 45.0702 184.28 44.4102 184.17C46.0702 184.76 48.0202 185.3 50.2702 185.6C52.1002 185.87 53.8702 186.03 55.6002 186.05C57.3002 186.09 58.9702 185.98 60.3102 185.91C63.0402 185.75 64.9002 185.4 64.9002 185.4C64.9002 185.4 64.6502 185.13 64.1802 184.69C63.7002 184.26 63.0402 183.62 62.1102 182.98C61.1802 182.34 60.0502 181.64 58.7602 180.98C58.1102 180.66 57.4502 180.32 56.7102 180.05C55.9702 179.77 55.1902 179.53 54.3902 179.33Z" fill="#3EA34C"/>
<path d="M62.2503 192.03C64.2403 192.7 66.0903 193.61 67.7103 194.61C69.2503 195.66 70.5903 196.78 71.6803 197.8C72.8003 198.81 73.5203 199.8 74.0703 200.49C74.6003 201.18 74.8703 201.6 74.8703 201.6C74.8703 201.6 72.7503 201.6 69.7203 201.25C68.2303 201.06 66.4103 200.84 64.5403 200.48C63.6003 200.3 62.6503 200.09 61.6903 199.85C60.7303 199.6 59.7903 199.31 58.7903 199.01C56.8203 198.4 55.1103 197.65 53.6203 196.89C52.0603 196.17 50.7503 195.42 49.7003 194.72C49.1803 194.37 48.7103 194.04 48.2703 193.77C47.8403 193.49 47.4803 193.23 47.2003 193.01C46.6203 192.58 46.3203 192.3 46.3203 192.3C46.3203 192.3 48.2303 191.62 51.2103 191.2C52.7203 190.97 54.4203 190.88 56.3003 190.98C58.1503 191.1 60.2503 191.36 62.2503 192.03Z" fill="#46B755"/>
<path d="M64.7396 193.02C65.8096 193.71 66.8196 194.4 67.6196 195.11C68.4196 195.82 69.0996 196.5 69.6496 197.09C70.7496 198.26 71.3396 199.06 71.3396 199.06C71.3396 199.06 69.2096 199.17 66.1596 198.98C64.6296 198.89 62.8896 198.71 61.0396 198.44C59.1396 198.19 57.1596 197.83 55.2496 197.29C54.8396 197.17 54.4296 197.05 54.0396 196.92C53.6396 196.79 53.2396 196.67 52.8496 196.55C53.7296 196.96 54.6096 197.43 55.5896 197.85C56.5696 198.28 57.6396 198.68 58.7896 199.04C59.7896 199.33 60.7296 199.63 61.6896 199.88C62.6496 200.13 63.5996 200.33 64.5396 200.51C66.4096 200.87 68.2296 201.08 69.7196 201.28C72.7496 201.64 74.8696 201.63 74.8696 201.63C74.8696 201.63 74.0196 200.28 72.3596 198.48C70.5696 196.73 68.1196 194.49 64.7396 193.02Z" fill="#3EA34C"/>
<path d="M70.46 208.43C72.55 209.58 74.48 210.96 75.94 212.47C77.43 213.97 78.78 215.48 79.65 216.91C80.57 218.32 81.24 219.57 81.69 220.45C81.92 220.89 82.07 221.25 82.16 221.5C82.25 221.75 82.3 221.88 82.3 221.88C82.3 221.88 81.72 221.75 80.74 221.48C79.74 221.21 78.3 220.81 76.64 220.26C74.98 219.71 73.08 219.03 71.15 218.21C69.13 217.41 67.04 216.48 65.08 215.38C64.13 214.82 63.12 214.28 62.25 213.72C61.37 213.16 60.56 212.6 59.82 212.04C59.11 211.47 58.34 210.95 57.71 210.43C57.06 209.91 56.48 209.41 55.97 208.93C54.99 207.96 54.11 207.19 53.57 206.61C53.02 206.03 52.75 205.68 52.75 205.68C52.75 205.68 55 205.27 58.4 205.35C60.13 205.38 62.01 205.62 64.1 206.08C66.14 206.55 68.4 207.27 70.46 208.43Z" fill="#46B755"/>
<path d="M73.2895 210.21C74.4295 211.2 75.2595 212.27 76.0495 213.25C76.8195 214.24 77.4695 215.16 77.9795 215.96C78.8995 217.58 79.3395 218.65 79.3395 218.65C79.3395 218.65 76.9795 218.24 73.6995 217.3C71.9995 216.85 70.0595 216.28 68.0695 215.57C67.0695 215.22 66.0795 214.83 65.0595 214.41C64.0095 214 62.9695 213.56 61.9495 213.07C60.9895 212.61 60.0995 212.12 59.2695 211.63C60.0595 212.26 60.9395 212.89 61.9095 213.52C62.3995 213.83 62.9095 214.15 63.4395 214.45C63.9795 214.75 64.5295 215.06 65.0595 215.38C67.0095 216.49 69.1095 217.41 71.1295 218.21C73.0695 219.03 74.9595 219.71 76.6195 220.26C78.2795 220.81 79.7195 221.21 80.7195 221.48C81.6995 221.76 82.2795 221.88 82.2795 221.88C82.2795 221.88 82.2395 221.78 82.1695 221.58C82.0895 221.39 81.9995 221.1 81.8195 220.75C81.4695 220.04 80.9495 219.05 80.2395 217.88C79.8895 217.3 79.4895 216.67 79.0395 216.03C78.5995 215.38 78.0195 214.74 77.4395 214.07C76.8495 213.41 76.2095 212.74 75.5295 212.09C74.8595 211.44 74.1295 210.8 73.2895 210.21Z" fill="#3EA34C"/>
<path d="M47.2703 160.78C47.8803 162.49 48.5303 164.13 49.2303 165.56C49.9203 167 50.6803 168.21 51.3103 169.25C52.5603 171.37 53.6003 172.59 53.6003 172.59C53.6003 172.59 54.1403 170.99 54.4303 168.45C54.5703 167.19 54.6803 165.64 54.5503 164.02C54.4203 162.4 54.1203 160.63 53.5603 158.79C53.2703 157.88 52.9603 156.97 52.5603 156.16C52.1603 155.34 51.7303 154.57 51.2803 153.83C50.3803 152.37 49.4403 151.04 48.5303 150.01C46.6803 147.98 45.2003 146.83 45.2003 146.83C45.2003 146.83 45.1203 148.59 45.3603 151.2C45.4703 152.51 45.7003 153.98 45.9803 155.64C46.2803 157.3 46.6803 159.05 47.2703 160.78Z" fill="#46B755"/>
<path d="M48.3301 163.54C49.3401 165.39 50.3701 166.86 51.1501 167.87C51.5501 168.36 51.8501 168.79 52.0701 169.06C52.2901 169.33 52.4101 169.48 52.4101 169.48C52.4101 169.48 52.5301 169.07 52.6901 168.34C52.8501 167.6 53.0301 166.55 53.1101 165.29C53.2001 164.02 53.2101 162.52 53.0401 160.87C52.8601 159.23 52.5601 157.38 51.8801 155.61C51.5101 154.62 51.0801 153.66 50.6101 152.75C51.7501 154.49 52.9101 156.46 53.5801 158.8C54.1401 160.63 54.4401 162.4 54.5701 164.03C54.7001 165.65 54.5801 167.2 54.4501 168.46C54.1601 171 53.6201 172.6 53.6201 172.6C53.6201 172.6 52.8401 171.7 51.8301 170.09C51.5801 169.68 51.3201 169.24 51.0301 168.76C50.7301 168.3 50.4301 167.79 50.1201 167.25C49.5001 166.16 48.8901 164.92 48.3301 163.54Z" fill="#3EA34C"/>
<path d="M60.0195 171.3C60.3395 173.34 60.8595 175.18 61.3795 176.87C61.8695 178.58 62.4395 180.08 62.9795 181.33C63.5395 182.55 63.9795 183.6 64.3295 184.3C64.6795 185 64.8995 185.39 64.8995 185.39C64.8995 185.39 65.7895 183.73 66.5795 180.98C66.9895 179.59 67.2795 178 67.4495 176.17C67.5995 174.36 67.6295 172.31 67.2995 170.21C66.9395 168.13 66.3295 166.15 65.6195 164.34C64.9095 162.53 63.9695 161.02 63.1595 159.7C62.3195 158.41 61.5895 157.33 60.9795 156.66C60.3895 155.98 60.0195 155.61 60.0195 155.61C60.0195 155.61 59.9295 156.09 59.8195 156.93C59.7095 157.78 59.6195 158.95 59.5095 160.43C59.4095 161.9 59.3695 163.62 59.4395 165.46C59.5195 167.3 59.7195 169.24 60.0195 171.3Z" fill="#46B755"/>
<path d="M60.4805 173.61C60.9005 174.73 61.3905 175.71 61.7805 176.63C62.1805 177.55 62.5605 178.34 62.9005 178.99C63.5805 180.29 64.0705 181.02 64.0705 181.02C64.0705 181.02 64.8705 179.33 65.5105 176.55C65.8305 175.16 66.1205 173.48 66.2105 171.63C66.2705 169.81 66.1505 167.78 65.7305 165.66C65.5605 164.83 65.3805 164 65.1305 163.22C66.0605 165.3 66.8605 167.69 67.2905 170.21C67.6205 172.31 67.5905 174.36 67.4405 176.17C67.2705 178 66.9905 179.59 66.5705 180.98C65.7805 183.73 64.8905 185.39 64.8905 185.39C64.8905 185.39 64.7005 185.08 64.4105 184.5C64.1105 183.93 63.7505 183.06 63.2705 182.03C62.8005 181 62.2805 179.76 61.8105 178.33C61.5705 177.62 61.3605 176.84 61.1205 176.06C60.9005 175.28 60.6805 174.47 60.4805 173.61Z" fill="#3EA34C"/>
<path d="M72.2297 185.14C72.1997 187.46 72.3897 189.61 72.6797 191.54C72.8897 193.52 73.2197 195.28 73.5697 196.75C73.9497 198.2 74.1897 199.45 74.4497 200.29C74.6897 201.13 74.8697 201.6 74.8697 201.6C74.8697 201.6 76.1797 199.97 77.5897 197.11C78.3197 195.66 78.9697 193.96 79.4997 191.98C79.7597 190.99 79.9897 189.94 80.1597 188.83C80.3297 187.72 80.4597 186.54 80.4497 185.37C80.4497 183 80.1597 180.66 79.6797 178.53C79.1397 176.44 78.4597 174.53 77.7797 172.92C77.4497 172.11 77.1097 171.38 76.7597 170.77C76.4197 170.15 76.1097 169.61 75.8497 169.17C75.3197 168.29 74.9797 167.81 74.9797 167.81C74.9797 167.81 74.2497 169.88 73.5897 173.06C73.2797 174.63 72.8997 176.54 72.6397 178.6C72.3497 180.66 72.2497 182.82 72.2297 185.14Z" fill="#46B755"/>
<path d="M72.2988 188.05C72.5488 189.4 72.8888 190.61 73.1488 191.72C73.4088 192.84 73.6788 193.81 73.9388 194.62C74.4388 196.23 74.8488 197.15 74.8488 197.15C74.8488 197.15 76.0688 195.46 77.3188 192.54C77.9388 191.08 78.5788 189.29 79.0488 187.26C79.4588 185.26 79.7188 183 79.6588 180.56C79.6488 180.03 79.6188 179.51 79.5788 178.99C79.5288 178.48 79.4588 177.98 79.3788 177.48C79.7388 178.65 79.9688 179.95 80.1488 181.28C80.3288 182.61 80.4288 183.98 80.4288 185.37C80.4488 186.54 80.3088 187.72 80.1388 188.83C79.9688 189.94 79.7388 190.99 79.4788 191.98C78.9488 193.96 78.2988 195.66 77.5688 197.11C76.1588 199.97 74.8488 201.6 74.8488 201.6C74.8488 201.6 74.3088 200.11 73.7788 197.67C73.1288 195.29 72.6188 191.86 72.2988 188.05Z" fill="#3EA34C"/>
<path d="M83.069 202.9C82.559 205.49 82.3791 207.91 82.1591 210.18C81.959 212.44 82.049 214.44 81.989 216.19C81.979 217.93 82.069 219.34 82.1591 220.32C82.209 220.81 82.249 221.2 82.259 221.47C82.279 221.74 82.289 221.88 82.289 221.88C82.289 221.88 82.759 221.5 83.519 220.77C84.259 220.05 85.259 218.97 86.359 217.55C87.459 216.13 88.649 214.35 89.739 212.23C90.749 210.14 91.629 207.72 92.229 205C92.549 203.63 92.649 202.31 92.749 200.98C92.829 199.65 92.839 198.35 92.789 197.08C92.769 195.8 92.5791 194.62 92.409 193.48C92.229 192.34 92.019 191.27 91.789 190.28C91.379 188.28 90.759 186.72 90.339 185.61C89.909 184.5 89.619 183.88 89.619 183.88C89.619 183.88 88.409 186.08 87.059 189.54C86.409 191.25 85.589 193.35 84.899 195.6C84.189 197.86 83.609 200.29 83.069 202.9Z" fill="#46B755"/>
<path d="M82.529 206.47C82.569 208.05 82.509 209.58 82.579 210.91C82.629 212.25 82.739 213.42 82.849 214.39C82.969 216.37 83.169 217.55 83.169 217.55C83.169 217.55 84.959 215.97 87.109 212.98C88.119 211.5 89.199 209.67 90.169 207.49C90.649 206.41 91.119 205.23 91.489 203.98C91.839 202.75 92.129 201.44 92.349 200.07C92.549 198.76 92.679 197.45 92.739 196.16C92.819 197.56 92.829 199.02 92.759 200.5C92.719 201.24 92.669 201.99 92.589 202.74C92.519 203.48 92.399 204.24 92.219 205.01C91.629 207.73 90.739 210.15 89.729 212.24C88.639 214.36 87.449 216.13 86.349 217.56C85.249 218.98 84.249 220.05 83.509 220.78C82.749 221.51 82.279 221.89 82.279 221.89C82.279 221.89 82.239 221.45 82.179 220.67C82.099 219.89 82.009 218.77 81.989 217.38C81.979 216.68 81.979 215.92 81.999 215.1C82.029 214.28 81.989 213.42 82.029 212.5C82.059 211.58 82.109 210.62 82.199 209.61C82.309 208.59 82.419 207.55 82.529 206.47Z" fill="#3EA34C"/>
<path d="M43.6191 164.86C63.6791 179.93 78.0791 202.52 82.5891 227.18L84.3491 226.85C79.4691 201.77 64.5891 179.09 44.1691 164.12L43.6191 164.86Z" fill="#3EA34C"/>
<path d="M448 153.97C447.16 153.96 446.33 153.95 445.49 153.95C398.1 153.95 354.91 170.85 322.37 198.59C293.61 182.15 258.53 172.49 220.66 172.49C165.06 172.49 115.47 193.32 83.08 225.86C78.93 225.29 74.66 224.98 70.31 224.98C38.28 224.97 10.92 241.16 0 264H140.61H385.5H448V153.97Z" fill="#46B755"/>
</svg>
