<svg width="448" height="264" viewBox="0 0 448 264" fill="none" xmlns="http://www.w3.org/2000/svg">
<path d="M427.59 13.8C425.79 11.51 424.1 9.5 422.58 7.76C421.04 6.04 419.61 4.62 418.46 3.47C416.14 1.18 414.76 0 414.76 0C414.76 0 414.87 1.93 415.23 5.27C415.41 6.94 415.68 8.94 415.97 11.26C416.24 13.59 416.58 16.2 417.01 19.03C418.07 26.42 419.52 35.31 421.55 44.96C418.69 42.58 415.89 40.58 413.32 38.96C411.11 37.62 409.08 36.48 407.29 35.53C405.46 34.61 403.81 33.95 402.48 33.39C399.81 32.31 398.28 31.84 398.28 31.84C398.28 31.84 398.86 33.5 400.01 36.26C400.59 37.62 401.3 39.27 402.12 41.16C402.7 42.6 403.35 44.15 404.07 45.79C402.56 47.27 400.87 48.99 399.08 50.94C391.98 58.79 383.48 70.8 378.93 85.62C378.43 87.18 377.98 88.85 377.55 90.57C376.49 88.39 375.4 86.32 374.26 84.43C366.43 71.08 354.91 61.62 345.91 56.06C343.61 54.68 341.5 53.5 339.63 52.5C337.72 51.53 335.99 50.79 334.6 50.19C331.8 48.99 330.19 48.44 330.19 48.44C330.19 48.44 330.78 49.96 331.95 52.51C332.55 53.77 333.28 55.3 334.12 57.06C334.92 58.85 335.86 60.84 336.93 62.96C341.03 71.48 346.5 82.47 353.23 94.01C349.53 91.9 345.77 90.47 342.51 89.61C340.82 89.18 339.26 88.85 337.88 88.61C336.48 88.39 335.23 88.28 334.22 88.2C332.19 88.05 331.03 88.08 331.03 88.08C331.03 88.08 331.34 89.14 331.99 90.85C332.32 91.69 332.73 92.7 333.18 93.85C333.62 95.02 334.14 96.29 334.74 97.63C337.1 103.1 340.23 109.68 345.03 115.68C346.96 118.02 349.4 120.64 352.06 123.47C291.76 134.31 238.82 161.49 200.37 199.16C180.89 191.1 158.94 186.56 135.71 186.56C119.96 186.56 104.81 188.65 90.6 192.51C92.05 188.17 93.06 184.08 93.77 180.59C94.38 177.68 94.75 175.2 95.01 173.46C95.25 171.72 95.32 170.69 95.32 170.69C95.32 170.69 94.42 171.14 92.9 172.07C91.37 172.98 89.26 174.41 86.87 176.36C83.54 179.08 79.68 182.94 76.32 187.8C75.97 185.69 75.59 183.63 75.18 181.62C75.55 180.07 75.9 178.57 76.2 177.16C78.45 166.43 79.11 156.34 79.25 148.77C79.33 145 79.24 141.86 79.17 139.68C79.08 137.49 78.95 136.25 78.95 136.25C78.95 136.25 78.12 137.17 76.76 138.9C75.38 140.62 73.52 143.18 71.48 146.45C69.87 149.04 68.17 152.11 66.54 155.56C62.41 147.08 57.54 140.03 53.31 134.82C51.7 132.89 50.21 131.19 48.89 129.71C47.53 128.25 46.28 127.06 45.28 126.08C43.25 124.13 42.07 123.12 42.07 123.12C42.07 123.12 42.39 124.67 43.1 127.37C43.46 128.71 43.91 130.33 44.42 132.22C44.9 134.12 45.47 136.25 46.13 138.56C48.16 146.01 50.82 155.44 53.97 165.79C53.85 165.66 53.74 165.52 53.62 165.4C51.33 162.89 49.29 160.99 47.79 159.74C46.31 158.48 45.42 157.83 45.42 157.83C45.42 157.83 45.41 158.95 45.53 160.87C45.66 162.79 45.87 165.54 46.28 168.81C46.4 169.78 46.54 170.81 46.69 171.87C46.17 171.15 45.62 170.45 45.1 169.76C44.11 168.49 43.14 167.23 42.11 166.06C41.05 164.91 40 163.79 38.95 162.72C37.9 161.65 36.87 160.6 35.76 159.68C31.48 155.85 27.18 152.91 23.43 150.72C21.53 149.65 19.79 148.74 18.25 147.97C16.69 147.23 15.28 146.69 14.15 146.23C11.88 145.34 10.59 144.93 10.59 144.93C10.59 144.93 11.26 146.14 12.53 148.18C13.17 149.18 13.95 150.41 14.86 151.82C15.72 153.26 16.72 154.87 17.84 156.58C22.22 163.59 27.98 172.81 34.44 182.7C37.74 187.61 41.73 193.62 45.65 200.11C47.12 202.52 48.54 205.03 49.89 207.56C48.78 205.72 47.74 203.99 46.8 202.43C42.84 196.26 38.4 190.97 34.8 186.83C33.93 185.79 33.09 184.85 32.31 184.02C31.56 183.17 30.91 182.44 30.37 181.83C29.26 180.61 28.55 179.93 28.55 179.93C28.55 179.93 28.27 180.83 27.92 182.48C27.8 183.05 27.67 183.73 27.55 184.48C22.04 180.56 16.43 177.94 11.84 176.33C10.06 175.73 8.44 175.24 7.01 174.84C5.56 174.47 4.28 174.23 3.25 174.03C1.17 173.64 0 173.51 0 173.51C0 173.51 0.67 174.52 1.92 176.18C2.55 177 3.32 177.99 4.21 179.13C5.08 180.29 6.07 181.58 7.18 182.95C11.1 187.92 16.17 194.17 22.09 200.62C19.01 200.26 16.14 200.23 13.69 200.39C12.12 200.51 10.71 200.67 9.47 200.85C8.23 201.05 7.16 201.3 6.29 201.5C4.55 201.92 3.6 202.24 3.6 202.24C3.6 202.24 4.38 202.92 5.78 203.98C6.48 204.5 7.33 205.12 8.3 205.84C9.27 206.58 10.36 207.38 11.56 208.21C16.37 211.64 22.61 215.86 29.79 219.53C30.97 220.12 32.24 220.73 33.58 221.37C32.64 221.37 31.71 221.43 30.81 221.55C28.28 221.9 26 222.64 24.15 223.55C22.3 224.45 20.88 225.43 19.94 226.22C19 227 18.52 227.52 18.52 227.52C18.52 227.52 19.06 228.02 19.98 228.76C20.76 229.38 21.81 230.24 23 231.17C13.4 240.94 5.58 252 0 264H448V123.6V120.34V55.25C447.92 54.95 447.85 54.63 447.77 54.33C443.16 36.98 434.67 22.96 427.59 13.8ZM417.67 88.47C418.92 86.11 420.08 83.87 421.16 81.75C422.97 85.02 424.99 88.63 427.12 92.49C424.15 90.27 420.85 89.04 417.67 88.47ZM415.72 71.21C415.05 71.55 414.36 71.89 413.65 72.26C411.06 73.66 408.24 75.38 405.36 77.43C407.1 70.25 408.39 63.56 409.38 57.79C411.3 62.02 413.41 66.54 415.72 71.21ZM406.4 108.18C406.97 107.27 407.51 106.37 408.06 105.47C409.65 108.25 411.49 110.91 413.83 113.03C414.24 113.39 414.69 113.76 415.16 114.12C410.55 113.96 404.85 114.9 400.05 117.97C402.33 114.44 404.5 111.13 406.4 108.18Z" fill="#46B755"/>
<path d="M92.8996 172.07C91.3696 172.98 89.2596 174.41 86.8696 176.36C82.1196 180.25 76.2496 186.4 72.3696 194.6C71.6096 196.18 70.8796 197.96 70.1896 199.85C69.3196 195.31 68.2396 191.06 66.9796 187.52C65.5996 183.56 63.8396 179.93 61.9196 176.68C63.7496 170.97 65.9096 165.97 67.9296 162.01C71.3796 155.21 74.2896 151.32 74.2896 151.32C74.2896 151.32 74.6096 156.16 74.4696 163.64C74.3196 171.13 73.7996 181.22 72.0096 192.08C71.6996 193.82 71.3596 195.68 71.0096 197.63C73.0096 190.2 74.9396 183.02 76.2096 177.15C78.4596 166.42 79.1196 156.33 79.2596 148.76C79.3396 144.99 79.2496 141.85 79.1796 139.67C79.0896 137.48 78.9596 136.24 78.9596 136.24C78.9596 136.24 78.1296 137.16 76.7696 138.89C75.3896 140.61 73.5296 143.17 71.4896 146.44C69.8796 149.03 68.1696 152.1 66.5396 155.56C62.4096 147.08 57.5496 140.02 53.3196 134.82C51.7096 132.89 50.2196 131.19 48.8996 129.71C47.5396 128.25 46.2896 127.06 45.2896 126.08C43.2596 124.13 42.0796 123.12 42.0796 123.12C42.0796 123.12 42.3996 124.67 43.1096 127.37C43.4696 128.71 43.9196 130.33 44.4296 132.22C44.9096 134.12 45.4796 136.25 46.1396 138.56C48.1696 146.01 50.8296 155.44 53.9796 165.79C53.8596 165.66 53.7496 165.52 53.6296 165.4C51.3396 162.89 49.2996 160.99 47.7996 159.74C46.3196 158.48 45.4296 157.83 45.4296 157.83C45.4296 157.83 45.4196 158.95 45.5396 160.87C45.6696 162.79 45.8796 165.54 46.2896 168.81C46.4096 169.78 46.5496 170.81 46.6996 171.87C46.1796 171.15 45.6296 170.45 45.1096 169.75C44.1196 168.48 43.1496 167.22 42.1196 166.05C41.0596 164.9 40.0096 163.78 38.9596 162.71C37.9096 161.64 36.8796 160.59 35.7696 159.67C31.4896 155.84 27.1896 152.9 23.4396 150.71C21.5396 149.64 19.7996 148.73 18.2596 147.96C16.6996 147.22 15.2896 146.68 14.1596 146.22C11.8896 145.33 10.5996 144.92 10.5996 144.92C10.5996 144.92 11.2696 146.13 12.5396 148.17C13.1796 149.17 13.9596 150.4 14.8696 151.8C15.7296 153.24 16.7296 154.85 17.8496 156.56C22.2296 163.57 27.9896 172.79 34.4496 182.68C38.0796 188.04 42.5096 194.73 46.7196 201.94C46.2496 200.97 45.7996 200.02 45.3496 199.1C44.8796 198.19 44.4196 197.31 43.9796 196.46C38.6396 185.79 33.8096 175.94 29.9796 168.67C28.0696 165.01 26.5096 162.01 25.4196 159.93C24.2896 157.87 23.6896 156.66 23.6896 156.66C23.6896 156.66 24.8696 157.27 26.9496 158.49C28.0096 159.09 29.1696 159.94 30.5796 160.91C31.9496 161.91 33.5996 162.99 35.1996 164.4C39.0296 167.49 43.3996 171.76 47.5396 177.06C48.4496 181.94 49.7696 187.35 51.6896 192.87C53.4196 197.73 55.9096 203.61 58.4896 209.73C57.9796 208.1 57.4996 206.55 57.0496 205.09C54.3896 196 53.0396 187.38 52.2396 180.9C51.4496 174.43 51.3196 170.14 51.3196 170.14C51.3196 170.14 54.5096 173.02 58.4896 178.39C62.4696 183.74 67.1696 191.7 69.9796 201.31C70.0996 201.71 70.2096 202.13 70.3196 202.54C70.3296 202.59 70.3396 202.63 70.3396 202.68C70.3396 202.67 70.3496 202.67 70.3496 202.66C70.6696 203.81 70.9696 205 71.2396 206.26C71.0496 204.89 70.8296 203.53 70.5996 202.19C73.8096 195.98 77.8096 190.96 81.2396 187.48C85.4796 183.16 88.7596 181.02 88.7596 181.02C88.7596 181.02 88.3596 184.91 87.1796 190.66C85.9896 196.42 84.1396 204 80.9596 211.8C80.4296 213.04 79.8496 214.37 79.2596 215.77C82.1896 210.62 84.9896 205.67 86.9796 201.54C90.5596 193.98 92.5596 186.42 93.7596 180.57C94.3696 177.66 94.7396 175.18 94.9996 173.44C95.2396 171.7 95.3096 170.67 95.3096 170.67C95.3096 170.67 94.4196 171.15 92.8996 172.07ZM55.2496 156.68C54.8096 154.3 54.2496 152.2 53.8696 150.3C53.4496 148.41 53.1796 146.74 52.8596 145.41C52.2596 142.73 51.9796 141.21 51.9796 141.21C51.9796 141.21 53.0096 142.36 54.7596 144.52C55.6596 145.59 56.6096 146.98 57.7596 148.58C58.8696 150.2 60.2296 152.01 61.4796 154.14C62.5396 155.82 63.6296 157.67 64.7196 159.67C62.9596 163.95 61.3996 168.7 60.3296 173.81C60.3096 173.89 60.2996 173.98 60.2796 174.06C59.6396 173.08 58.9896 172.14 58.3396 171.25C57.2196 165.85 56.1796 160.93 55.2496 156.68Z" fill="#FF790B"/>
<path d="M34.8 186.82C33.93 185.78 33.09 184.84 32.32 184.01C31.57 183.16 30.92 182.43 30.38 181.82C29.27 180.6 28.56 179.92 28.56 179.92C28.56 179.92 28.28 180.82 27.93 182.47C27.81 183.05 27.68 183.73 27.55 184.49C22.04 180.57 16.43 177.93 11.85 176.32C10.07 175.72 8.45 175.23 7.02 174.83C5.57 174.46 4.29 174.22 3.26 174.02C1.17 173.64 0 173.51 0 173.51C0 173.51 0.67 174.52 1.92 176.18C2.55 177 3.32 177.99 4.21 179.13C5.08 180.29 6.07 181.58 7.18 182.95C11.1 187.93 16.17 194.17 22.1 200.62C19.02 200.26 16.15 200.22 13.69 200.38C12.12 200.5 10.71 200.66 9.47 200.84C8.23 201.04 7.16 201.29 6.29 201.5C4.55 201.92 3.6 202.24 3.6 202.24C3.6 202.24 4.38 202.92 5.78 203.98C6.48 204.5 7.33 205.12 8.3 205.84C9.27 206.58 10.36 207.38 11.56 208.21C16.37 211.64 22.61 215.86 29.79 219.53C30.97 220.11 32.26 220.73 33.6 221.36C32.65 221.36 31.72 221.42 30.81 221.54C28.28 221.89 26 222.63 24.15 223.54C22.3 224.44 20.88 225.42 19.94 226.21C19 226.99 18.52 227.51 18.52 227.51C18.52 227.51 19.06 228.01 19.98 228.75C20.89 229.48 22.16 230.52 23.61 231.63C26.55 233.84 30.06 236.45 34.46 237.66C36.88 238.31 40.08 238.71 43.57 239.04C42.72 238.81 41.92 238.59 41.19 238.33C36.65 236.76 33.07 234.06 30.28 231.83C28.9 230.7 27.74 229.68 26.91 228.94C26.09 228.21 25.61 227.73 25.61 227.73C25.61 227.73 26.16 227.37 27.17 226.85C28.18 226.34 29.68 225.7 31.55 225.21C35.27 224.18 40.56 223.85 45.56 225.58C46.35 225.86 47.2 226.19 48.06 226.59C44.96 224.53 41.66 222.82 38.74 222.03C38.08 221.85 37.41 221.71 36.75 221.6C31.42 217.92 26.74 214.23 23.01 211.3C20.74 209.5 18.86 207.97 17.56 206.86C16.24 205.8 15.51 205.13 15.51 205.13C15.51 205.13 16.47 204.98 18.21 204.86C19.93 204.78 22.44 204.74 25.49 205.03C26.97 205.16 28.58 205.39 30.29 205.73C31.05 207.53 31.98 209.33 33.1 211.08C35.64 215.17 39.72 219.62 44.38 223.5C43.83 222.94 43.3 222.39 42.78 221.86C42.29 221.31 41.83 220.75 41.39 220.21C35.84 213.47 33.22 205.75 32.34 200.09C32.06 198.69 31.99 197.36 31.89 196.23C31.82 195.08 31.74 194.11 31.78 193.29C31.82 191.65 31.92 190.74 31.92 190.74C31.92 190.74 32.61 191.36 33.73 192.48C34.27 193.05 35.02 193.7 35.79 194.48C36.59 195.25 37.39 196.16 38.38 197.09C42.15 200.95 47.07 205.89 51.81 211.65C52.18 212.12 52.57 212.61 52.96 213.11C53.37 213.6 53.79 214.11 54.21 214.63C51.39 210.16 48.9 205.82 46.78 202.4C42.83 196.25 38.4 190.96 34.8 186.82ZM26 201.24C23.42 197.63 21.08 194.27 19.06 191.42C18.09 189.94 17.12 188.69 16.33 187.5C15.52 186.34 14.86 185.26 14.26 184.44C13.09 182.78 12.48 181.79 12.48 181.79C12.48 181.79 13.59 182.1 15.56 182.78C16.55 183.11 17.69 183.62 19.04 184.2C20.37 184.81 21.93 185.45 23.52 186.36C24.68 186.97 25.92 187.69 27.19 188.47C27.17 188.8 27.16 189.13 27.15 189.47C27.08 192.97 27.53 197.36 28.92 201.92C27.93 201.65 26.96 201.44 26 201.24Z" fill="#FF790B"/>
<path d="M429.601 94.63C424.901 82.7 421.031 71.54 417.891 62.93C417.121 60.52 416.241 58.44 415.591 56.5C414.901 54.59 414.391 52.85 413.871 51.5C412.871 48.77 412.371 47.16 412.371 47.16C412.371 47.16 413.771 47.9 416.191 49.42C417.421 50.16 418.781 51.22 420.401 52.43C421.461 53.26 422.661 54.16 423.891 55.19C424.381 57.22 424.901 59.26 425.451 61.32C427.931 70 431.011 80.74 434.181 91.81C433.611 88.87 433.071 86.07 432.531 83.46C429.441 67.16 427.621 51.99 426.321 40.63C425.691 34.96 425.231 30.27 424.971 26.98C424.651 23.71 424.561 21.84 424.561 21.84C424.561 21.84 425.751 23.18 427.761 25.73C429.711 28.3 432.441 32.1 435.411 37.07C439.721 44.22 444.461 53.95 448.021 65.43V55.23C447.941 54.93 447.871 54.62 447.781 54.33C443.181 36.98 434.681 22.96 427.611 13.8C425.811 11.51 424.121 9.5 422.611 7.76C421.071 6.04 419.641 4.62 418.491 3.47C416.171 1.18 414.791 0 414.791 0C414.791 0 414.901 1.93 415.261 5.27C415.441 6.94 415.711 8.94 416.001 11.26C416.271 13.59 416.611 16.2 417.041 19.03C418.101 26.42 419.551 35.31 421.581 44.97C418.721 42.59 415.921 40.58 413.351 38.96C411.141 37.62 409.111 36.48 407.321 35.53C405.491 34.61 403.841 33.95 402.511 33.39C399.841 32.31 398.311 31.84 398.311 31.84C398.311 31.84 398.891 33.5 400.041 36.26C400.621 37.62 401.331 39.27 402.151 41.16C402.931 43.09 403.831 45.23 404.861 47.51C408.881 56.8 414.201 68.72 420.801 81.06C422.711 84.51 424.891 88.37 427.171 92.51C421.621 88.36 414.871 87.6 410.031 88.31C407.341 88.69 405.171 89.4 403.651 90.08C402.141 90.72 401.321 91.22 401.321 91.22C401.321 91.22 401.701 92.21 402.371 93.74C403.061 95.24 403.981 97.37 405.081 99.64C407.311 104.27 409.891 109.44 413.861 113.03C416.091 114.97 419.221 116.95 422.631 119.19C421.921 118.45 421.271 117.73 420.651 117.06C416.991 112.8 414.651 107.5 412.691 103.03C411.741 100.8 410.941 98.81 410.381 97.35C409.811 95.93 409.501 95.02 409.501 95.02C409.501 95.02 412.891 93.86 417.971 94.31C423.011 94.7 429.831 97.08 434.811 102.89C435.621 103.79 436.401 104.85 437.141 106.02C435.091 101.52 432.421 97.42 429.601 94.63Z" fill="#FF790B"/>
<path d="M422.309 79.4801C423.339 77.5301 424.239 75.7001 425.009 74.0501C425.819 72.4301 426.529 71.0201 427.109 69.8601C428.249 67.5001 428.829 66.0901 428.829 66.0901C428.829 66.0901 427.289 66.5001 424.589 67.4401C423.249 67.9201 421.579 68.5001 419.739 69.3001C417.929 70.1201 415.879 71.1101 413.659 72.2701C411.069 73.6701 408.249 75.4001 405.369 77.4501C407.359 69.2101 408.779 61.6201 409.799 55.3201C410.219 52.9101 410.549 50.6801 410.809 48.6901C411.099 46.7201 411.359 45.0101 411.529 43.5901C411.879 40.7501 411.969 39.1001 411.969 39.1001C411.969 39.1001 410.579 40.1201 408.249 42.0901C407.089 43.0801 405.659 44.3001 404.109 45.7701C402.589 47.2601 400.899 48.9901 399.089 50.9501C391.989 58.8001 383.489 70.8101 378.939 85.6301C378.439 87.1801 377.989 88.8401 377.559 90.5501C376.499 88.3701 375.399 86.3201 374.259 84.4401C366.429 71.0901 354.909 61.6301 345.909 56.0701C343.609 54.6901 341.499 53.5101 339.629 52.5101C337.719 51.5401 335.989 50.8001 334.599 50.2001C331.799 49.0001 330.189 48.4501 330.189 48.4501C330.189 48.4501 330.779 49.9701 331.949 52.5201C332.549 53.7801 333.279 55.3101 334.119 57.0701C334.919 58.8601 335.849 60.8501 336.929 62.9701C341.029 71.4901 346.499 82.4801 353.229 94.0201C349.529 91.9101 345.769 90.4801 342.509 89.6201C340.819 89.1901 339.259 88.8601 337.879 88.6201C336.479 88.4001 335.229 88.2901 334.219 88.2101C332.189 88.0601 331.029 88.0901 331.029 88.0901C331.029 88.0901 331.339 89.1501 331.989 90.8601C332.319 91.7001 332.729 92.7101 333.179 93.8601C333.619 95.0301 334.139 96.3001 334.739 97.6401C337.099 103.11 340.229 109.69 345.029 115.69C347.729 118.95 351.429 122.77 355.259 126.92C354.479 125.74 353.739 124.62 353.049 123.57C348.909 117 346.219 110.21 344.139 104.83C343.129 102.15 342.319 99.8401 341.789 98.1701C341.219 96.5401 340.949 95.5501 340.949 95.5501C340.949 95.5501 342.039 95.7201 343.919 96.1801C345.769 96.6801 348.399 97.5001 351.419 98.8801C357.439 101.58 365.019 106.79 370.019 114.71C370.849 115.96 371.599 117.36 372.309 118.86C370.249 112.76 367.299 107.01 363.959 102.98C362.299 100.92 360.439 99.1201 358.459 97.5501C355.419 90.1901 352.769 83.4501 350.509 77.8901C349.709 75.6501 348.789 73.7201 348.119 71.9201C347.399 70.1501 346.879 68.5401 346.339 67.2901C345.309 64.7601 344.799 63.2801 344.799 63.2801C344.799 63.2801 346.259 64.0601 348.779 65.6101C350.059 66.3701 351.469 67.4301 353.149 68.6401C354.789 69.8801 356.759 71.2501 358.659 72.9701C364.449 77.8401 371.169 84.9501 376.759 93.8801C375.389 100.23 374.429 107.33 373.969 114.58C374.329 111.86 374.769 109.28 375.339 106.89C378.599 91.9101 385.369 79.2701 391.329 70.8101C394.299 66.5601 397.039 63.3001 398.999 61.1001C401.009 58.9201 402.209 57.7601 402.209 57.7601C402.209 57.7601 402.129 59.3601 401.829 62.1401C401.579 64.9401 401.149 68.9501 400.549 73.7801C399.299 83.4701 397.559 96.4001 394.529 110.32C393.999 112.55 393.469 114.94 392.909 117.45C396.049 107.99 399.089 98.8201 401.549 91.4101C402.089 89.6501 402.599 87.9001 403.089 86.1701C404.329 85.2901 405.539 84.5101 406.609 83.7901C408.249 82.7501 409.609 81.8301 410.849 81.1901C413.289 79.8801 414.699 79.2401 414.699 79.2401C414.699 79.2401 414.209 80.6201 413.209 82.9501C412.689 84.1001 412.189 85.5901 411.499 87.2201C410.849 88.8801 409.979 90.6501 409.209 92.7201C406.089 100.08 402.239 109.61 397.559 119.81C394.719 122.21 392.049 125.72 390.019 129.57C390.759 128.57 391.539 127.66 392.349 126.89C397.359 121.9 404.239 119.82 409.339 119.46C414.489 119.04 417.919 120 417.919 120C417.919 120 417.619 120.77 417.049 121.99C416.499 123.24 415.699 124.94 414.749 126.85C412.789 130.67 410.459 135.2 406.789 138.86C406.169 139.44 405.509 140.05 404.799 140.69C408.239 138.76 411.389 137.05 413.639 135.38C417.639 132.29 420.209 127.86 422.439 123.9C423.529 121.96 424.459 120.13 425.139 118.85C425.809 117.54 426.189 116.69 426.189 116.69C426.189 116.69 425.349 116.27 423.819 115.74C422.279 115.18 420.069 114.59 417.349 114.28C412.449 113.71 405.629 114.4 400.039 117.98C402.309 114.44 404.489 111.13 406.399 108.18C412.999 97.6201 418.299 87.4301 422.309 79.4801Z" fill="#FF790B"/>
</svg>
