<svg width="448" height="264" viewBox="0 0 448 264" fill="none" xmlns="http://www.w3.org/2000/svg">
<path d="M448.001 118.61C447.881 118.76 447.761 118.92 447.651 119.07C447.771 118.89 447.881 118.71 448.001 118.53V71.6199C442.851 74.8499 436.861 80.5599 430.701 87.8799C433.011 80.9499 434.731 74.0499 435.771 67.6299C436.731 61.2499 437.091 55.2799 436.901 50.1099C436.351 39.8399 433.571 32.7799 429.021 31.7199C426.211 31.0699 423.111 32.6999 419.941 36.0599C416.791 39.3999 413.501 44.5099 410.281 50.7899C410.101 49.7399 409.921 48.6799 409.741 47.6099C409.101 43.9799 408.171 40.5399 407.251 37.1799C406.291 33.8399 405.291 30.5999 404.141 27.5799C401.771 21.5899 399.211 16.2299 396.481 11.9299C390.901 3.3999 385.211 -1.2101 380.711 0.289898C377.651 1.2799 375.671 4.8599 374.551 10.2299C373.391 15.6299 373.161 22.7599 373.711 30.8399C371.741 28.1199 369.661 25.5899 367.601 23.1799C365.521 20.7999 363.511 18.4999 361.361 16.4999C357.101 12.4699 352.991 9.0899 349.091 6.6399C341.201 1.7999 334.661 0.299898 331.071 3.0199C327.861 6.1999 328.171 12.9499 331.181 21.2499C332.651 25.4299 334.671 30.1099 337.351 34.9299C338.711 37.3199 340.051 39.8899 341.621 42.4099C343.161 44.9599 344.881 47.4899 346.671 50.0799C339.411 47.3099 332.831 45.8799 327.671 45.7799C322.461 45.7099 318.591 46.9899 316.781 49.5499C314.181 53.2699 316.131 59.1899 321.571 65.7099C324.231 69.0199 327.661 72.5799 331.881 76.1399C333.961 77.9399 336.141 79.8099 338.531 81.6299C340.891 83.4799 343.521 85.2599 346.131 87.1299C346.911 87.6699 347.691 88.1999 348.461 88.7399C341.741 89.1299 336.001 90.2299 331.691 91.8599C327.401 93.4699 324.591 95.5699 323.751 97.9799C322.341 101.97 326.331 106.13 334.111 109.98C337.921 111.96 342.701 113.86 348.241 115.65C353.711 117.47 359.861 119.23 366.621 120.77C348.971 123.04 336.521 128.43 335.391 133.94C335.011 135.76 335.951 137.42 337.831 139C339.711 140.58 342.641 142.03 346.441 143.33C348.341 143.98 350.461 144.59 352.771 145.17C355.061 145.76 357.511 146.33 360.141 146.84C365.411 147.88 371.361 148.76 377.791 149.45C363.811 148.63 345.691 156.77 344.341 161.45C343.751 163.67 344.711 165.98 346.971 168.24C349.221 170.51 352.851 172.7 357.301 174.82C361.721 176.94 367.101 178.93 373.081 180.66C379.031 182.39 385.451 183.91 392.181 184.93C373.771 184.59 355.591 187.89 353.561 193.34C352.131 197.21 357.991 201.34 367.611 205.55C377.411 209.69 390.931 214.01 405.581 217.45C418.761 220.61 431.501 222.64 441.741 223.06C443.751 221.97 445.841 220.73 447.971 219.36V118.61H448.001Z" fill="#389444"/>
<path d="M101.073 177.339C95.8499 177.111 91.3099 177.347 88.0717 178.226C84.8335 179.104 82.8646 180.65 82.7588 182.896C82.588 185.825 85.6309 189.405 90.7729 192.423C92.0584 193.18 93.4741 193.896 94.9793 194.579C96.5008 195.246 98.1524 195.857 99.861 196.41C100.528 196.629 101.22 196.825 101.919 197.02H160.215C160.215 197.02 165.137 180.455 165.975 174.987C166.781 169.52 166.382 165.761 163.974 164.931C162.688 164.508 159.629 165.704 156.367 167.811C153.104 169.927 149.646 172.994 147.612 176.427C149.353 173.157 150.801 170.146 152.12 167.364C152.77 165.981 153.332 164.679 153.836 163.45C154.365 162.214 154.804 161.066 155.162 160.009C156.611 155.778 156.79 152.946 154.975 152.011C153.568 151.311 151.184 151.807 148.214 153.337C145.245 154.867 141.73 157.421 138.142 160.961C141.421 153.76 144.016 147.503 145.35 142.817C146.676 138.131 146.628 134.966 144.472 133.957C143.17 133.346 141.225 133.639 138.882 134.73C136.531 135.828 133.838 137.732 131.063 140.409C131.145 139.864 131.234 139.318 131.315 138.765C132.406 131.272 133.065 124.706 132.804 119.775C132.756 118.539 132.633 117.408 132.43 116.399C132.259 115.382 132.023 114.479 131.698 113.714C131.031 112.176 130.136 111.151 128.875 110.809C127.166 110.337 125.034 111.208 122.829 113.258C121.739 114.283 120.624 115.61 119.518 117.212C118.46 118.807 117.403 120.687 116.434 122.802C115.417 115.146 114.173 108.246 112.562 103.047C112.171 101.754 111.748 100.558 111.276 99.5C110.82 98.4423 110.365 97.5067 109.852 96.7256C108.843 95.1635 107.688 94.1871 106.427 94C105.158 94 103.905 94.8136 102.717 96.3269C102.131 97.0836 101.537 98.0193 101.008 99.1176C100.488 100.216 99.9993 101.469 99.5518 102.868C97.8026 108.45 96.9239 116.366 97.8839 125.015C92.0503 116.732 86.8757 111.135 83.4992 112.721C82.2869 113.299 81.4326 114.788 81.0584 117.001C80.8631 118.107 80.7655 119.385 80.7817 120.817C80.8224 122.249 80.9689 123.819 81.2211 125.519C82.2707 132.289 85.3136 140.921 90.4394 149.049C90.8217 149.643 91.2042 150.229 91.5784 150.815C87.6975 149.31 84.2803 148.341 81.6686 148.154C79.0406 147.975 77.1693 148.602 76.3801 150.229C75.1108 152.873 77.0716 157.731 81.4977 162.921C85.9075 168.104 92.8721 173.507 101.073 177.339Z" fill="#389444"/>
<path d="M448 187.09C424.26 180.37 398.23 176.65 370.92 176.65C349.04 176.65 318.81 179.45 299.1 183.85C268.9 173.43 243.92 167.15 207.75 167.15C113.1 167.14 32.26 207.33 0 264H448V187.09Z" fill="#46B755"/>
</svg>
