<svg width="448" height="264" viewBox="0 0 448 264" fill="none" xmlns="http://www.w3.org/2000/svg">
<path d="M448.001 71.1305C440.791 65.3905 432.181 62.0305 422.911 62.0305C419.741 62.0305 416.641 62.4305 413.651 63.1805C414.101 60.1105 414.351 56.9605 414.351 53.7305C414.351 24.0605 394.571 0.000488281 370.171 0.000488281C349.131 0.000488281 331.541 17.9005 327.091 41.8505C321.851 38.9905 316.051 37.3905 309.941 37.3905C286.771 37.3905 267.991 60.2305 267.991 88.4105C267.991 89.2905 268.011 90.1705 268.051 91.0405C266.451 89.4705 264.731 88.0205 262.861 86.7205C245.331 74.5005 222.981 79.6405 212.931 98.2005C204.271 114.2 207.601 134.94 219.921 148.19C216.071 151 212.741 154.75 210.221 159.4C203.811 171.24 204.331 185.81 210.401 197.62H448.001V71.1305Z" fill="#389444"/>
<path d="M311.7 150.84C247.69 150.84 190.4 175.24 152.07 213.65C137.29 207.39 120.63 203.87 103 203.87C56.08 203.87 16 228.82 0 264H116.76H206H448V193.73C411.41 167.01 363.79 150.84 311.7 150.84Z" fill="#46B755"/>
</svg>
