<svg width="112" height="112" viewBox="0 0 112 112" fill="none" xmlns="http://www.w3.org/2000/svg">
<path d="M112 56C112 86.9276 86.9276 112 56 112C25.0756 112 0 86.9276 0 56C0 25.0756 25.0756 0 56 0C86.9276 0 112 25.0756 112 56Z" fill="#FFCC4D"/>
<path d="M53.8587 54.7932C53.3111 54.3484 52.5302 54.3359 51.9609 54.7497C51.9236 54.7777 48.0409 57.5559 40.4436 57.5559C32.8494 57.5559 28.9636 54.7777 28.9325 54.7559C28.3631 54.3297 27.5791 54.3421 27.0316 54.7839C26.4778 55.2257 26.2911 55.9848 26.5774 56.6319C26.764 57.0519 31.244 66.8892 40.4436 66.8892C49.6462 66.8892 54.1231 57.0519 54.3098 56.6319C54.596 55.9879 54.4094 55.235 53.8587 54.7932ZM84.9698 54.7932C84.4222 54.3484 83.6445 54.3328 83.072 54.7497C83.0347 54.7777 79.1489 57.5559 71.5547 57.5559C63.9636 57.5559 60.0747 54.7777 60.0436 54.7559C59.4742 54.3297 58.6934 54.3421 58.1427 54.7839C57.5889 55.2257 57.4022 55.9848 57.6885 56.6319C57.8751 57.0519 62.3551 66.8892 71.5547 66.8892C80.7574 66.8892 85.2342 57.0519 85.4209 56.6319C85.7071 55.9879 85.5205 55.235 84.9698 54.7932ZM68.4436 87.1115H43.5547C41.8374 87.1115 40.4436 85.7208 40.4436 84.0004C40.4436 82.2799 41.8374 80.8892 43.5547 80.8892H68.4436C70.164 80.8892 71.5547 82.2799 71.5547 84.0004C71.5547 85.7208 70.164 87.1115 68.4436 87.1115ZM18.6658 43.5559C16.9485 43.5559 15.5547 42.1621 15.5547 40.4448C15.5547 38.7306 16.9391 37.3399 18.6534 37.3337C19.1387 37.3275 29.7569 37.0661 37.9578 26.1337C38.9876 24.7648 40.9351 24.4786 42.3134 25.5115C43.6885 26.5412 43.9654 28.4919 42.9356 29.867C32.784 43.4004 19.2382 43.5559 18.6658 43.5559ZM93.3325 43.5559C92.76 43.5559 79.2174 43.4004 69.0658 29.867C68.0329 28.4919 68.3129 26.5412 69.688 25.5115C71.06 24.4755 73.0076 24.7586 74.0405 26.1337C82.2569 37.0879 92.8969 37.3306 93.348 37.3337C95.0591 37.3523 96.4405 38.7523 96.4311 40.4603C96.4249 42.1746 95.0436 43.5559 93.3325 43.5559Z" fill="#664500"/>
</svg>
