<svg xmlns="http://www.w3.org/2000/svg" fill="none" viewBox="24 8 320 568">
<g filter="url(#filter0_d_4_19935)">
<rect width="320" height="568" transform="translate(24 8)" fill="white"/>
<g clip-path="url(#clip0_4_19935)">
<path d="M198.75 206.583C199.905 205.414 201.281 204.486 202.797 203.853C204.313 203.219 205.94 202.893 207.584 202.893C209.227 202.893 210.854 203.219 212.37 203.853C213.887 204.486 215.262 205.414 216.417 206.583L269.417 259.583C270.586 260.738 271.514 262.114 272.148 263.63C272.781 265.146 273.108 266.773 273.108 268.417C273.108 270.06 272.781 271.687 272.148 273.203C271.514 274.72 270.586 276.095 269.417 277.25L169.25 377.417C164.334 382.333 156.417 382.333 151.584 377.417L98.5838 324.417C93.6671 319.5 93.6671 311.583 98.5838 306.75L198.75 206.583ZM166.334 362.667L254.667 274.333C255.44 273.562 256.053 272.647 256.471 271.639C256.889 270.63 257.104 269.55 257.104 268.458C257.104 267.367 256.889 266.286 256.471 265.278C256.053 264.27 255.44 263.354 254.667 262.583L213.417 221.333C212.646 220.561 211.73 219.948 210.722 219.53C209.714 219.112 208.633 218.896 207.542 218.896C206.451 218.896 205.37 219.112 204.362 219.53C203.354 219.948 202.438 220.561 201.667 221.333L113.25 309.75C110 313 110 318.25 113.25 321.5L154.5 362.75C157.75 365.917 163.084 365.917 166.334 362.667ZM137.25 203.667C150.334 196.75 166.834 191.75 185.584 192.167C187.084 192.167 187.75 194 186.75 195.083L157.75 224.083L146.667 213C120.917 225.167 102.167 249.417 97.5838 278.5C97.0838 281.917 93.9171 284.25 90.4171 283.667C87.0004 283.167 84.6671 279.917 85.2504 276.5C90.2504 244.833 109.917 218.167 137.25 203.667ZM210.25 360L221.334 371.083C234.233 364.992 245.448 355.84 254.003 344.424C262.557 333.008 268.192 319.674 270.417 305.583C270.535 304.767 270.816 303.983 271.243 303.278C271.67 302.573 272.235 301.961 272.904 301.479C273.573 300.997 274.332 300.655 275.136 300.472C275.94 300.289 276.772 300.271 277.584 300.417C281 300.917 283.334 304.167 282.75 307.583C277.75 339.333 258.084 366 230.75 380.5C217.667 387.417 201.167 392.417 182.417 392C180.917 392 180.25 390.167 181.25 389.083L210.25 360Z" fill="#3F8CFF"/>
</g>
<path d="M105.638 112.909V126H103.286V114.878H97.5588V126H95.2065V112.909H105.638ZM112.719 126.192C111.735 126.192 110.885 125.987 110.169 125.578C109.457 125.165 108.909 124.581 108.526 123.827C108.142 123.068 107.951 122.175 107.951 121.148C107.951 120.138 108.142 119.252 108.526 118.489C108.914 117.722 109.455 117.126 110.15 116.7C110.844 116.269 111.66 116.054 112.598 116.054C113.203 116.054 113.774 116.152 114.311 116.348C114.852 116.54 115.329 116.838 115.743 117.243C116.16 117.648 116.488 118.163 116.727 118.79C116.966 119.412 117.085 120.153 117.085 121.014V121.724H109.037V120.164H114.867C114.863 119.721 114.767 119.327 114.579 118.982C114.392 118.632 114.13 118.357 113.793 118.157C113.461 117.957 113.073 117.857 112.63 117.857C112.157 117.857 111.741 117.972 111.383 118.202C111.025 118.428 110.746 118.726 110.546 119.097C110.35 119.463 110.25 119.866 110.245 120.305V121.666C110.245 122.237 110.35 122.727 110.559 123.136C110.767 123.541 111.059 123.852 111.434 124.07C111.809 124.283 112.248 124.389 112.751 124.389C113.088 124.389 113.392 124.342 113.665 124.249C113.938 124.151 114.174 124.008 114.375 123.82C114.575 123.633 114.726 123.401 114.828 123.124L116.989 123.366C116.853 123.937 116.593 124.436 116.209 124.862C115.83 125.284 115.344 125.612 114.752 125.847C114.159 126.077 113.482 126.192 112.719 126.192ZM119.042 129.682V116.182H121.318V117.805H121.452C121.572 117.567 121.74 117.313 121.957 117.045C122.175 116.772 122.469 116.54 122.839 116.348C123.21 116.152 123.683 116.054 124.258 116.054C125.017 116.054 125.701 116.248 126.31 116.636C126.924 117.019 127.41 117.588 127.768 118.342C128.13 119.092 128.311 120.013 128.311 121.104C128.311 122.182 128.134 123.098 127.78 123.852C127.427 124.607 126.945 125.182 126.336 125.578C125.726 125.974 125.036 126.173 124.265 126.173C123.702 126.173 123.236 126.079 122.865 125.891C122.494 125.704 122.196 125.478 121.97 125.214C121.748 124.945 121.576 124.692 121.452 124.453H121.356V129.682H119.042ZM121.312 121.091C121.312 121.726 121.401 122.282 121.58 122.759C121.763 123.237 122.025 123.609 122.366 123.878C122.711 124.142 123.129 124.274 123.619 124.274C124.131 124.274 124.559 124.138 124.904 123.865C125.249 123.588 125.509 123.211 125.684 122.734C125.863 122.252 125.952 121.705 125.952 121.091C125.952 120.482 125.865 119.94 125.69 119.467C125.515 118.994 125.256 118.624 124.91 118.355C124.565 118.087 124.135 117.952 123.619 117.952C123.125 117.952 122.705 118.082 122.36 118.342C122.015 118.602 121.753 118.967 121.574 119.435C121.399 119.904 121.312 120.456 121.312 121.091ZM134.639 126.192C133.655 126.192 132.805 125.987 132.089 125.578C131.377 125.165 130.829 124.581 130.446 123.827C130.062 123.068 129.871 122.175 129.871 121.148C129.871 120.138 130.062 119.252 130.446 118.489C130.834 117.722 131.375 117.126 132.069 116.7C132.764 116.269 133.58 116.054 134.518 116.054C135.123 116.054 135.694 116.152 136.231 116.348C136.772 116.54 137.249 116.838 137.662 117.243C138.08 117.648 138.408 118.163 138.647 118.79C138.885 119.412 139.005 120.153 139.005 121.014V121.724H130.957V120.164H136.787C136.782 119.721 136.687 119.327 136.499 118.982C136.312 118.632 136.05 118.357 135.713 118.157C135.381 117.957 134.993 117.857 134.55 117.857C134.077 117.857 133.661 117.972 133.303 118.202C132.945 118.428 132.666 118.726 132.466 119.097C132.27 119.463 132.17 119.866 132.165 120.305V121.666C132.165 122.237 132.27 122.727 132.479 123.136C132.687 123.541 132.979 123.852 133.354 124.07C133.729 124.283 134.168 124.389 134.671 124.389C135.008 124.389 135.312 124.342 135.585 124.249C135.858 124.151 136.094 124.008 136.295 123.82C136.495 123.633 136.646 123.401 136.748 123.124L138.909 123.366C138.773 123.937 138.513 124.436 138.129 124.862C137.75 125.284 137.264 125.612 136.672 125.847C136.079 126.077 135.402 126.192 134.639 126.192ZM140.962 126V116.182H145.085C146.249 116.182 147.167 116.414 147.84 116.879C148.518 117.343 148.857 117.991 148.857 118.822C148.857 119.371 148.665 119.821 148.281 120.17C147.902 120.516 147.384 120.748 146.728 120.867C147.244 120.91 147.695 121.04 148.083 121.257C148.475 121.474 148.782 121.76 149.004 122.114C149.225 122.467 149.336 122.874 149.336 123.335C149.336 123.876 149.193 124.347 148.908 124.747C148.626 125.143 148.215 125.452 147.674 125.674C147.137 125.891 146.485 126 145.718 126H140.962ZM143.129 124.178H145.718C146.144 124.178 146.479 124.078 146.722 123.878C146.964 123.673 147.086 123.396 147.086 123.047C147.086 122.642 146.964 122.325 146.722 122.094C146.479 121.86 146.144 121.743 145.718 121.743H143.129V124.178ZM143.129 120.247H145.13C145.445 120.247 145.716 120.202 145.942 120.113C146.168 120.019 146.34 119.889 146.46 119.723C146.579 119.553 146.638 119.35 146.638 119.116C146.638 118.779 146.5 118.515 146.223 118.323C145.95 118.131 145.571 118.036 145.085 118.036H143.129V120.247ZM155.592 126.192C154.608 126.192 153.758 125.987 153.042 125.578C152.33 125.165 151.782 124.581 151.399 123.827C151.015 123.068 150.824 122.175 150.824 121.148C150.824 120.138 151.015 119.252 151.399 118.489C151.787 117.722 152.328 117.126 153.023 116.7C153.717 116.269 154.533 116.054 155.471 116.054C156.076 116.054 156.647 116.152 157.184 116.348C157.725 116.54 158.202 116.838 158.616 117.243C159.033 117.648 159.361 118.163 159.6 118.79C159.839 119.412 159.958 120.153 159.958 121.014V121.724H151.91V120.164H157.74C157.736 119.721 157.64 119.327 157.452 118.982C157.265 118.632 157.003 118.357 156.666 118.157C156.334 117.957 155.946 117.857 155.503 117.857C155.03 117.857 154.614 117.972 154.256 118.202C153.898 118.428 153.619 118.726 153.419 119.097C153.223 119.463 153.123 119.866 153.118 120.305V121.666C153.118 122.237 153.223 122.727 153.432 123.136C153.64 123.541 153.932 123.852 154.307 124.07C154.682 124.283 155.121 124.389 155.624 124.389C155.961 124.389 156.265 124.342 156.538 124.249C156.811 124.151 157.047 124.008 157.248 123.82C157.448 123.633 157.599 123.401 157.702 123.124L159.862 123.366C159.726 123.937 159.466 124.436 159.082 124.862C158.703 125.284 158.217 125.612 157.625 125.847C157.032 126.077 156.355 126.192 155.592 126.192ZM161.915 129.682V116.182H164.191V117.805H164.325C164.445 117.567 164.613 117.313 164.83 117.045C165.048 116.772 165.342 116.54 165.712 116.348C166.083 116.152 166.556 116.054 167.131 116.054C167.89 116.054 168.574 116.248 169.183 116.636C169.797 117.019 170.283 117.588 170.641 118.342C171.003 119.092 171.184 120.013 171.184 121.104C171.184 122.182 171.007 123.098 170.653 123.852C170.3 124.607 169.818 125.182 169.209 125.578C168.599 125.974 167.909 126.173 167.138 126.173C166.575 126.173 166.109 126.079 165.738 125.891C165.367 125.704 165.069 125.478 164.843 125.214C164.621 124.945 164.449 124.692 164.325 124.453H164.229V129.682H161.915ZM164.185 121.091C164.185 121.726 164.274 122.282 164.453 122.759C164.636 123.237 164.898 123.609 165.239 123.878C165.585 124.142 166.002 124.274 166.492 124.274C167.004 124.274 167.432 124.138 167.777 123.865C168.122 123.588 168.382 123.211 168.557 122.734C168.736 122.252 168.825 121.705 168.825 121.091C168.825 120.482 168.738 119.94 168.563 119.467C168.388 118.994 168.129 118.624 167.783 118.355C167.438 118.087 167.008 117.952 166.492 117.952C165.998 117.952 165.578 118.082 165.233 118.342C164.888 118.602 164.626 118.967 164.447 119.435C164.272 119.904 164.185 120.456 164.185 121.091ZM179.909 120.132V122.031H174.68V120.132H179.909ZM175.396 116.182V126H173.165V116.182H175.396ZM181.424 116.182V126H179.2V116.182H181.424ZM185.996 122.868L189.927 116.182H192.305V126H190.068V119.308L186.149 126H183.765V116.182H185.996V122.868ZM193.582 118.08V116.182H202.173V118.08H198.996V126H196.759V118.08H193.582ZM207.957 126.192C206.973 126.192 206.123 125.987 205.407 125.578C204.695 125.165 204.148 124.581 203.764 123.827C203.381 123.068 203.189 122.175 203.189 121.148C203.189 120.138 203.381 119.252 203.764 118.489C204.152 117.722 204.693 117.126 205.388 116.7C206.082 116.269 206.898 116.054 207.836 116.054C208.441 116.054 209.012 116.152 209.549 116.348C210.09 116.54 210.567 116.838 210.981 117.243C211.398 117.648 211.727 118.163 211.965 118.79C212.204 119.412 212.323 120.153 212.323 121.014V121.724H204.276V120.164H210.105C210.101 119.721 210.005 119.327 209.817 118.982C209.63 118.632 209.368 118.357 209.031 118.157C208.699 117.957 208.311 117.857 207.868 117.857C207.395 117.857 206.979 117.972 206.621 118.202C206.263 118.428 205.984 118.726 205.784 119.097C205.588 119.463 205.488 119.866 205.484 120.305V121.666C205.484 122.237 205.588 122.727 205.797 123.136C206.006 123.541 206.298 123.852 206.673 124.07C207.048 124.283 207.487 124.389 207.989 124.389C208.326 124.389 208.631 124.342 208.903 124.249C209.176 124.151 209.413 124.008 209.613 123.82C209.813 123.633 209.964 123.401 210.067 123.124L212.227 123.366C212.091 123.937 211.831 124.436 211.447 124.862C211.068 125.284 210.582 125.612 209.99 125.847C209.398 126.077 208.72 126.192 207.957 126.192ZM222.248 117.959C221.925 117.963 221.626 118.033 221.354 118.17C221.081 118.306 220.861 118.491 220.695 118.726C220.533 118.956 220.452 119.224 220.452 119.531H218.324C218.324 119.037 218.426 118.577 218.631 118.151C218.835 117.724 219.116 117.354 219.474 117.038C219.836 116.723 220.254 116.478 220.727 116.303C221.204 116.124 221.711 116.035 222.248 116.035C223.203 116.035 224.008 116.256 224.665 116.7C225.325 117.143 225.824 117.739 226.16 118.489C226.501 119.235 226.672 120.062 226.672 120.969V121.244C226.672 122.152 226.503 122.981 226.167 123.731C225.83 124.477 225.331 125.071 224.671 125.514C224.015 125.957 223.207 126.179 222.248 126.179C221.481 126.179 220.802 126.023 220.209 125.712C219.621 125.397 219.159 124.958 218.822 124.396C218.49 123.833 218.324 123.177 218.324 122.427H220.452C220.452 122.751 220.529 123.051 220.682 123.328C220.836 123.601 221.047 123.82 221.315 123.987C221.588 124.153 221.899 124.238 222.248 124.242C222.773 124.238 223.194 124.082 223.514 123.776C223.838 123.469 224.072 123.085 224.217 122.625C224.366 122.165 224.441 121.705 224.441 121.244V120.969C224.441 120.475 224.366 120 224.217 119.544C224.072 119.084 223.838 118.707 223.514 118.413C223.194 118.114 222.773 117.963 222.248 117.959ZM225.163 120.311V121.845H221.424V120.311H225.163ZM228.624 126V116.182H230.938V120.145H231.782L234.735 116.182H237.522L233.885 121.001L237.561 126H234.761L232.07 122.299H230.938V126H228.624ZM238.873 129.682V116.182H241.148V117.805H241.282C241.402 117.567 241.57 117.313 241.787 117.045C242.005 116.772 242.299 116.54 242.669 116.348C243.04 116.152 243.513 116.054 244.088 116.054C244.847 116.054 245.531 116.248 246.14 116.636C246.754 117.019 247.24 117.588 247.598 118.342C247.96 119.092 248.141 120.013 248.141 121.104C248.141 122.182 247.964 123.098 247.61 123.852C247.257 124.607 246.775 125.182 246.166 125.578C245.556 125.974 244.866 126.173 244.095 126.173C243.532 126.173 243.066 126.079 242.695 125.891C242.324 125.704 242.026 125.478 241.8 125.214C241.578 124.945 241.406 124.692 241.282 124.453H241.186V129.682H238.873ZM241.142 121.091C241.142 121.726 241.231 122.282 241.41 122.759C241.593 123.237 241.855 123.609 242.196 123.878C242.542 124.142 242.959 124.274 243.449 124.274C243.961 124.274 244.389 124.138 244.734 123.865C245.079 123.588 245.339 123.211 245.514 122.734C245.693 122.252 245.782 121.705 245.782 121.091C245.782 120.482 245.695 119.94 245.52 119.467C245.346 118.994 245.086 118.624 244.74 118.355C244.395 118.087 243.965 117.952 243.449 117.952C242.955 117.952 242.535 118.082 242.19 118.342C241.845 118.602 241.583 118.967 241.404 119.435C241.229 119.904 241.142 120.456 241.142 121.091ZM252.948 126.198C252.326 126.198 251.765 126.087 251.267 125.866C250.772 125.64 250.38 125.308 250.091 124.869C249.805 124.43 249.662 123.888 249.662 123.245C249.662 122.691 249.765 122.233 249.969 121.871C250.174 121.509 250.453 121.219 250.806 121.001C251.16 120.784 251.559 120.62 252.002 120.509C252.449 120.394 252.912 120.311 253.389 120.26C253.964 120.2 254.431 120.147 254.789 120.1C255.147 120.049 255.407 119.972 255.569 119.87C255.735 119.763 255.818 119.599 255.818 119.378V119.339C255.818 118.858 255.675 118.485 255.39 118.221C255.104 117.957 254.693 117.825 254.156 117.825C253.589 117.825 253.14 117.948 252.807 118.195C252.479 118.442 252.257 118.734 252.142 119.071L249.982 118.764C250.152 118.168 250.434 117.669 250.826 117.268C251.218 116.864 251.697 116.561 252.264 116.361C252.831 116.156 253.457 116.054 254.143 116.054C254.616 116.054 255.087 116.109 255.556 116.22C256.025 116.331 256.453 116.514 256.841 116.77C257.228 117.021 257.539 117.364 257.774 117.799C258.012 118.234 258.132 118.777 258.132 119.429V126H255.907V124.651H255.831C255.69 124.924 255.492 125.18 255.236 125.418C254.985 125.653 254.667 125.842 254.284 125.987C253.904 126.128 253.459 126.198 252.948 126.198ZM253.549 124.498C254.013 124.498 254.416 124.406 254.757 124.223C255.098 124.036 255.36 123.788 255.543 123.482C255.73 123.175 255.824 122.84 255.824 122.478V121.321C255.752 121.381 255.628 121.436 255.453 121.487C255.283 121.538 255.091 121.583 254.878 121.621C254.665 121.66 254.454 121.694 254.245 121.724C254.037 121.754 253.855 121.779 253.702 121.8C253.357 121.847 253.048 121.924 252.775 122.031C252.502 122.137 252.287 122.286 252.13 122.478C251.972 122.665 251.893 122.908 251.893 123.207C251.893 123.633 252.049 123.955 252.36 124.172C252.671 124.389 253.067 124.498 253.549 124.498ZM267.202 120.132V122.031H261.973V120.132H267.202ZM262.689 116.182V126H260.458V116.182H262.689ZM268.717 116.182V126H266.493V116.182H268.717ZM52.8169 148V138.182H56.9397C58.1031 138.182 59.0214 138.414 59.6947 138.879C60.3722 139.343 60.711 139.991 60.711 140.822C60.711 141.371 60.5193 141.821 60.1357 142.17C59.7565 142.516 59.2387 142.748 58.5825 142.867C59.0981 142.91 59.5498 143.04 59.9376 143.257C60.3296 143.474 60.6365 143.76 60.858 144.114C61.0796 144.467 61.1904 144.874 61.1904 145.335C61.1904 145.876 61.0477 146.347 60.7622 146.747C60.4809 147.143 60.0697 147.452 59.5285 147.674C58.9916 147.891 58.3396 148 57.5725 148H52.8169ZM54.9838 146.178H57.5725C57.9987 146.178 58.3332 146.078 58.5761 145.878C58.819 145.673 58.9404 145.396 58.9404 145.047C58.9404 144.642 58.819 144.325 58.5761 144.094C58.3332 143.86 57.9987 143.743 57.5725 143.743H54.9838V146.178ZM54.9838 142.247H56.9845C57.2998 142.247 57.5704 142.202 57.7963 142.113C58.0221 142.019 58.1947 141.889 58.314 141.723C58.4333 141.553 58.493 141.35 58.493 141.116C58.493 140.779 58.3545 140.515 58.0775 140.323C57.8048 140.131 57.4255 140.036 56.9397 140.036H54.9838V142.247ZM74.0592 138.182V140.08H69.8277V148H67.5649V138.182H74.0592ZM79.7929 148.192C78.8341 148.192 78.0031 147.981 77.3 147.559C76.5969 147.137 76.0514 146.547 75.6636 145.788C75.2801 145.03 75.0883 144.143 75.0883 143.129C75.0883 142.115 75.2801 141.227 75.6636 140.464C76.0514 139.701 76.5969 139.109 77.3 138.687C78.0031 138.265 78.8341 138.054 79.7929 138.054C80.7517 138.054 81.5827 138.265 82.2858 138.687C82.9889 139.109 83.5322 139.701 83.9157 140.464C84.3035 141.227 84.4974 142.115 84.4974 143.129C84.4974 144.143 84.3035 145.03 83.9157 145.788C83.5322 146.547 82.9889 147.137 82.2858 147.559C81.5827 147.981 80.7517 148.192 79.7929 148.192ZM79.8057 146.338C80.3256 146.338 80.7602 146.195 81.1096 145.91C81.4591 145.62 81.719 145.232 81.8895 144.746C82.0642 144.261 82.1515 143.719 82.1515 143.123C82.1515 142.522 82.0642 141.979 81.8895 141.493C81.719 141.003 81.4591 140.613 81.1096 140.323C80.7602 140.033 80.3256 139.888 79.8057 139.888C79.273 139.888 78.8298 140.033 78.4761 140.323C78.1267 140.613 77.8646 141.003 77.6899 141.493C77.5194 141.979 77.4342 142.522 77.4342 143.123C77.4342 143.719 77.5194 144.261 77.6899 144.746C77.8646 145.232 78.1267 145.62 78.4761 145.91C78.8298 146.195 79.273 146.338 79.8057 146.338ZM86.4614 151.682V138.182H88.7369V139.805H88.8712C88.9905 139.567 89.1588 139.313 89.3762 139.045C89.5935 138.772 89.8875 138.54 90.2583 138.348C90.629 138.152 91.102 138.054 91.6773 138.054C92.4358 138.054 93.1198 138.248 93.7291 138.636C94.3428 139.019 94.8286 139.588 95.1865 140.342C95.5487 141.092 95.7298 142.013 95.7298 143.104C95.7298 144.182 95.553 145.098 95.1993 145.852C94.8456 146.607 94.3641 147.182 93.7547 147.578C93.1453 147.974 92.455 148.173 91.6837 148.173C91.1212 148.173 90.6546 148.079 90.2838 147.891C89.9131 147.704 89.6148 147.478 89.3889 147.214C89.1673 146.945 88.9948 146.692 88.8712 146.453H88.7753V151.682H86.4614ZM88.7306 143.091C88.7306 143.726 88.82 144.282 88.999 144.759C89.1823 145.237 89.4443 145.609 89.7852 145.878C90.1304 146.142 90.548 146.274 91.0381 146.274C91.5494 146.274 91.9777 146.138 92.3229 145.865C92.6681 145.588 92.928 145.211 93.1027 144.734C93.2817 144.252 93.3712 143.705 93.3712 143.091C93.3712 142.482 93.2838 141.94 93.1091 141.467C92.9344 140.994 92.6744 140.624 92.3293 140.355C91.9841 140.087 91.5537 139.952 91.0381 139.952C90.5438 139.952 90.124 140.082 89.7789 140.342C89.4337 140.602 89.1716 140.967 88.9926 141.435C88.8179 141.904 88.7306 142.456 88.7306 143.091ZM99.9422 144.868L103.873 138.182H106.251V148H104.014V141.308L100.096 148H97.7114V138.182H99.9422V144.868ZM108.084 145.309H110.379C110.4 145.675 110.564 145.959 110.871 146.159C111.178 146.359 111.576 146.46 112.066 146.46C112.565 146.46 112.985 146.351 113.326 146.134C113.671 145.912 113.843 145.577 113.843 145.13C113.843 144.866 113.777 144.634 113.645 144.433C113.513 144.229 113.328 144.071 113.089 143.96C112.85 143.849 112.569 143.794 112.245 143.794H110.743V142.151H112.245C112.727 142.151 113.091 142.04 113.338 141.819C113.59 141.597 113.715 141.318 113.715 140.982C113.715 140.619 113.583 140.325 113.319 140.099C113.059 139.874 112.699 139.761 112.239 139.761C111.779 139.761 111.395 139.865 111.088 140.074C110.786 140.283 110.628 140.551 110.615 140.879H108.333C108.342 140.308 108.512 139.812 108.845 139.39C109.181 138.968 109.633 138.64 110.2 138.406C110.771 138.171 111.414 138.054 112.13 138.054C112.897 138.054 113.56 138.169 114.118 138.399C114.676 138.629 115.107 138.951 115.409 139.364C115.712 139.773 115.863 140.255 115.863 140.809C115.863 141.342 115.697 141.783 115.365 142.132C115.032 142.477 114.585 142.724 114.022 142.874V142.976C114.41 142.997 114.759 143.108 115.071 143.308C115.382 143.504 115.629 143.771 115.812 144.107C115.995 144.444 116.087 144.834 116.087 145.277C116.087 145.878 115.914 146.398 115.569 146.837C115.224 147.271 114.749 147.606 114.144 147.84C113.543 148.075 112.855 148.192 112.079 148.192C111.325 148.192 110.649 148.079 110.053 147.853C109.46 147.623 108.99 147.293 108.64 146.862C108.291 146.432 108.105 145.914 108.084 145.309ZM122.191 148.192C121.233 148.192 120.402 147.981 119.698 147.559C118.995 147.137 118.45 146.547 118.062 145.788C117.679 145.03 117.487 144.143 117.487 143.129C117.487 142.115 117.679 141.227 118.062 140.464C118.45 139.701 118.995 139.109 119.698 138.687C120.402 138.265 121.233 138.054 122.191 138.054C123.15 138.054 123.981 138.265 124.684 138.687C125.387 139.109 125.931 139.701 126.314 140.464C126.702 141.227 126.896 142.115 126.896 143.129C126.896 144.143 126.702 145.03 126.314 145.788C125.931 146.547 125.387 147.137 124.684 147.559C123.981 147.981 123.15 148.192 122.191 148.192ZM122.204 146.338C122.724 146.338 123.159 146.195 123.508 145.91C123.858 145.62 124.117 145.232 124.288 144.746C124.463 144.261 124.55 143.719 124.55 143.123C124.55 142.522 124.463 141.979 124.288 141.493C124.117 141.003 123.858 140.613 123.508 140.323C123.159 140.033 122.724 139.888 122.204 139.888C121.671 139.888 121.228 140.033 120.875 140.323C120.525 140.613 120.263 141.003 120.088 141.493C119.918 141.979 119.833 142.522 119.833 143.123C119.833 143.719 119.918 144.261 120.088 144.746C120.263 145.232 120.525 145.62 120.875 145.91C121.228 146.195 121.671 146.338 122.204 146.338ZM135.603 142.132V144.031H130.375V142.132H135.603ZM131.091 138.182V148H128.86V138.182H131.091ZM137.118 138.182V148H134.894V138.182H137.118ZM138.36 140.08V138.182H146.951V140.08H143.774V148H141.537V140.08H138.36ZM151.214 148.198C150.592 148.198 150.032 148.087 149.533 147.866C149.039 147.64 148.647 147.308 148.357 146.869C148.072 146.43 147.929 145.888 147.929 145.245C147.929 144.691 148.031 144.233 148.236 143.871C148.44 143.509 148.719 143.219 149.073 143.001C149.427 142.784 149.825 142.62 150.268 142.509C150.716 142.394 151.178 142.311 151.655 142.26C152.231 142.2 152.697 142.147 153.055 142.1C153.413 142.049 153.673 141.972 153.835 141.87C154.001 141.763 154.084 141.599 154.084 141.378V141.339C154.084 140.858 153.942 140.485 153.656 140.221C153.371 139.957 152.959 139.825 152.422 139.825C151.856 139.825 151.406 139.948 151.074 140.195C150.746 140.442 150.524 140.734 150.409 141.071L148.248 140.764C148.419 140.168 148.7 139.669 149.092 139.268C149.484 138.864 149.964 138.561 150.53 138.361C151.097 138.156 151.724 138.054 152.41 138.054C152.883 138.054 153.354 138.109 153.822 138.22C154.291 138.331 154.719 138.514 155.107 138.77C155.495 139.021 155.806 139.364 156.04 139.799C156.279 140.234 156.398 140.777 156.398 141.429V148H154.174V146.651H154.097C153.957 146.924 153.758 147.18 153.503 147.418C153.251 147.653 152.934 147.842 152.55 147.987C152.171 148.128 151.726 148.198 151.214 148.198ZM151.815 146.498C152.28 146.498 152.682 146.406 153.023 146.223C153.364 146.036 153.626 145.788 153.81 145.482C153.997 145.175 154.091 144.84 154.091 144.478V143.321C154.018 143.381 153.895 143.436 153.72 143.487C153.55 143.538 153.358 143.583 153.145 143.621C152.932 143.66 152.721 143.694 152.512 143.724C152.303 143.754 152.122 143.779 151.969 143.8C151.623 143.847 151.315 143.924 151.042 144.031C150.769 144.137 150.554 144.286 150.396 144.478C150.239 144.665 150.16 144.908 150.16 145.207C150.16 145.633 150.315 145.955 150.626 146.172C150.937 146.389 151.334 146.498 151.815 146.498ZM158.047 148L158.035 146.095H158.373C158.629 146.095 158.844 146.038 159.019 145.923C159.194 145.808 159.339 145.616 159.454 145.347C159.569 145.075 159.658 144.708 159.722 144.248C159.786 143.788 159.831 143.214 159.856 142.528L160.029 138.182H167.188V148H164.951V140.08H162.132L161.979 143.244C161.94 144.062 161.849 144.772 161.704 145.373C161.563 145.969 161.363 146.462 161.103 146.849C160.847 147.237 160.525 147.527 160.138 147.719C159.75 147.906 159.292 148 158.763 148H158.047ZM171.084 141.378H173.98C175.233 141.378 176.202 141.683 176.888 142.292C177.574 142.901 177.919 143.7 177.924 144.689C177.919 145.332 177.762 145.903 177.451 146.402C177.144 146.901 176.696 147.293 176.108 147.578C175.524 147.859 174.815 148 173.98 148H169.518V138.182H171.749V146.102H173.98C174.483 146.102 174.896 145.974 175.22 145.718C175.544 145.458 175.706 145.126 175.706 144.721C175.706 144.295 175.544 143.947 175.22 143.679C174.896 143.411 174.483 143.276 173.98 143.276H171.084V141.378ZM186.65 142.132V144.031H181.422V142.132H186.65ZM182.138 138.182V148H179.907V138.182H182.138ZM188.165 138.182V148H185.941V138.182H188.165ZM194.789 148.192C193.83 148.192 192.999 147.981 192.296 147.559C191.593 147.137 191.047 146.547 190.66 145.788C190.276 145.03 190.084 144.143 190.084 143.129C190.084 142.115 190.276 141.227 190.66 140.464C191.047 139.701 191.593 139.109 192.296 138.687C192.999 138.265 193.83 138.054 194.789 138.054C195.748 138.054 196.579 138.265 197.282 138.687C197.985 139.109 198.528 139.701 198.912 140.464C199.3 141.227 199.494 142.115 199.494 143.129C199.494 144.143 199.3 145.03 198.912 145.788C198.528 146.547 197.985 147.137 197.282 147.559C196.579 147.981 195.748 148.192 194.789 148.192ZM194.802 146.338C195.322 146.338 195.756 146.195 196.106 145.91C196.455 145.62 196.715 145.232 196.886 144.746C197.06 144.261 197.148 143.719 197.148 143.123C197.148 142.522 197.06 141.979 196.886 141.493C196.715 141.003 196.455 140.613 196.106 140.323C195.756 140.033 195.322 139.888 194.802 139.888C194.269 139.888 193.826 140.033 193.472 140.323C193.123 140.613 192.861 141.003 192.686 141.493C192.516 141.979 192.43 142.522 192.43 143.123C192.43 143.719 192.516 144.261 192.686 144.746C192.861 145.232 193.123 145.62 193.472 145.91C193.826 146.195 194.269 146.338 194.802 146.338ZM205.804 148.192C204.82 148.192 203.97 147.987 203.254 147.578C202.542 147.165 201.994 146.581 201.611 145.827C201.227 145.068 201.036 144.175 201.036 143.148C201.036 142.138 201.227 141.252 201.611 140.489C201.999 139.722 202.54 139.126 203.234 138.7C203.929 138.269 204.745 138.054 205.683 138.054C206.288 138.054 206.859 138.152 207.396 138.348C207.937 138.54 208.414 138.838 208.828 139.243C209.245 139.648 209.573 140.163 209.812 140.79C210.051 141.412 210.17 142.153 210.17 143.014V143.724H202.122V142.164H207.952C207.948 141.721 207.852 141.327 207.664 140.982C207.477 140.632 207.215 140.357 206.878 140.157C206.546 139.957 206.158 139.857 205.715 139.857C205.242 139.857 204.826 139.972 204.468 140.202C204.11 140.428 203.831 140.726 203.631 141.097C203.435 141.463 203.335 141.866 203.33 142.305V143.666C203.33 144.237 203.435 144.727 203.644 145.136C203.852 145.541 204.144 145.852 204.519 146.07C204.894 146.283 205.333 146.389 205.836 146.389C206.173 146.389 206.477 146.342 206.75 146.249C207.023 146.151 207.259 146.008 207.46 145.82C207.66 145.633 207.811 145.401 207.913 145.124L210.074 145.366C209.938 145.937 209.678 146.436 209.294 146.862C208.915 147.284 208.429 147.612 207.837 147.847C207.244 148.077 206.567 148.192 205.804 148.192ZM216.592 148V138.182H224.883V148H222.652V140.08H218.804V148H216.592ZM231.545 148.192C230.586 148.192 229.755 147.981 229.052 147.559C228.349 147.137 227.803 146.547 227.416 145.788C227.032 145.03 226.84 144.143 226.84 143.129C226.84 142.115 227.032 141.227 227.416 140.464C227.803 139.701 228.349 139.109 229.052 138.687C229.755 138.265 230.586 138.054 231.545 138.054C232.504 138.054 233.335 138.265 234.038 138.687C234.741 139.109 235.284 139.701 235.668 140.464C236.055 141.227 236.249 142.115 236.249 143.129C236.249 144.143 236.055 145.03 235.668 145.788C235.284 146.547 234.741 147.137 234.038 147.559C233.335 147.981 232.504 148.192 231.545 148.192ZM231.558 146.338C232.078 146.338 232.512 146.195 232.862 145.91C233.211 145.62 233.471 145.232 233.641 144.746C233.816 144.261 233.903 143.719 233.903 143.123C233.903 142.522 233.816 141.979 233.641 141.493C233.471 141.003 233.211 140.613 232.862 140.323C232.512 140.033 232.078 139.888 231.558 139.888C231.025 139.888 230.582 140.033 230.228 140.323C229.879 140.613 229.617 141.003 229.442 141.493C229.271 141.979 229.186 142.522 229.186 143.123C229.186 143.719 229.271 144.261 229.442 144.746C229.617 145.232 229.879 145.62 230.228 145.91C230.582 146.195 231.025 146.338 231.558 146.338ZM237.536 148L237.523 146.095H237.862C238.117 146.095 238.333 146.038 238.507 145.923C238.682 145.808 238.827 145.616 238.942 145.347C239.057 145.075 239.147 144.708 239.21 144.248C239.274 143.788 239.319 143.214 239.345 142.528L239.517 138.182H246.676V148H244.439V140.08H241.62L241.467 143.244C241.429 144.062 241.337 144.772 241.192 145.373C241.051 145.969 240.851 146.462 240.591 146.849C240.335 147.237 240.014 147.527 239.626 147.719C239.238 147.906 238.78 148 238.252 148H237.536ZM253.289 148.192C252.33 148.192 251.499 147.981 250.796 147.559C250.093 147.137 249.547 146.547 249.16 145.788C248.776 145.03 248.584 144.143 248.584 143.129C248.584 142.115 248.776 141.227 249.16 140.464C249.547 139.701 250.093 139.109 250.796 138.687C251.499 138.265 252.33 138.054 253.289 138.054C254.248 138.054 255.079 138.265 255.782 138.687C256.485 139.109 257.028 139.701 257.412 140.464C257.8 141.227 257.994 142.115 257.994 143.129C257.994 144.143 257.8 145.03 257.412 145.788C257.028 146.547 256.485 147.137 255.782 147.559C255.079 147.981 254.248 148.192 253.289 148.192ZM253.302 146.338C253.822 146.338 254.256 146.195 254.606 145.91C254.955 145.62 255.215 145.232 255.386 144.746C255.56 144.261 255.648 143.719 255.648 143.123C255.648 142.522 255.56 141.979 255.386 141.493C255.215 141.003 254.955 140.613 254.606 140.323C254.256 140.033 253.822 139.888 253.302 139.888C252.769 139.888 252.326 140.033 251.972 140.323C251.623 140.613 251.361 141.003 251.186 141.493C251.016 141.979 250.93 142.522 250.93 143.123C250.93 143.719 251.016 144.261 251.186 144.746C251.361 145.232 251.623 145.62 251.972 145.91C252.326 146.195 252.769 146.338 253.302 146.338ZM258.949 148L262.573 142.931L258.981 138.182H261.653L264.446 142.138H264.996V138.182H267.31V142.138H267.847L270.64 138.182H273.312L269.739 142.931L273.344 148H270.615L267.821 144.037H267.31V148H264.996V144.037H264.485L261.679 148H258.949ZM279.052 148.192C278.068 148.192 277.218 147.987 276.502 147.578C275.79 147.165 275.242 146.581 274.859 145.827C274.475 145.068 274.284 144.175 274.284 143.148C274.284 142.138 274.475 141.252 274.859 140.489C275.247 139.722 275.788 139.126 276.483 138.7C277.177 138.269 277.993 138.054 278.931 138.054C279.536 138.054 280.107 138.152 280.644 138.348C281.185 138.54 281.662 138.838 282.076 139.243C282.493 139.648 282.821 140.163 283.06 140.79C283.299 141.412 283.418 142.153 283.418 143.014V143.724H275.37V142.164H281.2C281.196 141.721 281.1 141.327 280.912 140.982C280.725 140.632 280.463 140.357 280.126 140.157C279.794 139.957 279.406 139.857 278.963 139.857C278.49 139.857 278.074 139.972 277.716 140.202C277.358 140.428 277.079 140.726 276.879 141.097C276.683 141.463 276.583 141.866 276.578 142.305V143.666C276.578 144.237 276.683 144.727 276.892 145.136C277.1 145.541 277.392 145.852 277.767 146.07C278.142 146.283 278.581 146.389 279.084 146.389C279.421 146.389 279.725 146.342 279.998 146.249C280.271 146.151 280.507 146.008 280.708 145.82C280.908 145.633 281.059 145.401 281.161 145.124L283.322 145.366C283.186 145.937 282.926 146.436 282.542 146.862C282.163 147.284 281.677 147.612 281.085 147.847C280.492 148.077 279.815 148.192 279.052 148.192ZM292.119 142.132V144.031H286.89V142.132H292.119ZM287.606 138.182V148H285.375V138.182H287.606ZM293.634 138.182V148H291.41V138.182H293.634ZM298.206 144.868L302.137 138.182H304.515V148H302.278V141.308L298.359 148H295.975V138.182H298.206V144.868ZM311.238 148.192C310.253 148.192 309.403 147.987 308.687 147.578C307.976 147.165 307.428 146.581 307.044 145.827C306.661 145.068 306.469 144.175 306.469 143.148C306.469 142.138 306.661 141.252 307.044 140.489C307.432 139.722 307.973 139.126 308.668 138.7C309.363 138.269 310.179 138.054 311.116 138.054C311.721 138.054 312.292 138.152 312.829 138.348C313.37 138.54 313.848 138.838 314.261 139.243C314.679 139.648 315.007 140.163 315.245 140.79C315.484 141.412 315.603 142.153 315.603 143.014V143.724H307.556V142.164H313.385C313.381 141.721 313.285 141.327 313.098 140.982C312.91 140.632 312.648 140.357 312.312 140.157C311.979 139.957 311.591 139.857 311.148 139.857C310.675 139.857 310.26 139.972 309.902 140.202C309.544 140.428 309.265 140.726 309.064 141.097C308.868 141.463 308.768 141.866 308.764 142.305V143.666C308.764 144.237 308.868 144.727 309.077 145.136C309.286 145.541 309.578 145.852 309.953 146.07C310.328 146.283 310.767 146.389 311.27 146.389C311.606 146.389 311.911 146.342 312.184 146.249C312.456 146.151 312.693 146.008 312.893 145.82C313.093 145.633 313.245 145.401 313.347 145.124L315.508 145.366C315.371 145.937 315.111 146.436 314.728 146.862C314.348 147.284 313.863 147.612 313.27 147.847C312.678 148.077 312 148.192 311.238 148.192Z" fill="#183B59"/>
</g>
<defs>
<filter id="filter0_d_4_19935" x="0" y="0" width="368" height="616" filterUnits="userSpaceOnUse" color-interpolation-filters="sRGB">
<feFlood flood-opacity="0" result="BackgroundImageFix"/>
<feColorMatrix in="SourceAlpha" type="matrix" values="0 0 0 0 0 0 0 0 0 0 0 0 0 0 0 0 0 0 127 0" result="hardAlpha"/>
<feOffset dy="16"/>
<feGaussianBlur stdDeviation="12"/>
<feColorMatrix type="matrix" values="0 0 0 0 0.0470588 0 0 0 0 0.431373 0 0 0 0 0.839216 0 0 0 0.12 0"/>
<feBlend mode="normal" in2="BackgroundImageFix" result="effect1_dropShadow_4_19935"/>
<feBlend mode="normal" in="SourceGraphic" in2="effect1_dropShadow_4_19935" result="shape"/>
</filter>
<clipPath id="clip0_4_19935">
<rect width="200" height="200" fill="white" transform="matrix(-1 0 0 1 284 192)"/>
</clipPath>
</defs>
</svg>