<svg width="448" height="264" viewBox="0 0 448 264" fill="none" xmlns="http://www.w3.org/2000/svg">
<path d="M389.07 86.25C389.3 86.8 389.58 87.3901 389.88 88.0401C390.49 89.2901 391.18 90.59 391.95 91.8301C391.97 91.8601 391.99 91.9001 392.02 91.93H416.94C418.02 90.3801 418.97 88.95 419.78 87.92C420.44 87.02 420.96 86.42 421.45 86.07C421.69 85.9 421.9 85.79 422.05 85.71C422.2 85.64 422.28 85.6 422.28 85.6C422.28 85.6 422.21 85.54 422.06 85.46C421.91 85.38 421.67 85.2601 421.34 85.1501C420.68 84.9201 419.62 84.8001 418.45 84.9001C417.94 84.9401 417.39 85 416.83 85.1101C417.04 84.8901 417.25 84.7001 417.45 84.5C417.65 84.3 417.85 84.1101 418.05 83.93C419.01 83.0401 419.79 82.38 420.44 81.99C421.1 81.6 421.67 81.43 422.13 81.39C422.36 81.37 422.54 81.37 422.67 81.38C422.8 81.38 422.87 81.39 422.87 81.39C422.87 81.39 422.8 81.3401 422.67 81.2601C422.54 81.1701 422.33 81.05 422.05 80.89C421.49 80.57 420.62 80.12 419.52 79.78C418.55 79.47 417.47 79.3201 416.32 79.3301C416.85 78.8601 417.3 78.4601 417.73 78.18C417.87 78.07 418 77.9801 418.14 77.9001C418.27 77.8201 418.4 77.73 418.5 77.68C418.6 77.65 418.7 77.62 418.78 77.59C418.82 77.58 418.86 77.5601 418.89 77.5501C418.93 77.5401 418.97 77.53 419.01 77.52C419.16 77.48 419.26 77.44 419.34 77.42C419.42 77.4 419.46 77.39 419.46 77.39C419.46 77.39 419.22 77.1701 418.75 76.8301C418.28 76.4901 417.62 76.0401 416.74 75.68C416.24 75.4701 415.7 75.31 415.09 75.21C414.94 75.19 414.78 75.1701 414.62 75.1501C414.46 75.1401 414.29 75.1501 414.12 75.1601C413.78 75.1801 413.42 75.21 413.07 75.28C413.16 75.22 413.26 75.18 413.35 75.13C413.54 75.02 413.73 74.9 413.91 74.78C414.09 74.67 414.26 74.5801 414.42 74.4801L414.66 74.3301L414.91 74.1901C415.08 74.1001 415.22 73.9901 415.38 73.9001C416.02 73.5201 416.63 73.1701 417.2 72.9001C417.48 72.7801 417.75 72.66 417.99 72.56C418.24 72.47 418.46 72.38 418.64 72.32C419.02 72.21 419.24 72.1201 419.24 72.1201C419.24 72.1201 419.15 71.87 418.93 71.45C418.72 71.03 418.38 70.4801 417.84 69.9001C417.56 69.6201 417.23 69.3401 416.84 69.0801C416.45 68.8301 415.99 68.6401 415.46 68.4701C414.96 68.3301 414.42 68.28 413.8 68.28C413.21 68.32 412.55 68.4101 411.9 68.6601L412.36 68.25L412.85 67.8701C413.01 67.7401 413.17 67.6101 413.33 67.4801C413.5 67.3601 413.66 67.2401 413.82 67.1201C415.29 66.0201 416.81 65.1201 418.04 64.4101C419.27 63.7001 420.38 63.0201 421.36 62.3801C421.85 62.0601 422.3 61.78 422.72 61.46C423.13 61.18 423.51 60.9 423.83 60.62C424.16 60.33 424.44 60.11 424.68 59.87C424.92 59.64 425.12 59.4301 425.27 59.2401C425.58 58.8801 425.72 58.64 425.72 58.64C425.72 58.64 425.21 58.4601 424.36 58.2001C423.93 58.0801 423.41 58 422.82 57.89C422.53 57.83 422.21 57.8201 421.88 57.7901C421.55 57.7701 421.21 57.73 420.86 57.73C419.44 57.72 417.86 57.92 416.32 58.39C414.79 58.88 413.31 59.6601 412.09 60.6501C411.84 60.8601 411.6 61.0901 411.35 61.3301C411.23 61.4501 411.1 61.5701 410.98 61.7001C410.86 61.8301 410.74 61.97 410.62 62.1C410.38 62.38 410.15 62.6601 409.92 62.9501C409.7 63.2501 409.48 63.5701 409.27 63.8801C408.44 65.1601 407.74 66.57 407.25 68C407.36 67.42 407.45 66.85 407.56 66.35C407.66 65.84 407.73 65.3501 407.8 64.9401C407.91 64.2401 407.95 63.59 407.96 63.01C407.97 62.43 407.93 61.91 407.85 61.43C407.69 60.47 407.36 59.6901 407.06 59.0201C406.74 58.36 406.42 57.82 406.18 57.42C405.94 57.03 405.78 56.8 405.78 56.8C405.78 56.8 405.63 56.9 405.37 57.12C405.12 57.34 404.75 57.66 404.31 58.07C403.86 58.48 403.38 59.0301 402.86 59.6501C402.59 59.9501 402.34 60.3 402.09 60.67C401.84 61.03 401.57 61.4101 401.33 61.8101C401.13 62.1401 400.94 62.4801 400.76 62.8301C400.58 63.1801 400.4 63.5301 400.24 63.9001C399.93 64.6401 399.62 65.41 399.46 66.1C399.1 66.07 398.76 66.1 398.48 66.14C398.17 66.2 397.92 66.26 397.74 66.32C397.57 66.37 397.48 66.4101 397.48 66.4101C397.48 66.4101 397.34 67.01 397.19 67.93C397.03 68.87 396.88 70.13 396.8 71.52C396.76 72.16 396.76 72.8201 396.75 73.4801C396.77 74.1401 396.78 74.81 396.84 75.46C396.05 74.32 395.24 73.4801 394.46 72.9801C393.66 72.4301 392.91 72.21 392.37 72.13C391.82 72.05 391.49 72.09 391.49 72.09C391.49 72.09 391.47 72.2601 391.44 72.5801C391.42 72.8901 391.37 73.3601 391.35 73.9001C391.31 75.0001 391.31 76.51 391.48 78.1101C391.55 78.9001 391.67 79.6901 391.81 80.5101C391.96 81.3101 392.13 82.1201 392.35 82.9101C392.03 82.8201 391.72 82.7601 391.42 82.7201C390.4 82.5901 389.54 82.7901 388.94 82.9801C388.34 83.2001 388.01 83.4001 388.01 83.4001C388.01 83.4001 388.19 83.9501 388.51 84.7901C388.64 85.2201 388.84 85.7001 389.07 86.25Z" fill="#46B755"/>
<path d="M408.5 65.1901C408.66 64.9701 408.82 64.7501 408.97 64.5401C409.13 64.3301 409.3 64.1501 409.46 63.9601C409.72 63.6801 409.98 63.3801 410.27 63.1301C410.56 62.8701 410.86 62.6201 411.16 62.3701C411.46 62.1301 411.79 61.9201 412.11 61.7001C412.27 61.6001 412.43 61.4901 412.59 61.3901C412.76 61.3001 412.92 61.2101 413.09 61.1201C414.41 60.3801 415.79 59.9401 417.03 59.6501C417.65 59.5301 418.23 59.4101 418.76 59.3801C419.29 59.3401 419.75 59.3001 420.15 59.3201C420.54 59.3301 420.85 59.3401 421.06 59.3501C421.17 59.3501 421.25 59.3601 421.3 59.3701C421.36 59.3801 421.38 59.3801 421.38 59.3801C421.38 59.3801 421.24 59.6001 420.92 59.9901C420.76 60.1801 420.57 60.4101 420.33 60.6701C420.09 60.9301 419.81 61.2201 419.51 61.5401C419.2 61.8601 418.85 62.1901 418.48 62.5701C418.29 62.7601 418.09 62.9501 417.89 63.1401C417.69 63.3401 417.48 63.5401 417.26 63.7601C416.41 64.5701 415.47 65.4701 414.43 66.4601C414.1 66.7501 413.76 67.1101 413.38 67.4401C414.98 66.2201 416.68 65.2101 418.01 64.4301C419.24 63.7201 420.35 63.0401 421.33 62.4001C421.82 62.0801 422.27 61.8001 422.69 61.4801C423.1 61.2001 423.48 60.9201 423.8 60.6401C424.13 60.3501 424.41 60.1301 424.65 59.8901C424.89 59.6601 425.09 59.4501 425.24 59.2601C425.55 58.9001 425.69 58.6601 425.69 58.6601C425.69 58.6601 425.18 58.4801 424.33 58.2201C423.9 58.1001 423.38 58.0201 422.79 57.9101C422.5 57.8501 422.18 57.8401 421.85 57.8101C421.52 57.7901 421.18 57.7501 420.83 57.7501C419.41 57.7401 417.83 57.9401 416.29 58.4101C414.76 58.9001 413.28 59.6801 412.06 60.6701C410.75 61.7801 409.46 63.3901 408.5 65.1901Z" fill="#389444"/>
<path d="M389.07 86.2501C389.3 86.8001 389.58 87.3901 389.88 88.0401C390.49 89.2901 391.18 90.5901 391.95 91.8301C391.97 91.8601 391.99 91.9001 392.02 91.9301H393.86C393.62 91.4501 393.39 90.9601 393.17 90.5101C392.89 89.9001 392.64 89.3501 392.42 88.8201C392.2 88.3001 392.01 87.8401 391.87 87.4501C391.56 86.6501 391.4 86.1701 391.4 86.1701C391.4 86.1701 391.72 86.1201 392.28 86.1701C392.84 86.2201 393.64 86.3801 394.6 86.8101C395.56 87.2301 396.66 87.9501 397.8 89.0101C398.65 89.8001 399.52 90.7801 400.33 91.9401H400.76C400 90.3901 399.19 88.9901 398.43 87.8801C397.28 86.2201 396.04 84.9601 394.81 84.1201C394.57 83.9601 394.34 83.8301 394.12 83.7001C393.99 83.0901 393.86 82.5001 393.77 81.9101C393.71 81.5501 393.66 81.2001 393.61 80.8701C393.57 80.5301 393.53 80.2001 393.5 79.8901C393.42 79.2701 393.4 78.7001 393.37 78.2201C393.34 77.7501 393.33 77.3601 393.33 77.0901C393.33 76.8201 393.33 76.6801 393.33 76.6801C393.33 76.6801 393.62 76.7501 394.1 76.9801C394.58 77.2201 395.23 77.6401 395.97 78.3201C397.45 79.6701 399.27 82.1601 400.78 85.5901C401.02 86.1401 401.27 86.7401 401.51 87.3801C400.74 84.7101 399.93 82.1001 399.18 80.1301C398.97 79.5401 398.71 79.0001 398.48 78.4801C398.43 77.8101 398.39 77.1401 398.39 76.4701C398.37 75.8101 398.39 75.1501 398.41 74.5201C398.42 73.8701 398.49 73.2501 398.53 72.6901C398.58 72.1301 398.65 71.6201 398.7 71.2001C398.75 70.7701 398.82 70.4201 398.86 70.1901C398.9 69.9501 398.93 69.8301 398.93 69.8301C398.93 69.8301 399.22 69.8401 399.66 70.0001C400.1 70.1601 400.7 70.5001 401.29 71.1601C401.59 71.4901 401.88 71.8901 402.16 72.3801C402.45 72.8701 402.72 73.4401 402.97 74.0901C403.48 75.3901 403.9 77.0001 404.19 78.8201C404.29 79.4001 404.36 80.0401 404.44 80.7001C404.36 78.0101 404.26 75.3001 404.01 73.2801C403.92 72.3601 403.74 71.5001 403.56 70.7401C403.36 69.9701 403.11 69.2901 402.83 68.7201C402.34 67.7201 401.7 67.0501 401.03 66.6501C401.07 66.5001 401.11 66.3501 401.18 66.1901C401.31 65.8301 401.45 65.4801 401.6 65.1401C401.74 64.8001 401.89 64.4801 402.04 64.1901C402.35 63.6101 402.63 63.0701 402.91 62.6601C403.45 61.8301 403.83 61.3401 403.83 61.3401C403.83 61.3401 404.03 61.5001 404.33 61.8201C404.63 62.1401 405.01 62.6201 405.4 63.2501C405.77 63.8801 406.16 64.6901 406.4 65.7101C406.52 66.2101 406.63 66.8001 406.69 67.4301C406.72 67.7501 406.74 68.0701 406.76 68.4201C406.78 68.7701 406.79 69.1401 406.79 69.5201C406.78 70.0101 406.79 70.5401 406.77 71.1101C406.81 70.8101 406.85 70.5201 406.88 70.2301C406.92 69.9401 406.98 69.6501 407.02 69.3701C407.07 69.0901 407.11 68.8001 407.16 68.5301C407.21 68.2601 407.26 67.9901 407.31 67.7301C407.36 67.4701 407.4 67.2101 407.45 66.9601C407.5 66.7201 407.55 66.4801 407.59 66.2501C407.68 65.8001 407.74 65.3501 407.8 64.9801C407.91 64.2801 407.95 63.6301 407.96 63.0501C407.97 62.4701 407.93 61.9501 407.85 61.4701C407.69 60.5101 407.36 59.7301 407.06 59.0601C406.74 58.4001 406.42 57.8601 406.18 57.4601C405.94 57.0701 405.78 56.8401 405.78 56.8401C405.78 56.8401 405.63 56.9401 405.37 57.1601C405.12 57.3801 404.75 57.7001 404.31 58.1101C403.86 58.5201 403.38 59.0701 402.86 59.6901C402.59 59.9901 402.34 60.3401 402.09 60.7101C401.84 61.0701 401.57 61.4501 401.33 61.8501C401.13 62.1801 400.94 62.5201 400.76 62.8701C400.58 63.2201 400.4 63.5701 400.25 63.9401C399.94 64.6801 399.63 65.4501 399.48 66.1401C399.12 66.1101 398.77 66.1301 398.49 66.1701C398.18 66.2301 397.93 66.2901 397.75 66.3501C397.58 66.4001 397.49 66.4401 397.49 66.4401C397.49 66.4401 397.35 67.0401 397.2 67.9601C397.04 68.9001 396.89 70.1601 396.81 71.5501C396.77 72.1901 396.77 72.8501 396.76 73.5101C396.78 74.1701 396.79 74.8401 396.85 75.4901C396.06 74.3501 395.25 73.5101 394.47 73.0101C393.67 72.4601 392.92 72.2401 392.38 72.1601C391.83 72.0801 391.5 72.1201 391.5 72.1201C391.5 72.1201 391.48 72.2901 391.45 72.6101C391.43 72.9201 391.38 73.3901 391.36 73.9301C391.32 75.0301 391.32 76.5401 391.49 78.1401C391.56 78.9301 391.69 79.7201 391.82 80.5401C391.98 81.3401 392.14 82.1601 392.37 82.9401C392.05 82.8501 391.73 82.7901 391.43 82.7501C390.41 82.6201 389.55 82.8201 388.95 83.0101C388.35 83.2301 388.02 83.4301 388.02 83.4301C388.02 83.4301 388.2 83.9801 388.52 84.8201C388.64 85.2201 388.84 85.7001 389.07 86.2501Z" fill="#389444"/>
<path d="M416.129 71.66C415.759 71.91 415.239 72.22 414.689 72.68C414.569 72.78 414.439 72.87 414.319 72.97C414.189 73.07 414.079 73.19 413.949 73.29C413.829 73.4 413.689 73.51 413.569 73.63C413.449 73.75 413.319 73.87 413.189 73.99C413.129 74.05 413.059 74.11 412.989 74.18L412.789 74.39C412.649 74.53 412.509 74.68 412.369 74.82C412.239 74.97 412.099 75.12 411.949 75.28L411.729 75.51L411.519 75.75C410.839 76.04 410.169 76.45 409.519 76.98C409.169 77.27 408.809 77.61 408.459 77.99C408.099 78.37 407.759 78.79 407.409 79.26C406.729 80.19 406.059 81.3 405.439 82.55C405.799 81.96 406.149 81.43 406.509 80.98C407.579 79.6 408.799 78.58 409.969 77.91C410.569 77.59 411.129 77.32 411.699 77.15C411.979 77.06 412.239 76.99 412.499 76.93C412.759 76.87 413.019 76.84 413.259 76.81C414.209 76.68 414.999 76.77 415.529 76.85C416.059 76.93 416.359 77.04 416.359 77.04C416.359 77.04 416.309 77.08 416.219 77.17C416.129 77.26 415.999 77.39 415.819 77.56C415.489 77.92 414.989 78.42 414.429 79.16C414.289 79.32 414.159 79.51 414.009 79.71C413.599 79.83 413.189 79.98 412.789 80.18C412.379 80.37 411.969 80.6 411.579 80.89C410.799 81.42 409.989 82.19 409.189 83.16C408.399 84.13 407.639 85.3 406.969 86.6C407.359 85.99 407.749 85.42 408.139 84.95C409.369 83.45 410.719 82.45 412.019 81.82C413.319 81.19 414.549 80.92 415.579 80.82C416.609 80.71 417.469 80.78 418.059 80.84C418.649 80.91 418.979 80.98 418.979 80.98C418.979 80.98 418.929 81.02 418.819 81.11C418.719 81.2 418.559 81.31 418.369 81.49C417.989 81.84 417.409 82.37 416.729 83.14C416.119 83.83 415.419 84.69 414.679 85.7C414.649 85.71 414.629 85.72 414.599 85.73C413.219 86.27 411.739 87.13 410.389 88.51C409.549 89.36 408.669 90.54 407.839 91.93H408.399C409.239 90.95 410.099 90.14 410.959 89.51C412.239 88.58 413.489 88.01 414.539 87.65C415.609 87.29 416.499 87.13 417.119 87.04C417.739 86.95 418.099 86.95 418.099 86.95C418.099 86.95 417.879 87.29 417.509 87.87C417.329 88.17 417.089 88.53 416.829 88.96C416.699 89.18 416.559 89.41 416.409 89.65C416.259 89.9 416.099 90.17 415.939 90.45C415.679 90.91 415.389 91.41 415.089 91.93H416.929C418.009 90.38 418.959 88.95 419.769 87.92C420.429 87.02 420.949 86.42 421.439 86.07C421.679 85.9 421.889 85.79 422.039 85.71C422.189 85.64 422.269 85.6 422.269 85.6C422.269 85.6 422.199 85.54 422.049 85.46C421.899 85.38 421.659 85.26 421.329 85.15C420.669 84.92 419.609 84.8 418.439 84.9C417.929 84.94 417.379 85 416.809 85.11C417.019 84.89 417.239 84.7 417.439 84.5C417.639 84.3 417.849 84.11 418.039 83.93C418.999 83.04 419.779 82.38 420.429 81.99C421.089 81.6 421.659 81.43 422.119 81.39C422.349 81.37 422.529 81.37 422.659 81.38C422.789 81.38 422.859 81.39 422.859 81.39C422.859 81.39 422.789 81.34 422.659 81.26C422.529 81.17 422.319 81.05 422.039 80.89C421.479 80.57 420.609 80.12 419.509 79.78C418.529 79.47 417.459 79.32 416.299 79.33C416.829 78.86 417.279 78.46 417.709 78.18C417.849 78.07 417.979 77.98 418.119 77.9C418.249 77.82 418.379 77.73 418.479 77.68C418.579 77.65 418.679 77.62 418.759 77.59C418.799 77.58 418.839 77.56 418.869 77.55C418.909 77.54 418.949 77.53 418.989 77.52C419.139 77.48 419.239 77.44 419.319 77.42C419.399 77.4 419.439 77.39 419.439 77.39C419.439 77.39 419.199 77.17 418.729 76.83C418.259 76.49 417.599 76.04 416.719 75.68C416.219 75.47 415.679 75.31 415.069 75.21C414.919 75.19 414.759 75.17 414.599 75.15C414.439 75.14 414.269 75.15 414.099 75.16C413.759 75.18 413.409 75.21 413.049 75.28C413.129 75.22 413.229 75.18 413.319 75.13C413.509 75.02 413.699 74.9 413.879 74.78C414.059 74.67 414.229 74.58 414.389 74.48L414.629 74.33L414.879 74.19C415.049 74.1 415.189 73.99 415.349 73.9C415.989 73.52 416.599 73.17 417.169 72.9C417.449 72.78 417.719 72.66 417.959 72.56C418.209 72.47 418.429 72.38 418.609 72.32C418.989 72.21 419.209 72.12 419.209 72.12C419.209 72.12 419.119 71.87 418.899 71.45C418.689 71.03 418.349 70.48 417.809 69.9C417.529 69.62 417.199 69.34 416.809 69.08C416.419 68.83 415.959 68.64 415.429 68.47C415.159 68.39 414.889 68.35 414.599 68.32C414.309 68.29 413.989 68.27 413.679 68.29C413.369 68.31 413.029 68.35 412.689 68.42C412.349 68.49 412.009 68.61 411.659 68.74C410.889 69.03 410.059 69.54 409.229 70.23C408.429 70.94 407.639 71.81 407.009 72.81C407.199 72.59 407.389 72.37 407.569 72.16C407.759 71.96 407.949 71.78 408.139 71.61C408.289 71.48 408.429 71.35 408.579 71.23C408.739 71.11 408.889 71 409.039 70.9C409.349 70.69 409.639 70.51 409.959 70.37C410.269 70.23 410.569 70.1 410.859 70C411.169 69.91 411.459 69.84 411.739 69.79C412.879 69.59 413.859 69.72 414.589 69.98C415.329 70.22 415.859 70.58 416.199 70.85C416.539 71.12 416.709 71.31 416.709 71.31C416.709 71.31 416.649 71.34 416.549 71.4C416.469 71.46 416.309 71.53 416.129 71.66Z" fill="#389444"/>
<path d="M73.49 75.02C73.15 74.7 72.63 74.24 71.9 73.67C70.45 72.54 68.11 70.98 65.1 69.73C62.47 68.63 59.39 67.78 56.26 67.36C57.01 66.81 57.8 66.32 58.51 65.83C58.86 65.59 59.21 65.35 59.55 65.11C59.9 64.89 60.24 64.67 60.57 64.46C61.47 63.86 62.29 63.32 63.06 62.87C63.82 62.42 64.44 61.99 65.01 61.67C66.13 61.05 66.74 60.63 66.74 60.63C66.74 60.63 66 60.07 64.62 59.21C63.24 58.39 61.2 57.28 58.57 56.41C57.1 55.9 55.48 55.51 53.72 55.27C51.96 55.03 50.01 54.93 48.06 55.09C48.31 54.98 48.58 54.86 48.82 54.75C53.07 52.67 56.57 49.8 59.73 47.58C60.49 47.02 61.23 46.52 61.91 46.06C62.59 45.61 63.15 45.16 63.68 44.86C64.71 44.21 65.31 43.77 65.31 43.77C65.31 43.77 64.87 43.14 63.97 42.15C63.08 41.14 61.72 39.88 59.83 38.63C58.88 38.04 57.81 37.49 56.59 36.98C55.37 36.49 54.07 36.19 52.62 35.94C49.89 35.58 46.75 35.82 43.6 37.08C44.24 36.36 44.92 35.66 45.59 34.96C46.26 34.26 46.88 33.52 47.54 32.82C50.41 29.61 53.19 26.54 55.06 23.72C56.04 22.36 56.86 20.94 57.57 19.51C58.3 18.12 58.91 16.71 59.41 15.31C60.46 12.6 61.07 9.87 61.43 7.64C61.78 5.37 61.86 3.45 61.81 2.1C61.77 0.77 61.65 0 61.65 0C61.65 0 60.61 0.32 58.92 0.96C57.23 1.57 54.94 2.62 52.4 3.94C47.33 6.66 41.59 10.92 38.05 16.53C35.15 21.17 32.85 28.1 31.42 34.72C31.48 33.33 31.49 32.01 31.46 30.76C31.45 29.53 31.41 28.39 31.31 27.35C30.95 23.87 30.12 21.05 29.02 18.67C27.91 16.29 26.54 14.36 25.28 12.69C24 11.04 22.8 9.68 21.93 8.7C21.06 7.72 20.49 7.15 20.49 7.15C20.49 7.15 19.57 8.16 18.22 10.01C17.53 10.92 16.78 12.09 16 13.43C15.22 14.77 14.39 16.27 13.68 17.96C13.09 19.31 12.52 20.72 12.06 22.2C11.6 23.69 11.21 25.22 10.89 26.74C9.95 26.49 9.08 26.37 8.37 26.31C6.8 26.25 5.85 26.4 5.85 26.4C5.85 26.4 5.59 27.69 5.3 29.69C5.13 30.71 5 31.94 4.83 33.29C4.68 34.64 4.47 36.09 4.35 37.68C4.24 39.12 4.12 40.63 4 42.18C3.92 43.73 3.89 45.31 3.87 46.87C2.65 44.84 1.33 43.09 0 41.66V92.27H56.15C56.22 92.23 56.28 92.18 56.35 92.14C59.1 90.28 61.67 88.75 63.75 87.55C65.78 86.39 67.3 85.68 68.72 85.38C69.4 85.22 69.99 85.16 70.41 85.12C70.84 85.09 71.07 85.08 71.07 85.08C71.07 85.08 70.87 84.95 70.48 84.7C70.08 84.47 69.46 84.1 68.57 83.7C66.81 82.88 63.91 81.97 60.66 81.47C59.25 81.24 57.71 81.04 56.14 80.93C57.37 80.38 58.58 79.83 59.77 79.3C62.64 78.1 64.87 77.1 66.81 76.47C68.71 75.8 70.46 75.52 71.78 75.46C72.43 75.42 73.02 75.45 73.4 75.48C73.79 75.49 74 75.5 74 75.5C74 75.5 73.82 75.33 73.49 75.02Z" fill="#46B755"/>
<path d="M33.1699 27.99C33.4299 27.46 33.6799 26.94 33.9199 26.43C34.1899 25.94 34.4599 25.47 34.7099 25.01C38.0099 19.3 43.1499 14.87 47.5399 11.94C48.6499 11.22 49.6899 10.57 50.6299 10.01C51.5899 9.47 52.4599 9.03 53.1799 8.67C53.9099 8.32 54.4799 8.03 54.8799 7.84C55.2799 7.66 55.5099 7.57 55.5099 7.57C55.5099 7.57 55.5499 8.29 55.4799 9.61C55.4099 10.92 55.2199 12.78 54.7599 14.97C53.9099 19.43 52.0299 25.26 48.5699 30.91C48.0399 31.83 47.3599 32.74 46.6899 33.73C49.8899 30.23 52.9699 26.8 55.0299 23.74C56.0099 22.38 56.8299 20.96 57.5399 19.53C58.2699 18.14 58.8799 16.73 59.3799 15.33C60.4299 12.62 61.0399 9.89 61.3999 7.66C61.7499 5.39 61.8299 3.47 61.7799 2.12C61.7699 0.77 61.6499 0 61.6499 0C61.6499 0 60.6099 0.32 58.9199 0.96C57.2299 1.57 54.9399 2.62 52.3999 3.94C47.3299 6.66 41.5899 10.92 38.0499 16.53C37.1099 18.08 36.1999 19.86 35.3699 21.79C34.5999 23.77 33.7899 25.8 33.1699 27.99Z" fill="#389444"/>
<path d="M0 72V78.93C0.66 79.59 1.32 80.29 1.99 81.04C3.44 82.64 4.86 84.44 6.26 86.43C7.58 88.23 8.77 90.18 10 92.26H10.7C8.5 87.06 6.28 82.14 4.13 78.32C2.8 75.99 1.44 73.88 0 72Z" fill="#389444"/>
<path d="M31.46 30.4299C31.45 29.3299 31.4 28.2999 31.32 27.3599C30.96 23.8799 30.13 21.0599 29.03 18.6799C27.92 16.2999 26.55 14.3699 25.29 12.6999C24.01 11.0499 22.81 9.68991 21.94 8.70991C21.07 7.72991 20.5 7.15991 20.5 7.15991C20.5 7.15991 19.58 8.17991 18.23 10.0199C17.54 10.9299 16.79 12.0999 16.01 13.4399C15.23 14.7799 14.4 16.2799 13.69 17.9699C13.1 19.3199 12.53 20.7299 12.08 22.2199C11.63 23.7099 11.24 25.2399 10.93 26.7699C9.98 26.5199 9.1 26.3899 8.38 26.3399C6.81 26.2799 5.86 26.4299 5.86 26.4299C5.86 26.4299 5.6 27.7199 5.31 29.7199C5.14 30.7399 5.01 31.9699 4.84 33.3199C4.69 34.6699 4.48 36.1199 4.36 37.7099C4.25 39.1499 4.13 40.6599 4.01 42.2099C3.93 43.7599 3.9 45.3399 3.88 46.8999C2.65 44.8399 1.33 43.0899 0 41.6599V52.3499C0.24 52.5999 0.48 52.8699 0.72 53.1399C4.42 57.2999 8.44 64.4099 11.44 73.5899C11.94 75.0599 12.38 76.6399 12.86 78.3299C11.58 71.4299 10.4 64.5799 9 59.3899C8.6 57.8399 8.06 56.3799 7.59 54.9899C7.67 53.3599 7.76 51.7199 7.89 50.1399C8.05 48.5599 8.21 47.0199 8.36 45.5599C8.53 44.0499 8.77 42.6599 8.94 41.3799C9.13 40.0999 9.3 38.9499 9.48 38.0199C9.85 36.0999 10.07 34.9699 10.07 34.9699C10.07 34.9699 10.83 35.1599 12.02 35.7799C13.21 36.4099 14.81 37.5199 16.4 39.3999C18.02 41.2699 19.55 43.8699 20.78 47.2599C21.99 50.6299 22.86 54.7199 23.14 59.2299C23.24 60.6699 23.22 62.2099 23.25 63.8499C23.92 57.4199 24.21 50.8799 23.65 45.9499C23.16 41.4099 21.95 37.5199 20.22 34.4899C18.76 31.8899 16.96 30.0299 15.1 28.7599C15.18 28.4399 15.27 28.0999 15.35 27.7899C16.11 24.7699 17.17 22.2599 17.97 20.4599C18.37 19.5599 18.74 18.8599 19 18.3899C19.27 17.9199 19.41 17.6599 19.41 17.6599C19.41 17.6599 21.75 19.4099 24.36 22.6199C25.65 24.2399 27.02 26.2399 28.19 28.8199C28.77 30.0999 29.29 31.5199 29.71 33.0699C29.92 33.8399 30.1 34.6499 30.26 35.4999C30.43 36.3599 30.58 37.2499 30.69 38.1799C30.83 39.3699 30.89 40.6499 30.93 42.0499C31.23 39.2399 31.35 36.4699 31.45 34.0099C31.49 32.7399 31.49 31.5499 31.46 30.4299Z" fill="#389444"/>
<path d="M31.5195 63.9301C32.3895 63.3901 33.2495 62.9001 34.0995 62.4601C35.8695 61.6101 37.5895 60.9401 39.2495 60.4401C40.9595 59.9601 42.5795 59.6401 44.1095 59.4401C45.6595 59.2601 47.1295 59.2101 48.4595 59.2501C51.0895 59.3001 53.2895 59.7401 54.7595 60.1101C56.2395 60.4801 57.0595 60.8101 57.0595 60.8101C57.0595 60.8101 56.4895 61.3301 55.4195 62.2101C54.4095 63.1201 52.9095 64.3801 51.1695 65.9701C50.7395 66.3301 50.3095 66.7201 49.8795 67.1301C48.7495 67.2101 47.5895 67.3501 46.4095 67.5701C45.2295 67.7901 44.0895 68.1201 42.9095 68.5401C38.3795 70.1101 32.9995 73.6101 28.4495 78.9401C29.0895 78.3401 29.7195 77.7701 30.3395 77.2301C30.9695 76.7001 31.6095 76.2201 32.2295 75.7901C39.9995 70.3101 48.2595 70.09 53.8895 70.7701C56.7695 71.1301 59.0695 71.7201 60.6795 72.1901C62.2895 72.6701 63.1695 73.0401 63.1695 73.0401C63.1695 73.0401 62.5095 73.4001 61.3495 74.0201C60.7395 74.3301 60.0595 74.7301 59.2295 75.1901C58.8095 75.4201 58.3595 75.6701 57.8895 75.9301C57.4295 76.2101 56.9395 76.5001 56.4395 76.8001C55.9695 77.0801 55.4895 77.3701 54.9895 77.6601C54.4995 77.9801 53.9895 78.3101 53.4695 78.6401C52.3795 79.3101 51.2995 80.07 50.1395 80.8801C50.0595 80.8801 49.9895 80.8901 49.9195 80.8901C47.9095 81.0501 45.8595 81.3901 43.7695 81.9801C42.7295 82.2801 41.6495 82.6301 40.5995 83.0601C39.5595 83.5 38.5195 84.0101 37.4795 84.6001C34.5695 86.2401 31.4295 88.8201 28.5695 92.2401H29.8195C29.9495 92.1201 30.0795 92.0001 30.2195 91.8901C31.1695 91.1201 32.1195 90.43 33.0695 89.8101C34.9395 88.57 36.9495 87.6301 38.8195 86.8901C40.6895 86.1601 42.5895 85.6501 44.3395 85.3001C46.0995 84.9501 47.7595 84.7501 49.2595 84.6401C52.3295 84.4401 54.8595 84.5801 56.6095 84.7201C58.3595 84.8701 59.3495 85.0501 59.3495 85.0501C59.3495 85.0501 58.6695 85.5401 57.4995 86.3901C56.9095 86.8401 56.1895 87.3901 55.3695 88.0101C54.5295 88.6501 53.6495 89.4101 52.5995 90.2501C51.8695 90.8501 51.1095 91.5301 50.3195 92.2401H56.1595C56.2295 92.2001 56.2895 92.1501 56.3595 92.1101C59.1095 90.2501 61.6795 88.7201 63.7595 87.5201C65.7895 86.3601 67.3095 85.6501 68.7295 85.3501C69.4095 85.1901 69.9995 85.1301 70.4195 85.09C70.8495 85.0601 71.0795 85.0501 71.0795 85.0501C71.0795 85.0501 70.8795 84.9201 70.4895 84.6701C70.0895 84.4401 69.4695 84.0701 68.5795 83.6701C66.8195 82.8501 63.9195 81.9401 60.6695 81.4401C59.2495 81.2101 57.6995 81.0101 56.1195 80.9001C57.3895 80.3201 58.6695 79.8 59.7795 79.2701C62.6495 78.07 64.8795 77.0701 66.8195 76.4401C68.7195 75.7701 70.4695 75.4901 71.7895 75.4301C72.4395 75.3901 73.0295 75.4201 73.4095 75.4501C73.7895 75.4901 73.9995 75.5001 73.9995 75.5001C73.9995 75.5001 73.8195 75.3301 73.4895 75.0201C73.1495 74.7001 72.6295 74.2401 71.8995 73.6701C70.4495 72.5401 68.1095 70.9801 65.0995 69.7301C62.4595 68.6301 59.3795 67.7801 56.2395 67.3601C56.9895 66.8101 57.7795 66.3201 58.4995 65.8301C58.8495 65.5901 59.1995 65.3501 59.5395 65.1101C59.8895 64.8901 60.2295 64.6701 60.5695 64.4601C61.4695 63.8601 62.2895 63.3201 63.0595 62.8701C63.8195 62.4201 64.4395 61.9901 65.0095 61.6701C66.1295 61.0501 66.7395 60.6301 66.7395 60.6301C66.7395 60.6301 65.9995 60.0701 64.6195 59.2101C63.2395 58.3901 61.1995 57.2801 58.5695 56.4101C57.1095 55.9101 55.4895 55.5101 53.7295 55.2801C51.9695 55.0401 50.0295 54.9301 48.0795 55.1001C48.3295 54.9901 48.5695 54.8701 48.8095 54.7601C53.0595 52.6801 56.5595 49.8101 59.7195 47.5901C60.4795 47.0301 61.2195 46.5301 61.8995 46.0701C62.5795 45.6201 63.1395 45.1701 63.6695 44.8701C64.6995 44.2201 65.2995 43.7801 65.2995 43.7801C65.2995 43.7801 64.8595 43.1501 63.9595 42.1601C63.0695 41.1501 61.7095 39.8901 59.8195 38.6401C58.8795 38.0501 57.7995 37.5001 56.5795 36.9901C55.3595 36.5001 54.0595 36.2001 52.6095 35.9501C51.1795 35.7701 49.5995 35.7101 48.0095 35.9301C46.4095 36.1301 44.7095 36.5301 43.0695 37.2801C39.4095 38.7701 35.1895 42.0201 31.7595 46.3001C32.7695 45.3801 33.7095 44.5001 34.6695 43.8201C37.6995 41.6501 40.8495 40.4801 43.7395 40.0101C45.1995 39.7901 46.5695 39.7201 47.8395 39.7701C49.1095 39.8301 50.2995 40.0301 51.3395 40.2901C53.4395 40.8001 55.0195 41.5301 56.0995 42.1401C57.1795 42.7501 57.7495 43.2201 57.7495 43.2201C57.7495 43.2201 57.6095 43.3401 57.3495 43.5501C57.0995 43.7701 56.7295 44.1001 56.2795 44.5101C55.8195 44.9401 55.2495 45.4101 54.6295 45.9501C54.0195 46.5101 53.3395 47.1301 52.5995 47.8101C50.0695 50.1301 47.1695 53.0001 43.8195 55.7601C41.9695 56.2401 40.0195 56.9101 38.1995 57.9001C34.1395 60.0301 29.7295 63.6001 25.5195 68.7801C26.6495 67.5701 27.8695 66.5701 28.9495 65.7101C29.7795 65.0601 30.6495 64.4601 31.5195 63.9301Z" fill="#389444"/>
<path d="M97.8205 81.8101C96.7905 82.1901 96.2305 82.4402 96.2305 82.4402C96.2305 82.4402 96.6805 82.7601 97.4605 83.2701C98.2305 83.7701 99.3205 84.5002 100.58 85.4102C103.12 87.1802 106.13 89.5401 109.58 91.8101C109.64 91.8501 109.71 91.8901 109.77 91.9301H144.37C145.01 91.3401 145.63 90.7602 146.19 90.1902C150.29 86.0802 153.42 80.9701 155.45 76.7602C156.37 74.7402 157.07 73.1702 157.78 72.1202C158.12 71.5902 158.45 71.2102 158.68 70.9402C158.92 70.6802 159.05 70.5502 159.05 70.5502C159.05 70.5502 158.89 70.4702 158.57 70.3302C158.25 70.2202 157.76 70.0501 157.11 70.0002C155.81 69.8502 153.85 70.2702 151.83 71.1602C150.94 71.5402 150.01 71.9702 149.04 72.4702C149.61 71.4402 150.12 70.4002 150.58 69.3602C151.75 66.8202 152.48 64.4202 153.12 62.4702C153.77 60.5002 154.34 58.8701 154.89 57.7301C155.16 57.1601 155.4 56.7002 155.57 56.4002C155.74 56.0902 155.84 55.9201 155.84 55.9201C155.84 55.9201 155.67 55.8901 155.36 55.8201C155.04 55.7601 154.58 55.7102 153.97 55.7402C152.76 55.7702 150.97 56.2201 149.03 57.3201C147.32 58.2801 145.57 59.6302 143.86 61.1302C144.11 59.4802 144.31 57.9001 144.41 56.4601C144.54 54.4701 144.64 52.7401 144.65 51.5001C144.67 50.2801 144.64 49.5301 144.64 49.5301C144.64 49.5301 144.07 49.7702 143.11 50.3102C142.17 50.8602 140.84 51.7402 139.4 53.0202C137.8 54.4102 136.01 56.3502 134.41 58.6102C134.47 58.4202 134.53 58.2202 134.59 58.0402C135.02 56.4002 135.2 54.7001 135.19 53.0701C135.19 51.4301 135.08 49.8202 134.91 48.3602C134.76 46.9202 134.57 45.6002 134.43 44.6802C134.27 43.7502 134.15 43.1701 134.15 43.1701C134.15 43.1701 133.67 43.3101 132.86 43.6601C132.04 44.0101 130.96 44.6201 129.75 45.5501C129.16 46.0201 128.56 46.5702 127.94 47.2002C127.34 47.8302 126.75 48.5602 126.17 49.3402C125.13 50.8502 124.23 52.6201 123.69 54.5701C123.48 53.5201 123.17 52.4901 122.84 51.5001C122.1 49.2601 121.03 47.2602 119.92 45.8802C118.76 44.5102 117.35 43.5601 115.91 42.9401C114.45 42.3301 112.96 42.0502 111.67 41.9702C110.37 41.8902 109.25 41.9802 108.45 42.1102C107.65 42.2302 107.18 42.3602 107.18 42.3602C107.18 42.3602 107.21 42.8401 107.32 43.6001C107.43 44.3601 107.61 45.4102 107.89 46.5602C108.14 47.7302 108.48 49.0001 108.99 50.2301C109.47 51.4801 110.11 52.6902 111.02 53.7702C111.76 54.6602 112.78 55.6102 113.95 56.6102C115.12 57.6202 116.37 58.7101 117.61 59.7801C116.34 59.0901 115.12 58.5902 114.05 58.3001C110.43 57.3602 107.09 58.1902 104.5 58.8802C103.2 59.2402 102.07 59.6101 101.26 59.8701C100.45 60.1502 99.9505 60.3102 99.9505 60.3102C99.9505 60.3102 100.09 60.7201 100.45 61.3701C100.81 62.0201 101.36 62.9202 102.23 63.8602C102.92 64.6202 103.78 65.4001 104.77 66.1301C104.22 66.4101 103.76 66.6901 103.38 66.9201C102.59 67.4401 102.18 67.7701 102.18 67.7701C102.18 67.7701 102.57 68.0602 103.23 68.5002C103.88 68.9701 104.75 69.6101 105.73 70.3801C106.18 70.7401 106.66 71.1102 107.14 71.5002C107.62 71.8902 108.11 72.3001 108.6 72.7101C106.54 72.4301 104.58 72.4802 102.94 72.6902C101.23 72.9002 99.8105 73.2601 98.8405 73.5601C97.8705 73.8601 97.3205 74.0701 97.3205 74.0701C97.3205 74.0701 97.6405 74.4401 98.2305 75.0301C98.8105 75.6201 99.6805 76.4402 100.66 77.4102C101.62 78.3402 102.75 79.3901 103.98 80.4701C103.37 80.5302 102.79 80.6002 102.24 80.6902C100.36 80.9902 98.8405 81.4601 97.8205 81.8101Z" fill="#46B755"/>
<path d="M115.11 57.5901C114.8 57.1601 114.5 56.7602 114.22 56.3802C113.39 55.1802 112.83 53.8801 112.36 52.6102C111.88 51.3502 111.58 50.0802 111.31 48.9502C111.04 47.8302 110.87 46.8302 110.77 46.1102C110.67 45.3902 110.62 44.9502 110.62 44.9502C110.62 44.9502 111.07 44.9102 111.8 44.9502C112.54 44.9902 113.57 45.1001 114.76 45.4101C117.14 46.0101 120.13 47.5502 122.14 50.5402C122.46 51.0102 122.76 51.5502 123.05 52.1302C122.29 49.6402 121.15 47.3802 119.92 45.8802C118.76 44.5102 117.35 43.5601 115.91 42.9401C114.45 42.3301 112.96 42.0502 111.67 41.9702C110.37 41.8902 109.25 41.9802 108.45 42.1102C107.65 42.2302 107.18 42.3602 107.18 42.3602C107.18 42.3602 107.21 42.8401 107.32 43.6001C107.43 44.3601 107.61 45.4102 107.89 46.5602C108.14 47.7302 108.48 49.0001 108.99 50.2301C109.47 51.4801 110.11 52.6902 111.02 53.7702C112 54.9402 113.5 56.2001 115.11 57.5901Z" fill="#389444"/>
<path d="M97.8205 81.8101C96.7905 82.1901 96.2305 82.4401 96.2305 82.4401C96.2305 82.4401 96.6805 82.7601 97.4605 83.2701C98.2305 83.7701 99.3205 84.5001 100.58 85.4101C103.12 87.1801 106.13 89.5401 109.58 91.8101C109.64 91.8501 109.71 91.8901 109.77 91.9301H111.95C111.5 91.4601 111.04 90.9901 110.6 90.5401C109.25 89.1901 108.03 87.9501 106.92 86.9001C105.77 85.8301 104.83 84.9701 104.16 84.3801C103.49 83.7601 103.09 83.4201 103.09 83.4201C103.09 83.4201 103.67 83.2901 104.7 83.1501C105.74 83.0201 107.24 82.9001 109.08 83.0301C110.9 83.1501 113.05 83.5101 115.28 84.3601C116.39 84.7801 117.53 85.3301 118.64 86.0101C119.73 86.7001 120.79 87.5201 121.78 88.5001C122.42 89.1201 123.06 89.8401 123.65 90.6301C122.65 88.9601 121.42 87.4301 120.18 86.1401C118.91 84.8401 117.56 83.7801 116.27 83.0001C113.92 81.5501 111.27 80.8101 108.85 80.5101C108.38 80.4501 107.93 80.4301 107.47 80.4001C107.06 79.9401 106.66 79.4801 106.29 79.0601C105.36 78.0201 104.6 77.1301 104.08 76.5001C103.55 75.8701 103.24 75.5001 103.24 75.5001C103.24 75.5001 103.78 75.3801 104.74 75.2801C105.69 75.1801 107.07 75.1001 108.72 75.2201C110.35 75.3401 112.27 75.6701 114.25 76.3901C115.24 76.7501 116.25 77.2001 117.24 77.7601C118.21 78.3301 119.17 79.0101 120.07 79.8101C120.65 80.3201 121.25 80.9101 121.82 81.5801C120.86 80.1601 119.77 78.8601 118.67 77.7501C117.55 76.6401 116.38 75.7101 115.26 75.0201C114.59 74.6101 113.92 74.2701 113.21 73.9701C112.3 72.9201 111.45 71.9201 110.65 71.0401C109.82 70.1301 109.06 69.3701 108.53 68.8301C107.99 68.2801 107.68 67.9701 107.68 67.9701C107.68 67.9701 108.14 67.7601 108.98 67.4901C109.82 67.2301 111.06 66.9201 112.59 66.8201C114.12 66.7201 115.95 66.8401 117.86 67.4501C119.77 68.0501 121.73 69.1601 123.33 70.8701C123.85 71.4101 124.36 72.0501 124.82 72.7501C124.09 71.2501 123.11 69.8801 122.1 68.7301C121.07 67.5701 119.92 66.6401 118.81 65.9901C116.81 64.7701 114.51 64.2901 112.44 64.2601C110.64 64.2401 109 64.5601 107.58 64.9901C107.48 64.9001 107.37 64.8101 107.28 64.7301C106.38 63.9101 105.67 63.1601 105.21 62.6001C104.75 62.0501 104.52 61.6901 104.52 61.6901C104.52 61.6901 106.32 61.0001 108.92 60.4201C111.5 59.8801 115.11 59.3701 118.86 60.9301C119.45 61.1801 120.07 61.5001 120.71 61.9001C118.47 60.0001 116 58.8201 114.05 58.2901C110.43 57.3501 107.09 58.1801 104.5 58.8701C103.2 59.2301 102.07 59.6001 101.26 59.8601C100.45 60.1401 99.9505 60.3001 99.9505 60.3001C99.9505 60.3001 100.09 60.7101 100.45 61.3601C100.81 62.0101 101.36 62.9101 102.23 63.8501C102.92 64.6101 103.79 65.3801 104.79 66.1101C104.24 66.3901 103.76 66.6701 103.39 66.9101C102.6 67.4301 102.19 67.7601 102.19 67.7601C102.19 67.7601 102.58 68.0501 103.24 68.4901C103.89 68.9601 104.76 69.6001 105.74 70.3701C106.19 70.7301 106.67 71.1001 107.15 71.4901C107.63 71.8801 108.12 72.2901 108.61 72.7001C106.55 72.4201 104.59 72.4701 102.95 72.6801C101.24 72.8901 99.8205 73.2501 98.8505 73.5501C97.8805 73.8501 97.3305 74.0601 97.3305 74.0601C97.3305 74.0601 97.6505 74.4301 98.2405 75.0201C98.8205 75.6101 99.6905 76.4301 100.67 77.4001C101.63 78.3301 102.77 79.3801 104 80.4601C103.39 80.5201 102.8 80.5901 102.24 80.6801C100.36 80.9901 98.8405 81.4601 97.8205 81.8101Z" fill="#389444"/>
<path d="M123.24 60.8001C123.64 58.7701 124.36 56.9101 125.24 55.2801C126.13 53.6501 127.18 52.2501 128.15 51.2101C130.11 49.0701 131.83 48.1701 131.83 48.1701C131.83 48.1701 131.94 48.6801 132.09 49.5201C132.29 50.3801 132.43 51.5501 132.62 52.9401C132.92 55.3101 133.13 58.1601 132.8 61.0701C132.11 62.2101 131.48 63.4001 130.94 64.6501C130.36 66.0101 129.76 67.5301 129.21 69.1401C128.67 70.7601 128.1 72.5001 127.55 74.3301C127.92 73.4301 128.3 72.5901 128.68 71.8201C129.82 69.4901 131.13 67.3301 132.5 65.4001C133.84 63.4801 135.24 61.8001 136.52 60.4401C137.81 59.0701 138.93 58.0601 139.76 57.3901C140.58 56.7201 141.09 56.3901 141.09 56.3901C141.09 56.3901 141.11 57.0601 141.09 58.2201C141.05 59.3801 140.96 61.0201 140.78 62.9301C140.74 63.3801 140.68 63.8501 140.61 64.3301C139.5 65.5501 138.42 66.8701 137.43 68.3301C135.5 71.1501 133.48 74.9301 131.69 78.8701C132.25 77.9201 132.77 76.9901 133.33 76.1801C135.05 73.5901 136.9 71.3701 138.8 69.4701C140.67 67.5801 142.52 66.0501 144.14 64.8601C145.77 63.6701 147.17 62.8101 148.18 62.2501C149.19 61.6901 149.79 61.4601 149.79 61.4601C149.79 61.4601 149.62 62.1901 149.32 63.4601C149 64.7201 148.55 66.5001 147.83 68.5601C147.19 70.4001 146.43 72.4301 145.44 74.5401C145.4 74.5701 145.35 74.5901 145.31 74.6201C142.99 76.1701 140.64 78.1101 138.4 80.5301C135.98 83.1701 133.33 86.8201 130.99 90.7201C131.68 89.7801 132.38 88.9001 133.04 88.1101C137.25 83.1401 142.11 79.8401 145.83 77.9401C147.68 76.9901 149.25 76.3501 150.36 75.9601C151.47 75.5601 152.11 75.4101 152.11 75.4101C152.11 75.4101 151.85 76.1401 151.32 77.3601C150.78 78.5901 149.98 80.3001 148.94 82.2501C147.87 84.2201 146.59 86.4001 145.09 88.6301C144.34 89.7201 143.56 90.8101 142.74 91.9001H144.37C145.01 91.3101 145.62 90.7301 146.19 90.1601C150.29 86.0501 153.42 80.9401 155.45 76.7301C156.37 74.7101 157.07 73.1401 157.78 72.0901C158.12 71.5601 158.45 71.1801 158.68 70.9101C158.92 70.6501 159.05 70.5201 159.05 70.5201C159.05 70.5201 158.89 70.4401 158.57 70.3001C158.25 70.1901 157.76 70.0201 157.11 69.9701C155.81 69.8201 153.85 70.2401 151.83 71.1301C150.93 71.5101 150 71.9501 149.02 72.4501C149.59 71.4201 150.12 70.3801 150.58 69.3301C151.75 66.7901 152.48 64.3901 153.12 62.4401C153.77 60.4701 154.34 58.8401 154.89 57.7001C155.16 57.1301 155.4 56.6701 155.57 56.3701C155.74 56.0601 155.84 55.8901 155.84 55.8901C155.84 55.8901 155.67 55.8601 155.36 55.7901C155.04 55.7301 154.58 55.6801 153.97 55.7101C152.76 55.7401 150.97 56.1901 149.03 57.2901C147.32 58.2501 145.56 59.6001 143.85 61.1101C144.1 59.4601 144.31 57.8701 144.41 56.4301C144.54 54.4401 144.64 52.7101 144.65 51.4701C144.67 50.2501 144.64 49.5001 144.64 49.5001C144.64 49.5001 144.07 49.7401 143.11 50.2801C142.17 50.8301 140.84 51.7101 139.4 52.9901C137.81 54.3801 136.02 56.3201 134.42 58.5701C134.48 58.3801 134.53 58.2001 134.58 58.0201C135.01 56.3801 135.19 54.6801 135.18 53.0501C135.18 51.4101 135.07 49.8001 134.9 48.3401C134.75 46.9001 134.56 45.5801 134.42 44.6601C134.26 43.7301 134.14 43.1501 134.14 43.1501C134.14 43.1501 133.66 43.2901 132.85 43.6401C132.03 43.9901 130.95 44.6001 129.74 45.5301C129.15 46.0001 128.55 46.5501 127.93 47.1801C127.33 47.8101 126.74 48.5401 126.16 49.3201C125.06 50.9101 124.11 52.7801 123.58 54.8601C123.27 55.9901 123.07 57.2801 122.98 58.6301C122.87 59.9901 122.85 61.4201 122.96 62.8501C123.05 62.1501 123.11 61.4501 123.24 60.8001Z" fill="#389444"/>
<path d="M448 153.6C448 153.6 339.66 171.86 288.28 167.57C281.93 167.04 275.39 166.33 269.82 163.32C248.01 151.53 256.04 116.37 238.39 99.1899C233.89 94.8099 228.12 92.0599 222.08 89.9299H0V264H366.5C370.98 259.37 374.96 254.29 378.18 248.71C384.51 237.76 386.98 226.57 398.33 219.02C408.08 212.53 419.7 211.86 428.85 203.71C436.77 196.66 442.1 187.03 445.48 177.4C448 170.22 448 153.6 448 153.6Z" fill="#B6D7FD"/>
<path d="M420.851 120.67C420.121 114.47 425.031 109.2 428.431 103.92C432.321 97.8199 427.681 89.9299 420.321 89.9299H143.271C133.501 89.9299 125.321 97.6699 125.601 107.19C126.271 129.69 161.951 116.99 166.531 136.15C173.111 164.05 103.681 154.28 97.8008 185.54C99.6208 209.31 133.691 208.21 150.301 205.62C181.631 200.74 214.131 207.13 242.651 220.48C267.391 232.06 295.781 236.18 322.541 230.73C341.231 226.93 359.001 218.37 373.491 205.93C379.971 200.37 385.001 191.97 392.031 187.58C401.231 181.82 413.381 182.32 423.311 178.31C437.611 172.54 454.391 160.51 445.531 143.19C439.311 133.62 422.171 131.94 420.851 120.67Z" fill="#389444"/>
</svg>
