<svg width="448" height="264" viewBox="0 0 448 264" fill="none" xmlns="http://www.w3.org/2000/svg">
<path d="M157.17 95.7301C156.66 88.2301 154.43 82.3401 151.56 80.4301C150.02 79.4201 147.44 80.2401 145.02 82.2101C142.6 84.1801 140.33 87.2701 139.31 90.8201C140.09 87.4001 140.53 84.0301 140.71 80.8501C140.89 77.6901 140.8 74.7601 140.5 72.2001C140.19 69.6601 139.66 67.4601 138.92 65.7401C138.16 64.0301 137.21 62.8101 136.09 62.2201C134.37 61.3101 132.46 62.0301 130.62 63.9701C128.77 65.9101 126.95 69.09 125.31 73.09C125.13 65.16 123.72 57.6101 121.65 51.9801C120.63 49.1501 119.44 46.8101 118.23 45.0801C116.99 43.3801 115.72 42.3101 114.48 42.0401C111.44 41.3901 109.36 45.7301 108.42 52.7001C108.14 52.1301 107.85 51.5501 107.56 50.9601C103.57 43.0501 98.75 36.2301 94.4 31.6401C92.24 29.3301 90.17 27.6101 88.43 26.5201C86.66 25.4601 85.19 25.0601 84.16 25.4501C81.31 26.5201 82.49 33.1101 86.01 41.9601C79.91 36.0301 73.65 31.4701 68.59 28.8001C67.32 28.1301 66.13 27.5801 65.04 27.1401C63.94 26.7201 62.93 26.4101 62.05 26.2301C60.27 25.8701 58.96 26.0101 58.23 26.7201C57.65 27.5501 57.72 28.8701 58.33 30.5501C58.64 31.3901 59.08 32.3101 59.65 33.3101C60.21 34.3201 60.89 35.4001 61.68 36.5401C64.85 41.1101 69.7 46.7001 75.46 52.4901C66.76 49.2901 60.34 49.1001 59.4 51.8901C59.05 52.9201 59.46 54.2501 60.48 55.7901C61.48 57.3601 63.13 59.0901 65.22 61.0001C66.7 62.3301 68.42 63.7401 70.32 65.1801C70.16 65.3201 70 65.4701 69.83 65.6301C69.04 66.4101 68.19 67.4 67.37 68.59C66.56 69.78 65.75 71.1701 64.93 72.7201C63.83 74.8701 62.77 77.3601 61.8 80.1301C61.84 77.4501 61.67 75.1301 61.23 73.3001C60.5 70.2801 59.04 68.4901 56.74 68.3801C53.54 68.2401 49.22 71.5301 44.99 77.1601C46.44 74.5301 47.69 72.0601 48.67 69.8501C51.08 64.3601 51.78 60.2601 49.85 58.3401C48.69 57.1801 46.66 56.9701 44.05 57.6501C41.42 58.3401 38.27 59.9201 34.85 62.3901C35.06 61.7401 35.28 61.0901 35.49 60.4401C38.35 51.5301 40.63 43.4901 41.62 37.2701C41.89 35.7201 42.05 34.2801 42.1 32.9601C42.19 31.6501 42.18 30.4701 42.05 29.4401C41.78 27.3701 41.14 25.8901 39.97 25.1801C38.38 24.2101 35.99 24.8001 33.25 26.8101C31.89 27.8201 30.43 29.1701 28.91 30.8601C27.44 32.5501 25.91 34.5701 24.41 36.8901C25.28 27.3601 25.81 18.7201 25.54 12.1201C25.49 10.4801 25.37 8.96005 25.18 7.59005C25 6.22005 24.79 5.01005 24.48 3.97005C23.87 1.89005 22.96 0.500052 21.73 0.0300519C20.44 -0.219948 18.96 0.500052 17.36 2.06005C16.57 2.84005 15.72 3.83005 14.9 5.02005C14.09 6.21005 13.28 7.60005 12.46 9.15005C9.26 15.3801 6.38 24.5201 5.23 34.9401C3.47 29.8801 1.73 25.5501 0 22.4101V117.23H153.39C153.96 116.01 154.48 114.75 154.94 113.42C155.26 112.48 155.55 111.51 155.81 110.52C156.06 109.54 156.28 108.55 156.47 107.55C157.22 103.56 157.42 99.4701 157.17 95.7301Z" fill="#46B755"/>
<path d="M364.479 117.68H400.459C400.989 117.24 401.499 116.8 401.989 116.36C402.859 115.56 403.669 114.76 404.389 113.98C405.819 112.41 406.949 110.9 407.649 109.56C408.359 108.23 408.649 107.07 408.459 106.21C408.229 105.16 407.319 104.67 405.909 104.66C404.499 104.65 402.599 105.13 400.349 105.98C400.619 105.61 400.889 105.25 401.169 104.87C404.849 99.77 407.579 94.47 409.059 90.21C410.549 85.95 410.829 82.76 409.769 81.75C409.039 81.05 407.779 81.46 406.179 82.68C405.379 83.29 404.509 84.11 403.539 85.09C402.589 86.07 401.579 87.23 400.499 88.52C402.289 82.75 403.129 77.34 403.179 73.31C403.229 69.27 402.519 66.63 401.269 66.24C399.929 66.11 398.299 68.24 396.579 71.74C394.849 75.24 392.999 80.11 391.209 85.57C391.069 83.97 390.829 82.52 390.549 81.25C390.269 79.98 389.919 78.89 389.539 78.02C388.779 76.27 387.849 75.37 386.889 75.56C385.469 75.83 384.229 78.33 383.209 82.14C382.179 85.95 381.329 91.08 380.729 96.74C380.689 97.16 380.639 97.57 380.599 97.98C379.529 95.96 378.379 94.45 377.309 93.57C376.239 92.69 375.239 92.43 374.409 92.92C373.739 93.32 373.239 94.17 372.899 95.38C372.569 96.6 372.379 98.16 372.349 99.99C372.319 100.9 372.339 101.89 372.389 102.93C372.429 103.97 372.499 105.06 372.609 106.2C372.809 108.47 373.149 110.94 373.599 113.44C370.489 108.74 367.139 106.5 365.299 107.85C364.089 108.73 363.709 110.97 363.949 113.96C364.049 115.09 364.229 116.34 364.479 117.68Z" fill="#46B755"/>
<path d="M438.69 165.94C438.95 165.79 439.2 165.62 439.45 165.46C452.05 157.06 449.78 136.46 438.81 126.04C432.2 119.8 423.44 116.32 414.32 116.32H0V264H391.14C397.22 264 402.69 259.88 403.89 253.95C404.05 253.14 404.14 252.31 404.14 251.47C404.12 245.45 399.84 239.05 406.01 234.18C407.33 233.14 408.87 232.42 410.48 231.94C421.37 228.66 432.99 224.69 439.33 214.42C442.59 209.14 443.43 202.61 440.85 196.97C439.82 194.72 438.42 192.9 436.74 191.37C428.81 184.19 429.52 171.47 438.69 165.94Z" fill="#B6D7FD"/>
<path d="M323.641 174.24C321.221 171.6 318.261 169.34 314.901 167.63C320.511 166.77 325.821 163.83 329.091 159.04C341.901 140.24 299.991 130.29 291.611 129.01C249.871 122.67 207.581 127.9 167.281 140.33C152.561 144.87 114.621 158.49 121.141 185.28C125.291 202.33 146.941 207.73 158.751 211.1C186.321 218.97 214.931 224.86 243.351 225.98C256.921 226.51 271.101 226.41 284.721 224.05C297.531 221.83 313.081 218.39 323.301 208.16C331.941 199.53 332.321 183.68 323.641 174.24Z" fill="#389444"/>
</svg>
