<svg width="112" height="112" viewBox="0 0 112 112" fill="none" xmlns="http://www.w3.org/2000/svg">
<path d="M56 112C86.9279 112 112 86.9279 112 56C112 25.0721 86.9279 0 56 0C25.0721 0 0 25.0721 0 56C0 86.9279 25.0721 112 56 112Z" fill="#FFCC4D"/>
<path d="M56.0013 90.2214C61.156 90.2214 65.3346 86.0427 65.3346 80.888C65.3346 75.7334 61.156 71.5547 56.0013 71.5547C50.8466 71.5547 46.668 75.7334 46.668 80.888C46.668 86.0427 50.8466 90.2214 56.0013 90.2214Z" fill="#664500"/>
<path d="M53.8558 51.681C53.3082 51.2362 52.5273 51.2237 51.958 51.6375C51.9207 51.6655 48.038 54.4437 40.4407 54.4437C32.8464 54.4437 28.9607 51.6655 28.9295 51.6437C28.3602 51.2175 27.5762 51.2299 27.0286 51.6717C26.4749 52.1135 26.2882 52.8726 26.5744 53.5197C26.7611 53.9397 31.2411 63.777 40.4407 63.777C49.6433 63.777 54.1202 53.9397 54.3069 53.5197C54.5931 52.8757 54.4064 52.1228 53.8558 51.681ZM84.9669 51.681C84.4193 51.2362 83.6415 51.2206 83.0691 51.6375C83.0318 51.6655 79.146 54.4437 71.5518 54.4437C63.9607 54.4437 60.0718 51.6655 60.0406 51.6437C59.4713 51.2175 58.6904 51.2299 58.1398 51.6717C57.586 52.1135 57.3993 52.8726 57.6855 53.5197C57.8722 53.9397 62.3522 63.777 71.5518 63.777C80.7544 63.777 85.2313 53.9397 85.418 53.5197C85.7042 52.8757 85.5175 52.1228 84.9669 51.681Z" fill="#664500"/>
<path d="M107.12 38.9952C107.132 38.8584 107.192 38.7557 107.192 38.6126C107.192 36.2668 105.487 34.9166 103.38 34.9166H92.2365L105.549 16.2717C106.19 15.3912 106.426 14.8624 106.426 13.7486C106.426 11.4619 104.435 11.1072 103.673 11.1072H87.0316L86.932 8.9668C86.932 8.9668 82.5485 11.5521 82.256 11.7295C81.9636 11.9068 80.6849 12.8868 80.6849 14.8001C80.6849 17.1459 82.3836 18.493 84.496 18.493H94.2929L81.0365 37.1379C80.744 37.6077 80.2773 38.485 80.2773 39.4246C80.2773 41.3597 81.8578 42.2992 83.7338 42.2992H103.38C104.183 42.2992 104.983 42.0628 105.499 41.7517L110.175 38.989H107.12V38.9952Z" fill="#FFAC33"/>
<path d="M98.8398 15.8166H89.0429C86.9304 15.8166 85.2318 14.4695 85.2318 12.1237C85.2318 9.77796 86.9304 8.42773 89.0429 8.42773H108.22C108.982 8.42773 110.973 8.77929 110.973 11.066C110.973 12.1797 110.737 12.7086 110.096 13.5891L96.7833 32.234H107.927C110.034 32.234 111.738 33.5811 111.738 35.9268C111.738 38.2726 110.034 39.6197 107.927 39.6197H88.2807C86.4047 39.6197 84.8242 38.6802 84.8242 36.7451C84.8242 35.8055 85.2909 34.9282 85.5833 34.4584L98.8398 15.8166Z" fill="#2A6797"/>
<path d="M77.4267 23.2715C77.436 23.1689 77.4827 23.0911 77.4827 22.9853C77.4827 21.2307 76.2071 20.2195 74.6298 20.2195H66.2858L76.2507 6.25999C76.736 5.60043 76.9103 5.20532 76.9103 4.37465C76.9103 2.66354 75.42 2.3991 74.8476 2.3991H62.3907L62.316 0.796875C62.316 0.796875 59.0338 2.73199 58.816 2.86576C58.5983 2.99954 57.64 3.73376 57.64 5.16488C57.64 6.91954 58.9125 7.93065 60.4929 7.93065H67.8258L57.9014 21.8902C57.6836 22.2418 57.332 22.8982 57.332 23.6013C57.332 25.0511 58.5143 25.7511 59.9205 25.7511H74.6298C75.2303 25.7511 75.8276 25.5738 76.2165 25.3404L79.7165 23.2715H77.4267Z" fill="#FFAC33"/>
<path d="M71.2321 5.92023H63.8992C62.3187 5.92023 61.0463 4.91223 61.0463 3.15445C61.0463 1.39978 62.3187 0.388672 63.8992 0.388672H78.2569C78.8294 0.388672 80.3196 0.653116 80.3196 2.36423C80.3196 3.19801 80.1423 3.59312 79.6632 4.25267L69.6983 18.2122H78.0423C79.6134 18.2122 80.8889 19.2202 80.8889 20.978C80.8889 22.7358 79.6134 23.7438 78.0361 23.7438H63.3267C61.9205 23.7438 60.7383 23.0407 60.7383 21.594C60.7383 20.8909 61.0898 20.2344 61.3076 19.8829L71.2321 5.92023Z" fill="#2A6797"/>
<path d="M55.1974 32.4344C55.2068 32.3473 55.2441 32.282 55.2441 32.1886C55.2441 30.686 54.1521 29.8211 52.8019 29.8211H45.6619L54.1925 17.8744C54.6032 17.3113 54.7557 16.9722 54.7557 16.2598C54.7557 14.7944 53.4801 14.5673 52.9916 14.5673H42.3299L42.2645 13.1953L39.2685 14.9655C39.0819 15.0806 38.2605 15.706 38.2605 16.9349C38.2605 18.4375 39.3494 19.3024 40.7028 19.3024H46.9779L38.4845 31.2491C38.2979 31.5509 37.9961 32.114 37.9961 32.7144C37.9961 33.9558 39.0103 34.5562 40.2112 34.5562H52.8019C53.3152 34.5562 53.8285 34.4038 54.1583 34.2046L57.1543 32.4344H55.1974Z" fill="#FFAC33"/>
<path d="M49.8958 17.5847H43.6207C42.2674 17.5847 41.1785 16.7198 41.1785 15.2172C41.1785 13.7145 42.2674 12.8496 43.6207 12.8496H55.9096C56.3981 12.8496 57.6736 13.0767 57.6736 14.5421C57.6736 15.2545 57.5243 15.5936 57.1105 16.1567L48.5798 28.1034H55.7198C57.0701 28.1034 58.1621 28.9683 58.1621 30.4709C58.1621 31.9736 57.0701 32.8385 55.7198 32.8385H43.1292C41.9283 32.8385 40.9141 32.2381 40.9141 30.9967C40.9141 30.3963 41.2127 29.8332 41.4025 29.5314L49.8958 17.5847Z" fill="#2A6797"/>
</svg>
