<svg width="112" height="112" viewBox="0 0 112 112" fill="none" xmlns="http://www.w3.org/2000/svg">
<path d="M112 56C112 86.9276 86.9276 112 56 112C25.0724 112 0 86.9276 0 56C0 25.0724 25.0724 0 56 0C86.9276 0 112 25.0724 112 56Z" fill="#FFCC4D"/>
<path d="M21.7782 71.5545C30.3693 71.5545 37.3338 64.59 37.3338 55.9989C37.3338 47.4078 30.3693 40.4434 21.7782 40.4434C13.1871 40.4434 6.22266 47.4078 6.22266 55.9989C6.22266 64.59 13.1871 71.5545 21.7782 71.5545Z" fill="#FF7892"/>
<path d="M90.2196 71.5564C98.8107 71.5564 105.775 64.592 105.775 56.0009C105.775 47.4098 98.8107 40.4453 90.2196 40.4453C81.6285 40.4453 74.6641 47.4098 74.6641 56.0009C74.6641 64.592 81.6285 71.5564 90.2196 71.5564Z" fill="#FF7892"/>
<path d="M85.0413 67.2907C84.4875 66.7898 83.66 66.7587 83.0658 67.2004C82.9444 67.2907 70.864 76.2227 55.9991 76.2227C41.1715 76.2227 29.0506 67.2907 28.9324 67.2004C28.3382 66.7587 27.5106 66.796 26.9569 67.2907C26.4062 67.7884 26.2817 68.6098 26.6644 69.2444C27.0657 69.9133 36.6729 85.556 55.9991 85.556C75.3253 85.556 84.9355 69.9133 85.3338 69.2444C85.7164 68.6067 85.5951 67.7884 85.0413 67.2907ZM24.8849 46.6671C24.4182 46.6671 23.9422 46.5613 23.4973 46.3373C21.9604 45.5689 21.3382 43.6991 22.1066 42.1622C22.2684 41.8387 26.2071 34.2227 37.3324 34.2227C48.4609 34.2227 52.3964 41.8418 52.5582 42.1653C53.3266 43.7022 52.7044 45.572 51.1675 46.3404C49.6369 47.1027 47.792 46.4929 47.0111 44.984C46.8773 44.7351 44.4289 40.4449 37.3324 40.4449C30.124 40.4449 27.6911 44.9031 27.6693 44.9467C27.1249 46.0387 26.0266 46.6671 24.8849 46.6671ZM87.1133 46.6671C85.9715 46.6671 84.8733 46.0387 84.3257 44.9467C84.248 44.8035 81.8182 40.4449 74.6657 40.4449C67.5133 40.4449 65.0835 44.8035 64.984 44.9871C64.1751 46.4835 62.3115 47.0715 60.7995 46.2938C59.2906 45.5098 58.6777 43.6835 59.4369 42.1622C59.5986 41.8418 63.5373 34.2227 74.6657 34.2227C85.7942 34.2227 89.7329 41.8418 89.8946 42.1653C90.6631 43.7022 90.0409 45.572 88.504 46.3404C88.056 46.5613 87.58 46.6671 87.1133 46.6671Z" fill="#664500"/>
</svg>
